<?xml version="1.0" standalone="no"?>
<!DOCTYPE svg PUBLIC "-//W3C//DTD SVG 1.1//EN" "http://www.w3.org/Graphics/SVG/1.1/DTD/svg11.dtd" >
<svg xmlns="http://www.w3.org/2000/svg" xmlns:xlink="http://www.w3.org/1999/xlink" version="1.1">
<metadata>
Created by FontForge 20170731 at Wed Aug 17 21:08:56 2022
 By Aleksey,,,
EMOTIQ (c) Enxyclo Studio. 2022. All Rights Reserved
</metadata>
<defs>
<font id="EMOTIQStencil" horiz-adv-x="1493" >
  <font-face 
    font-family="EMOTIQ Stencil"
    font-weight="400"
    font-stretch="normal"
    units-per-em="2048"
    panose-1="2 0 5 0 2 0 0 0 0 0"
    ascent="1638"
    descent="-410"
    x-height="1421"
    cap-height="1421"
    bbox="-231 -330 3239 1935"
    underline-thickness="51"
    underline-position="-152"
    unicode-range="U+0020-2265"
  />
<missing-glyph horiz-adv-x="1024" 
d="M924 0h-824v1434h824v-1434zM874 50v1334h-724v-1334h724zM478 454h-32q-35 99 -35 148q0 76 82 218q81 143 81 217q0 57 -33 90t-91 33q-34 0 -61 -13.5t-64 -43.5v45q81 73 170 73q91 0 147.5 -47t56.5 -128q0 -51 -24 -101t-86 -127q-54 -69 -76 -98.5t-40.5 -66.5
t-18.5 -66q0 -39 24 -133zM466 213q-11 0 -20 10l-61 71q-7 8 -7 18q0 9 11 22l57 58q10 10 20 10q9 0 22 -11l56 -60q9 -10 9 -20q0 -12 -10 -22l-56 -62q-14 -14 -21 -14z" />
    <glyph glyph-name=".notdef" horiz-adv-x="1024" 
d="M924 0h-824v1434h824v-1434zM874 50v1334h-724v-1334h724zM478 454h-32q-35 99 -35 148q0 76 82 218q81 143 81 217q0 57 -33 90t-91 33q-34 0 -61 -13.5t-64 -43.5v45q81 73 170 73q91 0 147.5 -47t56.5 -128q0 -51 -24 -101t-86 -127q-54 -69 -76 -98.5t-40.5 -66.5
t-18.5 -66q0 -39 24 -133zM466 213q-11 0 -20 10l-61 71q-7 8 -7 18q0 9 11 22l57 58q10 10 20 10q9 0 22 -11l56 -60q9 -10 9 -20q0 -12 -10 -22l-56 -62q-14 -14 -21 -14z" />
    <glyph glyph-name=".null" horiz-adv-x="0" 
 />
    <glyph glyph-name="nonmarkingreturn" horiz-adv-x="682" 
 />
    <glyph glyph-name="space" unicode=" " horiz-adv-x="600" 
 />
    <glyph glyph-name="space" unicode="&#xa0;" horiz-adv-x="600" 
 />
    <glyph glyph-name="exclam" unicode="!" horiz-adv-x="493" 
d="M393 423h-293v998h293v-998zM100 292h293v-292h-293v292z" />
    <glyph glyph-name="quotedbl" unicode="&#x22;" horiz-adv-x="853" 
d="M753 1421v-512l-293 219v293h293zM393 1421v-512l-293 219v293h293z" />
    <glyph glyph-name="numbersign" unicode="#" horiz-adv-x="1530" 
d="M856 610v201h-183v-201h183zM1430 811h-281v-201h281v-294h-281v-317h-293v317h-183v-317h-292v317h-281v294h281v201h-281v293h281v317h292v-317h183v317h293v-317h281v-293z" />
    <glyph glyph-name="dollar" unicode="$" 
d="M1100 476q0 36 -25.5 62t-62.5 26h-109v-150h-293v150h-174q-139 0 -237.5 98.5t-98.5 237.5v107h293v-62q0 -36 25.5 -62t62.5 -26h129v150h293v-150h154q139 0 237.5 -98.5t98.5 -237.5v-107h-293v62zM1390 293q-16 -125 -110.5 -209t-222.5 -84h-154v-183h-293v183
h-510v293h1290zM103 1129q16 124 110.5 208t222.5 84h174v183h293v-183h490v-292h-1290z" />
    <glyph glyph-name="percent" unicode="%" horiz-adv-x="2389" 
d="M657 564h-50v293h5q37 0 62.5 25.5t25.5 62.5v95q0 37 -25.5 62.5t-62.5 25.5h-5v293h50q139 0 237.5 -98.5t98.5 -237.5v-185q0 -139 -98.5 -237.5t-237.5 -98.5zM599 0l843 1421h348l-843 -1421h-348zM1953 0h-50v292h5q37 0 62.5 26t25.5 62v95q0 37 -25.5 62.5
t-62.5 25.5h-5v293h50q139 0 237.5 -98t98.5 -238v-185q0 -139 -98.5 -237t-237.5 -98zM1782 856v-293h-5q-37 0 -62.5 -25.5t-25.5 -62.5v-95q0 -36 25.5 -62t62.5 -26h5v-292h-50q-139 0 -237.5 98t-98.5 237v185q0 140 98 238t238 98h50zM486 1421v-293h-5
q-37 0 -62.5 -25.5t-25.5 -62.5v-95q0 -37 25.5 -62.5t62.5 -25.5h5v-293h-50q-139 0 -237.5 98.5t-98.5 237.5v185q0 139 98 237.5t238 98.5h50z" />
    <glyph glyph-name="ampersand" unicode="&#x26;" horiz-adv-x="1573" 
d="M1070 1v563h-137v293h540v-293h-111l1 -237q0 -126 -84.5 -219t-208.5 -107zM949 292v-293h-513q-139 0 -237.5 98.5t-98.5 237.5v192q0 101 56 184q-56 82 -56 183v198q0 126 84.5 219.5t208.5 107.5v-470q0 -38 27 -65t65 -27h155v-293h-155q-38 0 -65 -27t-27 -65v-92
q0 -37 25.5 -62.5t62.5 -25.5h468zM514 1129v292h519q137 0 233.5 -96.5t96.5 -232.5v-119h-293v64q0 38 -27 65t-65 27h-464z" />
    <glyph glyph-name="quotesingle" unicode="'" horiz-adv-x="493" 
d="M393 1421v-512l-293 219v293h293z" />
    <glyph glyph-name="parenleft" unicode="(" horiz-adv-x="794" 
d="M694 -330h-265q-136 0 -232.5 97t-96.5 233v650h293v-594q0 -39 27 -66t65 -27h209v-293zM393 771h-293v650q0 136 96.5 233t232.5 97h265v-293h-209q-38 0 -65 -27t-27 -65v-595z" />
    <glyph glyph-name="parenright" unicode=")" horiz-adv-x="794" 
d="M100 -330v293h209q38 0 65.5 27t27.5 66v594h292v-650q0 -137 -96.5 -233.5t-232.5 -96.5h-265zM402 771v595q0 38 -27.5 65t-65.5 27h-209v293h265q136 0 232.5 -96.5t96.5 -233.5v-650h-292z" />
    <glyph glyph-name="asterisk" unicode="*" horiz-adv-x="765" 
d="M665 1194v-112h-147l104 -104l-79 -79l-104 104v-147h-112v147l-105 -104l-79 79l105 104h-148v112h148l-105 105l79 79l105 -105v148h112v-148l104 105l79 -79l-104 -105h147z" />
    <glyph glyph-name="plus" unicode="+" horiz-adv-x="1124" 
d="M1024 856v-292h-316v-316h-292v316h-316v292h316v316h292v-316h316z" />
    <glyph glyph-name="comma" unicode="," horiz-adv-x="493" 
d="M100 292h293v-292l-293 -219v511z" />
    <glyph glyph-name="hyphenminus" unicode="-" horiz-adv-x="1124" 
d="M100 856h924v-292h-924v292z" />
    <glyph glyph-name="hyphenminus" unicode="&#xad;" horiz-adv-x="1124" 
d="M100 856h924v-292h-924v292z" />
    <glyph glyph-name="period" unicode="." horiz-adv-x="493" 
d="M100 292h293v-292h-293v292z" />
    <glyph glyph-name="slash" unicode="/" horiz-adv-x="1391" 
d="M100 -1l843 1422h348l-843 -1422h-348z" />
    <glyph glyph-name="zero" unicode="0" 
d="M887 564h-281v293h281v-293zM999 1421q81 0 151 -20t125 -59t86.5 -105t31.5 -151v-750q0 -140 -98.5 -238t-237.5 -98h-543v292h498q37 0 62.5 26t25.5 63v659q0 37 -25.5 62.5t-62.5 25.5h-498v293h485zM393 3q-125 16 -209 111t-84 222v750q0 127 84.5 221.5
t208.5 110.5v-1415z" />
    <glyph glyph-name="one" unicode="1" horiz-adv-x="665" 
d="M100 1128v293h465v-1421h-293v1128h-172z" />
    <glyph glyph-name="two" unicode="2" 
d="M392 472v-472h-292v527q0 137 96.5 233.5t232.5 96.5h579q40 0 65 27q27 27 27 79v456q124 -14 208.5 -107.5t84.5 -219.5v-198q0 -136 -96.5 -233t-232.5 -97h-579q-38 0 -65.5 -27t-27.5 -65zM514 0v293h879v-293h-879zM979 1421v-293h-879v293h879z" />
    <glyph glyph-name="three" unicode="3" 
d="M979 857v-293h-879v293h879zM979 293v-293h-879v293h879zM1100 3v1415q125 -16 209 -110.5t84 -221.5v-186q0 -103 -59 -189q59 -86 59 -190v-185q0 -128 -84 -222.5t-209 -110.5zM979 1421v-293h-879v293h879z" />
    <glyph glyph-name="four" unicode="4" 
d="M1101 1421h292v-1421h-293q0 237 0.5 710.5t0.5 710.5zM979 857v-293h-550q-136 0 -232.5 96.5t-96.5 232.5v528h293v-472q0 -38 27 -65t65 -27h494z" />
    <glyph glyph-name="five" unicode="5" 
d="M393 858h670q138 0 233 -97q97 -97 97 -233v-199q0 -127 -84.5 -220.5t-208.5 -107.5v471q0 37 -27 66q-27 27 -65 27h-908v857h293v-564zM979 293v-293l-879 1v292h879zM514 1129v293h879v-293h-879z" />
    <glyph glyph-name="six" unicode="6" 
d="M1008 293q38 0 65 27t27 65v88q0 38 -27 65t-65 27h-494v293h550q136 0 232.5 -96.5t96.5 -233.5v-199q0 -137 -96.5 -233t-232.5 -96h-550v293h494zM1393 1128q-146 0 -439 0.5t-440 0.5v293q147 0 440.5 -0.5t438.5 -0.5v-293zM393 1420v-1418q-124 14 -208.5 107.5
t-84.5 219.5v764q0 126 84.5 219.5t208.5 107.5z" />
    <glyph glyph-name="seven" unicode="7" 
d="M745 472v-472h-293v527q0 137 96 233t233 96l198 1v-293h-142q-38 0 -65 -27t-27 -65zM1100 566v853q124 -14 208.5 -107.5t84.5 -219.5v-198q0 -127 -84.5 -220.5t-208.5 -107.5zM979 1421v-293h-879v293h879z" />
    <glyph glyph-name="eight" unicode="8" 
d="M393 945q0 -36 25.5 -62t62.5 -26h205v-293h-205q-37 0 -62.5 -26t-25.5 -62v-95q0 -37 25.5 -62.5t62.5 -25.5h498v-293h-543q-140 0 -238 98t-98 238v185q0 104 59 190q-59 86 -59 189v186q0 127 84 221.5t209 111.5v-474zM807 857h205q37 0 62.5 26t25.5 62v95
q0 37 -25.5 62.5t-62.5 25.5h-498v293h543q139 0 237.5 -98t98.5 -237v-186q0 -103 -59 -189q59 -86 59 -190v-185q0 -127 -84 -222t-209 -111v473q0 36 -25.5 62t-62.5 26h-205v293z" />
    <glyph glyph-name="nine" unicode="9" 
d="M485 1130q-38 0 -65 -27.5t-27 -65.5v-88q0 -38 27 -65t65 -27h494v-293h-550q-136 0 -232.5 96.5t-96.5 233.5v199q0 137 96 233t233 96h550v-292h-494zM1100 2v1418q124 -14 208.5 -107.5t84.5 -219.5v-764q0 -126 -84.5 -219.5t-208.5 -107.5zM100 294q146 0 439 -0.5
t440 -0.5v-293q-147 0 -440.5 0.5t-438.5 0.5v293z" />
    <glyph glyph-name="colon" unicode=":" horiz-adv-x="493" 
d="M100 1072h293v-292h-293v292zM100 640h293v-292h-293v292z" />
    <glyph glyph-name="semicolon" unicode=";" horiz-adv-x="493" 
d="M100 292h293v-292l-293 -219v511zM100 1072h293v-292h-293v292z" />
    <glyph glyph-name="less" unicode="&#x3c;" horiz-adv-x="1105" 
d="M1005 482v-330l-760 328q-55 23 -93 68t-52 102h514zM615 771h-515q31 120 145 170l760 327v-329z" />
    <glyph glyph-name="equal" unicode="=" horiz-adv-x="1124" 
d="M1024 344h-924v293h924v-293zM1024 783h-924v293h924v-293z" />
    <glyph glyph-name="greater" unicode="&#x3e;" horiz-adv-x="1105" 
d="M100 482l391 168h514q-14 -57 -52 -102t-93 -68l-760 -328v330zM490 771l-390 168v329l760 -327q114 -50 145 -170h-515z" />
    <glyph glyph-name="question" unicode="?" 
d="M452 292h293v-292h-293v292zM745 472v-48h-293v103q0 137 96 233t233 96l227 1q40 0 65 27q27 26 27 65v470q124 -14 208.5 -107.5t84.5 -219.5v-198q0 -137 -96.5 -233.5t-232.5 -96.5h-227q-38 0 -65 -27t-27 -65zM979 1421v-293h-879v293h879z" />
    <glyph glyph-name="at" unicode="@" horiz-adv-x="1613" 
d="M700 541h155v-198q-10 -2 -29 -2h-164q-94 0 -159.5 65.5t-65.5 159.5v289q0 94 65.5 159.5t159.5 65.5h514v-476q0 -26 19 -45q17 -18 44 -18h11q26 0 44 18q19 19 19 45v554q0 26 -18.5 44.5t-44.5 18.5h-829v200h867q93 0 159 -66t66 -159v-630q0 -94 -66 -159.5
t-159 -65.5h-112q-55 0 -102 27.5t-73 75.5q-12 -22 -25 -35v471h-276q-27 0 -45 -18t-18 -45v-213q0 -27 18 -45t45 -18zM300 1420v-1157q0 -26 18.5 -44.5t44.5 -18.5h1150v-200h-1188q-93 0 -159 66t-66 159v971q0 86 57.5 150t142.5 74z" />
    <glyph glyph-name="A" unicode="A" 
d="M1013 1128h-499v293h543q139 0 237.5 -98.5t98.5 -237.5v-1085h-293v292h-586v293h586v455q0 38 -24.5 63t-62.5 25zM393 0h-293v1085q0 127 84 222t209 111v-1418z" />
    <glyph glyph-name="B" unicode="B" 
d="M1100 945v95q0 37 -25.5 62.5t-62.5 25.5h-498v293h543q139 0 237.5 -98t98.5 -237v-186q0 -103 -59 -189q59 -86 59 -190v-185q0 -140 -98.5 -238t-237.5 -98h-543v293h498q37 0 62.5 25.5t25.5 62.5v95q0 36 -25.5 62t-62.5 26h-498v293h498q37 0 62.5 26t25.5 62z
M100 0v1421h293v-1421h-293z" />
    <glyph glyph-name="C" unicode="C" 
d="M514 1128v293h879v-293h-879zM393 1418v-1415q-125 16 -209 111t-84 222v750q0 127 84.5 221.5t208.5 110.5zM514 0v293h879v-293h-879z" />
    <glyph glyph-name="D" unicode="D" 
d="M1100 385v651q0 38 -27 65t-65 27h-494v293h550q136 0 232.5 -96.5t96.5 -232.5v-763q0 -137 -96.5 -233t-232.5 -96h-550v293h494q38 0 65 27t27 65zM393 1421v-1421h-293v1421h293z" />
    <glyph glyph-name="E" unicode="E" 
d="M393 3q-125 16 -209 111t-84 222v185q0 104 59 190q-59 86 -59 189v186q0 127 84.5 221.5t208.5 110.5v-1415zM514 857h879v-292q-145 0 -438.5 -0.5t-440.5 -0.5v293zM514 293h879v-293h-879v293zM514 1421h879v-293h-879v293z" />
    <glyph glyph-name="F" unicode="F" 
d="M393 0h-293v521q0 104 59 190q-59 86 -59 189v186q0 127 84.5 221.5t208.5 110.5v-1418zM514 857h879v-292l-879 -1v293zM514 1421h879v-293h-879v293z" />
    <glyph glyph-name="G" unicode="G" 
d="M514 1128v293h860v-293h-860zM393 1418v-1415q-125 16 -209 111t-84 222v750q0 127 84.5 221.5t208.5 110.5zM514 0v293h586v183q0 37 -25.5 62.5t-62.5 25.5h-419v293h464q139 0 237.5 -98.5t98.5 -237.5v-521h-879z" />
    <glyph glyph-name="H" unicode="H" 
d="M1100 1421h293v-1421h-293v564h-586v293h586v564zM393 1421v-1421h-293v1421h293z" />
    <glyph glyph-name="I" unicode="I" horiz-adv-x="493" 
d="M100 0v1421h293v-1421h-293z" />
    <glyph glyph-name="J" unicode="J" 
d="M1393 1421v-1085q0 -127 -84 -222t-209 -111v1418h293zM979 293v-293h-879v293h879z" />
    <glyph glyph-name="K" unicode="K" 
d="M100 0v1421h293v-1421h-293zM514 564v293h509q33 4 55 29t22 59v476h293v-499q0 -125 -58 -211q58 -87 58 -212v-499h-293v476q0 34 -22 59t-55 29h-509z" />
    <glyph glyph-name="L" unicode="L" 
d="M100 1421h293v-1418q-125 16 -209 111t-84 222v1085zM514 293h879v-293h-879v293z" />
    <glyph glyph-name="M" unicode="M" horiz-adv-x="2192" 
d="M100 0v1086q0 127 84.5 221.5t208.5 110.5v-1418h-293zM514 1128v293h110q139 0 237 -98t98 -237v-413q0 -37 26 -62.5t62 -25.5h98q37 0 62.5 25.5t25.5 62.5v413q0 139 98.5 237t237.5 98h187q139 0 237.5 -98t98.5 -237v-1086h-293v1040q0 37 -25.5 62.5t-62.5 25.5
h-97q-37 0 -62.5 -25.5t-25.5 -62.5v-412q0 -139 -98.5 -237.5t-237.5 -98.5h-188q-139 0 -237 98.5t-98 237.5v412q0 37 -26 62.5t-62 25.5h-65z" />
    <glyph glyph-name="N" unicode="N" horiz-adv-x="1626" 
d="M100 0v1086q0 127 84.5 221.5t208.5 110.5v-1418h-293zM514 1128v293h110q139 0 237 -98t98 -237v-705q0 -37 26 -62.5t62 -25.5h98q37 0 62.5 25.5t25.5 62.5v1040h293v-1085q0 -140 -98 -238t-238 -98h-188q-139 0 -237 98.5t-98 237.5v704q0 37 -25.5 62.5t-62.5 25.5
h-65z" />
    <glyph glyph-name="O" unicode="O" 
d="M1057 1421q139 0 237.5 -98t98.5 -237v-750q0 -140 -98.5 -238t-237.5 -98h-543v292h486q48 0 75 26q25 27 25 63v659q0 37 -25.5 62.5t-62.5 25.5h-498v293h543zM393 3q-125 16 -209 111t-84 222v750q0 127 84.5 221.5t208.5 110.5v-1415z" />
    <glyph glyph-name="P" unicode="P" horiz-adv-x="1494" 
d="M1101 677v359q0 38 -27 65t-65 27h-495v293h550q137 0 233.5 -96.5t96.5 -232.5v-470q0 -136 -97 -233t-233 -97h-550v293h495q38 0 65 27t27 65zM393 1421v-1421h-293v1421h293z" />
    <glyph glyph-name="Q" unicode="Q" 
d="M1100 1040q0 37 -25.5 62.5t-62.5 25.5h-498v293h543q139 0 237.5 -98t98.5 -237v-750q0 -109 -63 -196q22 -35 62 -41v-294h-32q-100 0 -182 53.5t-122 141.5h-542v293h498q37 0 62.5 25.5t25.5 62.5v659zM393 3q-125 16 -209 111t-84 222v750q0 127 84.5 221.5
t208.5 110.5v-1415z" />
    <glyph glyph-name="R" unicode="R" horiz-adv-x="1494" 
d="M1101 677v359q0 38 -27 65.5t-65 27.5h-495v292h550q137 0 233.5 -96.5t96.5 -232.5v-470q0 -103 -57 -185q57 -86 57 -188v-249h-293v204q0 35 -24 60.5t-59 27.5h-504v293h500q36 2 61.5 28.5t25.5 63.5zM393 1421v-1421h-293v1421h293z" />
    <glyph glyph-name="S" unicode="S" 
d="M1100 476q0 36 -25.5 62t-62.5 26h-576q-139 0 -237.5 98.5t-98.5 237.5v185q0 127 84 222t209 111v-473q0 -36 25.5 -62t62.5 -26h576q139 0 237.5 -98.5t98.5 -237.5v-185q0 -128 -84 -222.5t-209 -110.5v473zM514 1421h879v-293h-879v293zM979 0h-879v293h879v-293z
" />
    <glyph glyph-name="T" unicode="T" horiz-adv-x="1494" 
d="M893 0h-293v1040q0 37 -25.5 62.5t-62.5 25.5h-412v293h793v-1421zM1014 1421h380v-293h-380v293z" />
    <glyph glyph-name="U" unicode="U" 
d="M1013 293q36 0 61.5 25.5t25.5 62.5v1040h293v-1085q0 -140 -98.5 -238t-237.5 -98h-543v293h499zM393 1421v-1418q-125 16 -209 111t-84 222v1085h293z" />
    <glyph glyph-name="V" unicode="V" horiz-adv-x="1444" 
d="M1344 0h-830v293h538v1128h292v-1421zM393 1421v-1418q-125 16 -209 111t-84 222v1085h293z" />
    <glyph glyph-name="W" unicode="W" horiz-adv-x="2192" 
d="M100 1421h293v-1418q-125 16 -209 111t-84 222v1085zM514 293h64q37 0 62.5 25.5t25.5 62.5v412q0 139 98 237.5t238 98.5h187q139 0 237.5 -98.5t98.5 -237.5v-412q0 -37 25.5 -62.5t62.5 -25.5h98q37 0 62.5 25.5t25.5 62.5v1040h293v-1085q0 -139 -98.5 -237.5
t-237.5 -98.5h-188q-139 0 -237.5 98.5t-98.5 237.5v412q0 37 -25.5 62.5t-62.5 25.5h-97q-37 0 -62.5 -25.5t-25.5 -62.5v-412q0 -139 -98.5 -237.5t-237.5 -98.5h-109v293z" />
    <glyph glyph-name="X" unicode="X" 
d="M1013 857q36 0 61.5 26t25.5 62v476h293v-521q0 -104 -59 -189q59 -86 59 -190v-521h-293v476q0 36 -25.5 62t-61.5 26h-499v293h499zM393 1421v-1421h-293v521q0 104 59 190q-59 85 -59 189v521h293z" />
    <glyph glyph-name="Y" unicode="Y" 
d="M893 857v-857h-293v564h-164q-140 0 -238 98t-98 238v521h293v-476q0 -37 25.5 -62.5t62.5 -25.5h412zM1014 564v293q36 0 61 26t25 62v476h293v-521q0 -140 -98.5 -238t-237.5 -98h-43z" />
    <glyph glyph-name="Z" unicode="Z" 
d="M393 476v-473q-125 16 -209 111t-84 222v185q0 139 98.5 237.5t237.5 98.5h576q37 0 62.5 26t25.5 62v473q125 -16 209 -110.5t84 -222.5v-185q0 -139 -98.5 -237.5t-237.5 -98.5h-576q-37 0 -62.5 -26t-25.5 -62zM979 1421v-293h-879v293h879zM514 0v293h879v-293h-879z
" />
    <glyph glyph-name="bracketleft" unicode="[" horiz-adv-x="794" 
d="M694 -330h-594v980h293v-687h301v-293zM393 771h-293v980h594v-293h-301v-687z" />
    <glyph glyph-name="backslash" unicode="\" horiz-adv-x="1391" 
d="M1291 -1h-348l-843 1422h348z" />
    <glyph glyph-name="bracketright" unicode="]" horiz-adv-x="794" 
d="M100 -330v293h301v687h293v-980h-594zM401 771v687h-301v293h594v-980h-293z" />
    <glyph glyph-name="asciicircum" unicode="^" horiz-adv-x="966" 
d="M379 856h-279l188 437q19 43 54.5 74.5t79.5 44.5v-454zM543 957v455q95 -27 135 -119l188 -437h-279z" />
    <glyph glyph-name="underscore" unicode="_" horiz-adv-x="1490" 
d="M100 292h1290v-293h-1290v293z" />
    <glyph glyph-name="a" unicode="a" 
d="M1013 1128h-499v293h543q139 0 237.5 -98.5t98.5 -237.5v-1085h-293v292h-586v293h586v455q0 38 -24.5 63t-62.5 25zM393 0h-293v1085q0 127 84 222t209 111v-1418z" />
    <glyph glyph-name="b" unicode="b" 
d="M1100 945v95q0 37 -25.5 62.5t-62.5 25.5h-498v293h543q139 0 237.5 -98t98.5 -237v-186q0 -103 -59 -189q59 -86 59 -190v-185q0 -140 -98.5 -238t-237.5 -98h-543v293h498q37 0 62.5 25.5t25.5 62.5v95q0 36 -25.5 62t-62.5 26h-498v293h498q37 0 62.5 26t25.5 62z
M100 0v1421h293v-1421h-293z" />
    <glyph glyph-name="c" unicode="c" 
d="M514 1128v293h879v-293h-879zM393 1418v-1415q-125 16 -209 111t-84 222v750q0 127 84.5 221.5t208.5 110.5zM514 0v293h879v-293h-879z" />
    <glyph glyph-name="d" unicode="d" 
d="M1100 385v651q0 38 -27 65t-65 27h-494v293h550q136 0 232.5 -96.5t96.5 -232.5v-763q0 -137 -96.5 -233t-232.5 -96h-550v293h494q38 0 65 27t27 65zM393 1421v-1421h-293v1421h293z" />
    <glyph glyph-name="e" unicode="e" 
d="M393 3q-125 16 -209 111t-84 222v185q0 104 59 190q-59 86 -59 189v186q0 127 84.5 221.5t208.5 110.5v-1415zM514 857h879v-292q-145 0 -438.5 -0.5t-440.5 -0.5v293zM514 293h879v-293h-879v293zM514 1421h879v-293h-879v293z" />
    <glyph glyph-name="f" unicode="f" 
d="M393 0h-293v521q0 104 59 190q-59 86 -59 189v186q0 127 84.5 221.5t208.5 110.5v-1418zM514 857h879v-292l-879 -1v293zM514 1421h879v-293h-879v293z" />
    <glyph glyph-name="g" unicode="g" 
d="M514 1128v293h860v-293h-860zM393 1418v-1415q-125 16 -209 111t-84 222v750q0 127 84.5 221.5t208.5 110.5zM514 0v293h586v183q0 37 -25.5 62.5t-62.5 25.5h-419v293h464q139 0 237.5 -98.5t98.5 -237.5v-521h-879z" />
    <glyph glyph-name="h" unicode="h" 
d="M1100 1421h293v-1421h-293v564h-586v293h586v564zM393 1421v-1421h-293v1421h293z" />
    <glyph glyph-name="i" unicode="i" horiz-adv-x="493" 
d="M100 0v1421h293v-1421h-293z" />
    <glyph glyph-name="j" unicode="j" 
d="M1393 1421v-1085q0 -127 -84 -222t-209 -111v1418h293zM979 293v-293h-879v293h879z" />
    <glyph glyph-name="k" unicode="k" 
d="M100 0v1421h293v-1421h-293zM514 564v293h509q33 4 55 29t22 59v476h293v-499q0 -125 -58 -211q58 -87 58 -212v-499h-293v476q0 34 -22 59t-55 29h-509z" />
    <glyph glyph-name="l" unicode="l" 
d="M100 1421h293v-1418q-125 16 -209 111t-84 222v1085zM514 293h879v-293h-879v293z" />
    <glyph glyph-name="m" unicode="m" horiz-adv-x="2192" 
d="M100 0v1086q0 127 84.5 221.5t208.5 110.5v-1418h-293zM514 1128v293h110q139 0 237 -98t98 -237v-413q0 -37 26 -62.5t62 -25.5h98q37 0 62.5 25.5t25.5 62.5v413q0 139 98.5 237t237.5 98h187q139 0 237.5 -98t98.5 -237v-1086h-293v1040q0 37 -25.5 62.5t-62.5 25.5
h-97q-37 0 -62.5 -25.5t-25.5 -62.5v-412q0 -139 -98.5 -237.5t-237.5 -98.5h-188q-139 0 -237 98.5t-98 237.5v412q0 37 -26 62.5t-62 25.5h-65z" />
    <glyph glyph-name="n" unicode="n" horiz-adv-x="1626" 
d="M100 0v1086q0 127 84.5 221.5t208.5 110.5v-1418h-293zM514 1128v293h110q139 0 237 -98t98 -237v-705q0 -37 26 -62.5t62 -25.5h98q37 0 62.5 25.5t25.5 62.5v1040h293v-1085q0 -140 -98 -238t-238 -98h-188q-139 0 -237 98.5t-98 237.5v704q0 37 -25.5 62.5t-62.5 25.5
h-65z" />
    <glyph glyph-name="o" unicode="o" 
d="M1057 1421q139 0 237.5 -98t98.5 -237v-750q0 -140 -98.5 -238t-237.5 -98h-543v292h486q48 0 75 26q25 27 25 63v659q0 37 -25.5 62.5t-62.5 25.5h-498v293h543zM393 3q-125 16 -209 111t-84 222v750q0 127 84.5 221.5t208.5 110.5v-1415z" />
    <glyph glyph-name="p" unicode="p" horiz-adv-x="1494" 
d="M1101 677v359q0 38 -27 65t-65 27h-495v293h550q137 0 233.5 -96.5t96.5 -232.5v-470q0 -136 -97 -233t-233 -97h-550v293h495q38 0 65 27t27 65zM393 1421v-1421h-293v1421h293z" />
    <glyph glyph-name="q" unicode="q" 
d="M1100 1040q0 37 -25.5 62.5t-62.5 25.5h-498v293h543q139 0 237.5 -98t98.5 -237v-750q0 -109 -63 -196q22 -35 62 -41v-294h-32q-100 0 -182 53.5t-122 141.5h-542v293h498q37 0 62.5 25.5t25.5 62.5v659zM393 3q-125 16 -209 111t-84 222v750q0 127 84.5 221.5
t208.5 110.5v-1415z" />
    <glyph glyph-name="r" unicode="r" horiz-adv-x="1494" 
d="M1101 677v359q0 38 -27 65.5t-65 27.5h-495v292h550q137 0 233.5 -96.5t96.5 -232.5v-470q0 -103 -57 -185q57 -86 57 -188v-249h-293v204q0 35 -24 60.5t-59 27.5h-504v293h500q36 2 61.5 28.5t25.5 63.5zM393 1421v-1421h-293v1421h293z" />
    <glyph glyph-name="s" unicode="s" 
d="M1100 476q0 36 -25.5 62t-62.5 26h-576q-139 0 -237.5 98.5t-98.5 237.5v185q0 127 84 222t209 111v-473q0 -36 25.5 -62t62.5 -26h576q139 0 237.5 -98.5t98.5 -237.5v-185q0 -128 -84 -222.5t-209 -110.5v473zM514 1421h879v-293h-879v293zM979 0h-879v293h879v-293z
" />
    <glyph glyph-name="t" unicode="t" horiz-adv-x="1494" 
d="M893 0h-293v1040q0 37 -25.5 62.5t-62.5 25.5h-412v293h793v-1421zM1014 1421h380v-293h-380v293z" />
    <glyph glyph-name="u" unicode="u" 
d="M1013 293q36 0 61.5 25.5t25.5 62.5v1040h293v-1085q0 -140 -98.5 -238t-237.5 -98h-543v293h499zM393 1421v-1418q-125 16 -209 111t-84 222v1085h293z" />
    <glyph glyph-name="v" unicode="v" horiz-adv-x="1444" 
d="M1344 0h-830v293h538v1128h292v-1421zM393 1421v-1418q-125 16 -209 111t-84 222v1085h293z" />
    <glyph glyph-name="w" unicode="w" horiz-adv-x="2192" 
d="M100 1421h293v-1418q-125 16 -209 111t-84 222v1085zM514 293h64q37 0 62.5 25.5t25.5 62.5v412q0 139 98 237.5t238 98.5h187q139 0 237.5 -98.5t98.5 -237.5v-412q0 -37 25.5 -62.5t62.5 -25.5h98q37 0 62.5 25.5t25.5 62.5v1040h293v-1085q0 -139 -98.5 -237.5
t-237.5 -98.5h-188q-139 0 -237.5 98.5t-98.5 237.5v412q0 37 -25.5 62.5t-62.5 25.5h-97q-37 0 -62.5 -25.5t-25.5 -62.5v-412q0 -139 -98.5 -237.5t-237.5 -98.5h-109v293z" />
    <glyph glyph-name="x" unicode="x" 
d="M1013 857q36 0 61.5 26t25.5 62v476h293v-521q0 -104 -59 -189q59 -86 59 -190v-521h-293v476q0 36 -25.5 62t-61.5 26h-499v293h499zM393 1421v-1421h-293v521q0 104 59 190q-59 85 -59 189v521h293z" />
    <glyph glyph-name="y" unicode="y" 
d="M893 857v-857h-293v564h-164q-140 0 -238 98t-98 238v521h293v-476q0 -37 25.5 -62.5t62.5 -25.5h412zM1014 564v293q36 0 61 26t25 62v476h293v-521q0 -140 -98.5 -238t-237.5 -98h-43z" />
    <glyph glyph-name="z" unicode="z" 
d="M393 476v-473q-125 16 -209 111t-84 222v185q0 139 98.5 237.5t237.5 98.5h576q37 0 62.5 26t25.5 62v473q125 -16 209 -110.5t84 -222.5v-185q0 -139 -98.5 -237.5t-237.5 -98.5h-576q-37 0 -62.5 -26t-25.5 -62zM979 1421v-293h-879v293h879zM514 0v293h879v-293h-879z
" />
    <glyph glyph-name="bar" unicode="|" horiz-adv-x="493" 
d="M100 -330v2080h293v-2080h-293z" />
    <glyph glyph-name="asciitilde" unicode="~" horiz-adv-x="1154" 
d="M841 857h213v-123q0 -100 -70.5 -170t-169.5 -70q-120 1 -124 1q-74 4 -133.5 49.5t-81.5 116.5q0 2 -1 3q-6 22 -24 35.5t-40 13.5h-30q-28 0 -47.5 -19.5t-19.5 -47.5v-82h-213v123q0 99 70 169t169 70h125q74 -5 133 -50.5t81 -116.5q1 -1 1 -3q6 -22 24 -35.5
t41 -13.5h30q28 0 47.5 19.5t19.5 47.5v83z" />
    <glyph glyph-name="exclamdown" unicode="&#xa1;" horiz-adv-x="493" 
d="M100 998h293v-997h-293v997zM393 1130h-293v292h293v-292z" />
    <glyph glyph-name="brokenbar" unicode="&#xa6;" horiz-adv-x="493" 
d="M100 779v894h293v-894h-293zM100 -268v895h293v-895h-293z" />
    <glyph glyph-name="dieresis" unicode="&#xa8;" horiz-adv-x="849" 
d="M349 1587h-249v248h249v-248zM749 1587h-249v248h249v-248z" />
    <glyph glyph-name="guillemetleft" unicode="&#xab;" horiz-adv-x="2015" 
d="M1005 482v-330l-760 328q-55 23 -93 68t-52 102h514zM615 771h-515q31 120 145 170l760 327v-329zM1908 482v-330l-761 328q-54 23 -92 68t-52 102h514zM1518 771h-515q14 57 52 101.5t92 68.5l761 327v-329z" />
    <glyph glyph-name="macron" unicode="&#xaf;" horiz-adv-x="949" 
d="M849 1587h-749v248h749v-248z" />
    <glyph glyph-name="plusminus" unicode="&#xb1;" horiz-adv-x="1124" 
d="M1024 1056v-292h-316v-316h-292v316h-316v292h316v316h292v-316h316zM100 293h924v-293h-924v293z" />
    <glyph glyph-name="periodcentered" unicode="&#xb7;" horiz-adv-x="449" 
d="M100 835h249v-248h-249v248z" />
    <glyph glyph-name="periodcentered" unicode="&#x2219;" horiz-adv-x="449" 
d="M100 835h249v-248h-249v248z" />
    <glyph glyph-name="guillemetright" unicode="&#xbb;" horiz-adv-x="2015" 
d="M100 482l391 168h514q-14 -57 -52 -102t-93 -68l-760 -328v330zM490 771l-390 168v329l760 -327q114 -50 145 -170h-515zM1003 482l390 168h515q-14 -57 -52 -102t-93 -68l-760 -328v330zM1393 771l-390 168v329l760 -327q114 -50 145 -170h-515z" />
    <glyph glyph-name="questiondown" unicode="&#xbf;" 
d="M1041 1129h-293v293h293v-293zM749 950v48h292v-103q0 -136 -96 -232.5t-233 -97.5h-227q-38 0 -65 -27t-27 -65v-470q-124 14 -208.5 107t-84.5 220v198q0 136 96.5 233t232.5 97h227q40 0 65 27q28 26 28 65zM514 0v293h879v-293h-879z" />
    <glyph glyph-name="Acircumflex" unicode="&#xc2;" 
d="M1013 1128h-499v293h543q139 0 237.5 -98.5t98.5 -237.5v-1085h-293v292h-586v293h586v455q0 38 -24.5 63t-62.5 25zM393 0h-293v1085q0 127 84 222t209 111v-1418zM643 1550h-279l188 297q25 40 78 64t117 24q63 0 116 -24t79 -64l188 -297h-279l-104 165z" />
    <glyph glyph-name="Atilde" unicode="&#xc3;" 
d="M1013 1128h-499v293h543q139 0 237.5 -98.5t98.5 -237.5v-1085h-293v292h-586v293h586v455q0 38 -24.5 63t-62.5 25zM393 0h-293v1085q0 127 84 222t209 111v-1418zM1011 1833h213v-98q0 -79 -70.5 -134.5t-169.5 -55.5h-124q-75 4 -134 40t-81 92q0 2 -1 3q-6 17 -24 28
t-40 11h-30q-28 0 -47.5 -15.5t-19.5 -37.5v-66h-213v98q0 79 70 134.5t169 55.5h125q75 -4 133.5 -40t80.5 -93q1 0 1 -2q6 -17 24 -28t41 -11h30q28 0 47.5 15.5t19.5 37.5v66z" />
    <glyph glyph-name="Adieresis" unicode="&#xc4;" 
d="M1013 1128h-499v293h543q139 0 237.5 -98.5t98.5 -237.5v-1085h-293v292h-586v293h586v455q0 38 -24.5 63t-62.5 25zM393 0h-293v1085q0 127 84 222t209 111v-1418zM671 1587h-249v248h249v-248zM1071 1587h-249v248h249v-248z" />
    <glyph glyph-name="AE" unicode="&#xc6;" horiz-adv-x="2500" 
d="M2400 1128h-880v293h880v-293zM1393 0h-293v292h-586v293h586v455q0 40 -24 64t-63 24h-499v293h543q109 0 193 -60q64 45 149 57v-1415l-6 1v-4zM393 0h-293v1085q0 128 81.5 221t211.5 112v-1418zM1520 564v293h880v-292zM2400 0h-880v293h880v-293z" />
    <glyph glyph-name="Ecircumflex" unicode="&#xca;" 
d="M393 3q-125 16 -209 111t-84 222v185q0 104 59 190q-59 86 -59 189v186q0 127 84.5 221.5t208.5 110.5v-1415zM514 857h879v-292q-145 0 -438.5 -0.5t-440.5 -0.5v293zM514 293h879v-293h-879v293zM514 1421h879v-293h-879v293zM743 1550h-279l188 297q25 40 78 64
t117 24q63 0 116 -24t79 -64l188 -297h-279l-104 165z" />
    <glyph glyph-name="Edieresis" unicode="&#xcb;" 
d="M393 3q-125 16 -209 111t-84 222v185q0 104 59 190q-59 86 -59 189v186q0 127 84.5 221.5t208.5 110.5v-1415zM514 857h879v-292q-145 0 -438.5 -0.5t-440.5 -0.5v293zM514 293h879v-293h-879v293zM514 1421h879v-293h-879v293zM771 1587h-249v248h249v-248zM1171 1587
h-249v248h249v-248z" />
    <glyph glyph-name="Icircumflex" unicode="&#xce;" horiz-adv-x="493" 
d="M100 0v1421h293v-1421h-293zM142 1550h-279l188 297q25 40 78 64t117 24q63 0 116 -24t79 -64l188 -297h-279l-104 165z" />
    <glyph glyph-name="Idieresis" unicode="&#xcf;" horiz-adv-x="493" 
d="M100 0v1421h293v-1421h-293zM170 1587h-249v248h249v-248zM570 1587h-249v248h249v-248z" />
    <glyph glyph-name="Eth" unicode="&#xd0;" horiz-adv-x="1593" 
d="M493 0h-293v700h-200v204h200v517h293v-517h410v-204h-410v-700zM1164 0h-550v293h494q38 0 65 27t27 65v651q0 38 -27 65t-65 27h-494v293h550q136 0 232.5 -96.5t96.5 -232.5v-763q0 -137 -96.5 -233t-232.5 -96z" />
    <glyph glyph-name="Ntilde" unicode="&#xd1;" horiz-adv-x="1626" 
d="M100 0v1086q0 127 84.5 221.5t208.5 110.5v-1418h-293zM514 1128v293h110q139 0 237 -98t98 -237v-705q0 -37 26 -62.5t62 -25.5h98q37 0 62.5 25.5t25.5 62.5v1040h293v-1085q0 -140 -98 -238t-238 -98h-188q-139 0 -237 98.5t-98 237.5v704q0 37 -25.5 62.5t-62.5 25.5
h-65zM1077 1833h213v-98q0 -79 -70.5 -134.5t-169.5 -55.5h-124q-75 4 -134 40t-81 92q0 2 -1 3q-6 17 -24 28t-40 11h-30q-28 0 -47.5 -15.5t-19.5 -37.5v-66h-213v98q0 79 70 134.5t169 55.5h125q75 -4 133.5 -40t80.5 -93q1 0 1 -2q6 -17 24 -28t41 -11h30
q28 0 47.5 15.5t19.5 37.5v66z" />
    <glyph glyph-name="Ocircumflex" unicode="&#xd4;" 
d="M1057 1421q139 0 237.5 -98t98.5 -237v-750q0 -140 -98.5 -238t-237.5 -98h-543v292h486q48 0 75 26q25 27 25 63v659q0 37 -25.5 62.5t-62.5 25.5h-498v293h543zM393 3q-125 16 -209 111t-84 222v750q0 127 84.5 221.5t208.5 110.5v-1415zM643 1550h-279l188 297
q25 40 78 64t117 24q63 0 116 -24t79 -64l188 -297h-279l-104 165z" />
    <glyph glyph-name="Otilde" unicode="&#xd5;" 
d="M1057 1421q139 0 237.5 -98t98.5 -237v-750q0 -140 -98.5 -238t-237.5 -98h-543v292h486q48 0 75 26q25 27 25 63v659q0 37 -25.5 62.5t-62.5 25.5h-498v293h543zM393 3q-125 16 -209 111t-84 222v750q0 127 84.5 221.5t208.5 110.5v-1415zM1011 1833h213v-98
q0 -79 -70.5 -134.5t-169.5 -55.5h-124q-75 4 -134 40t-81 92q0 2 -1 3q-6 17 -24 28t-40 11h-30q-28 0 -47.5 -15.5t-19.5 -37.5v-66h-213v98q0 79 70 134.5t169 55.5h125q75 -4 133.5 -40t80.5 -93q1 0 1 -2q6 -17 24 -28t41 -11h30q28 0 47.5 15.5t19.5 37.5v66z" />
    <glyph glyph-name="Odieresis" unicode="&#xd6;" 
d="M1057 1421q139 0 237.5 -98t98.5 -237v-750q0 -140 -98.5 -238t-237.5 -98h-543v292h486q48 0 75 26q25 27 25 63v659q0 37 -25.5 62.5t-62.5 25.5h-498v293h543zM393 3q-125 16 -209 111t-84 222v750q0 127 84.5 221.5t208.5 110.5v-1415zM671 1587h-249v248h249v-248z
M1071 1587h-249v248h249v-248z" />
    <glyph glyph-name="multiply" unicode="&#xd7;" horiz-adv-x="1060" 
d="M753 280l-223 224l-224 -224l-206 207l223 223l-223 223l206 207l224 -224l223 224l207 -207l-224 -223l224 -223z" />
    <glyph glyph-name="Oslash" unicode="&#xd8;" 
d="M360 -151h-243l126 212q-68 47 -105.5 118t-37.5 157v750q0 127 81.5 220t211.5 112v-1106l486 816h-365v293h539l80 134h244l-119 -200q135 -102 135 -269v-750q0 -140 -98.5 -238t-237.5 -98h-543v107zM1000 292q47 0 73.5 24.5t26.5 64.5v659q0 19 -8 37l-468 -785
h376z" />
    <glyph glyph-name="Ucircumflex" unicode="&#xdb;" 
d="M1013 293q36 0 61.5 25.5t25.5 62.5v1040h293v-1085q0 -140 -98.5 -238t-237.5 -98h-543v293h499zM393 1421v-1418q-125 16 -209 111t-84 222v1085h293zM643 1550h-279l188 297q25 40 78 64t117 24q63 0 116 -24t79 -64l188 -297h-279l-104 165z" />
    <glyph glyph-name="Udieresis" unicode="&#xdc;" 
d="M1013 293q36 0 61.5 25.5t25.5 62.5v1040h293v-1085q0 -140 -98.5 -238t-237.5 -98h-543v293h499zM393 1421v-1418q-125 16 -209 111t-84 222v1085h293zM671 1587h-249v248h249v-248zM1071 1587h-249v248h249v-248z" />
    <glyph glyph-name="Thorn" unicode="&#xde;" horiz-adv-x="1494" 
d="M393 -200h-293v1621h293v-1621zM1064 92h-550v293h495q38 0 65 27t27 65v359q0 38 -27 65t-65 27h-495v293h550q138 0 234 -96t96 -233v-470q0 -138 -96 -234t-234 -96z" />
    <glyph glyph-name="acircumflex" unicode="&#xe2;" 
d="M1013 1128h-499v293h543q139 0 237.5 -98.5t98.5 -237.5v-1085h-293v292h-586v293h586v455q0 38 -24.5 63t-62.5 25zM393 0h-293v1085q0 127 84 222t209 111v-1418zM643 1550h-279l188 297q25 40 78 64t117 24q63 0 116 -24t79 -64l188 -297h-279l-104 165z" />
    <glyph glyph-name="atilde" unicode="&#xe3;" 
d="M1013 1128h-499v293h543q139 0 237.5 -98.5t98.5 -237.5v-1085h-293v292h-586v293h586v455q0 38 -24.5 63t-62.5 25zM393 0h-293v1085q0 127 84 222t209 111v-1418zM1011 1833h213v-98q0 -79 -70.5 -134.5t-169.5 -55.5h-124q-75 4 -134 40t-81 92q0 2 -1 3q-6 17 -24 28
t-40 11h-30q-28 0 -47.5 -15.5t-19.5 -37.5v-66h-213v98q0 79 70 134.5t169 55.5h125q75 -4 133.5 -40t80.5 -93q1 0 1 -2q6 -17 24 -28t41 -11h30q28 0 47.5 15.5t19.5 37.5v66z" />
    <glyph glyph-name="adieresis" unicode="&#xe4;" 
d="M1013 1128h-499v293h543q139 0 237.5 -98.5t98.5 -237.5v-1085h-293v292h-586v293h586v455q0 38 -24.5 63t-62.5 25zM393 0h-293v1085q0 127 84 222t209 111v-1418zM671 1587h-249v248h249v-248zM1071 1587h-249v248h249v-248z" />
    <glyph glyph-name="ae" unicode="&#xe6;" horiz-adv-x="2500" 
d="M2400 1128h-880v293h880v-293zM1393 0h-293v292h-586v293h586v455q0 40 -24 64t-63 24h-499v293h543q109 0 193 -60q64 45 149 57v-1415l-6 1v-4zM393 0h-293v1085q0 128 81.5 221t211.5 112v-1418zM1520 564v293h880v-292zM2400 0h-880v293h880v-293z" />
    <glyph glyph-name="ecircumflex" unicode="&#xea;" 
d="M393 3q-125 16 -209 111t-84 222v185q0 104 59 190q-59 86 -59 189v186q0 127 84.5 221.5t208.5 110.5v-1415zM514 857h879v-292q-145 0 -438.5 -0.5t-440.5 -0.5v293zM514 293h879v-293h-879v293zM514 1421h879v-293h-879v293zM743 1550h-279l188 297q25 40 78 64
t117 24q63 0 116 -24t79 -64l188 -297h-279l-104 165z" />
    <glyph glyph-name="edieresis" unicode="&#xeb;" 
d="M393 3q-125 16 -209 111t-84 222v185q0 104 59 190q-59 86 -59 189v186q0 127 84.5 221.5t208.5 110.5v-1415zM514 857h879v-292q-145 0 -438.5 -0.5t-440.5 -0.5v293zM514 293h879v-293h-879v293zM514 1421h879v-293h-879v293zM771 1587h-249v248h249v-248zM1171 1587
h-249v248h249v-248z" />
    <glyph glyph-name="icircumflex" unicode="&#xee;" horiz-adv-x="493" 
d="M100 0v1421h293v-1421h-293zM142 1550h-279l188 297q25 40 78 64t117 24q63 0 116 -24t79 -64l188 -297h-279l-104 165z" />
    <glyph glyph-name="idieresis" unicode="&#xef;" horiz-adv-x="493" 
d="M100 0v1421h293v-1421h-293zM170 1587h-249v248h249v-248zM570 1587h-249v248h249v-248z" />
    <glyph glyph-name="eth" unicode="&#xf0;" horiz-adv-x="1593" 
d="M493 0h-293v700h-200v204h200v517h293v-517h410v-204h-410v-700zM1164 0h-550v293h494q38 0 65 27t27 65v651q0 38 -27 65t-65 27h-494v293h550q136 0 232.5 -96.5t96.5 -232.5v-763q0 -137 -96.5 -233t-232.5 -96z" />
    <glyph glyph-name="ntilde" unicode="&#xf1;" horiz-adv-x="1626" 
d="M100 0v1086q0 127 84.5 221.5t208.5 110.5v-1418h-293zM514 1128v293h110q139 0 237 -98t98 -237v-705q0 -37 26 -62.5t62 -25.5h98q37 0 62.5 25.5t25.5 62.5v1040h293v-1085q0 -140 -98 -238t-238 -98h-188q-139 0 -237 98.5t-98 237.5v704q0 37 -25.5 62.5t-62.5 25.5
h-65zM1077 1833h213v-98q0 -79 -70.5 -134.5t-169.5 -55.5h-124q-75 4 -134 40t-81 92q0 2 -1 3q-6 17 -24 28t-40 11h-30q-28 0 -47.5 -15.5t-19.5 -37.5v-66h-213v98q0 79 70 134.5t169 55.5h125q75 -4 133.5 -40t80.5 -93q1 0 1 -2q6 -17 24 -28t41 -11h30
q28 0 47.5 15.5t19.5 37.5v66z" />
    <glyph glyph-name="ocircumflex" unicode="&#xf4;" 
d="M1057 1421q139 0 237.5 -98t98.5 -237v-750q0 -140 -98.5 -238t-237.5 -98h-543v292h486q48 0 75 26q25 27 25 63v659q0 37 -25.5 62.5t-62.5 25.5h-498v293h543zM393 3q-125 16 -209 111t-84 222v750q0 127 84.5 221.5t208.5 110.5v-1415zM643 1550h-279l188 297
q25 40 78 64t117 24q63 0 116 -24t79 -64l188 -297h-279l-104 165z" />
    <glyph glyph-name="otilde" unicode="&#xf5;" 
d="M1057 1421q139 0 237.5 -98t98.5 -237v-750q0 -140 -98.5 -238t-237.5 -98h-543v292h486q48 0 75 26q25 27 25 63v659q0 37 -25.5 62.5t-62.5 25.5h-498v293h543zM393 3q-125 16 -209 111t-84 222v750q0 127 84.5 221.5t208.5 110.5v-1415zM1011 1833h213v-98
q0 -79 -70.5 -134.5t-169.5 -55.5h-124q-75 4 -134 40t-81 92q0 2 -1 3q-6 17 -24 28t-40 11h-30q-28 0 -47.5 -15.5t-19.5 -37.5v-66h-213v98q0 79 70 134.5t169 55.5h125q75 -4 133.5 -40t80.5 -93q1 0 1 -2q6 -17 24 -28t41 -11h30q28 0 47.5 15.5t19.5 37.5v66z" />
    <glyph glyph-name="odieresis" unicode="&#xf6;" 
d="M1057 1421q139 0 237.5 -98t98.5 -237v-750q0 -140 -98.5 -238t-237.5 -98h-543v292h486q48 0 75 26q25 27 25 63v659q0 37 -25.5 62.5t-62.5 25.5h-498v293h543zM393 3q-125 16 -209 111t-84 222v750q0 127 84.5 221.5t208.5 110.5v-1415zM671 1587h-249v248h249v-248z
M1071 1587h-249v248h249v-248z" />
    <glyph glyph-name="divide" unicode="&#xf7;" horiz-adv-x="1124" 
d="M708 148h-292v292h292v-292zM708 980h-292v292h292v-292zM1024 564h-924v292h924v-292z" />
    <glyph glyph-name="oslash" unicode="&#xf8;" 
d="M360 -151h-243l126 212q-68 47 -105.5 118t-37.5 157v750q0 127 81.5 220t211.5 112v-1106l486 816h-365v293h539l80 134h244l-119 -200q135 -102 135 -269v-750q0 -140 -98.5 -238t-237.5 -98h-543v107zM1000 292q47 0 73.5 24.5t26.5 64.5v659q0 19 -8 37l-468 -785
h376z" />
    <glyph glyph-name="ucircumflex" unicode="&#xfb;" 
d="M1013 293q36 0 61.5 25.5t25.5 62.5v1040h293v-1085q0 -140 -98.5 -238t-237.5 -98h-543v293h499zM393 1421v-1418q-125 16 -209 111t-84 222v1085h293zM643 1550h-279l188 297q25 40 78 64t117 24q63 0 116 -24t79 -64l188 -297h-279l-104 165z" />
    <glyph glyph-name="udieresis" unicode="&#xfc;" 
d="M1013 293q36 0 61.5 25.5t25.5 62.5v1040h293v-1085q0 -140 -98.5 -238t-237.5 -98h-543v293h499zM393 1421v-1418q-125 16 -209 111t-84 222v1085h293zM671 1587h-249v248h249v-248zM1071 1587h-249v248h249v-248z" />
    <glyph glyph-name="thorn" unicode="&#xfe;" horiz-adv-x="1494" 
d="M393 -200h-293v1621h293v-1621zM1064 92h-550v293h495q38 0 65 27t27 65v359q0 38 -27 65t-65 27h-495v293h550q138 0 234 -96t96 -233v-470q0 -138 -96 -234t-234 -96z" />
    <glyph glyph-name="ydieresis" unicode="&#xff;" 
d="M893 857v-857h-293v564h-164q-140 0 -238 98t-98 238v521h293v-476q0 -37 25.5 -62.5t62.5 -25.5h412zM1014 564v293q36 0 61 26t25 62v476h293v-521q0 -140 -98.5 -238t-237.5 -98h-43zM671 1587h-249v248h249v-248zM1071 1587h-249v248h249v-248z" />
    <glyph glyph-name="Amacron" unicode="&#x100;" 
d="M1013 1128h-499v293h543q139 0 237.5 -98.5t98.5 -237.5v-1085h-293v292h-586v293h586v455q0 38 -24.5 63t-62.5 25zM393 0h-293v1085q0 127 84 222t209 111v-1418zM1121 1587h-749v248h749v-248z" />
    <glyph glyph-name="amacron" unicode="&#x101;" 
d="M1013 1128h-499v293h543q139 0 237.5 -98.5t98.5 -237.5v-1085h-293v292h-586v293h586v455q0 38 -24.5 63t-62.5 25zM393 0h-293v1085q0 127 84 222t209 111v-1418zM1121 1587h-749v248h749v-248z" />
    <glyph glyph-name="Ccircumflex" unicode="&#x108;" 
d="M514 1128v293h879v-293h-879zM393 1418v-1415q-125 16 -209 111t-84 222v750q0 127 84.5 221.5t208.5 110.5zM514 0v293h879v-293h-879zM759 1550h-279l188 297q25 40 78 64t117 24q63 0 116 -24t79 -64l188 -297h-279l-104 165z" />
    <glyph glyph-name="ccircumflex" unicode="&#x109;" 
d="M514 1128v293h879v-293h-879zM393 1418v-1415q-125 16 -209 111t-84 222v750q0 127 84.5 221.5t208.5 110.5zM514 0v293h879v-293h-879zM759 1550h-279l188 297q25 40 78 64t117 24q63 0 116 -24t79 -64l188 -297h-279l-104 165z" />
    <glyph glyph-name="Cdotaccent" unicode="&#x10a;" 
d="M514 1128v293h879v-293h-879zM393 1418v-1415q-125 16 -209 111t-84 222v750q0 127 84.5 221.5t208.5 110.5zM514 0v293h879v-293h-879zM987 1587h-249v248h249v-248z" />
    <glyph glyph-name="cdotaccent" unicode="&#x10b;" 
d="M514 1128v293h879v-293h-879zM393 1418v-1415q-125 16 -209 111t-84 222v750q0 127 84.5 221.5t208.5 110.5zM514 0v293h879v-293h-879zM987 1587h-249v248h249v-248z" />
    <glyph glyph-name="Ccaron" unicode="&#x10c;" 
d="M514 1128v293h879v-293h-879zM393 1418v-1415q-125 16 -209 111t-84 222v750q0 127 84.5 221.5t208.5 110.5zM514 0v293h879v-293h-879zM759 1835l104 -165l104 165h279l-188 -297q-26 -40 -79 -64t-116 -24q-64 0 -117 24t-78 64l-188 297h279z" />
    <glyph glyph-name="ccaron" unicode="&#x10d;" 
d="M514 1128v293h879v-293h-879zM393 1418v-1415q-125 16 -209 111t-84 222v750q0 127 84.5 221.5t208.5 110.5zM514 0v293h879v-293h-879zM759 1835l104 -165l104 165h279l-188 -297q-26 -40 -79 -64t-116 -24q-64 0 -117 24t-78 64l-188 297h279z" />
    <glyph glyph-name="Dcaron" unicode="&#x10e;" 
d="M1100 385v651q0 38 -27 65t-65 27h-494v293h550q136 0 232.5 -96.5t96.5 -232.5v-763q0 -137 -96.5 -233t-232.5 -96h-550v293h494q38 0 65 27t27 65zM393 1421v-1421h-293v1421h293zM642 1835l104 -165l104 165h279l-188 -297q-26 -40 -79 -64t-116 -24q-64 0 -117 24
t-78 64l-188 297h279z" />
    <glyph glyph-name="dcaron" unicode="&#x10f;" 
d="M1100 385v651q0 38 -27 65t-65 27h-494v293h550q136 0 232.5 -96.5t96.5 -232.5v-763q0 -137 -96.5 -233t-232.5 -96h-550v293h494q38 0 65 27t27 65zM393 1421v-1421h-293v1421h293zM642 1835l104 -165l104 165h279l-188 -297q-26 -40 -79 -64t-116 -24q-64 0 -117 24
t-78 64l-188 297h279z" />
    <glyph glyph-name="Dcroat" unicode="&#x110;" horiz-adv-x="1593" 
d="M493 0h-293v700h-200v204h200v517h293v-517h410v-204h-410v-700zM1164 0h-550v293h494q38 0 65 27t27 65v651q0 38 -27 65t-65 27h-494v293h550q136 0 232.5 -96.5t96.5 -232.5v-763q0 -137 -96.5 -233t-232.5 -96z" />
    <glyph glyph-name="dcroat" unicode="&#x111;" horiz-adv-x="1593" 
d="M493 0h-293v700h-200v204h200v517h293v-517h410v-204h-410v-700zM1164 0h-550v293h494q38 0 65 27t27 65v651q0 38 -27 65t-65 27h-494v293h550q136 0 232.5 -96.5t96.5 -232.5v-763q0 -137 -96.5 -233t-232.5 -96z" />
    <glyph glyph-name="Emacron" unicode="&#x112;" 
d="M393 3q-125 16 -209 111t-84 222v185q0 104 59 190q-59 86 -59 189v186q0 127 84.5 221.5t208.5 110.5v-1415zM514 857h879v-292q-145 0 -438.5 -0.5t-440.5 -0.5v293zM514 293h879v-293h-879v293zM514 1421h879v-293h-879v293zM1221 1587h-749v248h749v-248z" />
    <glyph glyph-name="emacron" unicode="&#x113;" 
d="M393 3q-125 16 -209 111t-84 222v185q0 104 59 190q-59 86 -59 189v186q0 127 84.5 221.5t208.5 110.5v-1415zM514 857h879v-292q-145 0 -438.5 -0.5t-440.5 -0.5v293zM514 293h879v-293h-879v293zM514 1421h879v-293h-879v293zM1221 1587h-749v248h749v-248z" />
    <glyph glyph-name="Edotaccent" unicode="&#x116;" 
d="M393 3q-125 16 -209 111t-84 222v185q0 104 59 190q-59 86 -59 189v186q0 127 84.5 221.5t208.5 110.5v-1415zM514 857h879v-292q-145 0 -438.5 -0.5t-440.5 -0.5v293zM514 293h879v-293h-879v293zM514 1421h879v-293h-879v293zM971 1587h-249v248h249v-248z" />
    <glyph glyph-name="edotaccent" unicode="&#x117;" 
d="M393 3q-125 16 -209 111t-84 222v185q0 104 59 190q-59 86 -59 189v186q0 127 84.5 221.5t208.5 110.5v-1415zM514 857h879v-292q-145 0 -438.5 -0.5t-440.5 -0.5v293zM514 293h879v-293h-879v293zM514 1421h879v-293h-879v293zM971 1587h-249v248h249v-248z" />
    <glyph glyph-name="Ecaron" unicode="&#x11a;" 
d="M393 3q-125 16 -209 111t-84 222v185q0 104 59 190q-59 86 -59 189v186q0 127 84.5 221.5t208.5 110.5v-1415zM514 857h879v-292q-145 0 -438.5 -0.5t-440.5 -0.5v293zM514 293h879v-293h-879v293zM514 1421h879v-293h-879v293zM743 1835l104 -165l104 165h279l-188 -297
q-26 -40 -79 -64t-116 -24q-64 0 -117 24t-78 64l-188 297h279z" />
    <glyph glyph-name="ecaron" unicode="&#x11b;" 
d="M393 3q-125 16 -209 111t-84 222v185q0 104 59 190q-59 86 -59 189v186q0 127 84.5 221.5t208.5 110.5v-1415zM514 857h879v-292q-145 0 -438.5 -0.5t-440.5 -0.5v293zM514 293h879v-293h-879v293zM514 1421h879v-293h-879v293zM743 1835l104 -165l104 165h279l-188 -297
q-26 -40 -79 -64t-116 -24q-64 0 -117 24t-78 64l-188 297h279z" />
    <glyph glyph-name="Gcircumflex" unicode="&#x11c;" 
d="M514 1128v293h860v-293h-860zM393 1418v-1415q-125 16 -209 111t-84 222v750q0 127 84.5 221.5t208.5 110.5zM514 0v293h586v183q0 37 -25.5 62.5t-62.5 25.5h-419v293h464q139 0 237.5 -98.5t98.5 -237.5v-521h-879zM742 1550h-279l188 297q25 40 78 64t117 24
q63 0 116 -24t79 -64l188 -297h-279l-104 165z" />
    <glyph glyph-name="gcircumflex" unicode="&#x11d;" 
d="M514 1128v293h860v-293h-860zM393 1418v-1415q-125 16 -209 111t-84 222v750q0 127 84.5 221.5t208.5 110.5zM514 0v293h586v183q0 37 -25.5 62.5t-62.5 25.5h-419v293h464q139 0 237.5 -98.5t98.5 -237.5v-521h-879zM742 1550h-279l188 297q25 40 78 64t117 24
q63 0 116 -24t79 -64l188 -297h-279l-104 165z" />
    <glyph glyph-name="Gdotaccent" unicode="&#x120;" 
d="M514 1128v293h860v-293h-860zM393 1418v-1415q-125 16 -209 111t-84 222v750q0 127 84.5 221.5t208.5 110.5zM514 0v293h586v183q0 37 -25.5 62.5t-62.5 25.5h-419v293h464q139 0 237.5 -98.5t98.5 -237.5v-521h-879zM970 1587h-249v248h249v-248z" />
    <glyph glyph-name="gdotaccent" unicode="&#x121;" 
d="M514 1128v293h860v-293h-860zM393 1418v-1415q-125 16 -209 111t-84 222v750q0 127 84.5 221.5t208.5 110.5zM514 0v293h586v183q0 37 -25.5 62.5t-62.5 25.5h-419v293h464q139 0 237.5 -98.5t98.5 -237.5v-521h-879zM970 1587h-249v248h249v-248z" />
    <glyph glyph-name="Hcircumflex" unicode="&#x124;" 
d="M1100 1421h293v-1421h-293v564h-586v293h586v564zM393 1421v-1421h-293v1421h293zM643 1550h-279l188 297q25 40 78 64t117 24q63 0 116 -24t79 -64l188 -297h-279l-104 165z" />
    <glyph glyph-name="hcircumflex" unicode="&#x125;" 
d="M1100 1421h293v-1421h-293v564h-586v293h586v564zM393 1421v-1421h-293v1421h293zM643 1550h-279l188 297q25 40 78 64t117 24q63 0 116 -24t79 -64l188 -297h-279l-104 165z" />
    <glyph glyph-name="Hbar" unicode="&#x126;" 
d="M1393 0h-293v564h-586v293h586v193h-707v-1050h-293v1050h-128v204h128v167h293v-167h707v167h293v-167h127v-204h-127v-1050z" />
    <glyph glyph-name="hbar" unicode="&#x127;" 
d="M1393 0h-293v564h-586v293h586v193h-707v-1050h-293v1050h-128v204h128v167h293v-167h707v167h293v-167h127v-204h-127v-1050z" />
    <glyph glyph-name="Itilde" unicode="&#x128;" horiz-adv-x="493" 
d="M100 0v1421h293v-1421h-293zM510 1833h213v-98q0 -79 -70.5 -134.5t-169.5 -55.5h-124q-75 4 -134 40t-81 92q0 2 -1 3q-6 17 -24 28t-40 11h-30q-28 0 -47.5 -15.5t-19.5 -37.5v-66h-213v98q0 79 70 134.5t169 55.5h125q75 -4 133.5 -40t80.5 -93q1 0 1 -2q6 -17 24 -28
t41 -11h30q28 0 47.5 15.5t19.5 37.5v66z" />
    <glyph glyph-name="itilde" unicode="&#x129;" horiz-adv-x="493" 
d="M100 0v1421h293v-1421h-293zM510 1833h213v-98q0 -79 -70.5 -134.5t-169.5 -55.5h-124q-75 4 -134 40t-81 92q0 2 -1 3q-6 17 -24 28t-40 11h-30q-28 0 -47.5 -15.5t-19.5 -37.5v-66h-213v98q0 79 70 134.5t169 55.5h125q75 -4 133.5 -40t80.5 -93q1 0 1 -2q6 -17 24 -28
t41 -11h30q28 0 47.5 15.5t19.5 37.5v66z" />
    <glyph glyph-name="Imacron" unicode="&#x12a;" horiz-adv-x="493" 
d="M100 0v1421h293v-1421h-293zM620 1587h-749v248h749v-248z" />
    <glyph glyph-name="imacron" unicode="&#x12b;" horiz-adv-x="493" 
d="M100 0v1421h293v-1421h-293zM620 1587h-749v248h749v-248z" />
    <glyph glyph-name="Idotaccent" unicode="&#x130;" horiz-adv-x="493" 
d="M100 0v1421h293v-1421h-293zM370 1587h-249v248h249v-248z" />
    <glyph glyph-name="idotless" unicode="&#x131;" horiz-adv-x="493" 
d="M100 0v1421h293v-1421h-293z" />
    <glyph glyph-name="Jcircumflex" unicode="&#x134;" 
d="M1393 1421v-1085q0 -127 -84 -222t-209 -111v1418h293zM979 293v-293h-879v293h879zM1143 1550h-279l188 297q25 40 78 64t117 24q63 0 116 -24t79 -64l188 -297h-279l-104 165z" />
    <glyph glyph-name="jcircumflex" unicode="&#x135;" 
d="M1393 1421v-1085q0 -127 -84 -222t-209 -111v1418h293zM979 293v-293h-879v293h879zM1143 1550h-279l188 297q25 40 78 64t117 24q63 0 116 -24t79 -64l188 -297h-279l-104 165z" />
    <glyph glyph-name="Lmiddledot" unicode="&#x13f;" 
d="M100 1421h293v-1418q-125 16 -209 111t-84 222v1085zM514 293h879v-293h-879v293zM770 835h248v-249h-248v249z" />
    <glyph glyph-name="lmiddledot" unicode="&#x140;" 
d="M100 1421h293v-1418q-125 16 -209 111t-84 222v1085zM514 293h879v-293h-879v293zM770 835h248v-249h-248v249z" />
    <glyph glyph-name="Lslash" unicode="&#x141;" horiz-adv-x="1806" 
d="M1706 0h-879v293h879v-293zM706 3q-130 19 -211.5 112t-81.5 221v222l-333 -208v175l333 208v688h293v-505l406 254v-175l-406 -254v-738z" />
    <glyph glyph-name="lslash" unicode="&#x142;" horiz-adv-x="1806" 
d="M1706 0h-879v293h879v-293zM706 3q-130 19 -211.5 112t-81.5 221v222l-333 -208v175l333 208v688h293v-505l406 254v-175l-406 -254v-738z" />
    <glyph glyph-name="Ncaron" unicode="&#x147;" horiz-adv-x="1626" 
d="M100 0v1086q0 127 84.5 221.5t208.5 110.5v-1418h-293zM514 1128v293h110q139 0 237 -98t98 -237v-705q0 -37 26 -62.5t62 -25.5h98q37 0 62.5 25.5t25.5 62.5v1040h293v-1085q0 -140 -98 -238t-238 -98h-188q-139 0 -237 98.5t-98 237.5v704q0 37 -25.5 62.5t-62.5 25.5
h-65zM709 1835l104 -165l104 165h279l-188 -297q-26 -40 -79 -64t-116 -24q-64 0 -117 24t-78 64l-188 297h279z" />
    <glyph glyph-name="ncaron" unicode="&#x148;" horiz-adv-x="1626" 
d="M100 0v1086q0 127 84.5 221.5t208.5 110.5v-1418h-293zM514 1128v293h110q139 0 237 -98t98 -237v-705q0 -37 26 -62.5t62 -25.5h98q37 0 62.5 25.5t25.5 62.5v1040h293v-1085q0 -140 -98 -238t-238 -98h-188q-139 0 -237 98.5t-98 237.5v704q0 37 -25.5 62.5t-62.5 25.5
h-65zM709 1835l104 -165l104 165h279l-188 -297q-26 -40 -79 -64t-116 -24q-64 0 -117 24t-78 64l-188 297h279z" />
    <glyph glyph-name="Omacron" unicode="&#x14c;" 
d="M1057 1421q139 0 237.5 -98t98.5 -237v-750q0 -140 -98.5 -238t-237.5 -98h-543v292h486q48 0 75 26q25 27 25 63v659q0 37 -25.5 62.5t-62.5 25.5h-498v293h543zM393 3q-125 16 -209 111t-84 222v750q0 127 84.5 221.5t208.5 110.5v-1415zM1121 1587h-749v248h749v-248z
" />
    <glyph glyph-name="omacron" unicode="&#x14d;" 
d="M1057 1421q139 0 237.5 -98t98.5 -237v-750q0 -140 -98.5 -238t-237.5 -98h-543v292h486q48 0 75 26q25 27 25 63v659q0 37 -25.5 62.5t-62.5 25.5h-498v293h543zM393 3q-125 16 -209 111t-84 222v750q0 127 84.5 221.5t208.5 110.5v-1415zM1121 1587h-749v248h749v-248z
" />
    <glyph glyph-name="OE" unicode="&#x152;" horiz-adv-x="2500" 
d="M2400 1128h-880v293h880v-293zM1057 0h-543v292h486q47 0 73.5 24.5t26.5 64.5v659q0 38 -25 63t-63 25h-498v293h543q109 0 193 -60q64 45 149 57v-1415q-85 12 -149 57q-84 -60 -193 -60zM393 3q-130 19 -211.5 112t-81.5 221v750q0 127 81.5 220t211.5 112v-1415z
M1520 564v293h880v-292zM2400 0h-880v293h880v-293z" />
    <glyph glyph-name="oe" unicode="&#x153;" horiz-adv-x="2500" 
d="M2400 1128h-880v293h880v-293zM1057 0h-543v292h486q47 0 73.5 24.5t26.5 64.5v659q0 38 -25 63t-63 25h-498v293h543q109 0 193 -60q64 45 149 57v-1415q-85 12 -149 57q-84 -60 -193 -60zM393 3q-130 19 -211.5 112t-81.5 221v750q0 127 81.5 220t211.5 112v-1415z
M1520 564v293h880v-292zM2400 0h-880v293h880v-293z" />
    <glyph glyph-name="Rcaron" unicode="&#x158;" horiz-adv-x="1494" 
d="M1101 677v359q0 38 -27 65.5t-65 27.5h-495v292h550q137 0 233.5 -96.5t96.5 -232.5v-470q0 -103 -57 -185q57 -86 57 -188v-249h-293v204q0 35 -24 60.5t-59 27.5h-504v293h500q36 2 61.5 28.5t25.5 63.5zM393 1421v-1421h-293v1421h293zM642 1835l104 -165l104 165h279
l-188 -297q-26 -40 -79 -64t-116 -24q-64 0 -117 24t-78 64l-188 297h279z" />
    <glyph glyph-name="rcaron" unicode="&#x159;" horiz-adv-x="1494" 
d="M1101 677v359q0 38 -27 65.5t-65 27.5h-495v292h550q137 0 233.5 -96.5t96.5 -232.5v-470q0 -103 -57 -185q57 -86 57 -188v-249h-293v204q0 35 -24 60.5t-59 27.5h-504v293h500q36 2 61.5 28.5t25.5 63.5zM393 1421v-1421h-293v1421h293zM642 1835l104 -165l104 165h279
l-188 -297q-26 -40 -79 -64t-116 -24q-64 0 -117 24t-78 64l-188 297h279z" />
    <glyph glyph-name="Scircumflex" unicode="&#x15c;" 
d="M1100 476q0 36 -25.5 62t-62.5 26h-576q-139 0 -237.5 98.5t-98.5 237.5v185q0 127 84 222t209 111v-473q0 -36 25.5 -62t62.5 -26h576q139 0 237.5 -98.5t98.5 -237.5v-185q0 -128 -84 -222.5t-209 -110.5v473zM514 1421h879v-293h-879v293zM979 0h-879v293h879v-293z
M643 1550h-279l188 297q25 40 78 64t117 24q63 0 116 -24t79 -64l188 -297h-279l-104 165z" />
    <glyph glyph-name="scircumflex" unicode="&#x15d;" 
d="M1100 476q0 36 -25.5 62t-62.5 26h-576q-139 0 -237.5 98.5t-98.5 237.5v185q0 127 84 222t209 111v-473q0 -36 25.5 -62t62.5 -26h576q139 0 237.5 -98.5t98.5 -237.5v-185q0 -128 -84 -222.5t-209 -110.5v473zM514 1421h879v-293h-879v293zM979 0h-879v293h879v-293z
M643 1550h-279l188 297q25 40 78 64t117 24q63 0 116 -24t79 -64l188 -297h-279l-104 165z" />
    <glyph glyph-name="Scaron" unicode="&#x160;" 
d="M1100 476q0 36 -25.5 62t-62.5 26h-576q-139 0 -237.5 98.5t-98.5 237.5v185q0 127 84 222t209 111v-473q0 -36 25.5 -62t62.5 -26h576q139 0 237.5 -98.5t98.5 -237.5v-185q0 -128 -84 -222.5t-209 -110.5v473zM514 1421h879v-293h-879v293zM979 0h-879v293h879v-293z
M643 1835l104 -165l104 165h279l-188 -297q-26 -40 -79 -64t-116 -24q-64 0 -117 24t-78 64l-188 297h279z" />
    <glyph glyph-name="scaron" unicode="&#x161;" 
d="M1100 476q0 36 -25.5 62t-62.5 26h-576q-139 0 -237.5 98.5t-98.5 237.5v185q0 127 84 222t209 111v-473q0 -36 25.5 -62t62.5 -26h576q139 0 237.5 -98.5t98.5 -237.5v-185q0 -128 -84 -222.5t-209 -110.5v473zM514 1421h879v-293h-879v293zM979 0h-879v293h879v-293z
M643 1835l104 -165l104 165h279l-188 -297q-26 -40 -79 -64t-116 -24q-64 0 -117 24t-78 64l-188 297h279z" />
    <glyph glyph-name="Tcaron" unicode="&#x164;" horiz-adv-x="1494" 
d="M893 0h-293v1040q0 37 -25.5 62.5t-62.5 25.5h-412v293h793v-1421zM1014 1421h380v-293h-380v293zM643 1835l104 -165l104 165h279l-188 -297q-26 -40 -79 -64t-116 -24q-64 0 -117 24t-78 64l-188 297h279z" />
    <glyph glyph-name="tcaron" unicode="&#x165;" horiz-adv-x="1494" 
d="M893 0h-293v1040q0 37 -25.5 62.5t-62.5 25.5h-412v293h793v-1421zM1014 1421h380v-293h-380v293zM643 1835l104 -165l104 165h279l-188 -297q-26 -40 -79 -64t-116 -24q-64 0 -117 24t-78 64l-188 297h279z" />
    <glyph glyph-name="Tbar" unicode="&#x166;" horiz-adv-x="1494" 
d="M1394 1128h-380v293h380v-293zM893 0h-293v650h-369v204h369v186q0 38 -25 63t-63 25h-412v293h793v-567h370v-204h-370v-650z" />
    <glyph glyph-name="tbar" unicode="&#x167;" horiz-adv-x="1494" 
d="M1394 1128h-380v293h380v-293zM893 0h-293v650h-369v204h369v186q0 38 -25 63t-63 25h-412v293h793v-567h370v-204h-370v-650z" />
    <glyph glyph-name="Utilde" unicode="&#x168;" 
d="M1013 293q36 0 61.5 25.5t25.5 62.5v1040h293v-1085q0 -140 -98.5 -238t-237.5 -98h-543v293h499zM393 1421v-1418q-125 16 -209 111t-84 222v1085h293zM1011 1833h213v-98q0 -79 -70.5 -134.5t-169.5 -55.5h-124q-75 4 -134 40t-81 92q0 2 -1 3q-6 17 -24 28t-40 11h-30
q-28 0 -47.5 -15.5t-19.5 -37.5v-66h-213v98q0 79 70 134.5t169 55.5h125q75 -4 133.5 -40t80.5 -93q1 0 1 -2q6 -17 24 -28t41 -11h30q28 0 47.5 15.5t19.5 37.5v66z" />
    <glyph glyph-name="utilde" unicode="&#x169;" 
d="M1013 293q36 0 61.5 25.5t25.5 62.5v1040h293v-1085q0 -140 -98.5 -238t-237.5 -98h-543v293h499zM393 1421v-1418q-125 16 -209 111t-84 222v1085h293zM1011 1833h213v-98q0 -79 -70.5 -134.5t-169.5 -55.5h-124q-75 4 -134 40t-81 92q0 2 -1 3q-6 17 -24 28t-40 11h-30
q-28 0 -47.5 -15.5t-19.5 -37.5v-66h-213v98q0 79 70 134.5t169 55.5h125q75 -4 133.5 -40t80.5 -93q1 0 1 -2q6 -17 24 -28t41 -11h30q28 0 47.5 15.5t19.5 37.5v66z" />
    <glyph glyph-name="Umacron" unicode="&#x16a;" 
d="M1013 293q36 0 61.5 25.5t25.5 62.5v1040h293v-1085q0 -140 -98.5 -238t-237.5 -98h-543v293h499zM393 1421v-1418q-125 16 -209 111t-84 222v1085h293zM1121 1587h-749v248h749v-248z" />
    <glyph glyph-name="umacron" unicode="&#x16b;" 
d="M1013 293q36 0 61.5 25.5t25.5 62.5v1040h293v-1085q0 -140 -98.5 -238t-237.5 -98h-543v293h499zM393 1421v-1418q-125 16 -209 111t-84 222v1085h293zM1121 1587h-749v248h749v-248z" />
    <glyph glyph-name="Wcircumflex" unicode="&#x174;" horiz-adv-x="2192" 
d="M100 1421h293v-1418q-125 16 -209 111t-84 222v1085zM514 293h64q37 0 62.5 25.5t25.5 62.5v412q0 139 98 237.5t238 98.5h187q139 0 237.5 -98.5t98.5 -237.5v-412q0 -37 25.5 -62.5t62.5 -25.5h98q37 0 62.5 25.5t25.5 62.5v1040h293v-1085q0 -139 -98.5 -237.5
t-237.5 -98.5h-188q-139 0 -237.5 98.5t-98.5 237.5v412q0 37 -25.5 62.5t-62.5 25.5h-97q-37 0 -62.5 -25.5t-25.5 -62.5v-412q0 -139 -98.5 -237.5t-237.5 -98.5h-109v293zM992 1550h-279l188 297q25 40 78 64t117 24q63 0 116 -24t79 -64l188 -297h-279l-104 165z" />
    <glyph glyph-name="wcircumflex" unicode="&#x175;" horiz-adv-x="2192" 
d="M100 1421h293v-1418q-125 16 -209 111t-84 222v1085zM514 293h64q37 0 62.5 25.5t25.5 62.5v412q0 139 98 237.5t238 98.5h187q139 0 237.5 -98.5t98.5 -237.5v-412q0 -37 25.5 -62.5t62.5 -25.5h98q37 0 62.5 25.5t25.5 62.5v1040h293v-1085q0 -139 -98.5 -237.5
t-237.5 -98.5h-188q-139 0 -237.5 98.5t-98.5 237.5v412q0 37 -25.5 62.5t-62.5 25.5h-97q-37 0 -62.5 -25.5t-25.5 -62.5v-412q0 -139 -98.5 -237.5t-237.5 -98.5h-109v293zM992 1550h-279l188 297q25 40 78 64t117 24q63 0 116 -24t79 -64l188 -297h-279l-104 165z" />
    <glyph glyph-name="Ycircumflex" unicode="&#x176;" 
d="M893 857v-857h-293v564h-164q-140 0 -238 98t-98 238v521h293v-476q0 -37 25.5 -62.5t62.5 -25.5h412zM1014 564v293q36 0 61 26t25 62v476h293v-521q0 -140 -98.5 -238t-237.5 -98h-43zM643 1550h-279l188 297q25 40 78 64t117 24q63 0 116 -24t79 -64l188 -297h-279
l-104 165z" />
    <glyph glyph-name="ycircumflex" unicode="&#x177;" 
d="M893 857v-857h-293v564h-164q-140 0 -238 98t-98 238v521h293v-476q0 -37 25.5 -62.5t62.5 -25.5h412zM1014 564v293q36 0 61 26t25 62v476h293v-521q0 -140 -98.5 -238t-237.5 -98h-43zM643 1550h-279l188 297q25 40 78 64t117 24q63 0 116 -24t79 -64l188 -297h-279
l-104 165z" />
    <glyph glyph-name="Ydieresis" unicode="&#x178;" 
d="M893 857v-857h-293v564h-164q-140 0 -238 98t-98 238v521h293v-476q0 -37 25.5 -62.5t62.5 -25.5h412zM1014 564v293q36 0 61 26t25 62v476h293v-521q0 -140 -98.5 -238t-237.5 -98h-43zM671 1587h-249v248h249v-248zM1071 1587h-249v248h249v-248z" />
    <glyph glyph-name="Zdotaccent" unicode="&#x17b;" 
d="M393 476v-473q-125 16 -209 111t-84 222v185q0 139 98.5 237.5t237.5 98.5h576q37 0 62.5 26t25.5 62v473q125 -16 209 -110.5t84 -222.5v-185q0 -139 -98.5 -237.5t-237.5 -98.5h-576q-37 0 -62.5 -26t-25.5 -62zM979 1421v-293h-879v293h879zM514 0v293h879v-293h-879z
M871 1587h-249v248h249v-248z" />
    <glyph glyph-name="zdotaccent" unicode="&#x17c;" 
d="M393 476v-473q-125 16 -209 111t-84 222v185q0 139 98.5 237.5t237.5 98.5h576q37 0 62.5 26t25.5 62v473q125 -16 209 -110.5t84 -222.5v-185q0 -139 -98.5 -237.5t-237.5 -98.5h-576q-37 0 -62.5 -26t-25.5 -62zM979 1421v-293h-879v293h879zM514 0v293h879v-293h-879z
M871 1587h-249v248h249v-248z" />
    <glyph glyph-name="Zcaron" unicode="&#x17d;" 
d="M393 476v-473q-125 16 -209 111t-84 222v185q0 139 98.5 237.5t237.5 98.5h576q37 0 62.5 26t25.5 62v473q125 -16 209 -110.5t84 -222.5v-185q0 -139 -98.5 -237.5t-237.5 -98.5h-576q-37 0 -62.5 -26t-25.5 -62zM979 1421v-293h-879v293h879zM514 0v293h879v-293h-879z
M643 1835l104 -165l104 165h279l-188 -297q-26 -40 -79 -64t-116 -24q-64 0 -117 24t-78 64l-188 297h279z" />
    <glyph glyph-name="zcaron" unicode="&#x17e;" 
d="M393 476v-473q-125 16 -209 111t-84 222v185q0 139 98.5 237.5t237.5 98.5h576q37 0 62.5 26t25.5 62v473q125 -16 209 -110.5t84 -222.5v-185q0 -139 -98.5 -237.5t-237.5 -98.5h-576q-37 0 -62.5 -26t-25.5 -62zM979 1421v-293h-879v293h879zM514 0v293h879v-293h-879z
M643 1835l104 -165l104 165h279l-188 -297q-26 -40 -79 -64t-116 -24q-64 0 -117 24t-78 64l-188 297h279z" />
    <glyph glyph-name="circumflexcomb" unicode="&#x302;" horiz-adv-x="966" 
d="M379 1550h-279l188 297q25 40 78 64t117 24q63 0 116 -24t79 -64l188 -297h-279l-104 165z" />
    <glyph glyph-name="tildecomb" unicode="&#x303;" horiz-adv-x="1154" 
d="M841 1833h213v-98q0 -79 -70.5 -134.5t-169.5 -55.5h-124q-75 4 -134 40t-81 92q0 2 -1 3q-6 17 -24 28t-40 11h-30q-28 0 -47.5 -15.5t-19.5 -37.5v-66h-213v98q0 79 70 134.5t169 55.5h125q75 -4 133.5 -40t80.5 -93q1 0 1 -2q6 -17 24 -28t41 -11h30q28 0 47.5 15.5
t19.5 37.5v66z" />
    <glyph glyph-name="macroncomb" unicode="&#x304;" horiz-adv-x="949" 
d="M849 1587h-749v248h749v-248z" />
    <glyph glyph-name="dotaccentcomb" unicode="&#x307;" horiz-adv-x="449" 
d="M349 1587h-249v248h249v-248z" />
    <glyph glyph-name="dieresiscomb" unicode="&#x308;" horiz-adv-x="849" 
d="M349 1587h-249v248h249v-248zM749 1587h-249v248h249v-248z" />
    <glyph glyph-name="caroncomb" unicode="&#x30c;" horiz-adv-x="966" 
d="M379 1835l104 -165l104 165h279l-188 -297q-26 -40 -79 -64t-116 -24q-64 0 -117 24t-78 64l-188 297h279z" />
    <glyph glyph-name="Wdieresis" unicode="&#x1e84;" horiz-adv-x="2192" 
d="M100 1421h293v-1418q-125 16 -209 111t-84 222v1085zM514 293h64q37 0 62.5 25.5t25.5 62.5v412q0 139 98 237.5t238 98.5h187q139 0 237.5 -98.5t98.5 -237.5v-412q0 -37 25.5 -62.5t62.5 -25.5h98q37 0 62.5 25.5t25.5 62.5v1040h293v-1085q0 -139 -98.5 -237.5
t-237.5 -98.5h-188q-139 0 -237.5 98.5t-98.5 237.5v412q0 37 -25.5 62.5t-62.5 25.5h-97q-37 0 -62.5 -25.5t-25.5 -62.5v-412q0 -139 -98.5 -237.5t-237.5 -98.5h-109v293zM1020 1587h-249v248h249v-248zM1420 1587h-249v248h249v-248z" />
    <glyph glyph-name="wdieresis" unicode="&#x1e85;" horiz-adv-x="2192" 
d="M100 1421h293v-1418q-125 16 -209 111t-84 222v1085zM514 293h64q37 0 62.5 25.5t25.5 62.5v412q0 139 98 237.5t238 98.5h187q139 0 237.5 -98.5t98.5 -237.5v-412q0 -37 25.5 -62.5t62.5 -25.5h98q37 0 62.5 25.5t25.5 62.5v1040h293v-1085q0 -139 -98.5 -237.5
t-237.5 -98.5h-188q-139 0 -237.5 98.5t-98.5 237.5v412q0 37 -25.5 62.5t-62.5 25.5h-97q-37 0 -62.5 -25.5t-25.5 -62.5v-412q0 -139 -98.5 -237.5t-237.5 -98.5h-109v293zM1020 1587h-249v248h249v-248zM1420 1587h-249v248h249v-248z" />
    <glyph glyph-name="endash" unicode="&#x2013;" horiz-adv-x="1232" 
d="M100 857h1032v-292h-1032v292z" />
    <glyph glyph-name="emdash" unicode="&#x2014;" horiz-adv-x="2264" 
d="M100 857h2064v-292h-2064v292z" />
    <glyph glyph-name="quoteleft" unicode="&#x2018;" horiz-adv-x="493" 
d="M100 909v512l293 -219v-293h-293z" />
    <glyph glyph-name="quoteright" unicode="&#x2019;" horiz-adv-x="493" 
d="M393 1421v-512l-293 219v293h293z" />
    <glyph glyph-name="quotesinglbase" unicode="&#x201a;" horiz-adv-x="493" 
d="M393 321v-512l-293 219v293h293z" />
    <glyph glyph-name="quotedblleft" unicode="&#x201c;" horiz-adv-x="853" 
d="M100 909v512l293 -219v-293h-293zM460 909v512l293 -219v-293h-293z" />
    <glyph glyph-name="quotedblright" unicode="&#x201d;" horiz-adv-x="853" 
d="M753 1421v-512l-293 219v293h293zM393 1421v-512l-293 219v293h293z" />
    <glyph glyph-name="quotedblbase" unicode="&#x201e;" horiz-adv-x="853" 
d="M753 321v-512l-293 219v293h293zM393 321v-512l-293 219v293h293z" />
    <glyph glyph-name="ellipsis" unicode="&#x2026;" horiz-adv-x="1859" 
d="M100 292h293v-292h-293v292zM783 292h293v-292h-293v292zM1466 292h293v-292h-293v292z" />
    <glyph glyph-name="perthousand" unicode="&#x2030;" horiz-adv-x="3339" 
d="M657 564h-50v293h5q37 0 62.5 25.5t25.5 62.5v95q0 37 -25.5 62.5t-62.5 25.5h-5v293h50q139 0 237.5 -98.5t98.5 -237.5v-185q0 -139 -98.5 -237.5t-237.5 -98.5zM599 0l843 1421h348l-843 -1421h-348zM1953 0h-50v292h5q37 0 62.5 26t25.5 62v95q0 37 -25.5 62.5
t-62.5 25.5h-5v293h50q139 0 237.5 -98t98.5 -238v-185q0 -139 -98.5 -237t-237.5 -98zM1782 856v-293h-5q-37 0 -62.5 -25.5t-25.5 -62.5v-95q0 -36 25.5 -62t62.5 -26h5v-292h-50q-139 0 -237.5 98t-98.5 237v185q0 140 98 238t238 98h50zM486 1421v-293h-5
q-37 0 -62.5 -25.5t-25.5 -62.5v-95q0 -37 25.5 -62.5t62.5 -25.5h5v-293h-50q-139 0 -237.5 98.5t-98.5 237.5v185q0 139 98 237.5t238 98.5h50zM2903 0h-50v292h5q37 0 62.5 26t25.5 62v95q0 37 -25.5 62.5t-62.5 25.5h-5v293h50q139 0 237.5 -98t98.5 -238v-185
q0 -139 -98.5 -237t-237.5 -98zM2732 856v-293h-5q-37 0 -62.5 -25.5t-25.5 -62.5v-95q0 -36 25.5 -62t62.5 -26h5v-292h-50q-139 0 -237.5 98t-98.5 237v185q0 140 98 238t238 98h50z" />
    <glyph glyph-name="guilsinglleft" unicode="&#x2039;" horiz-adv-x="1105" 
d="M1005 482v-330l-760 328q-55 23 -93 68t-52 102h514zM615 771h-515q31 120 145 170l760 327v-329z" />
    <glyph glyph-name="guilsinglright" unicode="&#x203a;" horiz-adv-x="1105" 
d="M100 482l391 168h514q-14 -57 -52 -102t-93 -68l-760 -328v330zM490 771l-390 168v329l760 -327q114 -50 145 -170h-515z" />
    <glyph glyph-name="minus" unicode="&#x2212;" horiz-adv-x="1124" 
d="M100 856h924v-292h-924v292z" />
    <glyph glyph-name="almostequalto" unicode="&#x2248;" horiz-adv-x="1154" 
d="M841 1052h213v-98q0 -79 -70.5 -135.5t-169.5 -56.5q-120 1 -124 1q-74 3 -133.5 39.5t-81.5 93.5q0 1 -1 2q-6 17 -24 28.5t-40 11.5h-30q-28 0 -47.5 -16t-19.5 -38v-66h-213v98q0 80 70 136t169 56l125 -1q74 -3 132.5 -39.5t81.5 -93.5q1 0 1 -2q6 -17 24 -28t41 -11
h30q28 0 47.5 15.5t19.5 37.5v66zM841 620h213v-98q0 -79 -70.5 -135.5t-169.5 -56.5q-120 1 -124 1q-74 3 -133.5 39.5t-81.5 93.5q0 1 -1 2q-6 17 -24 28.5t-40 11.5h-30q-28 0 -47.5 -16t-19.5 -38v-66h-213v98q0 80 70 136t169 56l125 -1q74 -3 132.5 -39.5t81.5 -93.5
q1 0 1 -2q6 -17 24 -28t41 -11h30q28 0 47.5 15.5t19.5 37.5v66z" />
    <glyph glyph-name="notequalto" unicode="&#x2260;" horiz-adv-x="1124" 
d="M413 150h-208l90 203h-195v293h326l65 146h-391v293h521l90 202h208l-90 -202h195v-293h-325l-65 -146h390v-293h-521z" />
    <glyph glyph-name="lessthanorequalto" unicode="&#x2264;" horiz-adv-x="1124" 
d="M1011 684v-297l-761 295q-54 21 -92 61.5t-52 91.5h514zM621 944h-515q14 51 52 91.5t92 61.5l761 294v-296zM100 293h924v-293h-924v293z" />
    <glyph glyph-name="greaterthanorequalto" unicode="&#x2265;" horiz-adv-x="1124" 
d="M106 684l390 151h515q-14 -52 -52 -92t-93 -61l-760 -295v297zM496 944l-390 151v296l760 -294q55 -21 93 -61.5t52 -91.5h-515zM100 293h924v-293h-924v293z" />
    </font>
</defs>
</svg>
