<?xml version="1.0" standalone="no"?>
<!DOCTYPE svg PUBLIC "-//W3C//DTD SVG 1.1//EN" "http://www.w3.org/Graphics/SVG/1.1/DTD/svg11.dtd" >
<svg xmlns="http://www.w3.org/2000/svg" xmlns:xlink="http://www.w3.org/1999/xlink" version="1.1">
<metadata>
Created by FontForge 20170731 at Wed Aug 17 21:02:32 2022
 By Aleksey,,,
EMOTIQ (c) Enxyclo Studio. 2022. All Rights Reserved
</metadata>
<defs>
<font id="EMOTIQOutline" horiz-adv-x="1493" >
  <font-face 
    font-family="EMOTIQ Outline"
    font-weight="400"
    font-stretch="normal"
    units-per-em="2048"
    panose-1="2 0 5 0 2 0 0 0 0 0"
    ascent="1638"
    descent="-410"
    x-height="1441"
    cap-height="1441"
    bbox="-251 -350 3259 1955"
    underline-thickness="51"
    underline-position="-152"
    unicode-range="U+0020-2265"
  />
<missing-glyph horiz-adv-x="1024" 
d="M924 0h-824v1434h824v-1434zM874 50v1334h-724v-1334h724zM478 454h-32q-35 99 -35 148q0 76 82 218q81 143 81 217q0 57 -33 90t-91 33q-34 0 -61 -13.5t-64 -43.5v45q81 73 170 73q91 0 147.5 -47t56.5 -128q0 -51 -24 -101t-86 -127q-54 -69 -76 -98.5t-40.5 -66.5
t-18.5 -66q0 -39 24 -133zM466 213q-11 0 -20 10l-61 71q-7 8 -7 18q0 9 11 22l57 58q10 10 20 10q9 0 22 -11l56 -60q9 -10 9 -20q0 -12 -10 -22l-56 -62q-14 -14 -21 -14z" />
    <glyph glyph-name=".notdef" horiz-adv-x="1024" 
d="M924 0h-824v1434h824v-1434zM874 50v1334h-724v-1334h724zM478 454h-32q-35 99 -35 148q0 76 82 218q81 143 81 217q0 57 -33 90t-91 33q-34 0 -61 -13.5t-64 -43.5v45q81 73 170 73q91 0 147.5 -47t56.5 -128q0 -51 -24 -101t-86 -127q-54 -69 -76 -98.5t-40.5 -66.5
t-18.5 -66q0 -39 24 -133zM466 213q-11 0 -20 10l-61 71q-7 8 -7 18q0 9 11 22l57 58q10 10 20 10q9 0 22 -11l56 -60q9 -10 9 -20q0 -12 -10 -22l-56 -62q-14 -14 -21 -14z" />
    <glyph glyph-name=".null" horiz-adv-x="0" 
 />
    <glyph glyph-name="nonmarkingreturn" horiz-adv-x="682" 
 />
    <glyph glyph-name="space" unicode=" " horiz-adv-x="600" 
 />
    <glyph glyph-name="space" unicode="&#xa0;" horiz-adv-x="600" 
 />
    <glyph glyph-name="exclam" unicode="!" horiz-adv-x="493" 
d="M413 403h-333v1038h333v-1038zM80 312h333v-332h-333v332zM373 443v958h-253v-958h253zM120 272v-252h253v252h-253z" />
    <glyph glyph-name="quotedbl" unicode="&#x22;" horiz-adv-x="853" 
d="M773 1441v-572l-333 249v323h333zM413 1441v-572l-333 249v323h333zM733 1401h-253v-263l253 -189v452zM373 1401h-253v-263l253 -189v452z" />
    <glyph glyph-name="numbersign" unicode="#" horiz-adv-x="1530" 
d="M876 590h-223v241h223v-241zM1450 791h-281v-161h281v-334h-281v-317h-333v317h-143v-317h-332v317h-281v334h281v161h-281v333h281v317h332v-317h143v317h333v-317h281v-333zM836 630v161h-143v-161h143zM1410 831v253h-281v317h-253v-317h-223v317h-252v-317h-281v-253
h281v-241h-281v-254h281v-317h252v317h223v-317h253v317h281v254h-281v241h281z" />
    <glyph glyph-name="dollar" unicode="$" 
d="M1080 475q0 31 -18.5 50t-49.5 19h-89v-150h-333v150h-154q-145 0 -250.5 105.5t-105.5 250.5v185q0 145 105 250.5t251 105.5h154v183h333v-183h490v-333h-933q-30 0 -48.5 -18.5t-18.5 -49.5v-95q0 -30 18.5 -49t49.5 -19h109v150h333v-150h134q145 0 250.5 -105.5
t105.5 -251.5v-185q0 -145 -105.5 -250t-250.5 -105h-134v-184h-333v184h-510v332h932q31 0 49.5 19t18.5 49v95zM1120 475v-95q0 -43 -32.5 -75.5t-75.5 -32.5h-892v-252h510v-184h253v184h174q133 0 224.5 91t91.5 224v185q0 134 -91.5 225.5t-224.5 91.5h-174v150h-253
v-150h-149q-43 0 -75.5 32.5t-32.5 75.5v95q0 43 32 75.5t75 32.5h893v253h-490v183h-253v-183h-194q-133 0 -224.5 -91.5t-91.5 -224.5v-185q0 -133 91.5 -224.5t224.5 -91.5h194v-150h253v150h129q43 0 75.5 -33t32.5 -76z" />
    <glyph glyph-name="percent" unicode="%" horiz-adv-x="2389" 
d="M720 945q0 -43 -32.5 -75.5t-75.5 -32.5h-131q-43 0 -75.5 32.5t-32.5 75.5v95q0 43 32.5 75.5t75.5 32.5h131q43 0 75.5 -32.5t32.5 -75.5v-95zM2016 380q0 -43 -32.5 -75.5t-75.5 -32.5h-131q-43 0 -75.5 32.5t-32.5 75.5v95q0 43 32.5 75.5t75.5 32.5h131
q43 0 75.5 -32.5t32.5 -75.5v-95zM564 -21l867 1462h394l-867 -1462h-394zM1953 -21h-221q-146 0 -251 105.5t-105 250.5v185q0 146 105 251t251 105h221q145 0 250.5 -105t105.5 -251v-185q0 -145 -105.5 -250.5t-250.5 -105.5zM657 544h-221q-146 0 -251 105t-105 251v185
q0 145 105 250.5t251 105.5h221q145 0 250.5 -105.5t105.5 -250.5v-185q0 -146 -105.5 -251t-250.5 -105zM680 945v95q0 30 -18.5 49t-49.5 19h-131q-31 0 -49.5 -19t-18.5 -49v-95q0 -30 18.5 -49t49.5 -19h131q31 0 49.5 19t18.5 49zM1976 380v95q0 31 -18.5 49.5
t-49.5 18.5h-131q-31 0 -49.5 -18.5t-18.5 -49.5v-95q0 -30 18.5 -49t49.5 -19h131q31 0 49.5 19t18.5 49zM634 19h301l820 1382h-301zM1953 19q133 0 224.5 91.5t91.5 224.5v185q0 133 -91.5 224.5t-224.5 91.5h-221q-133 0 -224.5 -91.5t-91.5 -224.5v-185
q0 -133 91.5 -224.5t224.5 -91.5h221zM657 584q133 0 224.5 91.5t91.5 224.5v185q0 133 -91.5 224.5t-224.5 91.5h-221q-133 0 -224.5 -91.5t-91.5 -224.5v-185q0 -133 91.5 -224.5t224.5 -91.5h221z" />
    <glyph glyph-name="ampersand" unicode="&#x26;" horiz-adv-x="1573" 
d="M1050 384v160h-137v333h580v-333h-111l1 -218q0 -141 -103.5 -244t-245.5 -103h-598q-145 0 -250.5 105.5t-105.5 250.5v192q0 105 52 183q-52 78 -52 183v199q0 142 104 245.5t246 103.5h604q142 0 245.5 -103.5t103.5 -245.5v-139h-333v84q0 31 -21 51q-21 21 -51 21
l-492 -1q-33 0 -53 -20t-20 -52v-87q0 -32 20 -52t53 -20h174v-333h-174q-33 0 -53 -20t-20 -53v-91q0 -31 18.5 -49.5t49.5 -18.5h497q31 0 51 21q21 20 21 51zM1090 384q0 -48 -33 -79q-31 -33 -79 -33h-497q-43 0 -75.5 32.5t-32.5 75.5v91q0 45 34 79t79 34h134v253
h-134q-45 0 -79 34t-34 78v87q0 44 34 78t79 34l492 1q46 0 79 -33q33 -31 33 -79v-44h253v99q0 130 -89.5 219.5t-219.5 89.5h-604q-130 0 -220 -89.5t-90 -219.5v-199q0 -93 60 -183q-60 -90 -60 -183v-192q0 -133 91.5 -224.5t224.5 -91.5h598q129 0 219 89t90 218
l-1 258h111v253h-500v-253h137v-200z" />
    <glyph glyph-name="quotesingle" unicode="'" horiz-adv-x="493" 
d="M413 1441v-572l-333 249v323h333zM373 1401h-253v-263l253 -189v452z" />
    <glyph glyph-name="parenleft" unicode="(" horiz-adv-x="794" 
d="M714 -350h-285q-143 0 -246 103t-103 246v1422q0 143 103 246t246 103h285v-333h-229q-32 0 -52 -20t-20 -52v-1310q0 -32 20 -52t52 -20h229v-333zM674 -310v253h-189q-44 0 -78 34t-34 78v1310q0 44 34 78t78 34h189v253h-245q-130 0 -219.5 -89.5t-89.5 -219.5v-1422
q0 -130 89.5 -219.5t219.5 -89.5h245z" />
    <glyph glyph-name="parenright" unicode=")" horiz-adv-x="794" 
d="M80 -350v333h229q32 0 52.5 20t20.5 52v1310q0 32 -20.5 52t-52.5 20h-229v333h285q143 0 246 -103t103 -246v-1422q0 -143 -103 -246t-246 -103h-285zM120 -310h245q130 0 219.5 89.5t89.5 219.5v1422q0 130 -89.5 219.5t-219.5 89.5h-245v-253h189q45 0 79 -34t34 -78
v-1310q0 -44 -34 -78t-79 -34h-189v-253z" />
    <glyph glyph-name="asterisk" unicode="*" horiz-adv-x="765" 
d="M685 1214v-152h-119l84 -84l-107 -107l-84 84v-119h-152v119l-85 -84l-107 107l84 84h-119v152h119l-84 85l107 107l85 -84v119h152v-119l84 84l107 -107l-84 -85h119zM645 1174h-175l124 125l-51 50l-124 -124v176h-72v-176l-125 124l-50 -50l124 -125h-176v-72h176
l-124 -124l50 -51l125 124v-175h72v175l124 -124l51 51l-124 124h175v72z" />
    <glyph glyph-name="plus" unicode="+" horiz-adv-x="1124" 
d="M1044 876v-332h-316v-316h-332v316h-316v332h316v316h332v-316h316zM1004 836h-316v316h-252v-316h-316v-252h316v-316h252v316h316v252z" />
    <glyph glyph-name="comma" unicode="," horiz-adv-x="493" 
d="M80 312h333v-322l-333 -249v571zM120 272v-451l253 189v262h-253z" />
    <glyph glyph-name="hyphenminus" unicode="-" horiz-adv-x="1124" 
d="M80 876h964v-332h-964v332zM120 836v-252h884v252h-884z" />
    <glyph glyph-name="hyphenminus" unicode="&#xad;" horiz-adv-x="1124" 
d="M80 876h964v-332h-964v332zM120 836v-252h884v252h-884z" />
    <glyph glyph-name="period" unicode="." horiz-adv-x="493" 
d="M80 312h333v-332h-333v332zM120 272v-252h253v252h-253z" />
    <glyph glyph-name="slash" unicode="/" horiz-adv-x="1391" 
d="M65 -21l867 1462h394l-867 -1462h-394zM135 19h301l820 1382h-301z" />
    <glyph glyph-name="zero" unicode="0" 
d="M907 544h-321v333h321v-333zM1057 1441q145 0 250.5 -105.5t105.5 -250.5v-750q0 -145 -105.5 -250t-250.5 -105h-621q-145 0 -250.5 105t-105.5 250v750q0 145 105 250.5t251 105.5h621zM1120 1040v-660q0 -50 -36 -79t-85 -29h-518q-43 0 -75.5 33t-32.5 75v660
q0 43 32.5 75.5t75.5 32.5h531q43 0 75.5 -32.5t32.5 -75.5zM867 584v253h-241v-253h241zM1057 1401h-621q-133 0 -224.5 -91.5t-91.5 -224.5v-750q0 -133 91.5 -224t224.5 -91h621q133 0 224.5 91t91.5 224v750q0 133 -91.5 224.5t-224.5 91.5zM1080 1040q0 31 -18.5 49.5
t-49.5 18.5h-531q-31 0 -49.5 -18.5t-18.5 -49.5v-660q0 -30 19 -49t49 -19h518q81 0 81 68v660z" />
    <glyph glyph-name="one" unicode="1" horiz-adv-x="665" 
d="M80 1108v333h505v-1461h-333v1128h-172zM120 1148h172v-1128h253v1381h-425v-253z" />
    <glyph glyph-name="two" unicode="2" 
d="M412 471v-159h1001v-332h-1333v547q0 143 103.5 246.5t245.5 103.5h579q32 0 52 20t20 52v87q0 32 -20 52t-52 20h-928v333h984q142 0 245.5 -103.5t103.5 -245.5v-199q0 -142 -103.5 -245.5t-245.5 -103.5h-579q-32 0 -52.5 -20.5t-20.5 -52.5zM372 471q0 45 34.5 79
t78.5 34h579q130 0 219.5 89.5t89.5 219.5v199q0 130 -89.5 219.5t-219.5 89.5h-944v-253h888q44 0 78 -34t34 -78v-87q0 -45 -34 -78.5t-78 -33.5h-579q-130 0 -219.5 -90t-89.5 -220v-507h1253v252h-1001v199z" />
    <glyph glyph-name="three" unicode="3" 
d="M1080 945v95q0 31 -18.5 49.5t-49.5 18.5h-932v333h977q145 0 250.5 -105.5t105.5 -250.5v-185q0 -109 -54 -190q54 -81 54 -190v-185q0 -145 -105.5 -250t-250.5 -105h-977v332h932q31 0 49.5 19t18.5 49v95q0 31 -18.5 49.5t-49.5 18.5q-150 0 -459 0.5t-473 0.5v333
h932q31 0 49.5 19t18.5 49zM1120 945q0 -43 -32.5 -75.5t-75.5 -32.5h-892v-253q139 0 438 -0.5t454 -0.5q43 0 75.5 -32.5t32.5 -75.5v-95q0 -43 -32.5 -75.5t-75.5 -32.5h-892v-252h937q133 0 224.5 91t91.5 224v185q0 98 -63 190q63 92 63 190v185q0 133 -91.5 224.5
t-224.5 91.5h-937v-253h892q43 0 75.5 -32.5t32.5 -75.5v-95z" />
    <glyph glyph-name="four" unicode="4" 
d="M1081 1441h332v-1461h-333v564h-651q-143 0 -246 103t-103 246v548h333v-492q0 -32 20 -52t52 -20h596v564zM1121 1401v-564h-636q-44 0 -78 34t-34 78v452h-253v-508q0 -130 89.5 -219.5t219.5 -89.5h691v-564h253v1381h-252z" />
    <glyph glyph-name="five" unicode="5" 
d="M413 877h650q142 0 246 -104t104 -246v-199q0 -143 -103.5 -246.5t-246.5 -103.5l-983 2v332h928q32 0 52 19.5t20 51.5v88q0 32 -20 52t-52 20l-928 1v897h1333v-333h-1000v-231zM373 837v311h1000v253h-1253v-817l888 -1q44 0 78 -34t34 -78v-88q0 -45 -33.5 -78
t-78.5 -33h-888v-252l944 -2q130 0 219.5 90t89.5 220v199q0 129 -90 219.5t-220 90.5h-690z" />
    <glyph glyph-name="six" unicode="6" 
d="M1008 272h-523q-44 0 -78 34t-34 79v200h635q44 0 78 -34t34 -79v-87q0 -45 -33.5 -79t-78.5 -34zM1413 1108q-163 0 -471 0.5t-457 0.5q-32 0 -52 -20t-20 -52v-159h651q142 0 245.5 -103.5t103.5 -246.5v-199q0 -143 -103.5 -246t-245.5 -103h-635q-143 0 -246 103
t-103 246v763q0 143 103 246.5t246 103.5q158 0 485 -0.5t499 -0.5v-333zM1008 312q32 0 52 20.5t20 52.5v87q0 32 -20 52.5t-52 20.5h-595v-160q0 -32 20 -52.5t52 -20.5h523zM1373 1148v253q-147 0 -464 0.5t-480 0.5q-130 0 -219.5 -90t-89.5 -220v-763
q0 -130 89.5 -219.5t219.5 -89.5h635q130 0 219.5 89t89.5 220v199q0 131 -89.5 220.5t-219.5 89.5h-691v199q0 44 34 78t78 34q154 0 452 -0.5t436 -0.5z" />
    <glyph glyph-name="seven" unicode="7" 
d="M765 471v-491h-333v547q0 143 103 246t246 103l227 1q32 0 52 20t20 52v87q0 32 -20 52t-52 20h-928v333h984q142 0 245.5 -103.5t103.5 -245.5v-199q0 -143 -103.5 -246t-245.5 -103q-38 0 -113.5 -0.5t-113.5 -0.5q-31 0 -51 -20q-21 -21 -21 -52zM725 471q0 48 32 80
t80 32q37 0 113 0.5t114 0.5q130 0 219.5 89.5t89.5 219.5v199q0 130 -89.5 219.5t-219.5 89.5h-944v-253h888q44 0 78 -34t34 -78v-87q0 -45 -34 -78.5t-78 -33.5l-227 -1q-130 0 -219.5 -89.5t-89.5 -219.5v-507h253v451z" />
    <glyph glyph-name="eight" unicode="8" 
d="M373 945v95q0 43 32.5 75.5t75.5 32.5h531q43 0 75.5 -32.5t32.5 -75.5v-95q0 -43 -32.5 -75.5t-75.5 -32.5h-531q-43 0 -75.5 32.5t-32.5 75.5zM481 583h531q43 0 75.5 -32.5t32.5 -75.5v-95q0 -43 -32.5 -75.5t-75.5 -32.5h-531q-43 0 -75.5 32.5t-32.5 75.5v95
q0 43 32.5 75.5t75.5 32.5zM436 -20q-145 0 -250.5 105t-105.5 250v185q0 110 55 190q-55 80 -55 190v185q0 145 105 250.5t251 105.5h621q145 0 250.5 -105.5t105.5 -250.5v-185q0 -109 -54 -190q54 -81 54 -190v-185q0 -145 -105.5 -250t-250.5 -105h-621zM413 945
q0 -30 18.5 -49t49.5 -19h531q31 0 49.5 19t18.5 49v95q0 31 -18.5 49.5t-49.5 18.5h-531q-31 0 -49.5 -18.5t-18.5 -49.5v-95zM481 543q-31 0 -49.5 -18.5t-18.5 -49.5v-95q0 -30 18.5 -49t49.5 -19h531q31 0 49.5 19t18.5 49v95q0 31 -18.5 49.5t-49.5 18.5h-531zM436 20
h621q133 0 224.5 91t91.5 224v185q0 98 -63 190q63 92 63 190v185q0 133 -91.5 224.5t-224.5 91.5h-621q-133 0 -224.5 -91.5t-91.5 -224.5v-185q0 -98 63 -190q-63 -92 -63 -190v-185q0 -133 91.5 -224t224.5 -91z" />
    <glyph glyph-name="nine" unicode="9" 
d="M1080 877v160q0 32 -20 52t-52 20h-544v1q-52 -20 -52 -73v-88q0 -32 20.5 -52t51.5 -20h596zM1120 837h-636q-44 0 -78 34t-34 78v88q0 54 38.5 85t66.5 31q5 0 13.5 -3t11.5 -3q2 0 2 2h504q45 0 78.5 -34t33.5 -78v-200zM1064 20q130 0 219.5 89t89.5 220v764
q0 131 -89.5 220t-219.5 89h-635q-131 0 -220 -89t-89 -220v-200q0 -131 89 -220t220 -89h691v-199q0 -44 -34 -78t-78 -34h-888v-252q20 0 171 -0.5t773 -0.5zM1064 -20q-609 0 -770 0.5t-214 0.5v332h928q32 0 52 20t20 52v159h-651q-146 0 -247.5 103.5t-101.5 245.5v200
q0 146 103.5 247.5t245.5 101.5h635q146 0 247.5 -103.5t101.5 -245.5v-764q0 -146 -103.5 -247.5t-245.5 -101.5z" />
    <glyph glyph-name="colon" unicode=":" horiz-adv-x="493" 
d="M80 1092h333v-332h-333v332zM80 660h333v-332h-333v332zM120 1052v-252h253v252h-253zM120 620v-252h253v252h-253z" />
    <glyph glyph-name="semicolon" unicode=";" horiz-adv-x="493" 
d="M80 312h333v-322l-333 -249v571zM80 1092h333v-332h-333v332zM120 272v-451l253 189v262h-253zM120 1052v-252h253v252h-253z" />
    <glyph glyph-name="less" unicode="&#x3c;" horiz-adv-x="1112" 
d="M1032 495v-373l-788 339q-73 31 -118.5 100t-45.5 149t45.5 149t118.5 100l788 339v-373l-500 -215zM992 468l-561 242l561 242v286l-732 -316q-65 -28 -102.5 -84.5t-37.5 -127.5t37.5 -127.5t102.5 -84.5l732 -315v285z" />
    <glyph glyph-name="equal" unicode="=" horiz-adv-x="1124" 
d="M1044 324h-964v333h964v-333zM1044 763h-964v333h964v-333zM1004 364v253h-884v-253h884zM1004 803v253h-884v-253h884z" />
    <glyph glyph-name="greater" unicode="&#x3e;" horiz-adv-x="1112" 
d="M80 495l500 215l-500 215v373l788 -339q73 -31 118.5 -100t45.5 -149t-45.5 -149t-118.5 -100l-788 -339v373zM120 468v-285l733 315q64 28 101.5 84.5t37.5 127.5t-37.5 127.5t-101.5 84.5l-733 316v-286l562 -242z" />
    <glyph glyph-name="question" unicode="?" 
d="M432 312h333v-332h-333v332zM765 471v-68h-333v124q0 143 103 246t246 103l227 1q31 0 51 21q21 20 21 51v87q0 32 -20 52t-52 20h-928v333h984q142 0 245.5 -103.5t103.5 -245.5v-199q0 -143 -103.5 -246t-245.5 -103q-38 0 -113.5 -0.5t-113.5 -0.5q-31 0 -51 -20
q-21 -21 -21 -52zM472 272v-252h253v252h-253zM725 471q0 48 32 80t80 32q37 0 113 0.5t114 0.5q130 0 219.5 89.5t89.5 219.5v199q0 130 -89.5 219.5t-219.5 89.5h-944v-253h888q44 0 78 -34t34 -78v-87q0 -48 -33 -79q-31 -33 -79 -33l-227 -1q-130 0 -219.5 -89.5
t-89.5 -219.5v-84h253v28z" />
    <glyph glyph-name="at" unicode="@" horiz-adv-x="1613" 
d="M700 520q-34 0 -59 25q-24 22 -24 58v214q0 36 24 58q25 25 59 25h296v-380h-296zM662 1100h534v-497q0 -17 13 -30t30 -13h11q17 0 30 13t13 30v555q0 19 -11.5 30.5t-31.5 11.5h-887q-20 0 -31.5 -11.5t-11.5 -30.5v-896q0 -20 12 -31.5t31 -11.5h1170v-240h-1208
q-99 0 -172 73t-73 172v971q0 100 73 173t172 73h963q99 0 172 -73t73 -173v-630q0 -99 -73 -172t-172 -73h-112q-55 0 -107 26t-68 56q-16 -30 -68 -56t-107 -26h-164q-100 0 -172.5 73t-72.5 172v290q0 99 72.5 172t172.5 73zM700 560h256v300h-256q-18 0 -31 -13
q-12 -12 -12 -30v-214q0 -18 12 -30q13 -13 31 -13zM662 1060q-87 0 -146 -59t-59 -146v-290q0 -87 59 -146t146 -59h164q106 0 175 125q69 -125 175 -125h112q87 0 146 59t59 146v630q0 88 -59 147t-146 59h-963q-87 0 -146 -59t-59 -147v-971q0 -87 59 -146t146 -59h1168
v160h-1130q-32 0 -57.5 25.5t-25.5 57.5v896q0 32 25.5 57t57.5 25h887q32 0 57.5 -25t25.5 -57v-555q0 -35 -25 -58q-23 -25 -58 -25h-11q-34 0 -59 25q-24 24 -24 58v457h-494z" />
    <glyph glyph-name="A" unicode="A" 
d="M1013 1148q43 0 75 -32.5t32 -75.5v-475h-747v475q0 43 32.5 75.5t75.5 32.5h532zM413 272v-292h-333v1105q0 145 105 250.5t251 105.5h621q145 0 250.5 -105.5t105.5 -250.5v-1105h-333v292h-667zM1013 1108h-532q-31 0 -49.5 -18.5t-18.5 -49.5v-435h667v435
q0 31 -18.5 49.5t-48.5 18.5zM373 312h747v-292h253v1065q0 133 -91.5 224.5t-224.5 91.5h-621q-133 0 -224.5 -91.5t-91.5 -224.5v-1065h253v292z" />
    <glyph glyph-name="B" unicode="B" 
d="M1120 945q0 -43 -32.5 -75.5t-75.5 -32.5h-639v311h639q43 0 75.5 -32.5t32.5 -75.5v-95zM80 -20v1461h977q145 0 250.5 -105.5t105.5 -250.5v-185q0 -109 -54 -190q54 -81 54 -190v-185q0 -145 -105.5 -250t-250.5 -105h-977zM373 584q115 0 327 -0.5t312 -0.5
q43 0 75.5 -32.5t32.5 -75.5v-95q0 -43 -32.5 -75.5t-75.5 -32.5h-639v312zM1080 945v95q0 31 -18.5 49.5t-49.5 18.5h-599v-231h599q31 0 49.5 19t18.5 49zM120 20h937q133 0 224.5 91t91.5 224v185q0 98 -63 190q63 92 63 190v185q0 133 -91.5 224.5t-224.5 91.5h-937
v-1381zM413 544v-232h599q31 0 49.5 19t18.5 49v95q0 31 -18.5 49.5t-49.5 18.5q-106 0 -307 0.5t-292 0.5z" />
    <glyph glyph-name="C" unicode="C" 
d="M413 1040v-660q0 -28 20 -48t48 -20h932v-332h-977q-145 0 -250.5 105t-105.5 250v750q0 145 105 250.5t251 105.5h977v-333h-932q-31 0 -49.5 -18.5t-18.5 -49.5zM373 1040q0 43 32.5 75.5t75.5 32.5h892v253h-937q-133 0 -224.5 -91.5t-91.5 -224.5v-750
q0 -133 91.5 -224t224.5 -91h937v252h-892q-43 0 -77 32q-31 31 -31 76v660z" />
    <glyph glyph-name="D" unicode="D" 
d="M1120 385q0 -45 -34 -79t-78 -34h-635v876h635q44 0 78 -34t34 -78v-651zM1064 -20h-984v1461h984q142 0 245.5 -103.5t103.5 -245.5v-763q0 -143 -103.5 -246t-245.5 -103zM1080 385v651q0 32 -20 52t-52 20h-595v-796h595q32 0 52 20.5t20 52.5zM1064 20
q130 0 219.5 89t89.5 220v763q0 130 -89.5 219.5t-219.5 89.5h-944v-1381h944z" />
    <glyph glyph-name="E" unicode="E" 
d="M413 945q0 -30 18.5 -49t49.5 -19h932v-332q-163 0 -472.5 -1t-459.5 -1q-31 0 -49.5 -18.5t-18.5 -49.5v-95q0 -30 18.5 -49t49.5 -19h932v-332h-977q-145 0 -250.5 105t-105.5 250v185q0 110 55 190q-55 80 -55 190v185q0 145 105 250.5t251 105.5h977v-333h-932
q-31 0 -49.5 -18.5t-18.5 -49.5v-95zM373 945v95q0 43 32.5 75.5t75.5 32.5h892v253h-937q-133 0 -224.5 -91.5t-91.5 -224.5v-185q0 -98 63 -190q-63 -92 -63 -190v-185q0 -133 91.5 -224t224.5 -91h937v252h-892q-43 0 -75.5 32.5t-32.5 75.5v95q0 43 32.5 75.5t75.5 32.5
q155 0 454.5 1t437.5 1v252h-892q-43 0 -75.5 32.5t-32.5 75.5z" />
    <glyph glyph-name="F" unicode="F" 
d="M413 945q0 -30 18.5 -49t49.5 -19h932v-332l-932 -2q-31 0 -49.5 -18.5t-18.5 -49.5v-495h-333v540q0 110 55 190q-55 80 -55 190v185q0 145 105 250.5t251 105.5h977v-333h-932q-31 0 -49.5 -18.5t-18.5 -49.5v-95zM373 945v95q0 43 32.5 75.5t75.5 32.5h892v253h-937
q-133 0 -224.5 -91.5t-91.5 -224.5v-185q0 -98 63 -190q-63 -92 -63 -190v-500h253v455q0 43 32.5 75.5t75.5 32.5l892 2v252h-892q-43 0 -75.5 32.5t-32.5 75.5z" />
    <glyph glyph-name="G" unicode="G" 
d="M413 1040v-660q0 -28 20 -48t48 -20h599v164q0 30 -19 49t-49 19h-439v333h484q145 0 250.5 -105.5t105.5 -250.5v-541h-977q-145 0 -250.5 105t-105.5 250v750q0 145 105 250.5t251 105.5h958v-333h-913q-31 0 -49.5 -18.5t-18.5 -49.5zM373 1040q0 43 32.5 75.5
t75.5 32.5h873v253h-918q-133 0 -224.5 -91.5t-91.5 -224.5v-750q0 -133 91.5 -224t224.5 -91h937v501q0 133 -91.5 224.5t-224.5 91.5h-444v-253h399q43 0 75.5 -32.5t32.5 -75.5v-204h-639q-43 0 -77 32q-31 31 -31 76v660z" />
    <glyph glyph-name="H" unicode="H" 
d="M1080 1441h333v-1461h-333v564h-667v-564h-333v1461h333v-564h667v564zM1120 1401v-564h-747v564h-253v-1381h253v564h747v-564h253v1381h-253z" />
    <glyph glyph-name="I" unicode="I" horiz-adv-x="493" 
d="M80 -20v1461h333v-1461h-333zM120 20h253v1381h-253v-1381z" />
    <glyph glyph-name="J" unicode="J" 
d="M1413 1441v-1106q0 -145 -105.5 -250t-250.5 -105h-977v332h932q31 0 49.5 19t18.5 49v1061h333zM1373 1401h-253v-1021q0 -43 -32.5 -75.5t-75.5 -32.5h-892v-252h937q133 0 224.5 91t91.5 224v1066z" />
    <glyph glyph-name="K" unicode="K" 
d="M80 -20v1461h333v-564h608q27 3 43 21t16 46v497h333v-520q0 -131 -54 -211q54 -79 54 -211v-519h-333v496q0 28 -16 46.5t-43 21.5h-608v-564h-333zM120 20h253v564h651q39 -5 67.5 -36.5t28.5 -71.5v-456h253v479q0 64 -12.5 110.5t-49.5 100.5q37 54 49.5 101
t12.5 110v480h-253v-457q0 -40 -28.5 -71t-67.5 -36h-651v564h-253v-1381z" />
    <glyph glyph-name="L" unicode="L" 
d="M80 1441h333v-1061q0 -30 18.5 -49t49.5 -19h932v-332h-977q-145 0 -250.5 105t-105.5 250v1106zM120 1401v-1066q0 -133 91.5 -224t224.5 -91h937v252h-892q-43 0 -75.5 32.5t-32.5 75.5v1021h-253z" />
    <glyph glyph-name="M" unicode="M" horiz-adv-x="2192" 
d="M80 -20v1105q0 145 105 250.5t251 105.5h188q145 0 250 -105.5t105 -250.5v-412q0 -31 19 -49.5t49 -18.5h98q31 0 49.5 18.5t18.5 49.5v412q0 145 105.5 250.5t250.5 105.5h187q146 0 251 -105.5t105 -250.5v-1105h-333v1060q0 31 -18.5 49.5t-49.5 18.5h-97
q-31 0 -49.5 -18.5t-18.5 -49.5v-412q0 -145 -105.5 -250.5t-250.5 -105.5h-188q-145 0 -250 105.5t-105 250.5v412q0 31 -19 49.5t-49 18.5h-98q-31 0 -49.5 -18.5t-18.5 -49.5v-1060h-333zM120 20h253v1020q0 43 32.5 75.5t75.5 32.5h98q42 0 75 -32.5t33 -75.5v-412
q0 -133 91 -224.5t224 -91.5h188q133 0 224.5 91.5t91.5 224.5v412q0 43 32.5 75.5t75.5 32.5h97q43 0 75.5 -32.5t32.5 -75.5v-1020h253v1065q0 133 -91 224.5t-225 91.5h-187q-133 0 -224.5 -91.5t-91.5 -224.5v-412q0 -43 -32.5 -75.5t-75.5 -32.5h-98q-42 0 -75 32.5
t-33 75.5v412q0 133 -91 224.5t-224 91.5h-188q-134 0 -225 -91.5t-91 -224.5v-1065z" />
    <glyph glyph-name="N" unicode="N" horiz-adv-x="1626" 
d="M80 -20v1105q0 145 105.5 250.5t250.5 105.5h188q145 0 250 -105.5t105 -250.5v-705q0 -30 19 -49t49 -19h98q31 0 49.5 19t18.5 49v1061h333v-1106q0 -145 -105.5 -250t-250.5 -105h-188q-145 0 -250 105t-105 250v705q0 31 -18.5 49.5t-49.5 18.5h-98
q-31 0 -49.5 -18.5t-18.5 -49.5v-1060h-333zM120 20h253v1020q0 43 32.5 75.5t75.5 32.5h98q43 0 75.5 -32.5t32.5 -75.5v-705q0 -133 91 -224t224 -91h188q133 0 224.5 91t91.5 224v1066h-253v-1021q0 -42 -32.5 -75t-75.5 -33h-98q-42 0 -75 33t-33 75v705
q0 133 -91 224.5t-224 91.5h-188q-133 0 -224.5 -91.5t-91.5 -224.5v-1065z" />
    <glyph glyph-name="O" unicode="O" 
d="M1057 1441q145 0 250.5 -105.5t105.5 -250.5v-750q0 -145 -105.5 -250t-250.5 -105h-621q-145 0 -250.5 105t-105.5 250v750q0 145 105 250.5t251 105.5h621zM1120 1040v-660q0 -45 -31 -76q-32 -32 -77 -32h-531q-43 0 -77 32q-31 31 -31 76v660q0 43 32.5 75.5
t75.5 32.5h531q43 0 75.5 -32.5t32.5 -75.5zM1057 1401h-621q-133 0 -224.5 -91.5t-91.5 -224.5v-750q0 -133 91.5 -224t224.5 -91h621q133 0 224.5 91t91.5 224v750q0 133 -91.5 224.5t-224.5 91.5zM1080 1040q0 31 -18.5 49.5t-49.5 18.5h-531q-31 0 -49.5 -18.5
t-18.5 -49.5v-660q0 -28 20 -48t48 -20h531q27 0 49 20q19 20 19 48v660z" />
    <glyph glyph-name="P" unicode="P" horiz-adv-x="1494" 
d="M1121 677q0 -44 -34 -78t-78 -34h-636v583h636q44 0 78 -34t34 -78v-359zM80 -20v1461h984q143 0 246.5 -103t103.5 -246v-471q0 -143 -103.5 -246t-246.5 -103h-651v-292h-333zM1081 677v359q0 32 -20 52t-52 20h-596v-503h596q32 0 52 20t20 52zM120 20h253v292h691
q130 0 220 89.5t90 219.5v471q0 130 -90 219.5t-220 89.5h-944v-1381z" />
    <glyph glyph-name="Q" unicode="Q" 
d="M1120 1040v-660q0 -43 -32.5 -75.5t-75.5 -32.5h-531q-43 0 -75.5 32.5t-32.5 75.5v660q0 43 32.5 75.5t75.5 32.5h531q43 0 75.5 -32.5t32.5 -75.5zM1057 1441q145 0 250.5 -105.5t105.5 -250.5v-750q0 -114 -59 -196q9 -15 58 -23v-331h-52q-103 0 -191 55.5
t-126 139.5h-607q-145 0 -250.5 105t-105.5 250v750q0 145 105 250.5t251 105.5h621zM1080 1040q0 31 -18.5 49.5t-49.5 18.5h-531q-31 0 -49.5 -18.5t-18.5 -49.5v-660q0 -30 18.5 -49t49.5 -19h531q31 0 49.5 19t18.5 49v660zM1057 1401h-621q-133 0 -224.5 -91.5
t-91.5 -224.5v-750q0 -133 91.5 -224t224.5 -91h633q42 -92 118.5 -143.5t172.5 -51.5h12v257q-12 2 -31 18t-35 41q67 92 67 194v750q0 133 -91.5 224.5t-224.5 91.5z" />
    <glyph glyph-name="R" unicode="R" horiz-adv-x="1494" 
d="M1121 677q0 -43 -32 -76.5t-75 -35.5h-641v583h636q44 0 78 -34t34 -78v-359zM1081 -20v224q0 29 -17.5 47.5t-46.5 20.5h-604v-292h-333v1461h984q143 0 246.5 -103t103.5 -246v-471q0 -107 -53 -185q53 -78 53 -187v-269h-333zM1081 677v359q0 32 -20 52t-52 20h-596
v-503h600q30 2 49 21.5t19 50.5zM1121 20h253v229q0 95 -61 187q61 90 61 185v471q0 130 -90 219.5t-220 89.5h-944v-1381h253v292h645q41 -2 72 -34.5t31 -73.5v-184z" />
    <glyph glyph-name="S" unicode="S" 
d="M1080 475q0 31 -18.5 50t-49.5 19h-576q-145 0 -250.5 105.5t-105.5 250.5v185q0 145 105 250.5t251 105.5h977v-333h-932q-31 0 -49.5 -18.5t-18.5 -49.5v-95q0 -30 18.5 -49t49.5 -19h576q145 0 250.5 -105.5t105.5 -251.5v-185q0 -145 -105.5 -250t-250.5 -105h-977
v332h932q31 0 49.5 19t18.5 49v95zM1120 475v-95q0 -43 -32.5 -75.5t-75.5 -32.5h-892v-252h937q133 0 224.5 91t91.5 224v185q0 134 -91.5 225.5t-224.5 91.5h-576q-43 0 -75.5 32.5t-32.5 75.5v95q0 43 32.5 75.5t75.5 32.5h892v253h-937q-133 0 -224.5 -91.5
t-91.5 -224.5v-185q0 -133 91.5 -224.5t224.5 -91.5h576q43 0 75.5 -33t32.5 -76z" />
    <glyph glyph-name="T" unicode="T" horiz-adv-x="1494" 
d="M580 -20v1060q0 31 -18.5 49.5t-49.5 18.5h-432v333h1334v-333h-433q-30 0 -49 -18.5t-19 -49.5v-1060h-333zM620 20h253v1020q0 43 32.5 75.5t75.5 32.5h393v253h-1254v-253h392q43 0 75.5 -32.5t32.5 -75.5v-1020z" />
    <glyph glyph-name="U" unicode="U" 
d="M1013 312q30 0 48.5 19t18.5 49v1061h333v-1106q0 -145 -105.5 -250t-250.5 -105h-621q-145 0 -250.5 105t-105.5 250v1106h333v-1061q0 -30 18.5 -49t49.5 -19h532zM1013 272h-532q-43 0 -75.5 32.5t-32.5 75.5v1021h-253v-1066q0 -133 91.5 -224t224.5 -91h621
q133 0 224.5 91t91.5 224v1066h-253v-1021q0 -42 -32.5 -75t-74.5 -33z" />
    <glyph glyph-name="V" unicode="V" horiz-adv-x="1444" 
d="M1364 -20h-928q-145 0 -250.5 105t-105.5 250v1106h333v-1061q0 -30 18.5 -49t49.5 -19h551v1129h332v-1461zM1324 20v1381h-252v-1129h-591q-43 0 -75.5 32.5t-32.5 75.5v1021h-253v-1066q0 -133 91.5 -224t224.5 -91h888z" />
    <glyph glyph-name="W" unicode="W" horiz-adv-x="2192" 
d="M80 1441h332v-1061q0 -30 19 -49t49 -19h98q31 0 49.5 19t18.5 49v413q0 145 105.5 250.5t250.5 105.5h187q145 0 250.5 -105.5t105.5 -250.5v-413q0 -30 18.5 -49t49.5 -19h98q31 0 49.5 19t18.5 49v1061h333v-1106q0 -145 -105.5 -250t-250.5 -105h-188
q-145 0 -250.5 105t-105.5 250v413q0 31 -18.5 49.5t-49.5 18.5h-97q-31 0 -49.5 -18.5t-18.5 -49.5v-413q0 -145 -105.5 -250t-250.5 -105h-188q-145 0 -250 105t-105 250v1106zM120 1401v-1066q0 -133 91 -224t224 -91h188q133 0 224.5 91t91.5 224v413q0 43 32.5 75.5
t75.5 32.5h97q43 0 75.5 -32.5t32.5 -75.5v-413q0 -133 91.5 -224t224.5 -91h188q133 0 224.5 91t91.5 224v1066h-253v-1021q0 -42 -32.5 -75t-75.5 -33h-98q-43 0 -75.5 33t-32.5 75v413q0 133 -91.5 224.5t-224.5 91.5h-187q-133 0 -224.5 -91.5t-91.5 -224.5v-413
q0 -42 -32.5 -75t-75.5 -33h-98q-42 0 -75 33t-33 75v1021h-252z" />
    <glyph glyph-name="X" unicode="X" 
d="M1013 877q30 0 48.5 19t18.5 49v496h333v-541q0 -112 -54 -190q54 -78 54 -189v-541h-333v496q0 30 -18.5 49t-48.5 19h-532q-31 0 -49.5 -19t-18.5 -49v-496h-333v541q0 108 54 189q-54 81 -54 190v541h333v-496q0 -31 18.5 -49.5t49.5 -18.5h532zM1013 837h-532
q-43 0 -75.5 32.5t-32.5 75.5v456h-253v-501q0 -98 63 -190q-63 -92 -63 -189v-501h253v456q0 43 32.5 75.5t75.5 32.5h532q43 0 75 -32.5t32 -75.5v-456h253v501q0 97 -63 189q63 92 63 190v501h-253v-456q0 -43 -32 -75.5t-75 -32.5z" />
    <glyph glyph-name="Y" unicode="Y" 
d="M1013 877q30 0 48.5 18.5t18.5 49.5v496h333v-541q0 -146 -105.5 -251t-250.5 -105h-144v-564h-333v564h-144q-146 0 -251 105t-105 251v541h333v-496q0 -31 18.5 -49.5t49.5 -18.5h532zM1013 837h-532q-43 0 -75.5 32.5t-32.5 75.5v456h-253v-501q0 -133 91.5 -224.5
t224.5 -91.5h184v-564h253v564h184q133 0 224.5 91t91.5 225v501h-253v-456q0 -43 -32 -75.5t-75 -32.5z" />
    <glyph glyph-name="Z" unicode="Z" 
d="M413 475v-95q0 -30 18.5 -49t49.5 -19h932v-332h-977q-145 0 -250.5 105t-105.5 250v185q0 146 105.5 251.5t250.5 105.5h576q31 0 49.5 19t18.5 49v95q0 31 -18.5 49.5t-49.5 18.5h-932v333h977q145 0 250.5 -105.5t105.5 -250.5v-185q0 -145 -105.5 -250.5
t-250.5 -105.5h-576q-31 0 -49.5 -19t-18.5 -50zM373 475q0 43 32.5 76t75.5 33h576q133 0 224.5 91.5t91.5 224.5v185q0 133 -91.5 224.5t-224.5 91.5h-937v-253h892q43 0 75.5 -32.5t32.5 -75.5v-95q0 -43 -32.5 -75.5t-75.5 -32.5h-576q-133 0 -224.5 -92t-91.5 -225
v-185q0 -133 91.5 -224t224.5 -91h937v252h-892q-43 0 -75.5 32.5t-32.5 75.5v95z" />
    <glyph glyph-name="bracketleft" unicode="[" horiz-adv-x="794" 
d="M714 -350h-634v2120h634v-333h-301v-1454h301v-333zM674 -310v253h-301v1534h301v253h-554v-2040h554z" />
    <glyph glyph-name="backslash" unicode="\" horiz-adv-x="1391" 
d="M1326 -21h-394l-867 1462h394zM1256 19l-820 1382h-301l820 -1382h301z" />
    <glyph glyph-name="bracketright" unicode="]" horiz-adv-x="794" 
d="M80 -350v333h301v1454h-301v333h634v-2120h-634zM120 -310h554v2040h-554v-253h301v-1534h-301v-253z" />
    <glyph glyph-name="asciicircum" unicode="^" horiz-adv-x="966" 
d="M392 836h-322l199 464q27 63 86.5 102t127.5 39t127 -39t86 -102l200 -464h-322l-91 212zM365 876l118 273l117 -273h235l-175 409q-24 54 -71 85t-106 31t-106.5 -31t-70.5 -85l-176 -409h235z" />
    <glyph glyph-name="underscore" unicode="_" horiz-adv-x="1490" 
d="M80 312h1330v-333h-1330v333zM120 272v-253h1250v253h-1250z" />
    <glyph glyph-name="a" unicode="a" 
d="M1013 1148q43 0 75 -32.5t32 -75.5v-475h-747v475q0 43 32.5 75.5t75.5 32.5h532zM413 272v-292h-333v1105q0 145 105 250.5t251 105.5h621q145 0 250.5 -105.5t105.5 -250.5v-1105h-333v292h-667zM1013 1108h-532q-31 0 -49.5 -18.5t-18.5 -49.5v-435h667v435
q0 31 -18.5 49.5t-48.5 18.5zM373 312h747v-292h253v1065q0 133 -91.5 224.5t-224.5 91.5h-621q-133 0 -224.5 -91.5t-91.5 -224.5v-1065h253v292z" />
    <glyph glyph-name="b" unicode="b" 
d="M1120 945q0 -43 -32.5 -75.5t-75.5 -32.5h-639v311h639q43 0 75.5 -32.5t32.5 -75.5v-95zM80 -20v1461h977q145 0 250.5 -105.5t105.5 -250.5v-185q0 -109 -54 -190q54 -81 54 -190v-185q0 -145 -105.5 -250t-250.5 -105h-977zM373 584q115 0 327 -0.5t312 -0.5
q43 0 75.5 -32.5t32.5 -75.5v-95q0 -43 -32.5 -75.5t-75.5 -32.5h-639v312zM1080 945v95q0 31 -18.5 49.5t-49.5 18.5h-599v-231h599q31 0 49.5 19t18.5 49zM120 20h937q133 0 224.5 91t91.5 224v185q0 98 -63 190q63 92 63 190v185q0 133 -91.5 224.5t-224.5 91.5h-937
v-1381zM413 544v-232h599q31 0 49.5 19t18.5 49v95q0 31 -18.5 49.5t-49.5 18.5q-106 0 -307 0.5t-292 0.5z" />
    <glyph glyph-name="c" unicode="c" 
d="M413 1040v-660q0 -28 20 -48t48 -20h932v-332h-977q-145 0 -250.5 105t-105.5 250v750q0 145 105 250.5t251 105.5h977v-333h-932q-31 0 -49.5 -18.5t-18.5 -49.5zM373 1040q0 43 32.5 75.5t75.5 32.5h892v253h-937q-133 0 -224.5 -91.5t-91.5 -224.5v-750
q0 -133 91.5 -224t224.5 -91h937v252h-892q-43 0 -77 32q-31 31 -31 76v660z" />
    <glyph glyph-name="d" unicode="d" 
d="M1120 385q0 -45 -34 -79t-78 -34h-635v876h635q44 0 78 -34t34 -78v-651zM1064 -20h-984v1461h984q142 0 245.5 -103.5t103.5 -245.5v-763q0 -143 -103.5 -246t-245.5 -103zM1080 385v651q0 32 -20 52t-52 20h-595v-796h595q32 0 52 20.5t20 52.5zM1064 20
q130 0 219.5 89t89.5 220v763q0 130 -89.5 219.5t-219.5 89.5h-944v-1381h944z" />
    <glyph glyph-name="e" unicode="e" 
d="M413 945q0 -30 18.5 -49t49.5 -19h932v-332q-163 0 -472.5 -1t-459.5 -1q-31 0 -49.5 -18.5t-18.5 -49.5v-95q0 -30 18.5 -49t49.5 -19h932v-332h-977q-145 0 -250.5 105t-105.5 250v185q0 110 55 190q-55 80 -55 190v185q0 145 105 250.5t251 105.5h977v-333h-932
q-31 0 -49.5 -18.5t-18.5 -49.5v-95zM373 945v95q0 43 32.5 75.5t75.5 32.5h892v253h-937q-133 0 -224.5 -91.5t-91.5 -224.5v-185q0 -98 63 -190q-63 -92 -63 -190v-185q0 -133 91.5 -224t224.5 -91h937v252h-892q-43 0 -75.5 32.5t-32.5 75.5v95q0 43 32.5 75.5t75.5 32.5
q155 0 454.5 1t437.5 1v252h-892q-43 0 -75.5 32.5t-32.5 75.5z" />
    <glyph glyph-name="f" unicode="f" 
d="M413 945q0 -30 18.5 -49t49.5 -19h932v-332l-932 -2q-31 0 -49.5 -18.5t-18.5 -49.5v-495h-333v540q0 110 55 190q-55 80 -55 190v185q0 145 105 250.5t251 105.5h977v-333h-932q-31 0 -49.5 -18.5t-18.5 -49.5v-95zM373 945v95q0 43 32.5 75.5t75.5 32.5h892v253h-937
q-133 0 -224.5 -91.5t-91.5 -224.5v-185q0 -98 63 -190q-63 -92 -63 -190v-500h253v455q0 43 32.5 75.5t75.5 32.5l892 2v252h-892q-43 0 -75.5 32.5t-32.5 75.5z" />
    <glyph glyph-name="g" unicode="g" 
d="M413 1040v-660q0 -28 20 -48t48 -20h599v164q0 30 -19 49t-49 19h-439v333h484q145 0 250.5 -105.5t105.5 -250.5v-541h-977q-145 0 -250.5 105t-105.5 250v750q0 145 105 250.5t251 105.5h958v-333h-913q-31 0 -49.5 -18.5t-18.5 -49.5zM373 1040q0 43 32.5 75.5
t75.5 32.5h873v253h-918q-133 0 -224.5 -91.5t-91.5 -224.5v-750q0 -133 91.5 -224t224.5 -91h937v501q0 133 -91.5 224.5t-224.5 91.5h-444v-253h399q43 0 75.5 -32.5t32.5 -75.5v-204h-639q-43 0 -77 32q-31 31 -31 76v660z" />
    <glyph glyph-name="h" unicode="h" 
d="M1080 1441h333v-1461h-333v564h-667v-564h-333v1461h333v-564h667v564zM1120 1401v-564h-747v564h-253v-1381h253v564h747v-564h253v1381h-253z" />
    <glyph glyph-name="i" unicode="i" horiz-adv-x="493" 
d="M80 -20v1461h333v-1461h-333zM120 20h253v1381h-253v-1381z" />
    <glyph glyph-name="j" unicode="j" 
d="M1413 1441v-1106q0 -145 -105.5 -250t-250.5 -105h-977v332h932q31 0 49.5 19t18.5 49v1061h333zM1373 1401h-253v-1021q0 -43 -32.5 -75.5t-75.5 -32.5h-892v-252h937q133 0 224.5 91t91.5 224v1066z" />
    <glyph glyph-name="k" unicode="k" 
d="M80 -20v1461h333v-564h608q27 3 43 21t16 46v497h333v-520q0 -131 -54 -211q54 -79 54 -211v-519h-333v496q0 28 -16 46.5t-43 21.5h-608v-564h-333zM120 20h253v564h651q39 -5 67.5 -36.5t28.5 -71.5v-456h253v479q0 64 -12.5 110.5t-49.5 100.5q37 54 49.5 101
t12.5 110v480h-253v-457q0 -40 -28.5 -71t-67.5 -36h-651v564h-253v-1381z" />
    <glyph glyph-name="l" unicode="l" 
d="M80 1441h333v-1061q0 -30 18.5 -49t49.5 -19h932v-332h-977q-145 0 -250.5 105t-105.5 250v1106zM120 1401v-1066q0 -133 91.5 -224t224.5 -91h937v252h-892q-43 0 -75.5 32.5t-32.5 75.5v1021h-253z" />
    <glyph glyph-name="m" unicode="m" horiz-adv-x="2192" 
d="M80 -20v1105q0 145 105 250.5t251 105.5h188q145 0 250 -105.5t105 -250.5v-412q0 -31 19 -49.5t49 -18.5h98q31 0 49.5 18.5t18.5 49.5v412q0 145 105.5 250.5t250.5 105.5h187q146 0 251 -105.5t105 -250.5v-1105h-333v1060q0 31 -18.5 49.5t-49.5 18.5h-97
q-31 0 -49.5 -18.5t-18.5 -49.5v-412q0 -145 -105.5 -250.5t-250.5 -105.5h-188q-145 0 -250 105.5t-105 250.5v412q0 31 -19 49.5t-49 18.5h-98q-31 0 -49.5 -18.5t-18.5 -49.5v-1060h-333zM120 20h253v1020q0 43 32.5 75.5t75.5 32.5h98q42 0 75 -32.5t33 -75.5v-412
q0 -133 91 -224.5t224 -91.5h188q133 0 224.5 91.5t91.5 224.5v412q0 43 32.5 75.5t75.5 32.5h97q43 0 75.5 -32.5t32.5 -75.5v-1020h253v1065q0 133 -91 224.5t-225 91.5h-187q-133 0 -224.5 -91.5t-91.5 -224.5v-412q0 -43 -32.5 -75.5t-75.5 -32.5h-98q-42 0 -75 32.5
t-33 75.5v412q0 133 -91 224.5t-224 91.5h-188q-134 0 -225 -91.5t-91 -224.5v-1065z" />
    <glyph glyph-name="n" unicode="n" horiz-adv-x="1626" 
d="M80 -20v1105q0 145 105.5 250.5t250.5 105.5h188q145 0 250 -105.5t105 -250.5v-705q0 -30 19 -49t49 -19h98q31 0 49.5 19t18.5 49v1061h333v-1106q0 -145 -105.5 -250t-250.5 -105h-188q-145 0 -250 105t-105 250v705q0 31 -18.5 49.5t-49.5 18.5h-98
q-31 0 -49.5 -18.5t-18.5 -49.5v-1060h-333zM120 20h253v1020q0 43 32.5 75.5t75.5 32.5h98q43 0 75.5 -32.5t32.5 -75.5v-705q0 -133 91 -224t224 -91h188q133 0 224.5 91t91.5 224v1066h-253v-1021q0 -42 -32.5 -75t-75.5 -33h-98q-42 0 -75 33t-33 75v705
q0 133 -91 224.5t-224 91.5h-188q-133 0 -224.5 -91.5t-91.5 -224.5v-1065z" />
    <glyph glyph-name="o" unicode="o" 
d="M1057 1441q145 0 250.5 -105.5t105.5 -250.5v-750q0 -145 -105.5 -250t-250.5 -105h-621q-145 0 -250.5 105t-105.5 250v750q0 145 105 250.5t251 105.5h621zM1120 1040v-660q0 -45 -31 -76q-32 -32 -77 -32h-531q-43 0 -77 32q-31 31 -31 76v660q0 43 32.5 75.5
t75.5 32.5h531q43 0 75.5 -32.5t32.5 -75.5zM1057 1401h-621q-133 0 -224.5 -91.5t-91.5 -224.5v-750q0 -133 91.5 -224t224.5 -91h621q133 0 224.5 91t91.5 224v750q0 133 -91.5 224.5t-224.5 91.5zM1080 1040q0 31 -18.5 49.5t-49.5 18.5h-531q-31 0 -49.5 -18.5
t-18.5 -49.5v-660q0 -28 20 -48t48 -20h531q27 0 49 20q19 20 19 48v660z" />
    <glyph glyph-name="p" unicode="p" horiz-adv-x="1494" 
d="M1121 677q0 -44 -34 -78t-78 -34h-636v583h636q44 0 78 -34t34 -78v-359zM80 -20v1461h984q143 0 246.5 -103t103.5 -246v-471q0 -143 -103.5 -246t-246.5 -103h-651v-292h-333zM1081 677v359q0 32 -20 52t-52 20h-596v-503h596q32 0 52 20t20 52zM120 20h253v292h691
q130 0 220 89.5t90 219.5v471q0 130 -90 219.5t-220 89.5h-944v-1381z" />
    <glyph glyph-name="q" unicode="q" 
d="M1120 1040v-660q0 -43 -32.5 -75.5t-75.5 -32.5h-531q-43 0 -75.5 32.5t-32.5 75.5v660q0 43 32.5 75.5t75.5 32.5h531q43 0 75.5 -32.5t32.5 -75.5zM1057 1441q145 0 250.5 -105.5t105.5 -250.5v-750q0 -114 -59 -196q9 -15 58 -23v-331h-52q-103 0 -191 55.5
t-126 139.5h-607q-145 0 -250.5 105t-105.5 250v750q0 145 105 250.5t251 105.5h621zM1080 1040q0 31 -18.5 49.5t-49.5 18.5h-531q-31 0 -49.5 -18.5t-18.5 -49.5v-660q0 -30 18.5 -49t49.5 -19h531q31 0 49.5 19t18.5 49v660zM1057 1401h-621q-133 0 -224.5 -91.5
t-91.5 -224.5v-750q0 -133 91.5 -224t224.5 -91h633q42 -92 118.5 -143.5t172.5 -51.5h12v257q-12 2 -31 18t-35 41q67 92 67 194v750q0 133 -91.5 224.5t-224.5 91.5z" />
    <glyph glyph-name="r" unicode="r" horiz-adv-x="1494" 
d="M1121 677q0 -43 -32 -76.5t-75 -35.5h-641v583h636q44 0 78 -34t34 -78v-359zM1081 -20v224q0 29 -17.5 47.5t-46.5 20.5h-604v-292h-333v1461h984q143 0 246.5 -103t103.5 -246v-471q0 -107 -53 -185q53 -78 53 -187v-269h-333zM1081 677v359q0 32 -20 52t-52 20h-596
v-503h600q30 2 49 21.5t19 50.5zM1121 20h253v229q0 95 -61 187q61 90 61 185v471q0 130 -90 219.5t-220 89.5h-944v-1381h253v292h645q41 -2 72 -34.5t31 -73.5v-184z" />
    <glyph glyph-name="s" unicode="s" 
d="M1080 475q0 31 -18.5 50t-49.5 19h-576q-145 0 -250.5 105.5t-105.5 250.5v185q0 145 105 250.5t251 105.5h977v-333h-932q-31 0 -49.5 -18.5t-18.5 -49.5v-95q0 -30 18.5 -49t49.5 -19h576q145 0 250.5 -105.5t105.5 -251.5v-185q0 -145 -105.5 -250t-250.5 -105h-977
v332h932q31 0 49.5 19t18.5 49v95zM1120 475v-95q0 -43 -32.5 -75.5t-75.5 -32.5h-892v-252h937q133 0 224.5 91t91.5 224v185q0 134 -91.5 225.5t-224.5 91.5h-576q-43 0 -75.5 32.5t-32.5 75.5v95q0 43 32.5 75.5t75.5 32.5h892v253h-937q-133 0 -224.5 -91.5
t-91.5 -224.5v-185q0 -133 91.5 -224.5t224.5 -91.5h576q43 0 75.5 -33t32.5 -76z" />
    <glyph glyph-name="t" unicode="t" horiz-adv-x="1494" 
d="M580 -20v1060q0 31 -18.5 49.5t-49.5 18.5h-432v333h1334v-333h-433q-30 0 -49 -18.5t-19 -49.5v-1060h-333zM620 20h253v1020q0 43 32.5 75.5t75.5 32.5h393v253h-1254v-253h392q43 0 75.5 -32.5t32.5 -75.5v-1020z" />
    <glyph glyph-name="u" unicode="u" 
d="M1013 312q30 0 48.5 19t18.5 49v1061h333v-1106q0 -145 -105.5 -250t-250.5 -105h-621q-145 0 -250.5 105t-105.5 250v1106h333v-1061q0 -30 18.5 -49t49.5 -19h532zM1013 272h-532q-43 0 -75.5 32.5t-32.5 75.5v1021h-253v-1066q0 -133 91.5 -224t224.5 -91h621
q133 0 224.5 91t91.5 224v1066h-253v-1021q0 -42 -32.5 -75t-74.5 -33z" />
    <glyph glyph-name="v" unicode="v" horiz-adv-x="1444" 
d="M1364 -20h-928q-145 0 -250.5 105t-105.5 250v1106h333v-1061q0 -30 18.5 -49t49.5 -19h551v1129h332v-1461zM1324 20v1381h-252v-1129h-591q-43 0 -75.5 32.5t-32.5 75.5v1021h-253v-1066q0 -133 91.5 -224t224.5 -91h888z" />
    <glyph glyph-name="w" unicode="w" horiz-adv-x="2192" 
d="M80 1441h332v-1061q0 -30 19 -49t49 -19h98q31 0 49.5 19t18.5 49v413q0 145 105.5 250.5t250.5 105.5h187q145 0 250.5 -105.5t105.5 -250.5v-413q0 -30 18.5 -49t49.5 -19h98q31 0 49.5 19t18.5 49v1061h333v-1106q0 -145 -105.5 -250t-250.5 -105h-188
q-145 0 -250.5 105t-105.5 250v413q0 31 -18.5 49.5t-49.5 18.5h-97q-31 0 -49.5 -18.5t-18.5 -49.5v-413q0 -145 -105.5 -250t-250.5 -105h-188q-145 0 -250 105t-105 250v1106zM120 1401v-1066q0 -133 91 -224t224 -91h188q133 0 224.5 91t91.5 224v413q0 43 32.5 75.5
t75.5 32.5h97q43 0 75.5 -32.5t32.5 -75.5v-413q0 -133 91.5 -224t224.5 -91h188q133 0 224.5 91t91.5 224v1066h-253v-1021q0 -42 -32.5 -75t-75.5 -33h-98q-43 0 -75.5 33t-32.5 75v413q0 133 -91.5 224.5t-224.5 91.5h-187q-133 0 -224.5 -91.5t-91.5 -224.5v-413
q0 -42 -32.5 -75t-75.5 -33h-98q-42 0 -75 33t-33 75v1021h-252z" />
    <glyph glyph-name="x" unicode="x" 
d="M1013 877q30 0 48.5 19t18.5 49v496h333v-541q0 -112 -54 -190q54 -78 54 -189v-541h-333v496q0 30 -18.5 49t-48.5 19h-532q-31 0 -49.5 -19t-18.5 -49v-496h-333v541q0 108 54 189q-54 81 -54 190v541h333v-496q0 -31 18.5 -49.5t49.5 -18.5h532zM1013 837h-532
q-43 0 -75.5 32.5t-32.5 75.5v456h-253v-501q0 -98 63 -190q-63 -92 -63 -189v-501h253v456q0 43 32.5 75.5t75.5 32.5h532q43 0 75 -32.5t32 -75.5v-456h253v501q0 97 -63 189q63 92 63 190v501h-253v-456q0 -43 -32 -75.5t-75 -32.5z" />
    <glyph glyph-name="y" unicode="y" 
d="M1013 877q30 0 48.5 18.5t18.5 49.5v496h333v-541q0 -146 -105.5 -251t-250.5 -105h-144v-564h-333v564h-144q-146 0 -251 105t-105 251v541h333v-496q0 -31 18.5 -49.5t49.5 -18.5h532zM1013 837h-532q-43 0 -75.5 32.5t-32.5 75.5v456h-253v-501q0 -133 91.5 -224.5
t224.5 -91.5h184v-564h253v564h184q133 0 224.5 91t91.5 225v501h-253v-456q0 -43 -32 -75.5t-75 -32.5z" />
    <glyph glyph-name="z" unicode="z" 
d="M413 475v-95q0 -30 18.5 -49t49.5 -19h932v-332h-977q-145 0 -250.5 105t-105.5 250v185q0 146 105.5 251.5t250.5 105.5h576q31 0 49.5 19t18.5 49v95q0 31 -18.5 49.5t-49.5 18.5h-932v333h977q145 0 250.5 -105.5t105.5 -250.5v-185q0 -145 -105.5 -250.5
t-250.5 -105.5h-576q-31 0 -49.5 -19t-18.5 -50zM373 475q0 43 32.5 76t75.5 33h576q133 0 224.5 91.5t91.5 224.5v185q0 133 -91.5 224.5t-224.5 91.5h-937v-253h892q43 0 75.5 -32.5t32.5 -75.5v-95q0 -43 -32.5 -75.5t-75.5 -32.5h-576q-133 0 -224.5 -92t-91.5 -225
v-185q0 -133 91.5 -224t224.5 -91h937v252h-892q-43 0 -75.5 32.5t-32.5 75.5v95z" />
    <glyph glyph-name="bar" unicode="|" horiz-adv-x="493" 
d="M80 -350v2120h333v-2120h-333zM120 -310h253v2040h-253v-2040z" />
    <glyph glyph-name="asciitilde" unicode="~" horiz-adv-x="1154" 
d="M821 877h253v-143q0 -93 -62.5 -166.5t-163.5 -93.5l-159 1q-80 5 -144.5 55t-88.5 126l-1 2q-9 35 -45 35h-30q-22 0 -34.5 -12.5t-12.5 -34.5v-102h-253v143q0 105 77 182t182 77l126 -1q79 -5 143.5 -54.5t89.5 -125.5v-2q10 -36 46 -36h30q22 0 34.5 12.5t12.5 34.5
v103zM861 837v-63q0 -34 -26.5 -60.5t-60.5 -26.5h-30q-28 0 -52 18.5t-31 44.5l-2 4q-21 66 -74 106.5t-122 45.5h-124q-92 0 -155.5 -63t-63.5 -156v-103h173v62q0 34 26.5 60.5t60.5 26.5h30q28 0 52 -18.5t31 -44.5q1 -3 2 -4q20 -66 73 -106.5t123 -44.5h146
q75 6 136 68.5t61 150.5v103h-173z" />
    <glyph glyph-name="exclamdown" unicode="&#xa1;" horiz-adv-x="493" 
d="M80 1018h333v-1037h-333v1037zM413 1110h-333v332h333v-332zM120 978v-957h253v957h-253zM373 1150v252h-253v-252h253z" />
    <glyph glyph-name="brokenbar" unicode="&#xa6;" horiz-adv-x="493" 
d="M80 770v912h333v-912h-333zM120 787h253v878h-253v-878zM80 -277v912h333v-912h-333zM120 -259h253v877h-253v-877z" />
    <glyph glyph-name="dieresis" unicode="&#xa8;" horiz-adv-x="849" 
d="M329 1607v208h-209v-208h209zM729 1607v208h-209v-208h209zM369 1567h-289v288h289v-288zM769 1567h-289v288h289v-288z" />
    <glyph glyph-name="guillemetleft" unicode="&#xab;" horiz-adv-x="2015" 
d="M1032 495v-373l-788 339q-73 31 -118.5 100t-45.5 149t45.5 149t118.5 100l788 339v-373l-500 -215zM992 468l-561 242l561 242v286l-732 -316q-65 -28 -102.5 -84.5t-37.5 -127.5t37.5 -127.5t102.5 -84.5l732 -315v285zM1935 495v-373l-788 339q-73 31 -118.5 100
t-45.5 149t45.5 149t118.5 100l788 339v-373l-500 -215zM1895 468l-561 242l561 242v286l-732 -316q-65 -28 -102.5 -84.5t-37.5 -127.5t37.5 -127.5t102.5 -84.5l732 -315v285z" />
    <glyph glyph-name="macron" unicode="&#xaf;" horiz-adv-x="949" 
d="M829 1607v208h-709v-208h709zM869 1567h-789v288h789v-288z" />
    <glyph glyph-name="plusminus" unicode="&#xb1;" horiz-adv-x="1124" 
d="M1044 1076v-332h-316v-316h-332v316h-316v332h316v316h332v-316h316zM1004 1036h-316v316h-252v-316h-316v-252h316v-316h252v316h316v252zM80 313h964v-333h-964v333zM120 273v-253h884v253h-884z" />
    <glyph glyph-name="periodcentered" unicode="&#xb7;" horiz-adv-x="449" 
d="M83 852h283v-282h-283v282zM117 818v-214h215v214h-215z" />
    <glyph glyph-name="periodcentered" unicode="&#x2219;" horiz-adv-x="449" 
d="M83 852h283v-282h-283v282zM117 818v-214h215v214h-215z" />
    <glyph glyph-name="guillemetright" unicode="&#xbb;" horiz-adv-x="2015" 
d="M80 495l500 215l-500 215v373l788 -339q73 -31 118.5 -100t45.5 -149t-45.5 -149t-118.5 -100l-788 -339v373zM120 468v-285l733 315q64 28 101.5 84.5t37.5 127.5t-37.5 127.5t-101.5 84.5l-733 316v-286l562 -242zM983 495l500 215l-500 215v373l788 -339
q73 -31 118.5 -100t45.5 -149t-45.5 -149t-118.5 -100l-788 -339v373zM1023 468v-285l732 315q65 28 102.5 84.5t37.5 127.5t-37.5 127.5t-102.5 84.5l-732 316v-286l561 -242z" />
    <glyph glyph-name="questiondown" unicode="&#xbf;" 
d="M1061 1110h-333v332h333v-332zM729 950v68h332v-123q0 -143 -103 -246t-246 -104h-227q-30 0 -51 -21t-21 -51v-87q0 -32 20 -52.5t52 -20.5h928v-332h-984q-143 0 -246 103.5t-103 245.5v198q0 143 103 246.5t246 103.5h227q30 0 51 21q22 22 22 51zM1021 1150v252h-253
v-252h253zM769 950q0 -46 -33 -79t-80 -33h-227q-130 0 -219.5 -90t-89.5 -220v-198q0 -130 89.5 -219.5t219.5 -89.5h944v252h-888q-44 0 -78 34t-34 79v87q0 46 33 79t79 33h227q130 1 219.5 90.5t89.5 219.5v83h-252v-28z" />
    <glyph glyph-name="Acircumflex" unicode="&#xc2;" 
d="M1013 1148q43 0 75 -32.5t32 -75.5v-475h-747v475q0 43 32.5 75.5t75.5 32.5h532zM413 272v-292h-333v1105q0 145 105 250.5t251 105.5h621q145 0 250.5 -105.5t105.5 -250.5v-1105h-333v292h-667zM1013 1108h-532q-31 0 -49.5 -18.5t-18.5 -49.5v-435h667v435
q0 31 -18.5 49.5t-48.5 18.5zM373 312h747v-292h253v1065q0 133 -91.5 224.5t-224.5 91.5h-621q-133 0 -224.5 -91.5t-91.5 -224.5v-1065h253v292zM654 1530h-326l207 328q28 43 86.5 70t125.5 27t125.5 -27t86.5 -70l207 -328h-326l-93 148zM631 1570l116 183l115 -183h231
l-168 267q-23 36 -70.5 57t-107.5 21t-107.5 -21t-70.5 -57l-169 -267h231z" />
    <glyph glyph-name="Atilde" unicode="&#xc3;" 
d="M1013 1148q43 0 75 -32.5t32 -75.5v-475h-747v475q0 43 32.5 75.5t75.5 32.5h532zM413 272v-292h-333v1105q0 145 105 250.5t251 105.5h621q145 0 250.5 -105.5t105.5 -250.5v-1105h-333v292h-667zM1013 1108h-532q-31 0 -49.5 -18.5t-18.5 -49.5v-435h667v435
q0 31 -18.5 49.5t-48.5 18.5zM373 312h747v-292h253v1065q0 133 -91.5 224.5t-224.5 91.5h-621q-133 0 -224.5 -91.5t-91.5 -224.5v-1065h253v292zM984 1565q94 0 157 49t63 121v78h-173v-46q0 -29 -27 -51t-60 -22h-30q-27 0 -51 14.5t-32 36.5l-1 4q-50 107 -197 119h-124
q-94 0 -156.5 -49t-62.5 -121v-78h173v46q0 29 27 51t60 22h30q27 0 51 -14.5t32 -36.5l1 -1v-3q50 -107 196 -119h124zM984 1525h-125q-80 5 -143 44t-90 102q0 13 -16.5 20.5t-29.5 7.5h-30q-46 0 -47 -33v-86h-253v118q0 87 77.5 148.5t181.5 61.5h125q80 -5 143 -44
t90 -102v1q10 -22 20.5 -25.5t56.5 -3.5t47 33v86h253v-118q0 -87 -78 -148.5t-182 -61.5z" />
    <glyph glyph-name="Adieresis" unicode="&#xc4;" 
d="M1013 1148q43 0 75 -32.5t32 -75.5v-475h-747v475q0 43 32.5 75.5t75.5 32.5h532zM413 272v-292h-333v1105q0 145 105 250.5t251 105.5h621q145 0 250.5 -105.5t105.5 -250.5v-1105h-333v292h-667zM1013 1108h-532q-31 0 -49.5 -18.5t-18.5 -49.5v-435h667v435
q0 31 -18.5 49.5t-48.5 18.5zM373 312h747v-292h253v1065q0 133 -91.5 224.5t-224.5 91.5h-621q-133 0 -224.5 -91.5t-91.5 -224.5v-1065h253v292zM651 1607v208h-209v-208h209zM1051 1607v208h-209v-208h209zM691 1567h-289v288h289v-288zM1091 1567h-289v288h289v-288z
" />
    <glyph glyph-name="AE" unicode="&#xc6;" horiz-adv-x="2500" 
d="M1080 605v435q0 29 -19.5 48.5t-47.5 19.5h-532q-29 0 -48.5 -19.5t-19.5 -48.5v-435h667zM2380 20v252h-893q-44 0 -76 32t-32 76v95q0 46 32 77t76 31q162 0 456.5 1t436.5 1v252h-893q-44 0 -76 32t-32 76v95q0 46 32 77t76 31h893v253h-938q-101 0 -192 -65
q-92 65 -193 65h-621q-131 0 -223.5 -92.5t-92.5 -223.5v-1065h253v292h747v-292h253v6q45 -6 69 -6h938zM1120 565h-747v475q0 46 31 77t77 31h532q45 0 76 -31t31 -77v-475zM2420 -20h-1340v292h-667v-292h-333v1105q0 149 104 252.5t252 103.5h621q114 0 193 -56
q77 56 192 56h978v-333h-933q-28 0 -48 -19.5t-20 -48.5v-95q0 -28 20 -48t48 -20h933v-332q-177 0 -477.5 -1t-455.5 -1q-28 0 -48 -19.5t-20 -48.5v-95q0 -28 20 -48t48 -20h933v-332z" />
    <glyph glyph-name="Ecircumflex" unicode="&#xca;" 
d="M413 945q0 -30 18.5 -49t49.5 -19h932v-332q-163 0 -472.5 -1t-459.5 -1q-31 0 -49.5 -18.5t-18.5 -49.5v-95q0 -30 18.5 -49t49.5 -19h932v-332h-977q-145 0 -250.5 105t-105.5 250v185q0 110 55 190q-55 80 -55 190v185q0 145 105 250.5t251 105.5h977v-333h-932
q-31 0 -49.5 -18.5t-18.5 -49.5v-95zM373 945v95q0 43 32.5 75.5t75.5 32.5h892v253h-937q-133 0 -224.5 -91.5t-91.5 -224.5v-185q0 -98 63 -190q-63 -92 -63 -190v-185q0 -133 91.5 -224t224.5 -91h937v252h-892q-43 0 -75.5 32.5t-32.5 75.5v95q0 43 32.5 75.5t75.5 32.5
q155 0 454.5 1t437.5 1v252h-892q-43 0 -75.5 32.5t-32.5 75.5zM754 1530h-326l207 328q28 43 86.5 70t125.5 27t125.5 -27t86.5 -70l207 -328h-326l-93 148zM731 1570l116 183l115 -183h231l-168 267q-23 36 -70.5 57t-107.5 21t-107.5 -21t-70.5 -57l-169 -267h231z" />
    <glyph glyph-name="Edieresis" unicode="&#xcb;" 
d="M413 945q0 -30 18.5 -49t49.5 -19h932v-332q-163 0 -472.5 -1t-459.5 -1q-31 0 -49.5 -18.5t-18.5 -49.5v-95q0 -30 18.5 -49t49.5 -19h932v-332h-977q-145 0 -250.5 105t-105.5 250v185q0 110 55 190q-55 80 -55 190v185q0 145 105 250.5t251 105.5h977v-333h-932
q-31 0 -49.5 -18.5t-18.5 -49.5v-95zM373 945v95q0 43 32.5 75.5t75.5 32.5h892v253h-937q-133 0 -224.5 -91.5t-91.5 -224.5v-185q0 -98 63 -190q-63 -92 -63 -190v-185q0 -133 91.5 -224t224.5 -91h937v252h-892q-43 0 -75.5 32.5t-32.5 75.5v95q0 43 32.5 75.5t75.5 32.5
q155 0 454.5 1t437.5 1v252h-892q-43 0 -75.5 32.5t-32.5 75.5zM751 1607v208h-209v-208h209zM1151 1607v208h-209v-208h209zM791 1567h-289v288h289v-288zM1191 1567h-289v288h289v-288z" />
    <glyph glyph-name="Icircumflex" unicode="&#xce;" horiz-adv-x="493" 
d="M80 -20v1461h333v-1461h-333zM120 20h253v1381h-253v-1381zM153 1530h-326l207 328q28 43 86.5 70t125.5 27t125.5 -27t86.5 -70l207 -328h-326l-93 148zM131 1570l115 183l115 -183h232l-169 267q-23 36 -70.5 57t-107.5 21t-107.5 -21t-70.5 -57l-168 -267h231z" />
    <glyph glyph-name="Idieresis" unicode="&#xcf;" horiz-adv-x="493" 
d="M80 -20v1461h333v-1461h-333zM120 20h253v1381h-253v-1381zM150 1607v208h-209v-208h209zM550 1607v208h-209v-208h209zM190 1567h-289v288h289v-288zM590 1567h-289v288h289v-288z" />
    <glyph glyph-name="Eth" unicode="&#xd0;" horiz-adv-x="1593" 
d="M1108 312q30 0 51 21t21 52v651q0 30 -21 51t-51 21h-595v-184h410v-244h-410v-368h595zM1164 20q128 0 218.5 90.5t90.5 218.5v763q0 128 -90.5 218.5t-218.5 90.5h-944v-517h-200v-164h200v-700h944zM1108 272h-635v448h410v164h-410v264h635q46 0 79 -33t33 -79v-651
q0 -48 -32.5 -80.5t-79.5 -32.5zM1164 -20h-984v700h-200v244h200v517h984q146 0 247.5 -101.5t101.5 -247.5v-763q0 -145 -101.5 -247t-247.5 -102z" />
    <glyph glyph-name="Ntilde" unicode="&#xd1;" horiz-adv-x="1626" 
d="M80 -20v1105q0 145 105.5 250.5t250.5 105.5h188q145 0 250 -105.5t105 -250.5v-705q0 -30 19 -49t49 -19h98q31 0 49.5 19t18.5 49v1061h333v-1106q0 -145 -105.5 -250t-250.5 -105h-188q-145 0 -250 105t-105 250v705q0 31 -18.5 49.5t-49.5 18.5h-98
q-31 0 -49.5 -18.5t-18.5 -49.5v-1060h-333zM120 20h253v1020q0 43 32.5 75.5t75.5 32.5h98q43 0 75.5 -32.5t32.5 -75.5v-705q0 -133 91 -224t224 -91h188q133 0 224.5 91t91.5 224v1066h-253v-1021q0 -42 -32.5 -75t-75.5 -33h-98q-42 0 -75 33t-33 75v705
q0 133 -91 224.5t-224 91.5h-188q-133 0 -224.5 -91.5t-91.5 -224.5v-1065zM1050 1565q94 0 157 49t63 121v78h-173v-46q0 -29 -27 -51t-60 -22h-30q-27 0 -51 14.5t-32 36.5l-1 4q-50 107 -197 119h-124q-94 0 -156.5 -49t-62.5 -121v-78h173v46q0 29 27 51t60 22h30
q27 0 51 -14.5t32 -36.5l1 -1v-3q50 -107 196 -119h124zM1050 1525h-125q-80 5 -143 44t-90 102q0 13 -16.5 20.5t-29.5 7.5h-30q-46 0 -47 -33v-86h-253v118q0 87 77.5 148.5t181.5 61.5h125q80 -5 143 -44t90 -102v1q10 -22 20.5 -25.5t56.5 -3.5t47 33v86h253v-118
q0 -87 -78 -148.5t-182 -61.5z" />
    <glyph glyph-name="Ocircumflex" unicode="&#xd4;" 
d="M1057 1441q145 0 250.5 -105.5t105.5 -250.5v-750q0 -145 -105.5 -250t-250.5 -105h-621q-145 0 -250.5 105t-105.5 250v750q0 145 105 250.5t251 105.5h621zM1120 1040v-660q0 -45 -31 -76q-32 -32 -77 -32h-531q-43 0 -77 32q-31 31 -31 76v660q0 43 32.5 75.5
t75.5 32.5h531q43 0 75.5 -32.5t32.5 -75.5zM1057 1401h-621q-133 0 -224.5 -91.5t-91.5 -224.5v-750q0 -133 91.5 -224t224.5 -91h621q133 0 224.5 91t91.5 224v750q0 133 -91.5 224.5t-224.5 91.5zM1080 1040q0 31 -18.5 49.5t-49.5 18.5h-531q-31 0 -49.5 -18.5
t-18.5 -49.5v-660q0 -28 20 -48t48 -20h531q27 0 49 20q19 20 19 48v660zM654 1530h-326l207 328q28 43 86.5 70t125.5 27t125.5 -27t86.5 -70l207 -328h-326l-93 148zM631 1570l116 183l115 -183h231l-168 267q-23 36 -70.5 57t-107.5 21t-107.5 -21t-70.5 -57l-169 -267
h231z" />
    <glyph glyph-name="Otilde" unicode="&#xd5;" 
d="M1057 1441q145 0 250.5 -105.5t105.5 -250.5v-750q0 -145 -105.5 -250t-250.5 -105h-621q-145 0 -250.5 105t-105.5 250v750q0 145 105 250.5t251 105.5h621zM1120 1040v-660q0 -45 -31 -76q-32 -32 -77 -32h-531q-43 0 -77 32q-31 31 -31 76v660q0 43 32.5 75.5
t75.5 32.5h531q43 0 75.5 -32.5t32.5 -75.5zM1057 1401h-621q-133 0 -224.5 -91.5t-91.5 -224.5v-750q0 -133 91.5 -224t224.5 -91h621q133 0 224.5 91t91.5 224v750q0 133 -91.5 224.5t-224.5 91.5zM1080 1040q0 31 -18.5 49.5t-49.5 18.5h-531q-31 0 -49.5 -18.5
t-18.5 -49.5v-660q0 -28 20 -48t48 -20h531q27 0 49 20q19 20 19 48v660zM984 1565q94 0 157 49t63 121v78h-173v-46q0 -29 -27 -51t-60 -22h-30q-27 0 -51 14.5t-32 36.5l-1 4q-50 107 -197 119h-124q-94 0 -156.5 -49t-62.5 -121v-78h173v46q0 29 27 51t60 22h30
q27 0 51 -14.5t32 -36.5l1 -1v-3q50 -107 196 -119h124zM984 1525h-125q-80 5 -143 44t-90 102q0 13 -16.5 20.5t-29.5 7.5h-30q-46 0 -47 -33v-86h-253v118q0 87 77.5 148.5t181.5 61.5h125q80 -5 143 -44t90 -102v1q10 -22 20.5 -25.5t56.5 -3.5t47 33v86h253v-118
q0 -87 -78 -148.5t-182 -61.5z" />
    <glyph glyph-name="Odieresis" unicode="&#xd6;" 
d="M1057 1441q145 0 250.5 -105.5t105.5 -250.5v-750q0 -145 -105.5 -250t-250.5 -105h-621q-145 0 -250.5 105t-105.5 250v750q0 145 105 250.5t251 105.5h621zM1120 1040v-660q0 -45 -31 -76q-32 -32 -77 -32h-531q-43 0 -77 32q-31 31 -31 76v660q0 43 32.5 75.5
t75.5 32.5h531q43 0 75.5 -32.5t32.5 -75.5zM1057 1401h-621q-133 0 -224.5 -91.5t-91.5 -224.5v-750q0 -133 91.5 -224t224.5 -91h621q133 0 224.5 91t91.5 224v750q0 133 -91.5 224.5t-224.5 91.5zM1080 1040q0 31 -18.5 49.5t-49.5 18.5h-531q-31 0 -49.5 -18.5
t-18.5 -49.5v-660q0 -28 20 -48t48 -20h531q27 0 49 20q19 20 19 48v660zM651 1607v208h-209v-208h209zM1051 1607v208h-209v-208h209zM691 1567h-289v288h289v-288zM1091 1567h-289v288h289v-288z" />
    <glyph glyph-name="multiply" unicode="&#xd7;" horiz-adv-x="1060" 
d="M753 308l179 179l-224 223l224 223l-179 179l-223 -224l-224 224l-178 -179l224 -223l-224 -223l178 -179l224 224zM753 252l-223 223l-224 -223l-234 235l223 223l-223 223l234 235l224 -223l223 223l235 -235l-223 -223l223 -223z" />
    <glyph glyph-name="Oslash" unicode="&#xd8;" 
d="M1012 312q28 0 48 19t20 49v637l-421 -705h353zM413 385l431 723h-363q-29 0 -48.5 -19.5t-19.5 -48.5v-655zM406 295q-33 54 -33 85v660q0 45 31.5 76.5t76.5 31.5h433zM1012 272h-423l506 848q25 -54 25 -80v-660q0 -46 -32 -77t-76 -31zM349 -131l90 151h618
q132 0 224 91.5t92 223.5v750q0 131 -93 223q-18 18 -49 42l111 185h-198l-79 -134h-629q-132 0 -224 -92t-92 -224v-750q0 -131 93 -223q22 -22 56 -46l-117 -197h197zM371 -171h-289l134 226q-18 15 -32 29q-104 104 -104 251v750q0 148 104 252t252 104h606l80 134h290
l-128 -215l25 -23q104 -106 104 -252v-750q0 -148 -104 -251.5t-252 -103.5h-596z" />
    <glyph glyph-name="Ucircumflex" unicode="&#xdb;" 
d="M1013 312q30 0 48.5 19t18.5 49v1061h333v-1106q0 -145 -105.5 -250t-250.5 -105h-621q-145 0 -250.5 105t-105.5 250v1106h333v-1061q0 -30 18.5 -49t49.5 -19h532zM1013 272h-532q-43 0 -75.5 32.5t-32.5 75.5v1021h-253v-1066q0 -133 91.5 -224t224.5 -91h621
q133 0 224.5 91t91.5 224v1066h-253v-1021q0 -42 -32.5 -75t-74.5 -33zM654 1530h-326l207 328q28 43 86.5 70t125.5 27t125.5 -27t86.5 -70l207 -328h-326l-93 148zM631 1570l116 183l115 -183h231l-168 267q-23 36 -70.5 57t-107.5 21t-107.5 -21t-70.5 -57l-169 -267h231
z" />
    <glyph glyph-name="Udieresis" unicode="&#xdc;" 
d="M1013 312q30 0 48.5 19t18.5 49v1061h333v-1106q0 -145 -105.5 -250t-250.5 -105h-621q-145 0 -250.5 105t-105.5 250v1106h333v-1061q0 -30 18.5 -49t49.5 -19h532zM1013 272h-532q-43 0 -75.5 32.5t-32.5 75.5v1021h-253v-1066q0 -133 91.5 -224t224.5 -91h621
q133 0 224.5 91t91.5 224v1066h-253v-1021q0 -42 -32.5 -75t-74.5 -33zM651 1607v208h-209v-208h209zM1051 1607v208h-209v-208h209zM691 1567h-289v288h289v-288zM1091 1567h-289v288h289v-288z" />
    <glyph glyph-name="Thorn" unicode="&#xde;" horiz-adv-x="1494" 
d="M373 -180v292h691q130 0 220 90t90 219v471q0 128 -90 218.5t-220 90.5h-691v200h-253v-1581h253zM1009 405q30 0 51 21t21 51v359q0 30 -21 51t-51 21h-596v-503h596zM413 -220h-333v1661h333v-200h651q147 0 248.5 -102t101.5 -247v-471q0 -145 -101.5 -247
t-248.5 -102h-651v-292zM1009 365h-636v583h636q47 0 79.5 -33t32.5 -79v-359q0 -47 -32.5 -79.5t-79.5 -32.5z" />
    <glyph glyph-name="acircumflex" unicode="&#xe2;" 
d="M1013 1148q43 0 75 -32.5t32 -75.5v-475h-747v475q0 43 32.5 75.5t75.5 32.5h532zM413 272v-292h-333v1105q0 145 105 250.5t251 105.5h621q145 0 250.5 -105.5t105.5 -250.5v-1105h-333v292h-667zM1013 1108h-532q-31 0 -49.5 -18.5t-18.5 -49.5v-435h667v435
q0 31 -18.5 49.5t-48.5 18.5zM373 312h747v-292h253v1065q0 133 -91.5 224.5t-224.5 91.5h-621q-133 0 -224.5 -91.5t-91.5 -224.5v-1065h253v292zM654 1530h-326l207 328q28 43 86.5 70t125.5 27t125.5 -27t86.5 -70l207 -328h-326l-93 148zM631 1570l116 183l115 -183h231
l-168 267q-23 36 -70.5 57t-107.5 21t-107.5 -21t-70.5 -57l-169 -267h231z" />
    <glyph glyph-name="atilde" unicode="&#xe3;" 
d="M1013 1148q43 0 75 -32.5t32 -75.5v-475h-747v475q0 43 32.5 75.5t75.5 32.5h532zM413 272v-292h-333v1105q0 145 105 250.5t251 105.5h621q145 0 250.5 -105.5t105.5 -250.5v-1105h-333v292h-667zM1013 1108h-532q-31 0 -49.5 -18.5t-18.5 -49.5v-435h667v435
q0 31 -18.5 49.5t-48.5 18.5zM373 312h747v-292h253v1065q0 133 -91.5 224.5t-224.5 91.5h-621q-133 0 -224.5 -91.5t-91.5 -224.5v-1065h253v292zM984 1565q94 0 157 49t63 121v78h-173v-46q0 -29 -27 -51t-60 -22h-30q-27 0 -51 14.5t-32 36.5l-1 4q-50 107 -197 119h-124
q-94 0 -156.5 -49t-62.5 -121v-78h173v46q0 29 27 51t60 22h30q27 0 51 -14.5t32 -36.5l1 -1v-3q50 -107 196 -119h124zM984 1525h-125q-80 5 -143 44t-90 102q0 13 -16.5 20.5t-29.5 7.5h-30q-46 0 -47 -33v-86h-253v118q0 87 77.5 148.5t181.5 61.5h125q80 -5 143 -44
t90 -102v1q10 -22 20.5 -25.5t56.5 -3.5t47 33v86h253v-118q0 -87 -78 -148.5t-182 -61.5z" />
    <glyph glyph-name="adieresis" unicode="&#xe4;" 
d="M1013 1148q43 0 75 -32.5t32 -75.5v-475h-747v475q0 43 32.5 75.5t75.5 32.5h532zM413 272v-292h-333v1105q0 145 105 250.5t251 105.5h621q145 0 250.5 -105.5t105.5 -250.5v-1105h-333v292h-667zM1013 1108h-532q-31 0 -49.5 -18.5t-18.5 -49.5v-435h667v435
q0 31 -18.5 49.5t-48.5 18.5zM373 312h747v-292h253v1065q0 133 -91.5 224.5t-224.5 91.5h-621q-133 0 -224.5 -91.5t-91.5 -224.5v-1065h253v292zM651 1607v208h-209v-208h209zM1051 1607v208h-209v-208h209zM691 1567h-289v288h289v-288zM1091 1567h-289v288h289v-288z
" />
    <glyph glyph-name="ae" unicode="&#xe6;" horiz-adv-x="2500" 
d="M1080 605v435q0 29 -19.5 48.5t-47.5 19.5h-532q-29 0 -48.5 -19.5t-19.5 -48.5v-435h667zM2380 20v252h-893q-44 0 -76 32t-32 76v95q0 46 32 77t76 31q162 0 456.5 1t436.5 1v252h-893q-44 0 -76 32t-32 76v95q0 46 32 77t76 31h893v253h-938q-101 0 -192 -65
q-92 65 -193 65h-621q-131 0 -223.5 -92.5t-92.5 -223.5v-1065h253v292h747v-292h253v6q45 -6 69 -6h938zM1120 565h-747v475q0 46 31 77t77 31h532q45 0 76 -31t31 -77v-475zM2420 -20h-1340v292h-667v-292h-333v1105q0 149 104 252.5t252 103.5h621q114 0 193 -56
q77 56 192 56h978v-333h-933q-28 0 -48 -19.5t-20 -48.5v-95q0 -28 20 -48t48 -20h933v-332q-177 0 -477.5 -1t-455.5 -1q-28 0 -48 -19.5t-20 -48.5v-95q0 -28 20 -48t48 -20h933v-332z" />
    <glyph glyph-name="ecircumflex" unicode="&#xea;" 
d="M413 945q0 -30 18.5 -49t49.5 -19h932v-332q-163 0 -472.5 -1t-459.5 -1q-31 0 -49.5 -18.5t-18.5 -49.5v-95q0 -30 18.5 -49t49.5 -19h932v-332h-977q-145 0 -250.5 105t-105.5 250v185q0 110 55 190q-55 80 -55 190v185q0 145 105 250.5t251 105.5h977v-333h-932
q-31 0 -49.5 -18.5t-18.5 -49.5v-95zM373 945v95q0 43 32.5 75.5t75.5 32.5h892v253h-937q-133 0 -224.5 -91.5t-91.5 -224.5v-185q0 -98 63 -190q-63 -92 -63 -190v-185q0 -133 91.5 -224t224.5 -91h937v252h-892q-43 0 -75.5 32.5t-32.5 75.5v95q0 43 32.5 75.5t75.5 32.5
q155 0 454.5 1t437.5 1v252h-892q-43 0 -75.5 32.5t-32.5 75.5zM754 1530h-326l207 328q28 43 86.5 70t125.5 27t125.5 -27t86.5 -70l207 -328h-326l-93 148zM731 1570l116 183l115 -183h231l-168 267q-23 36 -70.5 57t-107.5 21t-107.5 -21t-70.5 -57l-169 -267h231z" />
    <glyph glyph-name="edieresis" unicode="&#xeb;" 
d="M413 945q0 -30 18.5 -49t49.5 -19h932v-332q-163 0 -472.5 -1t-459.5 -1q-31 0 -49.5 -18.5t-18.5 -49.5v-95q0 -30 18.5 -49t49.5 -19h932v-332h-977q-145 0 -250.5 105t-105.5 250v185q0 110 55 190q-55 80 -55 190v185q0 145 105 250.5t251 105.5h977v-333h-932
q-31 0 -49.5 -18.5t-18.5 -49.5v-95zM373 945v95q0 43 32.5 75.5t75.5 32.5h892v253h-937q-133 0 -224.5 -91.5t-91.5 -224.5v-185q0 -98 63 -190q-63 -92 -63 -190v-185q0 -133 91.5 -224t224.5 -91h937v252h-892q-43 0 -75.5 32.5t-32.5 75.5v95q0 43 32.5 75.5t75.5 32.5
q155 0 454.5 1t437.5 1v252h-892q-43 0 -75.5 32.5t-32.5 75.5zM751 1607v208h-209v-208h209zM1151 1607v208h-209v-208h209zM791 1567h-289v288h289v-288zM1191 1567h-289v288h289v-288z" />
    <glyph glyph-name="icircumflex" unicode="&#xee;" horiz-adv-x="493" 
d="M80 -20v1461h333v-1461h-333zM120 20h253v1381h-253v-1381zM153 1530h-326l207 328q28 43 86.5 70t125.5 27t125.5 -27t86.5 -70l207 -328h-326l-93 148zM131 1570l115 183l115 -183h232l-169 267q-23 36 -70.5 57t-107.5 21t-107.5 -21t-70.5 -57l-168 -267h231z" />
    <glyph glyph-name="idieresis" unicode="&#xef;" horiz-adv-x="493" 
d="M80 -20v1461h333v-1461h-333zM120 20h253v1381h-253v-1381zM150 1607v208h-209v-208h209zM550 1607v208h-209v-208h209zM190 1567h-289v288h289v-288zM590 1567h-289v288h289v-288z" />
    <glyph glyph-name="eth" unicode="&#xf0;" horiz-adv-x="1593" 
d="M1108 312q30 0 51 21t21 52v651q0 30 -21 51t-51 21h-595v-184h410v-244h-410v-368h595zM1164 20q128 0 218.5 90.5t90.5 218.5v763q0 128 -90.5 218.5t-218.5 90.5h-944v-517h-200v-164h200v-700h944zM1108 272h-635v448h410v164h-410v264h635q46 0 79 -33t33 -79v-651
q0 -48 -32.5 -80.5t-79.5 -32.5zM1164 -20h-984v700h-200v244h200v517h984q146 0 247.5 -101.5t101.5 -247.5v-763q0 -145 -101.5 -247t-247.5 -102z" />
    <glyph glyph-name="ntilde" unicode="&#xf1;" horiz-adv-x="1626" 
d="M80 -20v1105q0 145 105.5 250.5t250.5 105.5h188q145 0 250 -105.5t105 -250.5v-705q0 -30 19 -49t49 -19h98q31 0 49.5 19t18.5 49v1061h333v-1106q0 -145 -105.5 -250t-250.5 -105h-188q-145 0 -250 105t-105 250v705q0 31 -18.5 49.5t-49.5 18.5h-98
q-31 0 -49.5 -18.5t-18.5 -49.5v-1060h-333zM120 20h253v1020q0 43 32.5 75.5t75.5 32.5h98q43 0 75.5 -32.5t32.5 -75.5v-705q0 -133 91 -224t224 -91h188q133 0 224.5 91t91.5 224v1066h-253v-1021q0 -42 -32.5 -75t-75.5 -33h-98q-42 0 -75 33t-33 75v705
q0 133 -91 224.5t-224 91.5h-188q-133 0 -224.5 -91.5t-91.5 -224.5v-1065zM1050 1565q94 0 157 49t63 121v78h-173v-46q0 -29 -27 -51t-60 -22h-30q-27 0 -51 14.5t-32 36.5l-1 4q-50 107 -197 119h-124q-94 0 -156.5 -49t-62.5 -121v-78h173v46q0 29 27 51t60 22h30
q27 0 51 -14.5t32 -36.5l1 -1v-3q50 -107 196 -119h124zM1050 1525h-125q-80 5 -143 44t-90 102q0 13 -16.5 20.5t-29.5 7.5h-30q-46 0 -47 -33v-86h-253v118q0 87 77.5 148.5t181.5 61.5h125q80 -5 143 -44t90 -102v1q10 -22 20.5 -25.5t56.5 -3.5t47 33v86h253v-118
q0 -87 -78 -148.5t-182 -61.5z" />
    <glyph glyph-name="ocircumflex" unicode="&#xf4;" 
d="M1057 1441q145 0 250.5 -105.5t105.5 -250.5v-750q0 -145 -105.5 -250t-250.5 -105h-621q-145 0 -250.5 105t-105.5 250v750q0 145 105 250.5t251 105.5h621zM1120 1040v-660q0 -45 -31 -76q-32 -32 -77 -32h-531q-43 0 -77 32q-31 31 -31 76v660q0 43 32.5 75.5
t75.5 32.5h531q43 0 75.5 -32.5t32.5 -75.5zM1057 1401h-621q-133 0 -224.5 -91.5t-91.5 -224.5v-750q0 -133 91.5 -224t224.5 -91h621q133 0 224.5 91t91.5 224v750q0 133 -91.5 224.5t-224.5 91.5zM1080 1040q0 31 -18.5 49.5t-49.5 18.5h-531q-31 0 -49.5 -18.5
t-18.5 -49.5v-660q0 -28 20 -48t48 -20h531q27 0 49 20q19 20 19 48v660zM654 1530h-326l207 328q28 43 86.5 70t125.5 27t125.5 -27t86.5 -70l207 -328h-326l-93 148zM631 1570l116 183l115 -183h231l-168 267q-23 36 -70.5 57t-107.5 21t-107.5 -21t-70.5 -57l-169 -267
h231z" />
    <glyph glyph-name="otilde" unicode="&#xf5;" 
d="M1057 1441q145 0 250.5 -105.5t105.5 -250.5v-750q0 -145 -105.5 -250t-250.5 -105h-621q-145 0 -250.5 105t-105.5 250v750q0 145 105 250.5t251 105.5h621zM1120 1040v-660q0 -45 -31 -76q-32 -32 -77 -32h-531q-43 0 -77 32q-31 31 -31 76v660q0 43 32.5 75.5
t75.5 32.5h531q43 0 75.5 -32.5t32.5 -75.5zM1057 1401h-621q-133 0 -224.5 -91.5t-91.5 -224.5v-750q0 -133 91.5 -224t224.5 -91h621q133 0 224.5 91t91.5 224v750q0 133 -91.5 224.5t-224.5 91.5zM1080 1040q0 31 -18.5 49.5t-49.5 18.5h-531q-31 0 -49.5 -18.5
t-18.5 -49.5v-660q0 -28 20 -48t48 -20h531q27 0 49 20q19 20 19 48v660zM984 1565q94 0 157 49t63 121v78h-173v-46q0 -29 -27 -51t-60 -22h-30q-27 0 -51 14.5t-32 36.5l-1 4q-50 107 -197 119h-124q-94 0 -156.5 -49t-62.5 -121v-78h173v46q0 29 27 51t60 22h30
q27 0 51 -14.5t32 -36.5l1 -1v-3q50 -107 196 -119h124zM984 1525h-125q-80 5 -143 44t-90 102q0 13 -16.5 20.5t-29.5 7.5h-30q-46 0 -47 -33v-86h-253v118q0 87 77.5 148.5t181.5 61.5h125q80 -5 143 -44t90 -102v1q10 -22 20.5 -25.5t56.5 -3.5t47 33v86h253v-118
q0 -87 -78 -148.5t-182 -61.5z" />
    <glyph glyph-name="odieresis" unicode="&#xf6;" 
d="M1057 1441q145 0 250.5 -105.5t105.5 -250.5v-750q0 -145 -105.5 -250t-250.5 -105h-621q-145 0 -250.5 105t-105.5 250v750q0 145 105 250.5t251 105.5h621zM1120 1040v-660q0 -45 -31 -76q-32 -32 -77 -32h-531q-43 0 -77 32q-31 31 -31 76v660q0 43 32.5 75.5
t75.5 32.5h531q43 0 75.5 -32.5t32.5 -75.5zM1057 1401h-621q-133 0 -224.5 -91.5t-91.5 -224.5v-750q0 -133 91.5 -224t224.5 -91h621q133 0 224.5 91t91.5 224v750q0 133 -91.5 224.5t-224.5 91.5zM1080 1040q0 31 -18.5 49.5t-49.5 18.5h-531q-31 0 -49.5 -18.5
t-18.5 -49.5v-660q0 -28 20 -48t48 -20h531q27 0 49 20q19 20 19 48v660zM651 1607v208h-209v-208h209zM1051 1607v208h-209v-208h209zM691 1567h-289v288h289v-288zM1091 1567h-289v288h289v-288z" />
    <glyph glyph-name="divide" unicode="&#xf7;" horiz-adv-x="1124" 
d="M688 168v252h-252v-252h252zM688 1000v252h-252v-252h252zM1004 584v252h-884v-252h884zM728 128h-332v332h332v-332zM728 960h-332v332h332v-332zM1044 544h-964v332h964v-332z" />
    <glyph glyph-name="oslash" unicode="&#xf8;" 
d="M1012 312q28 0 48 19t20 49v637l-421 -705h353zM413 385l431 723h-363q-29 0 -48.5 -19.5t-19.5 -48.5v-655zM406 295q-33 54 -33 85v660q0 45 31.5 76.5t76.5 31.5h433zM1012 272h-423l506 848q25 -54 25 -80v-660q0 -46 -32 -77t-76 -31zM349 -131l90 151h618
q132 0 224 91.5t92 223.5v750q0 131 -93 223q-18 18 -49 42l111 185h-198l-79 -134h-629q-132 0 -224 -92t-92 -224v-750q0 -131 93 -223q22 -22 56 -46l-117 -197h197zM371 -171h-289l134 226q-18 15 -32 29q-104 104 -104 251v750q0 148 104 252t252 104h606l80 134h290
l-128 -215l25 -23q104 -106 104 -252v-750q0 -148 -104 -251.5t-252 -103.5h-596z" />
    <glyph glyph-name="ucircumflex" unicode="&#xfb;" 
d="M1013 312q30 0 48.5 19t18.5 49v1061h333v-1106q0 -145 -105.5 -250t-250.5 -105h-621q-145 0 -250.5 105t-105.5 250v1106h333v-1061q0 -30 18.5 -49t49.5 -19h532zM1013 272h-532q-43 0 -75.5 32.5t-32.5 75.5v1021h-253v-1066q0 -133 91.5 -224t224.5 -91h621
q133 0 224.5 91t91.5 224v1066h-253v-1021q0 -42 -32.5 -75t-74.5 -33zM654 1530h-326l207 328q28 43 86.5 70t125.5 27t125.5 -27t86.5 -70l207 -328h-326l-93 148zM631 1570l116 183l115 -183h231l-168 267q-23 36 -70.5 57t-107.5 21t-107.5 -21t-70.5 -57l-169 -267h231
z" />
    <glyph glyph-name="udieresis" unicode="&#xfc;" 
d="M1013 312q30 0 48.5 19t18.5 49v1061h333v-1106q0 -145 -105.5 -250t-250.5 -105h-621q-145 0 -250.5 105t-105.5 250v1106h333v-1061q0 -30 18.5 -49t49.5 -19h532zM1013 272h-532q-43 0 -75.5 32.5t-32.5 75.5v1021h-253v-1066q0 -133 91.5 -224t224.5 -91h621
q133 0 224.5 91t91.5 224v1066h-253v-1021q0 -42 -32.5 -75t-74.5 -33zM651 1607v208h-209v-208h209zM1051 1607v208h-209v-208h209zM691 1567h-289v288h289v-288zM1091 1567h-289v288h289v-288z" />
    <glyph glyph-name="thorn" unicode="&#xfe;" horiz-adv-x="1494" 
d="M373 -180v292h691q130 0 220 90t90 219v471q0 128 -90 218.5t-220 90.5h-691v200h-253v-1581h253zM1009 405q30 0 51 21t21 51v359q0 30 -21 51t-51 21h-596v-503h596zM413 -220h-333v1661h333v-200h651q147 0 248.5 -102t101.5 -247v-471q0 -145 -101.5 -247
t-248.5 -102h-651v-292zM1009 365h-636v583h636q47 0 79.5 -33t32.5 -79v-359q0 -47 -32.5 -79.5t-79.5 -32.5z" />
    <glyph glyph-name="ydieresis" unicode="&#xff;" 
d="M1013 877q30 0 48.5 18.5t18.5 49.5v496h333v-541q0 -146 -105.5 -251t-250.5 -105h-144v-564h-333v564h-144q-146 0 -251 105t-105 251v541h333v-496q0 -31 18.5 -49.5t49.5 -18.5h532zM1013 837h-532q-43 0 -75.5 32.5t-32.5 75.5v456h-253v-501q0 -133 91.5 -224.5
t224.5 -91.5h184v-564h253v564h184q133 0 224.5 91t91.5 225v501h-253v-456q0 -43 -32 -75.5t-75 -32.5zM651 1607v208h-209v-208h209zM1051 1607v208h-209v-208h209zM691 1567h-289v288h289v-288zM1091 1567h-289v288h289v-288z" />
    <glyph glyph-name="Amacron" unicode="&#x100;" 
d="M1013 1148q43 0 75 -32.5t32 -75.5v-475h-747v475q0 43 32.5 75.5t75.5 32.5h532zM413 272v-292h-333v1105q0 145 105 250.5t251 105.5h621q145 0 250.5 -105.5t105.5 -250.5v-1105h-333v292h-667zM1013 1108h-532q-31 0 -49.5 -18.5t-18.5 -49.5v-435h667v435
q0 31 -18.5 49.5t-48.5 18.5zM373 312h747v-292h253v1065q0 133 -91.5 224.5t-224.5 91.5h-621q-133 0 -224.5 -91.5t-91.5 -224.5v-1065h253v292zM1101 1607v208h-709v-208h709zM1141 1567h-789v288h789v-288z" />
    <glyph glyph-name="amacron" unicode="&#x101;" 
d="M1013 1148q43 0 75 -32.5t32 -75.5v-475h-747v475q0 43 32.5 75.5t75.5 32.5h532zM413 272v-292h-333v1105q0 145 105 250.5t251 105.5h621q145 0 250.5 -105.5t105.5 -250.5v-1105h-333v292h-667zM1013 1108h-532q-31 0 -49.5 -18.5t-18.5 -49.5v-435h667v435
q0 31 -18.5 49.5t-48.5 18.5zM373 312h747v-292h253v1065q0 133 -91.5 224.5t-224.5 91.5h-621q-133 0 -224.5 -91.5t-91.5 -224.5v-1065h253v292zM1101 1607v208h-709v-208h709zM1141 1567h-789v288h789v-288z" />
    <glyph glyph-name="Ccircumflex" unicode="&#x108;" 
d="M413 1040v-660q0 -28 20 -48t48 -20h932v-332h-977q-145 0 -250.5 105t-105.5 250v750q0 145 105 250.5t251 105.5h977v-333h-932q-31 0 -49.5 -18.5t-18.5 -49.5zM373 1040q0 43 32.5 75.5t75.5 32.5h892v253h-937q-133 0 -224.5 -91.5t-91.5 -224.5v-750
q0 -133 91.5 -224t224.5 -91h937v252h-892q-43 0 -77 32q-31 31 -31 76v660zM770 1530h-326l207 328q28 43 86.5 70t125.5 27t125.5 -27t86.5 -70l207 -328h-326l-93 148zM747 1570l116 183l115 -183h231l-168 267q-23 36 -70.5 57t-107.5 21t-107.5 -21t-70.5 -57
l-169 -267h231z" />
    <glyph glyph-name="ccircumflex" unicode="&#x109;" 
d="M413 1040v-660q0 -28 20 -48t48 -20h932v-332h-977q-145 0 -250.5 105t-105.5 250v750q0 145 105 250.5t251 105.5h977v-333h-932q-31 0 -49.5 -18.5t-18.5 -49.5zM373 1040q0 43 32.5 75.5t75.5 32.5h892v253h-937q-133 0 -224.5 -91.5t-91.5 -224.5v-750
q0 -133 91.5 -224t224.5 -91h937v252h-892q-43 0 -77 32q-31 31 -31 76v660zM770 1530h-326l207 328q28 43 86.5 70t125.5 27t125.5 -27t86.5 -70l207 -328h-326l-93 148zM747 1570l116 183l115 -183h231l-168 267q-23 36 -70.5 57t-107.5 21t-107.5 -21t-70.5 -57
l-169 -267h231z" />
    <glyph glyph-name="Cdotaccent" unicode="&#x10a;" 
d="M413 1040v-660q0 -28 20 -48t48 -20h932v-332h-977q-145 0 -250.5 105t-105.5 250v750q0 145 105 250.5t251 105.5h977v-333h-932q-31 0 -49.5 -18.5t-18.5 -49.5zM373 1040q0 43 32.5 75.5t75.5 32.5h892v253h-937q-133 0 -224.5 -91.5t-91.5 -224.5v-750
q0 -133 91.5 -224t224.5 -91h937v252h-892q-43 0 -77 32q-31 31 -31 76v660zM967 1607v208h-209v-208h209zM1007 1567h-289v288h289v-288z" />
    <glyph glyph-name="cdotaccent" unicode="&#x10b;" 
d="M413 1040v-660q0 -28 20 -48t48 -20h932v-332h-977q-145 0 -250.5 105t-105.5 250v750q0 145 105 250.5t251 105.5h977v-333h-932q-31 0 -49.5 -18.5t-18.5 -49.5zM373 1040q0 43 32.5 75.5t75.5 32.5h892v253h-937q-133 0 -224.5 -91.5t-91.5 -224.5v-750
q0 -133 91.5 -224t224.5 -91h937v252h-892q-43 0 -77 32q-31 31 -31 76v660zM967 1607v208h-209v-208h209zM1007 1567h-289v288h289v-288z" />
    <glyph glyph-name="Ccaron" unicode="&#x10c;" 
d="M863 1470q121 0 178 78l168 267h-231l-115 -183l-116 183h-231l169 -267q57 -78 178 -78zM1373 20v252h-892q-45 0 -76.5 32t-31.5 76v660q0 44 32.5 76t75.5 32h892v253h-937q-134 0 -225 -91.5t-91 -224.5v-750q0 -133 91 -224t225 -91h937zM1413 -20h-977
q-149 0 -252.5 106t-103.5 249v750q0 147 105 251.5t251 104.5h344q-90 26 -129 86l-207 328h326l93 -148l93 148h326l-207 -328q-39 -60 -129 -86h467v-333h-932q-31 0 -49.5 -18.5t-18.5 -49.5v-660q0 -28 19.5 -48t48.5 -20h932v-332z" />
    <glyph glyph-name="ccaron" unicode="&#x10d;" 
d="M863 1470q121 0 178 78l168 267h-231l-115 -183l-116 183h-231l169 -267q57 -78 178 -78zM1373 20v252h-892q-45 0 -76.5 32t-31.5 76v660q0 44 32.5 76t75.5 32h892v253h-937q-134 0 -225 -91.5t-91 -224.5v-750q0 -133 91 -224t225 -91h937zM1413 -20h-977
q-149 0 -252.5 106t-103.5 249v750q0 147 105 251.5t251 104.5h344q-90 26 -129 86l-207 328h326l93 -148l93 148h326l-207 -328q-39 -60 -129 -86h467v-333h-932q-31 0 -49.5 -18.5t-18.5 -49.5v-660q0 -28 19.5 -48t48.5 -20h932v-332z" />
    <glyph glyph-name="Dcaron" unicode="&#x10e;" 
d="M1008 312q32 0 52 20.5t20 52.5v651q0 32 -20 52t-52 20h-595v-796h595zM1008 272h-635v876h635q45 0 78.5 -34t33.5 -78v-651q0 -45 -33.5 -79t-78.5 -34zM746 1470q121 0 178 78l168 267h-231l-115 -183l-116 183h-231l169 -267q57 -78 178 -78zM1064 20
q130 0 219.5 89t89.5 220v763q0 130 -89.5 219.5t-219.5 89.5h-944v-1381h944zM1064 -20h-984v1461h583q-90 26 -129 86l-207 328h326l93 -148l93 148h326l-207 -328q-39 -60 -129 -86h235q146 0 247.5 -103.5t101.5 -245.5v-763q0 -146 -103.5 -247.5t-245.5 -101.5z" />
    <glyph glyph-name="dcaron" unicode="&#x10f;" 
d="M1008 312q32 0 52 20.5t20 52.5v651q0 32 -20 52t-52 20h-595v-796h595zM1008 272h-635v876h635q45 0 78.5 -34t33.5 -78v-651q0 -45 -33.5 -79t-78.5 -34zM746 1470q121 0 178 78l168 267h-231l-115 -183l-116 183h-231l169 -267q57 -78 178 -78zM1064 20
q130 0 219.5 89t89.5 220v763q0 130 -89.5 219.5t-219.5 89.5h-944v-1381h944zM1064 -20h-984v1461h583q-90 26 -129 86l-207 328h326l93 -148l93 148h326l-207 -328q-39 -60 -129 -86h235q146 0 247.5 -103.5t101.5 -245.5v-763q0 -146 -103.5 -247.5t-245.5 -101.5z" />
    <glyph glyph-name="Dcroat" unicode="&#x110;" horiz-adv-x="1593" 
d="M1108 312q30 0 51 21t21 52v651q0 30 -21 51t-51 21h-595v-184h410v-244h-410v-368h595zM1164 20q128 0 218.5 90.5t90.5 218.5v763q0 128 -90.5 218.5t-218.5 90.5h-944v-517h-200v-164h200v-700h944zM1108 272h-635v448h410v164h-410v264h635q46 0 79 -33t33 -79v-651
q0 -48 -32.5 -80.5t-79.5 -32.5zM1164 -20h-984v700h-200v244h200v517h984q146 0 247.5 -101.5t101.5 -247.5v-763q0 -145 -101.5 -247t-247.5 -102z" />
    <glyph glyph-name="dcroat" unicode="&#x111;" horiz-adv-x="1593" 
d="M1108 312q30 0 51 21t21 52v651q0 30 -21 51t-51 21h-595v-184h410v-244h-410v-368h595zM1164 20q128 0 218.5 90.5t90.5 218.5v763q0 128 -90.5 218.5t-218.5 90.5h-944v-517h-200v-164h200v-700h944zM1108 272h-635v448h410v164h-410v264h635q46 0 79 -33t33 -79v-651
q0 -48 -32.5 -80.5t-79.5 -32.5zM1164 -20h-984v700h-200v244h200v517h984q146 0 247.5 -101.5t101.5 -247.5v-763q0 -145 -101.5 -247t-247.5 -102z" />
    <glyph glyph-name="Emacron" unicode="&#x112;" 
d="M413 945q0 -30 18.5 -49t49.5 -19h932v-332q-163 0 -472.5 -1t-459.5 -1q-31 0 -49.5 -18.5t-18.5 -49.5v-95q0 -30 18.5 -49t49.5 -19h932v-332h-977q-145 0 -250.5 105t-105.5 250v185q0 110 55 190q-55 80 -55 190v185q0 145 105 250.5t251 105.5h977v-333h-932
q-31 0 -49.5 -18.5t-18.5 -49.5v-95zM373 945v95q0 43 32.5 75.5t75.5 32.5h892v253h-937q-133 0 -224.5 -91.5t-91.5 -224.5v-185q0 -98 63 -190q-63 -92 -63 -190v-185q0 -133 91.5 -224t224.5 -91h937v252h-892q-43 0 -75.5 32.5t-32.5 75.5v95q0 43 32.5 75.5t75.5 32.5
q155 0 454.5 1t437.5 1v252h-892q-43 0 -75.5 32.5t-32.5 75.5zM1201 1607v208h-709v-208h709zM1241 1567h-789v288h789v-288z" />
    <glyph glyph-name="emacron" unicode="&#x113;" 
d="M413 945q0 -30 18.5 -49t49.5 -19h932v-332q-163 0 -472.5 -1t-459.5 -1q-31 0 -49.5 -18.5t-18.5 -49.5v-95q0 -30 18.5 -49t49.5 -19h932v-332h-977q-145 0 -250.5 105t-105.5 250v185q0 110 55 190q-55 80 -55 190v185q0 145 105 250.5t251 105.5h977v-333h-932
q-31 0 -49.5 -18.5t-18.5 -49.5v-95zM373 945v95q0 43 32.5 75.5t75.5 32.5h892v253h-937q-133 0 -224.5 -91.5t-91.5 -224.5v-185q0 -98 63 -190q-63 -92 -63 -190v-185q0 -133 91.5 -224t224.5 -91h937v252h-892q-43 0 -75.5 32.5t-32.5 75.5v95q0 43 32.5 75.5t75.5 32.5
q155 0 454.5 1t437.5 1v252h-892q-43 0 -75.5 32.5t-32.5 75.5zM1201 1607v208h-709v-208h709zM1241 1567h-789v288h789v-288z" />
    <glyph glyph-name="Edotaccent" unicode="&#x116;" 
d="M413 945q0 -30 18.5 -49t49.5 -19h932v-332q-163 0 -472.5 -1t-459.5 -1q-31 0 -49.5 -18.5t-18.5 -49.5v-95q0 -30 18.5 -49t49.5 -19h932v-332h-977q-145 0 -250.5 105t-105.5 250v185q0 110 55 190q-55 80 -55 190v185q0 145 105 250.5t251 105.5h977v-333h-932
q-31 0 -49.5 -18.5t-18.5 -49.5v-95zM373 945v95q0 43 32.5 75.5t75.5 32.5h892v253h-937q-133 0 -224.5 -91.5t-91.5 -224.5v-185q0 -98 63 -190q-63 -92 -63 -190v-185q0 -133 91.5 -224t224.5 -91h937v252h-892q-43 0 -75.5 32.5t-32.5 75.5v95q0 43 32.5 75.5t75.5 32.5
q155 0 454.5 1t437.5 1v252h-892q-43 0 -75.5 32.5t-32.5 75.5zM951 1607v208h-209v-208h209zM991 1567h-289v288h289v-288z" />
    <glyph glyph-name="edotaccent" unicode="&#x117;" 
d="M413 945q0 -30 18.5 -49t49.5 -19h932v-332q-163 0 -472.5 -1t-459.5 -1q-31 0 -49.5 -18.5t-18.5 -49.5v-95q0 -30 18.5 -49t49.5 -19h932v-332h-977q-145 0 -250.5 105t-105.5 250v185q0 110 55 190q-55 80 -55 190v185q0 145 105 250.5t251 105.5h977v-333h-932
q-31 0 -49.5 -18.5t-18.5 -49.5v-95zM373 945v95q0 43 32.5 75.5t75.5 32.5h892v253h-937q-133 0 -224.5 -91.5t-91.5 -224.5v-185q0 -98 63 -190q-63 -92 -63 -190v-185q0 -133 91.5 -224t224.5 -91h937v252h-892q-43 0 -75.5 32.5t-32.5 75.5v95q0 43 32.5 75.5t75.5 32.5
q155 0 454.5 1t437.5 1v252h-892q-43 0 -75.5 32.5t-32.5 75.5zM951 1607v208h-209v-208h209zM991 1567h-289v288h289v-288z" />
    <glyph glyph-name="Ecaron" unicode="&#x11a;" 
d="M847 1470q121 0 178 78l168 267h-231l-115 -183l-116 183h-231l169 -267q57 -78 178 -78zM1373 20v252h-892q-43 0 -75.5 33t-32.5 75v95q0 43 32.5 75.5t75.5 32.5q180 0 892 2v252h-892q-43 0 -75.5 32.5t-32.5 75.5v95q0 44 32.5 76t75.5 32h892v253h-937
q-134 0 -225 -91.5t-91 -224.5v-185q0 -101 63 -190q-63 -88 -63 -190v-185q0 -133 91 -224t225 -91h937zM1413 -20h-977q-149 0 -252.5 106t-103.5 249v185q0 111 55 190q-55 81 -55 190v185q0 147 105 251.5t251 104.5h328q-90 26 -129 86l-207 328h326l93 -148l93 148
h326l-207 -328q-39 -60 -129 -86h483v-333h-932q-31 0 -49.5 -18.5t-18.5 -49.5v-95q0 -29 18.5 -48.5t49.5 -19.5h932v-332q-173 0 -479 -1t-453 -1q-31 0 -49.5 -18.5t-18.5 -49.5v-95q0 -29 18.5 -48.5t49.5 -19.5h932v-332z" />
    <glyph glyph-name="ecaron" unicode="&#x11b;" 
d="M847 1470q121 0 178 78l168 267h-231l-115 -183l-116 183h-231l169 -267q57 -78 178 -78zM1373 20v252h-892q-43 0 -75.5 33t-32.5 75v95q0 43 32.5 75.5t75.5 32.5q180 0 892 2v252h-892q-43 0 -75.5 32.5t-32.5 75.5v95q0 44 32.5 76t75.5 32h892v253h-937
q-134 0 -225 -91.5t-91 -224.5v-185q0 -101 63 -190q-63 -88 -63 -190v-185q0 -133 91 -224t225 -91h937zM1413 -20h-977q-149 0 -252.5 106t-103.5 249v185q0 111 55 190q-55 81 -55 190v185q0 147 105 251.5t251 104.5h328q-90 26 -129 86l-207 328h326l93 -148l93 148
h326l-207 -328q-39 -60 -129 -86h483v-333h-932q-31 0 -49.5 -18.5t-18.5 -49.5v-95q0 -29 18.5 -48.5t49.5 -19.5h932v-332q-173 0 -479 -1t-453 -1q-31 0 -49.5 -18.5t-18.5 -49.5v-95q0 -29 18.5 -48.5t49.5 -19.5h932v-332z" />
    <glyph glyph-name="Gcircumflex" unicode="&#x11c;" 
d="M413 1040v-660q0 -28 20 -48t48 -20h599v164q0 30 -19 49t-49 19h-439v333h484q145 0 250.5 -105.5t105.5 -250.5v-541h-977q-145 0 -250.5 105t-105.5 250v750q0 145 105 250.5t251 105.5h958v-333h-913q-31 0 -49.5 -18.5t-18.5 -49.5zM373 1040q0 43 32.5 75.5
t75.5 32.5h873v253h-918q-133 0 -224.5 -91.5t-91.5 -224.5v-750q0 -133 91.5 -224t224.5 -91h937v501q0 133 -91.5 224.5t-224.5 91.5h-444v-253h399q43 0 75.5 -32.5t32.5 -75.5v-204h-639q-43 0 -77 32q-31 31 -31 76v660zM753 1530h-326l207 328q28 43 86.5 70t125.5 27
t125.5 -27t86.5 -70l207 -328h-326l-93 148zM730 1570l116 183l115 -183h231l-168 267q-23 36 -70.5 57t-107.5 21t-107.5 -21t-70.5 -57l-169 -267h231z" />
    <glyph glyph-name="gcircumflex" unicode="&#x11d;" 
d="M413 1040v-660q0 -28 20 -48t48 -20h599v164q0 30 -19 49t-49 19h-439v333h484q145 0 250.5 -105.5t105.5 -250.5v-541h-977q-145 0 -250.5 105t-105.5 250v750q0 145 105 250.5t251 105.5h958v-333h-913q-31 0 -49.5 -18.5t-18.5 -49.5zM373 1040q0 43 32.5 75.5
t75.5 32.5h873v253h-918q-133 0 -224.5 -91.5t-91.5 -224.5v-750q0 -133 91.5 -224t224.5 -91h937v501q0 133 -91.5 224.5t-224.5 91.5h-444v-253h399q43 0 75.5 -32.5t32.5 -75.5v-204h-639q-43 0 -77 32q-31 31 -31 76v660zM753 1530h-326l207 328q28 43 86.5 70t125.5 27
t125.5 -27t86.5 -70l207 -328h-326l-93 148zM730 1570l116 183l115 -183h231l-168 267q-23 36 -70.5 57t-107.5 21t-107.5 -21t-70.5 -57l-169 -267h231z" />
    <glyph glyph-name="Gdotaccent" unicode="&#x120;" 
d="M413 1040v-660q0 -28 20 -48t48 -20h599v164q0 30 -19 49t-49 19h-439v333h484q145 0 250.5 -105.5t105.5 -250.5v-541h-977q-145 0 -250.5 105t-105.5 250v750q0 145 105 250.5t251 105.5h958v-333h-913q-31 0 -49.5 -18.5t-18.5 -49.5zM373 1040q0 43 32.5 75.5
t75.5 32.5h873v253h-918q-133 0 -224.5 -91.5t-91.5 -224.5v-750q0 -133 91.5 -224t224.5 -91h937v501q0 133 -91.5 224.5t-224.5 91.5h-444v-253h399q43 0 75.5 -32.5t32.5 -75.5v-204h-639q-43 0 -77 32q-31 31 -31 76v660zM950 1607v208h-209v-208h209zM990 1567h-289
v288h289v-288z" />
    <glyph glyph-name="gdotaccent" unicode="&#x121;" 
d="M413 1040v-660q0 -28 20 -48t48 -20h599v164q0 30 -19 49t-49 19h-439v333h484q145 0 250.5 -105.5t105.5 -250.5v-541h-977q-145 0 -250.5 105t-105.5 250v750q0 145 105 250.5t251 105.5h958v-333h-913q-31 0 -49.5 -18.5t-18.5 -49.5zM373 1040q0 43 32.5 75.5
t75.5 32.5h873v253h-918q-133 0 -224.5 -91.5t-91.5 -224.5v-750q0 -133 91.5 -224t224.5 -91h937v501q0 133 -91.5 224.5t-224.5 91.5h-444v-253h399q43 0 75.5 -32.5t32.5 -75.5v-204h-639q-43 0 -77 32q-31 31 -31 76v660zM950 1607v208h-209v-208h209zM990 1567h-289
v288h289v-288z" />
    <glyph glyph-name="Hcircumflex" unicode="&#x124;" 
d="M1080 1441h333v-1461h-333v564h-667v-564h-333v1461h333v-564h667v564zM1120 1401v-564h-747v564h-253v-1381h253v564h747v-564h253v1381h-253zM654 1530h-326l207 328q28 43 86.5 70t125.5 27t125.5 -27t86.5 -70l207 -328h-326l-93 148zM631 1570l116 183l115 -183h231
l-168 267q-23 36 -70.5 57t-107.5 21t-107.5 -21t-70.5 -57l-169 -267h231z" />
    <glyph glyph-name="hcircumflex" unicode="&#x125;" 
d="M1080 1441h333v-1461h-333v564h-667v-564h-333v1461h333v-564h667v564zM1120 1401v-564h-747v564h-253v-1381h253v564h747v-564h253v1381h-253zM654 1530h-326l207 328q28 43 86.5 70t125.5 27t125.5 -27t86.5 -70l207 -328h-326l-93 148zM631 1570l116 183l115 -183h231
l-168 267q-23 36 -70.5 57t-107.5 21t-107.5 -21t-70.5 -57l-169 -267h231z" />
    <glyph glyph-name="Hbar" unicode="&#x126;" 
d="M1373 20v1050h127v164h-127v167h-253v-167h-747v167h-253v-167h-128v-164h128v-1050h253v564h747v-564h253zM1080 877v153h-667v-153h667zM1413 -20h-333v564h-667v-564h-333v1050h-128v244h128v167h333v-167h667v167h333v-167h127v-244h-127v-1050zM1120 837h-747v233
h747v-233z" />
    <glyph glyph-name="hbar" unicode="&#x127;" 
d="M1373 20v1050h127v164h-127v167h-253v-167h-747v167h-253v-167h-128v-164h128v-1050h253v564h747v-564h253zM1080 877v153h-667v-153h667zM1413 -20h-333v564h-667v-564h-333v1050h-128v244h128v167h333v-167h667v167h333v-167h127v-244h-127v-1050zM1120 837h-747v233
h747v-233z" />
    <glyph glyph-name="Itilde" unicode="&#x128;" horiz-adv-x="493" 
d="M80 -20v1461h333v-1461h-333zM120 20h253v1381h-253v-1381zM483 1565q94 0 157 49t63 121v78h-173v-46q0 -29 -27 -51t-60 -22h-30q-27 0 -51 14.5t-32 36.5l-1 4q-50 107 -197 119h-124q-94 0 -156.5 -49t-62.5 -121v-78h173v46q0 29 27 51t60 22h30q27 0 51 -14.5
t32 -36.5v-1q1 -1 1 -3q50 -107 196 -119h124zM483 1525h-125q-80 5 -143 44t-90 102q0 13 -16.5 20.5t-29.5 7.5h-30q-45 0 -47 -33v-86h-253v118q0 87 77.5 148.5t181.5 61.5h125q80 -5 143 -44t90 -102v1q10 -22 20.5 -25.5t56.5 -3.5q45 0 47 33v86h253v-118
q0 -87 -78 -148.5t-182 -61.5z" />
    <glyph glyph-name="itilde" unicode="&#x129;" horiz-adv-x="493" 
d="M80 -20v1461h333v-1461h-333zM120 20h253v1381h-253v-1381zM483 1565q94 0 157 49t63 121v78h-173v-46q0 -29 -27 -51t-60 -22h-30q-27 0 -51 14.5t-32 36.5l-1 4q-50 107 -197 119h-124q-94 0 -156.5 -49t-62.5 -121v-78h173v46q0 29 27 51t60 22h30q27 0 51 -14.5
t32 -36.5v-1q1 -1 1 -3q50 -107 196 -119h124zM483 1525h-125q-80 5 -143 44t-90 102q0 13 -16.5 20.5t-29.5 7.5h-30q-45 0 -47 -33v-86h-253v118q0 87 77.5 148.5t181.5 61.5h125q80 -5 143 -44t90 -102v1q10 -22 20.5 -25.5t56.5 -3.5q45 0 47 33v86h253v-118
q0 -87 -78 -148.5t-182 -61.5z" />
    <glyph glyph-name="Imacron" unicode="&#x12a;" horiz-adv-x="493" 
d="M80 -20v1461h333v-1461h-333zM120 20h253v1381h-253v-1381zM600 1607v208h-709v-208h709zM640 1567h-789v288h789v-288z" />
    <glyph glyph-name="imacron" unicode="&#x12b;" horiz-adv-x="493" 
d="M80 -20v1461h333v-1461h-333zM120 20h253v1381h-253v-1381zM600 1607v208h-709v-208h709zM640 1567h-789v288h789v-288z" />
    <glyph glyph-name="Idotaccent" unicode="&#x130;" horiz-adv-x="493" 
d="M80 -20v1461h333v-1461h-333zM120 20h253v1381h-253v-1381zM350 1607v208h-209v-208h209zM390 1567h-289v288h289v-288z" />
    <glyph glyph-name="idotless" unicode="&#x131;" horiz-adv-x="493" 
d="M80 -20v1461h333v-1461h-333zM120 20h253v1381h-253v-1381z" />
    <glyph glyph-name="Jcircumflex" unicode="&#x134;" 
d="M1413 1441v-1106q0 -145 -105.5 -250t-250.5 -105h-977v332h932q31 0 49.5 19t18.5 49v1061h333zM1373 1401h-253v-1021q0 -43 -32.5 -75.5t-75.5 -32.5h-892v-252h937q133 0 224.5 91t91.5 224v1066zM1154 1530h-326l207 328q28 43 86.5 70t125.5 27t125.5 -27t86.5 -70
l207 -328h-326l-93 148zM1131 1570l116 183l115 -183h231l-168 267q-23 36 -70.5 57t-107.5 21t-107.5 -21t-70.5 -57l-169 -267h231z" />
    <glyph glyph-name="jcircumflex" unicode="&#x135;" 
d="M1413 1441v-1106q0 -145 -105.5 -250t-250.5 -105h-977v332h932q31 0 49.5 19t18.5 49v1061h333zM1373 1401h-253v-1021q0 -43 -32.5 -75.5t-75.5 -32.5h-892v-252h937q133 0 224.5 91t91.5 224v1066zM1154 1530h-326l207 328q28 43 86.5 70t125.5 27t125.5 -27t86.5 -70
l207 -328h-326l-93 148zM1131 1570l116 183l115 -183h231l-168 267q-23 36 -70.5 57t-107.5 21t-107.5 -21t-70.5 -57l-169 -267h231z" />
    <glyph glyph-name="Lmiddledot" unicode="&#x13f;" 
d="M80 1441h333v-1061q0 -30 18.5 -49t49.5 -19h932v-332h-977q-145 0 -250.5 105t-105.5 250v1106zM120 1401v-1066q0 -133 91.5 -224t224.5 -91h937v252h-892q-43 0 -75.5 32.5t-32.5 75.5v1021h-253zM753 852h282v-283h-282v283zM787 818v-215h214v215h-214z" />
    <glyph glyph-name="lmiddledot" unicode="&#x140;" 
d="M80 1441h333v-1061q0 -30 18.5 -49t49.5 -19h932v-332h-977q-145 0 -250.5 105t-105.5 250v1106zM120 1401v-1066q0 -133 91.5 -224t224.5 -91h937v252h-892q-43 0 -75.5 32.5t-32.5 75.5v1021h-253zM753 852h282v-283h-282v283zM787 818v-215h214v215h-214z" />
    <glyph glyph-name="Lslash" unicode="&#x141;" horiz-adv-x="1806" 
d="M1686 20v252h-892q-46 0 -77 32t-31 76v372l406 254v128l-406 -254v521h-253v-679l-333 -208v-128l333 208v-259q0 -132 92 -223.5t224 -91.5h937zM1726 -20h-977q-148 0 -252 103.5t-104 251.5v187l-333 -208v222l333 208v697h333v-489l406 254v-222l-406 -254v-350
q0 -28 19.5 -48t48.5 -20h932v-332z" />
    <glyph glyph-name="lslash" unicode="&#x142;" horiz-adv-x="1806" 
d="M1686 20v252h-892q-46 0 -77 32t-31 76v372l406 254v128l-406 -254v521h-253v-679l-333 -208v-128l333 208v-259q0 -132 92 -223.5t224 -91.5h937zM1726 -20h-977q-148 0 -252 103.5t-104 251.5v187l-333 -208v222l333 208v697h333v-489l406 254v-222l-406 -254v-350
q0 -28 19.5 -48t48.5 -20h932v-332z" />
    <glyph glyph-name="Ncaron" unicode="&#x147;" horiz-adv-x="1626" 
d="M80 -20v1105q0 145 105.5 250.5t250.5 105.5h188q145 0 250 -105.5t105 -250.5v-705q0 -30 19 -49t49 -19h98q31 0 49.5 19t18.5 49v1061h333v-1106q0 -145 -105.5 -250t-250.5 -105h-188q-145 0 -250 105t-105 250v705q0 31 -18.5 49.5t-49.5 18.5h-98
q-31 0 -49.5 -18.5t-18.5 -49.5v-1060h-333zM120 20h253v1020q0 43 32.5 75.5t75.5 32.5h98q43 0 75.5 -32.5t32.5 -75.5v-705q0 -133 91 -224t224 -91h188q133 0 224.5 91t91.5 224v1066h-253v-1021q0 -42 -32.5 -75t-75.5 -33h-98q-42 0 -75 33t-33 75v705
q0 133 -91 224.5t-224 91.5h-188q-133 0 -224.5 -91.5t-91.5 -224.5v-1065zM720 1855l93 -148l93 148h326l-207 -328q-28 -43 -86.5 -70t-125.5 -27t-125.5 27t-86.5 70l-207 328h326zM697 1815h-231l169 -267q23 -36 70.5 -57t107.5 -21t107.5 21t70.5 57l168 267h-231
l-115 -183z" />
    <glyph glyph-name="ncaron" unicode="&#x148;" horiz-adv-x="1626" 
d="M80 -20v1105q0 145 105.5 250.5t250.5 105.5h188q145 0 250 -105.5t105 -250.5v-705q0 -30 19 -49t49 -19h98q31 0 49.5 19t18.5 49v1061h333v-1106q0 -145 -105.5 -250t-250.5 -105h-188q-145 0 -250 105t-105 250v705q0 31 -18.5 49.5t-49.5 18.5h-98
q-31 0 -49.5 -18.5t-18.5 -49.5v-1060h-333zM120 20h253v1020q0 43 32.5 75.5t75.5 32.5h98q43 0 75.5 -32.5t32.5 -75.5v-705q0 -133 91 -224t224 -91h188q133 0 224.5 91t91.5 224v1066h-253v-1021q0 -42 -32.5 -75t-75.5 -33h-98q-42 0 -75 33t-33 75v705
q0 133 -91 224.5t-224 91.5h-188q-133 0 -224.5 -91.5t-91.5 -224.5v-1065zM720 1855l93 -148l93 148h326l-207 -328q-28 -43 -86.5 -70t-125.5 -27t-125.5 27t-86.5 70l-207 328h326zM697 1815h-231l169 -267q23 -36 70.5 -57t107.5 -21t107.5 21t70.5 57l168 267h-231
l-115 -183z" />
    <glyph glyph-name="Omacron" unicode="&#x14c;" 
d="M1057 1441q145 0 250.5 -105.5t105.5 -250.5v-750q0 -145 -105.5 -250t-250.5 -105h-621q-145 0 -250.5 105t-105.5 250v750q0 145 105 250.5t251 105.5h621zM1120 1040v-660q0 -45 -31 -76q-32 -32 -77 -32h-531q-43 0 -77 32q-31 31 -31 76v660q0 43 32.5 75.5
t75.5 32.5h531q43 0 75.5 -32.5t32.5 -75.5zM1057 1401h-621q-133 0 -224.5 -91.5t-91.5 -224.5v-750q0 -133 91.5 -224t224.5 -91h621q133 0 224.5 91t91.5 224v750q0 133 -91.5 224.5t-224.5 91.5zM1080 1040q0 31 -18.5 49.5t-49.5 18.5h-531q-31 0 -49.5 -18.5
t-18.5 -49.5v-660q0 -28 20 -48t48 -20h531q27 0 49 20q19 20 19 48v660zM1101 1607v208h-709v-208h709zM1141 1567h-789v288h789v-288z" />
    <glyph glyph-name="omacron" unicode="&#x14d;" 
d="M1057 1441q145 0 250.5 -105.5t105.5 -250.5v-750q0 -145 -105.5 -250t-250.5 -105h-621q-145 0 -250.5 105t-105.5 250v750q0 145 105 250.5t251 105.5h621zM1120 1040v-660q0 -45 -31 -76q-32 -32 -77 -32h-531q-43 0 -77 32q-31 31 -31 76v660q0 43 32.5 75.5
t75.5 32.5h531q43 0 75.5 -32.5t32.5 -75.5zM1057 1401h-621q-133 0 -224.5 -91.5t-91.5 -224.5v-750q0 -133 91.5 -224t224.5 -91h621q133 0 224.5 91t91.5 224v750q0 133 -91.5 224.5t-224.5 91.5zM1080 1040q0 31 -18.5 49.5t-49.5 18.5h-531q-31 0 -49.5 -18.5
t-18.5 -49.5v-660q0 -28 20 -48t48 -20h531q27 0 49 20q19 20 19 48v660zM1101 1607v208h-709v-208h709zM1141 1567h-789v288h789v-288z" />
    <glyph glyph-name="OE" unicode="&#x152;" horiz-adv-x="2500" 
d="M1012 312q27 0 47.5 19t20.5 49v660q0 29 -19.5 48.5t-48.5 19.5h-531q-29 0 -48.5 -19.5t-19.5 -48.5v-660q0 -30 20.5 -49t47.5 -19h531zM2380 20v252h-893q-44 0 -76 32t-32 76v95q0 46 32 77t76 31q162 0 456.5 1t436.5 1v252h-893q-44 0 -76 32t-32 76v95
q0 46 32 77t76 31h893v253h-938q-101 0 -192 -65q-92 65 -193 65h-621q-131 0 -223.5 -92.5t-92.5 -223.5v-750q0 -132 92 -223.5t224 -91.5h621q101 0 193 65q91 -65 192 -65h938zM1012 272h-531q-43 0 -75.5 30.5t-32.5 77.5v660q0 46 31 77t77 31h531q46 0 77 -31t31 -77
v-660q0 -47 -32.5 -77.5t-75.5 -30.5zM2420 -20h-978q-116 0 -192 55q-77 -55 -193 -55h-621q-148 0 -252 103.5t-104 251.5v750q0 149 104 252.5t252 103.5h621q114 0 193 -56q77 56 192 56h978v-333h-933q-28 0 -48 -19.5t-20 -48.5v-95q0 -28 20 -48t48 -20h933v-332
q-177 0 -477.5 -1t-455.5 -1q-28 0 -48 -19.5t-20 -48.5v-95q0 -28 20 -48t48 -20h933v-332z" />
    <glyph glyph-name="oe" unicode="&#x153;" horiz-adv-x="2500" 
d="M1012 312q27 0 47.5 19t20.5 49v660q0 29 -19.5 48.5t-48.5 19.5h-531q-29 0 -48.5 -19.5t-19.5 -48.5v-660q0 -30 20.5 -49t47.5 -19h531zM2380 20v252h-893q-44 0 -76 32t-32 76v95q0 46 32 77t76 31q162 0 456.5 1t436.5 1v252h-893q-44 0 -76 32t-32 76v95
q0 46 32 77t76 31h893v253h-938q-101 0 -192 -65q-92 65 -193 65h-621q-131 0 -223.5 -92.5t-92.5 -223.5v-750q0 -132 92 -223.5t224 -91.5h621q101 0 193 65q91 -65 192 -65h938zM1012 272h-531q-43 0 -75.5 30.5t-32.5 77.5v660q0 46 31 77t77 31h531q46 0 77 -31t31 -77
v-660q0 -47 -32.5 -77.5t-75.5 -30.5zM2420 -20h-978q-116 0 -192 55q-77 -55 -193 -55h-621q-148 0 -252 103.5t-104 251.5v750q0 149 104 252.5t252 103.5h621q114 0 193 -56q77 56 192 56h978v-333h-933q-28 0 -48 -19.5t-20 -48.5v-95q0 -28 20 -48t48 -20h933v-332
q-177 0 -477.5 -1t-455.5 -1q-28 0 -48 -19.5t-20 -48.5v-95q0 -28 20 -48t48 -20h933v-332z" />
    <glyph glyph-name="Rcaron" unicode="&#x158;" horiz-adv-x="1494" 
d="M1013 605q31 2 49.5 21.5t18.5 50.5v359q0 32 -20 52t-52 20h-596v-503h600zM1014 565h-641v583h636q44 0 78 -34t34 -78v-359q0 -44 -31.5 -76t-75.5 -36zM746 1470q121 0 178 78l168 267h-231l-115 -183l-116 183h-231l169 -267q57 -78 178 -78zM1374 20v229
q0 99 -61 187q61 86 61 185v471q0 132 -89 220.5t-221 88.5h-944v-1381h253v292h645q43 -4 73 -35t30 -73v-184h253zM1414 -20h-333v224q0 59 -64 68h-604v-292h-333v1461h583q-90 26 -129 86l-207 328h326l93 -148l93 148h326l-207 -328q-39 -60 -129 -86h235
q146 0 248 -103.5t102 -245.5v-471q0 -106 -53 -185q53 -79 53 -187v-269z" />
    <glyph glyph-name="rcaron" unicode="&#x159;" horiz-adv-x="1494" 
d="M1013 605q31 2 49.5 21.5t18.5 50.5v359q0 32 -20 52t-52 20h-596v-503h600zM1014 565h-641v583h636q44 0 78 -34t34 -78v-359q0 -44 -31.5 -76t-75.5 -36zM746 1470q121 0 178 78l168 267h-231l-115 -183l-116 183h-231l169 -267q57 -78 178 -78zM1374 20v229
q0 99 -61 187q61 86 61 185v471q0 132 -89 220.5t-221 88.5h-944v-1381h253v292h645q43 -4 73 -35t30 -73v-184h253zM1414 -20h-333v224q0 59 -64 68h-604v-292h-333v1461h583q-90 26 -129 86l-207 328h326l93 -148l93 148h326l-207 -328q-39 -60 -129 -86h235
q146 0 248 -103.5t102 -245.5v-471q0 -106 -53 -185q53 -79 53 -187v-269z" />
    <glyph glyph-name="Scircumflex" unicode="&#x15c;" 
d="M1080 475q0 31 -18.5 50t-49.5 19h-576q-145 0 -250.5 105.5t-105.5 250.5v185q0 145 105 250.5t251 105.5h977v-333h-932q-31 0 -49.5 -18.5t-18.5 -49.5v-95q0 -30 18.5 -49t49.5 -19h576q145 0 250.5 -105.5t105.5 -251.5v-185q0 -145 -105.5 -250t-250.5 -105h-977
v332h932q31 0 49.5 19t18.5 49v95zM1120 475v-95q0 -43 -32.5 -75.5t-75.5 -32.5h-892v-252h937q133 0 224.5 91t91.5 224v185q0 134 -91.5 225.5t-224.5 91.5h-576q-43 0 -75.5 32.5t-32.5 75.5v95q0 43 32.5 75.5t75.5 32.5h892v253h-937q-133 0 -224.5 -91.5
t-91.5 -224.5v-185q0 -133 91.5 -224.5t224.5 -91.5h576q43 0 75.5 -33t32.5 -76zM654 1530h-326l207 328q28 43 86.5 70t125.5 27t125.5 -27t86.5 -70l207 -328h-326l-93 148zM631 1570l116 183l115 -183h231l-168 267q-23 36 -70.5 57t-107.5 21t-107.5 -21t-70.5 -57
l-169 -267h231z" />
    <glyph glyph-name="scircumflex" unicode="&#x15d;" 
d="M1080 475q0 31 -18.5 50t-49.5 19h-576q-145 0 -250.5 105.5t-105.5 250.5v185q0 145 105 250.5t251 105.5h977v-333h-932q-31 0 -49.5 -18.5t-18.5 -49.5v-95q0 -30 18.5 -49t49.5 -19h576q145 0 250.5 -105.5t105.5 -251.5v-185q0 -145 -105.5 -250t-250.5 -105h-977
v332h932q31 0 49.5 19t18.5 49v95zM1120 475v-95q0 -43 -32.5 -75.5t-75.5 -32.5h-892v-252h937q133 0 224.5 91t91.5 224v185q0 134 -91.5 225.5t-224.5 91.5h-576q-43 0 -75.5 32.5t-32.5 75.5v95q0 43 32.5 75.5t75.5 32.5h892v253h-937q-133 0 -224.5 -91.5
t-91.5 -224.5v-185q0 -133 91.5 -224.5t224.5 -91.5h576q43 0 75.5 -33t32.5 -76zM654 1530h-326l207 328q28 43 86.5 70t125.5 27t125.5 -27t86.5 -70l207 -328h-326l-93 148zM631 1570l116 183l115 -183h231l-168 267q-23 36 -70.5 57t-107.5 21t-107.5 -21t-70.5 -57
l-169 -267h231z" />
    <glyph glyph-name="Scaron" unicode="&#x160;" 
d="M747 1470q121 0 178 78l168 267h-231l-115 -183l-116 183h-231l169 -267q57 -78 178 -78zM1057 20q134 0 225 90.5t91 224.5v185q0 134 -91 225.5t-225 91.5h-576q-43 0 -75.5 33t-32.5 75v95q0 44 32.5 76t75.5 32h892v253h-937q-134 0 -225 -91.5t-91 -224.5v-185
q0 -134 91 -225t225 -91h576q43 0 75.5 -32.5t32.5 -76.5v-95q0 -42 -32.5 -75t-75.5 -33h-892v-252h937zM1057 -20h-977v332h932q31 0 49.5 19.5t18.5 48.5v95q0 31 -18.5 50t-49.5 19h-576q-147 0 -251.5 105t-104.5 251v185q0 147 105 251.5t251 104.5h228
q-90 26 -129 86l-207 328h326l93 -148l93 148h326l-207 -328q-39 -60 -129 -86h583v-333h-932q-31 0 -49.5 -18.5t-18.5 -49.5v-95q0 -29 18.5 -48.5t49.5 -19.5h576q148 0 252 -106t104 -251v-185q0 -148 -105.5 -251.5t-250.5 -103.5z" />
    <glyph glyph-name="scaron" unicode="&#x161;" 
d="M747 1470q121 0 178 78l168 267h-231l-115 -183l-116 183h-231l169 -267q57 -78 178 -78zM1057 20q134 0 225 90.5t91 224.5v185q0 134 -91 225.5t-225 91.5h-576q-43 0 -75.5 33t-32.5 75v95q0 44 32.5 76t75.5 32h892v253h-937q-134 0 -225 -91.5t-91 -224.5v-185
q0 -134 91 -225t225 -91h576q43 0 75.5 -32.5t32.5 -76.5v-95q0 -42 -32.5 -75t-75.5 -33h-892v-252h937zM1057 -20h-977v332h932q31 0 49.5 19.5t18.5 48.5v95q0 31 -18.5 50t-49.5 19h-576q-147 0 -251.5 105t-104.5 251v185q0 147 105 251.5t251 104.5h228
q-90 26 -129 86l-207 328h326l93 -148l93 148h326l-207 -328q-39 -60 -129 -86h583v-333h-932q-31 0 -49.5 -18.5t-18.5 -49.5v-95q0 -29 18.5 -48.5t49.5 -19.5h576q148 0 252 -106t104 -251v-185q0 -148 -105.5 -251.5t-250.5 -103.5z" />
    <glyph glyph-name="Tcaron" unicode="&#x164;" horiz-adv-x="1494" 
d="M747 1470q121 0 178 78l168 267h-231l-115 -183l-116 183h-231l169 -267q57 -78 178 -78zM873 20v1020q0 44 32.5 76t75.5 32h393v253h-1254v-253h392q44 0 76 -32t32 -76v-1020h253zM913 -20h-333v1060q0 32 -19 50t-49 18h-432v333h584q-90 26 -129 86l-207 328h326
l93 -148l93 148h326l-207 -328q-39 -60 -129 -86h584v-333h-433q-29 0 -48.5 -18.5t-19.5 -49.5v-1060z" />
    <glyph glyph-name="tcaron" unicode="&#x165;" horiz-adv-x="1494" 
d="M747 1470q121 0 178 78l168 267h-231l-115 -183l-116 183h-231l169 -267q57 -78 178 -78zM873 20v1020q0 44 32.5 76t75.5 32h393v253h-1254v-253h392q44 0 76 -32t32 -76v-1020h253zM913 -20h-333v1060q0 32 -19 50t-49 18h-432v333h584q-90 26 -129 86l-207 328h326
l93 -148l93 148h326l-207 -328q-39 -60 -129 -86h584v-333h-433q-29 0 -48.5 -18.5t-19.5 -49.5v-1060z" />
    <glyph glyph-name="Tbar" unicode="&#x166;" horiz-adv-x="1494" 
d="M873 20v650h370v164h-370v206q0 46 32 77t76 31h393v253h-1254v-253h392q46 0 77 -31t31 -77v-206h-369v-164h369v-650h253zM913 -20h-333v650h-369v244h369v166q0 29 -19.5 48.5t-48.5 19.5h-432v333h1334v-333h-433q-28 0 -48 -19.5t-20 -48.5v-166h370v-244h-370v-650
z" />
    <glyph glyph-name="tbar" unicode="&#x167;" horiz-adv-x="1494" 
d="M873 20v650h370v164h-370v206q0 46 32 77t76 31h393v253h-1254v-253h392q46 0 77 -31t31 -77v-206h-369v-164h369v-650h253zM913 -20h-333v650h-369v244h369v166q0 29 -19.5 48.5t-48.5 19.5h-432v333h1334v-333h-433q-28 0 -48 -19.5t-20 -48.5v-166h370v-244h-370v-650
z" />
    <glyph glyph-name="Utilde" unicode="&#x168;" 
d="M1013 312q30 0 48.5 19t18.5 49v1061h333v-1106q0 -145 -105.5 -250t-250.5 -105h-621q-145 0 -250.5 105t-105.5 250v1106h333v-1061q0 -30 18.5 -49t49.5 -19h532zM1013 272h-532q-43 0 -75.5 32.5t-32.5 75.5v1021h-253v-1066q0 -133 91.5 -224t224.5 -91h621
q133 0 224.5 91t91.5 224v1066h-253v-1021q0 -42 -32.5 -75t-74.5 -33zM984 1565q94 0 157 49t63 121v78h-173v-46q0 -29 -27 -51t-60 -22h-30q-27 0 -51 14.5t-32 36.5l-1 4q-50 107 -197 119h-124q-94 0 -156.5 -49t-62.5 -121v-78h173v46q0 29 27 51t60 22h30
q27 0 51 -14.5t32 -36.5l1 -1v-3q50 -107 196 -119h124zM984 1525h-125q-80 5 -143 44t-90 102q0 13 -16.5 20.5t-29.5 7.5h-30q-46 0 -47 -33v-86h-253v118q0 87 77.5 148.5t181.5 61.5h125q80 -5 143 -44t90 -102v1q10 -22 20.5 -25.5t56.5 -3.5t47 33v86h253v-118
q0 -87 -78 -148.5t-182 -61.5z" />
    <glyph glyph-name="utilde" unicode="&#x169;" 
d="M1013 312q30 0 48.5 19t18.5 49v1061h333v-1106q0 -145 -105.5 -250t-250.5 -105h-621q-145 0 -250.5 105t-105.5 250v1106h333v-1061q0 -30 18.5 -49t49.5 -19h532zM1013 272h-532q-43 0 -75.5 32.5t-32.5 75.5v1021h-253v-1066q0 -133 91.5 -224t224.5 -91h621
q133 0 224.5 91t91.5 224v1066h-253v-1021q0 -42 -32.5 -75t-74.5 -33zM984 1565q94 0 157 49t63 121v78h-173v-46q0 -29 -27 -51t-60 -22h-30q-27 0 -51 14.5t-32 36.5l-1 4q-50 107 -197 119h-124q-94 0 -156.5 -49t-62.5 -121v-78h173v46q0 29 27 51t60 22h30
q27 0 51 -14.5t32 -36.5l1 -1v-3q50 -107 196 -119h124zM984 1525h-125q-80 5 -143 44t-90 102q0 13 -16.5 20.5t-29.5 7.5h-30q-46 0 -47 -33v-86h-253v118q0 87 77.5 148.5t181.5 61.5h125q80 -5 143 -44t90 -102v1q10 -22 20.5 -25.5t56.5 -3.5t47 33v86h253v-118
q0 -87 -78 -148.5t-182 -61.5z" />
    <glyph glyph-name="Umacron" unicode="&#x16a;" 
d="M1013 312q30 0 48.5 19t18.5 49v1061h333v-1106q0 -145 -105.5 -250t-250.5 -105h-621q-145 0 -250.5 105t-105.5 250v1106h333v-1061q0 -30 18.5 -49t49.5 -19h532zM1013 272h-532q-43 0 -75.5 32.5t-32.5 75.5v1021h-253v-1066q0 -133 91.5 -224t224.5 -91h621
q133 0 224.5 91t91.5 224v1066h-253v-1021q0 -42 -32.5 -75t-74.5 -33zM1101 1607v208h-709v-208h709zM1141 1567h-789v288h789v-288z" />
    <glyph glyph-name="umacron" unicode="&#x16b;" 
d="M1013 312q30 0 48.5 19t18.5 49v1061h333v-1106q0 -145 -105.5 -250t-250.5 -105h-621q-145 0 -250.5 105t-105.5 250v1106h333v-1061q0 -30 18.5 -49t49.5 -19h532zM1013 272h-532q-43 0 -75.5 32.5t-32.5 75.5v1021h-253v-1066q0 -133 91.5 -224t224.5 -91h621
q133 0 224.5 91t91.5 224v1066h-253v-1021q0 -42 -32.5 -75t-74.5 -33zM1101 1607v208h-709v-208h709zM1141 1567h-789v288h789v-288z" />
    <glyph glyph-name="Wcircumflex" unicode="&#x174;" horiz-adv-x="2192" 
d="M80 1441h332v-1061q0 -30 19 -49t49 -19h98q31 0 49.5 19t18.5 49v413q0 145 105.5 250.5t250.5 105.5h187q145 0 250.5 -105.5t105.5 -250.5v-413q0 -30 18.5 -49t49.5 -19h98q31 0 49.5 19t18.5 49v1061h333v-1106q0 -145 -105.5 -250t-250.5 -105h-188
q-145 0 -250.5 105t-105.5 250v413q0 31 -18.5 49.5t-49.5 18.5h-97q-31 0 -49.5 -18.5t-18.5 -49.5v-413q0 -145 -105.5 -250t-250.5 -105h-188q-145 0 -250 105t-105 250v1106zM120 1401v-1066q0 -133 91 -224t224 -91h188q133 0 224.5 91t91.5 224v413q0 43 32.5 75.5
t75.5 32.5h97q43 0 75.5 -32.5t32.5 -75.5v-413q0 -133 91.5 -224t224.5 -91h188q133 0 224.5 91t91.5 224v1066h-253v-1021q0 -42 -32.5 -75t-75.5 -33h-98q-43 0 -75.5 33t-32.5 75v413q0 133 -91.5 224.5t-224.5 91.5h-187q-133 0 -224.5 -91.5t-91.5 -224.5v-413
q0 -42 -32.5 -75t-75.5 -33h-98q-42 0 -75 33t-33 75v1021h-252zM1003 1530h-326l207 328q28 43 86.5 70t125.5 27t125.5 -27t86.5 -70l207 -328h-326l-93 148zM980 1570l116 183l115 -183h231l-168 267q-23 36 -70.5 57t-107.5 21t-107.5 -21t-70.5 -57l-169 -267h231z" />
    <glyph glyph-name="wcircumflex" unicode="&#x175;" horiz-adv-x="2192" 
d="M80 1441h332v-1061q0 -30 19 -49t49 -19h98q31 0 49.5 19t18.5 49v413q0 145 105.5 250.5t250.5 105.5h187q145 0 250.5 -105.5t105.5 -250.5v-413q0 -30 18.5 -49t49.5 -19h98q31 0 49.5 19t18.5 49v1061h333v-1106q0 -145 -105.5 -250t-250.5 -105h-188
q-145 0 -250.5 105t-105.5 250v413q0 31 -18.5 49.5t-49.5 18.5h-97q-31 0 -49.5 -18.5t-18.5 -49.5v-413q0 -145 -105.5 -250t-250.5 -105h-188q-145 0 -250 105t-105 250v1106zM120 1401v-1066q0 -133 91 -224t224 -91h188q133 0 224.5 91t91.5 224v413q0 43 32.5 75.5
t75.5 32.5h97q43 0 75.5 -32.5t32.5 -75.5v-413q0 -133 91.5 -224t224.5 -91h188q133 0 224.5 91t91.5 224v1066h-253v-1021q0 -42 -32.5 -75t-75.5 -33h-98q-43 0 -75.5 33t-32.5 75v413q0 133 -91.5 224.5t-224.5 91.5h-187q-133 0 -224.5 -91.5t-91.5 -224.5v-413
q0 -42 -32.5 -75t-75.5 -33h-98q-42 0 -75 33t-33 75v1021h-252zM1003 1530h-326l207 328q28 43 86.5 70t125.5 27t125.5 -27t86.5 -70l207 -328h-326l-93 148zM980 1570l116 183l115 -183h231l-168 267q-23 36 -70.5 57t-107.5 21t-107.5 -21t-70.5 -57l-169 -267h231z" />
    <glyph glyph-name="Ycircumflex" unicode="&#x176;" 
d="M1013 877q30 0 48.5 18.5t18.5 49.5v496h333v-541q0 -146 -105.5 -251t-250.5 -105h-144v-564h-333v564h-144q-146 0 -251 105t-105 251v541h333v-496q0 -31 18.5 -49.5t49.5 -18.5h532zM1013 837h-532q-43 0 -75.5 32.5t-32.5 75.5v456h-253v-501q0 -133 91.5 -224.5
t224.5 -91.5h184v-564h253v564h184q133 0 224.5 91t91.5 225v501h-253v-456q0 -43 -32 -75.5t-75 -32.5zM654 1530h-326l207 328q28 43 86.5 70t125.5 27t125.5 -27t86.5 -70l207 -328h-326l-93 148zM631 1570l116 183l115 -183h231l-168 267q-23 36 -70.5 57t-107.5 21
t-107.5 -21t-70.5 -57l-169 -267h231z" />
    <glyph glyph-name="ycircumflex" unicode="&#x177;" 
d="M1013 877q30 0 48.5 18.5t18.5 49.5v496h333v-541q0 -146 -105.5 -251t-250.5 -105h-144v-564h-333v564h-144q-146 0 -251 105t-105 251v541h333v-496q0 -31 18.5 -49.5t49.5 -18.5h532zM1013 837h-532q-43 0 -75.5 32.5t-32.5 75.5v456h-253v-501q0 -133 91.5 -224.5
t224.5 -91.5h184v-564h253v564h184q133 0 224.5 91t91.5 225v501h-253v-456q0 -43 -32 -75.5t-75 -32.5zM654 1530h-326l207 328q28 43 86.5 70t125.5 27t125.5 -27t86.5 -70l207 -328h-326l-93 148zM631 1570l116 183l115 -183h231l-168 267q-23 36 -70.5 57t-107.5 21
t-107.5 -21t-70.5 -57l-169 -267h231z" />
    <glyph glyph-name="Ydieresis" unicode="&#x178;" 
d="M1013 877q30 0 48.5 18.5t18.5 49.5v496h333v-541q0 -146 -105.5 -251t-250.5 -105h-144v-564h-333v564h-144q-146 0 -251 105t-105 251v541h333v-496q0 -31 18.5 -49.5t49.5 -18.5h532zM1013 837h-532q-43 0 -75.5 32.5t-32.5 75.5v456h-253v-501q0 -133 91.5 -224.5
t224.5 -91.5h184v-564h253v564h184q133 0 224.5 91t91.5 225v501h-253v-456q0 -43 -32 -75.5t-75 -32.5zM651 1607v208h-209v-208h209zM1051 1607v208h-209v-208h209zM691 1567h-289v288h289v-288zM1091 1567h-289v288h289v-288z" />
    <glyph glyph-name="Zdotaccent" unicode="&#x17b;" 
d="M413 475v-95q0 -30 18.5 -49t49.5 -19h932v-332h-977q-145 0 -250.5 105t-105.5 250v185q0 146 105.5 251.5t250.5 105.5h576q31 0 49.5 19t18.5 49v95q0 31 -18.5 49.5t-49.5 18.5h-932v333h977q145 0 250.5 -105.5t105.5 -250.5v-185q0 -145 -105.5 -250.5
t-250.5 -105.5h-576q-31 0 -49.5 -19t-18.5 -50zM373 475q0 43 32.5 76t75.5 33h576q133 0 224.5 91.5t91.5 224.5v185q0 133 -91.5 224.5t-224.5 91.5h-937v-253h892q43 0 75.5 -32.5t32.5 -75.5v-95q0 -43 -32.5 -75.5t-75.5 -32.5h-576q-133 0 -224.5 -92t-91.5 -225
v-185q0 -133 91.5 -224t224.5 -91h937v252h-892q-43 0 -75.5 32.5t-32.5 75.5v95zM851 1607v208h-209v-208h209zM891 1567h-289v288h289v-288z" />
    <glyph glyph-name="zdotaccent" unicode="&#x17c;" 
d="M413 475v-95q0 -30 18.5 -49t49.5 -19h932v-332h-977q-145 0 -250.5 105t-105.5 250v185q0 146 105.5 251.5t250.5 105.5h576q31 0 49.5 19t18.5 49v95q0 31 -18.5 49.5t-49.5 18.5h-932v333h977q145 0 250.5 -105.5t105.5 -250.5v-185q0 -145 -105.5 -250.5
t-250.5 -105.5h-576q-31 0 -49.5 -19t-18.5 -50zM373 475q0 43 32.5 76t75.5 33h576q133 0 224.5 91.5t91.5 224.5v185q0 133 -91.5 224.5t-224.5 91.5h-937v-253h892q43 0 75.5 -32.5t32.5 -75.5v-95q0 -43 -32.5 -75.5t-75.5 -32.5h-576q-133 0 -224.5 -92t-91.5 -225
v-185q0 -133 91.5 -224t224.5 -91h937v252h-892q-43 0 -75.5 32.5t-32.5 75.5v95zM851 1607v208h-209v-208h209zM891 1567h-289v288h289v-288z" />
    <glyph glyph-name="Zcaron" unicode="&#x17d;" 
d="M747 1470q121 0 178 78l168 267h-231l-115 -183l-116 183h-231l169 -267q57 -78 178 -78zM1373 20v252h-892q-43 0 -75.5 33t-32.5 75v95q0 44 32.5 76.5t75.5 32.5h576q133 0 224.5 91t91.5 225v185q0 133 -91.5 224.5t-224.5 91.5h-937v-253h892q44 0 76 -32t32 -76
v-95q0 -42 -32.5 -75t-75.5 -33h-576q-134 0 -225 -91.5t-91 -225.5v-185q0 -134 91 -224.5t225 -90.5h937zM1413 -20h-977q-148 0 -252 105t-104 250v185q0 148 105.5 252.5t250.5 104.5h576q31 0 49.5 19.5t18.5 48.5v95q0 31 -18.5 49.5t-49.5 18.5h-932v333h584
q-90 26 -129 86l-207 328h326l93 -148l93 148h326l-207 -328q-39 -60 -129 -86h227q147 0 251.5 -105t104.5 -251v-185q0 -147 -105 -251.5t-251 -104.5h-576q-31 0 -49.5 -19t-18.5 -50v-95q0 -29 18.5 -48.5t49.5 -19.5h932v-332z" />
    <glyph glyph-name="zcaron" unicode="&#x17e;" 
d="M747 1470q121 0 178 78l168 267h-231l-115 -183l-116 183h-231l169 -267q57 -78 178 -78zM1373 20v252h-892q-43 0 -75.5 33t-32.5 75v95q0 44 32.5 76.5t75.5 32.5h576q133 0 224.5 91t91.5 225v185q0 133 -91.5 224.5t-224.5 91.5h-937v-253h892q44 0 76 -32t32 -76
v-95q0 -42 -32.5 -75t-75.5 -33h-576q-134 0 -225 -91.5t-91 -225.5v-185q0 -134 91 -224.5t225 -90.5h937zM1413 -20h-977q-148 0 -252 105t-104 250v185q0 148 105.5 252.5t250.5 104.5h576q31 0 49.5 19.5t18.5 48.5v95q0 31 -18.5 49.5t-49.5 18.5h-932v333h584
q-90 26 -129 86l-207 328h326l93 -148l93 148h326l-207 -328q-39 -60 -129 -86h227q147 0 251.5 -105t104.5 -251v-185q0 -147 -105 -251.5t-251 -104.5h-576q-31 0 -49.5 -19t-18.5 -50v-95q0 -29 18.5 -48.5t49.5 -19.5h932v-332z" />
    <glyph glyph-name="circumflexcomb" unicode="&#x302;" horiz-adv-x="966" 
d="M390 1530h-326l207 328q28 43 86.5 70t125.5 27t125.5 -27t86.5 -70l207 -328h-326l-93 148zM367 1570l116 183l115 -183h231l-168 267q-23 36 -70.5 57t-107.5 21t-107.5 -21t-70.5 -57l-169 -267h231z" />
    <glyph glyph-name="tildecomb" unicode="&#x303;" horiz-adv-x="1154" 
d="M814 1565q94 0 157 49t63 121v78h-173v-46q0 -29 -27 -51t-60 -22h-30q-27 0 -51 14.5t-32 36.5l-1 4q-50 107 -197 119h-124q-94 0 -156.5 -49t-62.5 -121v-78h173v46q0 29 27 51t60 22h30q27 0 51 -14.5t32 -36.5l1 -1v-3q50 -107 196 -119h124zM814 1525h-125
q-80 5 -143 44t-90 102q0 13 -16.5 20.5t-29.5 7.5h-30q-46 0 -47 -33v-86h-253v118q0 87 77.5 148.5t181.5 61.5h125q80 -5 143 -44t90 -102v1q10 -22 20.5 -25.5t56.5 -3.5t47 33v86h253v-118q0 -87 -78 -148.5t-182 -61.5z" />
    <glyph glyph-name="macroncomb" unicode="&#x304;" horiz-adv-x="949" 
d="M829 1607v208h-709v-208h709zM869 1567h-789v288h789v-288z" />
    <glyph glyph-name="dotaccentcomb" unicode="&#x307;" horiz-adv-x="449" 
d="M329 1607v208h-209v-208h209zM369 1567h-289v288h289v-288z" />
    <glyph glyph-name="dieresiscomb" unicode="&#x308;" horiz-adv-x="849" 
d="M329 1607v208h-209v-208h209zM729 1607v208h-209v-208h209zM369 1567h-289v288h289v-288zM769 1567h-289v288h289v-288z" />
    <glyph glyph-name="caroncomb" unicode="&#x30c;" horiz-adv-x="966" 
d="M390 1855l93 -148l93 148h326l-207 -328q-28 -43 -86.5 -70t-125.5 -27t-125.5 27t-86.5 70l-207 328h326zM367 1815h-231l169 -267q23 -36 70.5 -57t107.5 -21t107.5 21t70.5 57l168 267h-231l-115 -183z" />
    <glyph glyph-name="Wdieresis" unicode="&#x1e84;" horiz-adv-x="2192" 
d="M80 1441h332v-1061q0 -30 19 -49t49 -19h98q31 0 49.5 19t18.5 49v413q0 145 105.5 250.5t250.5 105.5h187q145 0 250.5 -105.5t105.5 -250.5v-413q0 -30 18.5 -49t49.5 -19h98q31 0 49.5 19t18.5 49v1061h333v-1106q0 -145 -105.5 -250t-250.5 -105h-188
q-145 0 -250.5 105t-105.5 250v413q0 31 -18.5 49.5t-49.5 18.5h-97q-31 0 -49.5 -18.5t-18.5 -49.5v-413q0 -145 -105.5 -250t-250.5 -105h-188q-145 0 -250 105t-105 250v1106zM120 1401v-1066q0 -133 91 -224t224 -91h188q133 0 224.5 91t91.5 224v413q0 43 32.5 75.5
t75.5 32.5h97q43 0 75.5 -32.5t32.5 -75.5v-413q0 -133 91.5 -224t224.5 -91h188q133 0 224.5 91t91.5 224v1066h-253v-1021q0 -42 -32.5 -75t-75.5 -33h-98q-43 0 -75.5 33t-32.5 75v413q0 133 -91.5 224.5t-224.5 91.5h-187q-133 0 -224.5 -91.5t-91.5 -224.5v-413
q0 -42 -32.5 -75t-75.5 -33h-98q-42 0 -75 33t-33 75v1021h-252zM1000 1607v208h-209v-208h209zM1400 1607v208h-209v-208h209zM1040 1567h-289v288h289v-288zM1440 1567h-289v288h289v-288z" />
    <glyph glyph-name="wdieresis" unicode="&#x1e85;" horiz-adv-x="2192" 
d="M80 1441h332v-1061q0 -30 19 -49t49 -19h98q31 0 49.5 19t18.5 49v413q0 145 105.5 250.5t250.5 105.5h187q145 0 250.5 -105.5t105.5 -250.5v-413q0 -30 18.5 -49t49.5 -19h98q31 0 49.5 19t18.5 49v1061h333v-1106q0 -145 -105.5 -250t-250.5 -105h-188
q-145 0 -250.5 105t-105.5 250v413q0 31 -18.5 49.5t-49.5 18.5h-97q-31 0 -49.5 -18.5t-18.5 -49.5v-413q0 -145 -105.5 -250t-250.5 -105h-188q-145 0 -250 105t-105 250v1106zM120 1401v-1066q0 -133 91 -224t224 -91h188q133 0 224.5 91t91.5 224v413q0 43 32.5 75.5
t75.5 32.5h97q43 0 75.5 -32.5t32.5 -75.5v-413q0 -133 91.5 -224t224.5 -91h188q133 0 224.5 91t91.5 224v1066h-253v-1021q0 -42 -32.5 -75t-75.5 -33h-98q-43 0 -75.5 33t-32.5 75v413q0 133 -91.5 224.5t-224.5 91.5h-187q-133 0 -224.5 -91.5t-91.5 -224.5v-413
q0 -42 -32.5 -75t-75.5 -33h-98q-42 0 -75 33t-33 75v1021h-252zM1000 1607v208h-209v-208h209zM1400 1607v208h-209v-208h209zM1040 1567h-289v288h289v-288zM1440 1567h-289v288h289v-288z" />
    <glyph glyph-name="endash" unicode="&#x2013;" horiz-adv-x="1232" 
d="M84 877h1064v-332h-1064v332zM116 837v-252h1000v252h-1000z" />
    <glyph glyph-name="emdash" unicode="&#x2014;" horiz-adv-x="2264" 
d="M68 877h2128v-332h-2128v332zM132 837v-252h2000v252h-2000z" />
    <glyph glyph-name="quoteleft" unicode="&#x2018;" horiz-adv-x="493" 
d="M80 889v572l333 -249v-323h-333zM120 929h253v263l-253 189v-452z" />
    <glyph glyph-name="quoteright" unicode="&#x2019;" horiz-adv-x="493" 
d="M413 1441v-572l-333 249v323h333zM373 1401h-253v-263l253 -189v452z" />
    <glyph glyph-name="quotesinglbase" unicode="&#x201a;" horiz-adv-x="493" 
d="M413 341v-572l-333 249v323h333zM373 301h-253v-263l253 -189v452z" />
    <glyph glyph-name="quotedblleft" unicode="&#x201c;" horiz-adv-x="853" 
d="M80 889v572l333 -249v-323h-333zM440 889v572l333 -249v-323h-333zM120 929h253v263l-253 189v-452zM480 929h253v263l-253 189v-452z" />
    <glyph glyph-name="quotedblright" unicode="&#x201d;" horiz-adv-x="853" 
d="M773 1441v-572l-333 249v323h333zM413 1441v-572l-333 249v323h333zM733 1401h-253v-263l253 -189v452zM373 1401h-253v-263l253 -189v452z" />
    <glyph glyph-name="quotedblbase" unicode="&#x201e;" horiz-adv-x="853" 
d="M773 341v-572l-333 249v323h333zM413 341v-572l-333 249v323h333zM733 301h-253v-263l253 -189v452zM373 301h-253v-263l253 -189v452z" />
    <glyph glyph-name="ellipsis" unicode="&#x2026;" horiz-adv-x="1859" 
d="M80 312h333v-332h-333v332zM120 272v-252h253v252h-253zM763 312h333v-332h-333v332zM803 272v-252h253v252h-253zM1446 312h333v-332h-333v332zM1486 272v-252h253v252h-253z" />
    <glyph glyph-name="perthousand" unicode="&#x2030;" horiz-adv-x="3339" 
d="M720 945q0 -43 -32.5 -75.5t-75.5 -32.5h-131q-43 0 -75.5 32.5t-32.5 75.5v95q0 43 32.5 75.5t75.5 32.5h131q43 0 75.5 -32.5t32.5 -75.5v-95zM2016 380q0 -43 -32.5 -75.5t-75.5 -32.5h-131q-43 0 -75.5 32.5t-32.5 75.5v95q0 43 32.5 75.5t75.5 32.5h131
q43 0 75.5 -32.5t32.5 -75.5v-95zM564 -21l867 1462h394l-867 -1462h-394zM1953 -21h-221q-146 0 -251 105.5t-105 250.5v185q0 146 105 251t251 105h221q145 0 250.5 -105t105.5 -251v-185q0 -145 -105.5 -250.5t-250.5 -105.5zM657 544h-221q-146 0 -251 105t-105 251v185
q0 145 105 250.5t251 105.5h221q145 0 250.5 -105.5t105.5 -250.5v-185q0 -146 -105.5 -251t-250.5 -105zM2966 380q0 -43 -32.5 -75.5t-75.5 -32.5h-131q-43 0 -75.5 32.5t-32.5 75.5v95q0 43 32.5 75.5t75.5 32.5h131q43 0 75.5 -32.5t32.5 -75.5v-95zM2903 -21h-221
q-146 0 -251 105.5t-105 250.5v185q0 146 105 251t251 105h221q145 0 250.5 -105t105.5 -251v-185q0 -145 -105.5 -250.5t-250.5 -105.5zM680 945v95q0 30 -18.5 49t-49.5 19h-131q-31 0 -49.5 -19t-18.5 -49v-95q0 -30 18.5 -49t49.5 -19h131q31 0 49.5 19t18.5 49z
M1976 380v95q0 31 -18.5 49.5t-49.5 18.5h-131q-31 0 -49.5 -18.5t-18.5 -49.5v-95q0 -30 18.5 -49t49.5 -19h131q31 0 49.5 19t18.5 49zM634 19h301l820 1382h-301zM1953 19q133 0 224.5 91.5t91.5 224.5v185q0 133 -91.5 224.5t-224.5 91.5h-221q-133 0 -224.5 -91.5
t-91.5 -224.5v-185q0 -133 91.5 -224.5t224.5 -91.5h221zM657 584q133 0 224.5 91.5t91.5 224.5v185q0 133 -91.5 224.5t-224.5 91.5h-221q-133 0 -224.5 -91.5t-91.5 -224.5v-185q0 -133 91.5 -224.5t224.5 -91.5h221zM2926 380v95q0 31 -18.5 49.5t-49.5 18.5h-131
q-31 0 -49.5 -18.5t-18.5 -49.5v-95q0 -30 18.5 -49t49.5 -19h131q31 0 49.5 19t18.5 49zM2903 19q133 0 224.5 91.5t91.5 224.5v185q0 133 -91.5 224.5t-224.5 91.5h-221q-133 0 -224.5 -91.5t-91.5 -224.5v-185q0 -133 91.5 -224.5t224.5 -91.5h221z" />
    <glyph glyph-name="guilsinglleft" unicode="&#x2039;" horiz-adv-x="1112" 
d="M1032 495v-373l-788 339q-73 31 -118.5 100t-45.5 149t45.5 149t118.5 100l788 339v-373l-500 -215zM992 468l-561 242l561 242v286l-732 -316q-65 -28 -102.5 -84.5t-37.5 -127.5t37.5 -127.5t102.5 -84.5l732 -315v285z" />
    <glyph glyph-name="guilsinglright" unicode="&#x203a;" horiz-adv-x="1112" 
d="M80 495l500 215l-500 215v373l788 -339q73 -31 118.5 -100t45.5 -149t-45.5 -149t-118.5 -100l-788 -339v373zM120 468v-285l733 315q64 28 101.5 84.5t37.5 127.5t-37.5 127.5t-101.5 84.5l-733 316v-286l562 -242z" />
    <glyph glyph-name="minus" unicode="&#x2212;" horiz-adv-x="1124" 
d="M80 876h964v-332h-964v332zM120 836v-252h884v252h-884z" />
    <glyph glyph-name="almostequalto" unicode="&#x2248;" horiz-adv-x="1154" 
d="M821 1069h253v-115q0 -75 -62.5 -133.5t-163.5 -74.5l-159 1q-80 4 -144.5 44t-88.5 101l-1 1q-9 28 -45 28h-30q-22 0 -34.5 -10t-12.5 -27v-82h-253v115q0 84 77 145.5t182 61.5l126 -1q79 -4 143.5 -43.5t89.5 -100.5v-2q10 -28 46 -28h30q22 0 34.5 10t12.5 27v83z
M861 1037v-51q0 -27 -26.5 -48t-60.5 -21h-30q-28 0 -52 15t-31 35l-2 3q-21 53 -74 85.5t-122 36.5h-124q-92 0 -155.5 -50.5t-63.5 -124.5v-83h173v50q0 27 26.5 48t60.5 21h30q28 0 52 -14.5t31 -35.5q1 -2 2 -3q20 -53 73 -85.5t123 -35.5h146q75 5 136 54.5t61 120.5
v83h-173zM821 637h253v-115q0 -75 -62.5 -133.5t-163.5 -74.5l-159 1q-80 4 -144.5 44t-88.5 101l-1 1q-9 28 -45 28h-30q-22 0 -34.5 -10t-12.5 -27v-82h-253v115q0 84 77 145.5t182 61.5l126 -1q79 -4 143.5 -43.5t89.5 -100.5v-2q10 -28 46 -28h30q22 0 34.5 10t12.5 27
v83zM861 605v-51q0 -27 -26.5 -48t-60.5 -21h-30q-28 0 -52 15t-31 35l-2 3q-21 53 -74 85.5t-122 36.5h-124q-92 0 -155.5 -50.5t-63.5 -124.5v-83h173v50q0 27 26.5 48t60.5 21h30q28 0 52 -14.5t31 -35.5q1 -2 2 -3q20 -53 73 -85.5t123 -35.5h146q75 5 136 54.5
t61 120.5v83h-173z" />
    <glyph glyph-name="notequalto" unicode="&#x2260;" horiz-adv-x="1124" 
d="M400 170l90 203h514v253h-401l83 186h318v253h-206l90 202h-164l-90 -202h-514v-253h402l-83 -186h-319v-253h206l-90 -203h164zM426 130h-252l91 203h-185v333h333l47 106h-380v333h528l90 202h252l-90 -202h184v-333h-332l-47 -106h379v-333h-528z" />
    <glyph glyph-name="lessthanorequalto" unicode="&#x2264;" horiz-adv-x="1124" 
d="M1038 695v-335l-788 305q-74 29 -119 90.5t-45 133.5t45 133.5t119 90.5l788 305v-335l-500 -194zM998 671l-561 218l561 217v258l-732 -284q-65 -25 -102.5 -76t-37.5 -115t37.5 -114.5t102.5 -76.5l732 -284v257zM80 313h964v-333h-964v333zM120 273v-253h884v253h-884
z" />
    <glyph glyph-name="greaterthanorequalto" unicode="&#x2265;" horiz-adv-x="1124" 
d="M86 695l500 194l-500 194v335l788 -305q74 -29 119 -90.5t45 -133.5t-45 -133.5t-119 -90.5l-788 -305v335zM126 671v-257l732 284q65 26 102.5 76.5t37.5 114.5t-37.5 115t-102.5 76l-732 284v-258l562 -217zM80 313h964v-333h-964v333zM120 273v-253h884v253h-884z" />
    </font>
</defs>
</svg>
