<?xml version="1.0" standalone="no"?>
<!DOCTYPE svg PUBLIC "-//W3C//DTD SVG 1.1//EN" "http://www.w3.org/Graphics/SVG/1.1/DTD/svg11.dtd" >
<svg xmlns="http://www.w3.org/2000/svg" xmlns:xlink="http://www.w3.org/1999/xlink" version="1.1">
<metadata>
Created by FontForge 20170731 at Wed Aug 17 21:08:22 2022
 By Aleksey,,,
EMOTIQ (c) Enxyclo Studio. 2022. All Rights Reserved
</metadata>
<defs>
<font id="EMOTIQStencilSlant" horiz-adv-x="1493" >
  <font-face 
    font-family="EMOTIQ Stencil Slant"
    font-weight="400"
    font-stretch="normal"
    units-per-em="2048"
    panose-1="2 0 5 0 2 0 0 0 0 0"
    ascent="1638"
    descent="-410"
    x-height="1421"
    cap-height="1421"
    bbox="-191 -330 3202 1935"
    underline-thickness="51"
    underline-position="-152"
    unicode-range="U+0020-2265"
  />
<missing-glyph horiz-adv-x="1024" 
d="M924 0h-824v1434h824v-1434zM874 50v1334h-724v-1334h724zM478 454h-32q-35 99 -35 148q0 76 82 218q81 143 81 217q0 57 -33 90t-91 33q-34 0 -61 -13.5t-64 -43.5v45q81 73 170 73q91 0 147.5 -47t56.5 -128q0 -51 -24 -101t-86 -127q-54 -69 -76 -98.5t-40.5 -66.5
t-18.5 -66q0 -39 24 -133zM466 213q-11 0 -20 10l-61 71q-7 8 -7 18q0 9 11 22l57 58q10 10 20 10q9 0 22 -11l56 -60q9 -10 9 -20q0 -12 -10 -22l-56 -62q-14 -14 -21 -14z" />
    <glyph glyph-name=".notdef" horiz-adv-x="1024" 
d="M924 0h-824v1434h824v-1434zM874 50v1334h-724v-1334h724zM478 454h-32q-35 99 -35 148q0 76 82 218q81 143 81 217q0 57 -33 90t-91 33q-34 0 -61 -13.5t-64 -43.5v45q81 73 170 73q91 0 147.5 -47t56.5 -128q0 -51 -24 -101t-86 -127q-54 -69 -76 -98.5t-40.5 -66.5
t-18.5 -66q0 -39 24 -133zM466 213q-11 0 -20 10l-61 71q-7 8 -7 18q0 9 11 22l57 58q10 10 20 10q9 0 22 -11l56 -60q9 -10 9 -20q0 -12 -10 -22l-56 -62q-14 -14 -21 -14z" />
    <glyph glyph-name=".null" horiz-adv-x="0" 
 />
    <glyph glyph-name="nonmarkingreturn" horiz-adv-x="682" 
 />
    <glyph glyph-name="space" unicode=" " horiz-adv-x="600" 
 />
    <glyph glyph-name="space" unicode="&#xa0;" horiz-adv-x="600" 
 />
    <glyph glyph-name="exclam" unicode="!" horiz-adv-x="493" 
d="M321 423h-292l248 998h293zM-4 292h293l-73 -292h-293z" />
    <glyph glyph-name="quotedbl" unicode="&#x22;" horiz-adv-x="853" 
d="M930 1421l-128 -512l-238 219l73 293h293zM570 1421l-128 -512l-238 219l73 293h293z" />
    <glyph glyph-name="numbersign" unicode="#" horiz-adv-x="1530" 
d="M831 610l50 201h-183l-50 -201h183zM1455 811h-281l-50 -201h281l-73 -294h-281l-79 -317h-293l79 317h-183l-79 -317h-293l79 317h-280l73 294h281l50 201h-281l73 293h281l79 317h292l-79 -317h184l79 317h292l-79 -317h281z" />
    <glyph glyph-name="dollar" unicode="$" 
d="M1042 476q3 10 3 21q0 29 -19 48t-50 19h-109l-38 -150h-293l38 150h-175q-117 0 -189.5 72t-72.5 183q0 41 10 81l27 107h293l-16 -62q-3 -11 -3 -21q0 -29 19.5 -48t49.5 -19h130l37 150h293l-37 -150h154q117 0 189.5 -72t72.5 -183q0 -41 -10 -81l-27 -107h-292z
M1286 293q-47 -125 -162.5 -209t-243.5 -84h-154l-46 -183h-292l45 183h-510l73 293h1290zM207 1129q47 124 162.5 208t243.5 84h175l45 183h293l-46 -183h490l-73 -292h-1290z" />
    <glyph glyph-name="percent" unicode="%" horiz-adv-x="2389" 
d="M621 564h-50l73 293h5q37 0 69 25.5t41 62.5l24 95q3 10 3 21q0 29 -19 48t-50 19h-6l73 293h51q117 0 189.5 -72t72.5 -183q0 -41 -10 -81l-47 -185q-35 -139 -157.5 -237.5t-261.5 -98.5zM422 0l1198 1421h347l-1198 -1421h-347zM1776 0h-50l73 292h5q37 0 69 26t41 62
l24 95q3 11 3 21q0 29 -19 48t-50 19h-5l73 293h50q117 0 189.5 -72t72.5 -183q0 -41 -10 -81l-46 -185q-35 -139 -158 -237t-262 -98zM1818 856l-73 -293h-5q-37 0 -69 -25.5t-41 -62.5l-23 -95q-3 -12 -3 -22q0 -29 19 -47.5t50 -18.5h5l-73 -292h-50q-117 0 -190 71.5
t-73 181.5q0 38 11 82l46 185q34 139 157 237.5t262 98.5h50zM663 1421l-73 -293h-5q-37 0 -69 -25.5t-41 -62.5l-24 -95q-3 -11 -3 -21q0 -29 19 -48t50 -19h6l-73 -293h-51q-117 0 -189.5 72t-72.5 183q0 41 10 81l47 185q34 139 157 237.5t262 98.5h50z" />
    <glyph glyph-name="ampersand" unicode="&#x26;" horiz-adv-x="1573" 
d="M893 1l140 563h-137l73 293h540l-73 -293h-111l-58 -237q-31 -126 -138.5 -219t-235.5 -107zM845 292l-74 -293h-512q-117 0 -190 71.5t-73 182.5q0 38 11 82l47 192q26 100 102 184q-20 49 -20 103q0 41 10 80l49 198q31 126 139 219.5t236 107.5l-118 -470
q-3 -11 -3 -21q0 -31 20 -51t53 -20h154l-73 -293h-154q-38 0 -72 -27t-44 -65l-23 -92q-3 -10 -3 -21q0 -29 19.5 -48t50.5 -19h468zM618 1129l73 292h520q114 0 185.5 -70.5t71.5 -179.5q0 -40 -10 -79l-30 -119h-292l15 64q3 12 3 23q0 26 -13 42q-21 27 -59 27h-464z
" />
    <glyph glyph-name="quotesingle" unicode="'" horiz-adv-x="493" 
d="M570 1421l-128 -512l-238 219l73 293h293z" />
    <glyph glyph-name="parenleft" unicode="(" horiz-adv-x="794" 
d="M435 -330h-265q-114 0 -185.5 71t-71.5 179q0 40 10 80l162 650h293l-148 -594q-3 -12 -3 -23q0 -31 20 -50.5t52 -19.5h209zM408 771h-293l162 650q35 137 155.5 233.5t256.5 96.5h265l-73 -293h-209q-39 0 -72.5 -27t-43.5 -65z" />
    <glyph glyph-name="parenright" unicode=")" horiz-adv-x="794" 
d="M-159 -330l73 293h209q38 0 72 27t43 66l149 594h292l-162 -650q-34 -137 -154.5 -233.5t-256.5 -96.5h-265zM417 771l148 595q3 12 3 22q0 30 -20 50t-52 20h-210l73 293h265q115 0 186.5 -71t71.5 -180q0 -40 -10 -79l-163 -650h-292z" />
    <glyph glyph-name="asterisk" unicode="*" horiz-adv-x="765" 
d="M786 1194l-28 -112h-147l78 -104l-99 -79l-78 104l-37 -147h-112l37 147l-131 -104l-59 79l130 104h-147l28 112h147l-78 105l99 79l78 -105l37 148h112l-37 -148l131 105l59 -79l-130 -105h147z" />
    <glyph glyph-name="plus" unicode="+" horiz-adv-x="1124" 
d="M1061 856l-73 -292h-316l-79 -316h-292l78 316h-315l73 292h315l79 316h293l-79 -316h316z" />
    <glyph glyph-name="comma" unicode="," horiz-adv-x="493" 
d="M-4 292h293l-73 -292l-348 -219z" />
    <glyph glyph-name="hyphenminus" unicode="-" horiz-adv-x="1124" 
d="M137 856h924l-73 -292h-924z" />
    <glyph glyph-name="hyphenminus" unicode="&#xad;" horiz-adv-x="1124" 
d="M137 856h924l-73 -292h-924z" />
    <glyph glyph-name="period" unicode="." horiz-adv-x="493" 
d="M-4 292h293l-73 -292h-293z" />
    <glyph glyph-name="slash" unicode="/" horiz-adv-x="1391" 
d="M-77 -1l1198 1422h347l-1198 -1422h-347z" />
    <glyph glyph-name="zero" unicode="0" 
d="M850 564h-280l73 293h280zM1177 1421q144 0 233 -60.5t89 -181.5q0 -42 -12 -93l-187 -750q-34 -139 -157 -237.5t-263 -98.5h-543l73 292h498q37 0 69 26t41 63l165 659q3 10 3 21q0 29 -19 48t-50 19h-499l73 293h486zM216 3q-100 13 -160 82t-60 169q0 38 11 82
l187 750q31 127 139 221.5t236 110.5z" />
    <glyph glyph-name="one" unicode="1" horiz-adv-x="665" 
d="M204 1128l73 293h465l-354 -1421h-293l281 1128h-172z" />
    <glyph glyph-name="two" unicode="2" 
d="M333 472l-118 -472h-292l131 527q35 137 155.5 233.5t256.5 96.5h579q39 0 71 27q34 26 47 79l114 456q100 -11 160.5 -79.5t60.5 -167.5q0 -41 -10 -80l-50 -198q-34 -137 -154.5 -233.5t-256.5 -96.5h-579q-38 0 -71.5 -27t-43.5 -65zM337 0l73 293h879l-73 -293h-879z
M1156 1421l-73 -293h-879l73 293h879z" />
    <glyph glyph-name="three" unicode="3" 
d="M1016 857l-73 -293h-879l73 293h879zM875 293l-73 -293h-879l73 293h879zM924 3l353 1415q100 -13 160 -82t60 -169q0 -41 -10 -81l-46 -186q-27 -104 -107 -189q22 -52 22 -109q0 -41 -10 -81l-46 -185q-32 -127 -140 -222t-236 -111zM1156 1421l-72 -293h-880l73 293
h879z" />
    <glyph glyph-name="four" unicode="4" 
d="M1278 1421h293l-355 -1421h-293q59 237 177.5 710.5t177.5 710.5zM1016 857l-73 -293h-550q-114 0 -185.5 70.5t-71.5 178.5q0 40 10 80l131 528h293l-118 -472q-3 -11 -3 -21q0 -31 20 -51t53 -20h494z" />
    <glyph glyph-name="five" unicode="5" 
d="M430 858h670q137 0 209 -97q49 -66 49 -155q0 -35 -10 -78l-50 -199q-31 -127 -139 -220.5t-236 -107.5l118 471q3 12 3 22q0 24 -14 44q-21 27 -58 27h-908l214 857h292zM875 293l-73 -293l-879 1l73 292h879zM618 1129l73 293h880l-73 -293h-880z" />
    <glyph glyph-name="six" unicode="6" 
d="M904 293q38 0 72 27t43 65l22 88q3 12 3 23q0 30 -20 49.5t-52 19.5h-494l73 293h550q114 0 185.5 -71t71.5 -179q0 -40 -10 -80l-50 -199q-34 -136 -154 -232.5t-257 -96.5h-550l73 293h494zM1497 1128q-146 0 -439 0.5t-440 0.5l73 293q147 0 440.5 -0.5t438.5 -0.5z
M570 1420l-354 -1418q-100 11 -160.5 79.5t-60.5 167.5q0 41 10 80l190 764q32 126 140 219.5t235 107.5z" />
    <glyph glyph-name="seven" unicode="7" 
d="M685 472l-118 -472h-292l131 527q35 137 155.5 233t256.5 96l198 1l-73 -293h-143q-37 0 -72 -27q-34 -29 -43 -65zM1065 566l212 853q100 -11 160.5 -79.5t60.5 -167.5q0 -40 -10 -80l-49 -198q-31 -127 -139 -220.5t-235 -107.5zM1157 1421l-73 -293h-880l73 293h880z
" />
    <glyph glyph-name="eight" unicode="8" 
d="M451 945q-3 -11 -3 -21q0 -29 19.5 -48t49.5 -19h206l-74 -293h-205q-37 0 -69 -26t-41 -62l-23 -95q-3 -12 -3 -22q0 -29 19 -47.5t50 -18.5h498l-73 -293h-543q-117 0 -190 71.5t-73 181.5q0 37 11 83l46 185q25 105 106 190q-22 52 -22 108q0 41 10 81l47 186
q31 127 139 221.5t236 111.5zM844 857h205q37 0 69 26t41 62l24 95q3 10 3 21q0 29 -19 48t-50 19h-499l73 293h544q117 0 189.5 -71.5t72.5 -182.5q0 -41 -10 -81l-46 -186q-27 -104 -107 -189q22 -52 22 -109q0 -41 -10 -81l-46 -185q-32 -127 -140 -222t-236 -111
l118 473q3 10 3 21q0 29 -19 48t-50 19h-205z" />
    <glyph glyph-name="nine" unicode="9" 
d="M589 1130q-38 0 -71.5 -27.5t-43.5 -65.5l-22 -88q-3 -11 -3 -22q0 -30 20 -50t52 -20h495l-73 -293h-550q-114 0 -185.5 70.5t-71.5 178.5q0 41 10 81l49 199q35 137 155.5 233t256.5 96h550l-73 -292h-495zM924 2l353 1418q100 -11 161 -80t61 -168q0 -40 -10 -79
l-191 -764q-31 -126 -139 -219.5t-235 -107.5zM-4 294q146 0 439 -0.5t440 -0.5l-73 -293q-147 0 -440 0.5t-439 0.5z" />
    <glyph glyph-name="colon" unicode=":" horiz-adv-x="493" 
d="M190 1072h293l-73 -292h-293zM83 640h292l-73 -292h-292z" />
    <glyph glyph-name="semicolon" unicode=";" horiz-adv-x="493" 
d="M-4 292h293l-73 -292l-348 -219zM190 1072h293l-73 -292h-293z" />
    <glyph glyph-name="less" unicode="&#x3c;" horiz-adv-x="1105" 
d="M948 482l-82 -330l-679 328q-48 23 -75 68t-27 102h514zM630 771h-515q29 57 78 101.5t109 68.5l842 327l-82 -329z" />
    <glyph glyph-name="equal" unicode="=" horiz-adv-x="1124" 
d="M933 344h-924l73 293h924zM1042 783h-924l73 293h924z" />
    <glyph glyph-name="greater" unicode="&#x3e;" horiz-adv-x="1105" 
d="M43 482l432 168h515q-28 -57 -77.5 -102t-109.5 -68l-842 -328zM505 771l-348 168l82 329l679 -327q49 -24 75.5 -69t26.5 -101h-515z" />
    <glyph glyph-name="question" unicode="?" 
d="M348 292h292l-72 -292h-293zM685 472l-12 -48h-293l26 103q35 137 155.5 233t256.5 96l227 1q39 0 72 27q34 27 43 65l117 470q100 -11 160.5 -79.5t60.5 -167.5q0 -40 -10 -80l-49 -198q-35 -137 -155.5 -233.5t-256.5 -96.5h-227q-37 0 -72 -27q-34 -29 -43 -65z
M1156 1421l-73 -293h-879l73 293h879z" />
    <glyph glyph-name="at" unicode="@" horiz-adv-x="1613" 
d="M657 541h156l-50 -198q-10 -2 -29 -2h-165q-78 0 -126.5 48t-48.5 122q0 28 7 55l72 289q23 94 105 159.5t176 65.5h514l-118 -476q-2 -6 -2 -16q0 -17 9 -29q13 -18 40 -18h10q27 0 50 18q23 20 29 45l138 554q2 10 2 16q0 21 -13.5 34t-35.5 13h-828l49 200h867
q78 0 127 -48.5t49 -122.5q0 -27 -7 -54l-157 -630q-23 -94 -105.5 -159.5t-175.5 -65.5h-112q-55 0 -95 27.5t-54 75.5q-19 -23 -34 -35l118 471h-277q-27 0 -49 -18t-30 -45l-53 -213q-2 -10 -2 -15q0 -17 10 -30q12 -18 39 -18zM477 1420l-288 -1157q-2 -10 -2 -16
q0 -21 13.5 -34t35.5 -13h1150l-50 -200h-1188q-78 0 -127 48.5t-49 122.5q0 27 7 54l242 971q22 87 95.5 150.5t160.5 73.5z" />
    <glyph glyph-name="A" unicode="A" 
d="M1117 1128h-499l73 293h544q117 0 189.5 -72t72.5 -183q0 -41 -10 -81l-271 -1085h-293l73 292h-586l73 293h586l114 455q3 12 3 23q0 30 -18.5 47.5t-50.5 17.5zM216 0h-293l271 1085q31 127 139 222t236 111z" />
    <glyph glyph-name="B" unicode="B" 
d="M1159 945l24 95q3 10 3 21q0 29 -19 48t-50 19h-499l73 293h544q117 0 189.5 -71.5t72.5 -182.5q0 -41 -10 -81l-46 -186q-27 -104 -107 -189q22 -52 22 -109q0 -41 -10 -81l-46 -185q-35 -140 -158 -238t-262 -98h-543l73 293h498q37 0 69 25.5t41 62.5l24 95q3 10 3 21
q0 29 -19 48t-50 19h-499l74 293h498q37 0 69 26t41 62zM-77 0l354 1421h293l-354 -1421h-293z" />
    <glyph glyph-name="C" unicode="C" 
d="M618 1128l73 293h879l-73 -293h-879zM569 1418l-353 -1415q-100 13 -160 82t-60 169q0 38 11 82l187 750q31 127 139 221.5t236 110.5zM337 0l73 293h879l-73 -293h-879z" />
    <glyph glyph-name="D" unicode="D" 
d="M1019 385l163 651q3 10 3 22q0 30 -20 50t-52 20h-495l73 293h550q114 0 185.5 -70t71.5 -178q0 -41 -10 -81l-190 -763q-34 -136 -154 -232.5t-257 -96.5h-550l73 293h494q38 0 72 27t43 65zM570 1421l-354 -1421h-293l354 1421h293z" />
    <glyph glyph-name="E" unicode="E" 
d="M216 3q-100 13 -160 82t-60 169q0 38 11 82l46 185q25 105 106 190q-22 52 -22 108q0 41 10 81l47 186q31 127 139 221.5t236 110.5zM551 857h879l-73 -292q-146 0 -439.5 -0.5t-440.5 -0.5zM410 293h879l-73 -293h-879zM691 1421h879l-73 -293h-879z" />
    <glyph glyph-name="F" unicode="F" 
d="M216 0h-293l130 521q25 105 106 190q-22 52 -22 108q0 41 10 81l47 186q31 127 139 221.5t236 110.5zM551 857h879l-73 -292l-880 -1zM691 1421h879l-73 -293h-879z" />
    <glyph glyph-name="G" unicode="G" 
d="M618 1128l73 293h861l-73 -293h-861zM569 1418l-353 -1415q-100 13 -160 82t-60 169q0 38 11 82l187 750q31 127 139 221.5t236 110.5zM337 0l73 293h586l46 183q3 10 3 21q0 29 -19 48t-50 19h-419l73 293h464q117 0 189.5 -72t72.5 -183q0 -41 -10 -81l-130 -521h-879z
" />
    <glyph glyph-name="H" unicode="H" 
d="M1278 1421h292l-354 -1421h-293l141 564h-587l73 293h587zM570 1421l-354 -1421h-293l354 1421h293z" />
    <glyph glyph-name="I" unicode="I" horiz-adv-x="493" 
d="M-77 0l354 1421h293l-354 -1421h-293z" />
    <glyph glyph-name="J" unicode="J" 
d="M1570 1421l-270 -1085q-32 -127 -140 -222t-236 -111l354 1418h292zM875 293l-73 -293h-879l73 293h879z" />
    <glyph glyph-name="K" unicode="K" 
d="M-77 0l354 1421h293l-354 -1421h-293zM478 564l73 293h508q34 4 63 29t37 59l119 476h292l-124 -499q-31 -126 -111 -211q22 -51 22 -104q0 -44 -16 -108l-125 -499h-293l119 476q3 12 3 22q0 26 -16 44.5t-43 21.5h-508z" />
    <glyph glyph-name="L" unicode="L" 
d="M277 1421h293l-354 -1418q-100 13 -160 82t-60 169q0 38 11 82zM410 293h879l-73 -293h-879z" />
    <glyph glyph-name="M" unicode="M" horiz-adv-x="2192" 
d="M-77 0l271 1086q31 127 139 221.5t236 110.5l-353 -1418h-293zM618 1128l73 293h110q117 0 189.5 -71.5t72.5 -182.5q0 -41 -10 -81l-103 -413q-3 -12 -3 -22q0 -29 19 -47.5t50 -18.5h98q37 0 68.5 25.5t41.5 62.5l103 413q35 139 157.5 237t261.5 98h187
q117 0 190 -71.5t73 -182.5q0 -41 -10 -81l-271 -1086h-293l259 1040q3 10 3 22q0 29 -19 47.5t-50 18.5h-97q-37 0 -69 -25.5t-41 -62.5l-103 -412q-35 -139 -157.5 -237.5t-261.5 -98.5h-188q-117 0 -189.5 72t-72.5 183q0 41 10 81l103 412q3 10 3 21q0 29 -19 48t-50 19
h-65z" />
    <glyph glyph-name="N" unicode="N" horiz-adv-x="1626" 
d="M-77 0l271 1086q31 127 139 221.5t236 110.5l-353 -1418h-293zM618 1128l73 293h110q117 0 189.5 -71.5t72.5 -181.5q0 -38 -11 -82l-175 -705q-3 -12 -3 -22q0 -29 19 -47.5t50 -18.5h98q37 0 68.5 25.5t41.5 62.5l259 1040h293l-271 -1085q-35 -140 -157.5 -238
t-261.5 -98h-188q-117 0 -189.5 72t-72.5 183q0 41 10 81l176 704q3 10 3 22q0 29 -19 47.5t-50 18.5h-65z" />
    <glyph glyph-name="O" unicode="O" 
d="M1235 1421q117 0 189.5 -71.5t72.5 -182.5q0 -41 -10 -81l-187 -750q-35 -140 -158 -238t-262 -98h-543l73 292h485q48 0 82 26q32 26 41 63l165 659q3 10 3 21q0 29 -19 48t-50 19h-499l73 293h544zM216 3q-100 13 -160 82t-60 169q0 38 11 82l187 750q31 127 139 221.5
t236 110.5z" />
    <glyph glyph-name="P" unicode="P" horiz-adv-x="1494" 
d="M1093 677l89 359q3 12 3 23q0 30 -20 49.5t-52 19.5h-495l73 293h551q114 0 185.5 -70.5t71.5 -178.5q0 -40 -10 -80l-117 -470q-35 -137 -155.5 -233.5t-256.5 -96.5h-550l73 293h495q38 0 71.5 27t43.5 65zM570 1421l-354 -1421h-293l354 1421h293z" />
    <glyph glyph-name="Q" unicode="Q" 
d="M1183 1040q3 10 3 21q0 29 -19 48t-50 19h-499l73 293h544q117 0 189.5 -71.5t72.5 -182.5q0 -41 -10 -81l-187 -750q-26 -107 -112 -196q13 -35 52 -41l-73 -294h-32q-100 0 -169 53.5t-87 141.5h-542l73 293h498q37 0 69 25.5t41 62.5zM216 3q-100 13 -160 82t-60 169
q0 38 11 82l187 750q31 127 139 221.5t236 110.5z" />
    <glyph glyph-name="R" unicode="R" horiz-adv-x="1494" 
d="M1093 677l89 359q3 12 3 23q0 30 -20 50t-52 20h-495l73 292h551q114 0 185.5 -70.5t71.5 -178.5q0 -40 -10 -80l-117 -470q-27 -105 -103 -185q20 -49 20 -106q0 -42 -10 -82l-62 -249h-293l51 204q3 12 3 22q0 28 -17.5 46.5t-46.5 19.5h-504l73 293h500
q37 2 68.5 28.5t41.5 63.5zM570 1421l-354 -1421h-293l354 1421h293z" />
    <glyph glyph-name="S" unicode="S" 
d="M1042 476q3 10 3 21q0 29 -19 48t-50 19h-577q-117 0 -189.5 72t-72.5 183q0 41 10 81l47 185q31 127 139 222t236 111l-118 -473q-3 -11 -3 -21q0 -29 19.5 -48t49.5 -19h577q117 0 189.5 -72t72.5 -183q0 -41 -10 -81l-46 -185q-32 -127 -140 -222t-236 -111zM691 1421
h879l-73 -293h-879zM802 0h-879l73 293h879z" />
    <glyph glyph-name="T" unicode="T" horiz-adv-x="1494" 
d="M716 0h-293l260 1040q3 10 3 21q0 29 -19.5 48t-50.5 19h-412l73 293h793zM1191 1421h380l-73 -293h-379z" />
    <glyph glyph-name="U" unicode="U" 
d="M909 293q36 0 68 25.5t41 62.5l260 1040h292l-270 -1085q-35 -140 -158 -238t-262 -98h-543l73 293h499zM570 1421l-354 -1418q-100 13 -160 82t-60 169q0 38 11 82l270 1085h293z" />
    <glyph glyph-name="V" unicode="V" horiz-adv-x="1444" 
d="M1167 0h-830l73 293h538l281 1128h293zM570 1421l-354 -1418q-100 13 -160 82t-60 169q0 38 11 82l270 1085h293z" />
    <glyph glyph-name="W" unicode="W" horiz-adv-x="2192" 
d="M277 1421h293l-354 -1418q-100 13 -160 82t-60 169q0 38 11 82zM410 293h64q37 0 69 25.5t41 62.5l103 412q34 139 157 237.5t263 98.5h187q117 0 189.5 -71.5t72.5 -182.5q0 -42 -10 -82l-103 -412q-3 -10 -3 -22q0 -29 19 -47.5t50 -18.5h98q37 0 69 25.5t41 62.5
l260 1040h293l-271 -1085q-34 -139 -157.5 -237.5t-262.5 -98.5h-188q-117 0 -189.5 72t-72.5 183q0 41 10 81l103 412q3 11 3 22q0 29 -19 47.5t-50 18.5h-97q-37 0 -69 -25.5t-41 -62.5l-103 -412q-34 -139 -157.5 -237.5t-262.5 -98.5h-109z" />
    <glyph glyph-name="X" unicode="X" 
d="M1049 857q37 0 69 26t41 62l119 476h292l-130 -521q-25 -105 -105 -189q21 -48 21 -108q0 -42 -10 -82l-130 -521h-293l119 476q3 10 3 21q0 29 -19 48t-50 19h-499l74 293h498zM570 1421l-354 -1421h-293l130 521q25 105 106 190q-22 50 -22 108q0 41 10 81l130 521h293
z" />
    <glyph glyph-name="Y" unicode="Y" 
d="M929 857l-213 -857h-293l141 564h-165q-117 0 -189.5 72t-72.5 183q0 41 10 81l130 521h293l-119 -476q-3 -11 -3 -21q0 -29 19 -48t50 -19h412zM978 564l73 293q36 0 67.5 26t40.5 62l119 476h292l-130 -521q-34 -139 -157 -237.5t-262 -98.5h-43z" />
    <glyph glyph-name="Z" unicode="Z" 
d="M334 476l-118 -473q-100 13 -160 82t-60 169q0 38 11 82l46 185q35 139 157.5 237.5t261.5 98.5h577q37 0 69 26t41 62l118 473q100 -13 160 -82.5t60 -169.5q0 -41 -10 -81l-46 -185q-35 -139 -158 -237.5t-262 -98.5h-577q-36 0 -68.5 -26t-41.5 -62zM1156 1421
l-73 -293h-879l73 293h879zM337 0l73 293h879l-73 -293h-879z" />
    <glyph glyph-name="bracketleft" unicode="[" horiz-adv-x="794" 
d="M435 -330h-594l244 980h293l-171 -687h301zM408 771h-293l244 980h594l-73 -293h-301z" />
    <glyph glyph-name="backslash" unicode="\" horiz-adv-x="1391" 
d="M1114 -1h-348l-489 1422h348z" />
    <glyph glyph-name="bracketright" unicode="]" horiz-adv-x="794" 
d="M-159 -330l73 293h301l171 687h293l-244 -980h-594zM416 771l172 687h-302l73 293h594l-244 -980h-293z" />
    <glyph glyph-name="asciicircum" unicode="^" horiz-adv-x="966" 
d="M415 856h-278l296 437q30 43 73.5 74.5t90.5 44.5l-113 -454zM605 957l114 455q41 -13 69 -44.5t35 -74.5l79 -437h-279z" />
    <glyph glyph-name="underscore" unicode="_" horiz-adv-x="1490" 
d="M-4 292h1290l-73 -293h-1290z" />
    <glyph glyph-name="a" unicode="a" 
d="M1117 1128h-499l73 293h544q117 0 189.5 -72t72.5 -183q0 -41 -10 -81l-271 -1085h-293l73 292h-586l73 293h586l114 455q3 12 3 23q0 30 -18.5 47.5t-50.5 17.5zM216 0h-293l271 1085q31 127 139 222t236 111z" />
    <glyph glyph-name="b" unicode="b" 
d="M1159 945l24 95q3 10 3 21q0 29 -19 48t-50 19h-499l73 293h544q117 0 189.5 -71.5t72.5 -182.5q0 -41 -10 -81l-46 -186q-27 -104 -107 -189q22 -52 22 -109q0 -41 -10 -81l-46 -185q-35 -140 -158 -238t-262 -98h-543l73 293h498q37 0 69 25.5t41 62.5l24 95q3 10 3 21
q0 29 -19 48t-50 19h-499l74 293h498q37 0 69 26t41 62zM-77 0l354 1421h293l-354 -1421h-293z" />
    <glyph glyph-name="c" unicode="c" 
d="M618 1128l73 293h879l-73 -293h-879zM569 1418l-353 -1415q-100 13 -160 82t-60 169q0 38 11 82l187 750q31 127 139 221.5t236 110.5zM337 0l73 293h879l-73 -293h-879z" />
    <glyph glyph-name="d" unicode="d" 
d="M1019 385l163 651q3 10 3 22q0 30 -20 50t-52 20h-495l73 293h550q114 0 185.5 -70t71.5 -178q0 -41 -10 -81l-190 -763q-34 -136 -154 -232.5t-257 -96.5h-550l73 293h494q38 0 72 27t43 65zM570 1421l-354 -1421h-293l354 1421h293z" />
    <glyph glyph-name="e" unicode="e" 
d="M216 3q-100 13 -160 82t-60 169q0 38 11 82l46 185q25 105 106 190q-22 52 -22 108q0 41 10 81l47 186q31 127 139 221.5t236 110.5zM551 857h879l-73 -292q-146 0 -439.5 -0.5t-440.5 -0.5zM410 293h879l-73 -293h-879zM691 1421h879l-73 -293h-879z" />
    <glyph glyph-name="f" unicode="f" 
d="M216 0h-293l130 521q25 105 106 190q-22 52 -22 108q0 41 10 81l47 186q31 127 139 221.5t236 110.5zM551 857h879l-73 -292l-880 -1zM691 1421h879l-73 -293h-879z" />
    <glyph glyph-name="g" unicode="g" 
d="M618 1128l73 293h861l-73 -293h-861zM569 1418l-353 -1415q-100 13 -160 82t-60 169q0 38 11 82l187 750q31 127 139 221.5t236 110.5zM337 0l73 293h586l46 183q3 10 3 21q0 29 -19 48t-50 19h-419l73 293h464q117 0 189.5 -72t72.5 -183q0 -41 -10 -81l-130 -521h-879z
" />
    <glyph glyph-name="h" unicode="h" 
d="M1278 1421h292l-354 -1421h-293l141 564h-587l73 293h587zM570 1421l-354 -1421h-293l354 1421h293z" />
    <glyph glyph-name="i" unicode="i" horiz-adv-x="493" 
d="M-77 0l354 1421h293l-354 -1421h-293z" />
    <glyph glyph-name="j" unicode="j" 
d="M1570 1421l-270 -1085q-32 -127 -140 -222t-236 -111l354 1418h292zM875 293l-73 -293h-879l73 293h879z" />
    <glyph glyph-name="k" unicode="k" 
d="M-77 0l354 1421h293l-354 -1421h-293zM478 564l73 293h508q34 4 63 29t37 59l119 476h292l-124 -499q-31 -126 -111 -211q22 -51 22 -104q0 -44 -16 -108l-125 -499h-293l119 476q3 12 3 22q0 26 -16 44.5t-43 21.5h-508z" />
    <glyph glyph-name="l" unicode="l" 
d="M277 1421h293l-354 -1418q-100 13 -160 82t-60 169q0 38 11 82zM410 293h879l-73 -293h-879z" />
    <glyph glyph-name="m" unicode="m" horiz-adv-x="2192" 
d="M-77 0l271 1086q31 127 139 221.5t236 110.5l-353 -1418h-293zM618 1128l73 293h110q117 0 189.5 -71.5t72.5 -182.5q0 -41 -10 -81l-103 -413q-3 -12 -3 -22q0 -29 19 -47.5t50 -18.5h98q37 0 68.5 25.5t41.5 62.5l103 413q35 139 157.5 237t261.5 98h187
q117 0 190 -71.5t73 -182.5q0 -41 -10 -81l-271 -1086h-293l259 1040q3 10 3 22q0 29 -19 47.5t-50 18.5h-97q-37 0 -69 -25.5t-41 -62.5l-103 -412q-35 -139 -157.5 -237.5t-261.5 -98.5h-188q-117 0 -189.5 72t-72.5 183q0 41 10 81l103 412q3 10 3 21q0 29 -19 48t-50 19
h-65z" />
    <glyph glyph-name="n" unicode="n" horiz-adv-x="1626" 
d="M-77 0l271 1086q31 127 139 221.5t236 110.5l-353 -1418h-293zM618 1128l73 293h110q117 0 189.5 -71.5t72.5 -181.5q0 -38 -11 -82l-175 -705q-3 -12 -3 -22q0 -29 19 -47.5t50 -18.5h98q37 0 68.5 25.5t41.5 62.5l259 1040h293l-271 -1085q-35 -140 -157.5 -238
t-261.5 -98h-188q-117 0 -189.5 72t-72.5 183q0 41 10 81l176 704q3 10 3 22q0 29 -19 47.5t-50 18.5h-65z" />
    <glyph glyph-name="o" unicode="o" 
d="M1235 1421q117 0 189.5 -71.5t72.5 -182.5q0 -41 -10 -81l-187 -750q-35 -140 -158 -238t-262 -98h-543l73 292h485q48 0 82 26q32 26 41 63l165 659q3 10 3 21q0 29 -19 48t-50 19h-499l73 293h544zM216 3q-100 13 -160 82t-60 169q0 38 11 82l187 750q31 127 139 221.5
t236 110.5z" />
    <glyph glyph-name="p" unicode="p" horiz-adv-x="1494" 
d="M1093 677l89 359q3 12 3 23q0 30 -20 49.5t-52 19.5h-495l73 293h551q114 0 185.5 -70.5t71.5 -178.5q0 -40 -10 -80l-117 -470q-35 -137 -155.5 -233.5t-256.5 -96.5h-550l73 293h495q38 0 71.5 27t43.5 65zM570 1421l-354 -1421h-293l354 1421h293z" />
    <glyph glyph-name="q" unicode="q" 
d="M1183 1040q3 10 3 21q0 29 -19 48t-50 19h-499l73 293h544q117 0 189.5 -71.5t72.5 -182.5q0 -41 -10 -81l-187 -750q-26 -107 -112 -196q13 -35 52 -41l-73 -294h-32q-100 0 -169 53.5t-87 141.5h-542l73 293h498q37 0 69 25.5t41 62.5zM216 3q-100 13 -160 82t-60 169
q0 38 11 82l187 750q31 127 139 221.5t236 110.5z" />
    <glyph glyph-name="r" unicode="r" horiz-adv-x="1494" 
d="M1093 677l89 359q3 12 3 23q0 30 -20 50t-52 20h-495l73 292h551q114 0 185.5 -70.5t71.5 -178.5q0 -40 -10 -80l-117 -470q-27 -105 -103 -185q20 -49 20 -106q0 -42 -10 -82l-62 -249h-293l51 204q3 12 3 22q0 28 -17.5 46.5t-46.5 19.5h-504l73 293h500
q37 2 68.5 28.5t41.5 63.5zM570 1421l-354 -1421h-293l354 1421h293z" />
    <glyph glyph-name="s" unicode="s" 
d="M1042 476q3 10 3 21q0 29 -19 48t-50 19h-577q-117 0 -189.5 72t-72.5 183q0 41 10 81l47 185q31 127 139 222t236 111l-118 -473q-3 -11 -3 -21q0 -29 19.5 -48t49.5 -19h577q117 0 189.5 -72t72.5 -183q0 -41 -10 -81l-46 -185q-32 -127 -140 -222t-236 -111zM691 1421
h879l-73 -293h-879zM802 0h-879l73 293h879z" />
    <glyph glyph-name="t" unicode="t" horiz-adv-x="1494" 
d="M716 0h-293l260 1040q3 10 3 21q0 29 -19.5 48t-50.5 19h-412l73 293h793zM1191 1421h380l-73 -293h-379z" />
    <glyph glyph-name="u" unicode="u" 
d="M909 293q36 0 68 25.5t41 62.5l260 1040h292l-270 -1085q-35 -140 -158 -238t-262 -98h-543l73 293h499zM570 1421l-354 -1418q-100 13 -160 82t-60 169q0 38 11 82l270 1085h293z" />
    <glyph glyph-name="v" unicode="v" horiz-adv-x="1444" 
d="M1167 0h-830l73 293h538l281 1128h293zM570 1421l-354 -1418q-100 13 -160 82t-60 169q0 38 11 82l270 1085h293z" />
    <glyph glyph-name="w" unicode="w" horiz-adv-x="2192" 
d="M277 1421h293l-354 -1418q-100 13 -160 82t-60 169q0 38 11 82zM410 293h64q37 0 69 25.5t41 62.5l103 412q34 139 157 237.5t263 98.5h187q117 0 189.5 -71.5t72.5 -182.5q0 -42 -10 -82l-103 -412q-3 -10 -3 -22q0 -29 19 -47.5t50 -18.5h98q37 0 69 25.5t41 62.5
l260 1040h293l-271 -1085q-34 -139 -157.5 -237.5t-262.5 -98.5h-188q-117 0 -189.5 72t-72.5 183q0 41 10 81l103 412q3 11 3 22q0 29 -19 47.5t-50 18.5h-97q-37 0 -69 -25.5t-41 -62.5l-103 -412q-34 -139 -157.5 -237.5t-262.5 -98.5h-109z" />
    <glyph glyph-name="x" unicode="x" 
d="M1049 857q37 0 69 26t41 62l119 476h292l-130 -521q-25 -105 -105 -189q21 -48 21 -108q0 -42 -10 -82l-130 -521h-293l119 476q3 10 3 21q0 29 -19 48t-50 19h-499l74 293h498zM570 1421l-354 -1421h-293l130 521q25 105 106 190q-22 50 -22 108q0 41 10 81l130 521h293
z" />
    <glyph glyph-name="y" unicode="y" 
d="M929 857l-213 -857h-293l141 564h-165q-117 0 -189.5 72t-72.5 183q0 41 10 81l130 521h293l-119 -476q-3 -11 -3 -21q0 -29 19 -48t50 -19h412zM978 564l73 293q36 0 67.5 26t40.5 62l119 476h292l-130 -521q-34 -139 -157 -237.5t-262 -98.5h-43z" />
    <glyph glyph-name="z" unicode="z" 
d="M334 476l-118 -473q-100 13 -160 82t-60 169q0 38 11 82l46 185q35 139 157.5 237.5t261.5 98.5h577q37 0 69 26t41 62l118 473q100 -13 160 -82.5t60 -169.5q0 -41 -10 -81l-46 -185q-35 -139 -158 -237.5t-262 -98.5h-577q-36 0 -68.5 -26t-41.5 -62zM1156 1421
l-73 -293h-879l73 293h879zM337 0l73 293h879l-73 -293h-879z" />
    <glyph glyph-name="bar" unicode="|" horiz-adv-x="493" 
d="M-159 -330l518 2080h293l-519 -2080h-292z" />
    <glyph glyph-name="asciitilde" unicode="~" horiz-adv-x="1154" 
d="M877 857h213l-30 -123q-25 -100 -112.5 -170t-187.5 -70q-119 1 -124 1q-74 4 -121.5 49.5t-51.5 116.5v3q-1 22 -15.5 35.5t-36.5 13.5h-30q-28 0 -52.5 -19.5t-31.5 -47.5l-21 -82h-212l30 123q25 99 112.5 169t186.5 70h125q73 -5 120.5 -50.5t52.5 -116.5v-3
q1 -22 15.5 -35.5t36.5 -13.5h30q28 0 52.5 19.5t31.5 47.5z" />
    <glyph glyph-name="exclamdown" unicode="&#xa1;" horiz-adv-x="493" 
d="M526 998h293l-249 -997h-293zM851 1130h-292l73 292h292z" />
    <glyph glyph-name="brokenbar" unicode="&#xa6;" horiz-adv-x="493" 
d="M70 779l519 894h293l-519 -894h-293zM-191 -268l519 895h293l-519 -895h-293z" />
    <glyph glyph-name="dieresis" unicode="&#xa8;" horiz-adv-x="849" 
d="M568 1587h-249l61 248h249zM968 1587h-249l61 248h249z" />
    <glyph glyph-name="guillemetleft" unicode="&#xab;" horiz-adv-x="2015" 
d="M948 482l-82 -330l-679 328q-48 23 -75 68t-27 102h514zM630 771h-515q29 57 78 101.5t109 68.5l842 327l-82 -329zM1851 482l-82 -330l-679 328q-48 23 -75 68t-27 102h514zM1533 771h-515q28 56 77 101t110 69l842 327l-82 -329z" />
    <glyph glyph-name="macron" unicode="&#xaf;" horiz-adv-x="949" 
d="M1068 1587h-749l61 248h749z" />
    <glyph glyph-name="plusminus" unicode="&#xb1;" horiz-adv-x="1124" 
d="M1111 1056l-73 -292h-316l-79 -316h-293l79 316h-316l73 292h316l79 316h293l-79 -316h316zM-4 293h924l-73 -293h-924z" />
    <glyph glyph-name="periodcentered" unicode="&#xb7;" horiz-adv-x="449" 
d="M158 835h249l-62 -248h-249z" />
    <glyph glyph-name="periodcentered" unicode="&#x2219;" horiz-adv-x="449" 
d="M158 835h249l-62 -248h-249z" />
    <glyph glyph-name="guillemetright" unicode="&#xbb;" horiz-adv-x="2015" 
d="M43 482l432 168h515q-28 -57 -77.5 -102t-109.5 -68l-842 -328zM505 771l-348 168l82 329l679 -327q49 -24 75.5 -69t26.5 -101h-515zM946 482l432 168h515q-28 -57 -77.5 -102t-109.5 -68l-842 -328zM1408 771l-348 168l82 329l679 -327q49 -24 75.5 -69t26.5 -101h-515
z" />
    <glyph glyph-name="questiondown" unicode="&#xbf;" 
d="M1500 1129h-293l73 293h293zM1163 950l12 48h293l-26 -103q-35 -137 -155.5 -233t-256.5 -96l-227 -1q-39 0 -72 -27q-34 -27 -43 -65l-117 -470q-100 11 -161 79t-61 167q0 43 11 81l49 198q35 137 155.5 233.5t256.5 96.5h227q37 0 72 27q34 29 43 65zM691 0l73 293
h879l-73 -293h-879z" />
    <glyph glyph-name="Acircumflex" unicode="&#xc2;" 
d="M1117 1128h-499l73 293h544q117 0 189.5 -72t72.5 -183q0 -41 -10 -81l-271 -1085h-293l73 292h-586l73 293h586l114 455q3 12 3 23q0 30 -18.5 47.5t-50.5 17.5zM216 0h-293l271 1085q31 127 139 222t236 111zM852 1550h-279l262 297q35 40 94 64t123 24t111 -24t63 -64
l113 -297h-279l-63 165z" />
    <glyph glyph-name="Atilde" unicode="&#xc3;" 
d="M1117 1128h-499l73 293h544q117 0 189.5 -72t72.5 -183q0 -41 -10 -81l-271 -1085h-293l73 292h-586l73 293h586l114 455q3 12 3 23q0 30 -18.5 47.5t-50.5 17.5zM216 0h-293l271 1085q31 127 139 222t236 111zM1291 1833h213l-25 -98q-19 -79 -103 -134.5t-183 -55.5
h-125q-74 4 -123.5 40t-58.5 92v3q-2 17 -17 28t-38 11h-29q-28 0 -52 -15.5t-29 -37.5l-16 -66h-213l24 98q20 79 104 134.5t183 55.5h125q73 -4 123 -40t58 -93q0 -1 1 -2q2 -17 17 -28t37 -11h30q28 0 51.5 15.5t29.5 37.5z" />
    <glyph glyph-name="Adieresis" unicode="&#xc4;" 
d="M1117 1128h-499l73 293h544q117 0 189.5 -72t72.5 -183q0 -41 -10 -81l-271 -1085h-293l73 292h-586l73 293h586l114 455q3 12 3 23q0 30 -18.5 47.5t-50.5 17.5zM216 0h-293l271 1085q31 127 139 222t236 111zM890 1587h-249l62 248h249zM1290 1587h-249l62 248h249z
" />
    <glyph glyph-name="AE" unicode="&#xc6;" horiz-adv-x="2500" 
d="M2504 1128h-880l73 293h880zM1216 0h-293l73 292h-586l73 293h586l113 455q4 18 4 26q0 24 -16 43t-53 19h-499l73 293h543q109 0 178 -60q76 45 164 57l-353 -1415l-6 1zM216 0h-293l270 1085q32 128 137 221t240 112zM1484 564l73 293h880l-73 -292zM2223 0h-880
l73 293h880z" />
    <glyph glyph-name="Ecircumflex" unicode="&#xca;" 
d="M216 3q-100 13 -160 82t-60 169q0 44 11 82l46 185q25 105 106 190q-22 48 -22 108q0 41 10 81l47 186q31 127 139 221.5t236 110.5zM550 857h879l-73 -292q-145 0 -438.5 -0.5t-440.5 -0.5zM409 293h880l-73 -293h-880zM691 1421h879l-73 -293h-879zM952 1550h-279
l262 297q35 40 94 64t123 24t111 -24t62 -64l114 -297h-279l-63 165z" />
    <glyph glyph-name="Edieresis" unicode="&#xcb;" 
d="M216 3q-100 13 -160 82t-60 169q0 44 11 82l46 185q25 105 106 190q-22 48 -22 108q0 41 10 81l47 186q31 127 139 221.5t236 110.5zM550 857h879l-73 -292q-145 0 -438.5 -0.5t-440.5 -0.5zM409 293h880l-73 -293h-880zM691 1421h879l-73 -293h-879zM989 1587h-249
l62 248h249zM1389 1587h-249l62 248h249z" />
    <glyph glyph-name="Icircumflex" unicode="&#xce;" horiz-adv-x="493" 
d="M-77 0l354 1421h293l-354 -1421h-293zM351 1550h-279l262 297q35 40 94 64t123 24t111 -24t63 -64l113 -297h-279l-63 165z" />
    <glyph glyph-name="Idieresis" unicode="&#xcf;" horiz-adv-x="493" 
d="M-77 0l354 1421h293l-354 -1421h-293zM389 1587h-249l62 248h249zM789 1587h-249l62 248h249z" />
    <glyph glyph-name="Eth" unicode="&#xd0;" horiz-adv-x="1593" 
d="M316 0h-293l175 700h-200l50 204h200l129 517h293l-129 -517h410l-50 -204h-410zM987 0h-550l73 293h494q39 0 72 27t43 65l162 651q3 12 3 23q0 27 -18 48t-54 21h-494l73 293h550q119 0 188.5 -71.5t69.5 -174.5q0 -37 -11 -83l-190 -763q-35 -137 -154.5 -233
t-256.5 -96z" />
    <glyph glyph-name="Ntilde" unicode="&#xd1;" horiz-adv-x="1626" 
d="M-77 0l271 1086q31 127 139 221.5t236 110.5l-353 -1418h-293zM618 1128l73 293h110q117 0 189.5 -71.5t72.5 -181.5q0 -38 -11 -82l-175 -705q-3 -12 -3 -22q0 -29 19.5 -47.5t49.5 -18.5h98q37 0 68.5 25.5t41.5 62.5l259 1040h293l-271 -1085q-35 -140 -157.5 -238
t-261.5 -98h-188q-117 0 -189.5 72t-72.5 183q0 41 10 81l176 704q3 10 3 22q0 29 -19 47.5t-50 18.5h-65zM1357 1833h213l-25 -98q-19 -79 -103 -134.5t-183 -55.5h-125q-74 4 -123.5 40t-58.5 92v3q-2 17 -17 28t-38 11h-29q-28 0 -52 -15.5t-29 -37.5l-16 -66h-213l24 98
q20 79 104 134.5t183 55.5h125q73 -4 123 -40t58 -93q0 -1 1 -2q2 -17 17 -28t37 -11h30q28 0 51.5 15.5t29.5 37.5z" />
    <glyph glyph-name="Ocircumflex" unicode="&#xd4;" 
d="M1235 1421q117 0 189.5 -71.5t72.5 -182.5q0 -41 -10 -81l-187 -750q-35 -140 -158 -238t-262 -98h-543l73 292h485q48 0 82 26q32 26 41 63l165 659q2 14 2 21q0 29 -19 48t-49 19h-499l73 293h544zM216 3q-100 13 -160 82t-60 169q0 44 11 82l187 750q31 127 139 221.5
t236 110.5zM852 1550h-279l262 297q35 40 94 64t123 24t111 -24t62 -64l114 -297h-279l-63 165z" />
    <glyph glyph-name="Otilde" unicode="&#xd5;" horiz-adv-x="1492" 
d="M1235 1421q117 0 189.5 -71.5t72.5 -182.5q0 -41 -10 -81l-187 -750q-35 -140 -158 -238t-262 -98h-543l73 292h485q48 0 82 26q32 26 41 63l165 659q2 14 2 21q0 29 -19 48t-49 19h-499l73 293h544zM216 3q-100 13 -160 82t-60 169q0 44 11 82l187 750q31 127 139 221.5
t236 110.5zM1290 1833h213l-24 -98q-19 -79 -103.5 -134.5t-183.5 -55.5h-124q-74 4 -124 40t-58 92v3q-1 17 -16.5 28t-38.5 11h-30q-28 0 -51.5 -15.5t-28.5 -37.5l-17 -66h-212l24 98q19 79 103.5 134.5t183.5 55.5h124q74 -4 123.5 -40t58.5 -93v-2q1 -17 16.5 -28
t38.5 -11h30q28 0 51.5 15.5t28.5 37.5z" />
    <glyph glyph-name="Odieresis" unicode="&#xd6;" 
d="M1235 1421q117 0 189.5 -71.5t72.5 -182.5q0 -41 -10 -81l-187 -750q-35 -140 -158 -238t-262 -98h-543l73 292h485q48 0 82 26q32 26 41 63l165 659q2 14 2 21q0 29 -19 48t-49 19h-499l73 293h544zM216 3q-100 13 -160 82t-60 169q0 44 11 82l187 750q31 127 139 221.5
t236 110.5zM889 1587h-249l62 248h249zM1289 1587h-249l62 248h249z" />
    <glyph glyph-name="multiply" unicode="&#xd7;" horiz-adv-x="1060" 
d="M646 280l-168 224l-279 -224l-155 207l279 223l-167 223l258 207l167 -224l280 224l155 -207l-280 -223l168 -223z" />
    <glyph glyph-name="Oslash" unicode="&#xd8;" 
d="M145 -151h-243l179 212q-85 68 -85 189q0 45 11 86l187 750q32 128 137.5 221t238.5 111l-276 -1106l689 816h-365l73 293h539l114 134h244l-169 -200q79 -74 79 -186q0 -37 -11 -83l-187 -750q-35 -140 -157.5 -238t-262.5 -98h-543l27 107zM896 292q47 0 79.5 25
t42.5 64l164 659q3 12 3 24l-1 13l-664 -785h376z" />
    <glyph glyph-name="Ucircumflex" unicode="&#xdb;" 
d="M908 293q37 0 69 25.5t41 62.5l259 1040h293l-271 -1085q-34 -139 -157 -237.5t-262 -98.5h-544l73 293h499zM570 1421l-354 -1418q-100 13 -160 82t-60 169q0 44 11 82l270 1085h293zM852 1550h-279l262 297q35 40 94 64t123 24t111 -24t62 -64l114 -297h-279l-63 165z
" />
    <glyph glyph-name="Udieresis" unicode="&#xdc;" 
d="M908 293q37 0 69 25.5t41 62.5l259 1040h293l-271 -1085q-34 -139 -157 -237.5t-262 -98.5h-544l73 293h499zM570 1421l-354 -1418q-100 13 -160 82t-60 169q0 44 11 82l270 1085h293zM889 1587h-249l62 248h249zM1289 1587h-249l62 248h249z" />
    <glyph glyph-name="Thorn" unicode="&#xde;" horiz-adv-x="1494" 
d="M166 -200h-293l404 1621h293zM910 92h-550l73 293h495q39 0 72 27t43 65l89 359q3 12 3 24q0 26 -18 47t-54 21h-495l73 293h550q120 0 189.5 -71.5t69.5 -174.5q0 -37 -11 -83l-117 -470q-35 -138 -154.5 -234t-257.5 -96z" />
    <glyph glyph-name="acircumflex" unicode="&#xe2;" 
d="M1117 1128h-499l73 293h544q117 0 189.5 -72t72.5 -183q0 -41 -10 -81l-271 -1085h-293l73 292h-586l73 293h586l114 455q3 12 3 23q0 30 -18.5 47.5t-50.5 17.5zM216 0h-293l271 1085q31 127 139 222t236 111zM852 1550h-279l262 297q35 40 94 64t123 24t111 -24t63 -64
l113 -297h-279l-63 165z" />
    <glyph glyph-name="atilde" unicode="&#xe3;" 
d="M1117 1128h-499l73 293h544q117 0 189.5 -72t72.5 -183q0 -41 -10 -81l-271 -1085h-293l73 292h-586l73 293h586l114 455q3 12 3 23q0 30 -18.5 47.5t-50.5 17.5zM216 0h-293l271 1085q31 127 139 222t236 111zM1291 1833h213l-25 -98q-19 -79 -103 -134.5t-183 -55.5
h-125q-74 4 -123.5 40t-58.5 92v3q-2 17 -17 28t-38 11h-29q-28 0 -52 -15.5t-29 -37.5l-16 -66h-213l24 98q20 79 104 134.5t183 55.5h125q73 -4 123 -40t58 -93q0 -1 1 -2q2 -17 17 -28t37 -11h30q28 0 51.5 15.5t29.5 37.5z" />
    <glyph glyph-name="adieresis" unicode="&#xe4;" 
d="M1117 1128h-499l73 293h544q117 0 189.5 -72t72.5 -183q0 -41 -10 -81l-271 -1085h-293l73 292h-586l73 293h586l114 455q3 12 3 23q0 30 -18.5 47.5t-50.5 17.5zM216 0h-293l271 1085q31 127 139 222t236 111zM890 1587h-249l62 248h249zM1290 1587h-249l62 248h249z
" />
    <glyph glyph-name="ae" unicode="&#xe6;" horiz-adv-x="2500" 
d="M2504 1128h-880l73 293h880zM1216 0h-293l73 292h-586l73 293h586l113 455q4 18 4 26q0 24 -16 43t-53 19h-499l73 293h543q109 0 178 -60q76 45 164 57l-353 -1415l-6 1zM216 0h-293l270 1085q32 128 137 221t240 112zM1484 564l73 293h880l-73 -292zM2223 0h-880
l73 293h880z" />
    <glyph glyph-name="ecircumflex" unicode="&#xea;" 
d="M216 3q-100 13 -160 82t-60 169q0 44 11 82l46 185q25 105 106 190q-22 48 -22 108q0 41 10 81l47 186q31 127 139 221.5t236 110.5zM550 857h879l-73 -292q-145 0 -438.5 -0.5t-440.5 -0.5zM409 293h880l-73 -293h-880zM691 1421h879l-73 -293h-879zM952 1550h-279
l262 297q35 40 94 64t123 24t111 -24t62 -64l114 -297h-279l-63 165z" />
    <glyph glyph-name="edieresis" unicode="&#xeb;" 
d="M216 3q-100 13 -160 82t-60 169q0 44 11 82l46 185q25 105 106 190q-22 48 -22 108q0 41 10 81l47 186q31 127 139 221.5t236 110.5zM550 857h879l-73 -292q-145 0 -438.5 -0.5t-440.5 -0.5zM409 293h880l-73 -293h-880zM691 1421h879l-73 -293h-879zM989 1587h-249
l62 248h249zM1389 1587h-249l62 248h249z" />
    <glyph glyph-name="icircumflex" unicode="&#xee;" horiz-adv-x="493" 
d="M-77 0l354 1421h293l-354 -1421h-293zM351 1550h-279l262 297q35 40 94 64t123 24t111 -24t63 -64l113 -297h-279l-63 165z" />
    <glyph glyph-name="idieresis" unicode="&#xef;" horiz-adv-x="493" 
d="M-77 0l354 1421h293l-354 -1421h-293zM389 1587h-249l62 248h249zM789 1587h-249l62 248h249z" />
    <glyph glyph-name="eth" unicode="&#xf0;" horiz-adv-x="1593" 
d="M316 0h-293l175 700h-200l50 204h200l129 517h293l-129 -517h410l-50 -204h-410zM987 0h-550l73 293h494q39 0 72 27t43 65l162 651q3 12 3 23q0 27 -18 48t-54 21h-494l73 293h550q119 0 188.5 -71.5t69.5 -174.5q0 -37 -11 -83l-190 -763q-35 -137 -154.5 -233
t-256.5 -96z" />
    <glyph glyph-name="ntilde" unicode="&#xf1;" horiz-adv-x="1626" 
d="M-77 0l271 1086q31 127 139 221.5t236 110.5l-353 -1418h-293zM618 1128l73 293h110q117 0 189.5 -71.5t72.5 -181.5q0 -38 -11 -82l-175 -705q-3 -12 -3 -22q0 -29 19.5 -47.5t49.5 -18.5h98q37 0 68.5 25.5t41.5 62.5l259 1040h293l-271 -1085q-35 -140 -157.5 -238
t-261.5 -98h-188q-117 0 -189.5 72t-72.5 183q0 41 10 81l176 704q3 10 3 22q0 29 -19 47.5t-50 18.5h-65zM1357 1833h213l-25 -98q-19 -79 -103 -134.5t-183 -55.5h-125q-74 4 -123.5 40t-58.5 92v3q-2 17 -17 28t-38 11h-29q-28 0 -52 -15.5t-29 -37.5l-16 -66h-213l24 98
q20 79 104 134.5t183 55.5h125q73 -4 123 -40t58 -93q0 -1 1 -2q2 -17 17 -28t37 -11h30q28 0 51.5 15.5t29.5 37.5z" />
    <glyph glyph-name="ocircumflex" unicode="&#xf4;" 
d="M1235 1421q117 0 189.5 -71.5t72.5 -182.5q0 -41 -10 -81l-187 -750q-35 -140 -158 -238t-262 -98h-543l73 292h485q48 0 82 26q32 26 41 63l165 659q2 14 2 21q0 29 -19 48t-49 19h-499l73 293h544zM216 3q-100 13 -160 82t-60 169q0 44 11 82l187 750q31 127 139 221.5
t236 110.5zM852 1550h-279l262 297q35 40 94 64t123 24t111 -24t62 -64l114 -297h-279l-63 165z" />
    <glyph glyph-name="otilde" unicode="&#xf5;" horiz-adv-x="1492" 
d="M1235 1421q117 0 189.5 -71.5t72.5 -182.5q0 -41 -10 -81l-187 -750q-35 -140 -158 -238t-262 -98h-543l73 292h485q48 0 82 26q32 26 41 63l165 659q2 14 2 21q0 29 -19 48t-49 19h-499l73 293h544zM216 3q-100 13 -160 82t-60 169q0 44 11 82l187 750q31 127 139 221.5
t236 110.5zM1290 1833h213l-24 -98q-19 -79 -103.5 -134.5t-183.5 -55.5h-124q-74 4 -124 40t-58 92v3q-1 17 -16.5 28t-38.5 11h-30q-28 0 -51.5 -15.5t-28.5 -37.5l-17 -66h-212l24 98q19 79 103.5 134.5t183.5 55.5h124q74 -4 123.5 -40t58.5 -93v-2q1 -17 16.5 -28
t38.5 -11h30q28 0 51.5 15.5t28.5 37.5z" />
    <glyph glyph-name="odieresis" unicode="&#xf6;" 
d="M1235 1421q117 0 189.5 -71.5t72.5 -182.5q0 -41 -10 -81l-187 -750q-35 -140 -158 -238t-262 -98h-543l73 292h485q48 0 82 26q32 26 41 63l165 659q2 14 2 21q0 29 -19 48t-49 19h-499l73 293h544zM216 3q-100 13 -160 82t-60 169q0 44 11 82l187 750q31 127 139 221.5
t236 110.5zM889 1587h-249l62 248h249zM1289 1587h-249l62 248h249z" />
    <glyph glyph-name="divide" unicode="&#xf7;" horiz-adv-x="1124" 
d="M568 148h-292l73 292h292zM775 980h-292l73 292h292zM988 564h-924l72 292h924z" />
    <glyph glyph-name="oslash" unicode="&#xf8;" 
d="M145 -151h-243l179 212q-85 68 -85 189q0 45 11 86l187 750q32 128 137.5 221t238.5 111l-276 -1106l689 816h-365l73 293h539l114 134h244l-169 -200q79 -74 79 -186q0 -37 -11 -83l-187 -750q-35 -140 -157.5 -238t-262.5 -98h-543l27 107zM896 292q47 0 79.5 25
t42.5 64l164 659q3 12 3 24l-1 13l-664 -785h376z" />
    <glyph glyph-name="ucircumflex" unicode="&#xfb;" 
d="M908 293q37 0 69 25.5t41 62.5l259 1040h293l-271 -1085q-34 -139 -157 -237.5t-262 -98.5h-544l73 293h499zM570 1421l-354 -1418q-100 13 -160 82t-60 169q0 44 11 82l270 1085h293zM852 1550h-279l262 297q35 40 94 64t123 24t111 -24t62 -64l114 -297h-279l-63 165z
" />
    <glyph glyph-name="udieresis" unicode="&#xfc;" 
d="M908 293q37 0 69 25.5t41 62.5l259 1040h293l-271 -1085q-34 -139 -157 -237.5t-262 -98.5h-544l73 293h499zM570 1421l-354 -1418q-100 13 -160 82t-60 169q0 44 11 82l270 1085h293zM889 1587h-249l62 248h249zM1289 1587h-249l62 248h249z" />
    <glyph glyph-name="thorn" unicode="&#xfe;" horiz-adv-x="1494" 
d="M166 -200h-293l404 1621h293zM910 92h-550l73 293h495q39 0 72 27t43 65l89 359q3 12 3 24q0 26 -18 47t-54 21h-495l73 293h550q120 0 189.5 -71.5t69.5 -174.5q0 -37 -11 -83l-117 -470q-35 -138 -154.5 -234t-257.5 -96z" />
    <glyph glyph-name="ydieresis" unicode="&#xff;" horiz-adv-x="1494" 
d="M929 857l-213 -857h-293l141 564h-165q-117 0 -189.5 72t-72.5 183q0 41 10 81l130 521h293l-119 -476q-2 -7 -2 -21q0 -30 18.5 -48.5t49.5 -18.5h412zM978 564l73 293q36 0 67.5 26t40.5 62l119 476h293l-130 -521q-35 -140 -158 -238t-262 -98h-43zM890 1587h-249
l62 248h249zM1290 1587h-249l62 248h249z" />
    <glyph glyph-name="Amacron" unicode="&#x100;" 
d="M1117 1128h-499l73 293h544q117 0 189.5 -72t72.5 -183q0 -41 -10 -81l-271 -1085h-293l73 292h-586l73 293h586l114 455q3 12 3 23q0 30 -18.5 47.5t-50.5 17.5zM216 0h-293l271 1085q31 127 139 222t236 111zM1340 1587h-749l62 248h749z" />
    <glyph glyph-name="amacron" unicode="&#x101;" 
d="M1117 1128h-499l73 293h544q117 0 189.5 -72t72.5 -183q0 -41 -10 -81l-271 -1085h-293l73 292h-586l73 293h586l114 455q3 12 3 23q0 30 -18.5 47.5t-50.5 17.5zM216 0h-293l271 1085q31 127 139 222t236 111zM1340 1587h-749l62 248h749z" />
    <glyph glyph-name="Ccircumflex" unicode="&#x108;" 
d="M618 1128l73 293h879l-73 -293h-879zM569 1418l-353 -1415q-100 13 -160 82t-60 169q0 44 11 82l187 750q31 127 139 221.5t236 110.5zM336 0l73 293h879l-72 -293h-880zM968 1550h-279l262 297q35 40 94 64t123 24t111 -24t62 -64l114 -297h-279l-63 165z" />
    <glyph glyph-name="ccircumflex" unicode="&#x109;" 
d="M618 1128l73 293h879l-73 -293h-879zM569 1418l-353 -1415q-100 13 -160 82t-60 169q0 44 11 82l187 750q31 127 139 221.5t236 110.5zM336 0l73 293h879l-72 -293h-880zM968 1550h-279l262 297q35 40 94 64t123 24t111 -24t62 -64l114 -297h-279l-63 165z" />
    <glyph glyph-name="Cdotaccent" unicode="&#x10a;" 
d="M618 1128l73 293h879l-73 -293h-879zM569 1418l-353 -1415q-100 13 -160 82t-60 169q0 44 11 82l187 750q31 127 139 221.5t236 110.5zM336 0l73 293h879l-72 -293h-880zM1205 1587h-249l62 248h249z" />
    <glyph glyph-name="cdotaccent" unicode="&#x10b;" 
d="M618 1128l73 293h879l-73 -293h-879zM569 1418l-353 -1415q-100 13 -160 82t-60 169q0 44 11 82l187 750q31 127 139 221.5t236 110.5zM336 0l73 293h879l-72 -293h-880zM1205 1587h-249l62 248h249z" />
    <glyph glyph-name="Ccaron" unicode="&#x10c;" 
d="M618 1128l73 293h879l-73 -293h-879zM569 1418l-353 -1415q-100 13 -160 82t-60 169q0 44 11 82l187 750q31 127 139 221.5t236 110.5zM336 0l73 293h879l-72 -293h-880zM1039 1835l63 -165l145 165h279l-262 -297q-35 -40 -94 -64t-123 -24t-111 24t-62 64l-114 297h279
z" />
    <glyph glyph-name="ccaron" unicode="&#x10d;" 
d="M618 1128l73 293h879l-73 -293h-879zM569 1418l-353 -1415q-100 13 -160 82t-60 169q0 44 11 82l187 750q31 127 139 221.5t236 110.5zM336 0l73 293h879l-72 -293h-880zM1039 1835l63 -165l145 165h279l-262 -297q-35 -40 -94 -64t-123 -24t-111 24t-62 64l-114 297h279
z" />
    <glyph glyph-name="Dcaron" unicode="&#x10e;" 
d="M1019 385l163 651q3 10 3 22q0 30 -20 50t-52 20h-495l73 293h550q114 0 185.5 -70t71.5 -178q0 -41 -10 -81l-190 -763q-34 -136 -154 -232.5t-257 -96.5h-550l73 293h494q38 0 72 27t43 65zM570 1421l-354 -1421h-293l354 1421h293zM922 1835l63 -165l145 165h279
l-262 -297q-35 -40 -94 -64t-123 -24q-63 0 -110.5 24t-62.5 64l-113 297h278z" />
    <glyph glyph-name="dcaron" unicode="&#x10f;" 
d="M1019 385l163 651q3 10 3 22q0 30 -20 50t-52 20h-495l73 293h550q114 0 185.5 -70t71.5 -178q0 -41 -10 -81l-190 -763q-34 -136 -154 -232.5t-257 -96.5h-550l73 293h494q38 0 72 27t43 65zM570 1421l-354 -1421h-293l354 1421h293zM922 1835l63 -165l145 165h279
l-262 -297q-35 -40 -94 -64t-123 -24q-63 0 -110.5 24t-62.5 64l-113 297h278z" />
    <glyph glyph-name="Dcroat" unicode="&#x110;" horiz-adv-x="1593" 
d="M316 0h-293l175 700h-200l50 204h200l129 517h293l-129 -517h410l-50 -204h-410zM987 0h-550l73 293h494q39 0 72 27t43 65l162 651q3 12 3 23q0 27 -18 48t-54 21h-494l73 293h550q119 0 188.5 -71.5t69.5 -174.5q0 -37 -11 -83l-190 -763q-35 -137 -154.5 -233
t-256.5 -96z" />
    <glyph glyph-name="dcroat" unicode="&#x111;" horiz-adv-x="1593" 
d="M316 0h-293l175 700h-200l50 204h200l129 517h293l-129 -517h410l-50 -204h-410zM987 0h-550l73 293h494q39 0 72 27t43 65l162 651q3 12 3 23q0 27 -18 48t-54 21h-494l73 293h550q119 0 188.5 -71.5t69.5 -174.5q0 -37 -11 -83l-190 -763q-35 -137 -154.5 -233
t-256.5 -96z" />
    <glyph glyph-name="Emacron" unicode="&#x112;" 
d="M216 3q-100 13 -160 82t-60 169q0 44 11 82l46 185q25 105 106 190q-22 48 -22 108q0 41 10 81l47 186q31 127 139 221.5t236 110.5zM550 857h879l-73 -292q-145 0 -438.5 -0.5t-440.5 -0.5zM409 293h880l-73 -293h-880zM691 1421h879l-73 -293h-879zM1439 1587h-749
l62 248h749z" />
    <glyph glyph-name="emacron" unicode="&#x113;" 
d="M216 3q-100 13 -160 82t-60 169q0 44 11 82l46 185q25 105 106 190q-22 48 -22 108q0 41 10 81l47 186q31 127 139 221.5t236 110.5zM550 857h879l-73 -292q-145 0 -438.5 -0.5t-440.5 -0.5zM409 293h880l-73 -293h-880zM691 1421h879l-73 -293h-879zM1439 1587h-749
l62 248h749z" />
    <glyph glyph-name="Edotaccent" unicode="&#x116;" 
d="M216 3q-100 13 -160 82t-60 169q0 44 11 82l46 185q25 105 106 190q-22 48 -22 108q0 41 10 81l47 186q31 127 139 221.5t236 110.5zM550 857h879l-73 -292q-145 0 -438.5 -0.5t-440.5 -0.5zM409 293h880l-73 -293h-880zM691 1421h879l-73 -293h-879zM1189 1587h-249
l62 248h249z" />
    <glyph glyph-name="edotaccent" unicode="&#x117;" 
d="M216 3q-100 13 -160 82t-60 169q0 44 11 82l46 185q25 105 106 190q-22 48 -22 108q0 41 10 81l47 186q31 127 139 221.5t236 110.5zM550 857h879l-73 -292q-145 0 -438.5 -0.5t-440.5 -0.5zM409 293h880l-73 -293h-880zM691 1421h879l-73 -293h-879zM1189 1587h-249
l62 248h249z" />
    <glyph glyph-name="Ecaron" unicode="&#x11a;" 
d="M216 3q-100 13 -160 82t-60 169q0 44 11 82l46 185q25 105 106 190q-22 48 -22 108q0 41 10 81l47 186q31 127 139 221.5t236 110.5zM550 857h879l-73 -292q-145 0 -438.5 -0.5t-440.5 -0.5zM409 293h880l-73 -293h-880zM691 1421h879l-73 -293h-879zM1023 1835l63 -165
l145 165h279l-262 -297q-35 -40 -94 -64t-123 -24t-111 24t-62 64l-114 297h279z" />
    <glyph glyph-name="ecaron" unicode="&#x11b;" 
d="M216 3q-100 13 -160 82t-60 169q0 44 11 82l46 185q25 105 106 190q-22 48 -22 108q0 41 10 81l47 186q31 127 139 221.5t236 110.5zM550 857h879l-73 -292q-145 0 -438.5 -0.5t-440.5 -0.5zM409 293h880l-73 -293h-880zM691 1421h879l-73 -293h-879zM1023 1835l63 -165
l145 165h279l-262 -297q-35 -40 -94 -64t-123 -24t-111 24t-62 64l-114 297h279z" />
    <glyph glyph-name="Gcircumflex" unicode="&#x11c;" horiz-adv-x="1492" 
d="M618 1128l73 293h860l-73 -293h-860zM569 1418l-353 -1415q-100 13 -160 82t-60 169q0 44 11 82l187 750q31 127 139 221.5t236 110.5zM337 0l73 293h586l46 183q2 14 2 21q0 29 -19 48t-49 19h-419l73 293h464q117 0 189.5 -72t72.5 -183q0 -41 -10 -81l-130 -521h-879z
M951 1550h-279l262 297q35 40 94 64t123 24t111 -24t62 -64l114 -297h-279l-63 165z" />
    <glyph glyph-name="gcircumflex" unicode="&#x11d;" horiz-adv-x="1492" 
d="M618 1128l73 293h860l-73 -293h-860zM569 1418l-353 -1415q-100 13 -160 82t-60 169q0 44 11 82l187 750q31 127 139 221.5t236 110.5zM337 0l73 293h586l46 183q2 14 2 21q0 29 -19 48t-49 19h-419l73 293h464q117 0 189.5 -72t72.5 -183q0 -41 -10 -81l-130 -521h-879z
M951 1550h-279l262 297q35 40 94 64t123 24t111 -24t62 -64l114 -297h-279l-63 165z" />
    <glyph glyph-name="Gdotaccent" unicode="&#x120;" horiz-adv-x="1492" 
d="M618 1128l73 293h860l-73 -293h-860zM569 1418l-353 -1415q-100 13 -160 82t-60 169q0 44 11 82l187 750q31 127 139 221.5t236 110.5zM337 0l73 293h586l46 183q2 14 2 21q0 29 -19 48t-49 19h-419l73 293h464q117 0 189.5 -72t72.5 -183q0 -41 -10 -81l-130 -521h-879z
M1188 1587h-249l62 248h249z" />
    <glyph glyph-name="gdotaccent" unicode="&#x121;" horiz-adv-x="1492" 
d="M618 1128l73 293h860l-73 -293h-860zM569 1418l-353 -1415q-100 13 -160 82t-60 169q0 44 11 82l187 750q31 127 139 221.5t236 110.5zM337 0l73 293h586l46 183q2 14 2 21q0 29 -19 48t-49 19h-419l73 293h464q117 0 189.5 -72t72.5 -183q0 -41 -10 -81l-130 -521h-879z
M1188 1587h-249l62 248h249z" />
    <glyph glyph-name="Hcircumflex" unicode="&#x124;" 
d="M1278 1421h292l-354 -1421h-293l141 564h-587l74 293h586zM570 1421l-354 -1421h-293l354 1421h293zM852 1550h-279l262 297q35 40 94 64t123 24t111 -24t63 -64l113 -297h-279l-63 165z" />
    <glyph glyph-name="hcircumflex" unicode="&#x125;" 
d="M1278 1421h292l-354 -1421h-293l141 564h-587l74 293h586zM570 1421l-354 -1421h-293l354 1421h293zM852 1550h-279l262 297q35 40 94 64t123 24t111 -24t63 -64l113 -297h-279l-63 165z" />
    <glyph glyph-name="Hbar" unicode="&#x126;" 
d="M1216 0h-293l141 564h-586l73 293h586l48 193h-707l-262 -1050h-293l262 1050h-128l51 204h128l41 167h293l-41 -167h707l41 167h293l-41 -167h127l-51 -204h-127z" />
    <glyph glyph-name="hbar" unicode="&#x127;" 
d="M1216 0h-293l141 564h-586l73 293h586l48 193h-707l-262 -1050h-293l262 1050h-128l51 204h128l41 167h293l-41 -167h707l41 167h293l-41 -167h127l-51 -204h-127z" />
    <glyph glyph-name="Itilde" unicode="&#x128;" horiz-adv-x="493" 
d="M-77 0l354 1421h293l-354 -1421h-293zM790 1833h213l-25 -98q-19 -79 -103 -134.5t-183 -55.5h-125q-74 4 -123.5 40t-58.5 92v3q-2 17 -17 28t-38 11h-29q-28 0 -52 -15.5t-29 -37.5l-16 -66h-213l24 98q20 79 104 134.5t183 55.5h125q73 -4 123 -40t58 -93q0 -1 1 -2
q2 -17 17 -28t37 -11h30q28 0 51.5 15.5t29.5 37.5z" />
    <glyph glyph-name="itilde" unicode="&#x129;" horiz-adv-x="493" 
d="M-77 0l354 1421h293l-354 -1421h-293zM790 1833h213l-25 -98q-19 -79 -103 -134.5t-183 -55.5h-125q-74 4 -123.5 40t-58.5 92v3q-2 17 -17 28t-38 11h-29q-28 0 -52 -15.5t-29 -37.5l-16 -66h-213l24 98q20 79 104 134.5t183 55.5h125q73 -4 123 -40t58 -93q0 -1 1 -2
q2 -17 17 -28t37 -11h30q28 0 51.5 15.5t29.5 37.5z" />
    <glyph glyph-name="Imacron" unicode="&#x12a;" horiz-adv-x="493" 
d="M-77 0l354 1421h293l-354 -1421h-293zM839 1587h-749l62 248h749z" />
    <glyph glyph-name="imacron" unicode="&#x12b;" horiz-adv-x="493" 
d="M-77 0l354 1421h293l-354 -1421h-293zM839 1587h-749l62 248h749z" />
    <glyph glyph-name="Idotaccent" unicode="&#x130;" horiz-adv-x="493" 
d="M-77 0l354 1421h293l-354 -1421h-293zM589 1587h-249l62 248h249z" />
    <glyph glyph-name="idotless" unicode="&#x131;" horiz-adv-x="493" 
d="M-77 0l354 1421h293l-354 -1421h-293z" />
    <glyph glyph-name="Jcircumflex" unicode="&#x134;" 
d="M1570 1421l-270 -1085q-32 -127 -140 -222t-236 -111l354 1418h292zM875 293l-73 -293h-879l73 293h879zM1352 1550h-279l262 297q35 40 94 64t123 24t111 -24t63 -64l113 -297h-279l-63 165z" />
    <glyph glyph-name="jcircumflex" unicode="&#x135;" 
d="M1570 1421l-270 -1085q-32 -127 -140 -222t-236 -111l354 1418h292zM875 293l-73 -293h-879l73 293h879zM1352 1550h-279l262 297q35 40 94 64t123 24t111 -24t63 -64l113 -297h-279l-63 165z" />
    <glyph glyph-name="Lmiddledot" unicode="&#x13f;" 
d="M277 1421h293l-354 -1418q-100 13 -160 82t-60 169q0 38 11 82zM410 293h879l-73 -293h-879zM827 835h249l-62 -249h-249z" />
    <glyph glyph-name="lmiddledot" unicode="&#x140;" 
d="M277 1421h293l-354 -1418q-100 13 -160 82t-60 169q0 38 11 82zM410 293h879l-73 -293h-879zM827 835h249l-62 -249h-249z" />
    <glyph glyph-name="Lslash" unicode="&#x141;" horiz-adv-x="1806" 
d="M1529 0h-879l73 293h879zM530 3q-104 15 -162.5 83t-58.5 164q0 45 11 86l55 222l-385 -208l44 175l385 208l171 688h293l-126 -505l470 254l-44 -175l-469 -254z" />
    <glyph glyph-name="lslash" unicode="&#x142;" horiz-adv-x="1806" 
d="M1529 0h-879l73 293h879zM530 3q-104 15 -162.5 83t-58.5 164q0 45 11 86l55 222l-385 -208l44 175l385 208l171 688h293l-126 -505l470 254l-44 -175l-469 -254z" />
    <glyph glyph-name="Ncaron" unicode="&#x147;" horiz-adv-x="1626" 
d="M-77 0l271 1086q31 127 139 221.5t236 110.5l-353 -1418h-293zM618 1128l73 293h110q117 0 189.5 -71.5t72.5 -181.5q0 -38 -11 -82l-175 -705q-3 -12 -3 -22q0 -29 19.5 -47.5t49.5 -18.5h98q37 0 68.5 25.5t41.5 62.5l259 1040h293l-271 -1085q-35 -140 -157.5 -238
t-261.5 -98h-188q-117 0 -189.5 72t-72.5 183q0 41 10 81l176 704q3 10 3 22q0 29 -19 47.5t-50 18.5h-65zM989 1835l63 -165l145 165h279l-262 -297q-35 -40 -94 -64t-123 -24q-63 0 -110.5 24t-62.5 64l-113 297h278z" />
    <glyph glyph-name="ncaron" unicode="&#x148;" horiz-adv-x="1626" 
d="M-77 0l271 1086q31 127 139 221.5t236 110.5l-353 -1418h-293zM618 1128l73 293h110q117 0 189.5 -71.5t72.5 -181.5q0 -38 -11 -82l-175 -705q-3 -12 -3 -22q0 -29 19.5 -47.5t49.5 -18.5h98q37 0 68.5 25.5t41.5 62.5l259 1040h293l-271 -1085q-35 -140 -157.5 -238
t-261.5 -98h-188q-117 0 -189.5 72t-72.5 183q0 41 10 81l176 704q3 10 3 22q0 29 -19 47.5t-50 18.5h-65zM989 1835l63 -165l145 165h279l-262 -297q-35 -40 -94 -64t-123 -24q-63 0 -110.5 24t-62.5 64l-113 297h278z" />
    <glyph glyph-name="Omacron" unicode="&#x14c;" 
d="M1235 1421q117 0 189.5 -71.5t72.5 -182.5q0 -41 -10 -81l-187 -750q-35 -140 -158 -238t-262 -98h-543l73 292h485q48 0 82 26q32 26 41 63l165 659q2 14 2 21q0 29 -19 48t-49 19h-499l73 293h544zM216 3q-100 13 -160 82t-60 169q0 44 11 82l187 750q31 127 139 221.5
t236 110.5zM1339 1587h-749l62 248h749z" />
    <glyph glyph-name="omacron" unicode="&#x14d;" 
d="M1235 1421q117 0 189.5 -71.5t72.5 -182.5q0 -41 -10 -81l-187 -750q-35 -140 -158 -238t-262 -98h-543l73 292h485q48 0 82 26q32 26 41 63l165 659q2 14 2 21q0 29 -19 48t-49 19h-499l73 293h544zM216 3q-100 13 -160 82t-60 169q0 44 11 82l187 750q31 127 139 221.5
t236 110.5zM1339 1587h-749l62 248h749z" />
    <glyph glyph-name="OE" unicode="&#x152;" horiz-adv-x="2500" 
d="M2504 1128h-880l73 293h880zM880 0h-543l73 292h486q47 0 79.5 25t42.5 64l164 659q3 12 3 23q0 25 -17 45t-52 20h-498l73 293h543q109 0 178 -60q76 45 164 57l-353 -1415q-81 12 -135 57q-99 -60 -208 -60zM217 3q-104 15 -162.5 83t-58.5 164q0 45 11 86l187 750
q32 128 137.5 221t238.5 111zM1484 564l73 293h880l-73 -292zM2223 0h-880l73 293h880z" />
    <glyph glyph-name="oe" unicode="&#x153;" horiz-adv-x="2500" 
d="M2504 1128h-880l73 293h880zM880 0h-543l73 292h486q47 0 79.5 25t42.5 64l164 659q3 12 3 23q0 25 -17 45t-52 20h-498l73 293h543q109 0 178 -60q76 45 164 57l-353 -1415q-81 12 -135 57q-99 -60 -208 -60zM217 3q-104 15 -162.5 83t-58.5 164q0 45 11 86l187 750
q32 128 137.5 221t238.5 111zM1484 564l73 293h880l-73 -292zM2223 0h-880l73 293h880z" />
    <glyph glyph-name="Rcaron" unicode="&#x158;" horiz-adv-x="1494" 
d="M1093 677l89 359q3 12 3 23q0 30 -20 50t-52 20h-495l73 292h551q115 0 186 -70t71 -179q0 -40 -10 -80l-117 -470q-27 -105 -103 -185q20 -49 20 -106q0 -42 -10 -82l-62 -249h-293l51 204q3 12 3 22q0 28 -17.5 46.5t-46.5 19.5h-504l73 293h500q37 2 68.5 28.5
t41.5 63.5zM570 1421l-354 -1421h-293l354 1421h293zM922 1835l63 -165l145 165h279l-262 -297q-35 -40 -94 -64t-123 -24q-63 0 -110.5 24t-62.5 64l-113 297h278z" />
    <glyph glyph-name="rcaron" unicode="&#x159;" horiz-adv-x="1494" 
d="M1093 677l89 359q3 12 3 23q0 30 -20 50t-52 20h-495l73 292h551q115 0 186 -70t71 -179q0 -40 -10 -80l-117 -470q-27 -105 -103 -185q20 -49 20 -106q0 -42 -10 -82l-62 -249h-293l51 204q3 12 3 22q0 28 -17.5 46.5t-46.5 19.5h-504l73 293h500q37 2 68.5 28.5
t41.5 63.5zM570 1421l-354 -1421h-293l354 1421h293zM922 1835l63 -165l145 165h279l-262 -297q-35 -40 -94 -64t-123 -24q-63 0 -110.5 24t-62.5 64l-113 297h278z" />
    <glyph glyph-name="Scircumflex" unicode="&#x15c;" 
d="M1042 476q3 10 3 21q0 29 -19 48t-50 19h-577q-117 0 -189.5 72t-72.5 183q0 41 10 81l47 185q31 127 139 222t236 111l-118 -473q-3 -11 -3 -21q0 -29 19.5 -48t49.5 -19h577q117 0 189.5 -72t72.5 -183q0 -41 -10 -81l-46 -185q-32 -127 -140 -222t-236 -111zM691 1421
h879l-73 -293h-879zM802 0h-879l73 293h879zM852 1550h-279l262 297q35 40 94 64t123 24t111 -24t63 -64l113 -297h-279l-63 165z" />
    <glyph glyph-name="scircumflex" unicode="&#x15d;" 
d="M1042 476q3 10 3 21q0 29 -19 48t-50 19h-577q-117 0 -189.5 72t-72.5 183q0 41 10 81l47 185q31 127 139 222t236 111l-118 -473q-3 -11 -3 -21q0 -29 19.5 -48t49.5 -19h577q117 0 189.5 -72t72.5 -183q0 -41 -10 -81l-46 -185q-32 -127 -140 -222t-236 -111zM691 1421
h879l-73 -293h-879zM802 0h-879l73 293h879zM852 1550h-279l262 297q35 40 94 64t123 24t111 -24t63 -64l113 -297h-279l-63 165z" />
    <glyph glyph-name="Scaron" unicode="&#x160;" 
d="M1042 476q3 10 3 21q0 29 -19 48t-50 19h-577q-117 0 -189.5 72t-72.5 183q0 41 10 81l47 185q31 127 139 222t236 111l-118 -473q-3 -11 -3 -21q0 -29 19.5 -48t49.5 -19h577q117 0 189.5 -72t72.5 -183q0 -41 -10 -81l-46 -185q-32 -127 -140 -222t-236 -111zM691 1421
h879l-73 -293h-879zM802 0h-879l73 293h879zM923 1835l63 -165l145 165h279l-262 -297q-35 -40 -94 -64t-123 -24q-63 0 -110.5 24t-62.5 64l-113 297h278z" />
    <glyph glyph-name="scaron" unicode="&#x161;" 
d="M1042 476q3 10 3 21q0 29 -19 48t-50 19h-577q-117 0 -189.5 72t-72.5 183q0 41 10 81l47 185q31 127 139 222t236 111l-118 -473q-3 -11 -3 -21q0 -29 19.5 -48t49.5 -19h577q117 0 189.5 -72t72.5 -183q0 -41 -10 -81l-46 -185q-32 -127 -140 -222t-236 -111zM691 1421
h879l-73 -293h-879zM802 0h-879l73 293h879zM923 1835l63 -165l145 165h279l-262 -297q-35 -40 -94 -64t-123 -24q-63 0 -110.5 24t-62.5 64l-113 297h278z" />
    <glyph glyph-name="Tcaron" unicode="&#x164;" horiz-adv-x="1494" 
d="M716 0h-293l260 1040q3 10 3 21q0 29 -19.5 48t-50.5 19h-412l73 293h793zM1191 1421h380l-73 -293h-379zM923 1835l63 -165l145 165h279l-262 -297q-35 -40 -94 -64t-123 -24t-111 24t-62 64l-114 297h279z" />
    <glyph glyph-name="tcaron" unicode="&#x165;" horiz-adv-x="1494" 
d="M716 0h-293l260 1040q3 10 3 21q0 29 -19.5 48t-50.5 19h-412l73 293h793zM1191 1421h380l-73 -293h-379zM923 1835l63 -165l145 165h279l-262 -297q-35 -40 -94 -64t-123 -24t-111 24t-62 64l-114 297h279z" />
    <glyph glyph-name="Tbar" unicode="&#x166;" horiz-adv-x="1494" 
d="M1498 1128h-380l73 293h380zM716 0h-293l162 650h-369l51 204h369l46 186q3 12 3 23q0 25 -17 45t-52 20h-412l73 293h793l-141 -567h370l-51 -204h-370z" />
    <glyph glyph-name="tbar" unicode="&#x167;" horiz-adv-x="1494" 
d="M1498 1128h-380l73 293h380zM716 0h-293l162 650h-369l51 204h369l46 186q3 12 3 23q0 25 -17 45t-52 20h-412l73 293h793l-141 -567h370l-51 -204h-370z" />
    <glyph glyph-name="Utilde" unicode="&#x168;" 
d="M908 293q37 0 69 25.5t41 62.5l259 1040h293l-271 -1085q-34 -139 -157 -237.5t-262 -98.5h-544l73 293h499zM570 1421l-354 -1418q-100 13 -160 82t-60 169q0 44 11 82l270 1085h293zM1290 1833h213l-24 -98q-19 -79 -103.5 -134.5t-183.5 -55.5h-124q-74 4 -124 40
t-58 92v3q-1 17 -16.5 28t-38.5 11h-30q-28 0 -51.5 -15.5t-28.5 -37.5l-17 -66h-212l24 98q19 79 103.5 134.5t183.5 55.5h124q74 -4 123.5 -40t58.5 -93v-2q1 -17 16.5 -28t38.5 -11h30q28 0 51.5 15.5t28.5 37.5z" />
    <glyph glyph-name="utilde" unicode="&#x169;" 
d="M908 293q37 0 69 25.5t41 62.5l259 1040h293l-271 -1085q-34 -139 -157 -237.5t-262 -98.5h-544l73 293h499zM570 1421l-354 -1418q-100 13 -160 82t-60 169q0 44 11 82l270 1085h293zM1290 1833h213l-24 -98q-19 -79 -103.5 -134.5t-183.5 -55.5h-124q-74 4 -124 40
t-58 92v3q-1 17 -16.5 28t-38.5 11h-30q-28 0 -51.5 -15.5t-28.5 -37.5l-17 -66h-212l24 98q19 79 103.5 134.5t183.5 55.5h124q74 -4 123.5 -40t58.5 -93v-2q1 -17 16.5 -28t38.5 -11h30q28 0 51.5 15.5t28.5 37.5z" />
    <glyph glyph-name="Umacron" unicode="&#x16a;" 
d="M908 293q37 0 69 25.5t41 62.5l259 1040h293l-271 -1085q-34 -139 -157 -237.5t-262 -98.5h-544l73 293h499zM570 1421l-354 -1418q-100 13 -160 82t-60 169q0 44 11 82l270 1085h293zM1339 1587h-749l62 248h749z" />
    <glyph glyph-name="umacron" unicode="&#x16b;" 
d="M908 293q37 0 69 25.5t41 62.5l259 1040h293l-271 -1085q-34 -139 -157 -237.5t-262 -98.5h-544l73 293h499zM570 1421l-354 -1418q-100 13 -160 82t-60 169q0 44 11 82l270 1085h293zM1339 1587h-749l62 248h749z" />
    <glyph glyph-name="Wcircumflex" unicode="&#x174;" horiz-adv-x="2192" 
d="M277 1421h293l-354 -1418q-100 13 -160 82t-60 169q0 44 11 82zM410 293h64q37 0 69 25.5t41 62.5l103 412q34 139 157 237.5t263 98.5h187q117 0 189.5 -71.5t72.5 -182.5q0 -42 -10 -82l-103 -412q-3 -10 -3 -22q0 -29 19 -47.5t50 -18.5h98q37 0 69 25.5t41 62.5
l260 1040h293l-271 -1085q-34 -139 -157.5 -237.5t-262.5 -98.5h-188q-117 0 -190 72t-73 183q0 37 11 81l103 412q2 14 2 22q0 29 -19 47.5t-49 18.5h-97q-37 0 -69 -25.5t-41 -62.5l-103 -412q-34 -139 -157.5 -237.5t-262.5 -98.5h-109zM1201 1550h-279l262 297
q35 40 94 64t123 24t111 -24t62 -64l114 -297h-279l-63 165z" />
    <glyph glyph-name="wcircumflex" unicode="&#x175;" horiz-adv-x="2192" 
d="M277 1421h293l-354 -1418q-100 13 -160 82t-60 169q0 44 11 82zM410 293h64q37 0 69 25.5t41 62.5l103 412q34 139 157 237.5t263 98.5h187q117 0 189.5 -71.5t72.5 -182.5q0 -42 -10 -82l-103 -412q-3 -10 -3 -22q0 -29 19 -47.5t50 -18.5h98q37 0 69 25.5t41 62.5
l260 1040h293l-271 -1085q-34 -139 -157.5 -237.5t-262.5 -98.5h-188q-117 0 -190 72t-73 183q0 37 11 81l103 412q2 14 2 22q0 29 -19 47.5t-49 18.5h-97q-37 0 -69 -25.5t-41 -62.5l-103 -412q-34 -139 -157.5 -237.5t-262.5 -98.5h-109zM1201 1550h-279l262 297
q35 40 94 64t123 24t111 -24t62 -64l114 -297h-279l-63 165z" />
    <glyph glyph-name="Ycircumflex" unicode="&#x176;" horiz-adv-x="1494" 
d="M929 857l-213 -857h-293l141 564h-165q-117 0 -189.5 72t-72.5 183q0 41 10 81l130 521h293l-119 -476q-2 -7 -2 -21q0 -30 18.5 -48.5t49.5 -18.5h412zM978 564l73 293q36 0 67.5 26t40.5 62l119 476h293l-130 -521q-35 -140 -158 -238t-262 -98h-43zM852 1550h-278
l262 297q34 40 93.5 64t122.5 24q64 0 111.5 -24t62.5 -64l113 -297h-278l-63 165z" />
    <glyph glyph-name="ycircumflex" unicode="&#x177;" horiz-adv-x="1494" 
d="M929 857l-213 -857h-293l141 564h-165q-117 0 -189.5 72t-72.5 183q0 41 10 81l130 521h293l-119 -476q-2 -7 -2 -21q0 -30 18.5 -48.5t49.5 -18.5h412zM978 564l73 293q36 0 67.5 26t40.5 62l119 476h293l-130 -521q-35 -140 -158 -238t-262 -98h-43zM852 1550h-278
l262 297q34 40 93.5 64t122.5 24q64 0 111.5 -24t62.5 -64l113 -297h-278l-63 165z" />
    <glyph glyph-name="Ydieresis" unicode="&#x178;" horiz-adv-x="1494" 
d="M929 857l-213 -857h-293l141 564h-165q-117 0 -189.5 72t-72.5 183q0 41 10 81l130 521h293l-119 -476q-2 -7 -2 -21q0 -30 18.5 -48.5t49.5 -18.5h412zM978 564l73 293q36 0 67.5 26t40.5 62l119 476h293l-130 -521q-35 -140 -158 -238t-262 -98h-43zM890 1587h-249
l62 248h249zM1290 1587h-249l62 248h249z" />
    <glyph glyph-name="Zdotaccent" unicode="&#x17b;" 
d="M334 476l-118 -473q-100 13 -160 82t-60 169q0 44 11 82l46 185q35 139 157.5 237.5t261.5 98.5h577q37 0 69 26t41 62l118 473q100 -13 160 -82.5t60 -169.5q0 -34 -10 -81l-46 -185q-35 -139 -158 -237.5t-262 -98.5h-577q-36 0 -68.5 -26t-41.5 -62zM1156 1421
l-73 -293h-879l73 293h879zM336 0l73 293h880l-73 -293h-880zM1089 1587h-249l62 248h249z" />
    <glyph glyph-name="zdotaccent" unicode="&#x17c;" 
d="M334 476l-118 -473q-100 13 -160 82t-60 169q0 44 11 82l46 185q35 139 157.5 237.5t261.5 98.5h577q37 0 69 26t41 62l118 473q100 -13 160 -82.5t60 -169.5q0 -34 -10 -81l-46 -185q-35 -139 -158 -237.5t-262 -98.5h-577q-36 0 -68.5 -26t-41.5 -62zM1156 1421
l-73 -293h-879l73 293h879zM336 0l73 293h880l-73 -293h-880zM1089 1587h-249l62 248h249z" />
    <glyph glyph-name="Zcaron" unicode="&#x17d;" 
d="M334 476l-118 -473q-100 13 -160 82t-60 169q0 44 11 82l46 185q35 139 157.5 237.5t261.5 98.5h577q37 0 69 26t41 62l118 473q100 -13 160 -82.5t60 -169.5q0 -34 -10 -81l-46 -185q-35 -139 -158 -237.5t-262 -98.5h-577q-36 0 -68.5 -26t-41.5 -62zM1156 1421
l-73 -293h-879l73 293h879zM336 0l73 293h880l-73 -293h-880zM923 1835l63 -165l145 165h279l-262 -297q-35 -40 -94 -64t-123 -24t-111 24t-62 64l-114 297h279z" />
    <glyph glyph-name="zcaron" unicode="&#x17e;" 
d="M334 476l-118 -473q-100 13 -160 82t-60 169q0 44 11 82l46 185q35 139 157.5 237.5t261.5 98.5h577q37 0 69 26t41 62l118 473q100 -13 160 -82.5t60 -169.5q0 -34 -10 -81l-46 -185q-35 -139 -158 -237.5t-262 -98.5h-577q-36 0 -68.5 -26t-41.5 -62zM1156 1421
l-73 -293h-879l73 293h879zM336 0l73 293h880l-73 -293h-880zM923 1835l63 -165l145 165h279l-262 -297q-35 -40 -94 -64t-123 -24t-111 24t-62 64l-114 297h279z" />
    <glyph glyph-name="circumflexcomb" unicode="&#x302;" horiz-adv-x="966" 
d="M588 1550h-279l262 297q35 40 94 64t123 24t111 -24t63 -64l113 -297h-279l-63 165z" />
    <glyph glyph-name="tildecomb" unicode="&#x303;" horiz-adv-x="1154" 
d="M1121 1833h213l-25 -98q-20 -79 -103.5 -134.5t-183.5 -55.5h-124q-74 4 -123.5 40t-58.5 92v3q-2 17 -17 28t-38 11h-29q-28 0 -52 -15.5t-29 -37.5l-16 -66h-213l24 98q20 79 104 134.5t183 55.5h125q73 -4 123 -40t58 -93q0 -1 1 -2q2 -17 17 -28t37 -11h30
q28 0 51.5 15.5t29.5 37.5z" />
    <glyph glyph-name="macroncomb" unicode="&#x304;" horiz-adv-x="949" 
d="M1068 1587h-749l61 248h749z" />
    <glyph glyph-name="dotaccentcomb" unicode="&#x307;" horiz-adv-x="449" 
d="M568 1587h-249l61 248h249z" />
    <glyph glyph-name="dieresiscomb" unicode="&#x308;" horiz-adv-x="849" 
d="M568 1587h-249l61 248h249zM968 1587h-249l61 248h249z" />
    <glyph glyph-name="caroncomb" unicode="&#x30c;" horiz-adv-x="966" 
d="M659 1835l63 -165l145 165h279l-262 -297q-35 -40 -94 -64t-123 -24t-111 24t-62 64l-114 297h279z" />
    <glyph glyph-name="Wdieresis" unicode="&#x1e84;" horiz-adv-x="2192" 
d="M277 1421h293l-354 -1418q-100 13 -160 82t-60 169q0 44 11 82zM410 293h64q37 0 69 25.5t41 62.5l103 412q34 139 157 237.5t263 98.5h187q117 0 189.5 -71.5t72.5 -182.5q0 -42 -10 -82l-103 -412q-3 -10 -3 -22q0 -29 19 -47.5t50 -18.5h98q37 0 69 25.5t41 62.5
l260 1040h293l-271 -1085q-34 -139 -157.5 -237.5t-262.5 -98.5h-188q-117 0 -190 72t-73 183q0 37 11 81l103 412q2 14 2 22q0 29 -19 47.5t-49 18.5h-97q-37 0 -69 -25.5t-41 -62.5l-103 -412q-34 -139 -157.5 -237.5t-262.5 -98.5h-109zM1238 1587h-249l62 248h249z
M1638 1587h-249l62 248h249z" />
    <glyph glyph-name="wdieresis" unicode="&#x1e85;" horiz-adv-x="2192" 
d="M277 1421h293l-354 -1418q-100 13 -160 82t-60 169q0 44 11 82zM410 293h64q37 0 69 25.5t41 62.5l103 412q34 139 157 237.5t263 98.5h187q117 0 189.5 -71.5t72.5 -182.5q0 -42 -10 -82l-103 -412q-3 -10 -3 -22q0 -29 19 -47.5t50 -18.5h98q37 0 69 25.5t41 62.5
l260 1040h293l-271 -1085q-34 -139 -157.5 -237.5t-262.5 -98.5h-188q-117 0 -190 72t-73 183q0 37 11 81l103 412q2 14 2 22q0 29 -19 47.5t-49 18.5h-97q-37 0 -69 -25.5t-41 -62.5l-103 -412q-34 -139 -157.5 -237.5t-262.5 -98.5h-109zM1238 1587h-249l62 248h249z
M1638 1587h-249l62 248h249z" />
    <glyph glyph-name="endash" unicode="&#x2013;" horiz-adv-x="1232" 
d="M158 857h1032l-59 -292h-1032z" />
    <glyph glyph-name="emdash" unicode="&#x2014;" horiz-adv-x="2264" 
d="M74 857h2064l-117 -292h-2064z" />
    <glyph glyph-name="quoteleft" unicode="&#x2018;" horiz-adv-x="493" 
d="M150 909l127 512l238 -219l-73 -293h-292z" />
    <glyph glyph-name="quoteright" unicode="&#x2019;" horiz-adv-x="493" 
d="M570 1421l-128 -512l-238 219l73 293h293z" />
    <glyph glyph-name="quotesinglbase" unicode="&#x201a;" horiz-adv-x="493" 
d="M296 321l-128 -512l-238 219l73 293h293z" />
    <glyph glyph-name="quotedblleft" unicode="&#x201c;" horiz-adv-x="853" 
d="M150 909l127 512l238 -219l-73 -293h-292zM510 909l127 512l238 -219l-73 -293h-292z" />
    <glyph glyph-name="quotedblright" unicode="&#x201d;" horiz-adv-x="853" 
d="M930 1421l-128 -512l-238 219l73 293h293zM570 1421l-128 -512l-238 219l73 293h293z" />
    <glyph glyph-name="quotedblbase" unicode="&#x201e;" horiz-adv-x="853" 
d="M656 321l-128 -512l-238 219l73 293h293zM296 321l-128 -512l-238 219l73 293h293z" />
    <glyph glyph-name="ellipsis" unicode="&#x2026;" horiz-adv-x="1859" 
d="M-4 292h293l-73 -292h-293zM679 292h293l-73 -292h-293zM1362 292h293l-73 -292h-293z" />
    <glyph glyph-name="perthousand" unicode="&#x2030;" horiz-adv-x="3339" 
d="M621 564h-50l73 293h5q37 0 69 25.5t41 62.5l24 95q3 10 3 21q0 29 -19 48t-50 19h-6l73 293h51q117 0 189.5 -72t72.5 -183q0 -41 -10 -81l-47 -185q-35 -139 -157.5 -237.5t-261.5 -98.5zM422 0l1198 1421h347l-1198 -1421h-347zM1776 0h-50l73 292h5q37 0 69 26t41 62
l24 95q3 11 3 21q0 29 -19 48t-50 19h-5l73 293h50q117 0 189.5 -72t72.5 -183q0 -41 -10 -81l-46 -185q-35 -139 -158 -237t-262 -98zM1818 856l-73 -293h-5q-37 0 -69 -25.5t-41 -62.5l-23 -95q-3 -12 -3 -22q0 -29 19 -47.5t50 -18.5h5l-73 -292h-50q-117 0 -190 71.5
t-73 181.5q0 38 11 82l46 185q34 139 157 237.5t262 98.5h50zM663 1421l-73 -293h-5q-37 0 -69 -25.5t-41 -62.5l-24 -95q-3 -11 -3 -21q0 -29 19 -48t50 -19h6l-73 -293h-51q-117 0 -189.5 72t-72.5 183q0 41 10 81l47 185q34 139 157 237.5t262 98.5h50zM2726 0h-50
l73 292h5q37 0 69 26t41 62l24 95q3 11 3 21q0 29 -19 48t-50 19h-5l73 293h50q117 0 189.5 -72t72.5 -183q0 -41 -10 -81l-46 -185q-35 -139 -158 -237t-262 -98zM2768 856l-73 -293h-5q-37 0 -69 -25.5t-41 -62.5l-23 -95q-3 -12 -3 -22q0 -29 19 -47.5t50 -18.5h5
l-73 -292h-50q-117 0 -190 71.5t-73 181.5q0 38 11 82l46 185q34 139 157 237.5t262 98.5h50z" />
    <glyph glyph-name="guilsinglleft" unicode="&#x2039;" horiz-adv-x="1105" 
d="M948 482l-82 -330l-679 328q-48 23 -75 68t-27 102h514zM630 771h-515q29 57 78 101.5t109 68.5l842 327l-82 -329z" />
    <glyph glyph-name="guilsinglright" unicode="&#x203a;" horiz-adv-x="1105" 
d="M43 482l432 168h515q-28 -57 -77.5 -102t-109.5 -68l-842 -328zM505 771l-348 168l82 329l679 -327q49 -24 75.5 -69t26.5 -101h-515z" />
    <glyph glyph-name="minus" unicode="&#x2212;" horiz-adv-x="1124" 
d="M137 856h924l-73 -292h-924z" />
    <glyph glyph-name="almostequalto" unicode="&#x2248;" horiz-adv-x="1154" 
d="M969 1052h213l-31 -98q-25 -79 -112.5 -135.5t-186.5 -56.5q-120 1 -124 1q-74 3 -121.5 39.5t-51.5 93.5l-1 2q0 17 -15 28.5t-37 11.5h-30q-28 0 -52 -15.5t-32 -38.5l-20 -66h-213l31 98q25 79 112.5 135.5t186.5 56.5l124 -1q74 -3 121.5 -39.5t51.5 -93.5l1 -2
q0 -17 14 -28t37 -11h30q28 0 52.5 15.5t31.5 37.5zM861 620h213l-31 -98q-25 -79 -112.5 -135.5t-186.5 -56.5q-120 1 -124 1q-74 3 -121.5 39.5t-51.5 93.5v2q-1 17 -15.5 28.5t-37.5 11.5h-29q-28 0 -52.5 -15.5t-31.5 -38.5l-21 -66h-213l31 98q25 79 112.5 135.5
t186.5 56.5l124 -1q73 -3 121 -39.5t53 -93.5v-2q1 -17 15.5 -28t36.5 -11h30q28 0 52 15.5t32 37.5z" />
    <glyph glyph-name="notequalto" unicode="&#x2260;" horiz-adv-x="1124" 
d="M273 150h-208l141 203h-195l73 293h326l101 146h-391l73 293h522l140 202h208l-140 -202h194l-73 -293h-325l-101 -146h390l-73 -293h-521z" />
    <glyph glyph-name="lessthanorequalto" unicode="&#x2264;" horiz-adv-x="1124" 
d="M1016 684l-82 -297l-679 295q-48 21 -75 61.5t-27 91.5h515zM699 944h-516q29 51 78 91.5t109 61.5l842 294l-82 -296zM-4 293h924l-73 -293h-924z" />
    <glyph glyph-name="greaterthanorequalto" unicode="&#x2265;" horiz-adv-x="1124" 
d="M111 684l433 151h514q-28 -51 -77 -91.5t-110 -61.5l-842 -295zM573 944l-348 151l82 296l679 -294q49 -21 75.5 -61.5t26.5 -91.5h-515zM-4 293h924l-73 -293h-924z" />
    </font>
</defs>
</svg>
