<?xml version="1.0" standalone="no"?>
<!DOCTYPE svg PUBLIC "-//W3C//DTD SVG 1.1//EN" "http://www.w3.org/Graphics/SVG/1.1/DTD/svg11.dtd" >
<svg xmlns="http://www.w3.org/2000/svg" xmlns:xlink="http://www.w3.org/1999/xlink" version="1.1">
<metadata>
Created by FontForge 20170731 at Wed Aug 17 21:00:23 2022
 By Aleksey,,,
EMOTIQ (c) Enxyclo Studio. 2022. All Rights Reserved
</metadata>
<defs>
<font id="EMOTIQOutlineBold" horiz-adv-x="1573" >
  <font-face 
    font-family="EMOTIQ Outline"
    font-weight="700"
    font-stretch="normal"
    units-per-em="2048"
    panose-1="2 0 8 0 2 0 0 0 0 0"
    ascent="1638"
    descent="-410"
    x-height="1441"
    cap-height="1442"
    bbox="-210 -441 3389 1955"
    underline-thickness="51"
    underline-position="-152"
    unicode-range="U+0020-2265"
  />
<missing-glyph horiz-adv-x="1024" 
d="M924 0h-824v1434h824v-1434zM874 50v1334h-724v-1334h724zM478 454h-32q-35 99 -35 148q0 76 82 218q81 143 81 217q0 57 -33 90t-91 33q-34 0 -61 -13.5t-64 -43.5v45q81 73 170 73q91 0 147.5 -47t56.5 -128q0 -51 -24 -101t-86 -127q-54 -69 -76 -98.5t-40.5 -66.5
t-18.5 -66q0 -39 24 -133zM466 213q-11 0 -20 10l-61 71q-7 8 -7 18q0 9 11 22l57 58q10 10 20 10q9 0 22 -11l56 -60q9 -10 9 -20q0 -12 -10 -22l-56 -62q-14 -14 -21 -14z" />
    <glyph glyph-name=".notdef" horiz-adv-x="1024" 
d="M924 0h-824v1434h824v-1434zM874 50v1334h-724v-1334h724zM478 454h-32q-35 99 -35 148q0 76 82 218q81 143 81 217q0 57 -33 90t-91 33q-34 0 -61 -13.5t-64 -43.5v45q81 73 170 73q91 0 147.5 -47t56.5 -128q0 -51 -24 -101t-86 -127q-54 -69 -76 -98.5t-40.5 -66.5
t-18.5 -66q0 -39 24 -133zM466 213q-11 0 -20 10l-61 71q-7 8 -7 18q0 9 11 22l57 58q10 10 20 10q9 0 22 -11l56 -60q9 -10 9 -20q0 -12 -10 -22l-56 -62q-14 -14 -21 -14z" />
    <glyph glyph-name=".null" horiz-adv-x="0" 
 />
    <glyph glyph-name="nonmarkingreturn" horiz-adv-x="682" 
 />
    <glyph glyph-name="space" unicode=" " horiz-adv-x="600" 
 />
    <glyph glyph-name="space" unicode="&#xa0;" horiz-adv-x="600" 
 />
    <glyph glyph-name="exclam" unicode="!" horiz-adv-x="573" 
d="M493 1442v-1060h-413v1060h413zM80 371h413v-391h-413v391zM453 1402h-333v-980h333v980zM120 331v-311h333v311h-333z" />
    <glyph glyph-name="quotedbl" unicode="&#x22;" horiz-adv-x="1000" 
d="M920 1442v-691l-413 308v383h413zM492 1442v-691l-412 308v383h412zM880 1402h-333v-323l333 -248v571zM452 1402h-332v-323l332 -248v571z" />
    <glyph glyph-name="numbersign" unicode="#" horiz-adv-x="1610" 
d="M733 671v82h143v-82h-143zM1530 713h-281v-2h281v-414h-281v-317h-413v317h-63v-317h-412v317h-281v414h281v2h-281v412h281v317h412v-317h63v317h413v-317h281v-412zM773 711h63v2h-63v-2zM1490 753v332h-281v317h-333v-317h-143v317h-332v-317h-281v-332h281v-82h-281
v-334h281v-317h332v317h143v-317h333v317h281v334h-281v82h281z" />
    <glyph glyph-name="dollar" unicode="$" 
d="M963 -163v183h134q150 0 253 104.5t103 251.5v145q0 151 -104.5 253.5t-251.5 102.5h-134v111h-333v-111h-110q-28 0 -48 21.5t-20 46.5v56q0 30 24.5 50t40.5 20q3 0 10 -2t10 -2t3 2h913v333h-490v183h-333v-183h-155q-150 0 -252.5 -103t-102.5 -253v-146
q0 -150 103 -253t252 -103h155v-110h333v110h89q27 0 47.5 -21t20.5 -47v-55q0 -26 -21 -47t-47 -21h-932v-333h510v-183h333zM1003 -203h-413v183h-510v413h972q28 0 28 26v57q0 27 -28 28h-49v-110h-413v110h-115q-165 0 -280 118t-115 278v146q0 165 117.5 280.5
t277.5 115.5h115v183h413v-183h490v-413h-982q-1 -1 -4.5 -3t-5.5 -3.5t-4.5 -4.5t-3.5 -7.5t-1 -9.5v-56q0 -27 28 -28h70v111h413v-111h94q113 0 205 -57t141.5 -147t49.5 -192v-145q0 -165 -115.5 -280.5t-280.5 -115.5h-94v-183z" />
    <glyph glyph-name="percent" unicode="%" horiz-adv-x="2469" 
d="M1948 393q28 0 28 28v73q0 28 -28 28h-131q-28 0 -28 -28v-73q0 -28 28 -28h131zM652 936q28 0 28 28v37q0 28 -28 28h-131q-28 0 -28 -28v-37q0 -28 28 -28h131zM1948 353h-131q-28 0 -48 20t-20 48v73q0 28 20 48t48 20h131q30 0 49 -20t19 -48v-73q0 -28 -20 -48
t-48 -20zM652 896h-131q-29 0 -48.5 20.5t-19.5 47.5v37q0 27 19.5 47.5t48.5 20.5h131q29 0 48.5 -20.5t19.5 -47.5v-37q0 -27 -19.5 -47.5t-48.5 -20.5zM1993 20q149 0 252.5 103.5t103.5 252.5v163q0 150 -103.5 253t-252.5 103h-221q-148 0 -252 -104q-12 -12 -59 -69
q-45 -130 -45 -183v-163q0 -153 105.5 -254.5t250.5 -101.5h221zM998 20l865 1382h-392l-866 -1382h393zM697 563q149 0 252 105l59 66q45 132 45 185v127q0 153 -105.5 254.5t-250.5 101.5h-221q-149 0 -252.5 -103.5t-103.5 -252.5v-127q0 -149 104 -252.5t252 -103.5h221
zM1993 -20h-221q-170 0 -283 119t-113 277v182l-355 -578h-488l388 616l-70 -41q-75 -32 -154 -32h-221q-164 0 -280 116.5t-116 279.5v127q0 162 115 279t281 117h221q164 0 280 -116.5t116 -279.5l-13 -205l369 601h488l-375 -576q88 69 210 69h221q165 0 280.5 -115.5
t115.5 -280.5v-163q0 -159 -113.5 -277.5t-282.5 -118.5z" />
    <glyph glyph-name="ampersand" unicode="&#x26;" horiz-adv-x="1652" 
d="M1018 393q30 0 32 32v98h-137v413h137v62q0 30 -32 32l-493 -1q-30 0 -32 -32v-29q0 -30 32 -32h215v-413h-215q-30 0 -32 -32v-70q0 -28 28 -28h497zM1075 20q101 3 181.5 52.5t123 128t42.5 169.5l-1 193h111v333h-579v-333h137v-138q0 -29 -22 -50.5t-50 -21.5h-497
q-26 0 -47 20.5t-21 47.5v70q0 29 21.5 50.5t50.5 21.5h175v333h-175q-29 0 -50.5 22t-21.5 50v29q0 29 21.5 50.5t50.5 21.5l493 1q28 0 50 -22t22 -50v-26h333v81q0 147 -101 248t-249 101h-604q-147 0 -248 -101t-101 -248v-140q0 -92 52 -183q-52 -91 -52 -184v-170
q0 -151 102.5 -253.5t253.5 -102.5h599zM1075 -20h-599q-166 0 -281 117.5t-115 278.5v170q0 101 46 184q-46 82 -46 183v140q0 163 115.5 276t273.5 113h604q162 0 276 -115.5t114 -273.5v-117h109v-413h-110v-153q0 -71 -25.5 -138.5t-73 -123t-122.5 -90.5t-166 -38z" />
    <glyph glyph-name="quotesingle" unicode="'" horiz-adv-x="572" 
d="M492 1442v-691l-412 308v383h412zM452 1402h-332v-323l332 -248v571z" />
    <glyph glyph-name="parenleft" unicode="(" horiz-adv-x="874" 
d="M794 -28v-413h-325q-159 0 -275 114q-114 116 -114 276v1523q0 78 30.5 150t83.5 125q54 54 125.5 84.5t149.5 30.5h325v-413h-269q-13 0 -23 -10q-9 -8 -9 -22v-1413q0 -14 9 -23q10 -9 23 -9h269zM754 -68h-229q-30 0 -51 21t-21 51v1413q0 30 21 51t51 21h229v333
h-285q-144 0 -247 -103q-102 -102 -102 -247v-1523q0 -145 102 -247q103 -103 247 -103h285v333z" />
    <glyph glyph-name="parenright" unicode=")" horiz-adv-x="874" 
d="M80 -28h269q13 0 23 9q10 10 10 23v1413q0 13 -10 22q-10 10 -23 10h-269v413h325q78 0 150 -30.5t125 -84.5q53 -53 83.5 -125t30.5 -150v-1523q0 -162 -114 -276q-53 -53 -125 -83.5t-150 -30.5h-325v413zM120 -68v-333h285q146 0 247 103q102 102 102 247v1523
q0 145 -102 247q-101 103 -247 103h-285v-333h229q30 0 51 -21q22 -22 22 -51v-1413q0 -29 -22 -51q-21 -21 -51 -21h-229z" />
    <glyph glyph-name="asterisk" unicode="*" horiz-adv-x="845" 
d="M703 1215h62v-232h-62l44 -44l-164 -164l-44 44v-63h-232v63l-45 -44l-164 164l45 44h-63v232h63l-45 45l164 163l45 -44v63h232v-63l44 44l164 -163zM606 1175l84 85l-107 107l-84 -84v119h-152v-119l-85 84l-107 -107l84 -85h-119v-152h119l-84 -84l107 -108l85 85
v-120h152v120l84 -85l107 108l-84 84h119v152h-119z" />
    <glyph glyph-name="plus" unicode="+" horiz-adv-x="1204" 
d="M808 936h316v-413h-316v-316h-412v316h-316v413h316v315h412v-315zM768 896v315h-332v-315h-316v-333h316v-316h332v316h316v333h-316z" />
    <glyph glyph-name="comma" unicode="," horiz-adv-x="572" 
d="M80 392h412v-382l-412 -308v690zM120 352v-570l332 248v322h-332z" />
    <glyph glyph-name="hyphenminus" unicode="-" horiz-adv-x="1204" 
d="M80 936h1044v-413h-1044v413zM120 896v-333h964v333h-964z" />
    <glyph glyph-name="hyphenminus" unicode="&#xad;" horiz-adv-x="1204" 
d="M80 936h1044v-413h-1044v413zM120 896v-333h964v333h-964z" />
    <glyph glyph-name="period" unicode="." horiz-adv-x="572" 
d="M80 392h412v-412h-412v412zM120 352v-332h332v332h-332z" />
    <glyph glyph-name="slash" unicode="/" horiz-adv-x="1484" 
d="M65 -20l867 1462h487l-867 -1462h-487zM135 20h394l820 1382h-394z" />
    <glyph glyph-name="zero" unicode="0" 
d="M987 504h-401v414h401v-414zM1097 1441q162 0 279 -117t117 -278v-671q0 -161 -117 -278t-279 -117h-621q-162 0 -279 117t-117 278v671q0 161 117 278t279 117h621zM1121 1001v-581q0 -35 -25 -51.5t-56 -16.5h-521q-25 0 -45.5 21.5t-20.5 46.5v581q0 25 21 46.5
t47 21.5h532q25 0 46.5 -21.5t21.5 -46.5zM947 544v334h-321v-334h321zM1097 1401h-621q-150 0 -253 -103t-103 -252v-671q0 -149 103 -252t253 -103h621q150 0 253 103t103 252v671q0 149 -103 252t-253 103zM1081 1001q0 28 -28 28h-532q-28 0 -28 -28v-581q0 -28 26 -28
h521q23 0 32 5.5t9 22.5v581z" />
    <glyph glyph-name="one" unicode="1" horiz-adv-x="745" 
d="M252 1029h-172v413h585v-1462h-413v1049zM292 1069v-1049h333v1382h-505v-333h172z" />
    <glyph glyph-name="two" unicode="2" 
d="M492 393h1001v-413h-1413v547q0 160 115 275t274 115l579 1q32 0 32 32v87q0 14 -9 23t-23 9h-968v373h1024q159 0 275 -114q53 -54 83.5 -126t30.5 -150v-158q0 -78 -30.5 -150t-83.5 -125q-54 -54 -125.5 -84.5t-149.5 -30.5h-579q-33 0 -33 -32v-79zM452 353v119
q0 28 22.5 50t50.5 22h579q143 0 246 103q103 101 103 247v158q0 144 -103 247q-101 103 -246 103h-984v-293h928q30 0 51 -21t21 -51v-87q0 -28 -22 -50t-50 -22l-579 -1q-147 0 -248 -101.5t-101 -248.5v-507h1333v333h-1001z" />
    <glyph glyph-name="three" unicode="3" horiz-adv-x="1575" 
d="M1072 926q8 8 8 20l1 56q0 12 -8 20t-20 8l-971 -1v413h1017q80 0 153.5 -31t126.5 -85q54 -54 85 -127t31 -153l-2 -145q0 -61 -18 -117q-15 -48 -30 -73q16 -29 30 -73q18 -55 18 -117v-145q0 -80 -31 -153t-85 -127q-53 -54 -126.5 -85t-153.5 -31h-1017v413h972
q12 0 20 8t8 20v55q0 12 -8 20t-20 8l-972 1v412l972 1q12 0 20 8zM1101 898q-22 -20 -49 -20l-932 -1v-333h932q27 0 49 -20q19 -19 19 -48v-55q0 -30 -20 -48q-20 -20 -48 -20h-932v-333h977q148 0 252 104q104 106 104 252v145q0 56 -16 105q-11 38 -39 85q28 47 39 85
q16 49 16 105l2 145q0 146 -104 252q-104 104 -252 104h-977v-333l931 1q28 0 48 -20t20 -48l-1 -56q0 -29 -19 -48z" />
    <glyph glyph-name="four" unicode="4" 
d="M1081 877v565h412v-1462h-413v484h-611q-159 0 -275 114q-114 116 -114 276v588h413v-532q0 -15 9 -23q10 -10 23 -10h556zM1121 837h-596q-30 0 -51 21t-21 52v492h-333v-548q0 -145 102 -247q105 -103 247 -103h651v-484h333v1382h-332v-565z" />
    <glyph glyph-name="five" unicode="5" horiz-adv-x="1574" 
d="M493 917h611q158 0 273.5 -115.5t115.5 -274.5l1 -159q-1 -159 -116 -274t-274 -115l-1023 2v411h968q31 0 31 32v48q0 32 -32 32l-968 1v936h1413v-412h-1000v-112zM453 877v192h1000v332h-1333v-856l928 -1q28 0 50 -22t22 -50v-48q0 -29 -21 -50.5t-50 -21.5h-928
v-331l983 -2q147 0 248 101t102 248l-1 159q0 147 -101.5 248.5t-247.5 101.5h-651z" />
    <glyph glyph-name="six" unicode="6" 
d="M525 353q-30 0 -51 21t-21 51v121h595q28 0 50 -22.5t22 -50.5v-48q0 -28 -22 -50t-50 -22h-523zM1493 1029h-968q-14 0 -23 -9t-9 -23v-79h611q78 0 150 -30.5t125 -83.5t83.5 -125t30.5 -150v-159q0 -160 -114 -276q-53 -53 -125 -83.5t-150 -30.5h-635
q-78 0 -149.5 30.5t-125.5 84.5q-53 53 -83.5 124.5t-30.5 150.5v683q0 78 30.5 150t83.5 125t125 83.5t150 30.5q165 0 504.5 -0.5t519.5 -0.5v-412zM525 393h523q32 0 32 32v48q0 33 -32 33h-555v-81q0 -14 9 -22q10 -10 23 -10zM1453 1069v332q-155 0 -484.5 0.5
t-499.5 0.5q-143 0 -247 -102q-102 -102 -102 -247v-683q0 -145 102 -247q105 -103 247 -103h635q144 0 247 103q102 102 102 247v159q0 145 -102 247q-104 102 -247 102h-651v119q0 30 21 51t51 21h928z" />
    <glyph glyph-name="seven" unicode="7" 
d="M845 -20h-413v547q0 162 114 276q53 53 125 83t150 31h227q32 0 32 33v46q0 33 -32 33h-968v413h1024q159 0 274 -115.5t115 -274.5v-158q0 -78 -30.5 -150t-83.5 -125q-53 -54 -125 -84.5t-150 -30.5h-227q-32 0 -32 -32v-492zM805 20v452q0 28 21.5 50t50.5 22h227
q142 0 247 103q102 102 102 247v158q0 147 -101.5 248.5t-247.5 101.5h-984v-333h928q28 0 50 -22.5t22 -50.5v-46q0 -28 -22 -50t-50 -23h-227q-145 -1 -247 -103t-102 -247v-507h333z" />
    <glyph glyph-name="eight" unicode="8" 
d="M453 946v55q0 26 21 47t47 21h531q26 0 47 -21t21 -47v-55q0 -26 -21 -47t-47 -21h-531q-26 0 -47 21t-21 47zM521 544h531q26 0 47 -21t21 -47v-55q0 -26 -21 -47t-47 -21h-531q-26 0 -47 21t-21 47v55q0 26 21 47t47 21zM476 -20q-80 0 -153.5 31t-126.5 85
q-54 53 -85 126.5t-31 153.5v145q0 108 49 190q-49 82 -49 190v145q0 80 31 153t85 127t127.5 85t152.5 31h621q79 0 152.5 -31t127.5 -85t85 -127t31 -153v-145q0 -107 -48 -190q48 -83 48 -190v-145q0 -80 -31 -153.5t-85 -126.5q-53 -54 -126.5 -85t-153.5 -31h-621z
M493 946q0 -28 28 -28h531q28 0 28 28v55q0 28 -28 28h-531q-28 0 -28 -28v-55zM521 504q-28 0 -28 -28v-55q0 -28 28 -28h531q28 0 28 28v55q0 28 -28 28h-531zM476 20h621q148 0 252 104q104 106 104 252v145q0 98 -55 190q55 92 55 190v145q0 146 -104 252
q-104 104 -252 104h-621q-146 0 -252 -104q-104 -106 -104 -252v-145q0 -98 55 -190q-55 -92 -55 -190v-145q0 -146 104 -252q106 -104 252 -104z" />
    <glyph glyph-name="nine" unicode="9" 
d="M1048 1070q30 0 51 -21t21 -52v-120h-595q-28 0 -50 22.5t-22 50.5v47q0 29 22 51t50 22h523zM80 394q171 0 491.5 -0.5t476.5 -0.5q32 0 32 32v80h-611q-159 0 -274 115t-115 274v159q0 159 115 274t274 115h635q78 0 150 -30.5t125 -83.5t83.5 -125t30.5 -150v-683
q0 -159 -115 -274.5t-274 -115.5q-335 1 -1024 1v413zM1048 1030h-523q-32 0 -32 -33v-47q0 -33 32 -33h555v80q0 15 -9 23q-10 10 -23 10zM120 354v-333q649 0 984 -1q146 0 247.5 102t101.5 248v683q0 145 -102 247q-104 102 -247 102h-635q-146 0 -247.5 -101
t-101.5 -248v-159q0 -147 101 -248t248 -101h651v-120q0 -28 -22 -50t-50 -22q-160 0 -471 0.5t-457 0.5z" />
    <glyph glyph-name="colon" unicode=":" horiz-adv-x="572" 
d="M80 1151h412v-412h-412v412zM80 719h412v-412h-412v412zM120 1111v-332h332v332h-332zM120 679v-332h332v332h-332z" />
    <glyph glyph-name="semicolon" unicode=";" horiz-adv-x="572" 
d="M80 392h412v-382l-412 -308v690zM80 1173h412v-413h-412v413zM120 352v-570l332 248v322h-332zM120 1133v-333h332v333h-332z" />
    <glyph glyph-name="less" unicode="&#x3c;" horiz-adv-x="1192" 
d="M1076 556l36 -16v-460l-844 364q-85 36 -137 114q-51 78 -51 171t51 171q53 79 137 115l844 363v-460l-439 -189zM1060 519l-488 210l500 215v373l-788 -339q-74 -32 -119 -100t-45 -149t45 -149q44 -67 119 -100l788 -339v373z" />
    <glyph glyph-name="equal" unicode="=" horiz-adv-x="1204" 
d="M1124 742h-1044v413h1044v-413zM1124 303h-1044v413h1044v-413zM1084 782v333h-964v-333h964zM1084 343v333h-964v-333h964z" />
    <glyph glyph-name="greater" unicode="&#x3e;" horiz-adv-x="1192" 
d="M116 556l403 173l-439 189v460l844 -363q86 -37 137 -115t51 -171t-51 -171q-50 -77 -137 -114l-844 -364v460zM132 519l-12 -5v-373l788 339q73 32 120 100q44 67 44 149t-44 149q-47 68 -120 100l-788 339v-373l500 -215z" />
    <glyph glyph-name="question" unicode="?" 
d="M432 371h412v-391h-412v391zM844 382h-412v164q0 78 30.5 150t83.5 125t125 83.5t150 30.5l227 1q32 0 32 32v28q0 33 -32 33h-968v413h1024q78 0 150 -30.5t125 -84.5q53 -53 83.5 -125t30.5 -150v-139q0 -160 -114 -276q-53 -53 -125 -83.5t-150 -30.5h-227
q-32 0 -32 -33zM472 331v-311h332v311h-332zM804 422l1 68q0 29 22 51t50 22h227q144 0 247 103q102 102 102 247v139q0 145 -102 247q-105 103 -247 103h-984v-333h928q28 0 50 -22.5t22 -50.5v-28q0 -28 -22 -50t-50 -22l-227 -1q-145 0 -247 -102t-102 -247v-124h332z
" />
    <glyph glyph-name="at" unicode="@" horiz-adv-x="1693" 
d="M740 601q-16 0 -29.5 14t-13.5 29v134q0 16 13.5 29.5t29.5 13.5h256v-220h-256zM500 1017q84 84 202 84h574v-459h2l1 -1h12l2 1v478l-1 1q-1 1 -2 1h-890v-822h1213v-320h-1248q-57 0 -110 22.5t-91 61.5q-39 38 -61.5 91t-22.5 110v892q0 116 84.5 200.5t200.5 84.5
h963q57 0 110 -22.5t91 -61.5q39 -38 61.5 -91t22.5 -110v-551q0 -57 -22.5 -110t-61.5 -91q-38 -39 -91 -61.5t-110 -22.5h-112q-68 0 -132 36q-32 19 -43 31q-11 -11 -43 -31q-62 -36 -132 -36h-164q-118 0 -202 84q-83 83 -83 201v210q0 118 83 201zM737 641h219v140
h-219v-140zM528 989q-71 -71 -71 -173v-210q0 -103 72 -173q72 -72 173 -72h164q59 0 112 31q29 18 63 54q34 -36 63 -54q53 -31 112 -31h112q101 0 173 72t72 173v551q0 101 -72 173q-70 72 -173 72h-963q-103 0 -174 -71t-71 -174v-892q0 -103 72 -173q72 -72 173 -72
h1208v240h-1170q-16 0 -29.5 13.5t-13.5 29.5v816q0 16 13.5 29.5t29.5 13.5h887q19 0 30 -13q13 -13 13 -30v-475q0 -11 -8 -23.5t-19 -16.5q-12 -3 -16 -3h-11q-8 0 -16 4q-11 4 -19 15.5t-8 23.5v417h-534q-102 0 -174 -72z" />
    <glyph glyph-name="A" unicode="A" 
d="M1053 1069q13 0 26 -5q13 -6 21 -15q11 -11 15 -22q5 -12 5 -26v-396h-667v396q0 29 19 48q22 20 49 20h532zM493 232v-252h-413v1066q0 80 31 153t85 127q53 54 126.5 85t153.5 31h621q80 0 153.5 -31t126.5 -85q54 -54 85 -127t31 -153v-1066h-413v252h-587zM1053 1029
h-532q-12 0 -20 -8t-8 -20v-356h587v356q0 7 -2 11q-1 4 -6 9q-3 3 -9 6q-3 2 -10 2zM453 272h667v-252h333v1026q0 146 -104 252q-104 104 -252 104h-621q-146 0 -252 -104q-104 -106 -104 -252v-1026h333v252z" />
    <glyph glyph-name="B" unicode="B" 
d="M1120 946q0 -26 -21 -47t-47 -21h-599v191h599q26 0 47 -21t21 -47v-55zM80 1442h1017q79 0 152.5 -31t127.5 -85t85 -127t31 -153v-145q0 -61 -18 -117q-15 -48 -30 -73q16 -29 30 -73q18 -55 18 -117v-145q0 -80 -31 -153.5t-85 -126.5q-53 -54 -126.5 -85t-153.5 -31
h-1017v1462zM453 545l599 -1q26 0 47 -21t21 -47v-55q0 -26 -21 -47t-47 -21h-599v192zM1080 946v55q0 28 -28 28h-559v-111h559q28 0 28 28zM120 1402v-1382h977q148 0 252 104q104 106 104 252v145q0 56 -16 105q-11 38 -39 85q28 47 39 85q16 49 16 105v145
q0 147 -104 251q-103 105 -252 105h-977zM493 505v-112h559q28 0 28 28v55q0 28 -28 28z" />
    <glyph glyph-name="C" unicode="C" 
d="M501 1021q-8 -8 -8 -20v-580q0 -8 2 -11q1 -6 6 -9q5 -5 9 -6q4 -2 11 -2h972v-413h-1017q-162 0 -279 117t-117 279v670q0 162 117 279t279 117h1017v-413h-972q-12 0 -20 -8zM473 1049q20 20 48 20h932v333h-977q-150 0 -253 -103.5t-103 -252.5v-670
q0 -149 103 -252.5t253 -103.5h977v333h-932q-14 0 -26 5q-10 4 -23 15q-10 12 -14 21q-5 13 -5 27v580q0 30 20 48z" />
    <glyph glyph-name="D" unicode="D" 
d="M1120 996v-571q0 -28 -22 -50t-50 -22h-595v716h595q28 0 50 -22t22 -51zM1104 -20h-1024v1462h1024q159 0 274 -115.5t115 -274.5v-683q0 -159 -115 -274t-274 -115zM1080 996q0 33 -32 33h-555v-636h555q32 0 32 32v571zM1104 20q146 0 247.5 101.5t101.5 247.5v683
q0 147 -101.5 248.5t-247.5 101.5h-984v-1382h984z" />
    <glyph glyph-name="E" unicode="E" 
d="M493 946q0 -28 28 -28h972v-413q-655 0 -972 -1q-28 0 -28 -28v-55q0 -28 28 -28h972v-413h-1017q-162 0 -279 117t-117 279v145q0 107 48 190q-48 83 -48 190v145q0 80 31 153t85 127t127.5 85t152.5 31h1017v-413h-972q-28 0 -28 -28v-55zM453 946v55q0 26 21 47t47 21
h932v333h-977q-147 0 -252 -105q-104 -104 -104 -251v-145q0 -98 55 -190q-55 -92 -55 -190v-145q0 -149 103 -252.5t253 -103.5h977v333h-932q-26 0 -47 21t-21 47v55q0 26 21 47t47 21q317 1 932 1v333h-932q-26 0 -47 21t-21 47z" />
    <glyph glyph-name="F" unicode="F" 
d="M493 946q0 -28 28 -28h972v-413l-972 -1q-28 0 -28 -28v-496h-413v541q0 108 49 190q-49 82 -49 190v145q0 80 31 153t85 127q53 54 126.5 85t153.5 31h1017v-413h-972q-28 0 -28 -28v-55zM453 946v55q0 26 21 47t47 21h932v333h-977q-146 0 -252 -104
q-104 -106 -104 -252v-145q0 -98 55 -190q-55 -92 -55 -190v-501h333v456q0 26 20.5 47t47.5 21l932 1v333h-932q-26 0 -47 21t-21 47z" />
    <glyph glyph-name="G" unicode="G" 
d="M493 1007v-580q0 -28 28 -28h559v83q0 28 -28 28h-479v413h524q162 0 279 -117t117 -279v-541h-1017q-162 0 -279 117t-117 279v670q0 162 117 279t279 117h998v-413h-953q-28 0 -28 -28zM453 1007q0 26 21 47t47 21h913v333h-958q-150 0 -253 -103.5t-103 -252.5v-670
q0 -149 103 -252.5t253 -103.5h977v501q0 150 -103.5 253t-252.5 103h-484v-333h439q26 0 47 -20.5t21 -47.5v-123h-599q-26 0 -47 21t-21 47v580z" />
    <glyph glyph-name="H" unicode="H" 
d="M1080 918v524h413v-1462h-413v524h-587v-524h-413v1462h413v-524h587zM1120 878h-667v524h-333v-1382h333v524h667v-524h333v1382h-333v-524z" />
    <glyph glyph-name="I" unicode="I" horiz-adv-x="573" 
d="M80 -20v1462h413v-1462h-413zM120 20h333v1382h-333v-1382z" />
    <glyph glyph-name="J" unicode="J" 
d="M1493 1442v-1066q0 -80 -31 -153t-85 -127q-53 -54 -126.5 -85t-153.5 -31h-1017v413h972q12 0 20 8t8 20v1021h413zM1453 1402h-333v-981q0 -30 -20 -48q-18 -20 -48 -20h-932v-333h977q148 0 252 104q104 106 104 252v1026z" />
    <glyph glyph-name="K" unicode="K" 
d="M80 -20v1462h413v-524h566q7 1 14 8t7 19v497h413v-520q0 -73 -13 -125q-15 -54 -35 -86q20 -32 35 -86q13 -52 13 -125v-520h-413v497q0 12 -7 19t-14 8h-566v-524h-413zM120 20h333v524h609q26 -3 41 -22q17 -19 17 -45v-457h333v480q0 67 -12 115q-12 45 -42 96
q30 51 42 96q12 48 12 115v480h-333v-457q0 -26 -17 -45q-15 -19 -41 -22h-609v524h-333v-1382z" />
    <glyph glyph-name="L" unicode="L" 
d="M80 1442h413v-1021q0 -12 8 -20t20 -8h972v-413h-1017q-80 0 -153.5 31t-126.5 85q-54 54 -85 127t-31 153v1066zM120 1402v-1026q0 -146 104 -252q106 -104 252 -104h977v333h-932q-30 0 -48 20q-20 18 -20 48v981h-333z" />
    <glyph glyph-name="M" unicode="M" horiz-adv-x="2272" 
d="M80 -21v1066q0 80 31 153.5t85 126.5q53 54 126.5 85t153.5 31h187q80 0 153.5 -31t126.5 -85q54 -53 85 -126.5t31 -153.5v-372q0 -12 8 -20t20 -8h98q12 0 20 9q8 7 8 19v372q0 80 31 153.5t85 126.5q53 54 126.5 85t153.5 31h187q80 0 153.5 -31t126.5 -85
q54 -53 85 -126.5t31 -153.5v-1066h-413v1021q0 12 -8 20t-20 8h-97q-12 0 -20 -8t-8 -20v-372q0 -79 -31 -152t-85 -128q-55 -54 -128 -85t-152 -31h-188q-79 0 -152 31t-128 85q-54 55 -85 128t-31 152l1 372q0 11 -9 20q-8 8 -20 8h-97q-12 0 -20 -8t-8 -20v-1021h-413z
M120 19h333v981q0 30 20 48q20 20 48 20h97q27 0 49 -20q20 -20 20 -48l-1 -372q0 -147 105 -252q104 -104 251 -104h188q147 0 251 104q105 105 105 252v372q0 29 19 48q22 20 49 20h97q28 0 48 -20q20 -18 20 -48v-981h333v1026q0 146 -104 252q-106 104 -252 104h-187
q-148 0 -252 -104q-104 -106 -104 -252v-372q0 -28 -20 -48t-48 -20h-98q-28 0 -48 20t-20 48v372q0 146 -104 252q-104 104 -252 104h-187q-146 0 -252 -104q-104 -106 -104 -252v-1026z" />
    <glyph glyph-name="N" unicode="N" horiz-adv-x="1706" 
d="M80 -20v1066q0 80 31 153t85 127t127.5 85t152.5 31h187q79 0 152.5 -31t127.5 -85t85 -127t31 -153v-625q0 -12 8 -20t20 -8h98q12 0 20 8t8 20v1021h413v-1066q0 -79 -31 -152.5t-85 -127.5t-127 -85t-153 -31h-188q-80 0 -153 31t-127 85t-85 127.5t-31 152.5v625
q0 12 -8 20t-20 8h-97q-12 0 -20 -8t-8 -20v-1021h-413zM120 20h333v981q0 30 20 48q20 20 48 20h97q27 0 49 -20q19 -19 19 -48v-625q0 -149 105 -252q104 -104 251 -104h188q147 0 251 104q105 103 105 252v1026h-333v-981q0 -28 -20 -48q-18 -20 -48 -20h-98
q-29 0 -48 19q-20 22 -20 49v625q0 147 -104 251q-103 105 -252 105h-187q-147 0 -252 -105q-104 -104 -104 -251v-1026z" />
    <glyph glyph-name="O" unicode="O" 
d="M1097 1442q80 0 153.5 -31t126.5 -85q54 -54 85 -127t31 -153v-670q0 -80 -31 -153t-85 -127q-53 -54 -126.5 -85t-153.5 -31h-621q-80 0 -153.5 31t-126.5 85q-54 54 -85 127t-31 153v670q0 80 31 153t85 127q53 54 126.5 85t153.5 31h621zM1120 1001v-580q0 -14 -5 -26
q-5 -13 -14 -22q-10 -10 -23 -15q-12 -5 -26 -5h-531q-14 0 -26 5q-11 4 -22 15t-15 22q-5 12 -5 26v580q0 30 20 48q20 20 48 20h531q27 0 49 -20q19 -19 19 -48zM1097 1402h-621q-146 0 -252 -104q-104 -106 -104 -252v-670q0 -146 104 -252q106 -104 252 -104h621
q148 0 252 104q104 106 104 252v670q0 146 -104 252q-104 104 -252 104zM1080 1001q0 12 -8 20t-20 8h-531q-12 0 -20 -8t-8 -20v-580q0 -7 2 -11q1 -4 6 -9q3 -3 9 -6q4 -2 11 -2h531q7 0 11 2q6 3 9 6q5 5 6 9q2 4 2 11v580z" />
    <glyph glyph-name="P" unicode="P" horiz-adv-x="1574" 
d="M1100 627q-20 -22 -51 -22h-596v464h596q30 0 51 -21t21 -52v-318q0 -30 -21 -51zM80 -20v1462h1024q160 0 276 -114q53 -54 83.5 -126t30.5 -150v-430q0 -78 -30.5 -150t-83.5 -125q-54 -54 -125.5 -84.5t-150.5 -30.5h-611v-252h-413zM1071 655q10 10 10 23v318
q0 14 -10 23q-9 10 -22 10h-556v-384h556q13 0 22 10zM120 20h333v252h651q144 0 247 103q103 101 103 247v430q0 146 -103 247q-101 103 -247 103h-984v-1382z" />
    <glyph glyph-name="Q" unicode="Q" 
d="M1052 399q12 0 20 8.5t8 19.5v580q0 12 -7.5 20t-20.5 8h-531q-13 0 -20.5 -8t-7.5 -20v-580q0 -13 8.5 -20.5t19.5 -7.5h531zM1052 359h-531q-30 0 -49 21t-19 47v580q0 27 19.5 47.5t48.5 20.5h531q29 0 48.5 -19.5t19.5 -48.5v-580q0 -29 -19.5 -48.5t-48.5 -19.5z
M1452 -168v331l-17 2q-10 0 -41 19q59 103 59 198v670q0 146 -102.5 250.5t-253.5 104.5h-621q-150 0 -253 -103.5t-103 -251.5v-670q0 -146 102.5 -250.5t253.5 -104.5h607q55 -100 138.5 -147.5t178.5 -47.5h52zM1492 -208h-92q-110 0 -201.5 55.5t-138.5 139.5h-584
q-162 0 -279 114t-117 281v670q0 103 50.5 193.5t142 146t203.5 55.5h621q162 0 279 -114t117 -281v-670q0 -96 -42 -178l41 -6v-406z" />
    <glyph glyph-name="R" unicode="R" horiz-adv-x="1574" 
d="M1101 628q-20 -21 -49 -23h-599v465h596q29 0 51 -22q21 -21 21 -51v-319q0 -28 -20 -50zM1081 -20v225q0 11 -8 19q-6 8 -16 9h-564v-253h-413v1462h1024q162 0 276 -114q53 -53 83.5 -125t30.5 -150v-431q0 -57 -18 -114q-10 -34 -29 -71q17 -28 29 -72q18 -59 18 -115
v-270h-413zM1072 655q9 11 9 23v319q0 13 -10 23q-9 10 -22 10h-556v-385h558q12 1 21 10zM1121 20h333v230q0 50 -16 103q-12 41 -37 84q25 44 37 82q16 54 16 103v431q0 146 -103 247q-102 102 -247 102h-984v-1382h333v253h606q25 -3 43 -21q19 -19 19 -47v-185z" />
    <glyph glyph-name="S" unicode="S" 
d="M1080 476q0 12 -8 20t-20 8l-577 1q-79 0 -152 31t-127 85t-85 127t-31 153v146q0 80 31 153t85 126q53 54 126.5 85t153.5 31h1017v-412h-972q-28 0 -28 -28v-56q0 -29 28 -29h576q80 0 153 -31t127 -85t85 -127t31 -153v-145q0 -80 -31 -153t-85 -127
q-53 -53 -126.5 -84t-153.5 -31h-1017v412h972q12 0 20 9q8 7 8 19v55zM1120 476v-55q0 -30 -20 -48q-20 -20 -48 -20h-932v-332h977q150 0 252 104q104 104 104 251v145q0 146 -104 252q-106 104 -252 104h-576q-27 0 -47.5 21t-20.5 48v56q0 26 21 47t47 21h932v332h-977
q-146 0 -252 -104q-104 -104 -104 -251v-146q0 -146 104 -252q104 -104 251 -104l577 -1q29 0 48 -19q20 -20 20 -49z" />
    <glyph glyph-name="T" unicode="T" horiz-adv-x="1574" 
d="M580 -20v1022q0 11 -8 19q-9 9 -20 9h-472v412h1414v-412h-473q-11 0 -20 -9q-8 -8 -8 -19v-1022h-413zM620 20h333v982q0 28 20 48t48 20h433v332h-1334v-332h432q28 0 48 -20t20 -48v-982z" />
    <glyph glyph-name="U" unicode="U" 
d="M1053 411q7 0 10 2q11 4 15 15q2 4 2 11v1021h413v-1066q0 -80 -31 -153t-85 -127t-127.5 -85t-152.5 -31h-621q-79 0 -152.5 31t-127.5 85t-85 127t-31 153v1066h413v-1021q0 -28 28 -28h532zM1053 371h-532q-26 0 -47 21t-21 47v981h-333v-1026q0 -146 104 -252
q106 -104 252 -104h621q148 0 252 104q104 106 104 252v1026h-333v-981q0 -14 -5 -26q-11 -27 -36 -37q-13 -5 -26 -5z" />
    <glyph glyph-name="V" unicode="V" horiz-adv-x="1524" 
d="M1444 1442v-1462h-968q-79 0 -152.5 31t-127.5 85t-85 127t-31 153v1066h413v-1021q0 -28 28 -28h511v1049h412zM1404 1402h-332v-1049h-551q-26 0 -47 21t-21 47v981h-333v-1026q0 -146 104 -252q106 -104 252 -104h928v1382z" />
    <glyph glyph-name="W" unicode="W" horiz-adv-x="2272" 
d="M80 1441h412v-1020q0 -12 8 -20t20 -8h98q12 0 20 8t8 19v372q0 80 31 153.5t85 126.5q53 54 126.5 85t153.5 31h187q80 0 153.5 -31t126.5 -85q54 -53 85 -126.5t31 -153.5l1 -371q0 -12 8 -20t20 -8h97q12 0 20 8t8 20v1020h413v-1065q0 -80 -31 -153.5t-85 -127.5
q-55 -54 -128 -85t-152 -31h-187q-79 0 -152.5 31t-127.5 85t-85 127.5t-31 153.5v371q0 12 -8 20t-20 8h-98q-12 0 -20 -8t-8 -20v-371q0 -80 -31 -153.5t-85 -127.5t-127.5 -85t-152.5 -31h-187q-79 0 -152.5 31t-127.5 85t-85 127.5t-31 153.5v1065zM120 1401v-1025
q0 -148 104 -252q105 -105 252 -105h187q149 0 252 105q104 104 104 252v371q0 27 20 49q19 19 48 19h98q30 0 48 -20q20 -20 20 -48v-371q0 -148 104 -252q103 -105 252 -105h187q147 0 252 105q104 104 104 252v1025h-333v-980q0 -29 -20 -49q-19 -19 -48 -19h-97
q-28 0 -49 19q-19 21 -19 49l-1 371q0 148 -104 252q-102 104 -252 104h-187q-148 0 -252 -104t-104 -252v-372q0 -26 -20 -48q-19 -19 -48 -19h-98q-29 0 -48 19q-20 22 -20 49v980h-332z" />
    <glyph glyph-name="X" unicode="X" 
d="M1053 918q7 0 10 2q5 1 9 5q5 7 6 10q2 3 2 11v496h413v-541q0 -63 -18 -117q-15 -48 -30 -73q15 -25 30 -73q18 -54 18 -117v-541h-413v496q0 8 -2 11q-1 3 -6 10q-4 4 -9 5q-3 2 -10 2h-532q-12 0 -20 -8t-8 -20v-496h-413v541q0 63 18 117q15 48 30 73q-15 25 -30 73
q-18 54 -18 117v541h413v-496q0 -12 8 -20t20 -8h532zM1053 878h-532q-29 0 -48 19q-20 20 -20 49v456h-333v-501q0 -57 16 -106q11 -37 39 -84q-28 -47 -39 -85q-16 -48 -16 -105v-501h333v456q0 29 20 49q19 19 48 19h532q13 0 26 -5q14 -6 22 -14q9 -11 14 -22
q5 -13 5 -27v-456h333v501q0 52 -16 105q-11 38 -39 85q28 47 39 84q16 54 16 106v501h-333v-456q0 -14 -5 -27q-5 -11 -14 -22q-8 -8 -22 -14q-13 -5 -26 -5z" />
    <glyph glyph-name="Y" unicode="Y" 
d="M1053 917q28 0 28 28v497h412v-542q0 -80 -31 -153t-85 -127q-53 -53 -126.5 -84t-153.5 -31l-104 -1v-524h-413v524h-104q-79 0 -152.5 31t-127.5 85t-85 127t-31 153v542h412v-497q0 -28 29 -28h532zM1053 877h-532q-26 0 -47.5 21t-21.5 47v457h-332v-502
q0 -147 104 -251q103 -105 252 -105h144v-524h333v524l144 1q150 0 252 104q104 104 104 251v502h-332v-457q0 -26 -21 -47t-47 -21z" />
    <glyph glyph-name="Z" unicode="Z" 
d="M493 476v-55q0 -12 8 -19q8 -9 20 -9h972v-412h-1017q-79 0 -152.5 30.5t-127.5 84.5t-85 127t-31 153v145q0 80 31 153t85 127t127 85t153 31h577q11 0 19 9q8 8 8 20v56q0 11 -8 19q-9 9 -20 9h-972v412h1017q80 0 153.5 -31t126.5 -85q54 -53 85 -126t31 -153v-146
q0 -80 -31 -153t-85 -127q-117 -117 -300 -117v1h-556q-12 0 -20 -9q-8 -8 -8 -20zM453 476q0 29 20 49t48 20h596v-1q60 0 121 27.5t111 77.5q104 106 104 252v146q0 147 -104 251t-252 104h-977v-332h932q28 0 48 -20q20 -18 20 -48v-56q0 -28 -19 -49q-22 -20 -48 -20
h-577q-146 0 -252 -104q-104 -106 -104 -252v-145q0 -147 104 -251t252 -104h977v332h-932q-28 0 -48 20q-20 18 -20 48v55z" />
    <glyph glyph-name="bracketleft" unicode="[" horiz-adv-x="874" 
d="M794 -27v-413h-714v2302h714v-413h-301v-1476h301zM754 -67h-301v1556h301v333h-634v-2222h634v333z" />
    <glyph glyph-name="backslash" unicode="\" horiz-adv-x="1484" 
d="M1419 -20h-487l-867 1462h487zM1349 20l-820 1382h-394l820 -1382h394z" />
    <glyph glyph-name="bracketright" unicode="]" horiz-adv-x="874" 
d="M80 -27h301v1476h-301v413h714v-2302h-714v413zM120 -67v-333h634v2222h-634v-333h301v-1556h-301z" />
    <glyph glyph-name="asciicircum" unicode="^" horiz-adv-x="1087" 
d="M543 921l-66 -106h-409l226 463q31 74 100 119t149 45q81 0 150 -45q68 -45 101 -119l225 -463h-409zM543 996l89 -141h323l-198 406q-27 63 -86 103q-58 38 -128 38q-69 0 -127 -38q-59 -40 -86 -103l-198 -406h323z" />
    <glyph glyph-name="underscore" unicode="_" horiz-adv-x="1570" 
d="M80 393h1410v-413h-1410v413zM120 353v-333h1330v333h-1330z" />
    <glyph glyph-name="a" unicode="a" 
d="M1053 1069q13 0 26 -5q13 -6 21 -15q11 -11 15 -22q5 -12 5 -26v-396h-667v396q0 29 19 48q22 20 49 20h532zM493 232v-252h-413v1066q0 80 31 153t85 127q53 54 126.5 85t153.5 31h621q80 0 153.5 -31t126.5 -85q54 -54 85 -127t31 -153v-1066h-413v252h-587zM1053 1029
h-532q-12 0 -20 -8t-8 -20v-356h587v356q0 7 -2 11q-1 4 -6 9q-3 3 -9 6q-3 2 -10 2zM453 272h667v-252h333v1026q0 146 -104 252q-104 104 -252 104h-621q-146 0 -252 -104q-104 -106 -104 -252v-1026h333v252z" />
    <glyph glyph-name="b" unicode="b" 
d="M1120 946q0 -26 -21 -47t-47 -21h-599v191h599q26 0 47 -21t21 -47v-55zM80 1442h1017q79 0 152.5 -31t127.5 -85t85 -127t31 -153v-145q0 -61 -18 -117q-15 -48 -30 -73q16 -29 30 -73q18 -55 18 -117v-145q0 -80 -31 -153.5t-85 -126.5q-53 -54 -126.5 -85t-153.5 -31
h-1017v1462zM453 545l599 -1q26 0 47 -21t21 -47v-55q0 -26 -21 -47t-47 -21h-599v192zM1080 946v55q0 28 -28 28h-559v-111h559q28 0 28 28zM120 1402v-1382h977q148 0 252 104q104 106 104 252v145q0 56 -16 105q-11 38 -39 85q28 47 39 85q16 49 16 105v145
q0 147 -104 251q-103 105 -252 105h-977zM493 505v-112h559q28 0 28 28v55q0 28 -28 28z" />
    <glyph glyph-name="c" unicode="c" 
d="M501 1021q-8 -8 -8 -20v-580q0 -8 2 -11q1 -6 6 -9q5 -5 9 -6q4 -2 11 -2h972v-413h-1017q-162 0 -279 117t-117 279v670q0 162 117 279t279 117h1017v-413h-972q-12 0 -20 -8zM473 1049q20 20 48 20h932v333h-977q-150 0 -253 -103.5t-103 -252.5v-670
q0 -149 103 -252.5t253 -103.5h977v333h-932q-14 0 -26 5q-10 4 -23 15q-10 12 -14 21q-5 13 -5 27v580q0 30 20 48z" />
    <glyph glyph-name="d" unicode="d" 
d="M1120 996v-571q0 -28 -22 -50t-50 -22h-595v716h595q28 0 50 -22t22 -51zM1104 -20h-1024v1462h1024q159 0 274 -115.5t115 -274.5v-683q0 -159 -115 -274t-274 -115zM1080 996q0 33 -32 33h-555v-636h555q32 0 32 32v571zM1104 20q146 0 247.5 101.5t101.5 247.5v683
q0 147 -101.5 248.5t-247.5 101.5h-984v-1382h984z" />
    <glyph glyph-name="e" unicode="e" 
d="M493 946q0 -28 28 -28h972v-413q-655 0 -972 -1q-28 0 -28 -28v-55q0 -28 28 -28h972v-413h-1017q-162 0 -279 117t-117 279v145q0 107 48 190q-48 83 -48 190v145q0 80 31 153t85 127t127.5 85t152.5 31h1017v-413h-972q-28 0 -28 -28v-55zM453 946v55q0 26 21 47t47 21
h932v333h-977q-147 0 -252 -105q-104 -104 -104 -251v-145q0 -98 55 -190q-55 -92 -55 -190v-145q0 -149 103 -252.5t253 -103.5h977v333h-932q-26 0 -47 21t-21 47v55q0 26 21 47t47 21q317 1 932 1v333h-932q-26 0 -47 21t-21 47z" />
    <glyph glyph-name="f" unicode="f" 
d="M493 946q0 -28 28 -28h972v-413l-972 -1q-28 0 -28 -28v-496h-413v541q0 108 49 190q-49 82 -49 190v145q0 80 31 153t85 127q53 54 126.5 85t153.5 31h1017v-413h-972q-28 0 -28 -28v-55zM453 946v55q0 26 21 47t47 21h932v333h-977q-146 0 -252 -104
q-104 -106 -104 -252v-145q0 -98 55 -190q-55 -92 -55 -190v-501h333v456q0 26 20.5 47t47.5 21l932 1v333h-932q-26 0 -47 21t-21 47z" />
    <glyph glyph-name="g" unicode="g" 
d="M493 1007v-580q0 -28 28 -28h559v83q0 28 -28 28h-479v413h524q162 0 279 -117t117 -279v-541h-1017q-162 0 -279 117t-117 279v670q0 162 117 279t279 117h998v-413h-953q-28 0 -28 -28zM453 1007q0 26 21 47t47 21h913v333h-958q-150 0 -253 -103.5t-103 -252.5v-670
q0 -149 103 -252.5t253 -103.5h977v501q0 150 -103.5 253t-252.5 103h-484v-333h439q26 0 47 -20.5t21 -47.5v-123h-599q-26 0 -47 21t-21 47v580z" />
    <glyph glyph-name="h" unicode="h" 
d="M1080 918v524h413v-1462h-413v524h-587v-524h-413v1462h413v-524h587zM1120 878h-667v524h-333v-1382h333v524h667v-524h333v1382h-333v-524z" />
    <glyph glyph-name="i" unicode="i" horiz-adv-x="573" 
d="M80 -20v1462h413v-1462h-413zM120 20h333v1382h-333v-1382z" />
    <glyph glyph-name="j" unicode="j" 
d="M1493 1442v-1066q0 -80 -31 -153t-85 -127q-53 -54 -126.5 -85t-153.5 -31h-1017v413h972q12 0 20 8t8 20v1021h413zM1453 1402h-333v-981q0 -30 -20 -48q-18 -20 -48 -20h-932v-333h977q148 0 252 104q104 106 104 252v1026z" />
    <glyph glyph-name="k" unicode="k" 
d="M80 -20v1462h413v-524h566q7 1 14 8t7 19v497h413v-520q0 -73 -13 -125q-15 -54 -35 -86q20 -32 35 -86q13 -52 13 -125v-520h-413v497q0 12 -7 19t-14 8h-566v-524h-413zM120 20h333v524h609q26 -3 41 -22q17 -19 17 -45v-457h333v480q0 67 -12 115q-12 45 -42 96
q30 51 42 96q12 48 12 115v480h-333v-457q0 -26 -17 -45q-15 -19 -41 -22h-609v524h-333v-1382z" />
    <glyph glyph-name="l" unicode="l" 
d="M80 1442h413v-1021q0 -12 8 -20t20 -8h972v-413h-1017q-80 0 -153.5 31t-126.5 85q-54 54 -85 127t-31 153v1066zM120 1402v-1026q0 -146 104 -252q106 -104 252 -104h977v333h-932q-30 0 -48 20q-20 18 -20 48v981h-333z" />
    <glyph glyph-name="m" unicode="m" horiz-adv-x="2272" 
d="M80 -21v1066q0 80 31 153.5t85 126.5q53 54 126.5 85t153.5 31h187q80 0 153.5 -31t126.5 -85q54 -53 85 -126.5t31 -153.5v-372q0 -12 8 -20t20 -8h98q12 0 20 9q8 7 8 19v372q0 80 31 153.5t85 126.5q53 54 126.5 85t153.5 31h187q80 0 153.5 -31t126.5 -85
q54 -53 85 -126.5t31 -153.5v-1066h-413v1021q0 12 -8 20t-20 8h-97q-12 0 -20 -8t-8 -20v-372q0 -79 -31 -152t-85 -128q-55 -54 -128 -85t-152 -31h-188q-79 0 -152 31t-128 85q-54 55 -85 128t-31 152l1 372q0 11 -9 20q-8 8 -20 8h-97q-12 0 -20 -8t-8 -20v-1021h-413z
M120 19h333v981q0 30 20 48q20 20 48 20h97q27 0 49 -20q20 -20 20 -48l-1 -372q0 -147 105 -252q104 -104 251 -104h188q147 0 251 104q105 105 105 252v372q0 29 19 48q22 20 49 20h97q28 0 48 -20q20 -18 20 -48v-981h333v1026q0 146 -104 252q-106 104 -252 104h-187
q-148 0 -252 -104q-104 -106 -104 -252v-372q0 -28 -20 -48t-48 -20h-98q-28 0 -48 20t-20 48v372q0 146 -104 252q-104 104 -252 104h-187q-146 0 -252 -104q-104 -106 -104 -252v-1026z" />
    <glyph glyph-name="n" unicode="n" horiz-adv-x="1706" 
d="M80 -20v1066q0 80 31 153t85 127t127.5 85t152.5 31h187q79 0 152.5 -31t127.5 -85t85 -127t31 -153v-625q0 -12 8 -20t20 -8h98q12 0 20 8t8 20v1021h413v-1066q0 -79 -31 -152.5t-85 -127.5t-127 -85t-153 -31h-188q-80 0 -153 31t-127 85t-85 127.5t-31 152.5v625
q0 12 -8 20t-20 8h-97q-12 0 -20 -8t-8 -20v-1021h-413zM120 20h333v981q0 30 20 48q20 20 48 20h97q27 0 49 -20q19 -19 19 -48v-625q0 -149 105 -252q104 -104 251 -104h188q147 0 251 104q105 103 105 252v1026h-333v-981q0 -28 -20 -48q-18 -20 -48 -20h-98
q-29 0 -48 19q-20 22 -20 49v625q0 147 -104 251q-103 105 -252 105h-187q-147 0 -252 -105q-104 -104 -104 -251v-1026z" />
    <glyph glyph-name="o" unicode="o" 
d="M1097 1442q80 0 153.5 -31t126.5 -85q54 -54 85 -127t31 -153v-670q0 -80 -31 -153t-85 -127q-53 -54 -126.5 -85t-153.5 -31h-621q-80 0 -153.5 31t-126.5 85q-54 54 -85 127t-31 153v670q0 80 31 153t85 127q53 54 126.5 85t153.5 31h621zM1120 1001v-580q0 -14 -5 -26
q-5 -13 -14 -22q-10 -10 -23 -15q-12 -5 -26 -5h-531q-14 0 -26 5q-11 4 -22 15t-15 22q-5 12 -5 26v580q0 30 20 48q20 20 48 20h531q27 0 49 -20q19 -19 19 -48zM1097 1402h-621q-146 0 -252 -104q-104 -106 -104 -252v-670q0 -146 104 -252q106 -104 252 -104h621
q148 0 252 104q104 106 104 252v670q0 146 -104 252q-104 104 -252 104zM1080 1001q0 12 -8 20t-20 8h-531q-12 0 -20 -8t-8 -20v-580q0 -7 2 -11q1 -4 6 -9q3 -3 9 -6q4 -2 11 -2h531q7 0 11 2q6 3 9 6q5 5 6 9q2 4 2 11v580z" />
    <glyph glyph-name="p" unicode="p" horiz-adv-x="1574" 
d="M1100 627q-20 -22 -51 -22h-596v464h596q30 0 51 -21t21 -52v-318q0 -30 -21 -51zM80 -20v1462h1024q160 0 276 -114q53 -54 83.5 -126t30.5 -150v-430q0 -78 -30.5 -150t-83.5 -125q-54 -54 -125.5 -84.5t-150.5 -30.5h-611v-252h-413zM1071 655q10 10 10 23v318
q0 14 -10 23q-9 10 -22 10h-556v-384h556q13 0 22 10zM120 20h333v252h651q144 0 247 103q103 101 103 247v430q0 146 -103 247q-101 103 -247 103h-984v-1382z" />
    <glyph glyph-name="q" unicode="q" 
d="M1052 399q12 0 20 8.5t8 19.5v580q0 12 -7.5 20t-20.5 8h-531q-13 0 -20.5 -8t-7.5 -20v-580q0 -13 8.5 -20.5t19.5 -7.5h531zM1052 359h-531q-30 0 -49 21t-19 47v580q0 27 19.5 47.5t48.5 20.5h531q29 0 48.5 -19.5t19.5 -48.5v-580q0 -29 -19.5 -48.5t-48.5 -19.5z
M1452 -168v331l-17 2q-10 0 -41 19q59 103 59 198v670q0 146 -102.5 250.5t-253.5 104.5h-621q-150 0 -253 -103.5t-103 -251.5v-670q0 -146 102.5 -250.5t253.5 -104.5h607q55 -100 138.5 -147.5t178.5 -47.5h52zM1492 -208h-92q-110 0 -201.5 55.5t-138.5 139.5h-584
q-162 0 -279 114t-117 281v670q0 103 50.5 193.5t142 146t203.5 55.5h621q162 0 279 -114t117 -281v-670q0 -96 -42 -178l41 -6v-406z" />
    <glyph glyph-name="r" unicode="r" horiz-adv-x="1574" 
d="M1101 628q-20 -21 -49 -23h-599v465h596q29 0 51 -22q21 -21 21 -51v-319q0 -28 -20 -50zM1081 -20v225q0 11 -8 19q-6 8 -16 9h-564v-253h-413v1462h1024q162 0 276 -114q53 -53 83.5 -125t30.5 -150v-431q0 -57 -18 -114q-10 -34 -29 -71q17 -28 29 -72q18 -59 18 -115
v-270h-413zM1072 655q9 11 9 23v319q0 13 -10 23q-9 10 -22 10h-556v-385h558q12 1 21 10zM1121 20h333v230q0 50 -16 103q-12 41 -37 84q25 44 37 82q16 54 16 103v431q0 146 -103 247q-102 102 -247 102h-984v-1382h333v253h606q25 -3 43 -21q19 -19 19 -47v-185z" />
    <glyph glyph-name="s" unicode="s" 
d="M1080 476q0 12 -8 20t-20 8l-577 1q-79 0 -152 31t-127 85t-85 127t-31 153v146q0 80 31 153t85 126q53 54 126.5 85t153.5 31h1017v-412h-972q-28 0 -28 -28v-56q0 -29 28 -29h576q80 0 153 -31t127 -85t85 -127t31 -153v-145q0 -80 -31 -153t-85 -127
q-53 -53 -126.5 -84t-153.5 -31h-1017v412h972q12 0 20 9q8 7 8 19v55zM1120 476v-55q0 -30 -20 -48q-20 -20 -48 -20h-932v-332h977q150 0 252 104q104 104 104 251v145q0 146 -104 252q-106 104 -252 104h-576q-27 0 -47.5 21t-20.5 48v56q0 26 21 47t47 21h932v332h-977
q-146 0 -252 -104q-104 -104 -104 -251v-146q0 -146 104 -252q104 -104 251 -104l577 -1q29 0 48 -19q20 -20 20 -49z" />
    <glyph glyph-name="t" unicode="t" horiz-adv-x="1574" 
d="M580 -20v1022q0 11 -8 19q-9 9 -20 9h-472v412h1414v-412h-473q-11 0 -20 -9q-8 -8 -8 -19v-1022h-413zM620 20h333v982q0 28 20 48t48 20h433v332h-1334v-332h432q28 0 48 -20t20 -48v-982z" />
    <glyph glyph-name="u" unicode="u" 
d="M1053 411q7 0 10 2q11 4 15 15q2 4 2 11v1021h413v-1066q0 -80 -31 -153t-85 -127t-127.5 -85t-152.5 -31h-621q-79 0 -152.5 31t-127.5 85t-85 127t-31 153v1066h413v-1021q0 -28 28 -28h532zM1053 371h-532q-26 0 -47 21t-21 47v981h-333v-1026q0 -146 104 -252
q106 -104 252 -104h621q148 0 252 104q104 106 104 252v1026h-333v-981q0 -14 -5 -26q-11 -27 -36 -37q-13 -5 -26 -5z" />
    <glyph glyph-name="v" unicode="v" horiz-adv-x="1524" 
d="M1444 1442v-1462h-968q-79 0 -152.5 31t-127.5 85t-85 127t-31 153v1066h413v-1021q0 -28 28 -28h511v1049h412zM1404 1402h-332v-1049h-551q-26 0 -47 21t-21 47v981h-333v-1026q0 -146 104 -252q106 -104 252 -104h928v1382z" />
    <glyph glyph-name="w" unicode="w" horiz-adv-x="2272" 
d="M80 1441h412v-1020q0 -12 8 -20t20 -8h98q12 0 20 8t8 19v372q0 80 31 153.5t85 126.5q53 54 126.5 85t153.5 31h187q80 0 153.5 -31t126.5 -85q54 -53 85 -126.5t31 -153.5l1 -371q0 -12 8 -20t20 -8h97q12 0 20 8t8 20v1020h413v-1065q0 -80 -31 -153.5t-85 -127.5
q-55 -54 -128 -85t-152 -31h-187q-79 0 -152.5 31t-127.5 85t-85 127.5t-31 153.5v371q0 12 -8 20t-20 8h-98q-12 0 -20 -8t-8 -20v-371q0 -80 -31 -153.5t-85 -127.5t-127.5 -85t-152.5 -31h-187q-79 0 -152.5 31t-127.5 85t-85 127.5t-31 153.5v1065zM120 1401v-1025
q0 -148 104 -252q105 -105 252 -105h187q149 0 252 105q104 104 104 252v371q0 27 20 49q19 19 48 19h98q30 0 48 -20q20 -20 20 -48v-371q0 -148 104 -252q103 -105 252 -105h187q147 0 252 105q104 104 104 252v1025h-333v-980q0 -29 -20 -49q-19 -19 -48 -19h-97
q-28 0 -49 19q-19 21 -19 49l-1 371q0 148 -104 252q-102 104 -252 104h-187q-148 0 -252 -104t-104 -252v-372q0 -26 -20 -48q-19 -19 -48 -19h-98q-29 0 -48 19q-20 22 -20 49v980h-332z" />
    <glyph glyph-name="x" unicode="x" 
d="M1053 918q7 0 10 2q5 1 9 5q5 7 6 10q2 3 2 11v496h413v-541q0 -63 -18 -117q-15 -48 -30 -73q15 -25 30 -73q18 -54 18 -117v-541h-413v496q0 8 -2 11q-1 3 -6 10q-4 4 -9 5q-3 2 -10 2h-532q-12 0 -20 -8t-8 -20v-496h-413v541q0 63 18 117q15 48 30 73q-15 25 -30 73
q-18 54 -18 117v541h413v-496q0 -12 8 -20t20 -8h532zM1053 878h-532q-29 0 -48 19q-20 20 -20 49v456h-333v-501q0 -57 16 -106q11 -37 39 -84q-28 -47 -39 -85q-16 -48 -16 -105v-501h333v456q0 29 20 49q19 19 48 19h532q13 0 26 -5q14 -6 22 -14q9 -11 14 -22
q5 -13 5 -27v-456h333v501q0 52 -16 105q-11 38 -39 85q28 47 39 84q16 54 16 106v501h-333v-456q0 -14 -5 -27q-5 -11 -14 -22q-8 -8 -22 -14q-13 -5 -26 -5z" />
    <glyph glyph-name="y" unicode="y" 
d="M1053 917q28 0 28 28v497h412v-542q0 -80 -31 -153t-85 -127q-53 -53 -126.5 -84t-153.5 -31l-104 -1v-524h-413v524h-104q-79 0 -152.5 31t-127.5 85t-85 127t-31 153v542h412v-497q0 -28 29 -28h532zM1053 877h-532q-26 0 -47.5 21t-21.5 47v457h-332v-502
q0 -147 104 -251q103 -105 252 -105h144v-524h333v524l144 1q150 0 252 104q104 104 104 251v502h-332v-457q0 -26 -21 -47t-47 -21z" />
    <glyph glyph-name="z" unicode="z" 
d="M493 476v-55q0 -12 8 -19q8 -9 20 -9h972v-412h-1017q-79 0 -152.5 30.5t-127.5 84.5t-85 127t-31 153v145q0 80 31 153t85 127t127 85t153 31h577q11 0 19 9q8 8 8 20v56q0 11 -8 19q-9 9 -20 9h-972v412h1017q80 0 153.5 -31t126.5 -85q54 -53 85 -126t31 -153v-146
q0 -80 -31 -153t-85 -127q-117 -117 -300 -117v1h-556q-12 0 -20 -9q-8 -8 -8 -20zM453 476q0 29 20 49t48 20h596v-1q60 0 121 27.5t111 77.5q104 106 104 252v146q0 147 -104 251t-252 104h-977v-332h932q28 0 48 -20q20 -18 20 -48v-56q0 -28 -19 -49q-22 -20 -48 -20
h-577q-146 0 -252 -104q-104 -106 -104 -252v-145q0 -147 104 -251t252 -104h977v332h-932q-28 0 -48 20q-20 18 -20 48v55z" />
    <glyph glyph-name="bar" unicode="|" horiz-adv-x="573" 
d="M80 -350v2120h413v-2120h-413zM120 -310h333v2040h-333v-2040z" />
    <glyph glyph-name="asciitilde" unicode="~" horiz-adv-x="1234" 
d="M821 793v143h333v-183q0 -124 -88 -212t-212 -88q-121 1 -127 1q-94 6 -167 62q-72 57 -103 151q-1 5 -4 5h-33q-5 0 -6 -1t-1 -6v-142h-333v183q0 123 88 211q86 88 211 88q121 0 127 -1q40 0 87 -18t81 -44q36 -28 58.5 -64t32.5 -61.5t15 -29.5q2 -1 4 -1h30q5 0 6 1
t1 6zM861 793q0 -17 -15 -32t-32 -15h-30q-18 0 -28 10q-10 7 -39 66t-68 89q-69 53 -144 53q-6 1 -126 1q-107 0 -183 -76t-76 -183v-143h253v102q0 18 15 32.5t32 14.5h30q14 0 27.5 -10t17.5 -23q28 -84 90 -131q64 -50 144 -54l125 -1q108 0 184 76t76 184v143h-253
v-103z" />
    <glyph glyph-name="exclamdown" unicode="&#xa1;" horiz-adv-x="573" 
d="M80 -20v1059h413v-1059h-413zM493 1050h-413v391h413v-391zM120 20h333v979h-333v-979zM453 1090v311h-333v-311h333z" />
    <glyph glyph-name="brokenbar" unicode="&#xa6;" horiz-adv-x="573" 
d="M80 780v912h413v-912h-413zM120 797h333v878h-333v-878zM80 -267v912h413v-912h-413zM120 -249h333v877h-333v-877z" />
    <glyph glyph-name="dieresis" unicode="&#xa8;" horiz-adv-x="849" 
d="M329 1607v208h-209v-208h209zM729 1607v208h-209v-208h209zM369 1567h-289v288h289v-288zM769 1567h-289v288h289v-288z" />
    <glyph glyph-name="guillemetleft" unicode="&#xab;" horiz-adv-x="2195" 
d="M1076 556l36 -16v-460l-844 364q-85 36 -137 114q-51 78 -51 171t51 171q53 79 137 115l844 363v-460l-439 -189zM1060 519l-488 210l500 215v373l-788 -339q-74 -32 -119 -100t-45 -149t45 -149q44 -67 119 -100l788 -339v373zM2079 556l36 -16v-460l-844 364
q-85 36 -137 114q-51 78 -51 171t51 171t137 115l844 363v-460l-439 -189zM2063 519l-488 210l500 215v373l-788 -339q-74 -32 -119 -100q-45 -66 -45 -149t45 -149q45 -68 119 -100l788 -339v373z" />
    <glyph glyph-name="macron" unicode="&#xaf;" horiz-adv-x="949" 
d="M829 1607v208h-709v-208h709zM869 1567h-789v288h789v-288z" />
    <glyph glyph-name="plusminus" unicode="&#xb1;" horiz-adv-x="1204" 
d="M808 1136h316v-413h-316v-316h-412v316h-316v413h316v315h412v-315zM768 1096v315h-332v-315h-316v-333h316v-316h332v316h316v333h-316zM80 372h1044v-413h-1044v413zM120 332v-333h964v333h-964z" />
    <glyph glyph-name="periodcentered" unicode="&#xb7;" horiz-adv-x="517" 
d="M83 921h351v-351h-351v351zM117 887v-283h283v283h-283z" />
    <glyph glyph-name="periodcentered" unicode="&#x2219;" horiz-adv-x="517" 
d="M83 921h351v-351h-351v351zM117 887v-283h283v283h-283z" />
    <glyph glyph-name="guillemetright" unicode="&#xbb;" horiz-adv-x="2195" 
d="M116 556l403 173l-439 189v460l844 -363q86 -37 137 -115t51 -171t-51 -171q-50 -77 -137 -114l-844 -364v460zM132 519l-12 -5v-373l788 339q73 32 120 100q44 67 44 149t-44 149q-47 68 -120 100l-788 339v-373l500 -215zM1119 556l403 173l-439 189v460l844 -363
q86 -37 137 -115t51 -171t-51 -171q-50 -77 -137 -114l-844 -364v460zM1135 519l-12 -5v-373l788 339q74 32 119 100q45 66 45 149t-45 149q-45 68 -119 100l-788 339v-373l500 -215z" />
    <glyph glyph-name="questiondown" unicode="&#xbf;" 
d="M1141 1051h-412v391h412v-391zM729 1039h412v-163q0 -79 -30.5 -150.5t-83.5 -124.5q-112 -113 -275 -115h-227q-32 0 -32 -33v-28q0 -32 32 -32h968v-413h-1024q-159 0 -275 114q-114 116 -114 276v139q0 78 30.5 150t83.5 125q54 54 125.5 84.5t149.5 30.5h227
q33 0 33 32v108zM1101 1091v311h-332v-311h332zM769 999v-68q0 -28 -22 -50t-51 -22h-227q-144 0 -247 -103q-102 -102 -102 -247v-139q0 -145 102 -247q103 -103 247 -103h984v333h-928q-28 0 -50 22t-22 50v28q0 29 22 51t50 22h227q145 1 247 103t102 247v123h-332z" />
    <glyph glyph-name="Acircumflex" unicode="&#xc2;" 
d="M1053 1069q13 0 26 -5q13 -6 21 -15q11 -11 15 -22q5 -12 5 -26v-396h-667v396q0 29 19 48q22 20 49 20h532zM493 232v-252h-413v1066q0 80 31 153t85 127q53 54 126.5 85t153.5 31h621q80 0 153.5 -31t126.5 -85q54 -54 85 -127t31 -153v-1066h-413v252h-587zM1053 1029
h-532q-12 0 -20 -8t-8 -20v-356h587v356q0 7 -2 11q-1 4 -6 9q-3 3 -9 6q-3 2 -10 2zM453 272h667v-252h333v1026q0 146 -104 252q-104 104 -252 104h-621q-146 0 -252 -104q-104 -106 -104 -252v-1026h333v252zM693 1530h-326l208 328q27 43 85.5 70t125.5 27
q68 0 126.5 -27t86.5 -70l207 -328h-326l-94 148zM671 1570l115 183l116 -183h231l-168 267q-23 36 -71 57t-108 21t-107.5 -21t-70.5 -57l-168 -267h231z" />
    <glyph glyph-name="Atilde" unicode="&#xc3;" 
d="M1053 1069q13 0 26 -5q13 -6 21 -15q11 -11 15 -22q5 -12 5 -26v-396h-667v396q0 29 19 48q22 20 49 20h532zM493 232v-252h-413v1066q0 80 31 153t85 127q53 54 126.5 85t153.5 31h621q80 0 153.5 -31t126.5 -85q54 -54 85 -127t31 -153v-1066h-413v252h-587zM1053 1029
h-532q-12 0 -20 -8t-8 -20v-356h587v356q0 7 -2 11q-1 4 -6 9q-3 3 -9 6q-3 2 -10 2zM453 272h667v-252h333v1026q0 146 -104 252q-104 104 -252 104h-621q-146 0 -252 -104q-104 -106 -104 -252v-1026h333v252zM1024 1565q94 0 157 49t63 121v78h-173v-46q0 -29 -27 -51
t-60 -22h-30q-27 0 -51 14.5t-32 36.5q-1 1 -1 4q-50 107 -197 119h-124q-94 0 -156.5 -49t-62.5 -121v-78h173v46q0 29 27 51t60 22h30q27 0 51 -14.5t32 -36.5l1 -1v-3q48 -107 196 -119h124zM1024 1525h-125q-80 5 -143.5 44t-89.5 102q0 13 -17 20.5t-29 7.5h-30
q-46 0 -47 -33v-86h-253v118q0 87 77.5 148.5t181.5 61.5h125q79 -5 142.5 -44t90.5 -102v1q10 -22 20.5 -25.5t56.5 -3.5q44 0 47 33v86h253v-118q0 -87 -78 -148.5t-182 -61.5z" />
    <glyph glyph-name="Adieresis" unicode="&#xc4;" 
d="M1053 1069q13 0 26 -5q13 -6 21 -15q11 -11 15 -22q5 -12 5 -26v-396h-667v396q0 29 19 48q22 20 49 20h532zM493 232v-252h-413v1066q0 80 31 153t85 127q53 54 126.5 85t153.5 31h621q80 0 153.5 -31t126.5 -85q54 -54 85 -127t31 -153v-1066h-413v252h-587zM1053 1029
h-532q-12 0 -20 -8t-8 -20v-356h587v356q0 7 -2 11q-1 4 -6 9q-3 3 -9 6q-3 2 -10 2zM453 272h667v-252h333v1026q0 146 -104 252q-104 104 -252 104h-621q-146 0 -252 -104q-104 -106 -104 -252v-1026h333v252zM691 1607v208h-209v-208h209zM1091 1607v208h-209v-208h209z
M731 1567h-289v288h289v-288zM1131 1567h-289v288h289v-288z" />
    <glyph glyph-name="AE" unicode="&#xc6;" horiz-adv-x="2580" 
d="M1080 645v356q-3 28 -27 28h-532q-11 0 -19.5 -8t-8.5 -20v-356h587zM2460 20v333h-933q-29 0 -48.5 19.5t-19.5 48.5v55q0 28 19.5 48t48.5 20l933 1v333h-933q-29 0 -48.5 20t-19.5 48v55q0 29 19.5 48.5t48.5 19.5h933v333h-978q-97 0 -192 -56q-95 56 -193 56h-621
q-154 0 -255 -107.5t-101 -248.5v-1026h333v252h667v-252h1340zM1120 605h-667v396q0 29 19.5 48.5t48.5 19.5h532q29 0 48 -20t19 -48v-396zM2500 -20h-1420v252h-587v-252h-413v1066q0 113 56 204.5t146.5 141.5t193.5 50h621q107 0 193 -50q83 50 192 50h1018v-413h-973
q-11 0 -19.5 -8t-8.5 -20v-55q0 -12 8.5 -20t19.5 -8h973v-413l-973 -1q-12 0 -20 -8.5t-8 -19.5v-55q0 -11 8 -19.5t20 -8.5h973v-413z" />
    <glyph glyph-name="Ecircumflex" unicode="&#xca;" 
d="M493 946q0 -28 28 -28h972v-413q-655 0 -972 -1q-28 0 -28 -28v-55q0 -28 28 -28h972v-413h-1017q-162 0 -279 117t-117 279v145q0 107 48 190q-48 83 -48 190v145q0 80 31 153t85 127t127.5 85t152.5 31h1017v-413h-972q-28 0 -28 -28v-55zM453 946v55q0 26 21 47t47 21
h932v333h-977q-147 0 -252 -105q-104 -104 -104 -251v-145q0 -98 55 -190q-55 -92 -55 -190v-145q0 -149 103 -252.5t253 -103.5h977v333h-932q-26 0 -47 21t-21 47v55q0 26 21 47t47 21q317 1 932 1v333h-932q-26 0 -47 21t-21 47zM804 1530h-326l207 328q28 43 86.5 70
t125.5 27t125.5 -27t86.5 -70l207 -328h-326l-93 148zM781 1570l116 183l115 -183h231l-168 267q-23 36 -70.5 57t-107.5 21t-107.5 -21t-70.5 -57l-169 -267h231z" />
    <glyph glyph-name="Edieresis" unicode="&#xcb;" 
d="M493 946q0 -28 28 -28h972v-413q-655 0 -972 -1q-28 0 -28 -28v-55q0 -28 28 -28h972v-413h-1017q-162 0 -279 117t-117 279v145q0 107 48 190q-48 83 -48 190v145q0 80 31 153t85 127t127.5 85t152.5 31h1017v-413h-972q-28 0 -28 -28v-55zM453 946v55q0 26 21 47t47 21
h932v333h-977q-147 0 -252 -105q-104 -104 -104 -251v-145q0 -98 55 -190q-55 -92 -55 -190v-145q0 -149 103 -252.5t253 -103.5h977v333h-932q-26 0 -47 21t-21 47v55q0 26 21 47t47 21q317 1 932 1v333h-932q-26 0 -47 21t-21 47zM801 1607v208h-209v-208h209zM1201 1607
v208h-209v-208h209zM841 1567h-289v288h289v-288zM1241 1567h-289v288h289v-288z" />
    <glyph glyph-name="Icircumflex" unicode="&#xce;" horiz-adv-x="572" 
d="M80 -20v1462h413v-1462h-413zM120 20h333v1382h-333v-1382zM193 1530h-326l207 328q28 43 86.5 70t125.5 27t125.5 -27t86.5 -70l207 -328h-326l-93 148zM171 1570l115 183l115 -183h232l-169 267q-23 36 -70.5 57t-107.5 21t-107.5 -21t-70.5 -57l-168 -267h231z" />
    <glyph glyph-name="Idieresis" unicode="&#xcf;" horiz-adv-x="573" 
d="M80 -20v1462h413v-1462h-413zM120 20h333v1382h-333v-1382zM191 1607v208h-209v-208h209zM591 1607v208h-209v-208h209zM231 1567h-289v288h289v-288zM631 1567h-289v288h289v-288z" />
    <glyph glyph-name="Eth" unicode="&#xd0;" horiz-adv-x="1673" 
d="M1148 393q14 0 23 9.5t9 22.5v571q0 14 -9.5 23.5t-22.5 9.5h-555v-48h386v-301h-386v-287h555zM1204 20q146 0 247.5 102t101.5 247v683q0 147 -102.5 248.5t-246.5 101.5h-984v-461h-200v-221h200v-700h984zM1148 353h-595v367h386v221h-386v128h595q30 0 51 -21.5
t21 -51.5v-571q0 -29 -20.5 -50.5t-51.5 -21.5zM1204 -20h-1024v700h-200v301h200v461h1024q163 0 276 -114.5t113 -275.5v-683q0 -162 -114 -275.5t-275 -113.5z" />
    <glyph glyph-name="Ntilde" unicode="&#xd1;" horiz-adv-x="1706" 
d="M80 -20v1066q0 80 31 153t85 127t127.5 85t152.5 31h187q79 0 152.5 -31t127.5 -85t85 -127t31 -153v-625q0 -12 8 -20t20 -8h98q12 0 20 8t8 20v1021h413v-1066q0 -79 -31 -152.5t-85 -127.5t-127 -85t-153 -31h-188q-80 0 -153 31t-127 85t-85 127.5t-31 152.5v625
q0 12 -8 20t-20 8h-97q-12 0 -20 -8t-8 -20v-1021h-413zM120 20h333v981q0 30 20 48q20 20 48 20h97q27 0 49 -20q19 -19 19 -48v-625q0 -149 105 -252q104 -104 251 -104h188q147 0 251 104q105 103 105 252v1026h-333v-981q0 -28 -20 -48q-18 -20 -48 -20h-98
q-29 0 -48 19q-20 22 -20 49v625q0 147 -104 251q-103 105 -252 105h-187q-147 0 -252 -105q-104 -104 -104 -251v-1026zM1100 1565q94 0 157 49t63 121v78h-173v-46q0 -29 -27 -51t-60 -22h-30q-27 0 -51 14.5t-32 36.5l-1 4q-50 107 -197 119h-124q-94 0 -156.5 -49
t-62.5 -121v-78h173v46q0 29 27 51t60 22h30q27 0 51 -14.5t32 -36.5l1 -1v-3q50 -107 196 -119h124zM1100 1525h-125q-80 5 -143 44t-90 102q0 13 -16.5 20.5t-29.5 7.5h-30q-46 0 -47 -33v-86h-253v118q0 87 77.5 148.5t181.5 61.5h125q80 -5 143 -44t90 -102v1
q10 -22 20.5 -25.5t56.5 -3.5t47 33v86h253v-118q0 -87 -78 -148.5t-182 -61.5z" />
    <glyph glyph-name="Ocircumflex" unicode="&#xd4;" 
d="M1097 1442q80 0 153.5 -31t126.5 -85q54 -54 85 -127t31 -153v-670q0 -80 -31 -153t-85 -127q-53 -54 -126.5 -85t-153.5 -31h-621q-80 0 -153.5 31t-126.5 85q-54 54 -85 127t-31 153v670q0 80 31 153t85 127q53 54 126.5 85t153.5 31h621zM1120 1001v-580q0 -14 -5 -26
q-5 -13 -14 -22q-10 -10 -23 -15q-12 -5 -26 -5h-531q-14 0 -26 5q-11 4 -22 15t-15 22q-5 12 -5 26v580q0 30 20 48q20 20 48 20h531q27 0 49 -20q19 -19 19 -48zM1097 1402h-621q-146 0 -252 -104q-104 -106 -104 -252v-670q0 -146 104 -252q106 -104 252 -104h621
q148 0 252 104q104 106 104 252v670q0 146 -104 252q-104 104 -252 104zM1080 1001q0 12 -8 20t-20 8h-531q-12 0 -20 -8t-8 -20v-580q0 -7 2 -11q1 -4 6 -9q3 -3 9 -6q4 -2 11 -2h531q7 0 11 2q6 3 9 6q5 5 6 9q2 4 2 11v580zM693 1530h-326l208 328q27 43 85.5 70
t125.5 27q68 0 126.5 -27t86.5 -70l207 -328h-326l-94 148zM671 1570l115 183l116 -183h231l-168 267q-23 36 -71 57t-108 21t-107.5 -21t-70.5 -57l-168 -267h231z" />
    <glyph glyph-name="Otilde" unicode="&#xd5;" 
d="M1097 1442q80 0 153.5 -31t126.5 -85q54 -54 85 -127t31 -153v-670q0 -80 -31 -153t-85 -127q-53 -54 -126.5 -85t-153.5 -31h-621q-80 0 -153.5 31t-126.5 85q-54 54 -85 127t-31 153v670q0 80 31 153t85 127q53 54 126.5 85t153.5 31h621zM1120 1001v-580q0 -14 -5 -26
q-5 -13 -14 -22q-10 -10 -23 -15q-12 -5 -26 -5h-531q-14 0 -26 5q-11 4 -22 15t-15 22q-5 12 -5 26v580q0 30 20 48q20 20 48 20h531q27 0 49 -20q19 -19 19 -48zM1097 1402h-621q-146 0 -252 -104q-104 -106 -104 -252v-670q0 -146 104 -252q106 -104 252 -104h621
q148 0 252 104q104 106 104 252v670q0 146 -104 252q-104 104 -252 104zM1080 1001q0 12 -8 20t-20 8h-531q-12 0 -20 -8t-8 -20v-580q0 -7 2 -11q1 -4 6 -9q3 -3 9 -6q4 -2 11 -2h531q7 0 11 2q6 3 9 6q5 5 6 9q2 4 2 11v580zM1024 1565q94 0 157 49t63 121v78h-173v-46
q0 -29 -27 -51t-60 -22h-30q-27 0 -51 14.5t-32 36.5q-1 1 -1 4q-50 107 -197 119h-124q-94 0 -156.5 -49t-62.5 -121v-78h173v46q0 29 27 51t60 22h30q27 0 51 -14.5t32 -36.5l1 -1v-3q48 -107 196 -119h124zM1024 1525h-125q-80 5 -143.5 44t-89.5 102q0 13 -17 20.5
t-29 7.5h-30q-46 0 -47 -33v-86h-253v118q0 87 77.5 148.5t181.5 61.5h125q79 -5 142.5 -44t90.5 -102v1q10 -22 20 -25.5t57 -3.5q44 0 47 33v86h253v-118q0 -87 -78 -148.5t-182 -61.5z" />
    <glyph glyph-name="Odieresis" unicode="&#xd6;" 
d="M1097 1442q80 0 153.5 -31t126.5 -85q54 -54 85 -127t31 -153v-670q0 -80 -31 -153t-85 -127q-53 -54 -126.5 -85t-153.5 -31h-621q-80 0 -153.5 31t-126.5 85q-54 54 -85 127t-31 153v670q0 80 31 153t85 127q53 54 126.5 85t153.5 31h621zM1120 1001v-580q0 -14 -5 -26
q-5 -13 -14 -22q-10 -10 -23 -15q-12 -5 -26 -5h-531q-14 0 -26 5q-11 4 -22 15t-15 22q-5 12 -5 26v580q0 30 20 48q20 20 48 20h531q27 0 49 -20q19 -19 19 -48zM1097 1402h-621q-146 0 -252 -104q-104 -106 -104 -252v-670q0 -146 104 -252q106 -104 252 -104h621
q148 0 252 104q104 106 104 252v670q0 146 -104 252q-104 104 -252 104zM1080 1001q0 12 -8 20t-20 8h-531q-12 0 -20 -8t-8 -20v-580q0 -7 2 -11q1 -4 6 -9q3 -3 9 -6q4 -2 11 -2h531q7 0 11 2q6 3 9 6q5 5 6 9q2 4 2 11v580zM691 1607v208h-209v-208h209zM1091 1607v208
h-209v-208h209zM731 1567h-289v288h289v-288zM1131 1567h-289v288h289v-288z" />
    <glyph glyph-name="multiply" unicode="&#xd7;" horiz-adv-x="1174" 
d="M810 271l235 235l-223 224l223 222l-235 235l-223 -223l-223 224l-236 -236l224 -223l-224 -223l235 -235l223 223zM810 214l-224 224l-223 -224l-291 292l223 223l-223 223l292 292l223 -223l223 223l291 -292l-222 -222l223 -224z" />
    <glyph glyph-name="Oslash" unicode="&#xd8;" 
d="M1052 393q28 0 28 28v489l-308 -517h280zM493 520l303 509h-275q-11 0 -19.5 -8t-8.5 -20v-481zM414 -130l89 150h594q146 0 251 103t105 253v670q0 146 -104 252q-18 18 -57 46l115 192h-263l-79 -134h-589q-154 0 -255 -107.5t-101 -248.5v-670q0 -145 104 -252
q12 -12 53 -44l-125 -210h262zM1052 353h-350l418 702v-634q0 -33 -20 -50.5t-48 -17.5zM453 375v626q0 29 19.5 48.5t48.5 19.5h345zM436 -170h-354l143 240q-23 16 -57 57.5t-57 94.5q-31 71 -31 154v670q0 113 56 204.5t146.5 141.5t193.5 50h566l80 134h355l-131 -221
q25 -19 59.5 -61t56.5 -94q31 -71 31 -154v-670q0 -163 -115 -279.5t-281 -116.5h-571z" />
    <glyph glyph-name="Ucircumflex" unicode="&#xdb;" 
d="M1053 411q7 0 10 2q11 4 15 15q2 4 2 11v1021h413v-1066q0 -80 -31 -153t-85 -127t-127.5 -85t-152.5 -31h-621q-79 0 -152.5 31t-127.5 85t-85 127t-31 153v1066h413v-1021q0 -28 28 -28h532zM1053 371h-532q-26 0 -47 21t-21 47v981h-333v-1026q0 -146 104 -252
q106 -104 252 -104h621q148 0 252 104q104 106 104 252v1026h-333v-981q0 -14 -5 -26q-11 -27 -36 -37q-13 -5 -26 -5zM693 1530h-326l208 328q27 43 85.5 70t125.5 27q68 0 126.5 -27t86.5 -70l207 -328h-326l-94 148zM671 1570l115 183l116 -183h231l-168 267
q-23 36 -71 57t-108 21t-107.5 -21t-70.5 -57l-168 -267h231z" />
    <glyph glyph-name="Udieresis" unicode="&#xdc;" 
d="M1053 411q7 0 10 2q11 4 15 15q2 4 2 11v1021h413v-1066q0 -80 -31 -153t-85 -127t-127.5 -85t-152.5 -31h-621q-79 0 -152.5 31t-127.5 85t-85 127t-31 153v1066h413v-1021q0 -28 28 -28h532zM1053 371h-532q-26 0 -47 21t-21 47v981h-333v-1026q0 -146 104 -252
q106 -104 252 -104h621q148 0 252 104q104 106 104 252v1026h-333v-981q0 -14 -5 -26q-11 -27 -36 -37q-13 -5 -26 -5zM691 1607v208h-209v-208h209zM1091 1607v208h-209v-208h209zM731 1567h-289v288h289v-288zM1131 1567h-289v288h289v-288z" />
    <glyph glyph-name="Thorn" unicode="&#xde;" horiz-adv-x="1574" 
d="M453 -180v252h651q143 0 246.5 101.5t103.5 248.5v430q0 148 -103.5 249t-246.5 101h-651v200h-333v-1582h333zM1049 445q12 0 22 9.5t10 23.5v318q0 15 -9 24t-23 9h-556v-384h556zM493 -220h-413v1662h413v-200h611q164 0 277 -115t113 -275v-430q0 -163 -115.5 -276.5
t-274.5 -113.5h-611v-252zM1049 405h-596v464h596q30 0 51 -20.5t21 -52.5v-318q0 -31 -21.5 -52t-50.5 -21z" />
    <glyph glyph-name="acircumflex" unicode="&#xe2;" 
d="M1053 1069q13 0 26 -5q13 -6 21 -15q11 -11 15 -22q5 -12 5 -26v-396h-667v396q0 29 19 48q22 20 49 20h532zM493 232v-252h-413v1066q0 80 31 153t85 127q53 54 126.5 85t153.5 31h621q80 0 153.5 -31t126.5 -85q54 -54 85 -127t31 -153v-1066h-413v252h-587zM1053 1029
h-532q-12 0 -20 -8t-8 -20v-356h587v356q0 7 -2 11q-1 4 -6 9q-3 3 -9 6q-3 2 -10 2zM453 272h667v-252h333v1026q0 146 -104 252q-104 104 -252 104h-621q-146 0 -252 -104q-104 -106 -104 -252v-1026h333v252zM693 1530h-326l208 328q27 43 85.5 70t125.5 27
q68 0 126.5 -27t86.5 -70l207 -328h-326l-94 148zM671 1570l115 183l116 -183h231l-168 267q-23 36 -71 57t-108 21t-107.5 -21t-70.5 -57l-168 -267h231z" />
    <glyph glyph-name="atilde" unicode="&#xe3;" 
d="M1053 1069q13 0 26 -5q13 -6 21 -15q11 -11 15 -22q5 -12 5 -26v-396h-667v396q0 29 19 48q22 20 49 20h532zM493 232v-252h-413v1066q0 80 31 153t85 127q53 54 126.5 85t153.5 31h621q80 0 153.5 -31t126.5 -85q54 -54 85 -127t31 -153v-1066h-413v252h-587zM1053 1029
h-532q-12 0 -20 -8t-8 -20v-356h587v356q0 7 -2 11q-1 4 -6 9q-3 3 -9 6q-3 2 -10 2zM453 272h667v-252h333v1026q0 146 -104 252q-104 104 -252 104h-621q-146 0 -252 -104q-104 -106 -104 -252v-1026h333v252zM1024 1565q94 0 157 49t63 121v78h-173v-46q0 -29 -27 -51
t-60 -22h-30q-27 0 -51 14.5t-32 36.5q-1 1 -1 4q-50 107 -197 119h-124q-94 0 -156.5 -49t-62.5 -121v-78h173v46q0 29 27 51t60 22h30q27 0 51 -14.5t32 -36.5l1 -1v-3q48 -107 196 -119h124zM1024 1525h-125q-80 5 -143.5 44t-89.5 102q0 13 -17 20.5t-29 7.5h-30
q-46 0 -47 -33v-86h-253v118q0 87 77.5 148.5t181.5 61.5h125q79 -5 142.5 -44t90.5 -102v1q10 -22 20.5 -25.5t56.5 -3.5q44 0 47 33v86h253v-118q0 -87 -78 -148.5t-182 -61.5z" />
    <glyph glyph-name="adieresis" unicode="&#xe4;" 
d="M1053 1069q13 0 26 -5q13 -6 21 -15q11 -11 15 -22q5 -12 5 -26v-396h-667v396q0 29 19 48q22 20 49 20h532zM493 232v-252h-413v1066q0 80 31 153t85 127q53 54 126.5 85t153.5 31h621q80 0 153.5 -31t126.5 -85q54 -54 85 -127t31 -153v-1066h-413v252h-587zM1053 1029
h-532q-12 0 -20 -8t-8 -20v-356h587v356q0 7 -2 11q-1 4 -6 9q-3 3 -9 6q-3 2 -10 2zM453 272h667v-252h333v1026q0 146 -104 252q-104 104 -252 104h-621q-146 0 -252 -104q-104 -106 -104 -252v-1026h333v252zM691 1607v208h-209v-208h209zM1091 1607v208h-209v-208h209z
M731 1567h-289v288h289v-288zM1131 1567h-289v288h289v-288z" />
    <glyph glyph-name="ae" unicode="&#xe6;" horiz-adv-x="2580" 
d="M1080 645v356q-3 28 -27 28h-532q-11 0 -19.5 -8t-8.5 -20v-356h587zM2460 20v333h-933q-29 0 -48.5 19.5t-19.5 48.5v55q0 28 19.5 48t48.5 20l933 1v333h-933q-29 0 -48.5 20t-19.5 48v55q0 29 19.5 48.5t48.5 19.5h933v333h-978q-97 0 -192 -56q-95 56 -193 56h-621
q-154 0 -255 -107.5t-101 -248.5v-1026h333v252h667v-252h1340zM1120 605h-667v396q0 29 19.5 48.5t48.5 19.5h532q29 0 48 -20t19 -48v-396zM2500 -20h-1420v252h-587v-252h-413v1066q0 113 56 204.5t146.5 141.5t193.5 50h621q107 0 193 -50q83 50 192 50h1018v-413h-973
q-11 0 -19.5 -8t-8.5 -20v-55q0 -12 8.5 -20t19.5 -8h973v-413l-973 -1q-12 0 -20 -8.5t-8 -19.5v-55q0 -11 8 -19.5t20 -8.5h973v-413z" />
    <glyph glyph-name="ecircumflex" unicode="&#xea;" 
d="M493 946q0 -28 28 -28h972v-413q-655 0 -972 -1q-28 0 -28 -28v-55q0 -28 28 -28h972v-413h-1017q-162 0 -279 117t-117 279v145q0 107 48 190q-48 83 -48 190v145q0 80 31 153t85 127t127.5 85t152.5 31h1017v-413h-972q-28 0 -28 -28v-55zM453 946v55q0 26 21 47t47 21
h932v333h-977q-147 0 -252 -105q-104 -104 -104 -251v-145q0 -98 55 -190q-55 -92 -55 -190v-145q0 -149 103 -252.5t253 -103.5h977v333h-932q-26 0 -47 21t-21 47v55q0 26 21 47t47 21q317 1 932 1v333h-932q-26 0 -47 21t-21 47zM804 1530h-326l207 328q28 43 86.5 70
t125.5 27t125.5 -27t86.5 -70l207 -328h-326l-93 148zM781 1570l116 183l115 -183h231l-168 267q-23 36 -70.5 57t-107.5 21t-107.5 -21t-70.5 -57l-169 -267h231z" />
    <glyph glyph-name="edieresis" unicode="&#xeb;" 
d="M493 946q0 -28 28 -28h972v-413q-655 0 -972 -1q-28 0 -28 -28v-55q0 -28 28 -28h972v-413h-1017q-162 0 -279 117t-117 279v145q0 107 48 190q-48 83 -48 190v145q0 80 31 153t85 127t127.5 85t152.5 31h1017v-413h-972q-28 0 -28 -28v-55zM453 946v55q0 26 21 47t47 21
h932v333h-977q-147 0 -252 -105q-104 -104 -104 -251v-145q0 -98 55 -190q-55 -92 -55 -190v-145q0 -149 103 -252.5t253 -103.5h977v333h-932q-26 0 -47 21t-21 47v55q0 26 21 47t47 21q317 1 932 1v333h-932q-26 0 -47 21t-21 47zM801 1607v208h-209v-208h209zM1201 1607
v208h-209v-208h209zM841 1567h-289v288h289v-288zM1241 1567h-289v288h289v-288z" />
    <glyph glyph-name="icircumflex" unicode="&#xee;" horiz-adv-x="572" 
d="M80 -20v1462h413v-1462h-413zM120 20h333v1382h-333v-1382zM193 1530h-326l207 328q28 43 86.5 70t125.5 27t125.5 -27t86.5 -70l207 -328h-326l-93 148zM171 1570l115 183l115 -183h232l-169 267q-23 36 -70.5 57t-107.5 21t-107.5 -21t-70.5 -57l-168 -267h231z" />
    <glyph glyph-name="idieresis" unicode="&#xef;" horiz-adv-x="573" 
d="M80 -20v1462h413v-1462h-413zM120 20h333v1382h-333v-1382zM191 1607v208h-209v-208h209zM591 1607v208h-209v-208h209zM231 1567h-289v288h289v-288zM631 1567h-289v288h289v-288z" />
    <glyph glyph-name="eth" unicode="&#xf0;" horiz-adv-x="1673" 
d="M1148 393q14 0 23 9.5t9 22.5v571q0 14 -9.5 23.5t-22.5 9.5h-555v-48h386v-301h-386v-287h555zM1204 20q146 0 247.5 102t101.5 247v683q0 147 -102.5 248.5t-246.5 101.5h-984v-461h-200v-221h200v-700h984zM1148 353h-595v367h386v221h-386v128h595q30 0 51 -21.5
t21 -51.5v-571q0 -29 -20.5 -50.5t-51.5 -21.5zM1204 -20h-1024v700h-200v301h200v461h1024q163 0 276 -114.5t113 -275.5v-683q0 -162 -114 -275.5t-275 -113.5z" />
    <glyph glyph-name="ntilde" unicode="&#xf1;" horiz-adv-x="1706" 
d="M80 -20v1066q0 80 31 153t85 127t127.5 85t152.5 31h187q79 0 152.5 -31t127.5 -85t85 -127t31 -153v-625q0 -12 8 -20t20 -8h98q12 0 20 8t8 20v1021h413v-1066q0 -79 -31 -152.5t-85 -127.5t-127 -85t-153 -31h-188q-80 0 -153 31t-127 85t-85 127.5t-31 152.5v625
q0 12 -8 20t-20 8h-97q-12 0 -20 -8t-8 -20v-1021h-413zM120 20h333v981q0 30 20 48q20 20 48 20h97q27 0 49 -20q19 -19 19 -48v-625q0 -149 105 -252q104 -104 251 -104h188q147 0 251 104q105 103 105 252v1026h-333v-981q0 -28 -20 -48q-18 -20 -48 -20h-98
q-29 0 -48 19q-20 22 -20 49v625q0 147 -104 251q-103 105 -252 105h-187q-147 0 -252 -105q-104 -104 -104 -251v-1026zM1100 1565q94 0 157 49t63 121v78h-173v-46q0 -29 -27 -51t-60 -22h-30q-27 0 -51 14.5t-32 36.5l-1 4q-50 107 -197 119h-124q-94 0 -156.5 -49
t-62.5 -121v-78h173v46q0 29 27 51t60 22h30q27 0 51 -14.5t32 -36.5l1 -1v-3q50 -107 196 -119h124zM1100 1525h-125q-80 5 -143 44t-90 102q0 13 -16.5 20.5t-29.5 7.5h-30q-46 0 -47 -33v-86h-253v118q0 87 77.5 148.5t181.5 61.5h125q80 -5 143 -44t90 -102v1
q10 -22 20.5 -25.5t56.5 -3.5t47 33v86h253v-118q0 -87 -78 -148.5t-182 -61.5z" />
    <glyph glyph-name="ocircumflex" unicode="&#xf4;" 
d="M1097 1442q80 0 153.5 -31t126.5 -85q54 -54 85 -127t31 -153v-670q0 -80 -31 -153t-85 -127q-53 -54 -126.5 -85t-153.5 -31h-621q-80 0 -153.5 31t-126.5 85q-54 54 -85 127t-31 153v670q0 80 31 153t85 127q53 54 126.5 85t153.5 31h621zM1120 1001v-580q0 -14 -5 -26
q-5 -13 -14 -22q-10 -10 -23 -15q-12 -5 -26 -5h-531q-14 0 -26 5q-11 4 -22 15t-15 22q-5 12 -5 26v580q0 30 20 48q20 20 48 20h531q27 0 49 -20q19 -19 19 -48zM1097 1402h-621q-146 0 -252 -104q-104 -106 -104 -252v-670q0 -146 104 -252q106 -104 252 -104h621
q148 0 252 104q104 106 104 252v670q0 146 -104 252q-104 104 -252 104zM1080 1001q0 12 -8 20t-20 8h-531q-12 0 -20 -8t-8 -20v-580q0 -7 2 -11q1 -4 6 -9q3 -3 9 -6q4 -2 11 -2h531q7 0 11 2q6 3 9 6q5 5 6 9q2 4 2 11v580zM693 1530h-326l208 328q27 43 85.5 70
t125.5 27q68 0 126.5 -27t86.5 -70l207 -328h-326l-94 148zM671 1570l115 183l116 -183h231l-168 267q-23 36 -71 57t-108 21t-107.5 -21t-70.5 -57l-168 -267h231z" />
    <glyph glyph-name="otilde" unicode="&#xf5;" 
d="M1097 1442q80 0 153.5 -31t126.5 -85q54 -54 85 -127t31 -153v-670q0 -80 -31 -153t-85 -127q-53 -54 -126.5 -85t-153.5 -31h-621q-80 0 -153.5 31t-126.5 85q-54 54 -85 127t-31 153v670q0 80 31 153t85 127q53 54 126.5 85t153.5 31h621zM1120 1001v-580q0 -14 -5 -26
q-5 -13 -14 -22q-10 -10 -23 -15q-12 -5 -26 -5h-531q-14 0 -26 5q-11 4 -22 15t-15 22q-5 12 -5 26v580q0 30 20 48q20 20 48 20h531q27 0 49 -20q19 -19 19 -48zM1097 1402h-621q-146 0 -252 -104q-104 -106 -104 -252v-670q0 -146 104 -252q106 -104 252 -104h621
q148 0 252 104q104 106 104 252v670q0 146 -104 252q-104 104 -252 104zM1080 1001q0 12 -8 20t-20 8h-531q-12 0 -20 -8t-8 -20v-580q0 -7 2 -11q1 -4 6 -9q3 -3 9 -6q4 -2 11 -2h531q7 0 11 2q6 3 9 6q5 5 6 9q2 4 2 11v580zM1024 1565q94 0 157 49t63 121v78h-173v-46
q0 -29 -27 -51t-60 -22h-30q-27 0 -51 14.5t-32 36.5q-1 1 -1 4q-50 107 -197 119h-124q-94 0 -156.5 -49t-62.5 -121v-78h173v46q0 29 27 51t60 22h30q27 0 51 -14.5t32 -36.5l1 -1v-3q48 -107 196 -119h124zM1024 1525h-125q-80 5 -143.5 44t-89.5 102q0 13 -17 20.5
t-29 7.5h-30q-46 0 -47 -33v-86h-253v118q0 87 77.5 148.5t181.5 61.5h125q79 -5 142.5 -44t90.5 -102v1q10 -22 20 -25.5t57 -3.5q44 0 47 33v86h253v-118q0 -87 -78 -148.5t-182 -61.5z" />
    <glyph glyph-name="odieresis" unicode="&#xf6;" 
d="M1097 1442q80 0 153.5 -31t126.5 -85q54 -54 85 -127t31 -153v-670q0 -80 -31 -153t-85 -127q-53 -54 -126.5 -85t-153.5 -31h-621q-80 0 -153.5 31t-126.5 85q-54 54 -85 127t-31 153v670q0 80 31 153t85 127q53 54 126.5 85t153.5 31h621zM1120 1001v-580q0 -14 -5 -26
q-5 -13 -14 -22q-10 -10 -23 -15q-12 -5 -26 -5h-531q-14 0 -26 5q-11 4 -22 15t-15 22q-5 12 -5 26v580q0 30 20 48q20 20 48 20h531q27 0 49 -20q19 -19 19 -48zM1097 1402h-621q-146 0 -252 -104q-104 -106 -104 -252v-670q0 -146 104 -252q106 -104 252 -104h621
q148 0 252 104q104 106 104 252v670q0 146 -104 252q-104 104 -252 104zM1080 1001q0 12 -8 20t-20 8h-531q-12 0 -20 -8t-8 -20v-580q0 -7 2 -11q1 -4 6 -9q3 -3 9 -6q4 -2 11 -2h531q7 0 11 2q6 3 9 6q5 5 6 9q2 4 2 11v580zM691 1607v208h-209v-208h209zM1091 1607v208
h-209v-208h209zM731 1567h-289v288h289v-288zM1131 1567h-289v288h289v-288z" />
    <glyph glyph-name="divide" unicode="&#xf7;" horiz-adv-x="1204" 
d="M768 1029v332h-332v-332h332zM1084 563v333h-964v-333h964zM768 97v332h-332v-332h332zM808 989h-412v412h412v-412zM1124 523h-1044v413h1044v-413zM808 57h-412v412h412v-412z" />
    <glyph glyph-name="oslash" unicode="&#xf8;" 
d="M1052 393q28 0 28 28v489l-308 -517h280zM493 520l303 509h-275q-11 0 -19.5 -8t-8.5 -20v-481zM414 -130l89 150h594q146 0 251 103t105 253v670q0 146 -104 252q-18 18 -57 46l115 192h-263l-79 -134h-589q-154 0 -255 -107.5t-101 -248.5v-670q0 -145 104 -252
q12 -12 53 -44l-125 -210h262zM1052 353h-350l418 702v-634q0 -33 -20 -50.5t-48 -17.5zM453 375v626q0 29 19.5 48.5t48.5 19.5h345zM436 -170h-354l143 240q-23 16 -57 57.5t-57 94.5q-31 71 -31 154v670q0 113 56 204.5t146.5 141.5t193.5 50h566l80 134h355l-131 -221
q25 -19 59.5 -61t56.5 -94q31 -71 31 -154v-670q0 -163 -115 -279.5t-281 -116.5h-571z" />
    <glyph glyph-name="ucircumflex" unicode="&#xfb;" 
d="M1053 411q7 0 10 2q11 4 15 15q2 4 2 11v1021h413v-1066q0 -80 -31 -153t-85 -127t-127.5 -85t-152.5 -31h-621q-79 0 -152.5 31t-127.5 85t-85 127t-31 153v1066h413v-1021q0 -28 28 -28h532zM1053 371h-532q-26 0 -47 21t-21 47v981h-333v-1026q0 -146 104 -252
q106 -104 252 -104h621q148 0 252 104q104 106 104 252v1026h-333v-981q0 -14 -5 -26q-11 -27 -36 -37q-13 -5 -26 -5zM693 1530h-326l208 328q27 43 85.5 70t125.5 27q68 0 126.5 -27t86.5 -70l207 -328h-326l-94 148zM671 1570l115 183l116 -183h231l-168 267
q-23 36 -71 57t-108 21t-107.5 -21t-70.5 -57l-168 -267h231z" />
    <glyph glyph-name="udieresis" unicode="&#xfc;" 
d="M1053 411q7 0 10 2q11 4 15 15q2 4 2 11v1021h413v-1066q0 -80 -31 -153t-85 -127t-127.5 -85t-152.5 -31h-621q-79 0 -152.5 31t-127.5 85t-85 127t-31 153v1066h413v-1021q0 -28 28 -28h532zM1053 371h-532q-26 0 -47 21t-21 47v981h-333v-1026q0 -146 104 -252
q106 -104 252 -104h621q148 0 252 104q104 106 104 252v1026h-333v-981q0 -14 -5 -26q-11 -27 -36 -37q-13 -5 -26 -5zM691 1607v208h-209v-208h209zM1091 1607v208h-209v-208h209zM731 1567h-289v288h289v-288zM1131 1567h-289v288h289v-288z" />
    <glyph glyph-name="thorn" unicode="&#xfe;" horiz-adv-x="1574" 
d="M453 -180v252h651q143 0 246.5 101.5t103.5 248.5v430q0 148 -103.5 249t-246.5 101h-651v200h-333v-1582h333zM1049 445q12 0 22 9.5t10 23.5v318q0 15 -9 24t-23 9h-556v-384h556zM493 -220h-413v1662h413v-200h611q164 0 277 -115t113 -275v-430q0 -163 -115.5 -276.5
t-274.5 -113.5h-611v-252zM1049 405h-596v464h596q30 0 51 -20.5t21 -52.5v-318q0 -31 -21.5 -52t-50.5 -21z" />
    <glyph glyph-name="ydieresis" unicode="&#xff;" 
d="M1053 917q28 0 28 28v497h412v-542q0 -80 -31 -153t-85 -127q-53 -53 -126.5 -84t-153.5 -31l-104 -1v-524h-413v524h-104q-79 0 -152.5 31t-127.5 85t-85 127t-31 153v542h412v-497q0 -28 29 -28h532zM1053 877h-532q-26 0 -47.5 21t-21.5 47v457h-332v-502
q0 -147 104 -251q103 -105 252 -105h144v-524h333v524l144 1q150 0 252 104q104 104 104 251v502h-332v-457q0 -26 -21 -47t-47 -21zM691 1607v208h-209v-208h209zM1091 1607v208h-209v-208h209zM731 1567h-289v288h289v-288zM1131 1567h-289v288h289v-288z" />
    <glyph glyph-name="Amacron" unicode="&#x100;" 
d="M1053 1069q13 0 26 -5q13 -6 21 -15q11 -11 15 -22q5 -12 5 -26v-396h-667v396q0 29 19 48q22 20 49 20h532zM493 232v-252h-413v1066q0 80 31 153t85 127q53 54 126.5 85t153.5 31h621q80 0 153.5 -31t126.5 -85q54 -54 85 -127t31 -153v-1066h-413v252h-587zM1053 1029
h-532q-12 0 -20 -8t-8 -20v-356h587v356q0 7 -2 11q-1 4 -6 9q-3 3 -9 6q-3 2 -10 2zM453 272h667v-252h333v1026q0 146 -104 252q-104 104 -252 104h-621q-146 0 -252 -104q-104 -106 -104 -252v-1026h333v252zM1141 1607v208h-709v-208h709zM1181 1567h-789v288h789v-288z
" />
    <glyph glyph-name="amacron" unicode="&#x101;" 
d="M1053 1069q13 0 26 -5q13 -6 21 -15q11 -11 15 -22q5 -12 5 -26v-396h-667v396q0 29 19 48q22 20 49 20h532zM493 232v-252h-413v1066q0 80 31 153t85 127q53 54 126.5 85t153.5 31h621q80 0 153.5 -31t126.5 -85q54 -54 85 -127t31 -153v-1066h-413v252h-587zM1053 1029
h-532q-12 0 -20 -8t-8 -20v-356h587v356q0 7 -2 11q-1 4 -6 9q-3 3 -9 6q-3 2 -10 2zM453 272h667v-252h333v1026q0 146 -104 252q-104 104 -252 104h-621q-146 0 -252 -104q-104 -106 -104 -252v-1026h333v252zM1141 1607v208h-709v-208h709zM1181 1567h-789v288h789v-288z
" />
    <glyph glyph-name="Ccircumflex" unicode="&#x108;" 
d="M501 1021q-8 -8 -8 -20v-580q0 -8 2 -11q1 -6 6 -9q5 -5 9 -6q4 -2 11 -2h972v-413h-1017q-162 0 -279 117t-117 279v670q0 162 117 279t279 117h1017v-413h-972q-12 0 -20 -8zM473 1049q20 20 48 20h932v333h-977q-150 0 -253 -103.5t-103 -252.5v-670
q0 -149 103 -252.5t253 -103.5h977v333h-932q-14 0 -26 5q-10 4 -23 15q-10 12 -14 21q-5 13 -5 27v580q0 30 20 48zM820 1530h-326l207 328q28 43 86.5 70t125.5 27t125.5 -27t86.5 -70l207 -328h-326l-93 148zM797 1570l116 183l115 -183h231l-168 267q-23 36 -70.5 57
t-107.5 21t-107.5 -21t-70.5 -57l-169 -267h231z" />
    <glyph glyph-name="ccircumflex" unicode="&#x109;" 
d="M501 1021q-8 -8 -8 -20v-580q0 -8 2 -11q1 -6 6 -9q5 -5 9 -6q4 -2 11 -2h972v-413h-1017q-162 0 -279 117t-117 279v670q0 162 117 279t279 117h1017v-413h-972q-12 0 -20 -8zM473 1049q20 20 48 20h932v333h-977q-150 0 -253 -103.5t-103 -252.5v-670
q0 -149 103 -252.5t253 -103.5h977v333h-932q-14 0 -26 5q-10 4 -23 15q-10 12 -14 21q-5 13 -5 27v580q0 30 20 48zM820 1530h-326l207 328q28 43 86.5 70t125.5 27t125.5 -27t86.5 -70l207 -328h-326l-93 148zM797 1570l116 183l115 -183h231l-168 267q-23 36 -70.5 57
t-107.5 21t-107.5 -21t-70.5 -57l-169 -267h231z" />
    <glyph glyph-name="Cdotaccent" unicode="&#x10a;" 
d="M501 1021q-8 -8 -8 -20v-580q0 -8 2 -11q1 -6 6 -9q5 -5 9 -6q4 -2 11 -2h972v-413h-1017q-162 0 -279 117t-117 279v670q0 162 117 279t279 117h1017v-413h-972q-12 0 -20 -8zM473 1049q20 20 48 20h932v333h-977q-150 0 -253 -103.5t-103 -252.5v-670
q0 -149 103 -252.5t253 -103.5h977v333h-932q-14 0 -26 5q-10 4 -23 15q-10 12 -14 21q-5 13 -5 27v580q0 30 20 48zM1017 1607v208h-209v-208h209zM1057 1567h-289v288h289v-288z" />
    <glyph glyph-name="cdotaccent" unicode="&#x10b;" 
d="M501 1021q-8 -8 -8 -20v-580q0 -8 2 -11q1 -6 6 -9q5 -5 9 -6q4 -2 11 -2h972v-413h-1017q-162 0 -279 117t-117 279v670q0 162 117 279t279 117h1017v-413h-972q-12 0 -20 -8zM473 1049q20 20 48 20h932v333h-977q-150 0 -253 -103.5t-103 -252.5v-670
q0 -149 103 -252.5t253 -103.5h977v333h-932q-14 0 -26 5q-10 4 -23 15q-10 12 -14 21q-5 13 -5 27v580q0 30 20 48zM1017 1607v208h-209v-208h209zM1057 1567h-289v288h289v-288z" />
    <glyph glyph-name="Ccaron" unicode="&#x10c;" 
d="M913 1470q121 0 178 78l168 267h-231l-115 -183l-116 183h-231l169 -267q57 -78 178 -78zM1453 20v333h-932q-31 0 -49.5 20.5t-18.5 47.5v580q0 27 19.5 47.5t48.5 20.5h932v333h-977q-151 0 -253.5 -103t-102.5 -253v-670q0 -151 102.5 -253.5t253.5 -102.5h977z
M1493 -20h-1017q-166 0 -281 117.5t-115 278.5v670q0 166 117.5 281t278.5 115h351q-86 25 -126 85l-207 328h326l93 -148l93 148h326l-207 -328q-40 -60 -126 -85h494v-413h-972q-28 0 -28 -28v-580q0 -11 7.5 -19.5t20.5 -8.5h972v-413z" />
    <glyph glyph-name="ccaron" unicode="&#x10d;" 
d="M913 1470q121 0 178 78l168 267h-231l-115 -183l-116 183h-231l169 -267q57 -78 178 -78zM1453 20v333h-932q-31 0 -49.5 20.5t-18.5 47.5v580q0 27 19.5 47.5t48.5 20.5h932v333h-977q-151 0 -253.5 -103t-102.5 -253v-670q0 -151 102.5 -253.5t253.5 -102.5h977z
M1493 -20h-1017q-166 0 -281 117.5t-115 278.5v670q0 166 117.5 281t278.5 115h351q-86 25 -126 85l-207 328h326l93 -148l93 148h326l-207 -328q-40 -60 -126 -85h494v-413h-972q-28 0 -28 -28v-580q0 -11 7.5 -19.5t20.5 -8.5h972v-413z" />
    <glyph glyph-name="Dcaron" unicode="&#x10e;" 
d="M1048 393q30 0 32 32v571q0 31 -32 33h-555v-636h555zM1048 353h-595v716h595q28 0 50 -22.5t22 -50.5v-571q0 -29 -22 -50.5t-50 -21.5zM746 1470q121 0 178 78l168 267h-231l-115 -183l-116 183h-231l169 -267q57 -78 178 -78zM1104 20q148 0 248.5 101t100.5 248v683
q0 148 -100.5 249t-248.5 101h-984v-1382h984zM1104 -20h-1024v1462h580q-86 25 -126 85l-207 328h326l93 -148l93 148h326l-207 -328q-40 -60 -126 -85h272q162 0 275.5 -115.5t113.5 -274.5v-683q0 -163 -115.5 -276t-273.5 -113z" />
    <glyph glyph-name="dcaron" unicode="&#x10f;" 
d="M1048 393q30 0 32 32v571q0 31 -32 33h-555v-636h555zM1048 353h-595v716h595q28 0 50 -22.5t22 -50.5v-571q0 -29 -22 -50.5t-50 -21.5zM746 1470q121 0 178 78l168 267h-231l-115 -183l-116 183h-231l169 -267q57 -78 178 -78zM1104 20q148 0 248.5 101t100.5 248v683
q0 148 -100.5 249t-248.5 101h-984v-1382h984zM1104 -20h-1024v1462h580q-86 25 -126 85l-207 328h326l93 -148l93 148h326l-207 -328q-40 -60 -126 -85h272q162 0 275.5 -115.5t113.5 -274.5v-683q0 -163 -115.5 -276t-273.5 -113z" />
    <glyph glyph-name="Dcroat" unicode="&#x110;" horiz-adv-x="1673" 
d="M1148 393q14 0 23 9.5t9 22.5v571q0 14 -9.5 23.5t-22.5 9.5h-555v-48h386v-301h-386v-287h555zM1204 20q146 0 247.5 102t101.5 247v683q0 147 -102.5 248.5t-246.5 101.5h-984v-461h-200v-221h200v-700h984zM1148 353h-595v367h386v221h-386v128h595q30 0 51 -21.5
t21 -51.5v-571q0 -29 -20.5 -50.5t-51.5 -21.5zM1204 -20h-1024v700h-200v301h200v461h1024q163 0 276 -114.5t113 -275.5v-683q0 -162 -114 -275.5t-275 -113.5z" />
    <glyph glyph-name="dcroat" unicode="&#x111;" horiz-adv-x="1673" 
d="M1148 393q14 0 23 9.5t9 22.5v571q0 14 -9.5 23.5t-22.5 9.5h-555v-48h386v-301h-386v-287h555zM1204 20q146 0 247.5 102t101.5 247v683q0 147 -102.5 248.5t-246.5 101.5h-984v-461h-200v-221h200v-700h984zM1148 353h-595v367h386v221h-386v128h595q30 0 51 -21.5
t21 -51.5v-571q0 -29 -20.5 -50.5t-51.5 -21.5zM1204 -20h-1024v700h-200v301h200v461h1024q163 0 276 -114.5t113 -275.5v-683q0 -162 -114 -275.5t-275 -113.5z" />
    <glyph glyph-name="Emacron" unicode="&#x112;" 
d="M493 946q0 -28 28 -28h972v-413q-655 0 -972 -1q-28 0 -28 -28v-55q0 -28 28 -28h972v-413h-1017q-162 0 -279 117t-117 279v145q0 107 48 190q-48 83 -48 190v145q0 80 31 153t85 127t127.5 85t152.5 31h1017v-413h-972q-28 0 -28 -28v-55zM453 946v55q0 26 21 47t47 21
h932v333h-977q-147 0 -252 -105q-104 -104 -104 -251v-145q0 -98 55 -190q-55 -92 -55 -190v-145q0 -149 103 -252.5t253 -103.5h977v333h-932q-26 0 -47 21t-21 47v55q0 26 21 47t47 21q317 1 932 1v333h-932q-26 0 -47 21t-21 47zM1251 1607v208h-709v-208h709zM1291 1567
h-789v288h789v-288z" />
    <glyph glyph-name="emacron" unicode="&#x113;" 
d="M493 946q0 -28 28 -28h972v-413q-655 0 -972 -1q-28 0 -28 -28v-55q0 -28 28 -28h972v-413h-1017q-162 0 -279 117t-117 279v145q0 107 48 190q-48 83 -48 190v145q0 80 31 153t85 127t127.5 85t152.5 31h1017v-413h-972q-28 0 -28 -28v-55zM453 946v55q0 26 21 47t47 21
h932v333h-977q-147 0 -252 -105q-104 -104 -104 -251v-145q0 -98 55 -190q-55 -92 -55 -190v-145q0 -149 103 -252.5t253 -103.5h977v333h-932q-26 0 -47 21t-21 47v55q0 26 21 47t47 21q317 1 932 1v333h-932q-26 0 -47 21t-21 47zM1251 1607v208h-709v-208h709zM1291 1567
h-789v288h789v-288z" />
    <glyph glyph-name="Edotaccent" unicode="&#x116;" 
d="M493 946q0 -28 28 -28h972v-413q-655 0 -972 -1q-28 0 -28 -28v-55q0 -28 28 -28h972v-413h-1017q-162 0 -279 117t-117 279v145q0 107 48 190q-48 83 -48 190v145q0 80 31 153t85 127t127.5 85t152.5 31h1017v-413h-972q-28 0 -28 -28v-55zM453 946v55q0 26 21 47t47 21
h932v333h-977q-147 0 -252 -105q-104 -104 -104 -251v-145q0 -98 55 -190q-55 -92 -55 -190v-145q0 -149 103 -252.5t253 -103.5h977v333h-932q-26 0 -47 21t-21 47v55q0 26 21 47t47 21q317 1 932 1v333h-932q-26 0 -47 21t-21 47zM1001 1607v208h-209v-208h209zM1041 1567
h-289v288h289v-288z" />
    <glyph glyph-name="edotaccent" unicode="&#x117;" 
d="M493 946q0 -28 28 -28h972v-413q-655 0 -972 -1q-28 0 -28 -28v-55q0 -28 28 -28h972v-413h-1017q-162 0 -279 117t-117 279v145q0 107 48 190q-48 83 -48 190v145q0 80 31 153t85 127t127.5 85t152.5 31h1017v-413h-972q-28 0 -28 -28v-55zM453 946v55q0 26 21 47t47 21
h932v333h-977q-147 0 -252 -105q-104 -104 -104 -251v-145q0 -98 55 -190q-55 -92 -55 -190v-145q0 -149 103 -252.5t253 -103.5h977v333h-932q-26 0 -47 21t-21 47v55q0 26 21 47t47 21q317 1 932 1v333h-932q-26 0 -47 21t-21 47zM1001 1607v208h-209v-208h209zM1041 1567
h-289v288h289v-288z" />
    <glyph glyph-name="Ecaron" unicode="&#x11a;" 
d="M897 1470q121 0 178 78l168 267h-231l-115 -183l-116 183h-231l169 -267q57 -78 178 -78zM1453 20v333h-932q-27 0 -47.5 20.5t-20.5 47.5v55q0 26 20.5 47t47.5 21l932 1v333h-932q-27 0 -47.5 21t-20.5 47v55q0 26 20.5 47t47.5 21h932v333h-977q-149 0 -252.5 -104
t-103.5 -252v-145q0 -96 55 -190q-55 -94 -55 -190v-145q0 -151 102.5 -253.5t253.5 -102.5h977zM1493 -20h-1017q-166 0 -281 117.5t-115 278.5v145q0 105 48 190q-48 85 -48 190v145q0 114 57.5 206t147.5 141t191 49h335q-86 25 -126 85l-207 328h326l93 -148l93 148h326
l-207 -328q-40 -60 -126 -85h510v-413h-972q-28 0 -28 -28v-55q0 -28 28 -28h972v-413l-972 -1q-28 0 -28 -28v-55q0 -28 28 -28h972v-413z" />
    <glyph glyph-name="ecaron" unicode="&#x11b;" 
d="M897 1470q121 0 178 78l168 267h-231l-115 -183l-116 183h-231l169 -267q57 -78 178 -78zM1453 20v333h-932q-27 0 -47.5 20.5t-20.5 47.5v55q0 26 20.5 47t47.5 21l932 1v333h-932q-27 0 -47.5 21t-20.5 47v55q0 26 20.5 47t47.5 21h932v333h-977q-149 0 -252.5 -104
t-103.5 -252v-145q0 -96 55 -190q-55 -94 -55 -190v-145q0 -151 102.5 -253.5t253.5 -102.5h977zM1493 -20h-1017q-166 0 -281 117.5t-115 278.5v145q0 105 48 190q-48 85 -48 190v145q0 114 57.5 206t147.5 141t191 49h335q-86 25 -126 85l-207 328h326l93 -148l93 148h326
l-207 -328q-40 -60 -126 -85h510v-413h-972q-28 0 -28 -28v-55q0 -28 28 -28h972v-413l-972 -1q-28 0 -28 -28v-55q0 -28 28 -28h972v-413z" />
    <glyph glyph-name="Gcircumflex" unicode="&#x11c;" 
d="M493 1007v-580q0 -28 28 -28h559v83q0 28 -28 28h-479v413h524q162 0 279 -117t117 -279v-541h-1017q-162 0 -279 117t-117 279v670q0 162 117 279t279 117h998v-413h-953q-28 0 -28 -28zM453 1007q0 26 21 47t47 21h913v333h-958q-150 0 -253 -103.5t-103 -252.5v-670
q0 -149 103 -252.5t253 -103.5h977v501q0 150 -103.5 253t-252.5 103h-484v-333h439q26 0 47 -20.5t21 -47.5v-123h-599q-26 0 -47 21t-21 47v580zM803 1530h-326l207 328q28 43 86.5 70t125.5 27t125.5 -27t86.5 -70l207 -328h-326l-93 148zM780 1570l116 183l115 -183h231
l-168 267q-23 36 -70.5 57t-107.5 21t-107.5 -21t-70.5 -57l-169 -267h231z" />
    <glyph glyph-name="gcircumflex" unicode="&#x11d;" 
d="M493 1007v-580q0 -28 28 -28h559v83q0 28 -28 28h-479v413h524q162 0 279 -117t117 -279v-541h-1017q-162 0 -279 117t-117 279v670q0 162 117 279t279 117h998v-413h-953q-28 0 -28 -28zM453 1007q0 26 21 47t47 21h913v333h-958q-150 0 -253 -103.5t-103 -252.5v-670
q0 -149 103 -252.5t253 -103.5h977v501q0 150 -103.5 253t-252.5 103h-484v-333h439q26 0 47 -20.5t21 -47.5v-123h-599q-26 0 -47 21t-21 47v580zM803 1530h-326l207 328q28 43 86.5 70t125.5 27t125.5 -27t86.5 -70l207 -328h-326l-93 148zM780 1570l116 183l115 -183h231
l-168 267q-23 36 -70.5 57t-107.5 21t-107.5 -21t-70.5 -57l-169 -267h231z" />
    <glyph glyph-name="Gdotaccent" unicode="&#x120;" 
d="M493 1007v-580q0 -28 28 -28h559v83q0 28 -28 28h-479v413h524q162 0 279 -117t117 -279v-541h-1017q-162 0 -279 117t-117 279v670q0 162 117 279t279 117h998v-413h-953q-28 0 -28 -28zM453 1007q0 26 21 47t47 21h913v333h-958q-150 0 -253 -103.5t-103 -252.5v-670
q0 -149 103 -252.5t253 -103.5h977v501q0 150 -103.5 253t-252.5 103h-484v-333h439q26 0 47 -20.5t21 -47.5v-123h-599q-26 0 -47 21t-21 47v580zM1000 1607v208h-209v-208h209zM1040 1567h-289v288h289v-288z" />
    <glyph glyph-name="gdotaccent" unicode="&#x121;" 
d="M493 1007v-580q0 -28 28 -28h559v83q0 28 -28 28h-479v413h524q162 0 279 -117t117 -279v-541h-1017q-162 0 -279 117t-117 279v670q0 162 117 279t279 117h998v-413h-953q-28 0 -28 -28zM453 1007q0 26 21 47t47 21h913v333h-958q-150 0 -253 -103.5t-103 -252.5v-670
q0 -149 103 -252.5t253 -103.5h977v501q0 150 -103.5 253t-252.5 103h-484v-333h439q26 0 47 -20.5t21 -47.5v-123h-599q-26 0 -47 21t-21 47v580zM1000 1607v208h-209v-208h209zM1040 1567h-289v288h289v-288z" />
    <glyph glyph-name="Hcircumflex" unicode="&#x124;" 
d="M1080 918v524h413v-1462h-413v524h-587v-524h-413v1462h413v-524h587zM1120 878h-667v524h-333v-1382h333v524h667v-524h333v1382h-333v-524zM693 1530h-326l208 328q27 43 85.5 70t125.5 27q68 0 126.5 -27t86.5 -70l207 -328h-326l-94 148zM671 1570l115 183l116 -183
h231l-168 267q-23 36 -71 57t-108 21t-107.5 -21t-70.5 -57l-168 -267h231z" />
    <glyph glyph-name="hcircumflex" unicode="&#x125;" 
d="M1080 918v524h413v-1462h-413v524h-587v-524h-413v1462h413v-524h587zM1120 878h-667v524h-333v-1382h333v524h667v-524h333v1382h-333v-524zM693 1530h-326l208 328q27 43 85.5 70t125.5 27q68 0 126.5 -27t86.5 -70l207 -328h-326l-94 148zM671 1570l115 183l116 -183
h231l-168 267q-23 36 -71 57t-108 21t-107.5 -21t-70.5 -57l-168 -267h231z" />
    <glyph glyph-name="Hbar" unicode="&#x126;" horiz-adv-x="1589" 
d="M1080 918v112h-587v-112h587zM1453 20v1050h143v221h-143v111h-333v-111h-667v111h-333v-111h-128v-221h128v-1050h333v524h667v-524h333zM1120 878h-667v192h667v-192zM1493 -20h-413v524h-587v-524h-413v1050h-128v301h128v111h413v-111h587v111h413v-111h143v-301
h-143v-1050z" />
    <glyph glyph-name="hbar" unicode="&#x127;" horiz-adv-x="1589" 
d="M1080 918v112h-587v-112h587zM1453 20v1050h143v221h-143v111h-333v-111h-667v111h-333v-111h-128v-221h128v-1050h333v524h667v-524h333zM1120 878h-667v192h667v-192zM1493 -20h-413v524h-587v-524h-413v1050h-128v301h128v111h413v-111h587v111h413v-111h143v-301
h-143v-1050z" />
    <glyph glyph-name="Itilde" unicode="&#x128;" horiz-adv-x="573" 
d="M80 -20v1462h413v-1462h-413zM120 20h333v1382h-333v-1382zM524 1565q94 0 157 49t63 121v78h-173v-46q0 -29 -27 -51t-60 -22h-30q-27 0 -51 14.5t-32 36.5l-1 4q-50 107 -197 119h-124q-94 0 -156.5 -49t-62.5 -121v-78h173v46q0 29 27 51t60 22h30q27 0 51 -14.5
t32 -36.5l1 -1v-3q50 -107 196 -119h124zM524 1525h-125q-80 5 -143 44t-90 102q0 13 -16.5 20.5t-29.5 7.5h-30q-46 0 -47 -33v-86h-253v118q0 87 77.5 148.5t181.5 61.5h125q80 -5 143 -44t90 -102v1q10 -22 20.5 -25.5t56.5 -3.5t47 33v86h253v-118q0 -87 -78 -148.5
t-182 -61.5z" />
    <glyph glyph-name="itilde" unicode="&#x129;" horiz-adv-x="573" 
d="M80 -20v1462h413v-1462h-413zM120 20h333v1382h-333v-1382zM524 1565q94 0 157 49t63 121v78h-173v-46q0 -29 -27 -51t-60 -22h-30q-27 0 -51 14.5t-32 36.5l-1 4q-50 107 -197 119h-124q-94 0 -156.5 -49t-62.5 -121v-78h173v46q0 29 27 51t60 22h30q27 0 51 -14.5
t32 -36.5l1 -1v-3q50 -107 196 -119h124zM524 1525h-125q-80 5 -143 44t-90 102q0 13 -16.5 20.5t-29.5 7.5h-30q-46 0 -47 -33v-86h-253v118q0 87 77.5 148.5t181.5 61.5h125q80 -5 143 -44t90 -102v1q10 -22 20.5 -25.5t56.5 -3.5t47 33v86h253v-118q0 -87 -78 -148.5
t-182 -61.5z" />
    <glyph glyph-name="Imacron" unicode="&#x12a;" horiz-adv-x="573" 
d="M80 -20v1462h413v-1462h-413zM120 20h333v1382h-333v-1382zM641 1607v208h-709v-208h709zM681 1567h-789v288h789v-288z" />
    <glyph glyph-name="imacron" unicode="&#x12b;" horiz-adv-x="573" 
d="M80 -20v1462h413v-1462h-413zM120 20h333v1382h-333v-1382zM641 1607v208h-709v-208h709zM681 1567h-789v288h789v-288z" />
    <glyph glyph-name="Idotaccent" unicode="&#x130;" horiz-adv-x="573" 
d="M80 -20v1462h413v-1462h-413zM120 20h333v1382h-333v-1382zM391 1607v208h-209v-208h209zM431 1567h-289v288h289v-288z" />
    <glyph glyph-name="idotless" unicode="&#x131;" horiz-adv-x="573" 
d="M80 -20v1462h413v-1462h-413zM120 20h333v1382h-333v-1382z" />
    <glyph glyph-name="Jcircumflex" unicode="&#x134;" 
d="M1493 1442v-1066q0 -80 -31 -153t-85 -127q-53 -54 -126.5 -85t-153.5 -31h-1017v413h972q12 0 20 8t8 20v1021h413zM1453 1402h-333v-981q0 -30 -20 -48q-18 -20 -48 -20h-932v-333h977q148 0 252 104q104 106 104 252v1026zM1204 1530h-326l207 328q28 43 86.5 70
t125.5 27t125.5 -27t86.5 -70l207 -328h-326l-93 148zM1181 1570l116 183l115 -183h231l-168 267q-23 36 -70.5 57t-107.5 21t-107.5 -21t-70.5 -57l-169 -267h231z" />
    <glyph glyph-name="jcircumflex" unicode="&#x135;" 
d="M1493 1442v-1066q0 -80 -31 -153t-85 -127q-53 -54 -126.5 -85t-153.5 -31h-1017v413h972q12 0 20 8t8 20v1021h413zM1453 1402h-333v-981q0 -30 -20 -48q-18 -20 -48 -20h-932v-333h977q148 0 252 104q104 106 104 252v1026zM1204 1530h-326l207 328q28 43 86.5 70
t125.5 27t125.5 -27t86.5 -70l207 -328h-326l-93 148zM1181 1570l116 183l115 -183h231l-168 267q-23 36 -70.5 57t-107.5 21t-107.5 -21t-70.5 -57l-169 -267h231z" />
    <glyph glyph-name="Lmiddledot" unicode="&#x13f;" 
d="M80 1442h413v-1021q0 -12 8 -20t20 -8h972v-413h-1017q-80 0 -153.5 31t-126.5 85q-54 54 -85 127t-31 153v1066zM120 1402v-1026q0 -146 104 -252q106 -104 252 -104h977v333h-932q-30 0 -48 20q-20 18 -20 48v981h-333zM753 920h350v-351h-350v351zM787 886v-283h282
v283h-282z" />
    <glyph glyph-name="lmiddledot" unicode="&#x140;" 
d="M80 1442h413v-1021q0 -12 8 -20t20 -8h972v-413h-1017q-80 0 -153.5 31t-126.5 85q-54 54 -85 127t-31 153v1066zM120 1402v-1026q0 -146 104 -252q106 -104 252 -104h977v333h-932q-30 0 -48 20q-20 18 -20 48v981h-333zM753 920h350v-351h-350v351zM787 886v-283h282
v283h-282z" />
    <glyph glyph-name="Lslash" unicode="&#x141;" horiz-adv-x="1886" 
d="M1766 20v333h-932q-28 0 -48 19.5t-20 48.5v381l390 244v177l-390 -244v423h-333v-631l-333 -208v-177l333 208v-218q0 -154 107.5 -255t248.5 -101h977zM1806 -20h-1017q-113 0 -204.5 56t-141.5 146.5t-50 193.5v146l-333 -208v271l333 208v649h413v-391l390 244v-271
l-390 -244v-359q0 -12 8.5 -20t19.5 -8h972v-413z" />
    <glyph glyph-name="lslash" unicode="&#x142;" horiz-adv-x="1886" 
d="M1766 20v333h-932q-28 0 -48 19.5t-20 48.5v381l390 244v177l-390 -244v423h-333v-631l-333 -208v-177l333 208v-218q0 -154 107.5 -255t248.5 -101h977zM1806 -20h-1017q-113 0 -204.5 56t-141.5 146.5t-50 193.5v146l-333 -208v271l333 208v649h413v-391l390 244v-271
l-390 -244v-359q0 -12 8.5 -20t19.5 -8h972v-413z" />
    <glyph glyph-name="Ncaron" unicode="&#x147;" horiz-adv-x="1706" 
d="M80 -20v1066q0 80 31 153t85 127t127.5 85t152.5 31h187q79 0 152.5 -31t127.5 -85t85 -127t31 -153v-625q0 -12 8 -20t20 -8h98q12 0 20 8t8 20v1021h413v-1066q0 -79 -31 -152.5t-85 -127.5t-127 -85t-153 -31h-188q-80 0 -153 31t-127 85t-85 127.5t-31 152.5v625
q0 12 -8 20t-20 8h-97q-12 0 -20 -8t-8 -20v-1021h-413zM120 20h333v981q0 30 20 48q20 20 48 20h97q27 0 49 -20q19 -19 19 -48v-625q0 -149 105 -252q104 -104 251 -104h188q147 0 251 104q105 103 105 252v1026h-333v-981q0 -28 -20 -48q-18 -20 -48 -20h-98
q-29 0 -48 19q-20 22 -20 49v625q0 147 -104 251q-103 105 -252 105h-187q-147 0 -252 -105q-104 -104 -104 -251v-1026zM770 1855l93 -148l93 148h326l-207 -328q-28 -43 -86.5 -70t-125.5 -27t-125.5 27t-86.5 70l-207 328h326zM747 1815h-231l169 -267q23 -36 70.5 -57
t107.5 -21t107.5 21t70.5 57l168 267h-231l-115 -183z" />
    <glyph glyph-name="ncaron" unicode="&#x148;" horiz-adv-x="1706" 
d="M80 -20v1066q0 80 31 153t85 127t127.5 85t152.5 31h187q79 0 152.5 -31t127.5 -85t85 -127t31 -153v-625q0 -12 8 -20t20 -8h98q12 0 20 8t8 20v1021h413v-1066q0 -79 -31 -152.5t-85 -127.5t-127 -85t-153 -31h-188q-80 0 -153 31t-127 85t-85 127.5t-31 152.5v625
q0 12 -8 20t-20 8h-97q-12 0 -20 -8t-8 -20v-1021h-413zM120 20h333v981q0 30 20 48q20 20 48 20h97q27 0 49 -20q19 -19 19 -48v-625q0 -149 105 -252q104 -104 251 -104h188q147 0 251 104q105 103 105 252v1026h-333v-981q0 -28 -20 -48q-18 -20 -48 -20h-98
q-29 0 -48 19q-20 22 -20 49v625q0 147 -104 251q-103 105 -252 105h-187q-147 0 -252 -105q-104 -104 -104 -251v-1026zM770 1855l93 -148l93 148h326l-207 -328q-28 -43 -86.5 -70t-125.5 -27t-125.5 27t-86.5 70l-207 328h326zM747 1815h-231l169 -267q23 -36 70.5 -57
t107.5 -21t107.5 21t70.5 57l168 267h-231l-115 -183z" />
    <glyph glyph-name="Omacron" unicode="&#x14c;" 
d="M1097 1442q80 0 153.5 -31t126.5 -85q54 -54 85 -127t31 -153v-670q0 -80 -31 -153t-85 -127q-53 -54 -126.5 -85t-153.5 -31h-621q-80 0 -153.5 31t-126.5 85q-54 54 -85 127t-31 153v670q0 80 31 153t85 127q53 54 126.5 85t153.5 31h621zM1120 1001v-580q0 -14 -5 -26
q-5 -13 -14 -22q-10 -10 -23 -15q-12 -5 -26 -5h-531q-14 0 -26 5q-11 4 -22 15t-15 22q-5 12 -5 26v580q0 30 20 48q20 20 48 20h531q27 0 49 -20q19 -19 19 -48zM1097 1402h-621q-146 0 -252 -104q-104 -106 -104 -252v-670q0 -146 104 -252q106 -104 252 -104h621
q148 0 252 104q104 106 104 252v670q0 146 -104 252q-104 104 -252 104zM1080 1001q0 12 -8 20t-20 8h-531q-12 0 -20 -8t-8 -20v-580q0 -7 2 -11q1 -4 6 -9q3 -3 9 -6q4 -2 11 -2h531q7 0 11 2q6 3 9 6q5 5 6 9q2 4 2 11v580zM1141 1607v208h-709v-208h709zM1181 1567h-789
v288h789v-288z" />
    <glyph glyph-name="omacron" unicode="&#x14d;" 
d="M1097 1442q80 0 153.5 -31t126.5 -85q54 -54 85 -127t31 -153v-670q0 -80 -31 -153t-85 -127q-53 -54 -126.5 -85t-153.5 -31h-621q-80 0 -153.5 31t-126.5 85q-54 54 -85 127t-31 153v670q0 80 31 153t85 127q53 54 126.5 85t153.5 31h621zM1120 1001v-580q0 -14 -5 -26
q-5 -13 -14 -22q-10 -10 -23 -15q-12 -5 -26 -5h-531q-14 0 -26 5q-11 4 -22 15t-15 22q-5 12 -5 26v580q0 30 20 48q20 20 48 20h531q27 0 49 -20q19 -19 19 -48zM1097 1402h-621q-146 0 -252 -104q-104 -106 -104 -252v-670q0 -146 104 -252q106 -104 252 -104h621
q148 0 252 104q104 106 104 252v670q0 146 -104 252q-104 104 -252 104zM1080 1001q0 12 -8 20t-20 8h-531q-12 0 -20 -8t-8 -20v-580q0 -7 2 -11q1 -4 6 -9q3 -3 9 -6q4 -2 11 -2h531q7 0 11 2q6 3 9 6q5 5 6 9q2 4 2 11v580zM1141 1607v208h-709v-208h709zM1181 1567h-789
v288h789v-288z" />
    <glyph glyph-name="OE" unicode="&#x152;" horiz-adv-x="2580" 
d="M1052 393q11 0 19.5 7t8.5 21v580q0 12 -8 20t-20 8h-531q-12 0 -20 -8t-8 -20v-580q0 -10 7.5 -19t20.5 -9h531zM1052 353h-531q-31 0 -49.5 19t-18.5 49v580q0 29 19.5 48.5t48.5 19.5h531q30 0 49 -20.5t19 -47.5v-580q0 -35 -20 -51.5t-48 -16.5zM2460 20v333h-933
q-29 0 -48.5 19.5t-19.5 48.5v55q0 28 19.5 48t48.5 20l933 1v333h-933q-29 0 -48.5 20t-19.5 48v55q0 29 19.5 48.5t48.5 19.5h933v333h-978q-96 0 -192 -56q-95 56 -193 56h-621q-103 0 -186 -51.5t-126.5 -132.5t-43.5 -172v-670q0 -103 51.5 -186t132.5 -126.5
t172 -43.5h621q50 0 92.5 11.5t99.5 44.5q53 -30 93.5 -43t99.5 -13h978zM2500 -20h-1018q-108 0 -199 53l6 -4q-84 -49 -192 -49h-621q-114 0 -206 57t-141 147t-49 192v670q0 114 57 206t147 141t192 49h621q58 0 110.5 -15.5t82.5 -34.5q82 50 192 50h1018v-413h-973
q-12 0 -20 -8t-8 -20v-55q0 -12 8 -20t20 -8h973v-413l-973 -1q-12 0 -20 -8t-8 -20v-55q0 -12 8 -20t20 -8h973v-413z" />
    <glyph glyph-name="oe" unicode="&#x153;" horiz-adv-x="2580" 
d="M1052 393q11 0 19.5 7t8.5 21v580q0 12 -8 20t-20 8h-531q-12 0 -20 -8t-8 -20v-580q0 -10 7.5 -19t20.5 -9h531zM1052 353h-531q-31 0 -49.5 19t-18.5 49v580q0 29 19.5 48.5t48.5 19.5h531q30 0 49 -20.5t19 -47.5v-580q0 -35 -20 -51.5t-48 -16.5zM2460 20v333h-933
q-29 0 -48.5 19.5t-19.5 48.5v55q0 28 19.5 48t48.5 20l933 1v333h-933q-29 0 -48.5 20t-19.5 48v55q0 29 19.5 48.5t48.5 19.5h933v333h-978q-96 0 -192 -56q-95 56 -193 56h-621q-103 0 -186 -51.5t-126.5 -132.5t-43.5 -172v-670q0 -103 51.5 -186t132.5 -126.5
t172 -43.5h621q50 0 92.5 11.5t99.5 44.5q53 -30 93.5 -43t99.5 -13h978zM2500 -20h-1018q-108 0 -199 53l6 -4q-84 -49 -192 -49h-621q-114 0 -206 57t-141 147t-49 192v670q0 114 57 206t147 141t192 49h621q58 0 110.5 -15.5t82.5 -34.5q82 50 192 50h1018v-413h-973
q-12 0 -20 -8t-8 -20v-55q0 -12 8 -20t20 -8h973v-413l-973 -1q-12 0 -20 -8t-8 -20v-55q0 -12 8 -20t20 -8h973v-413z" />
    <glyph glyph-name="Rcaron" unicode="&#x158;" horiz-adv-x="1574" 
d="M1051 645q13 1 21.5 10t8.5 23v319q0 13 -9.5 23t-22.5 10h-556v-385h558zM1052 605h-599v465h596q29 0 50.5 -21.5t21.5 -51.5v-319q0 -26 -18 -48t-51 -25zM746 1470q121 0 178 78l168 267h-231l-115 -183l-116 183h-231l169 -267q57 -78 178 -78zM1454 20v230
q0 96 -53 187q53 90 53 185v431q0 148 -102.5 248.5t-247.5 100.5h-984v-1382h333v253h606q31 -5 46.5 -25t15.5 -43v-185h333zM1494 -20h-413v225q0 11 -7.5 19t-16.5 9h-564v-253h-413v1462h580q-86 25 -126 85l-207 328h326l93 -148l93 148h326l-207 -328
q-40 -60 -126 -85h272q112 0 203 -56.5t139 -145t48 -187.5v-431q0 -51 -14.5 -103t-32.5 -82q18 -31 32.5 -83.5t14.5 -103.5v-270z" />
    <glyph glyph-name="rcaron" unicode="&#x159;" horiz-adv-x="1574" 
d="M1051 645q13 1 21.5 10t8.5 23v319q0 13 -9.5 23t-22.5 10h-556v-385h558zM1052 605h-599v465h596q29 0 50.5 -21.5t21.5 -51.5v-319q0 -26 -18 -48t-51 -25zM746 1470q121 0 178 78l168 267h-231l-115 -183l-116 183h-231l169 -267q57 -78 178 -78zM1454 20v230
q0 96 -53 187q53 90 53 185v431q0 148 -102.5 248.5t-247.5 100.5h-984v-1382h333v253h606q31 -5 46.5 -25t15.5 -43v-185h333zM1494 -20h-413v225q0 11 -7.5 19t-16.5 9h-564v-253h-413v1462h580q-86 25 -126 85l-207 328h326l93 -148l93 148h326l-207 -328
q-40 -60 -126 -85h272q112 0 203 -56.5t139 -145t48 -187.5v-431q0 -51 -14.5 -103t-32.5 -82q18 -31 32.5 -83.5t14.5 -103.5v-270z" />
    <glyph glyph-name="Scircumflex" unicode="&#x15c;" 
d="M1080 476q0 12 -8 20t-20 8l-577 1q-79 0 -152 31t-127 85t-85 127t-31 153v146q0 80 31 153t85 126q53 54 126.5 85t153.5 31h1017v-412h-972q-28 0 -28 -28v-56q0 -29 28 -29h576q80 0 153 -31t127 -85t85 -127t31 -153v-145q0 -80 -31 -153t-85 -127
q-53 -53 -126.5 -84t-153.5 -31h-1017v412h972q12 0 20 9q8 7 8 19v55zM1120 476v-55q0 -30 -20 -48q-20 -20 -48 -20h-932v-332h977q150 0 252 104q104 104 104 251v145q0 146 -104 252q-106 104 -252 104h-576q-27 0 -47.5 21t-20.5 48v56q0 26 21 47t47 21h932v332h-977
q-146 0 -252 -104q-104 -104 -104 -251v-146q0 -146 104 -252q104 -104 251 -104l577 -1q29 0 48 -19q20 -20 20 -49zM754 1530h-326l207 328q28 43 86.5 70t125.5 27t125.5 -27t86.5 -70l207 -328h-326l-93 148zM731 1570l116 183l115 -183h231l-168 267q-23 36 -70.5 57
t-107.5 21t-107.5 -21t-70.5 -57l-169 -267h231z" />
    <glyph glyph-name="scircumflex" unicode="&#x15d;" 
d="M1080 476q0 12 -8 20t-20 8l-577 1q-79 0 -152 31t-127 85t-85 127t-31 153v146q0 80 31 153t85 126q53 54 126.5 85t153.5 31h1017v-412h-972q-28 0 -28 -28v-56q0 -29 28 -29h576q80 0 153 -31t127 -85t85 -127t31 -153v-145q0 -80 -31 -153t-85 -127
q-53 -53 -126.5 -84t-153.5 -31h-1017v412h972q12 0 20 9q8 7 8 19v55zM1120 476v-55q0 -30 -20 -48q-20 -20 -48 -20h-932v-332h977q150 0 252 104q104 104 104 251v145q0 146 -104 252q-106 104 -252 104h-576q-27 0 -47.5 21t-20.5 48v56q0 26 21 47t47 21h932v332h-977
q-146 0 -252 -104q-104 -104 -104 -251v-146q0 -146 104 -252q104 -104 251 -104l577 -1q29 0 48 -19q20 -20 20 -49zM754 1530h-326l207 328q28 43 86.5 70t125.5 27t125.5 -27t86.5 -70l207 -328h-326l-93 148zM731 1570l116 183l115 -183h231l-168 267q-23 36 -70.5 57
t-107.5 21t-107.5 -21t-70.5 -57l-169 -267h231z" />
    <glyph glyph-name="Scaron" unicode="&#x160;" 
d="M847 1470q121 0 178 78l168 267h-231l-115 -183l-116 183h-231l169 -267q57 -78 178 -78zM1097 21q150 0 253 103.5t103 251.5v145q0 150 -104.5 253t-251.5 103h-576q-27 0 -47.5 21.5t-20.5 47.5v56q0 26 20.5 47t47.5 21h932v332h-977q-150 0 -253 -103.5t-103 -251.5
v-146q0 -150 104 -253t251 -103l577 -1q30 0 49 -20t19 -48v-55q0 -27 -19.5 -47.5t-48.5 -20.5h-932v-332h977zM1097 -19h-1017v412h972q12 0 20 8.5t8 19.5v55q0 28 -28 28l-577 1q-162 0 -278.5 115.5t-116.5 280.5v146q0 164 116.5 279.5t279.5 115.5h285
q-86 25 -126 85l-207 328h326l93 -148l93 148h326l-207 -328q-40 -60 -126 -85h560v-412h-972q-28 0 -28 -28v-56q0 -28 28 -29h576q162 0 279 -115.5t117 -280.5v-145q0 -162 -114.5 -278.5t-281.5 -116.5z" />
    <glyph glyph-name="scaron" unicode="&#x161;" 
d="M847 1470q121 0 178 78l168 267h-231l-115 -183l-116 183h-231l169 -267q57 -78 178 -78zM1097 21q150 0 253 103.5t103 251.5v145q0 150 -104.5 253t-251.5 103h-576q-27 0 -47.5 21.5t-20.5 47.5v56q0 26 20.5 47t47.5 21h932v332h-977q-150 0 -253 -103.5t-103 -251.5
v-146q0 -150 104 -253t251 -103l577 -1q30 0 49 -20t19 -48v-55q0 -27 -19.5 -47.5t-48.5 -20.5h-932v-332h977zM1097 -19h-1017v412h972q12 0 20 8.5t8 19.5v55q0 28 -28 28l-577 1q-162 0 -278.5 115.5t-116.5 280.5v146q0 164 116.5 279.5t279.5 115.5h285
q-86 25 -126 85l-207 328h326l93 -148l93 148h326l-207 -328q-40 -60 -126 -85h560v-412h-972q-28 0 -28 -28v-56q0 -28 28 -29h576q162 0 279 -115.5t117 -280.5v-145q0 -162 -114.5 -278.5t-281.5 -116.5z" />
    <glyph glyph-name="Tcaron" unicode="&#x164;" horiz-adv-x="1574" 
d="M787 1470q121 0 178 78l168 267h-231l-115 -183l-115 183h-232l169 -267q57 -78 178 -78zM953 20v982q0 28 20.5 48t47.5 20h433v332h-1334v-332h432q29 0 48.5 -20.5t19.5 -47.5v-982h333zM993 -20h-413v1022q0 11 -8 19.5t-20 8.5h-472v412h621q-86 25 -126 85
l-207 328h326l93 -148l93 148h326l-207 -328q-40 -60 -126 -85h621v-412h-473q-12 0 -20 -8.5t-8 -19.5v-1022z" />
    <glyph glyph-name="tcaron" unicode="&#x165;" horiz-adv-x="1574" 
d="M787 1470q121 0 178 78l168 267h-231l-115 -183l-115 183h-232l169 -267q57 -78 178 -78zM953 20v982q0 28 20.5 48t47.5 20h433v332h-1334v-332h432q29 0 48.5 -20.5t19.5 -47.5v-982h333zM993 -20h-413v1022q0 11 -8 19.5t-20 8.5h-472v412h621q-86 25 -126 85
l-207 328h326l93 -148l93 148h326l-207 -328q-40 -60 -126 -85h621v-412h-473q-12 0 -20 -8.5t-8 -19.5v-1022z" />
    <glyph glyph-name="Tbar" unicode="&#x166;" horiz-adv-x="1574" 
d="M953 20v650h354v221h-354v111q0 28 19.5 48t48.5 20h433v332h-1334v-332h432q28 0 48 -20t20 -48v-111h-369v-221h369v-650h333zM993 -20h-413v650h-369v301h369v71q0 12 -8.5 20t-19.5 8h-472v412h1414v-412h-473q-11 0 -19.5 -8t-8.5 -20v-71h354v-301h-354v-650z" />
    <glyph glyph-name="tbar" unicode="&#x167;" horiz-adv-x="1574" 
d="M953 20v650h354v221h-354v111q0 28 19.5 48t48.5 20h433v332h-1334v-332h432q28 0 48 -20t20 -48v-111h-369v-221h369v-650h333zM993 -20h-413v650h-369v301h369v71q0 12 -8.5 20t-19.5 8h-472v412h1414v-412h-473q-11 0 -19.5 -8t-8.5 -20v-71h354v-301h-354v-650z" />
    <glyph glyph-name="Utilde" unicode="&#x168;" 
d="M1053 411q7 0 10 2q11 4 15 15q2 4 2 11v1021h413v-1066q0 -80 -31 -153t-85 -127t-127.5 -85t-152.5 -31h-621q-79 0 -152.5 31t-127.5 85t-85 127t-31 153v1066h413v-1021q0 -28 28 -28h532zM1053 371h-532q-26 0 -47 21t-21 47v981h-333v-1026q0 -146 104 -252
q106 -104 252 -104h621q148 0 252 104q104 106 104 252v1026h-333v-981q0 -14 -5 -26q-11 -27 -36 -37q-13 -5 -26 -5zM1024 1565q94 0 157 49t63 121v78h-173v-46q0 -29 -27 -51t-60 -22h-30q-27 0 -51 14.5t-32 36.5q-1 1 -1 4q-50 107 -197 119h-124q-94 0 -156.5 -49
t-62.5 -121v-78h173v46q0 29 27 51t60 22h30q27 0 51 -14.5t32 -36.5l1 -1v-3q48 -107 196 -119h124zM1024 1525h-125q-80 5 -143.5 44t-89.5 102q0 13 -17 20.5t-29 7.5h-30q-46 0 -47 -33v-86h-253v118q0 87 77.5 148.5t181.5 61.5h125q79 -5 142.5 -44t90.5 -102v1
q10 -22 20 -25.5t57 -3.5q44 0 47 33v86h253v-118q0 -87 -78 -148.5t-182 -61.5z" />
    <glyph glyph-name="utilde" unicode="&#x169;" 
d="M1053 411q7 0 10 2q11 4 15 15q2 4 2 11v1021h413v-1066q0 -80 -31 -153t-85 -127t-127.5 -85t-152.5 -31h-621q-79 0 -152.5 31t-127.5 85t-85 127t-31 153v1066h413v-1021q0 -28 28 -28h532zM1053 371h-532q-26 0 -47 21t-21 47v981h-333v-1026q0 -146 104 -252
q106 -104 252 -104h621q148 0 252 104q104 106 104 252v1026h-333v-981q0 -14 -5 -26q-11 -27 -36 -37q-13 -5 -26 -5zM1024 1565q94 0 157 49t63 121v78h-173v-46q0 -29 -27 -51t-60 -22h-30q-27 0 -51 14.5t-32 36.5q-1 1 -1 4q-50 107 -197 119h-124q-94 0 -156.5 -49
t-62.5 -121v-78h173v46q0 29 27 51t60 22h30q27 0 51 -14.5t32 -36.5l1 -1v-3q48 -107 196 -119h124zM1024 1525h-125q-80 5 -143.5 44t-89.5 102q0 13 -17 20.5t-29 7.5h-30q-46 0 -47 -33v-86h-253v118q0 87 77.5 148.5t181.5 61.5h125q79 -5 142.5 -44t90.5 -102v1
q10 -22 20 -25.5t57 -3.5q44 0 47 33v86h253v-118q0 -87 -78 -148.5t-182 -61.5z" />
    <glyph glyph-name="Umacron" unicode="&#x16a;" 
d="M1053 411q7 0 10 2q11 4 15 15q2 4 2 11v1021h413v-1066q0 -80 -31 -153t-85 -127t-127.5 -85t-152.5 -31h-621q-79 0 -152.5 31t-127.5 85t-85 127t-31 153v1066h413v-1021q0 -28 28 -28h532zM1053 371h-532q-26 0 -47 21t-21 47v981h-333v-1026q0 -146 104 -252
q106 -104 252 -104h621q148 0 252 104q104 106 104 252v1026h-333v-981q0 -14 -5 -26q-11 -27 -36 -37q-13 -5 -26 -5zM1141 1607v208h-709v-208h709zM1181 1567h-789v288h789v-288z" />
    <glyph glyph-name="umacron" unicode="&#x16b;" 
d="M1053 411q7 0 10 2q11 4 15 15q2 4 2 11v1021h413v-1066q0 -80 -31 -153t-85 -127t-127.5 -85t-152.5 -31h-621q-79 0 -152.5 31t-127.5 85t-85 127t-31 153v1066h413v-1021q0 -28 28 -28h532zM1053 371h-532q-26 0 -47 21t-21 47v981h-333v-1026q0 -146 104 -252
q106 -104 252 -104h621q148 0 252 104q104 106 104 252v1026h-333v-981q0 -14 -5 -26q-11 -27 -36 -37q-13 -5 -26 -5zM1141 1607v208h-709v-208h709zM1181 1567h-789v288h789v-288z" />
    <glyph glyph-name="Wcircumflex" unicode="&#x174;" horiz-adv-x="2272" 
d="M80 1441h412v-1020q0 -12 8 -20t20 -8h98q12 0 20 8t8 19v372q0 80 31 153.5t85 126.5q53 54 126.5 85t153.5 31h187q80 0 153.5 -31t126.5 -85q54 -53 85 -126.5t31 -153.5l1 -371q0 -12 8 -20t20 -8h97q12 0 20 8t8 20v1020h413v-1065q0 -80 -31 -153.5t-85 -127.5
q-55 -54 -128 -85t-152 -31h-187q-79 0 -152.5 31t-127.5 85t-85 127.5t-31 153.5v371q0 12 -8 20t-20 8h-98q-12 0 -20 -8t-8 -20v-371q0 -80 -31 -153.5t-85 -127.5t-127.5 -85t-152.5 -31h-187q-79 0 -152.5 31t-127.5 85t-85 127.5t-31 153.5v1065zM120 1401v-1025
q0 -148 104 -252q105 -105 252 -105h187q149 0 252 105q104 104 104 252v371q0 27 20 49q19 19 48 19h98q30 0 48 -20q20 -20 20 -48v-371q0 -148 104 -252q103 -105 252 -105h187q147 0 252 105q104 104 104 252v1025h-333v-980q0 -29 -20 -49q-19 -19 -48 -19h-97
q-28 0 -49 19q-19 21 -19 49l-1 371q0 148 -104 252q-102 104 -252 104h-187q-148 0 -252 -104t-104 -252v-372q0 -26 -20 -48q-19 -19 -48 -19h-98q-29 0 -48 19q-20 22 -20 49v980h-332zM1043 1530h-326l207 328q28 43 86.5 70t125.5 27t125.5 -27t86.5 -70l207 -328h-326
l-93 148zM1021 1570l115 183l115 -183h232l-169 267q-23 36 -70.5 57t-107.5 21t-107.5 -21t-70.5 -57l-169 -267h232z" />
    <glyph glyph-name="wcircumflex" unicode="&#x175;" horiz-adv-x="2272" 
d="M80 1441h412v-1020q0 -12 8 -20t20 -8h98q12 0 20 8t8 19v372q0 80 31 153.5t85 126.5q53 54 126.5 85t153.5 31h187q80 0 153.5 -31t126.5 -85q54 -53 85 -126.5t31 -153.5l1 -371q0 -12 8 -20t20 -8h97q12 0 20 8t8 20v1020h413v-1065q0 -80 -31 -153.5t-85 -127.5
q-55 -54 -128 -85t-152 -31h-187q-79 0 -152.5 31t-127.5 85t-85 127.5t-31 153.5v371q0 12 -8 20t-20 8h-98q-12 0 -20 -8t-8 -20v-371q0 -80 -31 -153.5t-85 -127.5t-127.5 -85t-152.5 -31h-187q-79 0 -152.5 31t-127.5 85t-85 127.5t-31 153.5v1065zM120 1401v-1025
q0 -148 104 -252q105 -105 252 -105h187q149 0 252 105q104 104 104 252v371q0 27 20 49q19 19 48 19h98q30 0 48 -20q20 -20 20 -48v-371q0 -148 104 -252q103 -105 252 -105h187q147 0 252 105q104 104 104 252v1025h-333v-980q0 -29 -20 -49q-19 -19 -48 -19h-97
q-28 0 -49 19q-19 21 -19 49l-1 371q0 148 -104 252q-102 104 -252 104h-187q-148 0 -252 -104t-104 -252v-372q0 -26 -20 -48q-19 -19 -48 -19h-98q-29 0 -48 19q-20 22 -20 49v980h-332zM1043 1530h-326l207 328q28 43 86.5 70t125.5 27t125.5 -27t86.5 -70l207 -328h-326
l-93 148zM1021 1570l115 183l115 -183h232l-169 267q-23 36 -70.5 57t-107.5 21t-107.5 -21t-70.5 -57l-169 -267h232z" />
    <glyph glyph-name="Ycircumflex" unicode="&#x176;" 
d="M1053 917q28 0 28 28v497h412v-542q0 -80 -31 -153t-85 -127q-53 -53 -126.5 -84t-153.5 -31l-104 -1v-524h-413v524h-104q-79 0 -152.5 31t-127.5 85t-85 127t-31 153v542h412v-497q0 -28 29 -28h532zM1053 877h-532q-26 0 -47.5 21t-21.5 47v457h-332v-502
q0 -147 104 -251q103 -105 252 -105h144v-524h333v524l144 1q150 0 252 104q104 104 104 251v502h-332v-457q0 -26 -21 -47t-47 -21zM693 1530h-326l207 328q28 43 86.5 70t125.5 27q68 0 126.5 -27t85.5 -70l208 -328h-327l-93 148zM671 1570l115 183l116 -183h231
l-168 267q-23 36 -71 57t-108 21t-107.5 -21t-70.5 -57l-168 -267h231z" />
    <glyph glyph-name="ycircumflex" unicode="&#x177;" 
d="M1053 917q28 0 28 28v497h412v-542q0 -80 -31 -153t-85 -127q-53 -53 -126.5 -84t-153.5 -31l-104 -1v-524h-413v524h-104q-79 0 -152.5 31t-127.5 85t-85 127t-31 153v542h412v-497q0 -28 29 -28h532zM1053 877h-532q-26 0 -47.5 21t-21.5 47v457h-332v-502
q0 -147 104 -251q103 -105 252 -105h144v-524h333v524l144 1q150 0 252 104q104 104 104 251v502h-332v-457q0 -26 -21 -47t-47 -21zM693 1530h-326l207 328q28 43 86.5 70t125.5 27q68 0 126.5 -27t85.5 -70l208 -328h-327l-93 148zM671 1570l115 183l116 -183h231
l-168 267q-23 36 -71 57t-108 21t-107.5 -21t-70.5 -57l-168 -267h231z" />
    <glyph glyph-name="Ydieresis" unicode="&#x178;" 
d="M1053 917q28 0 28 28v497h412v-542q0 -80 -31 -153t-85 -127q-53 -53 -126.5 -84t-153.5 -31l-104 -1v-524h-413v524h-104q-79 0 -152.5 31t-127.5 85t-85 127t-31 153v542h412v-497q0 -28 29 -28h532zM1053 877h-532q-26 0 -47.5 21t-21.5 47v457h-332v-502
q0 -147 104 -251q103 -105 252 -105h144v-524h333v524l144 1q150 0 252 104q104 104 104 251v502h-332v-457q0 -26 -21 -47t-47 -21zM691 1607v208h-209v-208h209zM1091 1607v208h-209v-208h209zM731 1567h-289v288h289v-288zM1131 1567h-289v288h289v-288z" />
    <glyph glyph-name="Zdotaccent" unicode="&#x17b;" 
d="M493 476v-55q0 -12 8 -19q8 -9 20 -9h972v-412h-1017q-79 0 -152.5 30.5t-127.5 84.5t-85 127t-31 153v145q0 80 31 153t85 127t127 85t153 31h577q11 0 19 9q8 8 8 20v56q0 11 -8 19q-9 9 -20 9h-972v412h1017q80 0 153.5 -31t126.5 -85q54 -53 85 -126t31 -153v-146
q0 -80 -31 -153t-85 -127q-117 -117 -300 -117v1h-556q-12 0 -20 -9q-8 -8 -8 -20zM453 476q0 29 20 49t48 20h596v-1q60 0 121 27.5t111 77.5q104 106 104 252v146q0 147 -104 251t-252 104h-977v-332h932q28 0 48 -20q20 -18 20 -48v-56q0 -28 -19 -49q-22 -20 -48 -20
h-577q-146 0 -252 -104q-104 -106 -104 -252v-145q0 -147 104 -251t252 -104h977v332h-932q-28 0 -48 20q-20 18 -20 48v55zM851 1607v208h-209v-208h209zM891 1567h-289v288h289v-288z" />
    <glyph glyph-name="zdotaccent" unicode="&#x17c;" 
d="M493 476v-55q0 -12 8 -19q8 -9 20 -9h972v-412h-1017q-79 0 -152.5 30.5t-127.5 84.5t-85 127t-31 153v145q0 80 31 153t85 127t127 85t153 31h577q11 0 19 9q8 8 8 20v56q0 11 -8 19q-9 9 -20 9h-972v412h1017q80 0 153.5 -31t126.5 -85q54 -53 85 -126t31 -153v-146
q0 -80 -31 -153t-85 -127q-117 -117 -300 -117v1h-556q-12 0 -20 -9q-8 -8 -8 -20zM453 476q0 29 20 49t48 20h596v-1q60 0 121 27.5t111 77.5q104 106 104 252v146q0 147 -104 251t-252 104h-977v-332h932q28 0 48 -20q20 -18 20 -48v-56q0 -28 -19 -49q-22 -20 -48 -20
h-577q-146 0 -252 -104q-104 -106 -104 -252v-145q0 -147 104 -251t252 -104h977v332h-932q-28 0 -48 20q-20 18 -20 48v55zM851 1607v208h-209v-208h209zM891 1567h-289v288h289v-288z" />
    <glyph glyph-name="Zcaron" unicode="&#x17d;" 
d="M747 1470q121 0 178 78l168 267h-231l-115 -183l-116 183h-231l169 -267q57 -78 178 -78zM1453 21v332h-932q-27 0 -47.5 20t-20.5 48v55q0 29 20.5 49t47.5 20h596v-1q56 0 115 25.5t108.5 70t81 113.5t31.5 148v146q0 146 -102.5 250.5t-253.5 104.5h-977v-332h932
q29 0 48.5 -20.5t19.5 -47.5v-56q0 -30 -20 -49.5t-47 -19.5h-577q-150 0 -253 -104.5t-103 -251.5v-145q0 -150 104.5 -252.5t251.5 -102.5h977zM1493 -19h-1017q-164 0 -280 115.5t-116 279.5v145q0 164 116 280t280 116h577q11 0 19 8.5t8 20.5v56q0 11 -8 19.5t-20 8.5
h-972v412h581q-86 25 -126 85l-207 328h326l93 -148l93 148h326l-207 -328q-40 -60 -126 -85h264q164 0 280 -115.5t116 -279.5v-146q0 -165 -116 -281t-300 -116v1h-556q-12 0 -20 -8.5t-8 -20.5v-55q0 -11 8 -19.5t20 -8.5h972v-412z" />
    <glyph glyph-name="zcaron" unicode="&#x17e;" 
d="M747 1470q121 0 178 78l168 267h-231l-115 -183l-116 183h-231l169 -267q57 -78 178 -78zM1453 21v332h-932q-27 0 -47.5 20t-20.5 48v55q0 29 20.5 49t47.5 20h596v-1q56 0 115 25.5t108.5 70t81 113.5t31.5 148v146q0 146 -102.5 250.5t-253.5 104.5h-977v-332h932
q29 0 48.5 -20.5t19.5 -47.5v-56q0 -30 -20 -49.5t-47 -19.5h-577q-150 0 -253 -104.5t-103 -251.5v-145q0 -150 104.5 -252.5t251.5 -102.5h977zM1493 -19h-1017q-164 0 -280 115.5t-116 279.5v145q0 164 116 280t280 116h577q11 0 19 8.5t8 20.5v56q0 11 -8 19.5t-20 8.5
h-972v412h581q-86 25 -126 85l-207 328h326l93 -148l93 148h326l-207 -328q-40 -60 -126 -85h264q164 0 280 -115.5t116 -279.5v-146q0 -165 -116 -281t-300 -116v1h-556q-12 0 -20 -8.5t-8 -20.5v-55q0 -11 8 -19.5t20 -8.5h972v-412z" />
    <glyph glyph-name="circumflexcomb" unicode="&#x302;" horiz-adv-x="966" 
d="M390 1530h-326l207 328q28 43 86.5 70t125.5 27t125.5 -27t86.5 -70l207 -328h-326l-93 148zM367 1570l116 183l115 -183h231l-168 267q-23 36 -70.5 57t-107.5 21t-107.5 -21t-70.5 -57l-169 -267h231z" />
    <glyph glyph-name="tildecomb" unicode="&#x303;" horiz-adv-x="1154" 
d="M814 1565q94 0 157 49t63 121v78h-173v-46q0 -29 -27 -51t-60 -22h-30q-27 0 -51 14.5t-32 36.5l-1 4q-50 107 -197 119h-124q-94 0 -156.5 -49t-62.5 -121v-78h173v46q0 29 27 51t60 22h30q27 0 51 -14.5t32 -36.5l1 -1v-3q50 -107 196 -119h124zM814 1525h-125
q-80 5 -143 44t-90 102q0 13 -16.5 20.5t-29.5 7.5h-30q-46 0 -47 -33v-86h-253v118q0 87 77.5 148.5t181.5 61.5h125q80 -5 143 -44t90 -102v1q10 -22 20.5 -25.5t56.5 -3.5t47 33v86h253v-118q0 -87 -78 -148.5t-182 -61.5z" />
    <glyph glyph-name="macroncomb" unicode="&#x304;" horiz-adv-x="949" 
d="M829 1607v208h-709v-208h709zM869 1567h-789v288h789v-288z" />
    <glyph glyph-name="dotaccentcomb" unicode="&#x307;" horiz-adv-x="449" 
d="M329 1607v208h-209v-208h209zM369 1567h-289v288h289v-288z" />
    <glyph glyph-name="dieresiscomb" unicode="&#x308;" horiz-adv-x="849" 
d="M329 1607v208h-209v-208h209zM729 1607v208h-209v-208h209zM369 1567h-289v288h289v-288zM769 1567h-289v288h289v-288z" />
    <glyph glyph-name="caroncomb" unicode="&#x30c;" horiz-adv-x="966" 
d="M390 1855l93 -148l93 148h326l-207 -328q-28 -43 -86.5 -70t-125.5 -27t-125.5 27t-86.5 70l-207 328h326zM367 1815h-231l169 -267q23 -36 70.5 -57t107.5 -21t107.5 21t70.5 57l168 267h-231l-115 -183z" />
    <glyph glyph-name="Wdieresis" unicode="&#x1e84;" horiz-adv-x="2272" 
d="M80 1441h412v-1020q0 -12 8 -20t20 -8h98q12 0 20 8t8 19v372q0 80 31 153.5t85 126.5q53 54 126.5 85t153.5 31h187q80 0 153.5 -31t126.5 -85q54 -53 85 -126.5t31 -153.5l1 -371q0 -12 8 -20t20 -8h97q12 0 20 8t8 20v1020h413v-1065q0 -80 -31 -153.5t-85 -127.5
q-55 -54 -128 -85t-152 -31h-187q-79 0 -152.5 31t-127.5 85t-85 127.5t-31 153.5v371q0 12 -8 20t-20 8h-98q-12 0 -20 -8t-8 -20v-371q0 -80 -31 -153.5t-85 -127.5t-127.5 -85t-152.5 -31h-187q-79 0 -152.5 31t-127.5 85t-85 127.5t-31 153.5v1065zM120 1401v-1025
q0 -148 104 -252q105 -105 252 -105h187q149 0 252 105q104 104 104 252v371q0 27 20 49q19 19 48 19h98q30 0 48 -20q20 -20 20 -48v-371q0 -148 104 -252q103 -105 252 -105h187q147 0 252 105q104 104 104 252v1025h-333v-980q0 -29 -20 -49q-19 -19 -48 -19h-97
q-28 0 -49 19q-19 21 -19 49l-1 371q0 148 -104 252q-102 104 -252 104h-187q-148 0 -252 -104t-104 -252v-372q0 -26 -20 -48q-19 -19 -48 -19h-98q-29 0 -48 19q-20 22 -20 49v980h-332zM1040 1607v208h-209v-208h209zM1440 1607v208h-209v-208h209zM1080 1567h-289v288
h289v-288zM1480 1567h-289v288h289v-288z" />
    <glyph glyph-name="wdieresis" unicode="&#x1e85;" horiz-adv-x="2272" 
d="M80 1441h412v-1020q0 -12 8 -20t20 -8h98q12 0 20 8t8 19v372q0 80 31 153.5t85 126.5q53 54 126.5 85t153.5 31h187q80 0 153.5 -31t126.5 -85q54 -53 85 -126.5t31 -153.5l1 -371q0 -12 8 -20t20 -8h97q12 0 20 8t8 20v1020h413v-1065q0 -80 -31 -153.5t-85 -127.5
q-55 -54 -128 -85t-152 -31h-187q-79 0 -152.5 31t-127.5 85t-85 127.5t-31 153.5v371q0 12 -8 20t-20 8h-98q-12 0 -20 -8t-8 -20v-371q0 -80 -31 -153.5t-85 -127.5t-127.5 -85t-152.5 -31h-187q-79 0 -152.5 31t-127.5 85t-85 127.5t-31 153.5v1065zM120 1401v-1025
q0 -148 104 -252q105 -105 252 -105h187q149 0 252 105q104 104 104 252v371q0 27 20 49q19 19 48 19h98q30 0 48 -20q20 -20 20 -48v-371q0 -148 104 -252q103 -105 252 -105h187q147 0 252 105q104 104 104 252v1025h-333v-980q0 -29 -20 -49q-19 -19 -48 -19h-97
q-28 0 -49 19q-19 21 -19 49l-1 371q0 148 -104 252q-102 104 -252 104h-187q-148 0 -252 -104t-104 -252v-372q0 -26 -20 -48q-19 -19 -48 -19h-98q-29 0 -48 19q-20 22 -20 49v980h-332zM1040 1607v208h-209v-208h209zM1440 1607v208h-209v-208h209zM1080 1567h-289v288
h289v-288zM1480 1567h-289v288h289v-288z" />
    <glyph glyph-name="endash" unicode="&#x2013;" horiz-adv-x="1296" 
d="M84 958h1128v-412h-1128v412zM116 918v-332h1064v332h-1064z" />
    <glyph glyph-name="emdash" unicode="&#x2014;" horiz-adv-x="2392" 
d="M68 958h2256v-412h-2256v412zM132 918v-332h2128v332h-2128z" />
    <glyph glyph-name="quoteleft" unicode="&#x2018;" horiz-adv-x="572" 
d="M80 771v691l412 -309v-382h-412zM120 811h332v322l-332 249v-571z" />
    <glyph glyph-name="quoteright" unicode="&#x2019;" horiz-adv-x="572" 
d="M492 1442v-691l-412 308v383h412zM452 1402h-332v-323l332 -248v571z" />
    <glyph glyph-name="quotesinglbase" unicode="&#x201a;" horiz-adv-x="572" 
d="M492 342v-691l-412 308v383h412zM452 302h-332v-323l332 -248v571z" />
    <glyph glyph-name="quotedblleft" unicode="&#x201c;" horiz-adv-x="1000" 
d="M80 771v691l412 -309v-382h-412zM508 771l-1 691l413 -309v-382h-412zM120 811h332v322l-332 249v-571zM548 811h332v322l-333 249z" />
    <glyph glyph-name="quotedblright" unicode="&#x201d;" horiz-adv-x="1000" 
d="M920 1442v-691l-413 308v383h413zM492 1442v-691l-412 308v383h412zM880 1402h-333v-323l333 -248v571zM452 1402h-332v-323l332 -248v571z" />
    <glyph glyph-name="quotedblbase" unicode="&#x201e;" horiz-adv-x="1000" 
d="M920 342v-691l-413 308v383h413zM492 342v-691l-412 308v383h412zM880 302h-333v-323l333 -248v571zM452 302h-332v-323l332 -248v571z" />
    <glyph glyph-name="ellipsis" unicode="&#x2026;" horiz-adv-x="1938" 
d="M80 392h412v-412h-412v412zM120 352v-332h332v332h-332zM763 392h412v-412h-412v412zM803 352v-332h332v332h-332zM1446 392h412v-412h-412v412zM1486 352v-332h332v332h-332z" />
    <glyph glyph-name="perthousand" unicode="&#x2030;" horiz-adv-x="3469" 
d="M652 936q28 0 28 28v37q0 28 -28 28h-131q-28 0 -28 -28v-37q0 -28 28 -28h131zM2948 393q28 0 28 28v73q0 28 -28 28h-131q-28 0 -28 -28v-73q0 -28 28 -28h131zM1948 393q28 0 28 28v73q0 28 -28 28h-131q-28 0 -28 -28v-73q0 -28 28 -28h131zM652 896h-131
q-29 0 -48.5 20.5t-19.5 47.5v37q0 27 19.5 47.5t48.5 20.5h131q29 0 48.5 -20.5t19.5 -47.5v-37q0 -27 -19.5 -47.5t-48.5 -20.5zM2948 353h-131q-28 0 -48 20t-20 48v73q0 28 20 48t48 20h131q30 0 49 -20t19 -48v-73q0 -28 -20 -48t-48 -20zM1948 353h-131q-28 0 -48 20
t-20 48v73q0 28 20 48t48 20h131q30 0 49 -20t19 -48v-73q0 -28 -20 -48t-48 -20zM697 563q149 0 252 105l59 66q45 128 45 185v127q0 153 -105.5 254.5t-250.5 101.5h-221q-149 0 -252.5 -103.5t-103.5 -252.5v-127q0 -149 104 -252.5t252 -103.5h221zM2993 20
q149 0 252.5 103.5t103.5 252.5v163q0 150 -103.5 253t-252.5 103h-221q-110 0 -197 -58t-137 -175q-22 -56 -22 -123v-163q0 -153 105.5 -254.5t250.5 -101.5h221zM1993 20q149 0 252.5 103.5t103.5 252.5v163q0 150 -103.5 253t-252.5 103h-221q-148 0 -252 -104l-59 -69
q-45 -131 -45 -183v-163q0 -153 105.5 -254.5t250.5 -101.5h221zM998 20l865 1382h-392l-866 -1382h393zM2993 -20h-221q-143 0 -253.5 92t-136.5 232q-26 -146 -138.5 -235t-250.5 -89h-221q-170 0 -283 119t-113 277v182l-355 -578h-488l388 616l-70 -41q-75 -32 -154 -32
h-221q-164 0 -280 116.5t-116 279.5v127q0 162 115 279t281 117h221q164 0 280 -116.5t116 -279.5l-13 -205l369 601h488l-375 -576q88 69 210 69h221q143 0 253.5 -91.5t136.5 -231.5q27 146 139 234.5t250 88.5h221q162 0 279 -115.5t117 -280.5v-163q0 -162 -115.5 -279
t-280.5 -117z" />
    <glyph glyph-name="guilsinglleft" unicode="&#x2039;" horiz-adv-x="1192" 
d="M1076 556l36 -16v-460l-844 364q-85 36 -137 114q-51 78 -51 171t51 171q53 79 137 115l844 363v-460l-439 -189zM1060 519l-488 210l500 215v373l-788 -339q-74 -32 -119 -100t-45 -149t45 -149q44 -67 119 -100l788 -339v373z" />
    <glyph glyph-name="guilsinglright" unicode="&#x203a;" horiz-adv-x="1192" 
d="M116 556l403 173l-439 189v460l844 -363q86 -37 137 -115t51 -171t-51 -171q-50 -77 -137 -114l-844 -364v460zM132 519l-12 -5v-373l788 339q73 32 120 100q44 67 44 149t-44 149q-47 68 -120 100l-788 339v-373l500 -215z" />
    <glyph glyph-name="minus" unicode="&#x2212;" horiz-adv-x="1204" 
d="M80 936h1044v-413h-1044v413zM120 896v-333h964v333h-964z" />
    <glyph glyph-name="almostequalto" unicode="&#x2248;" horiz-adv-x="1234" 
d="M821 1001v115h333v-147q0 -99 -88 -169q-88 -71 -212 -71q-121 1 -127 1q-92 5 -167 50q-72 46 -103 121q-1 4 -4 4h-33q-5 0 -6 -0.5t-1 -5.5v-114h-333v147q0 98 88 169q86 70 211 70q121 0 127 -1q87 0 168 -49q36 -22 58.5 -51t32.5 -49.5t15 -23.5q2 -1 4 -1h30
q5 0 6 0.5t1 4.5zM861 1002q0 -14 -15 -26t-32 -12h-30q-18 0 -28 8q-11 6 -24 28.5t-33.5 49.5t-49.5 45q-70 44 -144 44h-126q-108 0 -183 -61q-76 -60 -76 -146v-115h253v82q0 14 15 26t32 12h30q14 0 27.5 -8.5t17.5 -18.5q28 -67 90 -105q63 -39 144 -43h125
q108 0 184 60q76 62 76 147v115h-253v-82zM821 569v115h333v-147q0 -99 -88 -169q-88 -71 -212 -71q-121 1 -127 1q-92 5 -167 50q-72 46 -103 121q-1 4 -4 4h-33q-5 0 -6 -0.5t-1 -5.5v-114h-333v147q0 98 88 169q86 70 211 70q121 0 127 -1q87 0 168 -49q36 -22 58.5 -51
t32.5 -49.5t15 -23.5q2 -1 4 -1h30q5 0 6 0.5t1 4.5zM861 570q0 -14 -15 -26t-32 -12h-30q-18 0 -28 8q-11 6 -24 28.5t-33.5 49.5t-49.5 45q-70 44 -144 44h-126q-108 0 -183 -61q-76 -60 -76 -146v-115h253v82q0 14 15 26t32 12h30q14 0 27.5 -8.5t17.5 -18.5
q28 -67 90 -105q63 -39 144 -43h125q108 0 184 60q76 62 76 147v115h-253v-82z" />
    <glyph glyph-name="notequalto" unicode="&#x2260;" horiz-adv-x="1204" 
d="M456 171l81 181h547v333h-399l47 106h352v333h-204l64 144h-220l-64 -144h-540v-333h392l-47 -106h-345v-333h196l-80 -181h220zM482 131h-308l81 181h-175v413h359l11 26h-370v413h554l64 144h308l-64 -144h182v-413h-366l-12 -26h378v-413h-561z" />
    <glyph glyph-name="lessthanorequalto" unicode="&#x2264;" horiz-adv-x="1204" 
d="M1082 745l36 -13v-368l-844 291q-84 29 -137 91q-51 64 -51 137q0 75 51 137q54 64 137 92l844 291v-369l-439 -151zM1066 715l-488 168l500 172v299l-788 -271q-75 -26 -119 -80q-45 -56 -45 -120q0 -63 45 -119q44 -53 119 -80l788 -271v298zM80 342h1044v-371h-1044
v371zM120 306v-299h964v299h-964z" />
    <glyph glyph-name="greaterthanorequalto" unicode="&#x2265;" horiz-adv-x="1204" 
d="M122 745l403 138l-439 151v369l844 -291q85 -29 137 -92q51 -62 51 -137q0 -73 -51 -137q-51 -62 -137 -91l-844 -291v368zM138 715l-12 -4v-298l788 271q74 26 120 80q44 55 44 119q0 65 -44 120q-46 54 -120 80l-788 271v-299l500 -172zM80 342h1044v-371h-1044v371z
M120 306v-299h964v299h-964z" />
    </font>
</defs>
</svg>
