<?xml version="1.0" standalone="no"?>
<!DOCTYPE svg PUBLIC "-//W3C//DTD SVG 1.1//EN" "http://www.w3.org/Graphics/SVG/1.1/DTD/svg11.dtd" >
<svg xmlns="http://www.w3.org/2000/svg" xmlns:xlink="http://www.w3.org/1999/xlink" version="1.1">
<metadata>
Created by FontForge 20170731 at Wed Aug 17 21:03:45 2022
 By Aleksey,,,
EMOTIQ (c) Enxyclo Studio. 2022. All Rights Reserved
</metadata>
<defs>
<font id="EMOTIQSlant" horiz-adv-x="1493" >
  <font-face 
    font-family="EMOTIQ Slant"
    font-weight="400"
    font-stretch="normal"
    units-per-em="2048"
    panose-1="2 0 5 0 2 0 0 0 0 0"
    ascent="1638"
    descent="-410"
    x-height="1421"
    cap-height="1421"
    bbox="-191 -330 3202 1935"
    underline-thickness="51"
    underline-position="-152"
    unicode-range="U+0020-2265"
  />
<missing-glyph horiz-adv-x="1024" 
d="M924 0h-824v1434h824v-1434zM874 50v1334h-724v-1334h724zM478 454h-32q-35 99 -35 148q0 76 82 218q81 143 81 217q0 57 -33 90t-91 33q-34 0 -61 -13.5t-64 -43.5v45q81 73 170 73q91 0 147.5 -47t56.5 -128q0 -51 -24 -101t-86 -127q-54 -69 -76 -98.5t-40.5 -66.5
t-18.5 -66q0 -39 24 -133zM466 213q-11 0 -20 10l-61 71q-7 8 -7 18q0 9 11 22l57 58q10 10 20 10q9 0 22 -11l56 -60q9 -10 9 -20q0 -12 -10 -22l-56 -62q-14 -14 -21 -14z" />
    <glyph glyph-name=".notdef" horiz-adv-x="1024" 
d="M924 0h-824v1434h824v-1434zM874 50v1334h-724v-1334h724zM478 454h-32q-35 99 -35 148q0 76 82 218q81 143 81 217q0 57 -33 90t-91 33q-34 0 -61 -13.5t-64 -43.5v45q81 73 170 73q91 0 147.5 -47t56.5 -128q0 -51 -24 -101t-86 -127q-54 -69 -76 -98.5t-40.5 -66.5
t-18.5 -66q0 -39 24 -133zM466 213q-11 0 -20 10l-61 71q-7 8 -7 18q0 9 11 22l57 58q10 10 20 10q9 0 22 -11l56 -60q9 -10 9 -20q0 -12 -10 -22l-56 -62q-14 -14 -21 -14z" />
    <glyph glyph-name=".null" horiz-adv-x="0" 
 />
    <glyph glyph-name="nonmarkingreturn" horiz-adv-x="682" 
 />
    <glyph glyph-name="space" unicode=" " horiz-adv-x="600" 
 />
    <glyph glyph-name="space" unicode="&#xa0;" horiz-adv-x="600" 
 />
    <glyph glyph-name="exclam" unicode="!" horiz-adv-x="493" 
d="M321 423h-292l248 998h293zM-4 292h293l-73 -292h-293z" />
    <glyph glyph-name="quotedbl" unicode="&#x22;" horiz-adv-x="853" 
d="M930 1421l-128 -512l-238 219l73 293h293zM570 1421l-128 -512l-238 219l73 293h293z" />
    <glyph glyph-name="numbersign" unicode="#" horiz-adv-x="1530" 
d="M831 610l50 201h-183l-50 -201h183zM1455 811h-281l-50 -201h281l-73 -294h-281l-79 -317h-293l79 317h-183l-79 -317h-293l79 317h-280l73 294h281l50 201h-281l73 293h281l79 317h292l-79 -317h184l79 317h292l-79 -317h281z" />
    <glyph glyph-name="dollar" unicode="$" 
d="M1042 475q3 10 3 22q0 29 -19 48t-50 19h-109l-38 -150h-293l38 150h-175q-117 0 -189.5 72t-72.5 183q0 41 10 81l47 185q34 139 157 237.5t262 98.5h175l45 183h293l-46 -183h490l-73 -293h-913q-36 0 -68 -25.5t-41 -62.5l-24 -95q-3 -11 -3 -21q0 -29 19.5 -48
t49.5 -19h130l37 150h293l-37 -150h154q117 0 189.5 -72.5t72.5 -183.5q0 -41 -10 -81l-46 -185q-35 -139 -158 -237t-262 -98h-154l-46 -184h-293l46 184h-510l73 292h912q37 0 69 26t41 62z" />
    <glyph glyph-name="percent" unicode="%" horiz-adv-x="2389" 
d="M759 945l24 95q3 10 3 21q0 29 -19 48t-50 19h-132q-37 0 -69 -25.5t-41 -62.5l-24 -95q-3 -11 -3 -21q0 -29 19 -48t50 -19h132q37 0 69 25.5t41 62.5zM1914 380l24 95q3 11 3 21q0 29 -19 48t-50 19h-132q-37 0 -69 -25.5t-41 -62.5l-24 -95q-3 -10 -3 -21
q0 -29 19.5 -48t50.5 -19h131q37 0 69 25.5t41 62.5zM422 -1l1198 1422h347l-1198 -1422h-347zM1776 -1h-221q-117 0 -190 71.5t-73 182.5q0 38 11 82l46 185q34 139 157 237.5t262 98.5h222q117 0 189.5 -72t72.5 -183q0 -41 -10 -81l-46 -185q-35 -139 -158 -237.5
t-262 -98.5zM621 564h-222q-117 0 -189.5 72t-72.5 183q0 41 10 81l47 185q35 139 157.5 237.5t261.5 98.5h222q117 0 189.5 -72t72.5 -183q0 -41 -10 -81l-47 -185q-35 -139 -157.5 -237.5t-261.5 -98.5z" />
    <glyph glyph-name="ampersand" unicode="&#x26;" horiz-adv-x="1573" 
d="M989 384l45 180h-137l73 293h540l-73 -293h-111l-59 -238q-34 -135 -154.5 -231t-255.5 -96h-598q-117 0 -190 71.5t-73 182.5q0 38 11 82l47 192q25 99 102 183q-20 46 -20 104q0 40 10 79l49 199q34 136 155 232.5t257 96.5h604q114 0 185.5 -71t71.5 -179
q0 -40 -10 -79l-29 -119h-293l16 64q3 10 3 22q0 24 -14 43q-21 27 -59 27l-492 -1q-39 0 -72.5 -27t-43.5 -65l-21 -87q-3 -12 -3 -23q0 -30 20 -49.5t53 -19.5h154l-73 -293h-154q-39 0 -73 -27t-44 -66l-22 -91q-3 -11 -3 -22q0 -29 19 -47.5t50 -18.5h497q39 0 72 27
q33 26 43 65z" />
    <glyph glyph-name="quotesingle" unicode="'" horiz-adv-x="493" 
d="M570 1421l-128 -512l-238 219l73 293h293z" />
    <glyph glyph-name="parenleft" unicode="(" horiz-adv-x="794" 
d="M435 -330h-265q-114 0 -185.5 71t-71.5 179q0 40 10 79l354 1422q35 137 155.5 233t256.5 96h265l-73 -293h-210q-38 0 -71.5 -27t-43.5 -65l-327 -1310q-3 -10 -3 -21q0 -31 20 -51t53 -20h209z" />
    <glyph glyph-name="parenright" unicode=")" horiz-adv-x="794" 
d="M-159 -330l73 293h209q38 0 72 27t43 65l327 1310q3 12 3 23q0 30 -20 49.5t-53 19.5h-209l73 293h265q114 0 185.5 -70t71.5 -178q0 -41 -10 -81l-354 -1422q-34 -136 -154.5 -232.5t-256.5 -96.5h-265z" />
    <glyph glyph-name="asterisk" unicode="*" horiz-adv-x="765" 
d="M786 1194l-28 -112h-147l78 -104l-99 -79l-78 104l-37 -147h-112l37 147l-131 -104l-59 79l130 104h-147l28 112h147l-78 105l99 79l78 -105l37 148h112l-37 -148l131 105l59 -79l-130 -105h147z" />
    <glyph glyph-name="plus" unicode="+" horiz-adv-x="1124" 
d="M1061 856l-73 -292h-316l-79 -316h-292l78 316h-315l73 292h315l79 316h293l-79 -316h316z" />
    <glyph glyph-name="comma" unicode="," horiz-adv-x="493" 
d="M-4 292h293l-73 -292l-348 -219z" />
    <glyph glyph-name="hyphenminus" unicode="-" horiz-adv-x="1124" 
d="M137 856h924l-73 -292h-924z" />
    <glyph glyph-name="hyphenminus" unicode="&#xad;" horiz-adv-x="1124" 
d="M137 856h924l-73 -292h-924z" />
    <glyph glyph-name="period" unicode="." horiz-adv-x="493" 
d="M-4 292h293l-73 -292h-293z" />
    <glyph glyph-name="slash" unicode="/" horiz-adv-x="1391" 
d="M-77 -1l1198 1422h347l-1198 -1422h-347z" />
    <glyph glyph-name="zero" unicode="0" 
d="M850 564h-280l73 293h280zM1235 1421q117 0 189.5 -72t72.5 -183q0 -41 -10 -81l-187 -750q-35 -139 -158 -237t-262 -98h-621q-117 0 -190 71.5t-73 181.5q0 38 11 82l187 750q34 139 157 237.5t262 98.5h622zM1183 1040q3 10 3 21q0 29 -19 48t-50 19h-532
q-37 0 -69 -25.5t-41 -62.5l-164 -660q-3 -12 -3 -22q0 -29 19 -47.5t50 -18.5h518q44 0 78 23t45 65z" />
    <glyph glyph-name="one" unicode="1" horiz-adv-x="665" 
d="M204 1128l73 293h465l-354 -1421h-293l281 1128h-172z" />
    <glyph glyph-name="two" unicode="2" 
d="M333 471l-45 -179h1000l-73 -292h-1292l131 527q35 137 155.5 233.5t256.5 96.5h578q39 0 72.5 27t43.5 65l21 87q3 12 3 23q0 30 -20 49.5t-52 19.5h-908l73 293h964q114 0 185.5 -71t71.5 -179q0 -40 -10 -79l-50 -199q-34 -136 -154 -232.5t-257 -96.5h-579
q-38 0 -71.5 -27.5t-43.5 -65.5z" />
    <glyph glyph-name="three" unicode="3" 
d="M1159 945l24 95q3 10 3 21q0 29 -19 48t-50 19h-913l73 293h958q117 0 189.5 -72t72.5 -183q0 -41 -10 -81l-46 -185q-27 -105 -107 -190q22 -52 22 -109q0 -41 -10 -81l-46 -185q-35 -139 -158 -237t-262 -98h-957l73 292h912q37 0 69 26t41 62l24 95q3 10 3 22
q0 29 -19 47.5t-50 18.5q-152 0 -456.5 0.5t-455.5 0.5l73 293h912q37 0 69 26t41 62z" />
    <glyph glyph-name="four" unicode="4" 
d="M1278 1421h293l-355 -1421h-293l141 564h-671q-114 0 -185.5 70t-71.5 178q0 41 10 81l131 528h293l-118 -472q-3 -11 -3 -21q0 -31 20 -51t53 -20h615z" />
    <glyph glyph-name="five" unicode="5" 
d="M429 857h671q114 0 185.5 -71t71.5 -179q0 -40 -10 -80l-49 -199q-35 -137 -155.5 -233.5t-256.5 -96.5l-963 2l73 292h908q39 0 72 26t42 65l22 88q3 12 3 23q0 30 -20 49.5t-52 19.5l-907 1l213 857h1293l-73 -293h-1000z" />
    <glyph glyph-name="six" unicode="6" 
d="M904 292q38 0 72 27.5t43 65.5l22 87q3 12 3 23q0 30 -20 50t-52 20h-615l-45 -180q-3 -12 -3 -23q0 -30 20 -50t52 -20h523zM1497 1128q-151 0 -453.5 0.5t-453.5 0.5q-39 0 -72.5 -27t-43.5 -65l-44 -179h671q114 0 185.5 -71t71.5 -179q0 -40 -10 -80l-50 -199
q-34 -136 -154 -232.5t-257 -96.5h-635q-114 0 -185.5 70.5t-71.5 178.5q0 40 10 80l190 763q35 137 155.5 233.5t256.5 96.5q161 0 482.5 -0.5t480.5 -0.5z" />
    <glyph glyph-name="seven" unicode="7" 
d="M685 471l-118 -471h-292l131 527q35 137 155.5 233t256.5 96l227 1q38 0 71.5 27t43.5 65l22 87q3 10 3 21q0 31 -20 51t-53 20h-908l73 293h964q114 0 185.5 -70.5t71.5 -178.5q0 -40 -10 -80l-49 -199q-35 -137 -155.5 -233t-256.5 -96q-38 0 -113.5 -0.5t-113.5 -0.5
t-72 -26q-34 -29 -43 -66z" />
    <glyph glyph-name="eight" unicode="8" 
d="M451 945q-3 -11 -3 -21q0 -29 19.5 -48t49.5 -19h532q37 0 69 26t41 62l24 95q3 10 3 21q0 29 -19 48t-50 19h-532q-37 0 -69 -25.5t-41 -62.5zM444 563q-37 0 -69 -25.5t-41 -62.5l-23 -95q-3 -12 -3 -22q0 -29 19 -47.5t50 -18.5h531q37 0 69 26t41 62l24 95q3 10 3 22
q0 29 -19 47.5t-50 18.5h-532zM259 0q-117 0 -190 71.5t-73 181.5q0 38 11 82l46 185q25 104 106 190q-22 52 -22 109q0 41 10 81l47 185q34 139 157 237.5t262 98.5h622q117 0 189.5 -72t72.5 -183q0 -41 -10 -81l-46 -185q-27 -105 -107 -190q22 -52 22 -109
q0 -41 -10 -81l-46 -185q-35 -139 -158 -237t-262 -98h-621z" />
    <glyph glyph-name="nine" unicode="9" 
d="M589 1129q0 4 -7 4q-23 0 -60 -26t-48 -70l-22 -88q-3 -12 -3 -22q0 -30 20.5 -50t51.5 -20h616l45 180q3 12 3 23q0 30 -20 49.5t-52 19.5h-524zM-4 293h908q38 0 72 27t43 65l45 179h-671q-114 0 -185.5 70.5t-71.5 178.5q0 40 10 80l49 200q35 136 155.5 232.5
t256.5 96.5h634q114 0 185.5 -70.5t71.5 -178.5q0 -40 -10 -80l-190 -764q-34 -136 -154.5 -232.5t-256.5 -96.5q-161 0 -482.5 0.5t-481.5 0.5z" />
    <glyph glyph-name="colon" unicode=":" horiz-adv-x="493" 
d="M190 1072h293l-73 -292h-293zM83 640h292l-73 -292h-292z" />
    <glyph glyph-name="semicolon" unicode=";" horiz-adv-x="493" 
d="M-4 292h293l-73 -292l-348 -219zM190 1072h293l-73 -292h-293z" />
    <glyph glyph-name="less" unicode="&#x3c;" horiz-adv-x="1112" 
d="M955 481l-82 -329l-679 327q-49 24 -75.5 69t-26.5 101q0 27 8 61q19 75 76 138t133 93l842 327l-82 -330l-588 -228z" />
    <glyph glyph-name="equal" unicode="=" horiz-adv-x="1124" 
d="M933 344h-924l73 293h924zM1042 783h-924l73 293h924z" />
    <glyph glyph-name="greater" unicode="&#x3e;" horiz-adv-x="1112" 
d="M43 481l588 229l-474 228l82 330l679 -327q49 -24 75.5 -69t26.5 -101q0 -27 -8 -61q-19 -75 -76 -138t-133 -93l-842 -327z" />
    <glyph glyph-name="question" unicode="?" 
d="M348 292h292l-73 -292h-292zM685 471l-12 -48h-293l26 104q35 137 155.5 233t256.5 96l227 1q39 0 72 27q34 27 43 65l22 87q3 10 3 21q0 31 -20 51t-53 20h-908l73 293h964q114 0 185.5 -70.5t71.5 -178.5q0 -40 -10 -80l-49 -199q-35 -137 -155.5 -233t-256.5 -96
q-38 0 -113.5 -0.5t-113.5 -0.5t-72 -26q-34 -29 -43 -66z" />
    <glyph glyph-name="at" unicode="@" horiz-adv-x="1613" 
d="M657 540h277l84 340h-276q-25 0 -49 -19q-23 -17 -30 -44l-53 -214q-2 -10 -2 -15q0 -17 9 -29q14 -19 40 -19zM754 1080h514l-118 -477q-2 -6 -2 -16q0 -17 9 -28q14 -19 40 -19h10q26 0 50 19q23 18 29 44l138 555q2 10 2 15q0 21 -13.5 34t-35.5 13h-887
q-26 0 -49 -18t-29 -44l-224 -896q-2 -10 -2 -14q0 -21 14 -35t36 -14h1149l-49 -200h-1188q-78 0 -127 48.5t-49 122.5q0 27 7 54l242 971q23 94 105.5 160t175.5 66h963q78 0 127 -48.5t49 -122.5q0 -28 -7 -55l-157 -630q-23 -93 -105.5 -159t-175.5 -66h-112
q-55 0 -95 28t-54 76q-38 -48 -92 -76t-109 -28h-165q-78 0 -126.5 48t-48.5 122q0 28 7 55l72 290q23 93 105 159t176 66z" />
    <glyph glyph-name="A" unicode="A" 
d="M1117 1128h-532q-37 0 -69 -25.5t-41 -62.5l-114 -455h708l114 455q3 10 3 22q0 29 -19 47.5t-50 18.5zM288 292l-72 -292h-293l271 1085q34 139 157 237.5t262 98.5h622q117 0 189.5 -72t72.5 -183q0 -41 -10 -81l-271 -1085h-293l73 292h-708z" />
    <glyph glyph-name="B" unicode="B" 
d="M1159 945l24 95q3 10 3 21q0 29 -19 48t-50 19h-620l-68 -271h620q37 0 69 26t41 62zM-77 0l354 1421h958q117 0 189.5 -72t72.5 -183q0 -41 -10 -81l-46 -185q-27 -105 -107 -190q22 -52 22 -109q0 -41 -10 -81l-46 -185q-35 -139 -158 -237t-262 -98h-957zM356 564
l-67 -272h619q37 0 69 26t41 62l24 95q3 10 3 22q0 29 -19 47.5t-50 18.5q-103 0 -309.5 0.5t-310.5 0.5z" />
    <glyph glyph-name="C" unicode="C" 
d="M475 1040l-164 -660q-3 -12 -3 -22q0 -24 13 -40q19 -26 56 -26h912l-73 -292h-957q-117 0 -190 71.5t-73 181.5q0 38 11 82l187 750q34 139 157 237.5t262 98.5h957l-73 -293h-912q-37 0 -69 -25.5t-41 -62.5z" />
    <glyph glyph-name="D" unicode="D" 
d="M1019 385l163 651q3 10 3 22q0 30 -20 50t-52 20h-616l-208 -836h615q38 0 72 27.5t43 65.5zM887 0h-964l354 1421h964q114 0 185.5 -70.5t71.5 -178.5q0 -40 -10 -80l-190 -763q-34 -136 -154 -232.5t-257 -96.5z" />
    <glyph glyph-name="E" unicode="E" 
d="M451 945q-3 -11 -3 -21q0 -29 19.5 -48t49.5 -19h913l-73 -292q-151 0 -456 -1t-457 -1q-37 0 -69 -25.5t-41 -62.5l-23 -95q-3 -12 -3 -22q0 -29 19 -47.5t50 -18.5h912l-73 -292h-957q-117 0 -190 71.5t-73 181.5q0 38 11 82l46 185q25 104 106 190q-22 52 -22 109
q0 41 10 81l47 185q34 139 157 237.5t262 98.5h957l-73 -293h-912q-37 0 -69 -25.5t-41 -62.5z" />
    <glyph glyph-name="F" unicode="F" 
d="M451 945q-3 -11 -3 -21q0 -29 19.5 -48t49.5 -19h913l-73 -292l-913 -2q-37 0 -69 -25.5t-41 -62.5l-118 -475h-293l130 520q25 104 106 190q-22 52 -22 109q0 41 10 81l47 185q34 139 157 237.5t262 98.5h957l-73 -293h-912q-37 0 -69 -25.5t-41 -62.5z" />
    <glyph glyph-name="G" unicode="G" 
d="M475 1040l-164 -660q-3 -12 -3 -22q0 -24 13 -40q19 -26 56 -26h619l46 184q3 10 3 21q0 29 -19.5 48t-50.5 19h-418l73 293h463q117 0 190 -71.5t73 -182.5q0 -38 -11 -82l-129 -521h-957q-117 0 -190 71.5t-73 181.5q0 38 11 82l187 750q34 139 157 237.5t262 98.5h939
l-73 -293h-894q-37 0 -69 -25.5t-41 -62.5z" />
    <glyph glyph-name="H" unicode="H" 
d="M1278 1421h292l-354 -1421h-293l141 564h-708l-140 -564h-293l354 1421h293l-141 -564h708z" />
    <glyph glyph-name="I" unicode="I" horiz-adv-x="493" 
d="M-77 0l354 1421h293l-354 -1421h-293z" />
    <glyph glyph-name="J" unicode="J" 
d="M1570 1421l-270 -1086q-35 -139 -158 -237t-262 -98h-957l73 292h912q37 0 69 26t41 62l260 1041h292z" />
    <glyph glyph-name="K" unicode="K" 
d="M-77 0l354 1421h293l-141 -564h630q34 4 63 29t37 58l119 477h292l-124 -500q-31 -125 -111 -211q21 -49 21 -104q0 -48 -15 -107l-125 -499h-293l119 476q3 12 3 22q0 26 -16 44.5t-43 21.5h-630l-140 -564h-293z" />
    <glyph glyph-name="L" unicode="L" 
d="M277 1421h293l-259 -1041q-3 -12 -3 -22q0 -29 19 -47.5t50 -18.5h912l-73 -292h-957q-117 0 -190 71.5t-73 181.5q0 38 11 82z" />
    <glyph glyph-name="M" unicode="M" horiz-adv-x="2192" 
d="M-77 0l270 1085q35 140 158 238t262 98h188q117 0 189.5 -71.5t72.5 -181.5q0 -37 -11 -83l-102 -412q-3 -11 -3 -21q0 -29 19 -48t50 -19h98q37 0 69 25.5t41 62.5l102 412q35 140 158 238t262 98h187q117 0 190 -71.5t73 -181.5q0 -37 -11 -83l-270 -1085h-293
l259 1040q3 10 3 22q0 29 -19 47.5t-50 18.5h-97q-37 0 -69 -25.5t-41 -62.5l-102 -412q-35 -139 -158 -237.5t-262 -98.5h-188q-117 0 -189.5 71.5t-72.5 181.5q0 37 11 83l102 412q3 10 3 21q0 29 -19 48t-50 19h-98q-37 0 -69 -25.5t-41 -62.5l-259 -1040h-293z" />
    <glyph glyph-name="N" unicode="N" horiz-adv-x="1626" 
d="M-77 0l270 1085q35 139 158 237.5t262 98.5h188q117 0 189.5 -71.5t72.5 -181.5q0 -37 -11 -83l-175 -705q-3 -10 -3 -21q0 -29 19.5 -48t49.5 -19h98q37 0 69 26t41 62l259 1041h293l-270 -1086q-35 -139 -158 -237t-262 -98h-188q-117 0 -189.5 71.5t-72.5 181.5
q0 38 11 82l175 705q3 10 3 22q0 29 -19 47.5t-50 18.5h-98q-37 0 -69 -25.5t-41 -62.5l-259 -1040h-293z" />
    <glyph glyph-name="O" unicode="O" 
d="M1235 1421q117 0 189.5 -72t72.5 -183q0 -41 -10 -81l-187 -750q-35 -139 -158 -237t-262 -98h-621q-117 0 -190 71.5t-73 181.5q0 38 11 82l187 750q34 139 157 237.5t262 98.5h622zM1183 1040q3 10 3 21q0 29 -19 48t-50 19h-532q-37 0 -69 -25.5t-41 -62.5l-164 -660
q-3 -12 -3 -22q0 -24 13 -40q19 -26 56 -26h531q35 0 69 26q31 25 41 62z" />
    <glyph glyph-name="P" unicode="P" horiz-adv-x="1494" 
d="M1093 677l89 359q3 12 3 23q0 30 -20 49.5t-52 19.5h-616l-135 -543h616q38 0 71.5 27t43.5 65zM-77 0l354 1421h965q114 0 185.5 -71t71.5 -179q0 -40 -10 -79l-118 -471q-34 -136 -154.5 -232.5t-256.5 -96.5h-671l-73 -292h-293z" />
    <glyph glyph-name="Q" unicode="Q" 
d="M1183 1040q3 10 3 21q0 29 -19 48t-50 19h-532q-37 0 -69 -25.5t-41 -62.5l-164 -660q-3 -12 -3 -22q0 -29 19 -47.5t50 -18.5h531q37 0 69 26t41 62zM1235 1421q117 0 189.5 -72t72.5 -183q0 -41 -10 -81l-187 -750q-28 -108 -112 -195q13 -35 52 -41l-73 -294h-32
q-100 0 -169 53.5t-87 141.5h-620q-117 0 -190 71.5t-73 181.5q0 38 11 82l187 750q34 139 157 237.5t262 98.5h622z" />
    <glyph glyph-name="R" unicode="R" horiz-adv-x="1494" 
d="M1093 677l89 359q3 12 3 23q0 30 -20 49.5t-52 19.5h-616l-135 -543h621q37 2 68.5 28.5t41.5 63.5zM924 0l51 204q2 7 2 21q0 28 -17.5 46.5t-45.5 20.5h-625l-73 -292h-293l354 1421h965q114 0 185.5 -71t71.5 -179q0 -40 -10 -79l-118 -471q-26 -103 -103 -185
q21 -48 21 -106q0 -41 -10 -81l-63 -249h-292z" />
    <glyph glyph-name="S" unicode="S" 
d="M1042 475q3 10 3 22q0 29 -19 48t-50 19h-577q-117 0 -189.5 72t-72.5 183q0 41 10 81l47 185q34 139 157 237.5t262 98.5h957l-73 -293h-912q-37 0 -69 -25.5t-41 -62.5l-24 -95q-3 -11 -3 -21q0 -29 19.5 -48t49.5 -19h577q117 0 189.5 -72.5t72.5 -183.5
q0 -41 -10 -81l-46 -185q-35 -139 -158 -237t-262 -98h-957l73 292h912q37 0 69 26t41 62z" />
    <glyph glyph-name="T" unicode="T" horiz-adv-x="1494" 
d="M423 0l259 1040q3 12 3 22q0 29 -19 47.5t-50 18.5h-412l73 293h1294l-73 -293h-413q-36 0 -68 -25.5t-42 -62.5l-259 -1040h-293z" />
    <glyph glyph-name="U" unicode="U" 
d="M909 292q36 0 68 26t41 62l260 1041h292l-270 -1086q-35 -139 -158 -237t-262 -98h-621q-117 0 -190 71.5t-73 181.5q0 38 11 82l270 1086h293l-259 -1041q-3 -12 -3 -22q0 -29 19 -47.5t50 -18.5h532z" />
    <glyph glyph-name="V" unicode="V" horiz-adv-x="1444" 
d="M1167 0h-908q-117 0 -190 71.5t-73 181.5q0 38 11 82l270 1086h293l-259 -1041q-3 -12 -3 -22q0 -29 19 -47.5t50 -18.5h571l281 1129h293z" />
    <glyph glyph-name="W" unicode="W" horiz-adv-x="2192" 
d="M277 1421h292l-259 -1041q-3 -10 -3 -21q0 -29 19.5 -48t49.5 -19h98q37 0 69 26t41 62l103 413q35 139 157.5 237.5t261.5 98.5h187q117 0 190 -72t73 -183q0 -41 -10 -81l-103 -413q-3 -10 -3 -21q0 -29 19 -48t50 -19h98q37 0 69 26t41 62l259 1041h293l-270 -1086
q-35 -139 -158 -237t-262 -98h-188q-117 0 -190 71.5t-73 181.5q0 38 11 82l102 413q3 12 3 22q0 29 -19 47.5t-50 18.5h-97q-37 0 -68.5 -25.5t-41.5 -62.5l-102 -413q-35 -139 -158 -237t-262 -98h-188q-117 0 -189.5 71.5t-72.5 181.5q0 38 11 82z" />
    <glyph glyph-name="X" unicode="X" 
d="M1049 857q37 0 69 25.5t41 62.5l119 476h292l-130 -521q-25 -104 -105 -190q21 -48 21 -108q0 -41 -10 -81l-130 -521h-293l119 476q3 10 3 21q0 29 -19 48t-50 19h-532q-36 0 -68.5 -25.5t-41.5 -62.5l-118 -476h-293l130 521q25 103 106 189q-22 52 -22 109q0 41 10 81
l130 521h293l-119 -476q-3 -11 -3 -21q0 -29 19 -48t50 -19h532z" />
    <glyph glyph-name="Y" unicode="Y" 
d="M1049 857q37 0 69 25.5t41 62.5l119 476h292l-130 -521q-34 -139 -157 -237.5t-262 -98.5h-165l-140 -564h-293l141 564h-165q-117 0 -189.5 72t-72.5 183q0 41 10 81l130 521h293l-119 -476q-3 -11 -3 -21q0 -29 19 -48t50 -19h532z" />
    <glyph glyph-name="Z" unicode="Z" 
d="M334 475l-23 -95q-3 -12 -3 -22q0 -29 19 -47.5t50 -18.5h912l-73 -292h-957q-117 0 -190 71.5t-73 181.5q0 38 11 82l46 185q34 139 157 238t262 99h577q37 0 69 26t41 62l24 95q3 10 3 21q0 29 -19 48t-50 19h-913l73 293h958q117 0 189.5 -72t72.5 -183q0 -41 -10 -81
l-46 -185q-35 -139 -158 -237.5t-262 -98.5h-577q-36 0 -68.5 -26t-41.5 -63z" />
    <glyph glyph-name="bracketleft" unicode="[" horiz-adv-x="794" 
d="M435 -330h-594l518 2080h594l-73 -293h-301l-373 -1494h302z" />
    <glyph glyph-name="backslash" unicode="\" horiz-adv-x="1391" 
d="M1114 -1h-348l-489 1422h348z" />
    <glyph glyph-name="bracketright" unicode="]" horiz-adv-x="794" 
d="M-159 -330l73 293h301l373 1494h-302l73 293h594l-518 -2080h-594z" />
    <glyph glyph-name="asciicircum" unicode="^" horiz-adv-x="966" 
d="M415 856h-279l297 436q40 59 101.5 94t125.5 35t108 -35t55 -94l79 -436h-279l-43 242z" />
    <glyph glyph-name="underscore" unicode="_" horiz-adv-x="1490" 
d="M-4 292h1290l-73 -293h-1290z" />
    <glyph glyph-name="a" unicode="a" 
d="M1117 1128h-532q-37 0 -69 -25.5t-41 -62.5l-114 -455h708l114 455q3 10 3 22q0 29 -19 47.5t-50 18.5zM288 292l-72 -292h-293l271 1085q34 139 157 237.5t262 98.5h622q117 0 189.5 -72t72.5 -183q0 -41 -10 -81l-271 -1085h-293l73 292h-708z" />
    <glyph glyph-name="b" unicode="b" 
d="M1159 945l24 95q3 10 3 21q0 29 -19 48t-50 19h-620l-68 -271h620q37 0 69 26t41 62zM-77 0l354 1421h958q117 0 189.5 -72t72.5 -183q0 -41 -10 -81l-46 -185q-27 -105 -107 -190q22 -52 22 -109q0 -41 -10 -81l-46 -185q-35 -139 -158 -237t-262 -98h-957zM356 564
l-67 -272h619q37 0 69 26t41 62l24 95q3 10 3 22q0 29 -19 47.5t-50 18.5q-103 0 -309.5 0.5t-310.5 0.5z" />
    <glyph glyph-name="c" unicode="c" 
d="M475 1040l-164 -660q-3 -12 -3 -22q0 -24 13 -40q19 -26 56 -26h912l-73 -292h-957q-117 0 -190 71.5t-73 181.5q0 38 11 82l187 750q34 139 157 237.5t262 98.5h957l-73 -293h-912q-37 0 -69 -25.5t-41 -62.5z" />
    <glyph glyph-name="d" unicode="d" 
d="M1019 385l163 651q3 10 3 22q0 30 -20 50t-52 20h-616l-208 -836h615q38 0 72 27.5t43 65.5zM887 0h-964l354 1421h964q114 0 185.5 -70.5t71.5 -178.5q0 -40 -10 -80l-190 -763q-34 -136 -154 -232.5t-257 -96.5z" />
    <glyph glyph-name="e" unicode="e" 
d="M451 945q-3 -11 -3 -21q0 -29 19.5 -48t49.5 -19h913l-73 -292q-151 0 -456 -1t-457 -1q-37 0 -69 -25.5t-41 -62.5l-23 -95q-3 -12 -3 -22q0 -29 19 -47.5t50 -18.5h912l-73 -292h-957q-117 0 -190 71.5t-73 181.5q0 38 11 82l46 185q25 104 106 190q-22 52 -22 109
q0 41 10 81l47 185q34 139 157 237.5t262 98.5h957l-73 -293h-912q-37 0 -69 -25.5t-41 -62.5z" />
    <glyph glyph-name="f" unicode="f" 
d="M451 945q-3 -11 -3 -21q0 -29 19.5 -48t49.5 -19h913l-73 -292l-913 -2q-37 0 -69 -25.5t-41 -62.5l-118 -475h-293l130 520q25 104 106 190q-22 52 -22 109q0 41 10 81l47 185q34 139 157 237.5t262 98.5h957l-73 -293h-912q-37 0 -69 -25.5t-41 -62.5z" />
    <glyph glyph-name="g" unicode="g" 
d="M475 1040l-164 -660q-3 -12 -3 -22q0 -24 13 -40q19 -26 56 -26h619l46 184q3 10 3 21q0 29 -19.5 48t-50.5 19h-418l73 293h463q117 0 190 -71.5t73 -182.5q0 -38 -11 -82l-129 -521h-957q-117 0 -190 71.5t-73 181.5q0 38 11 82l187 750q34 139 157 237.5t262 98.5h939
l-73 -293h-894q-37 0 -69 -25.5t-41 -62.5z" />
    <glyph glyph-name="h" unicode="h" 
d="M1278 1421h292l-354 -1421h-293l141 564h-708l-140 -564h-293l354 1421h293l-141 -564h708z" />
    <glyph glyph-name="i" unicode="i" horiz-adv-x="493" 
d="M-77 0l354 1421h293l-354 -1421h-293z" />
    <glyph glyph-name="j" unicode="j" 
d="M1570 1421l-270 -1086q-35 -139 -158 -237t-262 -98h-957l73 292h912q37 0 69 26t41 62l260 1041h292z" />
    <glyph glyph-name="k" unicode="k" 
d="M-77 0l354 1421h293l-141 -564h630q34 4 63 29t37 58l119 477h292l-124 -500q-31 -125 -111 -211q21 -49 21 -104q0 -48 -15 -107l-125 -499h-293l119 476q3 12 3 22q0 26 -16 44.5t-43 21.5h-630l-140 -564h-293z" />
    <glyph glyph-name="l" unicode="l" 
d="M277 1421h293l-259 -1041q-3 -12 -3 -22q0 -29 19 -47.5t50 -18.5h912l-73 -292h-957q-117 0 -190 71.5t-73 181.5q0 38 11 82z" />
    <glyph glyph-name="m" unicode="m" horiz-adv-x="2192" 
d="M-77 0l270 1085q35 140 158 238t262 98h188q117 0 189.5 -71.5t72.5 -181.5q0 -37 -11 -83l-102 -412q-3 -11 -3 -21q0 -29 19 -48t50 -19h98q37 0 69 25.5t41 62.5l102 412q35 140 158 238t262 98h187q117 0 190 -71.5t73 -181.5q0 -37 -11 -83l-270 -1085h-293
l259 1040q3 10 3 22q0 29 -19 47.5t-50 18.5h-97q-37 0 -69 -25.5t-41 -62.5l-102 -412q-35 -139 -158 -237.5t-262 -98.5h-188q-117 0 -189.5 71.5t-72.5 181.5q0 37 11 83l102 412q3 10 3 21q0 29 -19 48t-50 19h-98q-37 0 -69 -25.5t-41 -62.5l-259 -1040h-293z" />
    <glyph glyph-name="n" unicode="n" horiz-adv-x="1626" 
d="M-77 0l270 1085q35 139 158 237.5t262 98.5h188q117 0 189.5 -71.5t72.5 -181.5q0 -37 -11 -83l-175 -705q-3 -10 -3 -21q0 -29 19.5 -48t49.5 -19h98q37 0 69 26t41 62l259 1041h293l-270 -1086q-35 -139 -158 -237t-262 -98h-188q-117 0 -189.5 71.5t-72.5 181.5
q0 38 11 82l175 705q3 10 3 22q0 29 -19 47.5t-50 18.5h-98q-37 0 -69 -25.5t-41 -62.5l-259 -1040h-293z" />
    <glyph glyph-name="o" unicode="o" 
d="M1235 1421q117 0 189.5 -72t72.5 -183q0 -41 -10 -81l-187 -750q-35 -139 -158 -237t-262 -98h-621q-117 0 -190 71.5t-73 181.5q0 38 11 82l187 750q34 139 157 237.5t262 98.5h622zM1183 1040q3 10 3 21q0 29 -19 48t-50 19h-532q-37 0 -69 -25.5t-41 -62.5l-164 -660
q-3 -12 -3 -22q0 -24 13 -40q19 -26 56 -26h531q35 0 69 26q31 25 41 62z" />
    <glyph glyph-name="p" unicode="p" horiz-adv-x="1494" 
d="M1093 677l89 359q3 12 3 23q0 30 -20 49.5t-52 19.5h-616l-135 -543h616q38 0 71.5 27t43.5 65zM-77 0l354 1421h965q114 0 185.5 -71t71.5 -179q0 -40 -10 -79l-118 -471q-34 -136 -154.5 -232.5t-256.5 -96.5h-671l-73 -292h-293z" />
    <glyph glyph-name="q" unicode="q" 
d="M1183 1040q3 10 3 21q0 29 -19 48t-50 19h-532q-37 0 -69 -25.5t-41 -62.5l-164 -660q-3 -12 -3 -22q0 -29 19 -47.5t50 -18.5h531q37 0 69 26t41 62zM1235 1421q117 0 189.5 -72t72.5 -183q0 -41 -10 -81l-187 -750q-28 -108 -112 -195q13 -35 52 -41l-73 -294h-32
q-100 0 -169 53.5t-87 141.5h-620q-117 0 -190 71.5t-73 181.5q0 38 11 82l187 750q34 139 157 237.5t262 98.5h622z" />
    <glyph glyph-name="r" unicode="r" horiz-adv-x="1494" 
d="M1093 677l89 359q3 12 3 23q0 30 -20 49.5t-52 19.5h-616l-135 -543h621q37 2 68.5 28.5t41.5 63.5zM924 0l51 204q2 7 2 21q0 28 -17.5 46.5t-45.5 20.5h-625l-73 -292h-293l354 1421h965q114 0 185.5 -71t71.5 -179q0 -40 -10 -79l-118 -471q-26 -103 -103 -185
q21 -48 21 -106q0 -41 -10 -81l-63 -249h-292z" />
    <glyph glyph-name="s" unicode="s" 
d="M1042 475q3 10 3 22q0 29 -19 48t-50 19h-577q-117 0 -189.5 72t-72.5 183q0 41 10 81l47 185q34 139 157 237.5t262 98.5h957l-73 -293h-912q-37 0 -69 -25.5t-41 -62.5l-24 -95q-3 -11 -3 -21q0 -29 19.5 -48t49.5 -19h577q117 0 189.5 -72.5t72.5 -183.5
q0 -41 -10 -81l-46 -185q-35 -139 -158 -237t-262 -98h-957l73 292h912q37 0 69 26t41 62z" />
    <glyph glyph-name="t" unicode="t" horiz-adv-x="1494" 
d="M423 0l259 1040q3 12 3 22q0 29 -19 47.5t-50 18.5h-412l73 293h1294l-73 -293h-413q-36 0 -68 -25.5t-42 -62.5l-259 -1040h-293z" />
    <glyph glyph-name="u" unicode="u" 
d="M909 292q36 0 68 26t41 62l260 1041h292l-270 -1086q-35 -139 -158 -237t-262 -98h-621q-117 0 -190 71.5t-73 181.5q0 38 11 82l270 1086h293l-259 -1041q-3 -12 -3 -22q0 -29 19 -47.5t50 -18.5h532z" />
    <glyph glyph-name="v" unicode="v" horiz-adv-x="1444" 
d="M1167 0h-908q-117 0 -190 71.5t-73 181.5q0 38 11 82l270 1086h293l-259 -1041q-3 -12 -3 -22q0 -29 19 -47.5t50 -18.5h571l281 1129h293z" />
    <glyph glyph-name="w" unicode="w" horiz-adv-x="2192" 
d="M277 1421h292l-259 -1041q-3 -10 -3 -21q0 -29 19.5 -48t49.5 -19h98q37 0 69 26t41 62l103 413q35 139 157.5 237.5t261.5 98.5h187q117 0 190 -72t73 -183q0 -41 -10 -81l-103 -413q-3 -10 -3 -21q0 -29 19 -48t50 -19h98q37 0 69 26t41 62l259 1041h293l-270 -1086
q-35 -139 -158 -237t-262 -98h-188q-117 0 -190 71.5t-73 181.5q0 38 11 82l102 413q3 12 3 22q0 29 -19 47.5t-50 18.5h-97q-37 0 -68.5 -25.5t-41.5 -62.5l-102 -413q-35 -139 -158 -237t-262 -98h-188q-117 0 -189.5 71.5t-72.5 181.5q0 38 11 82z" />
    <glyph glyph-name="x" unicode="x" 
d="M1049 857q37 0 69 25.5t41 62.5l119 476h292l-130 -521q-25 -104 -105 -190q21 -48 21 -108q0 -41 -10 -81l-130 -521h-293l119 476q3 10 3 21q0 29 -19 48t-50 19h-532q-36 0 -68.5 -25.5t-41.5 -62.5l-118 -476h-293l130 521q25 103 106 189q-22 52 -22 109q0 41 10 81
l130 521h293l-119 -476q-3 -11 -3 -21q0 -29 19 -48t50 -19h532z" />
    <glyph glyph-name="y" unicode="y" 
d="M1049 857q37 0 69 25.5t41 62.5l119 476h292l-130 -521q-34 -139 -157 -237.5t-262 -98.5h-165l-140 -564h-293l141 564h-165q-117 0 -189.5 72t-72.5 183q0 41 10 81l130 521h293l-119 -476q-3 -11 -3 -21q0 -29 19 -48t50 -19h532z" />
    <glyph glyph-name="z" unicode="z" 
d="M334 475l-23 -95q-3 -12 -3 -22q0 -29 19 -47.5t50 -18.5h912l-73 -292h-957q-117 0 -190 71.5t-73 181.5q0 38 11 82l46 185q34 139 157 238t262 99h577q37 0 69 26t41 62l24 95q3 10 3 21q0 29 -19 48t-50 19h-913l73 293h958q117 0 189.5 -72t72.5 -183q0 -41 -10 -81
l-46 -185q-35 -139 -158 -237.5t-262 -98.5h-577q-36 0 -68.5 -26t-41.5 -63z" />
    <glyph glyph-name="bar" unicode="|" horiz-adv-x="493" 
d="M-159 -330l518 2080h293l-519 -2080h-292z" />
    <glyph glyph-name="asciitilde" unicode="~" horiz-adv-x="1154" 
d="M877 857h213l-30 -123q-25 -100 -112.5 -170t-187.5 -70q-119 1 -124 1q-74 4 -121.5 49.5t-51.5 116.5v3q-1 22 -15.5 35.5t-36.5 13.5h-30q-28 0 -52.5 -19.5t-31.5 -47.5l-21 -82h-212l30 123q25 99 112.5 169t186.5 70h125q73 -5 120.5 -50.5t52.5 -116.5v-3
q1 -22 15.5 -35.5t36.5 -13.5h30q28 0 52.5 19.5t31.5 47.5z" />
    <glyph glyph-name="exclamdown" unicode="&#xa1;" horiz-adv-x="493" 
d="M526 998h293l-249 -997h-293zM851 1130h-292l73 292h292z" />
    <glyph glyph-name="brokenbar" unicode="&#xa6;" horiz-adv-x="493" 
d="M70 779l519 894h293l-519 -894h-293zM-191 -268l519 895h293l-519 -895h-293z" />
    <glyph glyph-name="dieresis" unicode="&#xa8;" horiz-adv-x="849" 
d="M568 1587h-249l61 248h249zM968 1587h-249l61 248h249z" />
    <glyph glyph-name="guillemetleft" unicode="&#xab;" horiz-adv-x="2015" 
d="M955 481l-82 -329l-679 327q-49 24 -75.5 69t-26.5 101q0 27 8 61q19 75 76 138t133 93l842 327l-82 -330l-588 -228zM1858 481l-82 -329l-679 327q-49 24 -75.5 69t-26.5 101q0 27 8 61q19 75 76 138t133 93l842 327l-82 -330l-588 -228z" />
    <glyph glyph-name="macron" unicode="&#xaf;" horiz-adv-x="949" 
d="M1068 1587h-749l61 248h749z" />
    <glyph glyph-name="plusminus" unicode="&#xb1;" horiz-adv-x="1124" 
d="M1111 1056l-73 -292h-316l-79 -316h-293l79 316h-316l73 292h316l79 316h293l-79 -316h316zM-4 293h924l-73 -293h-924z" />
    <glyph glyph-name="periodcentered" unicode="&#xb7;" horiz-adv-x="449" 
d="M158 835h249l-62 -248h-249z" />
    <glyph glyph-name="periodcentered" unicode="&#x2219;" horiz-adv-x="449" 
d="M158 835h249l-62 -248h-249z" />
    <glyph glyph-name="guillemetright" unicode="&#xbb;" horiz-adv-x="2015" 
d="M43 481l588 229l-474 228l82 330l679 -327q49 -24 75.5 -69t26.5 -101q0 -27 -8 -61q-19 -75 -76 -138t-133 -93l-842 -327zM946 481l588 229l-474 228l82 330l679 -327q49 -24 75.5 -69t26.5 -101q0 -27 -8 -61q-19 -75 -76 -138t-133 -93l-842 -327z" />
    <glyph glyph-name="questiondown" unicode="&#xbf;" 
d="M1500 1130h-293l73 292h293zM1163 951l12 48h293l-26 -104q-35 -137 -155.5 -233t-256.5 -96l-227 -1q-39 0 -72 -27q-34 -27 -43 -65l-22 -87q-3 -12 -3 -22q0 -30 20 -50t53 -20h908l-73 -293h-964q-115 0 -186.5 70t-71.5 178q0 37 11 81l49 199q35 137 155.5 233
t256.5 96q38 0 113.5 0.5t113.5 0.5t72 26q34 29 43 66z" />
    <glyph glyph-name="Acircumflex" unicode="&#xc2;" 
d="M1117 1128h-532q-37 0 -69 -25.5t-41 -62.5l-114 -455h708l114 455q3 10 3 22q0 29 -19 47.5t-50 18.5zM288 292l-72 -292h-293l271 1085q34 139 157 237.5t262 98.5h622q117 0 189.5 -72t72.5 -183q0 -41 -10 -81l-271 -1085h-293l73 292h-708zM852 1550h-279l262 297
q35 40 94 64t123 24t111 -24t63 -64l113 -297h-279l-63 165z" />
    <glyph glyph-name="Atilde" unicode="&#xc3;" 
d="M1117 1128h-532q-37 0 -69 -25.5t-41 -62.5l-114 -455h708l114 455q3 10 3 22q0 29 -19 47.5t-50 18.5zM288 292l-72 -292h-293l271 1085q34 139 157 237.5t262 98.5h622q117 0 189.5 -72t72.5 -183q0 -41 -10 -81l-271 -1085h-293l73 292h-708zM1291 1833h213l-25 -98
q-20 -79 -103.5 -134.5t-183.5 -55.5h-124q-74 4 -123.5 40t-58.5 92v3q-2 17 -17 28t-38 11h-29q-28 0 -52 -15.5t-29 -37.5l-16 -66h-213l24 98q20 79 104 134.5t183 55.5h125q73 -4 123 -40t58 -93q0 -1 1 -2q2 -17 17 -28t37 -11h30q28 0 51.5 15.5t29.5 37.5z" />
    <glyph glyph-name="Adieresis" unicode="&#xc4;" 
d="M1117 1128h-532q-37 0 -69 -25.5t-41 -62.5l-114 -455h708l114 455q3 10 3 22q0 29 -19 47.5t-50 18.5zM288 292l-72 -292h-293l271 1085q34 139 157 237.5t262 98.5h622q117 0 189.5 -72t72.5 -183q0 -41 -10 -81l-271 -1085h-293l73 292h-708zM890 1587h-249l61 248
h249zM1290 1587h-249l61 248h249z" />
    <glyph glyph-name="AE" unicode="&#xc6;" horiz-adv-x="2500" 
d="M1069 585l113 455q3 12 3 23q0 25 -17 45t-51 20h-532q-37 0 -68.5 -25.5t-41.5 -62.5l-113 -455h707zM2223 0h-958q-25 0 -48 3l-1 -3h-293l73 292h-707l-73 -292h-293l270 1085q35 140 157.5 238t262.5 98h621q109 0 178 -60q99 60 207 60h958l-73 -293h-913
q-36 0 -68 -25.5t-42 -62.5l-23 -95q-3 -12 -3 -22q0 -25 17 -45.5t52 -20.5h913l-73 -292q-160 0 -458 -1t-456 -1q-36 0 -68 -25.5t-42 -62.5l-23 -95q-3 -12 -3 -22q0 -25 17 -45.5t52 -20.5h913z" />
    <glyph glyph-name="Ecircumflex" unicode="&#xca;" 
d="M451 945q-3 -11 -3 -21q0 -29 19.5 -48t49.5 -19h913l-73 -292q-151 0 -456 -1t-457 -1q-37 0 -69 -25.5t-41 -62.5l-23 -95q-3 -12 -3 -22q0 -29 19 -47.5t50 -18.5h912l-73 -292h-957q-117 0 -190 71.5t-73 181.5q0 43 11 82l46 185q25 104 106 190q-22 48 -22 109
q0 41 10 81l47 185q34 139 157 237.5t262 98.5h957l-73 -293h-912q-37 0 -69 -25.5t-41 -62.5zM952 1550h-279l262 297q35 40 94 64t123 24t111 -24t62 -64l114 -297h-279l-63 165z" />
    <glyph glyph-name="Edieresis" unicode="&#xcb;" 
d="M451 945q-3 -11 -3 -21q0 -29 19.5 -48t49.5 -19h913l-73 -292q-151 0 -456 -1t-457 -1q-37 0 -69 -25.5t-41 -62.5l-23 -95q-3 -12 -3 -22q0 -29 19 -47.5t50 -18.5h912l-73 -292h-957q-117 0 -190 71.5t-73 181.5q0 43 11 82l46 185q25 104 106 190q-22 48 -22 109
q0 41 10 81l47 185q34 139 157 237.5t262 98.5h957l-73 -293h-912q-37 0 -69 -25.5t-41 -62.5zM989 1587h-249l62 248h249zM1389 1587h-249l62 248h249z" />
    <glyph glyph-name="Icircumflex" unicode="&#xce;" horiz-adv-x="493" 
d="M-77 0l354 1421h293l-354 -1421h-293zM351 1550h-278l261 297q35 40 94.5 64t122.5 24q64 0 111 -24t63 -64l113 -297h-279l-63 165z" />
    <glyph glyph-name="Idieresis" unicode="&#xcf;" horiz-adv-x="493" 
d="M-77 0l354 1421h293l-354 -1421h-293zM389 1587h-249l62 248h249zM789 1587h-249l62 248h249z" />
    <glyph glyph-name="Eth" unicode="&#xd0;" horiz-adv-x="1593" 
d="M1004 292q38 0 71.5 27t43.5 66l162 651q3 12 3 23q0 27 -18 48t-54 21h-615l-56 -224h410l-50 -204h-410l-102 -408h615zM987 0h-964l175 700h-200l50 204h200l129 517h964q119 0 188.5 -71.5t69.5 -174.5q0 -37 -11 -83l-190 -763q-35 -137 -154.5 -233t-256.5 -96z
" />
    <glyph glyph-name="Ntilde" unicode="&#xd1;" horiz-adv-x="1626" 
d="M-77 0l270 1085q35 139 158 237.5t262 98.5h188q117 0 189.5 -71.5t72.5 -181.5q0 -37 -11 -83l-175 -705q-3 -10 -3 -21q0 -29 19.5 -48t49.5 -19h98q37 0 69 26t41 62l259 1041h293l-270 -1086q-35 -139 -158 -237t-262 -98h-188q-117 0 -189.5 71.5t-72.5 181.5
q0 38 11 82l175 705q3 10 3 22q0 29 -19 47.5t-50 18.5h-98q-37 0 -69 -25.5t-41 -62.5l-259 -1040h-293zM1357 1833h213l-25 -98q-20 -79 -103.5 -134.5t-183.5 -55.5h-124q-74 4 -123.5 40t-58.5 92v3q-2 17 -17 28t-38 11h-29q-28 0 -52 -15.5t-29 -37.5l-16 -66h-213
l24 98q20 79 104 134.5t183 55.5h125q73 -4 123 -40t58 -93q0 -1 1 -2q2 -17 17 -28t37 -11h30q28 0 51.5 15.5t29.5 37.5z" />
    <glyph glyph-name="Ocircumflex" unicode="&#xd4;" 
d="M1235 1421q117 0 189.5 -72t72.5 -183q0 -41 -10 -81l-187 -750q-35 -139 -158 -237t-262 -98h-621q-117 0 -190 71.5t-73 181.5q0 43 11 82l187 750q34 139 157 237.5t262 98.5h622zM1183 1040q2 14 2 21q0 29 -19 48t-49 19h-532q-37 0 -69 -25.5t-41 -62.5l-164 -660
q-3 -12 -3 -22q0 -24 13 -40q19 -26 56 -26h531q35 0 69 26q31 25 41 62zM852 1550h-279l262 297q35 40 94 64t123 24t111 -24t62 -64l114 -297h-279l-63 165z" />
    <glyph glyph-name="Otilde" unicode="&#xd5;" horiz-adv-x="1492" 
d="M1235 1421q117 0 189.5 -72t72.5 -183q0 -41 -10 -81l-187 -750q-35 -139 -158 -237t-262 -98h-621q-117 0 -190 71.5t-73 181.5q0 43 11 82l187 750q34 139 157 237.5t262 98.5h622zM1183 1040q2 14 2 21q0 29 -19 48t-49 19h-532q-37 0 -69 -25.5t-41 -62.5l-164 -660
q-3 -12 -3 -22q0 -24 13 -40q19 -26 56 -26h531q35 0 69 26q31 25 41 62zM1291 1833h212l-24 -98q-19 -79 -103.5 -134.5t-183.5 -55.5h-124q-74 4 -124 40t-58 92v3q-1 17 -16.5 28t-38.5 11h-30q-28 0 -51.5 -15.5t-28.5 -37.5l-17 -66h-212l24 98q19 79 103.5 134.5
t183.5 55.5h124q74 -4 123.5 -40t58.5 -93v-2q1 -17 16.5 -28t38.5 -11h30q28 0 51.5 15.5t28.5 37.5z" />
    <glyph glyph-name="Odieresis" unicode="&#xd6;" 
d="M1235 1421q117 0 189.5 -72t72.5 -183q0 -41 -10 -81l-187 -750q-35 -139 -158 -237t-262 -98h-621q-117 0 -190 71.5t-73 181.5q0 43 11 82l187 750q34 139 157 237.5t262 98.5h622zM1183 1040q2 14 2 21q0 29 -19 48t-49 19h-532q-37 0 -69 -25.5t-41 -62.5l-164 -660
q-3 -12 -3 -22q0 -24 13 -40q19 -26 56 -26h531q35 0 69 26q31 25 41 62zM889 1587h-249l62 248h249zM1289 1587h-249l62 248h249z" />
    <glyph glyph-name="multiply" unicode="&#xd7;" horiz-adv-x="1060" 
d="M646 280l-168 224l-279 -224l-155 207l279 223l-167 223l258 207l167 -224l280 224l155 -207l-280 -223l168 -223z" />
    <glyph glyph-name="Oslash" unicode="&#xd8;" 
d="M908 292q36 0 68 25.5t42 62.5l164 660q3 12 3 24l-1 13l-664 -785h388zM312 334l671 794h-398q-37 0 -68.5 -25.5t-41.5 -62.5l-164 -660q-3 -12 -3 -22q0 -15 4 -24zM145 -151h-243l179 211q-85 75 -85 190q0 38 11 85l186 750q35 140 157.5 238t262.5 98h617l114 134
h244l-170 -200q79 -74 79 -185q0 -38 -11 -85l-186 -750q-35 -140 -157.5 -237.5t-262.5 -97.5h-607z" />
    <glyph glyph-name="Ucircumflex" unicode="&#xdb;" 
d="M909 292q36 0 68 26t41 62l260 1041h292l-270 -1086q-35 -139 -158 -237t-262 -98h-621q-117 0 -190 71.5t-73 181.5q0 43 11 82l270 1086h293l-259 -1041q-3 -12 -3 -22q0 -29 19 -47.5t50 -18.5h532zM852 1550h-279l262 297q35 40 94 64t123 24t111 -24t62 -64
l114 -297h-279l-63 165z" />
    <glyph glyph-name="Udieresis" unicode="&#xdc;" 
d="M909 292q36 0 68 26t41 62l260 1041h292l-270 -1086q-35 -139 -158 -237t-262 -98h-621q-117 0 -190 71.5t-73 181.5q0 43 11 82l270 1086h293l-259 -1041q-3 -12 -3 -22q0 -29 19 -47.5t50 -18.5h532zM889 1587h-249l62 248h249zM1289 1587h-249l62 248h249z" />
    <glyph glyph-name="Thorn" unicode="&#xde;" horiz-adv-x="1494" 
d="M166 -200h-293l404 1621h293l-50 -200h671q120 0 189.5 -71.5t69.5 -174.5q0 -37 -11 -83l-117 -471q-34 -137 -154 -233t-258 -96h-671zM928 385q39 0 72 27t43 65l89 359q3 12 3 24q0 26 -18 47t-54 21h-616l-135 -543h616z" />
    <glyph glyph-name="acircumflex" unicode="&#xe2;" 
d="M1117 1128h-532q-37 0 -69 -25.5t-41 -62.5l-114 -455h708l114 455q3 10 3 22q0 29 -19 47.5t-50 18.5zM288 292l-72 -292h-293l271 1085q34 139 157 237.5t262 98.5h622q117 0 189.5 -72t72.5 -183q0 -41 -10 -81l-271 -1085h-293l73 292h-708zM852 1550h-279l262 297
q35 40 94 64t123 24t111 -24t63 -64l113 -297h-279l-63 165z" />
    <glyph glyph-name="atilde" unicode="&#xe3;" 
d="M1117 1128h-532q-37 0 -69 -25.5t-41 -62.5l-114 -455h708l114 455q3 10 3 22q0 29 -19 47.5t-50 18.5zM288 292l-72 -292h-293l271 1085q34 139 157 237.5t262 98.5h622q117 0 189.5 -72t72.5 -183q0 -41 -10 -81l-271 -1085h-293l73 292h-708zM1291 1833h213l-25 -98
q-20 -79 -103.5 -134.5t-183.5 -55.5h-124q-74 4 -123.5 40t-58.5 92v3q-2 17 -17 28t-38 11h-29q-28 0 -52 -15.5t-29 -37.5l-16 -66h-213l24 98q20 79 104 134.5t183 55.5h125q73 -4 123 -40t58 -93q0 -1 1 -2q2 -17 17 -28t37 -11h30q28 0 51.5 15.5t29.5 37.5z" />
    <glyph glyph-name="adieresis" unicode="&#xe4;" 
d="M1117 1128h-532q-37 0 -69 -25.5t-41 -62.5l-114 -455h708l114 455q3 10 3 22q0 29 -19 47.5t-50 18.5zM288 292l-72 -292h-293l271 1085q34 139 157 237.5t262 98.5h622q117 0 189.5 -72t72.5 -183q0 -41 -10 -81l-271 -1085h-293l73 292h-708zM890 1587h-249l61 248
h249zM1290 1587h-249l61 248h249z" />
    <glyph glyph-name="ae" unicode="&#xe6;" horiz-adv-x="2500" 
d="M1069 585l113 455q3 12 3 23q0 25 -17 45t-51 20h-532q-37 0 -68.5 -25.5t-41.5 -62.5l-113 -455h707zM2223 0h-958q-25 0 -48 3l-1 -3h-293l73 292h-707l-73 -292h-293l270 1085q35 140 157.5 238t262.5 98h621q109 0 178 -60q99 60 207 60h958l-73 -293h-913
q-36 0 -68 -25.5t-42 -62.5l-23 -95q-3 -12 -3 -22q0 -25 17 -45.5t52 -20.5h913l-73 -292q-160 0 -458 -1t-456 -1q-36 0 -68 -25.5t-42 -62.5l-23 -95q-3 -12 -3 -22q0 -25 17 -45.5t52 -20.5h913z" />
    <glyph glyph-name="ecircumflex" unicode="&#xea;" 
d="M451 945q-3 -11 -3 -21q0 -29 19.5 -48t49.5 -19h913l-73 -292q-151 0 -456 -1t-457 -1q-37 0 -69 -25.5t-41 -62.5l-23 -95q-3 -12 -3 -22q0 -29 19 -47.5t50 -18.5h912l-73 -292h-957q-117 0 -190 71.5t-73 181.5q0 43 11 82l46 185q25 104 106 190q-22 48 -22 109
q0 41 10 81l47 185q34 139 157 237.5t262 98.5h957l-73 -293h-912q-37 0 -69 -25.5t-41 -62.5zM952 1550h-279l262 297q35 40 94 64t123 24t111 -24t62 -64l114 -297h-279l-63 165z" />
    <glyph glyph-name="edieresis" unicode="&#xeb;" 
d="M451 945q-3 -11 -3 -21q0 -29 19.5 -48t49.5 -19h913l-73 -292q-151 0 -456 -1t-457 -1q-37 0 -69 -25.5t-41 -62.5l-23 -95q-3 -12 -3 -22q0 -29 19 -47.5t50 -18.5h912l-73 -292h-957q-117 0 -190 71.5t-73 181.5q0 43 11 82l46 185q25 104 106 190q-22 48 -22 109
q0 41 10 81l47 185q34 139 157 237.5t262 98.5h957l-73 -293h-912q-37 0 -69 -25.5t-41 -62.5zM989 1587h-249l62 248h249zM1389 1587h-249l62 248h249z" />
    <glyph glyph-name="icircumflex" unicode="&#xee;" horiz-adv-x="493" 
d="M-77 0l354 1421h293l-354 -1421h-293zM351 1550h-278l261 297q35 40 94.5 64t122.5 24q64 0 111 -24t63 -64l113 -297h-279l-63 165z" />
    <glyph glyph-name="idieresis" unicode="&#xef;" horiz-adv-x="493" 
d="M-77 0l354 1421h293l-354 -1421h-293zM389 1587h-249l62 248h249zM789 1587h-249l62 248h249z" />
    <glyph glyph-name="eth" unicode="&#xf0;" horiz-adv-x="1593" 
d="M1004 292q38 0 71.5 27t43.5 66l162 651q3 12 3 23q0 27 -18 48t-54 21h-615l-56 -224h410l-50 -204h-410l-102 -408h615zM987 0h-964l175 700h-200l50 204h200l129 517h964q119 0 188.5 -71.5t69.5 -174.5q0 -37 -11 -83l-190 -763q-35 -137 -154.5 -233t-256.5 -96z
" />
    <glyph glyph-name="ntilde" unicode="&#xf1;" horiz-adv-x="1626" 
d="M-77 0l270 1085q35 139 158 237.5t262 98.5h188q117 0 189.5 -71.5t72.5 -181.5q0 -37 -11 -83l-175 -705q-3 -10 -3 -21q0 -29 19.5 -48t49.5 -19h98q37 0 69 26t41 62l259 1041h293l-270 -1086q-35 -139 -158 -237t-262 -98h-188q-117 0 -189.5 71.5t-72.5 181.5
q0 38 11 82l175 705q3 10 3 22q0 29 -19 47.5t-50 18.5h-98q-37 0 -69 -25.5t-41 -62.5l-259 -1040h-293zM1357 1833h213l-25 -98q-20 -79 -103.5 -134.5t-183.5 -55.5h-124q-74 4 -123.5 40t-58.5 92v3q-2 17 -17 28t-38 11h-29q-28 0 -52 -15.5t-29 -37.5l-16 -66h-213
l24 98q20 79 104 134.5t183 55.5h125q73 -4 123 -40t58 -93q0 -1 1 -2q2 -17 17 -28t37 -11h30q28 0 51.5 15.5t29.5 37.5z" />
    <glyph glyph-name="ocircumflex" unicode="&#xf4;" 
d="M1235 1421q117 0 189.5 -72t72.5 -183q0 -41 -10 -81l-187 -750q-35 -139 -158 -237t-262 -98h-621q-117 0 -190 71.5t-73 181.5q0 43 11 82l187 750q34 139 157 237.5t262 98.5h622zM1183 1040q2 14 2 21q0 29 -19 48t-49 19h-532q-37 0 -69 -25.5t-41 -62.5l-164 -660
q-3 -12 -3 -22q0 -24 13 -40q19 -26 56 -26h531q35 0 69 26q31 25 41 62zM852 1550h-279l262 297q35 40 94 64t123 24t111 -24t62 -64l114 -297h-279l-63 165z" />
    <glyph glyph-name="otilde" unicode="&#xf5;" horiz-adv-x="1492" 
d="M1235 1421q117 0 189.5 -72t72.5 -183q0 -41 -10 -81l-187 -750q-35 -139 -158 -237t-262 -98h-621q-117 0 -190 71.5t-73 181.5q0 43 11 82l187 750q34 139 157 237.5t262 98.5h622zM1183 1040q2 14 2 21q0 29 -19 48t-49 19h-532q-37 0 -69 -25.5t-41 -62.5l-164 -660
q-3 -12 -3 -22q0 -24 13 -40q19 -26 56 -26h531q35 0 69 26q31 25 41 62zM1291 1833h212l-24 -98q-19 -79 -103.5 -134.5t-183.5 -55.5h-124q-74 4 -124 40t-58 92v3q-1 17 -16.5 28t-38.5 11h-30q-28 0 -51.5 -15.5t-28.5 -37.5l-17 -66h-212l24 98q19 79 103.5 134.5
t183.5 55.5h124q74 -4 123.5 -40t58.5 -93v-2q1 -17 16.5 -28t38.5 -11h30q28 0 51.5 15.5t28.5 37.5z" />
    <glyph glyph-name="odieresis" unicode="&#xf6;" 
d="M1235 1421q117 0 189.5 -72t72.5 -183q0 -41 -10 -81l-187 -750q-35 -139 -158 -237t-262 -98h-621q-117 0 -190 71.5t-73 181.5q0 43 11 82l187 750q34 139 157 237.5t262 98.5h622zM1183 1040q2 14 2 21q0 29 -19 48t-49 19h-532q-37 0 -69 -25.5t-41 -62.5l-164 -660
q-3 -12 -3 -22q0 -24 13 -40q19 -26 56 -26h531q35 0 69 26q31 25 41 62zM889 1587h-249l62 248h249zM1289 1587h-249l62 248h249z" />
    <glyph glyph-name="divide" unicode="&#xf7;" horiz-adv-x="1124" 
d="M568 148h-292l73 292h292zM775 980h-292l73 292h292zM988 564h-924l72 292h924z" />
    <glyph glyph-name="oslash" unicode="&#xf8;" 
d="M908 292q36 0 68 25.5t42 62.5l164 660q3 12 3 24l-1 13l-664 -785h388zM312 334l671 794h-398q-37 0 -68.5 -25.5t-41.5 -62.5l-164 -660q-3 -12 -3 -22q0 -15 4 -24zM145 -151h-243l179 211q-85 75 -85 190q0 38 11 85l186 750q35 140 157.5 238t262.5 98h617l114 134
h244l-170 -200q79 -74 79 -185q0 -38 -11 -85l-186 -750q-35 -140 -157.5 -237.5t-262.5 -97.5h-607z" />
    <glyph glyph-name="ucircumflex" unicode="&#xfb;" 
d="M909 292q36 0 68 26t41 62l260 1041h292l-270 -1086q-35 -139 -158 -237t-262 -98h-621q-117 0 -190 71.5t-73 181.5q0 43 11 82l270 1086h293l-259 -1041q-3 -12 -3 -22q0 -29 19 -47.5t50 -18.5h532zM852 1550h-279l262 297q35 40 94 64t123 24t111 -24t62 -64
l114 -297h-279l-63 165z" />
    <glyph glyph-name="udieresis" unicode="&#xfc;" 
d="M909 292q36 0 68 26t41 62l260 1041h292l-270 -1086q-35 -139 -158 -237t-262 -98h-621q-117 0 -190 71.5t-73 181.5q0 43 11 82l270 1086h293l-259 -1041q-3 -12 -3 -22q0 -29 19 -47.5t50 -18.5h532zM889 1587h-249l62 248h249zM1289 1587h-249l62 248h249z" />
    <glyph glyph-name="thorn" unicode="&#xfe;" horiz-adv-x="1494" 
d="M166 -200h-293l404 1621h293l-50 -200h671q120 0 189.5 -71.5t69.5 -174.5q0 -37 -11 -83l-117 -471q-34 -137 -154 -233t-258 -96h-671zM928 385q39 0 72 27t43 65l89 359q3 12 3 24q0 26 -18 47t-54 21h-616l-135 -543h616z" />
    <glyph glyph-name="ydieresis" unicode="&#xff;" 
d="M1049 857q37 0 69 25.5t41 62.5l119 476h292l-130 -521q-34 -139 -157 -237.5t-262 -98.5h-165l-140 -564h-293l141 564h-165q-117 0 -189.5 72t-72.5 183q0 41 10 81l130 521h293l-119 -476q-2 -7 -2 -21q0 -30 18.5 -48.5t49.5 -18.5h532zM890 1587h-249l62 248h249z
M1290 1587h-249l62 248h249z" />
    <glyph glyph-name="Amacron" unicode="&#x100;" 
d="M1117 1128h-532q-37 0 -69 -25.5t-41 -62.5l-114 -455h708l114 455q3 10 3 22q0 29 -19 47.5t-50 18.5zM288 292l-72 -292h-293l271 1085q34 139 157 237.5t262 98.5h622q117 0 189.5 -72t72.5 -183q0 -41 -10 -81l-271 -1085h-293l73 292h-708zM1340 1587h-749l61 248
h749z" />
    <glyph glyph-name="amacron" unicode="&#x101;" 
d="M1117 1128h-532q-37 0 -69 -25.5t-41 -62.5l-114 -455h708l114 455q3 10 3 22q0 29 -19 47.5t-50 18.5zM288 292l-72 -292h-293l271 1085q34 139 157 237.5t262 98.5h622q117 0 189.5 -72t72.5 -183q0 -41 -10 -81l-271 -1085h-293l73 292h-708zM1340 1587h-749l61 248
h749z" />
    <glyph glyph-name="Ccircumflex" unicode="&#x108;" 
d="M475 1040l-164 -660q-3 -12 -3 -22q0 -24 13 -40q19 -26 56 -26h912l-73 -292h-957q-117 0 -190 71.5t-73 181.5q0 43 11 82l187 750q34 139 157 237.5t262 98.5h957l-73 -293h-912q-37 0 -69 -25.5t-41 -62.5zM968 1550h-279l262 297q35 40 94 64t123 24t111 -24t62 -64
l114 -297h-279l-63 165z" />
    <glyph glyph-name="ccircumflex" unicode="&#x109;" 
d="M475 1040l-164 -660q-3 -12 -3 -22q0 -24 13 -40q19 -26 56 -26h912l-73 -292h-957q-117 0 -190 71.5t-73 181.5q0 43 11 82l187 750q34 139 157 237.5t262 98.5h957l-73 -293h-912q-37 0 -69 -25.5t-41 -62.5zM968 1550h-279l262 297q35 40 94 64t123 24t111 -24t62 -64
l114 -297h-279l-63 165z" />
    <glyph glyph-name="Cdotaccent" unicode="&#x10a;" 
d="M475 1040l-164 -660q-3 -12 -3 -22q0 -24 13 -40q19 -26 56 -26h912l-73 -292h-957q-117 0 -190 71.5t-73 181.5q0 43 11 82l187 750q34 139 157 237.5t262 98.5h957l-73 -293h-912q-37 0 -69 -25.5t-41 -62.5zM1205 1587h-249l62 248h249z" />
    <glyph glyph-name="cdotaccent" unicode="&#x10b;" 
d="M475 1040l-164 -660q-3 -12 -3 -22q0 -24 13 -40q19 -26 56 -26h912l-73 -292h-957q-117 0 -190 71.5t-73 181.5q0 43 11 82l187 750q34 139 157 237.5t262 98.5h957l-73 -293h-912q-37 0 -69 -25.5t-41 -62.5zM1205 1587h-249l62 248h249z" />
    <glyph glyph-name="Ccaron" unicode="&#x10c;" 
d="M475 1040l-164 -660q-3 -12 -3 -22q0 -24 13 -40q19 -26 56 -26h912l-73 -292h-957q-117 0 -190 71.5t-73 181.5q0 43 11 82l187 750q34 139 157 237.5t262 98.5h957l-73 -293h-912q-37 0 -69 -25.5t-41 -62.5zM1039 1835l63 -165l145 165h279l-262 -297q-35 -40 -94 -64
t-123 -24t-111 24t-62 64l-114 297h279z" />
    <glyph glyph-name="ccaron" unicode="&#x10d;" 
d="M475 1040l-164 -660q-3 -12 -3 -22q0 -24 13 -40q19 -26 56 -26h912l-73 -292h-957q-117 0 -190 71.5t-73 181.5q0 43 11 82l187 750q34 139 157 237.5t262 98.5h957l-73 -293h-912q-37 0 -69 -25.5t-41 -62.5zM1039 1835l63 -165l145 165h279l-262 -297q-35 -40 -94 -64
t-123 -24t-111 24t-62 64l-114 297h279z" />
    <glyph glyph-name="Dcaron" unicode="&#x10e;" 
d="M1019 385l163 651q3 10 3 22q0 30 -20 50t-52 20h-616l-208 -836h615q38 0 72 27.5t43 65.5zM887 0h-964l354 1421h964q114 0 185.5 -70.5t71.5 -178.5q0 -40 -10 -80l-190 -763q-34 -136 -154 -232.5t-257 -96.5zM922 1835l63 -165l145 165h279l-262 -297
q-35 -40 -94 -64t-123 -24t-111 24t-62 64l-114 297h279z" />
    <glyph glyph-name="dcaron" unicode="&#x10f;" 
d="M1019 385l163 651q3 10 3 22q0 30 -20 50t-52 20h-616l-208 -836h615q38 0 72 27.5t43 65.5zM887 0h-964l354 1421h964q114 0 185.5 -70.5t71.5 -178.5q0 -40 -10 -80l-190 -763q-34 -136 -154 -232.5t-257 -96.5zM922 1835l63 -165l145 165h279l-262 -297
q-35 -40 -94 -64t-123 -24t-111 24t-62 64l-114 297h279z" />
    <glyph glyph-name="Dcroat" unicode="&#x110;" horiz-adv-x="1593" 
d="M1004 292q38 0 71.5 27t43.5 66l162 651q3 12 3 23q0 27 -18 48t-54 21h-615l-56 -224h410l-50 -204h-410l-102 -408h615zM987 0h-964l175 700h-200l50 204h200l129 517h964q119 0 188.5 -71.5t69.5 -174.5q0 -37 -11 -83l-190 -763q-35 -137 -154.5 -233t-256.5 -96z
" />
    <glyph glyph-name="dcroat" unicode="&#x111;" horiz-adv-x="1593" 
d="M1004 292q38 0 71.5 27t43.5 66l162 651q3 12 3 23q0 27 -18 48t-54 21h-615l-56 -224h410l-50 -204h-410l-102 -408h615zM987 0h-964l175 700h-200l50 204h200l129 517h964q119 0 188.5 -71.5t69.5 -174.5q0 -37 -11 -83l-190 -763q-35 -137 -154.5 -233t-256.5 -96z
" />
    <glyph glyph-name="Emacron" unicode="&#x112;" 
d="M451 945q-3 -11 -3 -21q0 -29 19.5 -48t49.5 -19h913l-73 -292q-151 0 -456 -1t-457 -1q-37 0 -69 -25.5t-41 -62.5l-23 -95q-3 -12 -3 -22q0 -29 19 -47.5t50 -18.5h912l-73 -292h-957q-117 0 -190 71.5t-73 181.5q0 43 11 82l46 185q25 104 106 190q-22 48 -22 109
q0 41 10 81l47 185q34 139 157 237.5t262 98.5h957l-73 -293h-912q-37 0 -69 -25.5t-41 -62.5zM1439 1587h-749l62 248h749z" />
    <glyph glyph-name="emacron" unicode="&#x113;" 
d="M451 945q-3 -11 -3 -21q0 -29 19.5 -48t49.5 -19h913l-73 -292q-151 0 -456 -1t-457 -1q-37 0 -69 -25.5t-41 -62.5l-23 -95q-3 -12 -3 -22q0 -29 19 -47.5t50 -18.5h912l-73 -292h-957q-117 0 -190 71.5t-73 181.5q0 43 11 82l46 185q25 104 106 190q-22 48 -22 109
q0 41 10 81l47 185q34 139 157 237.5t262 98.5h957l-73 -293h-912q-37 0 -69 -25.5t-41 -62.5zM1439 1587h-749l62 248h749z" />
    <glyph glyph-name="Edotaccent" unicode="&#x116;" 
d="M451 945q-3 -11 -3 -21q0 -29 19.5 -48t49.5 -19h913l-73 -292q-151 0 -456 -1t-457 -1q-37 0 -69 -25.5t-41 -62.5l-23 -95q-3 -12 -3 -22q0 -29 19 -47.5t50 -18.5h912l-73 -292h-957q-117 0 -190 71.5t-73 181.5q0 43 11 82l46 185q25 104 106 190q-22 48 -22 109
q0 41 10 81l47 185q34 139 157 237.5t262 98.5h957l-73 -293h-912q-37 0 -69 -25.5t-41 -62.5zM1189 1587h-249l62 248h249z" />
    <glyph glyph-name="edotaccent" unicode="&#x117;" 
d="M451 945q-3 -11 -3 -21q0 -29 19.5 -48t49.5 -19h913l-73 -292q-151 0 -456 -1t-457 -1q-37 0 -69 -25.5t-41 -62.5l-23 -95q-3 -12 -3 -22q0 -29 19 -47.5t50 -18.5h912l-73 -292h-957q-117 0 -190 71.5t-73 181.5q0 43 11 82l46 185q25 104 106 190q-22 48 -22 109
q0 41 10 81l47 185q34 139 157 237.5t262 98.5h957l-73 -293h-912q-37 0 -69 -25.5t-41 -62.5zM1189 1587h-249l62 248h249z" />
    <glyph glyph-name="Ecaron" unicode="&#x11a;" 
d="M451 945q-3 -11 -3 -21q0 -29 19.5 -48t49.5 -19h913l-73 -292q-151 0 -456 -1t-457 -1q-37 0 -69 -25.5t-41 -62.5l-23 -95q-3 -12 -3 -22q0 -29 19 -47.5t50 -18.5h912l-73 -292h-957q-117 0 -190 71.5t-73 181.5q0 43 11 82l46 185q25 104 106 190q-22 48 -22 109
q0 41 10 81l47 185q34 139 157 237.5t262 98.5h957l-73 -293h-912q-37 0 -69 -25.5t-41 -62.5zM1023 1835l63 -165l145 165h279l-262 -297q-35 -40 -94 -64t-123 -24t-111 24t-62 64l-114 297h279z" />
    <glyph glyph-name="ecaron" unicode="&#x11b;" 
d="M451 945q-3 -11 -3 -21q0 -29 19.5 -48t49.5 -19h913l-73 -292q-151 0 -456 -1t-457 -1q-37 0 -69 -25.5t-41 -62.5l-23 -95q-3 -12 -3 -22q0 -29 19 -47.5t50 -18.5h912l-73 -292h-957q-117 0 -190 71.5t-73 181.5q0 43 11 82l46 185q25 104 106 190q-22 48 -22 109
q0 41 10 81l47 185q34 139 157 237.5t262 98.5h957l-73 -293h-912q-37 0 -69 -25.5t-41 -62.5zM1023 1835l63 -165l145 165h279l-262 -297q-35 -40 -94 -64t-123 -24t-111 24t-62 64l-114 297h279z" />
    <glyph glyph-name="Gcircumflex" unicode="&#x11c;" 
d="M475 1040l-164 -660q-3 -12 -3 -22q0 -24 13 -40q19 -26 56 -26h619l46 184q2 14 2 21q0 29 -19 48t-50 19h-418l73 293h463q117 0 189.5 -71.5t72.5 -182.5q0 -42 -10 -82l-129 -521h-957q-117 0 -190 71.5t-73 181.5q0 43 11 82l187 750q34 139 157 237.5t262 98.5h939
l-73 -293h-894q-37 0 -69 -25.5t-41 -62.5zM951 1550h-279l262 297q35 40 94 64t123 24t111 -24t62 -64l114 -297h-279l-63 165z" />
    <glyph glyph-name="gcircumflex" unicode="&#x11d;" 
d="M475 1040l-164 -660q-3 -12 -3 -22q0 -24 13 -40q19 -26 56 -26h619l46 184q2 14 2 21q0 29 -19 48t-50 19h-418l73 293h463q117 0 189.5 -71.5t72.5 -182.5q0 -42 -10 -82l-129 -521h-957q-117 0 -190 71.5t-73 181.5q0 43 11 82l187 750q34 139 157 237.5t262 98.5h939
l-73 -293h-894q-37 0 -69 -25.5t-41 -62.5zM951 1550h-279l262 297q35 40 94 64t123 24t111 -24t62 -64l114 -297h-279l-63 165z" />
    <glyph glyph-name="Gdotaccent" unicode="&#x120;" 
d="M475 1040l-164 -660q-3 -12 -3 -22q0 -24 13 -40q19 -26 56 -26h619l46 184q2 14 2 21q0 29 -19 48t-50 19h-418l73 293h463q117 0 189.5 -71.5t72.5 -182.5q0 -42 -10 -82l-129 -521h-957q-117 0 -190 71.5t-73 181.5q0 43 11 82l187 750q34 139 157 237.5t262 98.5h939
l-73 -293h-894q-37 0 -69 -25.5t-41 -62.5zM1188 1587h-249l62 248h249z" />
    <glyph glyph-name="gdotaccent" unicode="&#x121;" 
d="M475 1040l-164 -660q-3 -12 -3 -22q0 -24 13 -40q19 -26 56 -26h619l46 184q2 14 2 21q0 29 -19 48t-50 19h-418l73 293h463q117 0 189.5 -71.5t72.5 -182.5q0 -42 -10 -82l-129 -521h-957q-117 0 -190 71.5t-73 181.5q0 43 11 82l187 750q34 139 157 237.5t262 98.5h939
l-73 -293h-894q-37 0 -69 -25.5t-41 -62.5zM1188 1587h-249l62 248h249z" />
    <glyph glyph-name="Hcircumflex" unicode="&#x124;" 
d="M1278 1421h292l-354 -1421h-293l141 564h-708l-140 -564h-293l354 1421h293l-141 -564h708zM852 1550h-278l261 297q35 40 94.5 64t122.5 24q64 0 111 -24t63 -64l113 -297h-279l-63 165z" />
    <glyph glyph-name="hcircumflex" unicode="&#x125;" 
d="M1278 1421h292l-354 -1421h-293l141 564h-708l-140 -564h-293l354 1421h293l-141 -564h708zM852 1550h-278l261 297q35 40 94.5 64t122.5 24q64 0 111 -24t63 -64l113 -297h-279l-63 165z" />
    <glyph glyph-name="Hbar" unicode="&#x126;" 
d="M1216 0h-293l141 564h-707l-141 -564h-293l262 1050h-128l51 204h128l41 167h293l-41 -167h707l41 167h293l-41 -167h127l-51 -204h-127zM1137 857l48 193h-707l-48 -193h707z" />
    <glyph glyph-name="hbar" unicode="&#x127;" 
d="M1216 0h-293l141 564h-707l-141 -564h-293l262 1050h-128l51 204h128l41 167h293l-41 -167h707l41 167h293l-41 -167h127l-51 -204h-127zM1137 857l48 193h-707l-48 -193h707z" />
    <glyph glyph-name="Itilde" unicode="&#x128;" horiz-adv-x="493" 
d="M-77 0l354 1421h293l-354 -1421h-293zM790 1833h213l-25 -98q-19 -79 -103 -134.5t-183 -55.5h-125q-74 4 -123.5 40t-57.5 92l-1 3q-2 17 -17 28t-38 11h-29q-28 0 -51.5 -15.5t-29.5 -37.5l-16 -66h-213l24 98q20 79 104 134.5t183 55.5h125q73 -4 123 -40t58 -93
q1 -1 1 -2q2 -17 17 -28t37 -11h30q28 0 51.5 15.5t29.5 37.5z" />
    <glyph glyph-name="itilde" unicode="&#x129;" horiz-adv-x="493" 
d="M-77 0l354 1421h293l-354 -1421h-293zM790 1833h213l-25 -98q-19 -79 -103 -134.5t-183 -55.5h-125q-74 4 -123.5 40t-57.5 92l-1 3q-2 17 -17 28t-38 11h-29q-28 0 -51.5 -15.5t-29.5 -37.5l-16 -66h-213l24 98q20 79 104 134.5t183 55.5h125q73 -4 123 -40t58 -93
q1 -1 1 -2q2 -17 17 -28t37 -11h30q28 0 51.5 15.5t29.5 37.5z" />
    <glyph glyph-name="Imacron" unicode="&#x12a;" horiz-adv-x="493" 
d="M-77 0l354 1421h293l-354 -1421h-293zM839 1587h-749l62 248h749z" />
    <glyph glyph-name="imacron" unicode="&#x12b;" horiz-adv-x="493" 
d="M-77 0l354 1421h293l-354 -1421h-293zM839 1587h-749l62 248h749z" />
    <glyph glyph-name="Idotaccent" unicode="&#x130;" horiz-adv-x="493" 
d="M-77 0l354 1421h293l-354 -1421h-293zM589 1587h-249l62 248h249z" />
    <glyph glyph-name="idotless" unicode="&#x131;" horiz-adv-x="493" 
d="M-77 0l354 1421h293l-354 -1421h-293z" />
    <glyph glyph-name="Jcircumflex" unicode="&#x134;" 
d="M1570 1421l-270 -1086q-35 -139 -158 -237t-262 -98h-957l73 292h912q37 0 69 26t41 62l260 1041h292zM1352 1550h-278l261 297q35 40 94.5 64t122.5 24q64 0 111 -24t63 -64l113 -297h-279l-63 165z" />
    <glyph glyph-name="jcircumflex" unicode="&#x135;" 
d="M1570 1421l-270 -1086q-35 -139 -158 -237t-262 -98h-957l73 292h912q37 0 69 26t41 62l260 1041h292zM1352 1550h-278l261 297q35 40 94.5 64t122.5 24q64 0 111 -24t63 -64l113 -297h-279l-63 165z" />
    <glyph glyph-name="Lmiddledot" unicode="&#x13f;" 
d="M277 1421h293l-259 -1041q-3 -12 -3 -22q0 -29 19 -47.5t50 -18.5h912l-73 -292h-957q-117 0 -190 71.5t-73 181.5q0 38 11 82zM827 835h249l-62 -249h-249z" />
    <glyph glyph-name="lmiddledot" unicode="&#x140;" 
d="M277 1421h293l-259 -1041q-3 -12 -3 -22q0 -29 19 -47.5t50 -18.5h912l-73 -292h-957q-117 0 -190 71.5t-73 181.5q0 38 11 82zM827 835h249l-62 -249h-249z" />
    <glyph glyph-name="Lslash" unicode="&#x141;" horiz-adv-x="1806" 
d="M1529 0h-957q-119 0 -191 72t-72 178q0 38 11 85l55 223l-385 -208l44 175l385 208l171 688h293l-126 -505l470 254l-44 -175l-469 -254l-90 -361q-3 -12 -3 -22q0 -25 17 -45.5t52 -20.5h912z" />
    <glyph glyph-name="lslash" unicode="&#x142;" horiz-adv-x="1806" 
d="M1529 0h-957q-119 0 -191 72t-72 178q0 38 11 85l55 223l-385 -208l44 175l385 208l171 688h293l-126 -505l470 254l-44 -175l-469 -254l-90 -361q-3 -12 -3 -22q0 -25 17 -45.5t52 -20.5h912z" />
    <glyph glyph-name="Ncaron" unicode="&#x147;" horiz-adv-x="1626" 
d="M-77 0l270 1085q35 139 158 237.5t262 98.5h188q117 0 189.5 -71.5t72.5 -181.5q0 -37 -11 -83l-175 -705q-3 -10 -3 -21q0 -29 19.5 -48t49.5 -19h98q37 0 69 26t41 62l259 1041h293l-270 -1086q-35 -139 -158 -237t-262 -98h-188q-117 0 -189.5 71.5t-72.5 181.5
q0 38 11 82l175 705q3 10 3 22q0 29 -19 47.5t-50 18.5h-98q-37 0 -69 -25.5t-41 -62.5l-259 -1040h-293zM989 1835l63 -165l145 165h279l-262 -297q-35 -40 -94 -64t-123 -24t-111 24t-62 64l-114 297h279z" />
    <glyph glyph-name="ncaron" unicode="&#x148;" horiz-adv-x="1626" 
d="M-77 0l270 1085q35 139 158 237.5t262 98.5h188q117 0 189.5 -71.5t72.5 -181.5q0 -37 -11 -83l-175 -705q-3 -10 -3 -21q0 -29 19.5 -48t49.5 -19h98q37 0 69 26t41 62l259 1041h293l-270 -1086q-35 -139 -158 -237t-262 -98h-188q-117 0 -189.5 71.5t-72.5 181.5
q0 38 11 82l175 705q3 10 3 22q0 29 -19 47.5t-50 18.5h-98q-37 0 -69 -25.5t-41 -62.5l-259 -1040h-293zM989 1835l63 -165l145 165h279l-262 -297q-35 -40 -94 -64t-123 -24t-111 24t-62 64l-114 297h279z" />
    <glyph glyph-name="Omacron" unicode="&#x14c;" 
d="M1235 1421q117 0 189.5 -72t72.5 -183q0 -41 -10 -81l-187 -750q-35 -139 -158 -237t-262 -98h-621q-117 0 -190 71.5t-73 181.5q0 43 11 82l187 750q34 139 157 237.5t262 98.5h622zM1183 1040q2 14 2 21q0 29 -19 48t-49 19h-532q-37 0 -69 -25.5t-41 -62.5l-164 -660
q-3 -12 -3 -22q0 -24 13 -40q19 -26 56 -26h531q35 0 69 26q31 25 41 62zM1339 1587h-749l62 248h749z" />
    <glyph glyph-name="omacron" unicode="&#x14d;" 
d="M1235 1421q117 0 189.5 -72t72.5 -183q0 -41 -10 -81l-187 -750q-35 -139 -158 -237t-262 -98h-621q-117 0 -190 71.5t-73 181.5q0 43 11 82l187 750q34 139 157 237.5t262 98.5h622zM1183 1040q2 14 2 21q0 29 -19 48t-49 19h-532q-37 0 -69 -25.5t-41 -62.5l-164 -660
q-3 -12 -3 -22q0 -24 13 -40q19 -26 56 -26h531q35 0 69 26q31 25 41 62zM1339 1587h-749l62 248h749z" />
    <glyph glyph-name="OE" unicode="&#x152;" horiz-adv-x="2500" 
d="M908 292q36 0 68 25.5t42 62.5l164 660q3 12 3 23q0 25 -17 45t-52 20h-531q-37 0 -68.5 -25.5t-41.5 -62.5l-164 -660q-3 -12 -3 -22q0 -29 19 -47.5t50 -18.5h531zM2223 0h-958q-109 0 -177 60q-99 -60 -208 -60h-621q-119 0 -191 72t-72 178q0 38 11 85l186 750
q35 140 157.5 238t262.5 98h621q109 0 178 -60q99 60 207 60h958l-73 -293h-913q-36 0 -68 -25.5t-42 -62.5l-23 -95q-3 -12 -3 -22q0 -25 17 -45.5t52 -20.5h913l-73 -292q-160 0 -458 -1t-456 -1q-36 0 -68 -25.5t-42 -62.5l-23 -95q-3 -12 -3 -22q0 -25 17 -45.5
t52 -20.5h913z" />
    <glyph glyph-name="oe" unicode="&#x153;" horiz-adv-x="2500" 
d="M908 292q36 0 68 25.5t42 62.5l164 660q3 12 3 23q0 25 -17 45t-52 20h-531q-37 0 -68.5 -25.5t-41.5 -62.5l-164 -660q-3 -12 -3 -22q0 -29 19 -47.5t50 -18.5h531zM2223 0h-958q-109 0 -177 60q-99 -60 -208 -60h-621q-119 0 -191 72t-72 178q0 38 11 85l186 750
q35 140 157.5 238t262.5 98h621q109 0 178 -60q99 60 207 60h958l-73 -293h-913q-36 0 -68 -25.5t-42 -62.5l-23 -95q-3 -12 -3 -22q0 -25 17 -45.5t52 -20.5h913l-73 -292q-160 0 -458 -1t-456 -1q-36 0 -68 -25.5t-42 -62.5l-23 -95q-3 -12 -3 -22q0 -25 17 -45.5
t52 -20.5h913z" />
    <glyph glyph-name="Rcaron" unicode="&#x158;" horiz-adv-x="1494" 
d="M1093 677l89 359q3 12 3 23q0 30 -20 49.5t-52 19.5h-616l-135 -543h621q37 2 68.5 28.5t41.5 63.5zM924 0l51 204q2 7 2 21q0 28 -17.5 46.5t-45.5 20.5h-625l-73 -292h-293l354 1421h965q114 0 185.5 -71t71.5 -179q0 -40 -10 -79l-118 -471q-26 -103 -103 -185
q21 -48 21 -106q0 -41 -10 -81l-63 -249h-292zM922 1835l63 -165l145 165h279l-262 -297q-35 -40 -94 -64t-123 -24t-111 24t-62 64l-114 297h279z" />
    <glyph glyph-name="rcaron" unicode="&#x159;" horiz-adv-x="1494" 
d="M1093 677l89 359q3 12 3 23q0 30 -20 49.5t-52 19.5h-616l-135 -543h621q37 2 68.5 28.5t41.5 63.5zM924 0l51 204q2 7 2 21q0 28 -17.5 46.5t-45.5 20.5h-625l-73 -292h-293l354 1421h965q114 0 185.5 -71t71.5 -179q0 -40 -10 -79l-118 -471q-26 -103 -103 -185
q21 -48 21 -106q0 -41 -10 -81l-63 -249h-292zM922 1835l63 -165l145 165h279l-262 -297q-35 -40 -94 -64t-123 -24t-111 24t-62 64l-114 297h279z" />
    <glyph glyph-name="Scircumflex" unicode="&#x15c;" 
d="M1042 475q3 10 3 22q0 29 -19 48t-50 19h-577q-117 0 -189.5 72t-72.5 183q0 41 10 81l47 185q34 139 157 237.5t262 98.5h957l-73 -293h-912q-37 0 -69 -25.5t-41 -62.5l-24 -95q-3 -11 -3 -21q0 -29 19.5 -48t49.5 -19h577q117 0 189.5 -72.5t72.5 -183.5
q0 -41 -10 -81l-46 -185q-35 -139 -158 -237t-262 -98h-957l73 292h912q37 0 69 26t41 62zM852 1550h-279l262 297q35 40 94 64t123 24t111 -24t63 -64l113 -297h-279l-63 165z" />
    <glyph glyph-name="scircumflex" unicode="&#x15d;" 
d="M1042 475q3 10 3 22q0 29 -19 48t-50 19h-577q-117 0 -189.5 72t-72.5 183q0 41 10 81l47 185q34 139 157 237.5t262 98.5h957l-73 -293h-912q-37 0 -69 -25.5t-41 -62.5l-24 -95q-3 -11 -3 -21q0 -29 19.5 -48t49.5 -19h577q117 0 189.5 -72.5t72.5 -183.5
q0 -41 -10 -81l-46 -185q-35 -139 -158 -237t-262 -98h-957l73 292h912q37 0 69 26t41 62zM852 1550h-279l262 297q35 40 94 64t123 24t111 -24t63 -64l113 -297h-279l-63 165z" />
    <glyph glyph-name="Scaron" unicode="&#x160;" 
d="M1042 475q3 10 3 22q0 29 -19 48t-50 19h-577q-117 0 -189.5 72t-72.5 183q0 41 10 81l47 185q34 139 157 237.5t262 98.5h957l-73 -293h-912q-37 0 -69 -25.5t-41 -62.5l-24 -95q-3 -11 -3 -21q0 -29 19.5 -48t49.5 -19h577q117 0 189.5 -72.5t72.5 -183.5
q0 -41 -10 -81l-46 -185q-35 -139 -158 -237t-262 -98h-957l73 292h912q37 0 69 26t41 62zM923 1835l63 -165l145 165h279l-262 -297q-35 -40 -94 -64t-123 -24t-111 24t-62 64l-114 297h279z" />
    <glyph glyph-name="scaron" unicode="&#x161;" 
d="M1042 475q3 10 3 22q0 29 -19 48t-50 19h-577q-117 0 -189.5 72t-72.5 183q0 41 10 81l47 185q34 139 157 237.5t262 98.5h957l-73 -293h-912q-37 0 -69 -25.5t-41 -62.5l-24 -95q-3 -11 -3 -21q0 -29 19.5 -48t49.5 -19h577q117 0 189.5 -72.5t72.5 -183.5
q0 -41 -10 -81l-46 -185q-35 -139 -158 -237t-262 -98h-957l73 292h912q37 0 69 26t41 62zM923 1835l63 -165l145 165h279l-262 -297q-35 -40 -94 -64t-123 -24t-111 24t-62 64l-114 297h279z" />
    <glyph glyph-name="Tcaron" unicode="&#x164;" horiz-adv-x="1494" 
d="M423 0l259 1040q3 12 3 22q0 29 -19 47.5t-50 18.5h-412l73 293h1294l-73 -293h-413q-36 0 -68 -25.5t-42 -62.5l-259 -1040h-293zM923 1835l63 -165l145 165h279l-262 -297q-35 -40 -94 -64t-123 -24t-111 24t-62 64l-114 297h279z" />
    <glyph glyph-name="tcaron" unicode="&#x165;" horiz-adv-x="1494" 
d="M423 0l259 1040q3 12 3 22q0 29 -19 47.5t-50 18.5h-412l73 293h1294l-73 -293h-413q-36 0 -68 -25.5t-42 -62.5l-259 -1040h-293zM923 1835l63 -165l145 165h279l-262 -297q-35 -40 -94 -64t-123 -24t-111 24t-62 64l-114 297h279z" />
    <glyph glyph-name="Tbar" unicode="&#x166;" horiz-adv-x="1494" 
d="M716 0h-293l162 650h-369l51 204h369l46 186q3 12 3 23q0 25 -17 45t-52 20h-412l73 293h1294l-73 -293h-413q-36 0 -68 -25.5t-42 -62.5l-46 -186h370l-51 -204h-370z" />
    <glyph glyph-name="tbar" unicode="&#x167;" horiz-adv-x="1494" 
d="M716 0h-293l162 650h-369l51 204h369l46 186q3 12 3 23q0 25 -17 45t-52 20h-412l73 293h1294l-73 -293h-413q-36 0 -68 -25.5t-42 -62.5l-46 -186h370l-51 -204h-370z" />
    <glyph glyph-name="Utilde" unicode="&#x168;" 
d="M909 292q36 0 68 26t41 62l260 1041h292l-270 -1086q-35 -139 -158 -237t-262 -98h-621q-117 0 -190 71.5t-73 181.5q0 43 11 82l270 1086h293l-259 -1041q-3 -12 -3 -22q0 -29 19 -47.5t50 -18.5h532zM1291 1833h212l-24 -98q-19 -79 -103.5 -134.5t-183.5 -55.5h-124
q-74 4 -124 40t-58 92v3q-1 17 -16.5 28t-38.5 11h-30q-28 0 -51.5 -15.5t-28.5 -37.5l-17 -66h-212l24 98q19 79 103.5 134.5t183.5 55.5h124q74 -4 123.5 -40t58.5 -93v-2q1 -17 16.5 -28t38.5 -11h30q28 0 51.5 15.5t28.5 37.5z" />
    <glyph glyph-name="utilde" unicode="&#x169;" 
d="M909 292q36 0 68 26t41 62l260 1041h292l-270 -1086q-35 -139 -158 -237t-262 -98h-621q-117 0 -190 71.5t-73 181.5q0 43 11 82l270 1086h293l-259 -1041q-3 -12 -3 -22q0 -29 19 -47.5t50 -18.5h532zM1291 1833h212l-24 -98q-19 -79 -103.5 -134.5t-183.5 -55.5h-124
q-74 4 -124 40t-58 92v3q-1 17 -16.5 28t-38.5 11h-30q-28 0 -51.5 -15.5t-28.5 -37.5l-17 -66h-212l24 98q19 79 103.5 134.5t183.5 55.5h124q74 -4 123.5 -40t58.5 -93v-2q1 -17 16.5 -28t38.5 -11h30q28 0 51.5 15.5t28.5 37.5z" />
    <glyph glyph-name="Umacron" unicode="&#x16a;" 
d="M909 292q36 0 68 26t41 62l260 1041h292l-270 -1086q-35 -139 -158 -237t-262 -98h-621q-117 0 -190 71.5t-73 181.5q0 43 11 82l270 1086h293l-259 -1041q-3 -12 -3 -22q0 -29 19 -47.5t50 -18.5h532zM1339 1587h-749l62 248h749z" />
    <glyph glyph-name="umacron" unicode="&#x16b;" 
d="M909 292q36 0 68 26t41 62l260 1041h292l-270 -1086q-35 -139 -158 -237t-262 -98h-621q-117 0 -190 71.5t-73 181.5q0 43 11 82l270 1086h293l-259 -1041q-3 -12 -3 -22q0 -29 19 -47.5t50 -18.5h532zM1339 1587h-749l62 248h749z" />
    <glyph glyph-name="Wcircumflex" unicode="&#x174;" horiz-adv-x="2192" 
d="M277 1421h292l-259 -1041q-3 -10 -3 -21q0 -29 19.5 -48t49.5 -19h98q37 0 69 26t41 62l103 413q35 139 157.5 237.5t261.5 98.5h187q117 0 190 -72t73 -183q0 -41 -10 -81l-103 -413q-3 -10 -3 -21q0 -29 19 -48t50 -19h98q37 0 69 26t41 62l259 1041h293l-270 -1086
q-35 -139 -158 -237t-262 -98h-188q-117 0 -190 71.5t-73 181.5q0 43 11 82l102 413q3 12 3 22q0 29 -19 47.5t-50 18.5h-97q-37 0 -68.5 -25.5t-41.5 -62.5l-102 -413q-35 -139 -158 -237t-262 -98h-188q-117 0 -189.5 71.5t-72.5 181.5q0 43 11 82zM1201 1550h-279
l262 297q35 40 94 64t123 24t111 -24t62 -64l114 -297h-279l-63 165z" />
    <glyph glyph-name="wcircumflex" unicode="&#x175;" horiz-adv-x="2192" 
d="M277 1421h292l-259 -1041q-3 -10 -3 -21q0 -29 19.5 -48t49.5 -19h98q37 0 69 26t41 62l103 413q35 139 157.5 237.5t261.5 98.5h187q117 0 190 -72t73 -183q0 -41 -10 -81l-103 -413q-3 -10 -3 -21q0 -29 19 -48t50 -19h98q37 0 69 26t41 62l259 1041h293l-270 -1086
q-35 -139 -158 -237t-262 -98h-188q-117 0 -190 71.5t-73 181.5q0 43 11 82l102 413q3 12 3 22q0 29 -19 47.5t-50 18.5h-97q-37 0 -68.5 -25.5t-41.5 -62.5l-102 -413q-35 -139 -158 -237t-262 -98h-188q-117 0 -189.5 71.5t-72.5 181.5q0 43 11 82zM1201 1550h-279
l262 297q35 40 94 64t123 24t111 -24t62 -64l114 -297h-279l-63 165z" />
    <glyph glyph-name="Ycircumflex" unicode="&#x176;" 
d="M1049 857q37 0 69 25.5t41 62.5l119 476h292l-130 -521q-34 -139 -157 -237.5t-262 -98.5h-165l-140 -564h-293l141 564h-165q-117 0 -189.5 72t-72.5 183q0 41 10 81l130 521h293l-119 -476q-2 -7 -2 -21q0 -30 18.5 -48.5t49.5 -18.5h532zM852 1550h-278l262 297
q34 40 93.5 64t122.5 24q64 0 111.5 -24t62.5 -64l113 -297h-278l-63 165z" />
    <glyph glyph-name="ycircumflex" unicode="&#x177;" 
d="M1049 857q37 0 69 25.5t41 62.5l119 476h292l-130 -521q-34 -139 -157 -237.5t-262 -98.5h-165l-140 -564h-293l141 564h-165q-117 0 -189.5 72t-72.5 183q0 41 10 81l130 521h293l-119 -476q-2 -7 -2 -21q0 -30 18.5 -48.5t49.5 -18.5h532zM852 1550h-278l262 297
q34 40 93.5 64t122.5 24q64 0 111.5 -24t62.5 -64l113 -297h-278l-63 165z" />
    <glyph glyph-name="Ydieresis" unicode="&#x178;" 
d="M1049 857q37 0 69 25.5t41 62.5l119 476h292l-130 -521q-34 -139 -157 -237.5t-262 -98.5h-165l-140 -564h-293l141 564h-165q-117 0 -189.5 72t-72.5 183q0 41 10 81l130 521h293l-119 -476q-2 -7 -2 -21q0 -30 18.5 -48.5t49.5 -18.5h532zM890 1587h-249l62 248h249z
M1290 1587h-249l62 248h249z" />
    <glyph glyph-name="Zdotaccent" unicode="&#x17b;" 
d="M334 475l-23 -95q-3 -12 -3 -22q0 -29 19 -47.5t50 -18.5h912l-73 -292h-957q-117 0 -190 71.5t-73 181.5q0 43 11 82l46 185q34 139 157 238t262 99h577q37 0 69 26t41 62l24 95q2 14 2 21q0 29 -19 48t-49 19h-913l73 293h958q117 0 189.5 -72t72.5 -183q0 -41 -10 -81
l-46 -185q-35 -139 -158 -237.5t-262 -98.5h-577q-36 0 -68.5 -26t-41.5 -63zM1089 1587h-249l62 248h249z" />
    <glyph glyph-name="zdotaccent" unicode="&#x17c;" 
d="M334 475l-23 -95q-3 -12 -3 -22q0 -29 19 -47.5t50 -18.5h912l-73 -292h-957q-117 0 -190 71.5t-73 181.5q0 43 11 82l46 185q34 139 157 238t262 99h577q37 0 69 26t41 62l24 95q2 14 2 21q0 29 -19 48t-49 19h-913l73 293h958q117 0 189.5 -72t72.5 -183q0 -41 -10 -81
l-46 -185q-35 -139 -158 -237.5t-262 -98.5h-577q-36 0 -68.5 -26t-41.5 -63zM1089 1587h-249l62 248h249z" />
    <glyph glyph-name="Zcaron" unicode="&#x17d;" 
d="M334 475l-23 -95q-3 -12 -3 -22q0 -29 19 -47.5t50 -18.5h912l-73 -292h-957q-117 0 -190 71.5t-73 181.5q0 43 11 82l46 185q34 139 157 238t262 99h577q37 0 69 26t41 62l24 95q2 14 2 21q0 29 -19 48t-49 19h-913l73 293h958q117 0 189.5 -72t72.5 -183q0 -41 -10 -81
l-46 -185q-35 -139 -158 -237.5t-262 -98.5h-577q-36 0 -68.5 -26t-41.5 -63zM923 1835l63 -165l145 165h279l-262 -297q-35 -40 -94 -64t-123 -24t-111 24t-62 64l-114 297h279z" />
    <glyph glyph-name="zcaron" unicode="&#x17e;" 
d="M334 475l-23 -95q-3 -12 -3 -22q0 -29 19 -47.5t50 -18.5h912l-73 -292h-957q-117 0 -190 71.5t-73 181.5q0 43 11 82l46 185q34 139 157 238t262 99h577q37 0 69 26t41 62l24 95q2 14 2 21q0 29 -19 48t-49 19h-913l73 293h958q117 0 189.5 -72t72.5 -183q0 -41 -10 -81
l-46 -185q-35 -139 -158 -237.5t-262 -98.5h-577q-36 0 -68.5 -26t-41.5 -63zM923 1835l63 -165l145 165h279l-262 -297q-35 -40 -94 -64t-123 -24t-111 24t-62 64l-114 297h279z" />
    <glyph glyph-name="circumflexcomb" unicode="&#x302;" horiz-adv-x="966" 
d="M588 1550h-279l262 297q35 40 94 64t123 24t111 -24t63 -64l113 -297h-279l-63 165z" />
    <glyph glyph-name="tildecomb" unicode="&#x303;" horiz-adv-x="1154" 
d="M1121 1833h213l-25 -98q-20 -79 -103.5 -134.5t-183.5 -55.5h-124q-74 4 -123.5 40t-58.5 92v3q-2 17 -17 28t-38 11h-29q-28 0 -52 -15.5t-29 -37.5l-16 -66h-213l24 98q20 79 104 134.5t183 55.5h125q73 -4 123 -40t58 -93q0 -1 1 -2q2 -17 17 -28t37 -11h30
q28 0 51.5 15.5t29.5 37.5z" />
    <glyph glyph-name="macroncomb" unicode="&#x304;" horiz-adv-x="949" 
d="M1068 1587h-749l61 248h749z" />
    <glyph glyph-name="dotaccentcomb" unicode="&#x307;" horiz-adv-x="449" 
d="M568 1587h-249l61 248h249z" />
    <glyph glyph-name="dieresiscomb" unicode="&#x308;" horiz-adv-x="849" 
d="M568 1587h-249l61 248h249zM968 1587h-249l61 248h249z" />
    <glyph glyph-name="caroncomb" unicode="&#x30c;" horiz-adv-x="966" 
d="M659 1835l63 -165l145 165h279l-262 -297q-35 -40 -94 -64t-123 -24t-111 24t-62 64l-114 297h279z" />
    <glyph glyph-name="Wdieresis" unicode="&#x1e84;" horiz-adv-x="2192" 
d="M277 1421h292l-259 -1041q-3 -10 -3 -21q0 -29 19.5 -48t49.5 -19h98q37 0 69 26t41 62l103 413q35 139 157.5 237.5t261.5 98.5h187q117 0 190 -72t73 -183q0 -41 -10 -81l-103 -413q-3 -10 -3 -21q0 -29 19 -48t50 -19h98q37 0 69 26t41 62l259 1041h293l-270 -1086
q-35 -139 -158 -237t-262 -98h-188q-117 0 -190 71.5t-73 181.5q0 43 11 82l102 413q3 12 3 22q0 29 -19 47.5t-50 18.5h-97q-37 0 -68.5 -25.5t-41.5 -62.5l-102 -413q-35 -139 -158 -237t-262 -98h-188q-117 0 -189.5 71.5t-72.5 181.5q0 43 11 82zM1238 1587h-249l62 248
h249zM1638 1587h-249l62 248h249z" />
    <glyph glyph-name="wdieresis" unicode="&#x1e85;" horiz-adv-x="2192" 
d="M277 1421h292l-259 -1041q-3 -10 -3 -21q0 -29 19.5 -48t49.5 -19h98q37 0 69 26t41 62l103 413q35 139 157.5 237.5t261.5 98.5h187q117 0 190 -72t73 -183q0 -41 -10 -81l-103 -413q-3 -10 -3 -21q0 -29 19 -48t50 -19h98q37 0 69 26t41 62l259 1041h293l-270 -1086
q-35 -139 -158 -237t-262 -98h-188q-117 0 -190 71.5t-73 181.5q0 43 11 82l102 413q3 12 3 22q0 29 -19 47.5t-50 18.5h-97q-37 0 -68.5 -25.5t-41.5 -62.5l-102 -413q-35 -139 -158 -237t-262 -98h-188q-117 0 -189.5 71.5t-72.5 181.5q0 43 11 82zM1238 1587h-249l62 248
h249zM1638 1587h-249l62 248h249z" />
    <glyph glyph-name="endash" unicode="&#x2013;" horiz-adv-x="1232" 
d="M158 857h1032l-59 -292h-1032z" />
    <glyph glyph-name="emdash" unicode="&#x2014;" horiz-adv-x="2264" 
d="M74 857h2064l-117 -292h-2064z" />
    <glyph glyph-name="quoteleft" unicode="&#x2018;" horiz-adv-x="493" 
d="M150 909l127 512l238 -219l-73 -293h-292z" />
    <glyph glyph-name="quoteright" unicode="&#x2019;" horiz-adv-x="493" 
d="M570 1421l-128 -512l-238 219l73 293h293z" />
    <glyph glyph-name="quotesinglbase" unicode="&#x201a;" horiz-adv-x="493" 
d="M296 321l-128 -512l-238 219l73 293h293z" />
    <glyph glyph-name="quotedblleft" unicode="&#x201c;" horiz-adv-x="853" 
d="M150 909l127 512l238 -219l-73 -293h-292zM510 909l127 512l238 -219l-73 -293h-292z" />
    <glyph glyph-name="quotedblright" unicode="&#x201d;" horiz-adv-x="853" 
d="M930 1421l-128 -512l-238 219l73 293h293zM570 1421l-128 -512l-238 219l73 293h293z" />
    <glyph glyph-name="quotedblbase" unicode="&#x201e;" horiz-adv-x="853" 
d="M656 321l-128 -512l-238 219l73 293h293zM296 321l-128 -512l-238 219l73 293h293z" />
    <glyph glyph-name="ellipsis" unicode="&#x2026;" horiz-adv-x="1859" 
d="M-4 292h293l-73 -292h-293zM679 292h293l-73 -292h-293zM1362 292h293l-73 -292h-293z" />
    <glyph glyph-name="perthousand" unicode="&#x2030;" horiz-adv-x="3339" 
d="M759 945l24 95q3 10 3 21q0 29 -19 48t-50 19h-132q-37 0 -69 -25.5t-41 -62.5l-24 -95q-3 -11 -3 -21q0 -29 19 -48t50 -19h132q37 0 69 25.5t41 62.5zM1914 380l24 95q3 11 3 21q0 29 -19 48t-50 19h-132q-37 0 -69 -25.5t-41 -62.5l-24 -95q-3 -10 -3 -21
q0 -29 19.5 -48t50.5 -19h131q37 0 69 25.5t41 62.5zM422 -1l1198 1422h347l-1198 -1422h-347zM1776 -1h-221q-117 0 -190 71.5t-73 182.5q0 38 11 82l46 185q34 139 157 237.5t262 98.5h222q117 0 189.5 -72t72.5 -183q0 -41 -10 -81l-46 -185q-35 -139 -158 -237.5
t-262 -98.5zM621 564h-222q-117 0 -189.5 72t-72.5 183q0 41 10 81l47 185q35 139 157.5 237.5t261.5 98.5h222q117 0 189.5 -72t72.5 -183q0 -41 -10 -81l-47 -185q-35 -139 -157.5 -237.5t-261.5 -98.5zM2864 380l24 95q3 11 3 21q0 29 -19 48t-50 19h-132
q-37 0 -69 -25.5t-41 -62.5l-24 -95q-3 -10 -3 -21q0 -29 19.5 -48t50.5 -19h131q37 0 69 25.5t41 62.5zM2726 -1h-221q-117 0 -190 71.5t-73 182.5q0 38 11 82l46 185q34 139 157 237.5t262 98.5h222q117 0 189.5 -72t72.5 -183q0 -41 -10 -81l-46 -185
q-35 -139 -158 -237.5t-262 -98.5z" />
    <glyph glyph-name="guilsinglleft" unicode="&#x2039;" horiz-adv-x="1112" 
d="M955 481l-82 -329l-679 327q-49 24 -75.5 69t-26.5 101q0 27 8 61q19 75 76 138t133 93l842 327l-82 -330l-588 -228z" />
    <glyph glyph-name="guilsinglright" unicode="&#x203a;" horiz-adv-x="1112" 
d="M43 481l588 229l-474 228l82 330l679 -327q49 -24 75.5 -69t26.5 -101q0 -27 -8 -61q-19 -75 -76 -138t-133 -93l-842 -327z" />
    <glyph glyph-name="minus" unicode="&#x2212;" horiz-adv-x="1124" 
d="M137 856h924l-73 -292h-924z" />
    <glyph glyph-name="almostequalto" unicode="&#x2248;" horiz-adv-x="1154" 
d="M969 1052h213l-31 -98q-25 -79 -112.5 -135.5t-186.5 -56.5q-120 1 -124 1q-74 3 -121.5 39.5t-51.5 93.5l-1 2q0 17 -15 28.5t-37 11.5h-30q-28 0 -52 -15.5t-32 -38.5l-20 -66h-213l31 98q25 79 112.5 135.5t186.5 56.5l124 -1q74 -3 121.5 -39.5t51.5 -93.5l1 -2
q0 -17 14 -28t37 -11h30q28 0 52.5 15.5t31.5 37.5zM861 620h213l-31 -98q-25 -79 -112.5 -135.5t-186.5 -56.5q-120 1 -124 1q-74 3 -121.5 39.5t-51.5 93.5v2q-1 17 -15.5 28.5t-37.5 11.5h-29q-28 0 -52.5 -15.5t-31.5 -38.5l-21 -66h-213l31 98q25 79 112.5 135.5
t186.5 56.5l124 -1q73 -3 121 -39.5t53 -93.5v-2q1 -17 15.5 -28t36.5 -11h30q28 0 52 15.5t32 37.5z" />
    <glyph glyph-name="notequalto" unicode="&#x2260;" horiz-adv-x="1124" 
d="M273 150h-208l141 203h-195l73 293h326l101 146h-391l73 293h522l140 202h208l-140 -202h194l-73 -293h-325l-101 -146h390l-73 -293h-521z" />
    <glyph glyph-name="lessthanorequalto" unicode="&#x2264;" horiz-adv-x="1124" 
d="M1023 683l-82 -296l-679 294q-48 22 -74.5 62t-26.5 91q0 28 7 55q19 68 76 124.5t133 83.5l842 294l-82 -297l-588 -205zM-4 293h924l-73 -293h-924z" />
    <glyph glyph-name="greaterthanorequalto" unicode="&#x2265;" horiz-adv-x="1124" 
d="M111 683l588 206l-474 205l82 297l679 -294q48 -22 75 -62t27 -91q0 -25 -8 -55q-19 -68 -76 -124.5t-133 -83.5l-842 -294zM-4 293h924l-73 -293h-924z" />
    </font>
</defs>
</svg>
