<?xml version="1.0" standalone="no"?>
<!DOCTYPE svg PUBLIC "-//W3C//DTD SVG 1.1//EN" "http://www.w3.org/Graphics/SVG/1.1/DTD/svg11.dtd" >
<svg xmlns="http://www.w3.org/2000/svg" xmlns:xlink="http://www.w3.org/1999/xlink" version="1.1">
<metadata>
Created by FontForge 20170731 at Wed Aug 17 20:59:54 2022
 By Aleksey,,,
EMOTIQ (c) Enxyclo Studio. 2022. All Rights Reserved
</metadata>
<defs>
<font id="EMOTIQBold" horiz-adv-x="1573" >
  <font-face 
    font-family="EMOTIQ"
    font-weight="700"
    font-stretch="normal"
    units-per-em="2048"
    panose-1="2 0 8 0 2 0 0 0 0 0"
    ascent="1638"
    descent="-410"
    x-height="1421"
    cap-height="1422"
    bbox="-190 -421 3369 1935"
    underline-thickness="51"
    underline-position="-152"
    unicode-range="U+0020-2265"
  />
<missing-glyph horiz-adv-x="1024" 
d="M924 0h-824v1434h824v-1434zM874 50v1334h-724v-1334h724zM478 454h-32q-35 99 -35 148q0 76 82 218q81 143 81 217q0 57 -33 90t-91 33q-34 0 -61 -13.5t-64 -43.5v45q81 73 170 73q91 0 147.5 -47t56.5 -128q0 -51 -24 -101t-86 -127q-54 -69 -76 -98.5t-40.5 -66.5
t-18.5 -66q0 -39 24 -133zM466 213q-11 0 -20 10l-61 71q-7 8 -7 18q0 9 11 22l57 58q10 10 20 10q9 0 22 -11l56 -60q9 -10 9 -20q0 -12 -10 -22l-56 -62q-14 -14 -21 -14z" />
    <glyph glyph-name=".notdef" horiz-adv-x="1024" 
d="M924 0h-824v1434h824v-1434zM874 50v1334h-724v-1334h724zM478 454h-32q-35 99 -35 148q0 76 82 218q81 143 81 217q0 57 -33 90t-91 33q-34 0 -61 -13.5t-64 -43.5v45q81 73 170 73q91 0 147.5 -47t56.5 -128q0 -51 -24 -101t-86 -127q-54 -69 -76 -98.5t-40.5 -66.5
t-18.5 -66q0 -39 24 -133zM466 213q-11 0 -20 10l-61 71q-7 8 -7 18q0 9 11 22l57 58q10 10 20 10q9 0 22 -11l56 -60q9 -10 9 -20q0 -12 -10 -22l-56 -62q-14 -14 -21 -14z" />
    <glyph glyph-name=".null" horiz-adv-x="0" 
 />
    <glyph glyph-name="nonmarkingreturn" horiz-adv-x="682" 
 />
    <glyph glyph-name="space" unicode=" " horiz-adv-x="600" 
 />
    <glyph glyph-name="space" unicode="&#xa0;" horiz-adv-x="600" 
 />
    <glyph glyph-name="exclam" unicode="!" horiz-adv-x="573" 
d="M473 1422v-1020h-373v1020h373zM100 351h373v-351h-373v351z" />
    <glyph glyph-name="quotedbl" unicode="&#x22;" horiz-adv-x="1000" 
d="M900 1422v-631l-373 278v353h373zM472 1422v-631l-372 278v353h372z" />
    <glyph glyph-name="numbersign" unicode="#" horiz-adv-x="1610" 
d="M753 691h103v42h-103v-42zM1510 733h-281v-42h281v-374h-281v-317h-373v317h-103v-317h-372v317h-281v374h281v42h-281v372h281v317h372v-317h103v317h373v-317h281v-372z" />
    <glyph glyph-name="dollar" unicode="$" 
d="M1100 476q0 20 -14 34t-34 14h-69v-110h-373v110h-135q-155 0 -265 110.5t-110 265.5v146q0 156 110 266t265 110h135v183h373v-183h490v-373h-953q0 2 -3 2q-12 0 -28.5 -14t-16.5 -36v-56q0 -20 14 -34t34 -14h90v111h373v-111h114q156 0 266 -110q110 -112 110 -266
v-145q0 -156 -110 -266t-266 -110h-114v-183h-373v183h-510v373h952q20 0 34 14t14 34v55z" />
    <glyph glyph-name="percent" unicode="%" horiz-adv-x="2469" 
d="M686 930q14 14 14 34v37q0 20 -14 34q-12 14 -34 14h-131q-22 0 -34 -14q-14 -14 -14 -34v-37q0 -20 14 -34q12 -14 34 -14h131q22 0 34 14zM1982 387q14 12 14 34v73q0 22 -14 34q-12 14 -34 14h-131q-22 0 -34 -14q-14 -12 -14 -34v-73q0 -22 14 -34q12 -14 34 -14h131
q22 0 34 14zM569 0l411 672q-10 -12 -17 -19q-110 -110 -266 -110h-221q-156 0 -266 110t-110 266v127q0 156 110 266t266 110h221q156 0 266 -110t110 -266v-127q0 -67 -23 -130l410 633h440l-411 -636q5 7 17 19q110 110 266 110h221q156 0 266 -110t110 -266v-163
q0 -156 -110 -266t-266 -110h-221q-156 0 -266 110t-110 266v163q0 69 23 130l-410 -669h-440z" />
    <glyph glyph-name="ampersand" unicode="&#x26;" horiz-adv-x="1652" 
d="M1070 543h-137v373h619v-373h-111l1 -173q0 -154 -108 -262q-106 -106 -259 -108h-599q-156 0 -266 110t-110 266v170q0 98 49 184q-49 84 -49 183v140q0 153 108 261t261 108h604q153 0 261.5 -108t108.5 -261v-101h-373v46q0 22 -15 37t-37 15l-493 -1q-22 0 -37 -15
t-15 -37v-29q0 -22 15 -37t37 -15h195v-373h-195q-22 0 -37 -15t-15 -37v-70q0 -20 14 -34t34 -14h497q22 0 37 15t15 37v118z" />
    <glyph glyph-name="quotesingle" unicode="'" horiz-adv-x="572" 
d="M472 1422v-631l-372 278v353h372z" />
    <glyph glyph-name="parenleft" unicode="(" horiz-adv-x="874" 
d="M774 -48v-373h-305q-151 0 -261 108q-108 108 -108 262v1523q0 153 108 261q109 109 261 109h305v-373h-249q-23 0 -37 -16q-15 -15 -15 -36v-1413q0 -20 15 -37q17 -15 37 -15h249z" />
    <glyph glyph-name="parenright" unicode=")" horiz-adv-x="874" 
d="M100 -48h249q22 0 37 15q16 16 16 37v1413q0 22 -16 36q-14 16 -37 16h-249v373h305q152 0 261 -109q108 -108 108 -261v-1523q0 -154 -108 -262q-110 -108 -261 -108h-305v373z" />
    <glyph glyph-name="asterisk" unicode="*" horiz-adv-x="845" 
d="M654 1195h91v-192h-91l65 -64l-136 -136l-64 65v-92h-192v91l-65 -64l-135 136l64 64h-91v192h91l-64 65l135 135l65 -64v91h192v-91l64 64l136 -135z" />
    <glyph glyph-name="plus" unicode="+" horiz-adv-x="1204" 
d="M788 916h316v-373h-316v-316h-372v316h-316v373h316v315h372v-315z" />
    <glyph glyph-name="comma" unicode="," horiz-adv-x="572" 
d="M100 372h372v-352l-372 -278v630z" />
    <glyph glyph-name="hyphenminus" unicode="-" horiz-adv-x="1204" 
d="M100 916h1004v-373h-1004v373z" />
    <glyph glyph-name="hyphenminus" unicode="&#xad;" horiz-adv-x="1204" 
d="M100 916h1004v-373h-1004v373z" />
    <glyph glyph-name="period" unicode="." horiz-adv-x="572" 
d="M100 372h372v-372h-372v372z" />
    <glyph glyph-name="slash" unicode="/" horiz-adv-x="1484" 
d="M100 0l843 1422h441l-844 -1422h-440z" />
    <glyph glyph-name="zero" unicode="0" 
d="M967 524h-361v374h361v-374zM1097 1421q156 0 266 -110t110 -265v-671q0 -155 -110 -265t-266 -110h-621q-156 0 -266 110t-110 265v671q0 155 110 265t266 110h621zM1101 1001q0 19 -14.5 33.5t-33.5 14.5h-532q-19 0 -33.5 -14.5t-14.5 -33.5v-581q0 -19 13.5 -33.5
t32.5 -14.5h521q61 0 61 48v581z" />
    <glyph glyph-name="one" unicode="1" horiz-adv-x="745" 
d="M272 1049h-172v373h545v-1422h-373v1049z" />
    <glyph glyph-name="two" unicode="2" 
d="M472 373h1001v-373h-1373v527q0 153 108 261.5t261 108.5l579 1q22 0 37 15t15 37v87q0 22 -15 37q-17 15 -37 15h-948v333h1004q153 0 260 -109q109 -107 109 -261v-158q0 -151 -108 -261q-109 -109 -261 -109h-579q-22 0 -37.5 -15t-15.5 -37v-99z" />
    <glyph glyph-name="three" unicode="3" horiz-adv-x="1575" 
d="M1086 912q14 14 14 34l1 56q0 20 -14 34t-34 14l-951 -1v373h997q156 0 266 -110t110 -266l-2 -145q0 -57 -17 -111q-11 -39 -35 -79q24 -40 35 -79q17 -54 17 -111v-145q0 -156 -110 -266t-266 -110h-997v373h952q22 0 34 14q14 14 14 34v55q0 20 -14 34q-12 14 -34 14
h-952v373l952 1q22 0 34 14z" />
    <glyph glyph-name="four" unicode="4" 
d="M1101 857v565h372v-1422h-373v484h-631q-152 0 -261 109q-108 106 -108 261v568h373v-512q0 -21 15 -38q15 -15 37 -15h576z" />
    <glyph glyph-name="five" unicode="5" horiz-adv-x="1574" 
d="M473 897h631q152 0 260.5 -108.5t108.5 -261.5l1 -159q-1 -153 -109 -261t-261 -108l-1003 2v371h948q22 0 36.5 15t14.5 37v48q0 22 -15 37t-37 15l-948 1v896h1373v-372h-1000v-152z" />
    <glyph glyph-name="six" unicode="6" 
d="M525 373h523q22 0 37 15t15 37v48q0 22 -15 37.5t-37 15.5h-575v-101q0 -22 15 -37t37 -15zM1473 1049h-948q-23 0 -37 -15q-15 -14 -15 -37v-99h631q153 0 261 -108t108 -261v-159q0 -155 -108 -261q-109 -109 -261 -109h-635q-152 0 -261 109q-108 106 -108 261v683
q0 153 108 261t261 108q168 0 502.5 -0.5t501.5 -0.5v-372z" />
    <glyph glyph-name="seven" unicode="7" 
d="M825 0h-373v527q0 155 108 261q107 107 261 109h227q22 1 37 16t15 37v46q0 22 -15 37.5t-37 15.5h-948v373h1004q153 0 261 -108.5t108 -261.5v-158q0 -153 -108 -261q-109 -109 -261 -109h-227q-22 0 -37 -15t-15 -37v-472z" />
    <glyph glyph-name="eight" unicode="8" 
d="M473 946q0 -20 14 -34t34 -14h531q20 0 34 14t14 34v55q0 20 -14 34t-34 14h-531q-20 0 -34 -14t-14 -34v-55zM521 524q-20 0 -34 -14t-14 -34v-55q0 -20 14 -34t34 -14h531q20 0 34 14t14 34v55q0 20 -14 34t-34 14h-531zM476 0q-156 0 -266 110t-110 266v145
q0 101 52 190q-52 89 -52 190v145q0 156 110 266t266 110h621q156 0 266 -110t110 -266v-145q0 -101 -52 -190q52 -89 52 -190v-145q0 -156 -110 -266t-266 -110h-621z" />
    <glyph glyph-name="nine" unicode="9" 
d="M1048 1050h-523q-22 0 -37 -15.5t-15 -37.5v-47q0 -22 15 -37.5t37 -15.5h575v100q0 22 -15 37q-14 16 -37 16zM100 374q158 0 474 -0.5t474 -0.5q22 0 37 15t15 37v100h-631q-153 0 -261 108t-108 261v159q0 153 108 261t261 108h635q153 0 261 -108t108 -261v-683
q0 -153 -108 -261.5t-261 -108.5q-335 1 -1004 1v373z" />
    <glyph glyph-name="colon" unicode=":" horiz-adv-x="572" 
d="M100 1131h372v-372h-372v372zM100 699h372v-372h-372v372z" />
    <glyph glyph-name="semicolon" unicode=";" horiz-adv-x="572" 
d="M100 372h372v-352l-372 -278v630zM100 1153h372v-373h-372v373z" />
    <glyph glyph-name="less" unicode="&#x3c;" horiz-adv-x="1192" 
d="M1068 537l24 -10v-416l-816 351q-79 34 -128 107q-48 73 -48 160q0 89 48 160q48 73 128 108l816 351v-417l-469 -202z" />
    <glyph glyph-name="equal" unicode="=" horiz-adv-x="1204" 
d="M1104 762h-1004v373h1004v-373zM1104 323h-1004v373h1004v-373z" />
    <glyph glyph-name="greater" unicode="&#x3e;" horiz-adv-x="1192" 
d="M124 537l446 192l-470 202v417l816 -351q81 -35 128 -108q48 -71 48 -160q0 -87 -48 -160q-47 -73 -128 -107l-816 -351v416z" />
    <glyph glyph-name="question" unicode="?" 
d="M452 351h372v-351h-372v351zM824 402h-372v144q0 153 108 261t261 108l227 1q22 0 37 15t15 37v28q0 22 -15 37.5t-37 15.5h-948v373h1004q152 0 261 -109q108 -108 108 -261v-139q0 -154 -108 -262t-261 -108h-227q-22 0 -37 -15t-15 -38z" />
    <glyph glyph-name="at" unicode="@" horiz-adv-x="1693" 
d="M740 621h236v180h-236q-10 0 -16.5 -6.5t-6.5 -16.5v-134q0 -9 6.5 -16t16.5 -7zM514 1003q78 78 188 78h554v-437q0 -14 14 -21q6 -2 9 -2h11q3 0 9 2q14 7 14 21v475q0 9 -7 16t-16 7h-887q-10 0 -16.5 -6.5t-6.5 -16.5v-816q0 -9 6.5 -16t16.5 -7h1190v-280h-1228
q-109 0 -187 78t-78 187v892q0 109 78 187t187 78h963q109 0 187 -78t78 -187v-551q0 -109 -78 -187t-187 -78h-112q-65 0 -122 34q-30 17 -53 42q-25 -27 -53 -42q-56 -34 -122 -34h-164q-110 0 -188 78q-77 77 -77 187v210q0 110 77 187z" />
    <glyph glyph-name="A" unicode="A" 
d="M1053 1049h-532q-22 0 -34 -14q-14 -14 -14 -34v-376h627v376q0 10 -3 19q-7 12 -11 15q-5 7 -15 10q-7 4 -18 4zM473 252v-252h-373v1046q0 156 110 266t266 110h621q156 0 266 -110t110 -266v-1046h-373v252h-627z" />
    <glyph glyph-name="B" unicode="B" 
d="M1100 946v55q0 20 -14 34t-34 14h-579v-151h579q20 0 34 14t14 34zM100 1422h997q156 0 266 -110t110 -266v-145q0 -57 -17 -111q-11 -39 -35 -79q24 -40 35 -79q17 -54 17 -111v-145q0 -156 -110 -266t-266 -110h-997v1422zM473 525v-152h579q20 0 34 14t14 34v55
q0 20 -14 34t-34 14z" />
    <glyph glyph-name="C" unicode="C" 
d="M487 1035q-14 -14 -14 -34v-580q0 -10 3 -19q7 -12 11 -15q3 -4 15 -11q9 -3 19 -3h952v-373h-997q-156 0 -266 110t-110 266v670q0 155 110 265.5t266 110.5h997v-373h-952q-20 0 -34 -14z" />
    <glyph glyph-name="D" unicode="D" 
d="M1100 996q0 22 -15 37.5t-37 15.5h-575v-676h575q22 0 37 15t15 37v571zM1104 0h-1004v1422h1004q153 0 261 -108.5t108 -261.5v-683q0 -153 -108 -261t-261 -108z" />
    <glyph glyph-name="E" unicode="E" 
d="M473 946q0 -20 14 -34t34 -14h952v-373q-635 0 -952 -1q-20 0 -34 -14t-14 -34v-55q0 -20 14 -34t34 -14h952v-373h-997q-156 0 -266 110t-110 266v145q0 101 52 190q-52 87 -52 190v145q0 156 110 266q112 110 266 110h997v-373h-952q-20 0 -34 -14t-14 -34v-55z" />
    <glyph glyph-name="F" unicode="F" 
d="M473 946q0 -20 14 -34t34 -14h952v-373l-952 -1q-20 0 -34 -14t-14 -34v-476h-373v521q0 101 52 190q-52 89 -52 190v145q0 156 110 266t266 110h997v-373h-952q-20 0 -34 -14t-14 -34v-55z" />
    <glyph glyph-name="G" unicode="G" 
d="M473 1007v-580q0 -20 14 -34t34 -14h579v103q0 20 -14 34t-34 14h-459v373h504q155 0 265.5 -110t110.5 -266v-521h-997q-156 0 -266 110t-110 266v670q0 156 110 266t266 110h978v-373h-933q-20 0 -34 -14t-14 -34z" />
    <glyph glyph-name="H" unicode="H" 
d="M1100 898v524h373v-1422h-373v524h-627v-524h-373v1422h373v-524h627z" />
    <glyph glyph-name="I" unicode="I" horiz-adv-x="573" 
d="M100 0v1422h373v-1422h-373z" />
    <glyph glyph-name="J" unicode="J" 
d="M1473 1422v-1046q0 -156 -110 -266t-266 -110h-997v373h952q22 0 34 14q14 12 14 34v1001h373z" />
    <glyph glyph-name="K" unicode="K" 
d="M100 0v1422h373v-524h587q16 1 28 15q12 12 12 32v477h373v-500q0 -71 -13 -120t-38 -91q25 -42 38 -91t13 -120v-500h-373v477q0 19 -12 32q-12 14 -28 15h-587v-524h-373z" />
    <glyph glyph-name="L" unicode="L" 
d="M100 1422h373v-1001q0 -22 14 -34q12 -14 34 -14h952v-373h-997q-156 0 -266 110t-110 266v1046z" />
    <glyph glyph-name="M" unicode="M" horiz-adv-x="2272" 
d="M100 -1v1046q0 156 110 266t266 110h187q156 0 266 -110t110 -266v-372q0 -20 14 -34q16 -14 34 -14h98q18 0 34 14q14 14 14 34v372q0 156 110 266t266 110h187q156 0 266 -110t110 -266v-1046h-373v1001q0 20 -14 34q-12 14 -34 14h-97q-22 0 -34 -14q-14 -14 -14 -34
v-372q0 -156 -110 -266t-266 -110h-188q-156 0 -266 110t-110 266l1 372q0 18 -14 34q-14 14 -35 14h-97q-22 0 -34 -14q-14 -14 -14 -34v-1001h-373z" />
    <glyph glyph-name="N" unicode="N" horiz-adv-x="1706" 
d="M100 0v1046q0 156 110 266t266 110h187q156 0 266 -110t110 -266v-625q0 -22 14 -34q14 -14 34 -14h98q20 0 34 14q14 12 14 34v1001h373v-1046q0 -156 -110 -266t-266 -110h-188q-156 0 -266 110t-110 266v625q0 19 -13 34q-16 14 -35 14h-97q-20 0 -34 -14t-14 -34
v-1001h-373z" />
    <glyph glyph-name="O" unicode="O" 
d="M1097 1422q156 0 266 -110t110 -266v-670q0 -156 -110 -266t-266 -110h-621q-156 0 -266 110t-110 266v670q0 156 110 266t266 110h621zM1100 1001q0 20 -14 34q-12 14 -34 14h-531q-22 0 -34 -14q-14 -14 -14 -34v-580q0 -10 3 -19q6 -10 11 -15q6 -6 16 -11q7 -3 18 -3
h531q10 0 19 3q9 5 16 11q8 10 10 15q3 9 3 19v580z" />
    <glyph glyph-name="P" unicode="P" horiz-adv-x="1574" 
d="M1086 641q15 15 15 37v318q0 21 -15 38q-17 15 -37 15h-576v-424h576q21 0 37 16zM100 0v1422h1004q153 0 261 -108q109 -109 109 -262v-430q0 -152 -109 -261q-107 -109 -261 -109h-631v-252h-373z" />
    <glyph glyph-name="Q" unicode="Q" 
d="M1100 1007q0 20 -14 34t-34 14h-531q-20 0 -34 -14t-14 -34v-580q0 -10 3 -18q5 -9 10 -16q9 -7 16 -10q12 -4 19 -4h531q7 0 19 4q8 3 16 11q7 8 10 15q3 8 3 18v580zM1097 1427q156 0 266 -110t110 -265v-670q0 -60 -18 -115q-15 -44 -34 -76q7 -4 17 -6l34 -5v-368
h-72q-109 0 -201 59q-80 52 -128 136h-595q-156 0 -266 110t-110 265v670q0 155 110 265t266 110h621z" />
    <glyph glyph-name="R" unicode="R" horiz-adv-x="1574" 
d="M1087 642q14 16 14 36v319q0 22 -15 37q-16 16 -37 16h-576v-425h579q21 2 35 17zM1101 0v205q0 18 -13 33q-14 14 -30 15h-585v-253h-373v1422h1004q155 0 261 -108q109 -109 109 -261v-431q0 -55 -17 -109q-12 -39 -33 -76q21 -36 33 -78q17 -54 17 -109v-250h-373z
" />
    <glyph glyph-name="S" unicode="S" 
d="M1100 476q0 22 -14 34q-12 14 -34 14l-577 1q-155 0 -265 110t-110 266v146q0 155 110 265t266 110h997v-372h-952q-20 0 -34 -14t-14 -34v-56q0 -20 14 -34.5t34 -14.5h576q156 0 266 -110t110 -266v-145q0 -155 -110 -265t-266 -110h-997v372h952q20 0 34 14t14 34v55z
" />
    <glyph glyph-name="T" unicode="T" horiz-adv-x="1574" 
d="M600 0v1002q0 20 -14 34t-34 14h-452v372h1374v-372h-453q-18 0 -34 -14q-14 -14 -14 -34v-1002h-373z" />
    <glyph glyph-name="U" unicode="U" 
d="M1053 391q11 0 18 4q17 6 26 25q3 9 3 19v1001h373v-1046q0 -156 -110 -266t-266 -110h-621q-156 0 -266 110t-110 266v1046h373v-1001q0 -20 14 -34t34 -14h532z" />
    <glyph glyph-name="V" unicode="V" horiz-adv-x="1524" 
d="M1424 1422v-1422h-948q-156 0 -266 110t-110 266v1046h373v-1001q0 -20 14 -34t34 -14h531v1049h372z" />
    <glyph glyph-name="W" unicode="W" horiz-adv-x="2272" 
d="M100 1421h372v-1000q0 -20 14 -34t34 -14h98q19 0 34 13q14 14 14 34v372q0 156 110 266t266 110h187q156 0 266 -110t110 -266l1 -371q0 -22 14 -34q12 -14 34 -14h97q21 0 34 13q14 14 14 35v1000h373v-1045q0 -156 -110 -266q-109 -111 -266 -111h-187
q-157 0 -266 111q-110 110 -110 266v371q0 22 -14 34q-14 14 -34 14h-98q-20 0 -34 -14q-14 -12 -14 -34v-371q0 -156 -110 -266q-109 -111 -266 -111h-187q-157 0 -266 111q-110 110 -110 266v1045z" />
    <glyph glyph-name="X" unicode="X" 
d="M1053 898q11 0 18 3t15 10q6 6 11 16q3 9 3 19v476h373v-521q0 -57 -17 -111q-12 -41 -34 -79q23 -42 34 -79q17 -54 17 -111v-521h-373v476q0 10 -3 19q-5 10 -11 16q-5 5 -15 10q-7 3 -18 3h-532q-22 0 -34 -14q-14 -12 -14 -34v-476h-373v521q0 57 17 111q11 37 34 79
q-22 38 -34 79q-17 54 -17 111v521h373v-476q0 -21 14 -35q13 -13 34 -13h532z" />
    <glyph glyph-name="Y" unicode="Y" 
d="M1053 897q19 0 33.5 14.5t14.5 33.5v477h372v-522q0 -156 -110 -266q-111 -109 -266 -109l-124 -1v-524h-373v524h-124q-156 0 -266 110t-110 266v522h372v-477q0 -20 14.5 -34t34.5 -14h532z" />
    <glyph glyph-name="Z" unicode="Z" 
d="M473 476v-55q0 -20 14 -34q16 -14 34 -14h952v-372h-997q-156 0 -266 110t-110 265v145q0 156 110 266t266 110h577q19 0 33 14t14 35v56q0 20 -14 34t-34 14h-952v372h997q156 0 266 -110t110 -265v-146q0 -156 -110 -266q-111 -111 -266 -111v1h-576q-21 0 -34 -15
q-14 -12 -14 -34z" />
    <glyph glyph-name="bracketleft" unicode="[" horiz-adv-x="874" 
d="M774 -47v-373h-674v2262h674v-373h-301v-1516h301z" />
    <glyph glyph-name="backslash" unicode="\" horiz-adv-x="1484" 
d="M1384 0h-441l-843 1422h440z" />
    <glyph glyph-name="bracketright" unicode="]" horiz-adv-x="874" 
d="M100 -47h301v1516h-301v373h674v-2262h-674v373z" />
    <glyph glyph-name="asciicircum" unicode="^" horiz-adv-x="1087" 
d="M543 958l-77 -123h-366l212 434q31 72 93 111q62 42 138 42q77 0 139 -42q64 -41 93 -111l212 -434h-366z" />
    <glyph glyph-name="underscore" unicode="_" horiz-adv-x="1570" 
d="M100 373h1370v-373h-1370v373z" />
    <glyph glyph-name="a" unicode="a" 
d="M1053 1049h-532q-22 0 -34 -14q-14 -14 -14 -34v-376h627v376q0 10 -3 19q-7 12 -11 15q-5 7 -15 10q-7 4 -18 4zM473 252v-252h-373v1046q0 156 110 266t266 110h621q156 0 266 -110t110 -266v-1046h-373v252h-627z" />
    <glyph glyph-name="b" unicode="b" 
d="M1100 946v55q0 20 -14 34t-34 14h-579v-151h579q20 0 34 14t14 34zM100 1422h997q156 0 266 -110t110 -266v-145q0 -57 -17 -111q-11 -39 -35 -79q24 -40 35 -79q17 -54 17 -111v-145q0 -156 -110 -266t-266 -110h-997v1422zM473 525v-152h579q20 0 34 14t14 34v55
q0 20 -14 34t-34 14z" />
    <glyph glyph-name="c" unicode="c" 
d="M487 1035q-14 -14 -14 -34v-580q0 -10 3 -19q7 -12 11 -15q3 -4 15 -11q9 -3 19 -3h952v-373h-997q-156 0 -266 110t-110 266v670q0 155 110 265.5t266 110.5h997v-373h-952q-20 0 -34 -14z" />
    <glyph glyph-name="d" unicode="d" 
d="M1100 996q0 22 -15 37.5t-37 15.5h-575v-676h575q22 0 37 15t15 37v571zM1104 0h-1004v1422h1004q153 0 261 -108.5t108 -261.5v-683q0 -153 -108 -261t-261 -108z" />
    <glyph glyph-name="e" unicode="e" 
d="M473 946q0 -20 14 -34t34 -14h952v-373q-635 0 -952 -1q-20 0 -34 -14t-14 -34v-55q0 -20 14 -34t34 -14h952v-373h-997q-156 0 -266 110t-110 266v145q0 101 52 190q-52 87 -52 190v145q0 156 110 266q112 110 266 110h997v-373h-952q-20 0 -34 -14t-14 -34v-55z" />
    <glyph glyph-name="f" unicode="f" 
d="M473 946q0 -20 14 -34t34 -14h952v-373l-952 -1q-20 0 -34 -14t-14 -34v-476h-373v521q0 101 52 190q-52 89 -52 190v145q0 156 110 266t266 110h997v-373h-952q-20 0 -34 -14t-14 -34v-55z" />
    <glyph glyph-name="g" unicode="g" 
d="M473 1007v-580q0 -20 14 -34t34 -14h579v103q0 20 -14 34t-34 14h-459v373h504q155 0 265.5 -110t110.5 -266v-521h-997q-156 0 -266 110t-110 266v670q0 156 110 266t266 110h978v-373h-933q-20 0 -34 -14t-14 -34z" />
    <glyph glyph-name="h" unicode="h" 
d="M1100 898v524h373v-1422h-373v524h-627v-524h-373v1422h373v-524h627z" />
    <glyph glyph-name="i" unicode="i" horiz-adv-x="573" 
d="M100 0v1422h373v-1422h-373z" />
    <glyph glyph-name="j" unicode="j" 
d="M1473 1422v-1046q0 -156 -110 -266t-266 -110h-997v373h952q22 0 34 14q14 12 14 34v1001h373z" />
    <glyph glyph-name="k" unicode="k" 
d="M100 0v1422h373v-524h587q16 1 28 15q12 12 12 32v477h373v-500q0 -71 -13 -120t-38 -91q25 -42 38 -91t13 -120v-500h-373v477q0 19 -12 32q-12 14 -28 15h-587v-524h-373z" />
    <glyph glyph-name="l" unicode="l" 
d="M100 1422h373v-1001q0 -22 14 -34q12 -14 34 -14h952v-373h-997q-156 0 -266 110t-110 266v1046z" />
    <glyph glyph-name="m" unicode="m" horiz-adv-x="2272" 
d="M100 -1v1046q0 156 110 266t266 110h187q156 0 266 -110t110 -266v-372q0 -20 14 -34q16 -14 34 -14h98q18 0 34 14q14 14 14 34v372q0 156 110 266t266 110h187q156 0 266 -110t110 -266v-1046h-373v1001q0 20 -14 34q-12 14 -34 14h-97q-22 0 -34 -14q-14 -14 -14 -34
v-372q0 -156 -110 -266t-266 -110h-188q-156 0 -266 110t-110 266l1 372q0 18 -14 34q-14 14 -35 14h-97q-22 0 -34 -14q-14 -14 -14 -34v-1001h-373z" />
    <glyph glyph-name="n" unicode="n" horiz-adv-x="1706" 
d="M100 0v1046q0 156 110 266t266 110h187q156 0 266 -110t110 -266v-625q0 -22 14 -34q14 -14 34 -14h98q20 0 34 14q14 12 14 34v1001h373v-1046q0 -156 -110 -266t-266 -110h-188q-156 0 -266 110t-110 266v625q0 19 -13 34q-16 14 -35 14h-97q-20 0 -34 -14t-14 -34
v-1001h-373z" />
    <glyph glyph-name="o" unicode="o" 
d="M1097 1422q156 0 266 -110t110 -266v-670q0 -156 -110 -266t-266 -110h-621q-156 0 -266 110t-110 266v670q0 156 110 266t266 110h621zM1100 1001q0 20 -14 34q-12 14 -34 14h-531q-22 0 -34 -14q-14 -14 -14 -34v-580q0 -10 3 -19q6 -10 11 -15q6 -6 16 -11q7 -3 18 -3
h531q10 0 19 3q9 5 16 11q8 10 10 15q3 9 3 19v580z" />
    <glyph glyph-name="p" unicode="p" horiz-adv-x="1574" 
d="M1086 641q15 15 15 37v318q0 21 -15 38q-17 15 -37 15h-576v-424h576q21 0 37 16zM100 0v1422h1004q153 0 261 -108q109 -109 109 -262v-430q0 -152 -109 -261q-107 -109 -261 -109h-631v-252h-373z" />
    <glyph glyph-name="q" unicode="q" 
d="M1100 1007q0 20 -14 34t-34 14h-531q-20 0 -34 -14t-14 -34v-580q0 -10 3 -18q5 -9 10 -16q9 -7 16 -10q12 -4 19 -4h531q7 0 19 4q8 3 16 11q7 8 10 15q3 8 3 18v580zM1097 1427q156 0 266 -110t110 -265v-670q0 -60 -18 -115q-15 -44 -34 -76q7 -4 17 -6l34 -5v-368
h-72q-109 0 -201 59q-80 52 -128 136h-595q-156 0 -266 110t-110 265v670q0 155 110 265t266 110h621z" />
    <glyph glyph-name="r" unicode="r" horiz-adv-x="1574" 
d="M1087 642q14 16 14 36v319q0 22 -15 37q-16 16 -37 16h-576v-425h579q21 2 35 17zM1101 0v205q0 18 -13 33q-14 14 -30 15h-585v-253h-373v1422h1004q155 0 261 -108q109 -109 109 -261v-431q0 -55 -17 -109q-12 -39 -33 -76q21 -36 33 -78q17 -54 17 -109v-250h-373z
" />
    <glyph glyph-name="s" unicode="s" 
d="M1100 476q0 22 -14 34q-12 14 -34 14l-577 1q-155 0 -265 110t-110 266v146q0 155 110 265t266 110h997v-372h-952q-20 0 -34 -14t-14 -34v-56q0 -20 14 -34.5t34 -14.5h576q156 0 266 -110t110 -266v-145q0 -155 -110 -265t-266 -110h-997v372h952q20 0 34 14t14 34v55z
" />
    <glyph glyph-name="t" unicode="t" horiz-adv-x="1574" 
d="M600 0v1002q0 20 -14 34t-34 14h-452v372h1374v-372h-453q-18 0 -34 -14q-14 -14 -14 -34v-1002h-373z" />
    <glyph glyph-name="u" unicode="u" 
d="M1053 391q11 0 18 4q17 6 26 25q3 9 3 19v1001h373v-1046q0 -156 -110 -266t-266 -110h-621q-156 0 -266 110t-110 266v1046h373v-1001q0 -20 14 -34t34 -14h532z" />
    <glyph glyph-name="v" unicode="v" horiz-adv-x="1524" 
d="M1424 1422v-1422h-948q-156 0 -266 110t-110 266v1046h373v-1001q0 -20 14 -34t34 -14h531v1049h372z" />
    <glyph glyph-name="w" unicode="w" horiz-adv-x="2272" 
d="M100 1421h372v-1000q0 -20 14 -34t34 -14h98q19 0 34 13q14 14 14 34v372q0 156 110 266t266 110h187q156 0 266 -110t110 -266l1 -371q0 -22 14 -34q12 -14 34 -14h97q21 0 34 13q14 14 14 35v1000h373v-1045q0 -156 -110 -266q-109 -111 -266 -111h-187
q-157 0 -266 111q-110 110 -110 266v371q0 22 -14 34q-14 14 -34 14h-98q-20 0 -34 -14q-14 -12 -14 -34v-371q0 -156 -110 -266q-109 -111 -266 -111h-187q-157 0 -266 111q-110 110 -110 266v1045z" />
    <glyph glyph-name="x" unicode="x" 
d="M1053 898q11 0 18 3t15 10q6 6 11 16q3 9 3 19v476h373v-521q0 -57 -17 -111q-12 -41 -34 -79q23 -42 34 -79q17 -54 17 -111v-521h-373v476q0 10 -3 19q-5 10 -11 16q-5 5 -15 10q-7 3 -18 3h-532q-22 0 -34 -14q-14 -12 -14 -34v-476h-373v521q0 57 17 111q11 37 34 79
q-22 38 -34 79q-17 54 -17 111v521h373v-476q0 -21 14 -35q13 -13 34 -13h532z" />
    <glyph glyph-name="y" unicode="y" 
d="M1053 897q19 0 33.5 14.5t14.5 33.5v477h372v-522q0 -156 -110 -266q-111 -109 -266 -109l-124 -1v-524h-373v524h-124q-156 0 -266 110t-110 266v522h372v-477q0 -20 14.5 -34t34.5 -14h532z" />
    <glyph glyph-name="z" unicode="z" 
d="M473 476v-55q0 -20 14 -34q16 -14 34 -14h952v-372h-997q-156 0 -266 110t-110 265v145q0 156 110 266t266 110h577q19 0 33 14t14 35v56q0 20 -14 34t-34 14h-952v372h997q156 0 266 -110t110 -265v-146q0 -156 -110 -266q-111 -111 -266 -111v1h-576q-21 0 -34 -15
q-14 -12 -14 -34z" />
    <glyph glyph-name="bar" unicode="|" horiz-adv-x="573" 
d="M100 -330v2080h373v-2080h-373z" />
    <glyph glyph-name="asciitilde" unicode="~" horiz-adv-x="1234" 
d="M841 793v123h293v-163q0 -114 -82 -198q-84 -82 -198 -82q-121 1 -126 1q-87 4 -156 58q-65 50 -96 141q-5 19 -26 19h-30q-11 0 -19 -7.5t-8 -19.5v-122h-293v163q0 117 82 197q80 82 197 82q121 0 127 -1q38 0 81 -16.5t74 -41.5q33 -25 54.5 -60t33 -61.5t19.5 -32.5
q6 -6 16 -6h30q11 0 19 8t8 19z" />
    <glyph glyph-name="exclamdown" unicode="&#xa1;" horiz-adv-x="573" 
d="M100 0v1019h373v-1019h-373zM473 1070h-373v351h373v-351z" />
    <glyph glyph-name="brokenbar" unicode="&#xa6;" horiz-adv-x="573" 
d="M100 789v894h373v-894h-373zM100 -258v895h373v-895h-373z" />
    <glyph glyph-name="dieresis" unicode="&#xa8;" horiz-adv-x="849" 
d="M349 1587h-249v248h249v-248zM749 1587h-249v248h249v-248z" />
    <glyph glyph-name="guillemetleft" unicode="&#xab;" horiz-adv-x="2195" 
d="M1068 537l24 -10v-416l-816 351q-79 34 -128 107q-48 73 -48 160q0 89 48 160q48 73 128 108l816 351v-417l-469 -202zM2071 537l24 -10v-416l-816 351q-79 34 -128 107q-48 73 -48 160q0 89 48 160q48 73 128 108l816 351v-417l-470 -202z" />
    <glyph glyph-name="macron" unicode="&#xaf;" horiz-adv-x="949" 
d="M849 1587h-749v248h749v-248z" />
    <glyph glyph-name="plusminus" unicode="&#xb1;" horiz-adv-x="1204" 
d="M788 1116h316v-373h-316v-316h-372v316h-316v373h316v315h372v-315zM100 352h1004v-373h-1004v373z" />
    <glyph glyph-name="periodcentered" unicode="&#xb7;" horiz-adv-x="517" 
d="M100 904h317v-317h-317v317z" />
    <glyph glyph-name="periodcentered" unicode="&#x2219;" horiz-adv-x="517" 
d="M100 904h317v-317h-317v317z" />
    <glyph glyph-name="guillemetright" unicode="&#xbb;" horiz-adv-x="2195" 
d="M124 537l446 192l-470 202v417l816 -351q81 -35 128 -108q48 -71 48 -160q0 -87 -48 -160q-47 -73 -128 -107l-816 -351v416zM1127 537l446 192l-470 202v417l816 -351q82 -35 128 -108q48 -71 48 -160q0 -87 -48 -160q-49 -73 -128 -107l-816 -351v416z" />
    <glyph glyph-name="questiondown" unicode="&#xbf;" 
d="M1121 1071h-372v351h372v-351zM749 1019h372v-143q0 -153 -108 -261q-106 -107 -261 -109h-227q-22 0 -37 -15.5t-15 -37.5v-28q0 -22 15 -37t37 -15h948v-373h-1004q-153 0 -261 108t-108 262v139q0 153 108 261q109 109 261 109h227q22 0 37.5 15t15.5 37v88z" />
    <glyph glyph-name="Acircumflex" unicode="&#xc2;" 
d="M1053 1049h-532q-22 0 -34 -14q-14 -14 -14 -34v-376h627v376q0 10 -3 19q-7 12 -11 15q-5 7 -15 10q-7 4 -18 4zM473 252v-252h-373v1046q0 156 110 266t266 110h621q156 0 266 -110t110 -266v-1046h-373v252h-627zM682 1550h-278l187 297q26 40 79 64t116 24
q64 0 117 -24t79 -64l187 -297h-278l-105 165z" />
    <glyph glyph-name="Atilde" unicode="&#xc3;" 
d="M1053 1049h-532q-22 0 -34 -14q-14 -14 -14 -34v-376h627v376q0 10 -3 19q-7 12 -11 15q-5 7 -15 10q-7 4 -18 4zM473 252v-252h-373v1046q0 156 110 266t266 110h621q156 0 266 -110t110 -266v-1046h-373v252h-627zM1051 1833h212v-98q0 -79 -70 -134.5t-169 -55.5h-125
q-74 4 -133 40t-81 92q0 1 -1 3q-6 17 -24 28t-41 11h-29q-28 0 -47.5 -15.5t-19.5 -37.5v-66h-213v98q0 79 70 134.5t169 55.5h125q75 -4 133.5 -40t80.5 -93q1 -1 1 -2q6 -17 24 -28t40 -11h30q28 0 48 15.5t20 37.5v66z" />
    <glyph glyph-name="Adieresis" unicode="&#xc4;" 
d="M1053 1049h-532q-22 0 -34 -14q-14 -14 -14 -34v-376h627v376q0 10 -3 19q-7 12 -11 15q-5 7 -15 10q-7 4 -18 4zM473 252v-252h-373v1046q0 156 110 266t266 110h621q156 0 266 -110t110 -266v-1046h-373v252h-627zM711 1587h-249v248h249v-248zM1111 1587h-249v248h249
v-248z" />
    <glyph glyph-name="AE" unicode="&#xc6;" horiz-adv-x="2580" 
d="M1100 625v376q0 19 -13.5 33.5t-33.5 14.5h-532q-20 0 -34 -14t-14 -34v-376h627zM2480 0h-1380v252h-627v-252h-373v1046q0 161 112 268.5t264 107.5h621q103 0 193 -53q87 53 192 53h998v-373h-953q-20 0 -34 -14t-14 -34v-55q0 -20 14 -34t34 -14h953v-373l-953 -1
q-20 0 -34 -14t-14 -34v-55q0 -20 14 -34t34 -14h953v-373z" />
    <glyph glyph-name="Ecircumflex" unicode="&#xca;" 
d="M473 946q0 -20 14 -34t34 -14h952v-373q-635 0 -952 -1q-20 0 -34 -14t-14 -34v-55q0 -20 14 -34t34 -14h952v-373h-997q-156 0 -266 110t-110 266v145q0 101 52 190q-52 87 -52 190v145q0 156 110 266q112 110 266 110h997v-373h-952q-20 0 -34 -14t-14 -34v-55z
M793 1550h-279l188 297q25 40 78 64t117 24q63 0 116 -24t79 -64l188 -297h-279l-104 165z" />
    <glyph glyph-name="Edieresis" unicode="&#xcb;" 
d="M473 946q0 -20 14 -34t34 -14h952v-373q-635 0 -952 -1q-20 0 -34 -14t-14 -34v-55q0 -20 14 -34t34 -14h952v-373h-997q-156 0 -266 110t-110 266v145q0 101 52 190q-52 87 -52 190v145q0 156 110 266q112 110 266 110h997v-373h-952q-20 0 -34 -14t-14 -34v-55z
M821 1587h-249v248h249v-248zM1221 1587h-249v248h249v-248z" />
    <glyph glyph-name="Icircumflex" unicode="&#xce;" horiz-adv-x="574" 
d="M100 0v1422h373v-1422h-373zM183 1550h-279l188 297q25 40 78 64t117 24q63 0 116 -24t79 -64l188 -297h-279l-104 165z" />
    <glyph glyph-name="Idieresis" unicode="&#xcf;" horiz-adv-x="573" 
d="M100 0v1422h373v-1422h-373zM211 1587h-249v248h249v-248zM611 1587h-249v248h249v-248z" />
    <glyph glyph-name="Eth" unicode="&#xd0;" horiz-adv-x="1673" 
d="M1148 373q22 0 37 15.5t15 36.5v571q0 22 -15 37.5t-37 15.5h-575v-88h386v-261h-386v-327h575zM1204 0h-1004v700h-200v261h200v461h1004q154 0 261.5 -109t107.5 -261v-683q0 -154 -108 -261.5t-261 -107.5z" />
    <glyph glyph-name="Ntilde" unicode="&#xd1;" horiz-adv-x="1706" 
d="M100 0v1046q0 156 110 266t266 110h187q156 0 266 -110t110 -266v-625q0 -22 14 -34q14 -14 34 -14h98q20 0 34 14q14 12 14 34v1001h373v-1046q0 -156 -110 -266t-266 -110h-188q-156 0 -266 110t-110 266v625q0 19 -13 34q-16 14 -35 14h-97q-20 0 -34 -14t-14 -34
v-1001h-373zM1127 1833h213v-98q0 -79 -70.5 -134.5t-169.5 -55.5h-124q-75 4 -134 40t-81 92q0 2 -1 3q-6 17 -24 28t-40 11h-30q-28 0 -47.5 -15.5t-19.5 -37.5v-66h-213v98q0 79 70 134.5t169 55.5h125q75 -4 133.5 -40t80.5 -93q1 0 1 -2q6 -17 24 -28t41 -11h30
q28 0 47.5 15.5t19.5 37.5v66z" />
    <glyph glyph-name="Ocircumflex" unicode="&#xd4;" 
d="M1097 1422q156 0 266 -110t110 -266v-670q0 -156 -110 -266t-266 -110h-621q-156 0 -266 110t-110 266v670q0 156 110 266t266 110h621zM1100 1001q0 20 -14 34q-12 14 -34 14h-531q-22 0 -34 -14q-14 -14 -14 -34v-580q0 -10 3 -19q6 -10 11 -15q6 -6 16 -11q7 -3 18 -3
h531q10 0 19 3q9 5 16 11q8 10 10 15q3 9 3 19v580zM682 1550h-278l187 297q26 40 79 64t116 24q64 0 117 -24t79 -64l187 -297h-278l-105 165z" />
    <glyph glyph-name="Otilde" unicode="&#xd5;" 
d="M1097 1422q156 0 266 -110t110 -266v-670q0 -156 -110 -266t-266 -110h-621q-156 0 -266 110t-110 266v670q0 156 110 266t266 110h621zM1100 1001q0 20 -14 34q-12 14 -34 14h-531q-22 0 -34 -14q-14 -14 -14 -34v-580q0 -10 3 -19q6 -10 11 -15q6 -6 16 -11q7 -3 18 -3
h531q10 0 19 3q9 5 16 11q8 10 10 15q3 9 3 19v580zM1051 1833h212v-98q0 -79 -70 -134.5t-169 -55.5h-125q-74 4 -133 40t-81 92q0 1 -1 3q-6 17 -24 28t-41 11h-29q-28 0 -47.5 -15.5t-19.5 -37.5v-66h-213v98q0 79 70 134.5t169 55.5h125q75 -4 133.5 -40t80.5 -93
q1 -1 1 -2q6 -17 24 -28t40 -11h30q28 0 48 15.5t20 37.5v66z" />
    <glyph glyph-name="Odieresis" unicode="&#xd6;" 
d="M1097 1422q156 0 266 -110t110 -266v-670q0 -156 -110 -266t-266 -110h-621q-156 0 -266 110t-110 266v670q0 156 110 266t266 110h621zM1100 1001q0 20 -14 34q-12 14 -34 14h-531q-22 0 -34 -14q-14 -14 -14 -34v-580q0 -10 3 -19q6 -10 11 -15q6 -6 16 -11q7 -3 18 -3
h531q10 0 19 3q9 5 16 11q8 10 10 15q3 9 3 19v580zM711 1587h-249v248h249v-248zM1111 1587h-249v248h249v-248z" />
    <glyph glyph-name="multiply" unicode="&#xd7;" horiz-adv-x="1174" 
d="M810 243l-224 223l-223 -223l-263 263l223 223l-223 223l264 264l223 -223l223 222l263 -263l-223 -222l224 -224z" />
    <glyph glyph-name="Oslash" unicode="&#xd8;" 
d="M1052 373q23 0 35.5 13.5t12.5 34.5v561l-363 -609h315zM473 448l358 601h-310q-20 0 -34 -14t-14 -34v-553zM425 -150h-308l134 225q-71 52 -111 131.5t-40 169.5v670q0 161 112 268.5t264 107.5h577l80 134h309l-123 -206q67 -50 110.5 -128t43.5 -176v-670
q0 -155 -109.5 -265.5t-266.5 -110.5h-583z" />
    <glyph glyph-name="Ucircumflex" unicode="&#xdb;" 
d="M1053 391q11 0 18 4q17 6 26 25q3 9 3 19v1001h373v-1046q0 -156 -110 -266t-266 -110h-621q-156 0 -266 110t-110 266v1046h373v-1001q0 -20 14 -34t34 -14h532zM682 1550h-278l187 297q26 40 79 64t116 24q64 0 117 -24t79 -64l187 -297h-278l-105 165z" />
    <glyph glyph-name="Udieresis" unicode="&#xdc;" 
d="M1053 391q11 0 18 4q17 6 26 25q3 9 3 19v1001h373v-1046q0 -156 -110 -266t-266 -110h-621q-156 0 -266 110t-110 266v1046h373v-1001q0 -20 14 -34t34 -14h532zM711 1587h-249v248h249v-248zM1111 1587h-249v248h249v-248z" />
    <glyph glyph-name="Thorn" unicode="&#xde;" horiz-adv-x="1574" 
d="M473 -200h-373v1622h373v-200h631q155 0 262.5 -109t107.5 -261v-430q0 -157 -110.5 -263.5t-259.5 -106.5h-631v-252zM1049 425q20 0 36 15t16 38v318q0 24 -15 38.5t-37 14.5h-576v-424h576z" />
    <glyph glyph-name="acircumflex" unicode="&#xe2;" 
d="M1053 1049h-532q-22 0 -34 -14q-14 -14 -14 -34v-376h627v376q0 10 -3 19q-7 12 -11 15q-5 7 -15 10q-7 4 -18 4zM473 252v-252h-373v1046q0 156 110 266t266 110h621q156 0 266 -110t110 -266v-1046h-373v252h-627zM682 1550h-278l187 297q26 40 79 64t116 24
q64 0 117 -24t79 -64l187 -297h-278l-105 165z" />
    <glyph glyph-name="atilde" unicode="&#xe3;" 
d="M1053 1049h-532q-22 0 -34 -14q-14 -14 -14 -34v-376h627v376q0 10 -3 19q-7 12 -11 15q-5 7 -15 10q-7 4 -18 4zM473 252v-252h-373v1046q0 156 110 266t266 110h621q156 0 266 -110t110 -266v-1046h-373v252h-627zM1051 1833h212v-98q0 -79 -70 -134.5t-169 -55.5h-125
q-74 4 -133 40t-81 92q0 1 -1 3q-6 17 -24 28t-41 11h-29q-28 0 -47.5 -15.5t-19.5 -37.5v-66h-213v98q0 79 70 134.5t169 55.5h125q75 -4 133.5 -40t80.5 -93q1 -1 1 -2q6 -17 24 -28t40 -11h30q28 0 48 15.5t20 37.5v66z" />
    <glyph glyph-name="adieresis" unicode="&#xe4;" 
d="M1053 1049h-532q-22 0 -34 -14q-14 -14 -14 -34v-376h627v376q0 10 -3 19q-7 12 -11 15q-5 7 -15 10q-7 4 -18 4zM473 252v-252h-373v1046q0 156 110 266t266 110h621q156 0 266 -110t110 -266v-1046h-373v252h-627zM711 1587h-249v248h249v-248zM1111 1587h-249v248h249
v-248z" />
    <glyph glyph-name="ae" unicode="&#xe6;" horiz-adv-x="2580" 
d="M1100 625v376q0 19 -13.5 33.5t-33.5 14.5h-532q-20 0 -34 -14t-14 -34v-376h627zM2480 0h-1380v252h-627v-252h-373v1046q0 161 112 268.5t264 107.5h621q103 0 193 -53q87 53 192 53h998v-373h-953q-20 0 -34 -14t-14 -34v-55q0 -20 14 -34t34 -14h953v-373l-953 -1
q-20 0 -34 -14t-14 -34v-55q0 -20 14 -34t34 -14h953v-373z" />
    <glyph glyph-name="ecircumflex" unicode="&#xea;" 
d="M473 946q0 -20 14 -34t34 -14h952v-373q-635 0 -952 -1q-20 0 -34 -14t-14 -34v-55q0 -20 14 -34t34 -14h952v-373h-997q-156 0 -266 110t-110 266v145q0 101 52 190q-52 87 -52 190v145q0 156 110 266q112 110 266 110h997v-373h-952q-20 0 -34 -14t-14 -34v-55z
M793 1550h-279l188 297q25 40 78 64t117 24q63 0 116 -24t79 -64l188 -297h-279l-104 165z" />
    <glyph glyph-name="edieresis" unicode="&#xeb;" 
d="M473 946q0 -20 14 -34t34 -14h952v-373q-635 0 -952 -1q-20 0 -34 -14t-14 -34v-55q0 -20 14 -34t34 -14h952v-373h-997q-156 0 -266 110t-110 266v145q0 101 52 190q-52 87 -52 190v145q0 156 110 266q112 110 266 110h997v-373h-952q-20 0 -34 -14t-14 -34v-55z
M821 1587h-249v248h249v-248zM1221 1587h-249v248h249v-248z" />
    <glyph glyph-name="icircumflex" unicode="&#xee;" horiz-adv-x="574" 
d="M100 0v1422h373v-1422h-373zM183 1550h-279l188 297q25 40 78 64t117 24q63 0 116 -24t79 -64l188 -297h-279l-104 165z" />
    <glyph glyph-name="idieresis" unicode="&#xef;" horiz-adv-x="573" 
d="M100 0v1422h373v-1422h-373zM211 1587h-249v248h249v-248zM611 1587h-249v248h249v-248z" />
    <glyph glyph-name="eth" unicode="&#xf0;" horiz-adv-x="1673" 
d="M1148 373q22 0 37 15.5t15 36.5v571q0 22 -15 37.5t-37 15.5h-575v-88h386v-261h-386v-327h575zM1204 0h-1004v700h-200v261h200v461h1004q154 0 261.5 -109t107.5 -261v-683q0 -154 -108 -261.5t-261 -107.5z" />
    <glyph glyph-name="ntilde" unicode="&#xf1;" horiz-adv-x="1706" 
d="M100 0v1046q0 156 110 266t266 110h187q156 0 266 -110t110 -266v-625q0 -22 14 -34q14 -14 34 -14h98q20 0 34 14q14 12 14 34v1001h373v-1046q0 -156 -110 -266t-266 -110h-188q-156 0 -266 110t-110 266v625q0 19 -13 34q-16 14 -35 14h-97q-20 0 -34 -14t-14 -34
v-1001h-373zM1127 1833h213v-98q0 -79 -70.5 -134.5t-169.5 -55.5h-124q-75 4 -134 40t-81 92q0 2 -1 3q-6 17 -24 28t-40 11h-30q-28 0 -47.5 -15.5t-19.5 -37.5v-66h-213v98q0 79 70 134.5t169 55.5h125q75 -4 133.5 -40t80.5 -93q1 0 1 -2q6 -17 24 -28t41 -11h30
q28 0 47.5 15.5t19.5 37.5v66z" />
    <glyph glyph-name="ocircumflex" unicode="&#xf4;" 
d="M1097 1422q156 0 266 -110t110 -266v-670q0 -156 -110 -266t-266 -110h-621q-156 0 -266 110t-110 266v670q0 156 110 266t266 110h621zM1100 1001q0 20 -14 34q-12 14 -34 14h-531q-22 0 -34 -14q-14 -14 -14 -34v-580q0 -10 3 -19q6 -10 11 -15q6 -6 16 -11q7 -3 18 -3
h531q10 0 19 3q9 5 16 11q8 10 10 15q3 9 3 19v580zM682 1550h-278l187 297q26 40 79 64t116 24q64 0 117 -24t79 -64l187 -297h-278l-105 165z" />
    <glyph glyph-name="otilde" unicode="&#xf5;" 
d="M1097 1422q156 0 266 -110t110 -266v-670q0 -156 -110 -266t-266 -110h-621q-156 0 -266 110t-110 266v670q0 156 110 266t266 110h621zM1100 1001q0 20 -14 34q-12 14 -34 14h-531q-22 0 -34 -14q-14 -14 -14 -34v-580q0 -10 3 -19q6 -10 11 -15q6 -6 16 -11q7 -3 18 -3
h531q10 0 19 3q9 5 16 11q8 10 10 15q3 9 3 19v580zM1051 1833h212v-98q0 -79 -70 -134.5t-169 -55.5h-125q-74 4 -133 40t-81 92q0 1 -1 3q-6 17 -24 28t-41 11h-29q-28 0 -47.5 -15.5t-19.5 -37.5v-66h-213v98q0 79 70 134.5t169 55.5h125q75 -4 133.5 -40t80.5 -93
q1 -1 1 -2q6 -17 24 -28t40 -11h30q28 0 48 15.5t20 37.5v66z" />
    <glyph glyph-name="odieresis" unicode="&#xf6;" 
d="M1097 1422q156 0 266 -110t110 -266v-670q0 -156 -110 -266t-266 -110h-621q-156 0 -266 110t-110 266v670q0 156 110 266t266 110h621zM1100 1001q0 20 -14 34q-12 14 -34 14h-531q-22 0 -34 -14q-14 -14 -14 -34v-580q0 -10 3 -19q6 -10 11 -15q6 -6 16 -11q7 -3 18 -3
h531q10 0 19 3q9 5 16 11q8 10 10 15q3 9 3 19v580zM711 1587h-249v248h249v-248zM1111 1587h-249v248h249v-248z" />
    <glyph glyph-name="divide" unicode="&#xf7;" horiz-adv-x="1204" 
d="M788 1009h-372v372h372v-372zM1104 543h-1004v373h1004v-373zM788 77h-372v372h372v-372z" />
    <glyph glyph-name="oslash" unicode="&#xf8;" 
d="M1052 373q23 0 35.5 13.5t12.5 34.5v561l-363 -609h315zM473 448l358 601h-310q-20 0 -34 -14t-14 -34v-553zM425 -150h-308l134 225q-71 52 -111 131.5t-40 169.5v670q0 161 112 268.5t264 107.5h577l80 134h309l-123 -206q67 -50 110.5 -128t43.5 -176v-670
q0 -155 -109.5 -265.5t-266.5 -110.5h-583z" />
    <glyph glyph-name="ucircumflex" unicode="&#xfb;" 
d="M1053 391q11 0 18 4q17 6 26 25q3 9 3 19v1001h373v-1046q0 -156 -110 -266t-266 -110h-621q-156 0 -266 110t-110 266v1046h373v-1001q0 -20 14 -34t34 -14h532zM682 1550h-278l187 297q26 40 79 64t116 24q64 0 117 -24t79 -64l187 -297h-278l-105 165z" />
    <glyph glyph-name="udieresis" unicode="&#xfc;" 
d="M1053 391q11 0 18 4q17 6 26 25q3 9 3 19v1001h373v-1046q0 -156 -110 -266t-266 -110h-621q-156 0 -266 110t-110 266v1046h373v-1001q0 -20 14 -34t34 -14h532zM711 1587h-249v248h249v-248zM1111 1587h-249v248h249v-248z" />
    <glyph glyph-name="thorn" unicode="&#xfe;" horiz-adv-x="1574" 
d="M473 -200h-373v1622h373v-200h631q155 0 262.5 -109t107.5 -261v-430q0 -157 -110.5 -263.5t-259.5 -106.5h-631v-252zM1049 425q20 0 36 15t16 38v318q0 24 -15 38.5t-37 14.5h-576v-424h576z" />
    <glyph glyph-name="ydieresis" unicode="&#xff;" 
d="M1053 897q19 0 33.5 14.5t14.5 33.5v477h372v-522q0 -156 -110 -266q-111 -109 -266 -109l-124 -1v-524h-373v524h-124q-156 0 -266 110t-110 266v522h372v-477q0 -20 14.5 -34t34.5 -14h532zM711 1587h-249v248h249v-248zM1111 1587h-249v248h249v-248z" />
    <glyph glyph-name="Amacron" unicode="&#x100;" 
d="M1053 1049h-532q-22 0 -34 -14q-14 -14 -14 -34v-376h627v376q0 10 -3 19q-7 12 -11 15q-5 7 -15 10q-7 4 -18 4zM473 252v-252h-373v1046q0 156 110 266t266 110h621q156 0 266 -110t110 -266v-1046h-373v252h-627zM1161 1587h-749v248h749v-248z" />
    <glyph glyph-name="amacron" unicode="&#x101;" 
d="M1053 1049h-532q-22 0 -34 -14q-14 -14 -14 -34v-376h627v376q0 10 -3 19q-7 12 -11 15q-5 7 -15 10q-7 4 -18 4zM473 252v-252h-373v1046q0 156 110 266t266 110h621q156 0 266 -110t110 -266v-1046h-373v252h-627zM1161 1587h-749v248h749v-248z" />
    <glyph glyph-name="Ccircumflex" unicode="&#x108;" 
d="M487 1035q-14 -14 -14 -34v-580q0 -10 3 -19q7 -12 11 -15q3 -4 15 -11q9 -3 19 -3h952v-373h-997q-156 0 -266 110t-110 266v670q0 155 110 265.5t266 110.5h997v-373h-952q-20 0 -34 -14zM809 1550h-279l188 297q25 40 78 64t117 24q63 0 116 -24t79 -64l188 -297h-279
l-104 165z" />
    <glyph glyph-name="ccircumflex" unicode="&#x109;" 
d="M487 1035q-14 -14 -14 -34v-580q0 -10 3 -19q7 -12 11 -15q3 -4 15 -11q9 -3 19 -3h952v-373h-997q-156 0 -266 110t-110 266v670q0 155 110 265.5t266 110.5h997v-373h-952q-20 0 -34 -14zM809 1550h-279l188 297q25 40 78 64t117 24q63 0 116 -24t79 -64l188 -297h-279
l-104 165z" />
    <glyph glyph-name="Cdotaccent" unicode="&#x10a;" 
d="M487 1035q-14 -14 -14 -34v-580q0 -10 3 -19q7 -12 11 -15q3 -4 15 -11q9 -3 19 -3h952v-373h-997q-156 0 -266 110t-110 266v670q0 155 110 265.5t266 110.5h997v-373h-952q-20 0 -34 -14zM1037 1587h-249v248h249v-248z" />
    <glyph glyph-name="cdotaccent" unicode="&#x10b;" 
d="M487 1035q-14 -14 -14 -34v-580q0 -10 3 -19q7 -12 11 -15q3 -4 15 -11q9 -3 19 -3h952v-373h-997q-156 0 -266 110t-110 266v670q0 155 110 265.5t266 110.5h997v-373h-952q-20 0 -34 -14zM1037 1587h-249v248h249v-248z" />
    <glyph glyph-name="Ccaron" unicode="&#x10c;" 
d="M487 1035q-14 -14 -14 -34v-580q0 -10 3 -19q7 -12 11 -15q3 -4 15 -11q9 -3 19 -3h952v-373h-997q-156 0 -266 110t-110 266v670q0 155 110 265.5t266 110.5h997v-373h-952q-20 0 -34 -14zM809 1835l104 -165l104 165h279l-188 -297q-26 -40 -79 -64t-116 -24
q-64 0 -117 24t-78 64l-188 297h279z" />
    <glyph glyph-name="ccaron" unicode="&#x10d;" 
d="M487 1035q-14 -14 -14 -34v-580q0 -10 3 -19q7 -12 11 -15q3 -4 15 -11q9 -3 19 -3h952v-373h-997q-156 0 -266 110t-110 266v670q0 155 110 265.5t266 110.5h997v-373h-952q-20 0 -34 -14zM809 1835l104 -165l104 165h279l-188 -297q-26 -40 -79 -64t-116 -24
q-64 0 -117 24t-78 64l-188 297h279z" />
    <glyph glyph-name="Dcaron" unicode="&#x10e;" 
d="M1100 996q0 22 -15 37.5t-37 15.5h-575v-676h575q22 0 37 15t15 37v571zM1104 0h-1004v1422h1004q153 0 261 -108.5t108 -261.5v-683q0 -153 -108 -261t-261 -108zM642 1835l104 -165l104 165h279l-188 -297q-26 -40 -79 -64t-116 -24q-64 0 -117 24t-78 64l-188 297h279
z" />
    <glyph glyph-name="dcaron" unicode="&#x10f;" 
d="M1100 996q0 22 -15 37.5t-37 15.5h-575v-676h575q22 0 37 15t15 37v571zM1104 0h-1004v1422h1004q153 0 261 -108.5t108 -261.5v-683q0 -153 -108 -261t-261 -108zM642 1835l104 -165l104 165h279l-188 -297q-26 -40 -79 -64t-116 -24q-64 0 -117 24t-78 64l-188 297h279
z" />
    <glyph glyph-name="Dcroat" unicode="&#x110;" horiz-adv-x="1673" 
d="M1148 373q22 0 37 15.5t15 36.5v571q0 22 -15 37.5t-37 15.5h-575v-88h386v-261h-386v-327h575zM1204 0h-1004v700h-200v261h200v461h1004q154 0 261.5 -109t107.5 -261v-683q0 -154 -108 -261.5t-261 -107.5z" />
    <glyph glyph-name="dcroat" unicode="&#x111;" horiz-adv-x="1673" 
d="M1148 373q22 0 37 15.5t15 36.5v571q0 22 -15 37.5t-37 15.5h-575v-88h386v-261h-386v-327h575zM1204 0h-1004v700h-200v261h200v461h1004q154 0 261.5 -109t107.5 -261v-683q0 -154 -108 -261.5t-261 -107.5z" />
    <glyph glyph-name="Emacron" unicode="&#x112;" 
d="M473 946q0 -20 14 -34t34 -14h952v-373q-635 0 -952 -1q-20 0 -34 -14t-14 -34v-55q0 -20 14 -34t34 -14h952v-373h-997q-156 0 -266 110t-110 266v145q0 101 52 190q-52 87 -52 190v145q0 156 110 266q112 110 266 110h997v-373h-952q-20 0 -34 -14t-14 -34v-55z
M1271 1587h-749v248h749v-248z" />
    <glyph glyph-name="emacron" unicode="&#x113;" 
d="M473 946q0 -20 14 -34t34 -14h952v-373q-635 0 -952 -1q-20 0 -34 -14t-14 -34v-55q0 -20 14 -34t34 -14h952v-373h-997q-156 0 -266 110t-110 266v145q0 101 52 190q-52 87 -52 190v145q0 156 110 266q112 110 266 110h997v-373h-952q-20 0 -34 -14t-14 -34v-55z
M1271 1587h-749v248h749v-248z" />
    <glyph glyph-name="Edotaccent" unicode="&#x116;" 
d="M473 946q0 -20 14 -34t34 -14h952v-373q-635 0 -952 -1q-20 0 -34 -14t-14 -34v-55q0 -20 14 -34t34 -14h952v-373h-997q-156 0 -266 110t-110 266v145q0 101 52 190q-52 87 -52 190v145q0 156 110 266q112 110 266 110h997v-373h-952q-20 0 -34 -14t-14 -34v-55z
M1021 1587h-249v248h249v-248z" />
    <glyph glyph-name="edotaccent" unicode="&#x117;" 
d="M473 946q0 -20 14 -34t34 -14h952v-373q-635 0 -952 -1q-20 0 -34 -14t-14 -34v-55q0 -20 14 -34t34 -14h952v-373h-997q-156 0 -266 110t-110 266v145q0 101 52 190q-52 87 -52 190v145q0 156 110 266q112 110 266 110h997v-373h-952q-20 0 -34 -14t-14 -34v-55z
M1021 1587h-249v248h249v-248z" />
    <glyph glyph-name="Ecaron" unicode="&#x11a;" 
d="M473 946q0 -20 14 -34t34 -14h952v-373q-635 0 -952 -1q-20 0 -34 -14t-14 -34v-55q0 -20 14 -34t34 -14h952v-373h-997q-156 0 -266 110t-110 266v145q0 101 52 190q-52 87 -52 190v145q0 156 110 266q112 110 266 110h997v-373h-952q-20 0 -34 -14t-14 -34v-55z
M793 1835l104 -165l104 165h279l-188 -297q-26 -40 -79 -64t-116 -24q-64 0 -117 24t-78 64l-188 297h279z" />
    <glyph glyph-name="ecaron" unicode="&#x11b;" 
d="M473 946q0 -20 14 -34t34 -14h952v-373q-635 0 -952 -1q-20 0 -34 -14t-14 -34v-55q0 -20 14 -34t34 -14h952v-373h-997q-156 0 -266 110t-110 266v145q0 101 52 190q-52 87 -52 190v145q0 156 110 266q112 110 266 110h997v-373h-952q-20 0 -34 -14t-14 -34v-55z
M793 1835l104 -165l104 165h279l-188 -297q-26 -40 -79 -64t-116 -24q-64 0 -117 24t-78 64l-188 297h279z" />
    <glyph glyph-name="Gcircumflex" unicode="&#x11c;" 
d="M473 1007v-580q0 -20 14 -34t34 -14h579v103q0 20 -14 34t-34 14h-459v373h504q155 0 265.5 -110t110.5 -266v-521h-997q-156 0 -266 110t-110 266v670q0 156 110 266t266 110h978v-373h-933q-20 0 -34 -14t-14 -34zM792 1550h-279l188 297q25 40 78 64t117 24
q63 0 116 -24t79 -64l188 -297h-279l-104 165z" />
    <glyph glyph-name="gcircumflex" unicode="&#x11d;" 
d="M473 1007v-580q0 -20 14 -34t34 -14h579v103q0 20 -14 34t-34 14h-459v373h504q155 0 265.5 -110t110.5 -266v-521h-997q-156 0 -266 110t-110 266v670q0 156 110 266t266 110h978v-373h-933q-20 0 -34 -14t-14 -34zM792 1550h-279l188 297q25 40 78 64t117 24
q63 0 116 -24t79 -64l188 -297h-279l-104 165z" />
    <glyph glyph-name="Gdotaccent" unicode="&#x120;" 
d="M473 1007v-580q0 -20 14 -34t34 -14h579v103q0 20 -14 34t-34 14h-459v373h504q155 0 265.5 -110t110.5 -266v-521h-997q-156 0 -266 110t-110 266v670q0 156 110 266t266 110h978v-373h-933q-20 0 -34 -14t-14 -34zM1020 1587h-249v248h249v-248z" />
    <glyph glyph-name="gdotaccent" unicode="&#x121;" 
d="M473 1007v-580q0 -20 14 -34t34 -14h579v103q0 20 -14 34t-34 14h-459v373h504q155 0 265.5 -110t110.5 -266v-521h-997q-156 0 -266 110t-110 266v670q0 156 110 266t266 110h978v-373h-933q-20 0 -34 -14t-14 -34zM1020 1587h-249v248h249v-248z" />
    <glyph glyph-name="Hcircumflex" unicode="&#x124;" 
d="M1100 898v524h373v-1422h-373v524h-627v-524h-373v1422h373v-524h627zM682 1550h-278l187 297q26 40 79 64t116 24q64 0 117 -24t79 -64l187 -297h-278l-105 165z" />
    <glyph glyph-name="hcircumflex" unicode="&#x125;" 
d="M1100 898v524h373v-1422h-373v524h-627v-524h-373v1422h373v-524h627zM682 1550h-278l187 297q26 40 79 64t116 24q64 0 117 -24t79 -64l187 -297h-278l-105 165z" />
    <glyph glyph-name="Hbar" unicode="&#x126;" horiz-adv-x="1589" 
d="M1100 898v152h-627v-152h627zM1473 0h-373v524h-627v-524h-373v1050h-128v261h128v111h373v-111h627v111h373v-111h143v-261h-143v-1050z" />
    <glyph glyph-name="hbar" unicode="&#x127;" horiz-adv-x="1589" 
d="M1100 898v152h-627v-152h627zM1473 0h-373v524h-627v-524h-373v1050h-128v261h128v111h373v-111h627v111h373v-111h143v-261h-143v-1050z" />
    <glyph glyph-name="Itilde" unicode="&#x128;" horiz-adv-x="574" 
d="M100 0v1422h373v-1422h-373zM551 1833h213v-98q0 -79 -70.5 -134.5t-169.5 -55.5h-124q-75 4 -134 40t-81 92q0 2 -1 3q-6 17 -24 28t-40 11h-30q-28 0 -47.5 -15.5t-19.5 -37.5v-66h-213v98q0 79 70 134.5t169 55.5h125q75 -4 133.5 -40t80.5 -93q1 0 1 -2q6 -17 24 -28
t41 -11h30q28 0 47.5 15.5t19.5 37.5v66z" />
    <glyph glyph-name="itilde" unicode="&#x129;" horiz-adv-x="574" 
d="M100 0v1422h373v-1422h-373zM551 1833h213v-98q0 -79 -70.5 -134.5t-169.5 -55.5h-124q-75 4 -134 40t-81 92q0 2 -1 3q-6 17 -24 28t-40 11h-30q-28 0 -47.5 -15.5t-19.5 -37.5v-66h-213v98q0 79 70 134.5t169 55.5h125q75 -4 133.5 -40t80.5 -93q1 0 1 -2q6 -17 24 -28
t41 -11h30q28 0 47.5 15.5t19.5 37.5v66z" />
    <glyph glyph-name="Imacron" unicode="&#x12a;" horiz-adv-x="573" 
d="M100 0v1422h373v-1422h-373zM661 1587h-749v248h749v-248z" />
    <glyph glyph-name="imacron" unicode="&#x12b;" horiz-adv-x="573" 
d="M100 0v1422h373v-1422h-373zM661 1587h-749v248h749v-248z" />
    <glyph glyph-name="Idotaccent" unicode="&#x130;" horiz-adv-x="573" 
d="M100 0v1422h373v-1422h-373zM411 1587h-249v248h249v-248z" />
    <glyph glyph-name="idotless" unicode="&#x131;" horiz-adv-x="573" 
d="M100 0v1422h373v-1422h-373z" />
    <glyph glyph-name="Jcircumflex" unicode="&#x134;" 
d="M1473 1422v-1046q0 -156 -110 -266t-266 -110h-997v373h952q22 0 34 14q14 12 14 34v1001h373zM1193 1550h-279l188 297q25 40 78 64t117 24q63 0 116 -24t79 -64l188 -297h-279l-104 165z" />
    <glyph glyph-name="jcircumflex" unicode="&#x135;" 
d="M1473 1422v-1046q0 -156 -110 -266t-266 -110h-997v373h952q22 0 34 14q14 12 14 34v1001h373zM1193 1550h-279l188 297q25 40 78 64t117 24q63 0 116 -24t79 -64l188 -297h-279l-104 165z" />
    <glyph glyph-name="Lmiddledot" unicode="&#x13f;" 
d="M100 1422h373v-1001q0 -22 14 -34q12 -14 34 -14h952v-373h-997q-156 0 -266 110t-110 266v1046zM770 903h316v-317h-316v317z" />
    <glyph glyph-name="lmiddledot" unicode="&#x140;" 
d="M100 1422h373v-1001q0 -22 14 -34q12 -14 34 -14h952v-373h-997q-156 0 -266 110t-110 266v1046zM770 903h316v-317h-316v317z" />
    <glyph glyph-name="Lslash" unicode="&#x141;" horiz-adv-x="1886" 
d="M1786 0h-997q-161 0 -268.5 112t-107.5 264v182l-333 -208v224l333 208v640h373v-407l390 244v-224l-390 -244v-370q0 -20 14 -34t34 -14h952v-373z" />
    <glyph glyph-name="lslash" unicode="&#x142;" horiz-adv-x="1886" 
d="M1786 0h-997q-161 0 -268.5 112t-107.5 264v182l-333 -208v224l333 208v640h373v-407l390 244v-224l-390 -244v-370q0 -20 14 -34t34 -14h952v-373z" />
    <glyph glyph-name="Ncaron" unicode="&#x147;" horiz-adv-x="1706" 
d="M100 0v1046q0 156 110 266t266 110h187q156 0 266 -110t110 -266v-625q0 -22 14 -34q14 -14 34 -14h98q20 0 34 14q14 12 14 34v1001h373v-1046q0 -156 -110 -266t-266 -110h-188q-156 0 -266 110t-110 266v625q0 19 -13 34q-16 14 -35 14h-97q-20 0 -34 -14t-14 -34
v-1001h-373zM759 1835l104 -165l104 165h279l-188 -297q-26 -40 -79 -64t-116 -24q-64 0 -117 24t-78 64l-188 297h279z" />
    <glyph glyph-name="ncaron" unicode="&#x148;" horiz-adv-x="1706" 
d="M100 0v1046q0 156 110 266t266 110h187q156 0 266 -110t110 -266v-625q0 -22 14 -34q14 -14 34 -14h98q20 0 34 14q14 12 14 34v1001h373v-1046q0 -156 -110 -266t-266 -110h-188q-156 0 -266 110t-110 266v625q0 19 -13 34q-16 14 -35 14h-97q-20 0 -34 -14t-14 -34
v-1001h-373zM759 1835l104 -165l104 165h279l-188 -297q-26 -40 -79 -64t-116 -24q-64 0 -117 24t-78 64l-188 297h279z" />
    <glyph glyph-name="Omacron" unicode="&#x14c;" 
d="M1097 1422q156 0 266 -110t110 -266v-670q0 -156 -110 -266t-266 -110h-621q-156 0 -266 110t-110 266v670q0 156 110 266t266 110h621zM1100 1001q0 20 -14 34q-12 14 -34 14h-531q-22 0 -34 -14q-14 -14 -14 -34v-580q0 -10 3 -19q6 -10 11 -15q6 -6 16 -11q7 -3 18 -3
h531q10 0 19 3q9 5 16 11q8 10 10 15q3 9 3 19v580zM1161 1587h-749v248h749v-248z" />
    <glyph glyph-name="omacron" unicode="&#x14d;" 
d="M1097 1422q156 0 266 -110t110 -266v-670q0 -156 -110 -266t-266 -110h-621q-156 0 -266 110t-110 266v670q0 156 110 266t266 110h621zM1100 1001q0 20 -14 34q-12 14 -34 14h-531q-22 0 -34 -14q-14 -14 -14 -34v-580q0 -10 3 -19q6 -10 11 -15q6 -6 16 -11q7 -3 18 -3
h531q10 0 19 3q9 5 16 11q8 10 10 15q3 9 3 19v580zM1161 1587h-749v248h749v-248z" />
    <glyph glyph-name="OE" unicode="&#x152;" horiz-adv-x="2580" 
d="M1052 373q23 0 35.5 13.5t12.5 34.5v580q0 20 -13.5 34t-34.5 14h-531q-20 0 -34 -14t-14 -34v-580q0 -20 13 -34t35 -14h531zM2480 0h-998q-106 0 -193 53q-89 -53 -192 -53h-621q-161 0 -268.5 112t-107.5 264v670q0 161 112 268.5t264 107.5h621q103 0 193 -53
q87 53 192 53h998v-373h-953q-20 0 -34 -14t-14 -34v-55q0 -20 14 -34t34 -14h953v-373l-953 -1q-20 0 -34 -14t-14 -34v-55q0 -20 14 -34t34 -14h953v-373z" />
    <glyph glyph-name="oe" unicode="&#x153;" horiz-adv-x="2580" 
d="M1052 373q23 0 35.5 13.5t12.5 34.5v580q0 20 -13.5 34t-34.5 14h-531q-20 0 -34 -14t-14 -34v-580q0 -20 13 -34t35 -14h531zM2480 0h-998q-106 0 -193 53q-89 -53 -192 -53h-621q-161 0 -268.5 112t-107.5 264v670q0 161 112 268.5t264 107.5h621q103 0 193 -53
q87 53 192 53h998v-373h-953q-20 0 -34 -14t-14 -34v-55q0 -20 14 -34t34 -14h953v-373l-953 -1q-20 0 -34 -14t-14 -34v-55q0 -20 14 -34t34 -14h953v-373z" />
    <glyph glyph-name="Rcaron" unicode="&#x158;" horiz-adv-x="1574" 
d="M1087 642q14 16 14 36v319q0 22 -15 37q-16 16 -37 16h-576v-425h579q21 2 35 17zM1101 0v205q0 18 -13 33q-14 14 -30 15h-585v-253h-373v1422h1004q155 0 261 -108q109 -109 109 -261v-431q0 -55 -17 -109q-12 -39 -33 -76q21 -36 33 -78q17 -54 17 -109v-250h-373z
M642 1835l104 -165l104 165h279l-188 -297q-26 -40 -79 -64t-116 -24q-64 0 -117 24t-78 64l-188 297h279z" />
    <glyph glyph-name="rcaron" unicode="&#x159;" horiz-adv-x="1574" 
d="M1087 642q14 16 14 36v319q0 22 -15 37q-16 16 -37 16h-576v-425h579q21 2 35 17zM1101 0v205q0 18 -13 33q-14 14 -30 15h-585v-253h-373v1422h1004q155 0 261 -108q109 -109 109 -261v-431q0 -55 -17 -109q-12 -39 -33 -76q21 -36 33 -78q17 -54 17 -109v-250h-373z
M642 1835l104 -165l104 165h279l-188 -297q-26 -40 -79 -64t-116 -24q-64 0 -117 24t-78 64l-188 297h279z" />
    <glyph glyph-name="Scircumflex" unicode="&#x15c;" 
d="M1100 476q0 22 -14 34q-12 14 -34 14l-577 1q-155 0 -265 110t-110 266v146q0 155 110 265t266 110h997v-372h-952q-20 0 -34 -14t-14 -34v-56q0 -20 14 -34.5t34 -14.5h576q156 0 266 -110t110 -266v-145q0 -155 -110 -265t-266 -110h-997v372h952q20 0 34 14t14 34v55z
M743 1550h-279l188 297q25 40 78 64t117 24q63 0 116 -24t79 -64l188 -297h-279l-104 165z" />
    <glyph glyph-name="scircumflex" unicode="&#x15d;" 
d="M1100 476q0 22 -14 34q-12 14 -34 14l-577 1q-155 0 -265 110t-110 266v146q0 155 110 265t266 110h997v-372h-952q-20 0 -34 -14t-14 -34v-56q0 -20 14 -34.5t34 -14.5h576q156 0 266 -110t110 -266v-145q0 -155 -110 -265t-266 -110h-997v372h952q20 0 34 14t14 34v55z
M743 1550h-279l188 297q25 40 78 64t117 24q63 0 116 -24t79 -64l188 -297h-279l-104 165z" />
    <glyph glyph-name="Scaron" unicode="&#x160;" 
d="M1100 476q0 22 -14 34q-12 14 -34 14l-577 1q-155 0 -265 110t-110 266v146q0 155 110 265t266 110h997v-372h-952q-20 0 -34 -14t-14 -34v-56q0 -20 14 -34.5t34 -14.5h576q156 0 266 -110t110 -266v-145q0 -155 -110 -265t-266 -110h-997v372h952q20 0 34 14t14 34v55z
M743 1835l104 -165l104 165h279l-188 -297q-26 -40 -79 -64t-116 -24q-64 0 -117 24t-78 64l-188 297h279z" />
    <glyph glyph-name="scaron" unicode="&#x161;" 
d="M1100 476q0 22 -14 34q-12 14 -34 14l-577 1q-155 0 -265 110t-110 266v146q0 155 110 265t266 110h997v-372h-952q-20 0 -34 -14t-14 -34v-56q0 -20 14 -34.5t34 -14.5h576q156 0 266 -110t110 -266v-145q0 -155 -110 -265t-266 -110h-997v372h952q20 0 34 14t14 34v55z
M743 1835l104 -165l104 165h279l-188 -297q-26 -40 -79 -64t-116 -24q-64 0 -117 24t-78 64l-188 297h279z" />
    <glyph glyph-name="Tcaron" unicode="&#x164;" horiz-adv-x="1574" 
d="M600 0v1002q0 20 -14 34t-34 14h-452v372h1374v-372h-453q-18 0 -34 -14q-14 -14 -14 -34v-1002h-373zM683 1835l104 -165l104 165h279l-188 -297q-26 -40 -79 -64t-116 -24q-64 0 -117 24t-78 64l-188 297h279z" />
    <glyph glyph-name="tcaron" unicode="&#x165;" horiz-adv-x="1574" 
d="M600 0v1002q0 20 -14 34t-34 14h-452v372h1374v-372h-453q-18 0 -34 -14q-14 -14 -14 -34v-1002h-373zM683 1835l104 -165l104 165h279l-188 -297q-26 -40 -79 -64t-116 -24q-64 0 -117 24t-78 64l-188 297h279z" />
    <glyph glyph-name="Tbar" unicode="&#x166;" horiz-adv-x="1574" 
d="M973 0h-373v650h-369v261h369v91q0 20 -14 34t-34 14h-452v372h1374v-372h-453q-20 0 -34 -14t-14 -34v-91h354v-261h-354v-650z" />
    <glyph glyph-name="tbar" unicode="&#x167;" horiz-adv-x="1574" 
d="M973 0h-373v650h-369v261h369v91q0 20 -14 34t-34 14h-452v372h1374v-372h-453q-20 0 -34 -14t-14 -34v-91h354v-261h-354v-650z" />
    <glyph glyph-name="Utilde" unicode="&#x168;" 
d="M1053 391q11 0 18 4q17 6 26 25q3 9 3 19v1001h373v-1046q0 -156 -110 -266t-266 -110h-621q-156 0 -266 110t-110 266v1046h373v-1001q0 -20 14 -34t34 -14h532zM1051 1833h212v-98q0 -79 -70 -134.5t-169 -55.5h-125q-74 4 -133 40t-81 92q0 1 -1 3q-6 17 -24 28
t-41 11h-29q-28 0 -47.5 -15.5t-19.5 -37.5v-66h-213v98q0 79 70 134.5t169 55.5h125q75 -4 133.5 -40t80.5 -93q1 -1 1 -2q6 -17 24 -28t40 -11h30q28 0 48 15.5t20 37.5v66z" />
    <glyph glyph-name="utilde" unicode="&#x169;" 
d="M1053 391q11 0 18 4q17 6 26 25q3 9 3 19v1001h373v-1046q0 -156 -110 -266t-266 -110h-621q-156 0 -266 110t-110 266v1046h373v-1001q0 -20 14 -34t34 -14h532zM1051 1833h212v-98q0 -79 -70 -134.5t-169 -55.5h-125q-74 4 -133 40t-81 92q0 1 -1 3q-6 17 -24 28
t-41 11h-29q-28 0 -47.5 -15.5t-19.5 -37.5v-66h-213v98q0 79 70 134.5t169 55.5h125q75 -4 133.5 -40t80.5 -93q1 -1 1 -2q6 -17 24 -28t40 -11h30q28 0 48 15.5t20 37.5v66z" />
    <glyph glyph-name="Umacron" unicode="&#x16a;" 
d="M1053 391q11 0 18 4q17 6 26 25q3 9 3 19v1001h373v-1046q0 -156 -110 -266t-266 -110h-621q-156 0 -266 110t-110 266v1046h373v-1001q0 -20 14 -34t34 -14h532zM1161 1587h-749v248h749v-248z" />
    <glyph glyph-name="umacron" unicode="&#x16b;" 
d="M1053 391q11 0 18 4q17 6 26 25q3 9 3 19v1001h373v-1046q0 -156 -110 -266t-266 -110h-621q-156 0 -266 110t-110 266v1046h373v-1001q0 -20 14 -34t34 -14h532zM1161 1587h-749v248h749v-248z" />
    <glyph glyph-name="Wcircumflex" unicode="&#x174;" horiz-adv-x="2272" 
d="M100 1421h372v-1000q0 -20 14 -34t34 -14h98q19 0 34 13q14 14 14 34v372q0 156 110 266t266 110h187q156 0 266 -110t110 -266l1 -371q0 -22 14 -34q12 -14 34 -14h97q21 0 34 13q14 14 14 35v1000h373v-1045q0 -156 -110 -266q-109 -111 -266 -111h-187
q-157 0 -266 111q-110 110 -110 266v371q0 22 -14 34q-14 14 -34 14h-98q-20 0 -34 -14q-14 -12 -14 -34v-371q0 -156 -110 -266q-109 -111 -266 -111h-187q-157 0 -266 111q-110 110 -110 266v1045zM1032 1550h-279l188 297q25 40 78 64t117 24t117 -24t78 -64l188 -297
h-279l-104 165z" />
    <glyph glyph-name="wcircumflex" unicode="&#x175;" horiz-adv-x="2272" 
d="M100 1421h372v-1000q0 -20 14 -34t34 -14h98q19 0 34 13q14 14 14 34v372q0 156 110 266t266 110h187q156 0 266 -110t110 -266l1 -371q0 -22 14 -34q12 -14 34 -14h97q21 0 34 13q14 14 14 35v1000h373v-1045q0 -156 -110 -266q-109 -111 -266 -111h-187
q-157 0 -266 111q-110 110 -110 266v371q0 22 -14 34q-14 14 -34 14h-98q-20 0 -34 -14q-14 -12 -14 -34v-371q0 -156 -110 -266q-109 -111 -266 -111h-187q-157 0 -266 111q-110 110 -110 266v1045zM1032 1550h-279l188 297q25 40 78 64t117 24t117 -24t78 -64l188 -297
h-279l-104 165z" />
    <glyph glyph-name="Ycircumflex" unicode="&#x176;" 
d="M1053 897q19 0 33.5 14.5t14.5 33.5v477h372v-522q0 -156 -110 -266q-111 -109 -266 -109l-124 -1v-524h-373v524h-124q-156 0 -266 110t-110 266v522h372v-477q0 -20 14.5 -34t34.5 -14h532zM682 1550h-278l187 297q26 40 79 64t116 24q64 0 117 -24t79 -64l187 -297
h-278l-105 165z" />
    <glyph glyph-name="ycircumflex" unicode="&#x177;" 
d="M1053 897q19 0 33.5 14.5t14.5 33.5v477h372v-522q0 -156 -110 -266q-111 -109 -266 -109l-124 -1v-524h-373v524h-124q-156 0 -266 110t-110 266v522h372v-477q0 -20 14.5 -34t34.5 -14h532zM682 1550h-278l187 297q26 40 79 64t116 24q64 0 117 -24t79 -64l187 -297
h-278l-105 165z" />
    <glyph glyph-name="Ydieresis" unicode="&#x178;" 
d="M1053 897q19 0 33.5 14.5t14.5 33.5v477h372v-522q0 -156 -110 -266q-111 -109 -266 -109l-124 -1v-524h-373v524h-124q-156 0 -266 110t-110 266v522h372v-477q0 -20 14.5 -34t34.5 -14h532zM711 1587h-249v248h249v-248zM1111 1587h-249v248h249v-248z" />
    <glyph glyph-name="Zdotaccent" unicode="&#x17b;" 
d="M473 476v-55q0 -20 14 -34q16 -14 34 -14h952v-372h-997q-156 0 -266 110t-110 265v145q0 156 110 266t266 110h577q19 0 33 14t14 35v56q0 20 -14 34t-34 14h-952v372h997q156 0 266 -110t110 -265v-146q0 -156 -110 -266q-111 -111 -266 -111v1h-576q-21 0 -34 -15
q-14 -12 -14 -34zM871 1587h-249v248h249v-248z" />
    <glyph glyph-name="zdotaccent" unicode="&#x17c;" 
d="M473 476v-55q0 -20 14 -34q16 -14 34 -14h952v-372h-997q-156 0 -266 110t-110 265v145q0 156 110 266t266 110h577q19 0 33 14t14 35v56q0 20 -14 34t-34 14h-952v372h997q156 0 266 -110t110 -265v-146q0 -156 -110 -266q-111 -111 -266 -111v1h-576q-21 0 -34 -15
q-14 -12 -14 -34zM871 1587h-249v248h249v-248z" />
    <glyph glyph-name="Zcaron" unicode="&#x17d;" 
d="M473 476v-55q0 -20 14 -34q16 -14 34 -14h952v-372h-997q-156 0 -266 110t-110 265v145q0 156 110 266t266 110h577q19 0 33 14t14 35v56q0 20 -14 34t-34 14h-952v372h997q156 0 266 -110t110 -265v-146q0 -156 -110 -266q-111 -111 -266 -111v1h-576q-21 0 -34 -15
q-14 -12 -14 -34zM643 1835l104 -165l104 165h279l-188 -297q-26 -40 -79 -64t-116 -24q-64 0 -117 24t-78 64l-188 297h279z" />
    <glyph glyph-name="zcaron" unicode="&#x17e;" 
d="M473 476v-55q0 -20 14 -34q16 -14 34 -14h952v-372h-997q-156 0 -266 110t-110 265v145q0 156 110 266t266 110h577q19 0 33 14t14 35v56q0 20 -14 34t-34 14h-952v372h997q156 0 266 -110t110 -265v-146q0 -156 -110 -266q-111 -111 -266 -111v1h-576q-21 0 -34 -15
q-14 -12 -14 -34zM643 1835l104 -165l104 165h279l-188 -297q-26 -40 -79 -64t-116 -24q-64 0 -117 24t-78 64l-188 297h279z" />
    <glyph glyph-name="circumflexcomb" unicode="&#x302;" horiz-adv-x="966" 
d="M379 1550h-279l188 297q25 40 78 64t117 24q63 0 116 -24t79 -64l188 -297h-279l-104 165z" />
    <glyph glyph-name="tildecomb" unicode="&#x303;" horiz-adv-x="1154" 
d="M841 1833h213v-98q0 -79 -70.5 -134.5t-169.5 -55.5h-124q-75 4 -134 40t-81 92q0 2 -1 3q-6 17 -24 28t-40 11h-30q-28 0 -47.5 -15.5t-19.5 -37.5v-66h-213v98q0 79 70 134.5t169 55.5h125q75 -4 133.5 -40t80.5 -93q1 0 1 -2q6 -17 24 -28t41 -11h30q28 0 47.5 15.5
t19.5 37.5v66z" />
    <glyph glyph-name="macroncomb" unicode="&#x304;" horiz-adv-x="949" 
d="M849 1587h-749v248h749v-248z" />
    <glyph glyph-name="dotaccentcomb" unicode="&#x307;" horiz-adv-x="449" 
d="M349 1587h-249v248h249v-248z" />
    <glyph glyph-name="dieresiscomb" unicode="&#x308;" horiz-adv-x="849" 
d="M349 1587h-249v248h249v-248zM749 1587h-249v248h249v-248z" />
    <glyph glyph-name="caroncomb" unicode="&#x30c;" horiz-adv-x="966" 
d="M379 1835l104 -165l104 165h279l-188 -297q-26 -40 -79 -64t-116 -24q-64 0 -117 24t-78 64l-188 297h279z" />
    <glyph glyph-name="Wdieresis" unicode="&#x1e84;" horiz-adv-x="2272" 
d="M100 1421h372v-1000q0 -20 14 -34t34 -14h98q19 0 34 13q14 14 14 34v372q0 156 110 266t266 110h187q156 0 266 -110t110 -266l1 -371q0 -22 14 -34q12 -14 34 -14h97q21 0 34 13q14 14 14 35v1000h373v-1045q0 -156 -110 -266q-109 -111 -266 -111h-187
q-157 0 -266 111q-110 110 -110 266v371q0 22 -14 34q-14 14 -34 14h-98q-20 0 -34 -14q-14 -12 -14 -34v-371q0 -156 -110 -266q-109 -111 -266 -111h-187q-157 0 -266 111q-110 110 -110 266v1045zM1060 1587h-249v248h249v-248zM1460 1587h-249v248h249v-248z" />
    <glyph glyph-name="wdieresis" unicode="&#x1e85;" horiz-adv-x="2272" 
d="M100 1421h372v-1000q0 -20 14 -34t34 -14h98q19 0 34 13q14 14 14 34v372q0 156 110 266t266 110h187q156 0 266 -110t110 -266l1 -371q0 -22 14 -34q12 -14 34 -14h97q21 0 34 13q14 14 14 35v1000h373v-1045q0 -156 -110 -266q-109 -111 -266 -111h-187
q-157 0 -266 111q-110 110 -110 266v371q0 22 -14 34q-14 14 -34 14h-98q-20 0 -34 -14q-14 -12 -14 -34v-371q0 -156 -110 -266q-109 -111 -266 -111h-187q-157 0 -266 111q-110 110 -110 266v1045zM1060 1587h-249v248h249v-248zM1460 1587h-249v248h249v-248z" />
    <glyph glyph-name="endash" unicode="&#x2013;" horiz-adv-x="1296" 
d="M100 938h1096v-372h-1096v372z" />
    <glyph glyph-name="emdash" unicode="&#x2014;" horiz-adv-x="2392" 
d="M100 938h2192v-372h-2192v372z" />
    <glyph glyph-name="quoteleft" unicode="&#x2018;" horiz-adv-x="572" 
d="M100 791v631l372 -279v-352h-372z" />
    <glyph glyph-name="quoteright" unicode="&#x2019;" horiz-adv-x="572" 
d="M472 1422v-631l-372 278v353h372z" />
    <glyph glyph-name="quotesinglbase" unicode="&#x201a;" horiz-adv-x="572" 
d="M472 322v-631l-372 278v353h372z" />
    <glyph glyph-name="quotedblleft" unicode="&#x201c;" horiz-adv-x="1000" 
d="M100 791v631l372 -279v-352h-372zM528 791l-1 631l373 -279v-352h-372z" />
    <glyph glyph-name="quotedblright" unicode="&#x201d;" horiz-adv-x="1000" 
d="M900 1422v-631l-373 278v353h373zM472 1422v-631l-372 278v353h372z" />
    <glyph glyph-name="quotedblbase" unicode="&#x201e;" horiz-adv-x="1000" 
d="M900 322v-631l-373 278v353h373zM472 322v-631l-372 278v353h372z" />
    <glyph glyph-name="ellipsis" unicode="&#x2026;" horiz-adv-x="1938" 
d="M100 372h372v-372h-372v372zM783 372h372v-372h-372v372zM1466 372h372v-372h-372v372z" />
    <glyph glyph-name="perthousand" unicode="&#x2030;" horiz-adv-x="3469" 
d="M686 930q14 14 14 34v37q0 20 -14 34q-12 14 -34 14h-131q-22 0 -34 -14q-14 -14 -14 -34v-37q0 -20 14 -34q12 -14 34 -14h131q22 0 34 14zM1982 387q14 12 14 34v73q0 22 -14 34q-12 14 -34 14h-131q-22 0 -34 -14q-14 -12 -14 -34v-73q0 -22 14 -34q12 -14 34 -14h131
q22 0 34 14zM569 0l411 672q-10 -12 -17 -19q-110 -110 -266 -110h-221q-156 0 -266 110t-110 266v127q0 156 110 266t266 110h221q156 0 266 -110t110 -266v-127q0 -67 -23 -130l410 633h440l-411 -636q5 7 17 19q110 110 266 110h221q156 0 266 -110t110 -266v-163
q0 -156 -110 -266t-266 -110h-221q-156 0 -266 110t-110 266v163q0 69 23 130l-410 -669h-440zM2982 387q14 12 14 34v73q0 22 -14 34q-12 14 -34 14h-131q-22 0 -34 -14q-14 -12 -14 -34v-73q0 -22 14 -34q12 -14 34 -14h131q22 0 34 14zM2419 669q23 67 87 136
q104 110 266 110h221q156 0 266 -110t110 -266v-163q0 -156 -110 -266t-266 -110h-221q-156 0 -266 110t-110 266v163q0 69 23 130z" />
    <glyph glyph-name="guilsinglleft" unicode="&#x2039;" horiz-adv-x="1192" 
d="M1068 537l24 -10v-416l-816 351q-79 34 -128 107q-48 73 -48 160q0 89 48 160q48 73 128 108l816 351v-417l-469 -202z" />
    <glyph glyph-name="guilsinglright" unicode="&#x203a;" horiz-adv-x="1192" 
d="M124 537l446 192l-470 202v417l816 -351q81 -35 128 -108q48 -71 48 -160q0 -87 -48 -160q-47 -73 -128 -107l-816 -351v416z" />
    <glyph glyph-name="minus" unicode="&#x2212;" horiz-adv-x="1204" 
d="M100 916h1004v-373h-1004v373z" />
    <glyph glyph-name="almostequalto" unicode="&#x2248;" horiz-adv-x="1234" 
d="M841 1002v98h293v-131q0 -91 -82 -158q-83 -65 -198 -65h-126q-87 4 -156 47q-64 39 -96 112q-5 16 -26 16h-30q-11 0 -19 -6.5t-8 -15.5v-98h-293v131q0 92 82 158q81 65 197 65h127q80 0 155 -47q33 -20 54.5 -48t33 -49.5t19.5 -26.5q5 -4 16 -4h30q11 0 19 6.5
t8 15.5zM841 570v98h293v-131q0 -91 -82 -158q-83 -65 -198 -65h-126q-87 4 -156 47q-64 39 -96 112q-5 16 -26 16h-30q-11 0 -19 -6.5t-8 -15.5v-98h-293v131q0 92 82 158q81 65 197 65h127q80 0 155 -47q33 -20 54.5 -48t33 -49.5t19.5 -26.5q5 -4 16 -4h30q11 0 19 6.5
t8 15.5z" />
    <glyph glyph-name="notequalto" unicode="&#x2260;" horiz-adv-x="1204" 
d="M469 151h-264l81 181h-186v373h352l29 66h-381v373h547l64 144h264l-64 -144h193v-373h-359l-29 -66h388v-373h-554z" />
    <glyph glyph-name="lessthanorequalto" unicode="&#x2264;" horiz-adv-x="1204" 
d="M1074 730l24 -8v-334l-816 282q-79 27 -128 85q-48 59 -48 128q0 71 48 128q48 59 128 86l816 281v-333l-469 -162zM100 324h1004v-335h-1004v335z" />
    <glyph glyph-name="greaterthanorequalto" unicode="&#x2265;" horiz-adv-x="1204" 
d="M130 730l446 153l-470 162v333l816 -281q82 -27 128 -86q48 -57 48 -128q0 -69 -48 -128q-47 -58 -128 -85l-816 -282v334zM100 324h1004v-335h-1004v335z" />
    </font>
</defs>
</svg>
