<?xml version="1.0" standalone="no"?>
<!DOCTYPE svg PUBLIC "-//W3C//DTD SVG 1.1//EN" "http://www.w3.org/Graphics/SVG/1.1/DTD/svg11.dtd" >
<svg xmlns="http://www.w3.org/2000/svg" xmlns:xlink="http://www.w3.org/1999/xlink" version="1.1">
<metadata>
Created by FontForge 20170731 at Wed Aug 17 21:06:23 2022
 By Aleksey,,,
EMOTIQ (c) Enxyclo Studio. 2022. All Rights Reserved
</metadata>
<defs>
<font id="EMOTIQStencilOutlineSlant" horiz-adv-x="1493" >
  <font-face 
    font-family="EMOTIQ Stencil Outline Slant"
    font-weight="400"
    font-stretch="normal"
    units-per-em="2048"
    panose-1="2 0 5 0 2 0 0 0 0 0"
    ascent="1638"
    descent="-410"
    x-height="1441"
    cap-height="1441"
    bbox="-216 -350 3222 1955"
    underline-thickness="51"
    underline-position="-152"
    unicode-range="U+0020-2265"
  />
<missing-glyph horiz-adv-x="1024" 
d="M924 0h-824v1434h824v-1434zM874 50v1334h-724v-1334h724zM478 454h-32q-35 99 -35 148q0 76 82 218q81 143 81 217q0 57 -33 90t-91 33q-34 0 -61 -13.5t-64 -43.5v45q81 73 170 73q91 0 147.5 -47t56.5 -128q0 -51 -24 -101t-86 -127q-54 -69 -76 -98.5t-40.5 -66.5
t-18.5 -66q0 -39 24 -133zM466 213q-11 0 -20 10l-61 71q-7 8 -7 18q0 9 11 22l57 58q10 10 20 10q9 0 22 -11l56 -60q9 -10 9 -20q0 -12 -10 -22l-56 -62q-14 -14 -21 -14z" />
    <glyph glyph-name=".notdef" horiz-adv-x="1024" 
d="M924 0h-824v1434h824v-1434zM874 50v1334h-724v-1334h724zM478 454h-32q-35 99 -35 148q0 76 82 218q81 143 81 217q0 57 -33 90t-91 33q-34 0 -61 -13.5t-64 -43.5v45q81 73 170 73q91 0 147.5 -47t56.5 -128q0 -51 -24 -101t-86 -127q-54 -69 -76 -98.5t-40.5 -66.5
t-18.5 -66q0 -39 24 -133zM466 213q-11 0 -20 10l-61 71q-7 8 -7 18q0 9 11 22l57 58q10 10 20 10q9 0 22 -11l56 -60q9 -10 9 -20q0 -12 -10 -22l-56 -62q-14 -14 -21 -14z" />
    <glyph glyph-name=".null" horiz-adv-x="0" 
 />
    <glyph glyph-name="nonmarkingreturn" horiz-adv-x="682" 
 />
    <glyph glyph-name="space" unicode=" " horiz-adv-x="600" 
 />
    <glyph glyph-name="space" unicode="&#xa0;" horiz-adv-x="600" 
 />
    <glyph glyph-name="exclam" unicode="!" horiz-adv-x="493" 
d="M337 403h-334l259 1038h334zM-20 312h334l-83 -332h-334zM306 443l238 958h-251l-239 -958h252zM11 272l-63 -252h252l63 252h-252z" />
    <glyph glyph-name="quotedbl" unicode="&#x22;" horiz-adv-x="853" 
d="M956 1441l-142 -569l-272 250l80 319h334zM596 1441l-142 -569l-272 250l80 319h334zM904 1401h-251l-66 -266l204 -188zM544 1401h-251l-66 -266l204 -188z" />
    <glyph glyph-name="numbersign" unicode="#" horiz-adv-x="1530" 
d="M847 590h-224l60 241h224zM1471 791h-281l-40 -161h281l-84 -334h-280l-79 -317h-334l79 317h-142l-79 -317h-334l79 317h-281l83 334h281l40 161h-281l84 333h280l79 317h334l-79 -317h142l79 317h334l-79 -317h281zM816 630l40 161h-142l-40 -161h142zM1439 831l64 253
h-281l79 317h-252l-79 -317h-224l79 317h-252l-79 -317h-280l-63 -253h280l-60 -241h-280l-64 -254h281l-79 -317h251l80 317h224l-79 -317h251l79 317h281l63 254h-280l60 241h280z" />
    <glyph glyph-name="dollar" unicode="$" 
d="M1023 481q2 12 2 16q0 47 -49 47h-93l-38 -150h-335l38 150h-149q-123 0 -202.5 79t-79.5 196q0 46 11 86l30 122h335l-23 -87q-2 -12 -2 -16q0 -47 49 -47h114l37 150h335l-37 -150h128q123 0 202.5 -79t79.5 -196q0 -46 -11 -86l-30 -122h-333zM1315 313
q-55 -147 -177.5 -240t-257.5 -93h-138l-46 -183h-334l46 183h-511l83 333h1335zM178 1109q56 147 178.5 239.5t256.5 92.5h159l46 183h334l-46 -183h490l-83 -332h-1335zM1061 471l-9 -37h251l24 92q9 41 9 76q0 105 -65.5 170t-176.5 65h-180l37 150h-251l-37 -150h-146
q-36 0 -62.5 26t-26.5 61q0 8 4 26l9 37h-251l-24 -92q-9 -41 -9 -76q0 -105 65.5 -170t176.5 -65h201l-38 -150h251l38 150h125q37 0 63 -26t26 -61q0 -14 -4 -26zM1257 273h-1245l-63 -253h510l-46 -183h252l45 183h170q121 0 229.5 75.5t147.5 177.5zM236 1149h1246
l63 252h-490l45 183h-251l-46 -183h-190q-120 0 -229.5 -75t-147.5 -177z" />
    <glyph glyph-name="percent" unicode="%" horiz-adv-x="2389" 
d="M434 584l63 253h20q-38 0 -63.5 26t-25.5 61q0 14 4 26l24 95q11 43 48.5 73t69.5 30l63 253q-84 0 -145 -19.5t-126 -71.5q-115 -91 -153 -230l-47 -185q-9 -39 -9 -76q0 -103 64 -169t178 -66h35zM621 584q134 0 248 91.5t152 229.5l47 185q9 39 9 76q0 103 -64 169
t-178 66h-35l-63 -253h-20q38 0 63.5 -26t25.5 -61q0 -14 -4 -26l-24 -95q-11 -43 -48.5 -73t-69.5 -30l-63 -253h24zM760 20l1164 1381h-295l-1164 -1381h295zM1776 20q135 0 249 91t152 229l46 185q9 39 9 76q0 103 -64 169t-178 66h-34l-63 -253h-21q38 0 63.5 -26
t25.5 -61q0 -14 -4 -26l-24 -95q-11 -42 -49 -72.5t-69 -30.5l-63 -252h24zM1589 20l63 252h21q-37 0 -63 26t-26 60q0 15 4 27l23 95q11 43 48.5 73t69.5 30l63 253q-84 0 -145 -19.5t-126 -71.5q-115 -91 -153 -230l-46 -185q-10 -39 -10 -77q0 -101 64 -167t179 -66h34z
M466 544h-67q-126 0 -204 80t-78 195q0 39 11 86l47 185q40 148 166 249.5t272 101.5h76l-83 -333h-21q-32 0 -57 -20t-34 -53l-24 -95q-2 -10 -2 -16q0 -46 49 -47h32zM621 544h-76l83 333h21q32 0 57 20t34 53l24 95q2 10 2 16q0 46 -49 47h-32l83 333h67q126 0 204 -80
t78 -195q0 -39 -11 -86l-47 -185q-41 -148 -167 -249.5t-271 -101.5zM779 -20h-400l1231 1461h400zM1776 -20h-76l83 332h21q31 0 56.5 20.5t34.5 52.5l24 95q2 10 2 16q0 14 -4 23t-9 14t-17.5 7t-21.5 2.5t-28 0.5l83 333h66q126 0 204 -80t78 -195q0 -39 -11 -86
l-46 -185q-41 -148 -167 -249t-272 -101zM1621 -20h-66q-124 0 -203.5 78t-79.5 195q0 41 12 87l46 185q40 148 166 249.5t272 101.5h76l-83 -333h-21q-32 0 -57 -20t-34 -53l-23 -95q-2 -10 -2 -17q0 -31 18 -38.5t62 -7.5z" />
    <glyph glyph-name="ampersand" unicode="&#x26;" horiz-adv-x="1573" 
d="M867 -22l141 566h-137l83 333h581l-83 -333h-111l-54 -222q-33 -132 -151 -229.5t-269 -114.5zM871 312l-84 -333h-528q-123 0 -203 78.5t-80 195.5q0 42 12 87l47 192q26 104 98 183q-17 37 -17 99q0 39 11 85l49 198q33 133 150.5 231t269.5 114l-125 -498
q-2 -12 -2 -16q0 -51 53 -51h180l-83 -333h-170q-33 0 -60.5 -22t-36.5 -55l-23 -92q-2 -12 -2 -16q0 -47 50 -47h494zM592 1109l83 332h536q120 0 198.5 -77.5t78.5 -192.5q0 -38 -11 -84l-33 -134h-333l21 89q2 7 2 18q0 18 -9 30q-15 19 -43 19h-490zM919 24
q104 12 201.5 100.5t127.5 207.5l62 252h111l63 253h-499l-63 -253h137zM819 272h-442q-37 0 -63.5 26t-26.5 61q0 8 4 26l23 92q10 43 50.5 75t84.5 32h138l63 253h-128q-39 0 -66 27t-27 64q0 8 4 26l111 442q-104 -11 -202 -100t-128 -209l-49 -198q-9 -39 -9 -75
q0 -52 23 -107q-80 -89 -106 -185l-47 -192q-10 -39 -10 -77q0 -104 66 -169t177 -65h496zM644 1149h438q48 0 75 -35q17 -22 17 -54q0 -16 -4 -28l-9 -39h251l27 104q9 39 9 74q0 103 -64.5 166.5t-172.5 63.5h-504z" />
    <glyph glyph-name="quotesingle" unicode="'" horiz-adv-x="493" 
d="M596 1441l-142 -569l-272 250l80 319h334zM544 1401h-251l-66 -266l204 -188z" />
    <glyph glyph-name="parenleft" unicode="(" horiz-adv-x="794" 
d="M451 -350h-281q-121 0 -199 77.5t-78 192.5q0 45 11 85l165 665h335l-155 -619q-2 -14 -2 -18q0 -50 52 -50h235zM424 751h-334l168 675q35 141 162 243t269 102h290l-83 -333h-224q-34 0 -61 -22t-35 -55zM419 -310l63 253h-183q-39 0 -65.5 26.5t-26.5 63.5q0 16 4 28
l141 569h-251l-159 -635q-9 -39 -9 -75q0 -102 64.5 -166t172.5 -64h249zM392 791l145 579q11 44 51 76t84 32h193l63 253h-239q-131 0 -245.5 -91.5t-146.5 -223.5l-156 -625h251z" />
    <glyph glyph-name="parenright" unicode=")" horiz-adv-x="794" 
d="M-184 -350l82 333h225q33 0 60.5 22t35.5 55l152 610h334l-168 -675q-35 -141 -162 -243t-269 -102h-290zM391 751l155 620q2 14 2 17q0 50 -52 50h-236l83 333h281q121 0 199.5 -78t78.5 -193q0 -38 -11 -84l-166 -665h-334zM-133 -310h239q131 0 245 91.5t147 223.5
l156 625h-252l-144 -579q-11 -44 -51.5 -76t-83.5 -32h-193zM443 791h250l160 635q9 39 9 74q0 103 -65 167t-173 64h-249l-63 -253h184q38 0 65 -27t27 -63q0 -15 -4 -27z" />
    <glyph glyph-name="asterisk" unicode="*" horiz-adv-x="765" 
d="M812 1214l-38 -152h-123l66 -88l-130 -104l-66 88l-30 -122h-154l29 115l-100 -81l-84 111l101 81h-116l38 152h123l-66 88l130 104l66 -87l30 122h154l-29 -115l100 80l84 -111l-101 -81h116zM761 1174h-179l159 128l-35 47l-161 -128l45 180h-70l-44 -173l-91 121
l-67 -54l90 -121h-172l-18 -72h179l-159 -128l35 -47l161 129l-45 -180h70l44 173l91 -122l67 54l-90 121h172z" />
    <glyph glyph-name="plus" unicode="+" horiz-adv-x="1124" 
d="M1086 876l-83 -332h-315l-79 -316h-334l79 316h-316l83 332h316l78 316h334l-78 -316h315zM1035 836h-316l79 316h-251l-79 -316h-316l-63 -252h316l-79 -316h252l78 316h316z" />
    <glyph glyph-name="comma" unicode="," horiz-adv-x="493" 
d="M-20 312h334l-81 -325l-396 -250zM11 272l-111 -448l298 188l65 260h-252z" />
    <glyph glyph-name="hyphenminus" unicode="-" horiz-adv-x="1124" 
d="M121 876h965l-83 -332h-965zM152 836l-63 -252h883l63 252h-883z" />
    <glyph glyph-name="hyphenminus" unicode="&#xad;" horiz-adv-x="1124" 
d="M121 876h965l-83 -332h-965zM152 836l-63 -252h883l63 252h-883z" />
    <glyph glyph-name="period" unicode="." horiz-adv-x="493" 
d="M-20 312h334l-83 -332h-334zM11 272l-63 -252h252l63 252h-252z" />
    <glyph glyph-name="slash" unicode="/" horiz-adv-x="1391" 
d="M-120 -21l1231 1462h400l-1231 -1462h-400zM-34 19h295l1164 1382h-295z" />
    <glyph glyph-name="zero" unicode="0" 
d="M866 544h-322l83 333h322zM1177 1441q96 0 171 -27t123 -87.5t48 -147.5q0 -47 -13 -98l-187 -750q-35 -144 -164.5 -247.5t-274.5 -103.5h-569l83 332h514q31 0 57 21t34 53l165 659q2 12 2 16q0 47 -49 47h-525l83 333h502zM231 -19q-118 16 -186.5 91t-68.5 182
q0 42 12 87l187 750q33 133 150.5 232t269.5 118zM835 584l63 253h-239l-63 -253h239zM1177 1401h-470l-63 -253h473q37 0 63 -26t26 -61q0 -14 -4 -26l-165 -659q-10 -41 -48.5 -72.5t-80.5 -31.5h-482l-63 -252h517q134 0 250.5 93t150.5 228l187 750q11 44 11 88
q0 112 -82 167t-220 55zM201 25l342 1370q-105 -13 -202.5 -103.5t-127.5 -210.5l-187 -750q-10 -45 -10 -77q0 -93 51.5 -155.5t133.5 -73.5z" />
    <glyph glyph-name="one" unicode="1" horiz-adv-x="665" 
d="M179 1108l83 333h506l-365 -1461h-334l282 1128h-172zM230 1148h172l-281 -1128h251l344 1381h-423z" />
    <glyph glyph-name="two" unicode="2" 
d="M1200 20l63 253h-838l-63 -253h838zM199 20l115 457q12 44 51 75.5t83 31.5h579q132 0 243 89.5t149 225.5l50 198q9 37 9 75q0 94 -51.5 154.5t-134.5 70.5l-110 -439q-12 -56 -53 -90q-43 -31 -84 -31h-579q-132 0 -243.5 -89.5t-149.5 -225.5l-124 -502h250z
M1068 1148l63 253h-838l-63 -253h838zM1231 -20h-920l83 333h920zM231 -20h-334l138 552q41 146 165 245.5t266 99.5h579q35 0 64.5 27.5t34.5 63.5l118 473q123 -17 189.5 -92t66.5 -177q0 -39 -11 -85l-50 -198q-39 -146 -163 -245.5t-267 -99.5h-579q-34 0 -60 -21.5
t-36 -55.5zM1099 1108h-920l83 333h920z" />
    <glyph glyph-name="three" unicode="3" 
d="M1042 877l-84 -333h-920l83 333h921zM901 313l-83 -333h-921l83 333h921zM898 -20l364 1460q117 -15 186 -91t69 -182q0 -46 -11 -86l-46 -186q-26 -107 -102 -188q18 -40 18 -105q0 -40 -11 -86l-46 -185q-33 -134 -151 -233t-270 -118zM1182 1441l-83 -333h-920l83 333
h920zM990 837h-838l-63 -253h838zM849 273h-837l-63 -253h837zM950 26q105 13 202.5 103.5t128.5 211.5l46 185q9 39 9 76q0 54 -26 113q85 89 112 190l46 186q9 39 9 76q0 92 -51.5 155t-133.5 74zM1131 1401h-838l-63 -253h838z" />
    <glyph glyph-name="four" unicode="4" 
d="M1262 1441h334l-364 -1461h-334q126 507 364 1461zM1042 877l-83 -333h-566q-121 0 -199 77t-78 192q0 45 11 85l134 543h335l-125 -497q-2 -12 -2 -16q0 -51 53 -51h520zM1294 1401q-118 -471 -345 -1381h252l344 1381h-251zM990 837h-468q-39 0 -66 27t-27 64q0 8 4 26
l111 447h-251l-128 -513q-9 -39 -9 -75q0 -102 64.5 -165.5t172.5 -63.5h534z" />
    <glyph glyph-name="five" unicode="5" 
d="M456 878h644q69 0 128.5 -28t96.5 -77q53 -72 53 -167q0 -39 -11 -83l-50 -199q-33 -133 -150.5 -231.5t-269.5 -114.5l125 499q2 12 2 17q0 18 -10 32q-15 19 -42 19h-934l224 897h334zM900 313l-83 -333l-919 1l83 332h919zM593 1109l83 333h920l-83 -333h-920z
M404 838l140 564h-250l-204 -817h882q47 0 74 -35q18 -25 18 -56q0 -15 -4 -27l-111 -443q104 11 202 100.5t128 209.5l50 199q9 38 9 73q0 83 -45 143q-66 89 -193 89h-696zM849 273h-837l-63 -252l837 -1zM644 1149h838l63 253h-838z" />
    <glyph glyph-name="six" unicode="6" 
d="M904 313q33 0 60.5 21.5t35.5 55.5l22 88q2 14 2 18q0 49 -52 49h-520l83 333h566q121 0 199 -77.5t78 -192.5q0 -45 -11 -85l-50 -199q-35 -141 -161.5 -242.5t-268.5 -101.5h-576l83 333h510zM1513 1108q-153 0 -456.5 0.5t-463.5 0.5l83 333q153 0 456.5 -0.5
t463.5 -0.5zM596 1443l-365 -1463q-117 13 -186.5 88t-69.5 181q0 45 11 85l190 764q33 133 151 231t269 114zM904 273h-478l-63 -253h524q131 0 245 91t147 223l50 199q9 39 9 75q0 102 -64.5 166t-172.5 64h-534l-63 -253h468q39 0 65.5 -26.5t26.5 -62.5q0 -16 -4 -28
l-22 -88q-10 -43 -50 -75t-84 -32zM1482 1148l63 253q-132 0 -415 0.5t-423 0.5l-63 -253q132 0 415 -0.5t423 -0.5zM544 1397q-104 -11 -201.5 -100t-128.5 -209l-190 -764q-9 -39 -9 -75q0 -92 52 -154t134 -71z" />
    <glyph glyph-name="seven" unicode="7" 
d="M705 467l-122 -487h-334l138 552q35 142 162 243t269 101l223 1l-83 -333h-158q-32 0 -59 -23q-29 -23 -36 -54zM1039 543l223 898q117 -13 186.5 -88t69.5 -181q0 -45 -11 -85l-49 -198q-33 -133 -150.5 -231.5t-268.5 -114.5zM1182 1441l-83 -333h-920l83 333h920z
M666 476q11 45 50 76q38 32 84 32h127l63 253l-172 -1q-132 0 -246 -91t-146 -223l-126 -502h252zM1091 589q104 11 201.5 100.5t127.5 209.5l49 198q9 39 9 75q0 92 -52 154t-134 71zM1131 1401h-838l-63 -253h838z" />
    <glyph glyph-name="eight" unicode="8" 
d="M470 940q-2 -12 -2 -16q0 -47 49 -47h232l-84 -333h-221q-31 0 -57 -20.5t-34 -52.5l-23 -95q-2 -14 -2 -17q0 -46 49 -46h524l-83 -333h-559q-123 0 -203 78t-80 195q0 43 12 88l46 185q25 108 101 189q-18 40 -18 104q0 40 11 86l47 186q33 133 150 232.5t270 119.5z
M828 877h221q31 0 57 20.5t34 52.5l24 95q2 12 2 16q0 47 -49 47h-525l83 333h560q123 0 202.5 -78.5t79.5 -195.5q0 -46 -11 -86l-46 -186q-26 -107 -102 -188q18 -40 18 -105q0 -40 -11 -86l-46 -185q-33 -134 -151 -233t-270 -118l125 501q2 12 2 16q0 47 -49 47h-231z
M432 950l111 445q-104 -13 -202 -103.5t-128 -210.5l-47 -186q-9 -39 -9 -76q0 -53 26 -112q-86 -90 -111 -191l-46 -185q-10 -39 -10 -78q0 -104 66 -168.5t177 -64.5h527l63 253h-472q-37 0 -63 25.5t-26 60.5q0 15 4 27l23 95q10 41 48.5 72t80.5 31h189l64 253h-180
q-36 0 -62.5 26t-26.5 61q0 8 4 26zM860 837l-63 -253h179q37 0 63 -26t26 -61q0 -14 -4 -26l-111 -445q105 13 202.5 103.5t128.5 211.5l46 185q9 39 9 76q0 54 -26 113q85 89 112 190l46 186q9 40 9 76q0 105 -65.5 169.5t-176.5 64.5h-528l-63 -253h473q37 0 63 -26
t26 -61q0 -14 -4 -26l-24 -95q-10 -41 -48.5 -72t-80.5 -31h-189z" />
    <glyph glyph-name="nine" unicode="9" 
d="M589 1110q-33 0 -60 -22t-36 -56l-22 -88q-2 -12 -2 -17q0 -50 52 -50h521l-83 -333h-566q-121 0 -199 77t-78 192q0 46 11 86l49 199q35 141 162 242.5t269 101.5h576l-83 -332h-511zM898 -21l364 1463q117 -13 187 -88.5t70 -181.5q0 -38 -11 -84l-191 -764
q-33 -132 -150.5 -230.5t-268.5 -114.5zM-19 314q153 0 456 -0.5t464 -0.5l-83 -333q-154 0 -457 0.5t-463 0.5zM589 1150h479l63 252h-524q-131 0 -245 -91t-148 -223l-49 -199q-9 -41 -9 -76q0 -102 64.5 -165.5t172.5 -63.5h534l63 253h-469q-38 0 -65 27t-27 63
q0 9 4 27l22 88q11 43 51 75.5t83 32.5zM950 25q104 11 201.5 100t127.5 209l191 764q9 39 9 74q0 92 -52.5 154.5t-134.5 71.5zM12 274l-63 -253q132 0 414.5 -0.5t422.5 -0.5l64 253q-133 0 -415.5 0.5t-422.5 0.5z" />
    <glyph glyph-name="colon" unicode=":" horiz-adv-x="493" 
d="M175 1092h334l-83 -332h-334zM67 660h334l-83 -332h-334zM206 1052l-63 -252h252l62 252h-251zM98 620l-63 -252h252l63 252h-252z" />
    <glyph glyph-name="semicolon" unicode=";" horiz-adv-x="493" 
d="M-20 312h334l-81 -325l-396 -250zM175 1092h334l-83 -332h-334zM11 272l-111 -448l298 188l65 260h-252zM206 1052l-63 -252h252l62 252h-251z" />
    <glyph glyph-name="less" unicode="&#x3c;" horiz-adv-x="1105" 
d="M971 493l-92 -369l-701 338q-54 26 -83.5 79.5t-29.5 128.5h539zM634 751h-551q78 157 212 209l878 341l-94 -377zM925 471l-330 159h-490q0 -39 24 -75.5t67 -56.5l657 -317zM627 791l418 162l70 283l-806 -314q-55 -21 -99.5 -59t-62.5 -72h480z" />
    <glyph glyph-name="equal" unicode="=" horiz-adv-x="1124" 
d="M949 324h-966l83 333h966zM1058 763h-965l83 333h965zM917 364l63 253h-883l-63 -253h883zM1027 803l63 253h-883l-63 -253h883z" />
    <glyph glyph-name="greater" unicode="&#x3e;" horiz-adv-x="1105" 
d="M26 497l446 173h550q-77 -157 -212 -209l-878 -341zM500 751l-366 177l92 369l701 -338q54 -26 83.5 -80t29.5 -128h-540zM60 467l-70 -282l806 313q55 21 99.5 59t62.5 73h-479zM509 791h491q0 39 -23.5 75t-67.5 57l-656 316l-73 -290z" />
    <glyph glyph-name="question" unicode="?" 
d="M332 312h334l-83 -332h-334zM704 467l-15 -63h-335l33 128q35 141 162 242.5t269 101.5l227 1q32 0 59 23q28 22 37 54l121 487q117 -13 186.5 -88t69.5 -181q0 -45 -11 -85l-49 -198q-35 -141 -162 -243t-269 -102h-227q-30 0 -59 -23q-28 -24 -37 -54zM1182 1441
l-83 -333h-920l83 333h920zM363 272l-63 -252h252l63 252h-252zM666 477q9 41 49 76q41 31 85 31h227q131 0 245 91.5t148 223.5l49 198q9 39 9 75q0 92 -52 154t-134 71l-113 -453q-10 -44 -49 -76q-39 -31 -85 -31l-227 -1q-131 0 -245 -91t-148 -223l-19 -78h251z
M1131 1401h-838l-63 -253h838z" />
    <glyph glyph-name="at" unicode="@" horiz-adv-x="1613" 
d="M747 360l40 161h-130q-35 0 -55 26q-14 22 -14 42q0 9 3 20l53 213q11 38 39 58t59 20h303l-106 -421l5 6q19 -64 53 -94t87 -30h112q88 0 162.5 59.5t99.5 150.5l157 630q6 25 6 49q0 67 -40.5 109t-115.5 42h-851l-40 -160h803q30 0 49.5 -20.5t19.5 -46.5q0 -9 -3 -21
l-138 -554q-10 -41 -40.5 -59.5t-67.5 -18.5q-29 0 -49 19t-20 48q0 9 3 21l111 451h-488q-88 0 -162.5 -59.5t-99.5 -150.5l-72 -289q-6 -25 -6 -50q0 -66 40 -108t115 -42h165q11 0 13 -1zM1320 20l40 160h-1124q-29 0 -49 20.5t-20 46.5q0 11 3 21l281 1129
q-64 -9 -125.5 -65t-85.5 -141l-242 -971q-6 -26 -6 -49q0 -67 40.5 -109t115.5 -42h1172zM1352 -20h-1204q-85 0 -140.5 55t-55.5 136q0 25 8 59l242 971q23 92 103.5 159.5t197.5 82.5l-295 -1185l-1 -11q0 -27 27 -27h1178zM1196 321h-112q-58 0 -103 26t-55 56l5 6
l-3 -2q-4 -4 -8 -7.5t-18.5 -16.5t-34.5 -29l126 506h-251q-20 0 -37 -14t-23 -34l-53 -213q0 -5 -0.5 -7t-0.5 -3q0 -28 29 -28h182l-60 -235q-33 -5 -45 -5h-165q-87 0 -141 56t-54 134q0 26 8 60l72 289q27 101 113.5 170.5t186.5 69.5h540l-125 -501l-1 -11q0 -17 9 -22
t30 -5q23 0 39 14.5t21 33.5l138 554l1 11q0 27 -25 27h-857l58 240h883q87 0 141.5 -56t54.5 -135q0 -25 -8 -59l-157 -630q-27 -101 -114 -170.5t-186 -69.5z" />
    <glyph glyph-name="A" unicode="A" 
d="M1117 1108h-525l83 333h560q123 0 202.5 -79t79.5 -196q0 -46 -11 -86l-274 -1100h-335l73 292h-586l83 333h586l111 440q2 14 2 18q0 45 -49 45zM231 -20h-334l277 1110q33 134 151 233.5t271 118.5zM1117 1148q38 0 63.5 -24.5t25.5 -60.5q0 -15 -4 -28l-117 -470h-586
l-63 -253h586l-73 -292h251l268 1070q9 40 9 76q0 105 -65.5 170t-176.5 65h-528l-63 -253h473zM200 20l343 1375q-105 -13 -202.5 -103.5t-127.5 -210.5l-264 -1061h251z" />
    <glyph glyph-name="B" unicode="B" 
d="M1140 950l24 95q2 12 2 16q0 47 -49 47h-525l83 333h560q123 0 202.5 -78.5t79.5 -195.5q0 -46 -11 -86l-46 -186q-26 -107 -102 -188q18 -40 18 -105q0 -40 -11 -86l-46 -185q-36 -144 -165 -247.5t-274 -103.5h-569l83 333h514q32 0 57.5 20.5t33.5 52.5l24 95
q2 12 2 16q0 47 -49 47h-525l84 333h514q31 0 57 20.5t34 52.5zM-103 -20l365 1461h334l-365 -1461h-334zM1178 940q-10 -41 -48.5 -72t-80.5 -31h-482l-64 -253h473q37 0 63 -26t26 -61q0 -14 -4 -26l-24 -95q-10 -41 -48.5 -72t-80.5 -31h-482l-63 -253h517q134 0 250 93
t151 228l46 185q9 39 9 76q0 54 -26 113q85 89 112 190l46 186q9 40 9 76q0 105 -65.5 169.5t-176.5 64.5h-528l-63 -253h473q37 0 63 -26t26 -61q0 -14 -4 -26zM-51 20h251l344 1381h-251z" />
    <glyph glyph-name="C" unicode="C" 
d="M593 1108l83 333h920l-83 -333h-920zM595 1441l-364 -1460q-118 16 -186.5 91t-68.5 182q0 42 12 87l187 750q33 133 150.5 232t269.5 118zM311 -20l83 333h921l-83 -333h-921zM644 1148h838l63 253h-838zM543 1395q-105 -13 -202.5 -103.5t-127.5 -210.5l-187 -750
q-10 -45 -10 -77q0 -93 51.5 -155.5t133.5 -73.5zM362 20h838l63 253h-838z" />
    <glyph glyph-name="D" unicode="D" 
d="M1000 390l163 651q2 12 2 17q0 50 -52 50h-521l83 333h566q121 0 199 -77t78 -191q0 -46 -11 -86l-190 -763q-35 -141 -161.5 -242.5t-268.5 -101.5h-576l83 333h510q33 0 60.5 21.5t35.5 55.5zM596 1441l-365 -1461h-334l365 1461h334zM1038 380q-10 -43 -50 -75
t-84 -32h-478l-63 -253h524q131 0 245 91t147 223l190 763q9 41 9 76q0 102 -64.5 165t-172.5 63h-534l-63 -253h469q38 0 65 -27t27 -63q0 -9 -4 -27zM544 1401h-251l-344 -1381h251z" />
    <glyph glyph-name="E" unicode="E" 
d="M231 -19q-118 16 -186.5 91t-68.5 182q0 42 12 87l46 185q25 108 101 189q-18 40 -18 104q0 40 11 86l47 186q33 133 150.5 232t269.5 118zM535 877h920l-83 -332q-152 0 -456 -0.5t-464 -0.5zM394 313h921l-83 -333h-921zM676 1441h920l-83 -333h-920zM201 25l342 1370
q-105 -13 -202.5 -103.5t-127.5 -210.5l-47 -186q-9 -39 -9 -76q0 -53 26 -112q-86 -90 -111 -191l-46 -185q-10 -45 -10 -77q0 -93 51.5 -155.5t133.5 -73.5zM566 837l-63 -253q132 0 415.5 0.5t422.5 0.5l63 252h-838zM426 273l-64 -253h838l63 253h-837zM707 1401
l-63 -253h838l63 253h-838z" />
    <glyph glyph-name="F" unicode="F" 
d="M232 -20h-335l137 546q25 108 101 189q-18 40 -18 104q0 40 11 86l47 186q33 133 150.5 232t269.5 118zM535 877h920l-83 -332l-920 -1zM676 1441h920l-83 -333h-920zM200 20l343 1375q-105 -13 -202.5 -103.5t-127.5 -210.5l-47 -186q-9 -39 -9 -76q0 -53 26 -112
q-86 -90 -111 -191l-123 -496h251zM566 837l-63 -253l838 1l63 252h-838zM707 1401l-63 -253h838l63 253h-838z" />
    <glyph glyph-name="G" unicode="G" 
d="M593 1108l83 333h901l-83 -333h-901zM595 1441l-364 -1460q-118 16 -186.5 91t-68.5 182q0 42 12 87l187 750q33 133 150.5 232t269.5 118zM311 -20l83 333h586l43 168q2 12 2 16q0 47 -49 47h-445l83 333h480q123 0 202.5 -79t79.5 -196q0 -46 -11 -86l-133 -536h-921z
M644 1148h819l63 253h-819zM543 1395q-105 -13 -202.5 -103.5t-127.5 -210.5l-187 -750q-10 -45 -10 -77q0 -93 51.5 -155.5t133.5 -73.5zM363 20h837l127 506q9 41 9 76q0 105 -65.5 170t-176.5 65h-448l-63 -253h393q37 0 63 -26t26 -61q0 -14 -4 -26l-49 -198h-586z" />
    <glyph glyph-name="H" unicode="H" 
d="M1262 1441h334l-364 -1461h-334l140 564h-586l83 333h586zM596 1441l-365 -1461h-334l365 1461h334zM1293 1401l-140 -564h-587l-63 -253h587l-141 -564h251l345 1381h-252zM544 1401h-251l-344 -1381h251z" />
    <glyph glyph-name="I" unicode="I" horiz-adv-x="493" 
d="M-103 -20l365 1461h334l-365 -1461h-334zM-51 20h251l344 1381h-251z" />
    <glyph glyph-name="J" unicode="J" 
d="M1596 1441l-277 -1110q-33 -134 -151 -233.5t-271 -118.5l365 1462h334zM901 313l-83 -333h-921l83 333h921zM1545 1401h-252l-343 -1375q105 13 202.5 103.5t127.5 210.5zM849 273h-837l-63 -253h837z" />
    <glyph glyph-name="K" unicode="K" 
d="M-103 -20l365 1461h334l-365 -1461h-334zM452 544l83 333h523q29 3 52 23t30 50l122 491h334l-131 -524q-32 -131 -106 -210q18 -41 18 -100q0 -43 -17 -113l-128 -514h-335l126 501q2 12 2 17q0 42 -40 46h-533zM-51 20h251l344 1381h-251zM504 584h483
q33 -4 55.5 -28.5t22.5 -57.5q0 -15 -4 -27l-112 -451h251l122 484q15 65 15 103q0 49 -26 108q51 53 75.5 100.5t40.5 111.5l117 474h-250l-116 -461q-9 -39 -44 -68.5t-74 -34.5h-493z" />
    <glyph glyph-name="L" unicode="L" 
d="M261 1441h335l-365 -1460q-118 16 -186.5 91t-68.5 182q0 42 12 87zM394 313h921l-83 -333h-921zM293 1401l-267 -1070q-10 -45 -10 -77q0 -93 51.5 -155.5t133.5 -73.5l343 1376h-251zM426 273l-63 -253h837l63 253h-837z" />
    <glyph glyph-name="M" unicode="M" horiz-adv-x="2192" 
d="M-103 -20l277 1110q33 134 151 233.5t271 118.5l-365 -1462h-334zM592 1108l83 333h126q123 0 202.5 -78.5t79.5 -195.5q0 -46 -11 -86l-103 -413q-2 -12 -2 -17q0 -46 49 -46h98q31 0 56.5 20.5t34.5 52.5l103 413q35 143 164 246.5t274 103.5h187q123 0 203 -78.5
t80 -195.5q0 -46 -11 -86l-274 -1101h-335l266 1065q2 12 2 17q0 46 -49 46h-97q-32 0 -57.5 -20.5t-33.5 -52.5l-103 -412q-35 -143 -164.5 -247t-273.5 -104h-188q-123 0 -202.5 79t-79.5 196q0 46 11 86l103 412q2 12 2 16q0 47 -49 47h-91zM-51 20h251l343 1375
q-105 -13 -202.5 -103.5t-127.5 -210.5zM644 1148h39q37 0 63 -26t26 -61q0 -14 -4 -26l-103 -412q-9 -40 -9 -76q0 -105 65.5 -170t176.5 -65h188q134 0 250 93.5t150 227.5l103 412q10 41 48.5 72t80.5 31h97q37 0 63 -25.5t26 -60.5q0 -15 -4 -27l-252 -1015h251
l268 1071q9 40 9 76q0 105 -66 169.5t-177 64.5h-187q-134 0 -250 -93t-150 -227l-103 -413q-11 -41 -49 -72t-80 -31h-98q-37 0 -63 25.5t-26 60.5q0 15 4 27l103 413q9 41 9 76q0 105 -65.5 169.5t-176.5 64.5h-94z" />
    <glyph glyph-name="N" unicode="N" horiz-adv-x="1626" 
d="M-103 -20l277 1110q33 134 151 233.5t271 118.5l-365 -1462h-334zM592 1108l83 333h126q123 0 202.5 -78t79.5 -195q0 -42 -12 -87l-175 -705q-2 -12 -2 -17q0 -46 49 -46h98q31 0 56.5 20.5t34.5 52.5l262 1055h335l-278 -1110q-35 -144 -164 -247.5t-274 -103.5h-188
q-123 0 -202.5 79t-79.5 196q0 46 11 86l176 704q2 12 2 17q0 46 -49 46h-91zM-51 20h251l343 1375q-105 -13 -202.5 -103.5t-127.5 -210.5zM644 1148h39q37 0 63 -25.5t26 -60.5q0 -15 -4 -27l-176 -704q-9 -41 -9 -76q0 -105 65.5 -170t176.5 -65h188q134 0 250 93
t150 228l264 1060h-251l-256 -1025q-11 -41 -49 -72t-80 -31h-98q-37 0 -63 25.5t-26 60.5q0 15 4 27l175 705q10 39 10 77q0 104 -66 168.5t-176 64.5h-94z" />
    <glyph glyph-name="O" unicode="O" 
d="M1235 1441q123 0 202.5 -78.5t79.5 -195.5q0 -46 -11 -86l-187 -750q-36 -144 -165 -247.5t-274 -103.5h-569l83 332h501q41 0 70 22q25 19 34 52l165 659q2 12 2 16q0 47 -49 47h-525l83 333h560zM231 -19q-118 16 -186.5 91t-68.5 182q0 42 12 87l187 750
q33 133 150.5 232t269.5 118zM1235 1401h-528l-63 -253h473q37 0 63 -26t26 -61q0 -14 -4 -26l-165 -659q-9 -42 -48 -74q-40 -30 -94 -30h-469l-63 -252h517q134 0 250 93t151 228l187 750q9 40 9 76q0 105 -65.5 169.5t-176.5 64.5zM201 25l342 1370
q-105 -13 -202.5 -103.5t-127.5 -210.5l-187 -750q-10 -45 -10 -77q0 -93 51.5 -155.5t133.5 -73.5z" />
    <glyph glyph-name="P" unicode="P" horiz-adv-x="1494" 
d="M1074 682l89 359q2 14 2 18q0 49 -52 49h-521l83 333h567q121 0 199 -77t78 -192q0 -45 -11 -85l-117 -470q-35 -141 -162 -243t-269 -102h-576l83 333h511q32 0 59.5 22t36.5 55zM596 1441l-365 -1461h-334l365 1461h334zM1112 672q-10 -43 -50.5 -75t-83.5 -32h-479
l-63 -253h524q131 0 245 91.5t148 223.5l117 470q9 39 9 75q0 102 -64.5 165.5t-172.5 63.5h-535l-63 -253h469q39 0 65.5 -26.5t26.5 -62.5q0 -16 -4 -28zM544 1401h-251l-344 -1381h251z" />
    <glyph glyph-name="Q" unicode="Q" 
d="M1164 1045q2 12 2 16q0 47 -49 47h-525l83 333h560q123 0 202.5 -78.5t79.5 -195.5q0 -46 -11 -86l-187 -750q-26 -111 -108 -196q5 -12 54 -20l-82 -330h-48q-104 0 -179.5 56.5t-92.5 138.5h-552l83 333h514q32 0 57.5 20.5t33.5 52.5zM231 -19q-118 16 -186.5 91
t-68.5 182q0 42 12 87l187 750q33 133 150.5 232t269.5 118zM1202 1035l-165 -659q-10 -41 -48.5 -72t-80.5 -31h-482l-63 -253h532q20 -93 82 -144t158 -51h16l64 258q-8 1 -24.5 18.5t-25.5 43.5q89 92 116 196l187 750q9 40 9 76q0 105 -65.5 169.5t-176.5 64.5h-528
l-63 -253h473q37 0 63 -26t26 -61q0 -14 -4 -26zM201 25l342 1370q-105 -13 -202.5 -103.5t-127.5 -210.5l-187 -750q-10 -45 -10 -77q0 -93 51.5 -155.5t133.5 -73.5z" />
    <glyph glyph-name="R" unicode="R" horiz-adv-x="1494" 
d="M1074 682l89 359q2 14 2 18q0 50 -52 50h-521l83 332h567q121 0 199 -77t78 -192q0 -45 -11 -85l-117 -470q-27 -109 -99 -184q17 -42 17 -102q0 -46 -11 -87l-65 -264h-335l58 229q2 12 2 17q0 44 -44 46h-530l83 333h515q32 2 57.5 23.5t34.5 53.5zM596 1441
l-365 -1461h-334l365 1461h334zM1112 672q-11 -41 -48.5 -73t-79.5 -34h-485l-63 -253h478q35 -1 59.5 -26.5t24.5 -59.5q0 -15 -4 -27l-44 -179h251l59 234q9 40 9 77q0 53 -23 110q80 85 107 186l117 470q9 39 9 75q0 102 -64.5 165.5t-172.5 63.5h-535l-63 -252h469
q39 0 65.5 -26.5t26.5 -63.5q0 -16 -4 -28zM544 1401h-251l-344 -1381h251z" />
    <glyph glyph-name="S" unicode="S" 
d="M1023 481q2 12 2 16q0 47 -49 47h-577q-123 0 -202.5 79t-79.5 196q0 46 11 86l47 185q32 134 150 233t270 118l-125 -501q-2 -12 -2 -16q0 -47 49 -47h577q123 0 202.5 -79t79.5 -196q0 -46 -11 -86l-46 -185q-33 -134 -151 -233t-270 -118zM676 1441h920l-83 -333h-920
zM818 -20h-921l83 333h921zM1061 471l-111 -445q105 13 202.5 103.5t128.5 211.5l46 185q9 41 9 76q0 105 -65.5 170t-176.5 65h-577q-36 0 -62.5 26t-26.5 61q0 8 4 26l111 445q-105 -13 -202.5 -103.5t-127.5 -211.5l-47 -185q-9 -41 -9 -76q0 -105 65.5 -170t176.5 -65
h577q37 0 63 -26t26 -61q0 -14 -4 -26zM707 1401l-63 -253h838l63 253h-838zM786 20l64 253h-838l-63 -253h837z" />
    <glyph glyph-name="T" unicode="T" horiz-adv-x="1494" 
d="M732 -20h-335l267 1065q2 12 2 16q0 47 -50 47h-438l83 333h835zM1176 1441h421l-83 -333h-421zM700 20l344 1381h-751l-63 -253h386q37 0 63.5 -26t26.5 -61q0 -8 -4 -26l-253 -1015h251zM1207 1401l-63 -253h338l63 253h-338z" />
    <glyph glyph-name="U" unicode="U" 
d="M909 313q31 0 56.5 20.5t33.5 51.5l263 1056h334l-277 -1110q-36 -144 -165 -247.5t-274 -103.5h-569l83 333h515zM596 1441l-365 -1460q-118 16 -186.5 91t-68.5 182q0 42 12 87l273 1100h335zM909 273h-484l-63 -253h518q134 0 250.5 93t149.5 227l265 1061h-252
l-255 -1025q-11 -41 -49.5 -72t-79.5 -31zM544 1401h-251l-267 -1070q-10 -45 -10 -77q0 -93 51.5 -155.5t133.5 -73.5z" />
    <glyph glyph-name="V" unicode="V" horiz-adv-x="1444" 
d="M1183 -20h-872l83 333h538l281 1128h334zM596 1441l-365 -1460q-118 16 -186.5 91t-68.5 182q0 42 12 87l273 1100h335zM1152 20l344 1381h-251l-282 -1128h-538l-63 -253h790zM544 1401h-251l-267 -1070q-10 -45 -10 -77q0 -93 51.5 -155.5t133.5 -73.5z" />
    <glyph glyph-name="W" unicode="W" horiz-adv-x="2192" 
d="M261 1441h335l-365 -1460q-118 16 -186.5 91t-68.5 182q0 42 12 87zM394 313h80q32 0 57.5 20.5t33.5 52.5l103 412q35 144 164.5 247.5t274.5 103.5h187q123 0 202.5 -78.5t79.5 -195.5q0 -46 -11 -87l-103 -412q-2 -12 -2 -17q0 -46 49 -46h98q32 0 57.5 20.5
t33.5 52.5l263 1055h335l-278 -1110q-35 -144 -165 -247.5t-274 -103.5h-188q-123 0 -202.5 79t-79.5 196q0 46 11 86l103 412q2 12 2 17q0 46 -49 46h-97q-32 0 -57.5 -20.5t-33.5 -52.5l-103 -412q-35 -144 -165 -247.5t-274 -103.5h-135zM293 1401l-267 -1070
q-10 -45 -10 -77q0 -93 51.5 -155.5t133.5 -73.5l343 1376h-251zM426 273l-63 -253h83q134 0 250.5 93t150.5 228l103 412q10 41 48.5 72t80.5 31h97q37 0 63 -25.5t26 -60.5q0 -15 -4 -27l-103 -412q-9 -40 -9 -76q0 -105 65.5 -170t176.5 -65h188q134 0 250.5 93
t150.5 228l264 1060h-251l-257 -1025q-10 -41 -48.5 -72t-80.5 -31h-98q-37 0 -63 25.5t-26 60.5q0 15 4 27l103 412q9 40 9 77q0 105 -65.5 169.5t-176.5 64.5h-187q-134 0 -250.5 -93t-150.5 -228l-103 -412q-10 -41 -48.5 -72t-80.5 -31h-48z" />
    <glyph glyph-name="X" unicode="X" 
d="M1049 877q31 0 57 20.5t34 52.5l122 491h334l-137 -546q-26 -108 -100 -188q17 -42 17 -104q0 -46 -11 -87l-133 -536h-335l126 501q2 12 2 16q0 47 -49 47h-525l84 333h514zM596 1441l-364 -1461h-335l137 546q25 108 101 189q-18 40 -18 104q0 40 11 86l133 536h335z
M1049 837h-482l-64 -253h473q37 0 63 -26t26 -61q0 -14 -4 -26l-112 -451h251l127 506q9 41 9 77q0 57 -25 112q84 89 110 190l123 496h-250l-116 -461q-10 -41 -48.5 -72t-80.5 -31zM544 1401h-251l-127 -506q-9 -39 -9 -76q0 -55 26 -112q-86 -90 -111 -191l-123 -496h251
z" />
    <glyph glyph-name="Y" unicode="Y" 
d="M955 877l-223 -897h-335l141 564h-139q-123 0 -202.5 79t-79.5 196q0 46 11 86l133 536h335l-126 -501q-2 -12 -2 -16q0 -47 49 -47h438zM952 544l83 333q41 0 68.5 20t35.5 53l123 491h334l-136 -546q-36 -144 -165.5 -247.5t-273.5 -103.5h-69zM903 837h-386
q-37 0 -63 26t-26 61q0 14 4 26l112 451h-251l-127 -506q-9 -41 -9 -76q0 -105 65.5 -170t176.5 -65h191l-141 -564h251zM1003 584h18q134 0 250 93.5t150 227.5l124 496h-252l-115 -461q-9 -39 -45 -70.5t-67 -32.5z" />
    <glyph glyph-name="Z" unicode="Z" 
d="M353 471l-122 -490q-118 16 -186.5 91t-68.5 182q0 42 12 87l46 185q35 143 164.5 247t273.5 104h577q31 0 57 20.5t34 52.5l122 490q117 -16 186 -91.5t69 -182.5q0 -46 -11 -86l-46 -185q-36 -143 -165.5 -247t-273.5 -104h-577q-31 0 -57 -21t-34 -52zM1182 1441
l-83 -333h-920l83 333h920zM311 -20l83 333h921l-83 -333h-921zM315 481q10 41 49 72t80 31h577q133 0 249.5 93.5t151.5 227.5l46 185q9 40 9 76q0 93 -51.5 156t-133.5 74l-114 -456q-10 -41 -48.5 -72t-80.5 -31h-577q-134 0 -250 -93.5t-150 -227.5l-46 -185
q-10 -45 -10 -77q0 -93 51.5 -155.5t133.5 -73.5zM1131 1401h-838l-63 -253h838zM362 20h838l63 253h-838z" />
    <glyph glyph-name="bracketleft" unicode="[" horiz-adv-x="794" 
d="M450 -350h-635l254 1020h334l-171 -687h301zM424 751h-334l254 1020h635l-83 -333h-301zM419 -310l63 253h-301l171 687h-251l-235 -940h553zM392 791l171 687h302l63 253h-553l-234 -940h251z" />
    <glyph glyph-name="backslash" unicode="\" horiz-adv-x="1391" 
d="M1142 -21h-390l-503 1462h390zM1086 19l-476 1382h-305l475 -1382h306z" />
    <glyph glyph-name="bracketright" unicode="]" horiz-adv-x="794" 
d="M-185 -350l83 333h301l172 687h334l-255 -1020h-635zM391 751l171 687h-301l83 333h635l-254 -1020h-334zM-134 -310h553l234 940h-251l-171 -687h-302zM442 791h252l234 940h-553l-63 -253h301z" />
    <glyph glyph-name="asciicircum" unicode="^" horiz-adv-x="966" 
d="M426 836h-327l318 468q64 97 208 137l-122 -491zM585 958l119 480q120 -38 139 -142l83 -460h-319zM404 876l62 90l104 418q-24 -7 -59 -35.5t-61 -67.5l-276 -405h230zM626 957l14 -81h238l-74 413q-7 38 -27.5 64t-43.5 34z" />
    <glyph glyph-name="underscore" unicode="_" horiz-adv-x="1490" 
d="M-20 312h1331l-83 -333h-1331zM11 272l-63 -253h1249l63 253h-1249z" />
    <glyph glyph-name="a" unicode="a" 
d="M1117 1108h-525l83 333h560q123 0 202.5 -79t79.5 -196q0 -46 -11 -86l-274 -1100h-335l73 292h-586l83 333h586l111 440q2 14 2 18q0 45 -49 45zM231 -20h-334l277 1110q33 134 151 233.5t271 118.5zM1117 1148q38 0 63.5 -24.5t25.5 -60.5q0 -15 -4 -28l-117 -470h-586
l-63 -253h586l-73 -292h251l268 1070q9 40 9 76q0 105 -65.5 170t-176.5 65h-528l-63 -253h473zM200 20l343 1375q-105 -13 -202.5 -103.5t-127.5 -210.5l-264 -1061h251z" />
    <glyph glyph-name="b" unicode="b" 
d="M1140 950l24 95q2 12 2 16q0 47 -49 47h-525l83 333h560q123 0 202.5 -78.5t79.5 -195.5q0 -46 -11 -86l-46 -186q-26 -107 -102 -188q18 -40 18 -105q0 -40 -11 -86l-46 -185q-36 -144 -165 -247.5t-274 -103.5h-569l83 333h514q32 0 57.5 20.5t33.5 52.5l24 95
q2 12 2 16q0 47 -49 47h-525l84 333h514q31 0 57 20.5t34 52.5zM-103 -20l365 1461h334l-365 -1461h-334zM1178 940q-10 -41 -48.5 -72t-80.5 -31h-482l-64 -253h473q37 0 63 -26t26 -61q0 -14 -4 -26l-24 -95q-10 -41 -48.5 -72t-80.5 -31h-482l-63 -253h517q134 0 250 93
t151 228l46 185q9 39 9 76q0 54 -26 113q85 89 112 190l46 186q9 40 9 76q0 105 -65.5 169.5t-176.5 64.5h-528l-63 -253h473q37 0 63 -26t26 -61q0 -14 -4 -26zM-51 20h251l344 1381h-251z" />
    <glyph glyph-name="c" unicode="c" 
d="M593 1108l83 333h920l-83 -333h-920zM595 1441l-364 -1460q-118 16 -186.5 91t-68.5 182q0 42 12 87l187 750q33 133 150.5 232t269.5 118zM311 -20l83 333h921l-83 -333h-921zM644 1148h838l63 253h-838zM543 1395q-105 -13 -202.5 -103.5t-127.5 -210.5l-187 -750
q-10 -45 -10 -77q0 -93 51.5 -155.5t133.5 -73.5zM362 20h838l63 253h-838z" />
    <glyph glyph-name="d" unicode="d" 
d="M1000 390l163 651q2 12 2 17q0 50 -52 50h-521l83 333h566q121 0 199 -77t78 -191q0 -46 -11 -86l-190 -763q-35 -141 -161.5 -242.5t-268.5 -101.5h-576l83 333h510q33 0 60.5 21.5t35.5 55.5zM596 1441l-365 -1461h-334l365 1461h334zM1038 380q-10 -43 -50 -75
t-84 -32h-478l-63 -253h524q131 0 245 91t147 223l190 763q9 41 9 76q0 102 -64.5 165t-172.5 63h-534l-63 -253h469q38 0 65 -27t27 -63q0 -9 -4 -27zM544 1401h-251l-344 -1381h251z" />
    <glyph glyph-name="e" unicode="e" 
d="M231 -19q-118 16 -186.5 91t-68.5 182q0 42 12 87l46 185q25 108 101 189q-18 40 -18 104q0 40 11 86l47 186q33 133 150.5 232t269.5 118zM535 877h920l-83 -332q-152 0 -456 -0.5t-464 -0.5zM394 313h921l-83 -333h-921zM676 1441h920l-83 -333h-920zM201 25l342 1370
q-105 -13 -202.5 -103.5t-127.5 -210.5l-47 -186q-9 -39 -9 -76q0 -53 26 -112q-86 -90 -111 -191l-46 -185q-10 -45 -10 -77q0 -93 51.5 -155.5t133.5 -73.5zM566 837l-63 -253q132 0 415.5 0.5t422.5 0.5l63 252h-838zM426 273l-64 -253h838l63 253h-837zM707 1401
l-63 -253h838l63 253h-838z" />
    <glyph glyph-name="f" unicode="f" 
d="M232 -20h-335l137 546q25 108 101 189q-18 40 -18 104q0 40 11 86l47 186q33 133 150.5 232t269.5 118zM535 877h920l-83 -332l-920 -1zM676 1441h920l-83 -333h-920zM200 20l343 1375q-105 -13 -202.5 -103.5t-127.5 -210.5l-47 -186q-9 -39 -9 -76q0 -53 26 -112
q-86 -90 -111 -191l-123 -496h251zM566 837l-63 -253l838 1l63 252h-838zM707 1401l-63 -253h838l63 253h-838z" />
    <glyph glyph-name="g" unicode="g" 
d="M593 1108l83 333h901l-83 -333h-901zM595 1441l-364 -1460q-118 16 -186.5 91t-68.5 182q0 42 12 87l187 750q33 133 150.5 232t269.5 118zM311 -20l83 333h586l43 168q2 12 2 16q0 47 -49 47h-445l83 333h480q123 0 202.5 -79t79.5 -196q0 -46 -11 -86l-133 -536h-921z
M644 1148h819l63 253h-819zM543 1395q-105 -13 -202.5 -103.5t-127.5 -210.5l-187 -750q-10 -45 -10 -77q0 -93 51.5 -155.5t133.5 -73.5zM363 20h837l127 506q9 41 9 76q0 105 -65.5 170t-176.5 65h-448l-63 -253h393q37 0 63 -26t26 -61q0 -14 -4 -26l-49 -198h-586z" />
    <glyph glyph-name="h" unicode="h" 
d="M1262 1441h334l-364 -1461h-334l140 564h-586l83 333h586zM596 1441l-365 -1461h-334l365 1461h334zM1293 1401l-140 -564h-587l-63 -253h587l-141 -564h251l345 1381h-252zM544 1401h-251l-344 -1381h251z" />
    <glyph glyph-name="i" unicode="i" horiz-adv-x="493" 
d="M-103 -20l365 1461h334l-365 -1461h-334zM-51 20h251l344 1381h-251z" />
    <glyph glyph-name="j" unicode="j" 
d="M1596 1441l-277 -1110q-33 -134 -151 -233.5t-271 -118.5l365 1462h334zM901 313l-83 -333h-921l83 333h921zM1545 1401h-252l-343 -1375q105 13 202.5 103.5t127.5 210.5zM849 273h-837l-63 -253h837z" />
    <glyph glyph-name="k" unicode="k" 
d="M-103 -20l365 1461h334l-365 -1461h-334zM452 544l83 333h523q29 3 52 23t30 50l122 491h334l-131 -524q-32 -131 -106 -210q18 -41 18 -100q0 -43 -17 -113l-128 -514h-335l126 501q2 12 2 17q0 42 -40 46h-533zM-51 20h251l344 1381h-251zM504 584h483
q33 -4 55.5 -28.5t22.5 -57.5q0 -15 -4 -27l-112 -451h251l122 484q15 65 15 103q0 49 -26 108q51 53 75.5 100.5t40.5 111.5l117 474h-250l-116 -461q-9 -39 -44 -68.5t-74 -34.5h-493z" />
    <glyph glyph-name="l" unicode="l" 
d="M261 1441h335l-365 -1460q-118 16 -186.5 91t-68.5 182q0 42 12 87zM394 313h921l-83 -333h-921zM293 1401l-267 -1070q-10 -45 -10 -77q0 -93 51.5 -155.5t133.5 -73.5l343 1376h-251zM426 273l-63 -253h837l63 253h-837z" />
    <glyph glyph-name="m" unicode="m" horiz-adv-x="2192" 
d="M-103 -20l277 1110q33 134 151 233.5t271 118.5l-365 -1462h-334zM592 1108l83 333h126q123 0 202.5 -78.5t79.5 -195.5q0 -46 -11 -86l-103 -413q-2 -12 -2 -17q0 -46 49 -46h98q31 0 56.5 20.5t34.5 52.5l103 413q35 143 164 246.5t274 103.5h187q123 0 203 -78.5
t80 -195.5q0 -46 -11 -86l-274 -1101h-335l266 1065q2 12 2 17q0 46 -49 46h-97q-32 0 -57.5 -20.5t-33.5 -52.5l-103 -412q-35 -143 -164.5 -247t-273.5 -104h-188q-123 0 -202.5 79t-79.5 196q0 46 11 86l103 412q2 12 2 16q0 47 -49 47h-91zM-51 20h251l343 1375
q-105 -13 -202.5 -103.5t-127.5 -210.5zM644 1148h39q37 0 63 -26t26 -61q0 -14 -4 -26l-103 -412q-9 -40 -9 -76q0 -105 65.5 -170t176.5 -65h188q134 0 250 93.5t150 227.5l103 412q10 41 48.5 72t80.5 31h97q37 0 63 -25.5t26 -60.5q0 -15 -4 -27l-252 -1015h251
l268 1071q9 40 9 76q0 105 -66 169.5t-177 64.5h-187q-134 0 -250 -93t-150 -227l-103 -413q-11 -41 -49 -72t-80 -31h-98q-37 0 -63 25.5t-26 60.5q0 15 4 27l103 413q9 41 9 76q0 105 -65.5 169.5t-176.5 64.5h-94z" />
    <glyph glyph-name="n" unicode="n" horiz-adv-x="1626" 
d="M-103 -20l277 1110q33 134 151 233.5t271 118.5l-365 -1462h-334zM592 1108l83 333h126q123 0 202.5 -78t79.5 -195q0 -42 -12 -87l-175 -705q-2 -12 -2 -17q0 -46 49 -46h98q31 0 56.5 20.5t34.5 52.5l262 1055h335l-278 -1110q-35 -144 -164 -247.5t-274 -103.5h-188
q-123 0 -202.5 79t-79.5 196q0 46 11 86l176 704q2 12 2 17q0 46 -49 46h-91zM-51 20h251l343 1375q-105 -13 -202.5 -103.5t-127.5 -210.5zM644 1148h39q37 0 63 -25.5t26 -60.5q0 -15 -4 -27l-176 -704q-9 -41 -9 -76q0 -105 65.5 -170t176.5 -65h188q134 0 250 93
t150 228l264 1060h-251l-256 -1025q-11 -41 -49 -72t-80 -31h-98q-37 0 -63 25.5t-26 60.5q0 15 4 27l175 705q10 39 10 77q0 104 -66 168.5t-176 64.5h-94z" />
    <glyph glyph-name="o" unicode="o" 
d="M1235 1441q123 0 202.5 -78.5t79.5 -195.5q0 -46 -11 -86l-187 -750q-36 -144 -165 -247.5t-274 -103.5h-569l83 332h501q41 0 70 22q25 19 34 52l165 659q2 12 2 16q0 47 -49 47h-525l83 333h560zM231 -19q-118 16 -186.5 91t-68.5 182q0 42 12 87l187 750
q33 133 150.5 232t269.5 118zM1235 1401h-528l-63 -253h473q37 0 63 -26t26 -61q0 -14 -4 -26l-165 -659q-9 -42 -48 -74q-40 -30 -94 -30h-469l-63 -252h517q134 0 250 93t151 228l187 750q9 40 9 76q0 105 -65.5 169.5t-176.5 64.5zM201 25l342 1370
q-105 -13 -202.5 -103.5t-127.5 -210.5l-187 -750q-10 -45 -10 -77q0 -93 51.5 -155.5t133.5 -73.5z" />
    <glyph glyph-name="p" unicode="p" horiz-adv-x="1494" 
d="M1074 682l89 359q2 14 2 18q0 49 -52 49h-521l83 333h567q121 0 199 -77t78 -192q0 -45 -11 -85l-117 -470q-35 -141 -162 -243t-269 -102h-576l83 333h511q32 0 59.5 22t36.5 55zM596 1441l-365 -1461h-334l365 1461h334zM1112 672q-10 -43 -50.5 -75t-83.5 -32h-479
l-63 -253h524q131 0 245 91.5t148 223.5l117 470q9 39 9 75q0 102 -64.5 165.5t-172.5 63.5h-535l-63 -253h469q39 0 65.5 -26.5t26.5 -62.5q0 -16 -4 -28zM544 1401h-251l-344 -1381h251z" />
    <glyph glyph-name="q" unicode="q" 
d="M1164 1045q2 12 2 16q0 47 -49 47h-525l83 333h560q123 0 202.5 -78.5t79.5 -195.5q0 -46 -11 -86l-187 -750q-26 -111 -108 -196q5 -12 54 -20l-82 -330h-48q-104 0 -179.5 56.5t-92.5 138.5h-552l83 333h514q32 0 57.5 20.5t33.5 52.5zM231 -19q-118 16 -186.5 91
t-68.5 182q0 42 12 87l187 750q33 133 150.5 232t269.5 118zM1202 1035l-165 -659q-10 -41 -48.5 -72t-80.5 -31h-482l-63 -253h532q20 -93 82 -144t158 -51h16l64 258q-8 1 -24.5 18.5t-25.5 43.5q89 92 116 196l187 750q9 40 9 76q0 105 -65.5 169.5t-176.5 64.5h-528
l-63 -253h473q37 0 63 -26t26 -61q0 -14 -4 -26zM201 25l342 1370q-105 -13 -202.5 -103.5t-127.5 -210.5l-187 -750q-10 -45 -10 -77q0 -93 51.5 -155.5t133.5 -73.5z" />
    <glyph glyph-name="r" unicode="r" horiz-adv-x="1494" 
d="M1074 682l89 359q2 14 2 18q0 50 -52 50h-521l83 332h567q121 0 199 -77t78 -192q0 -45 -11 -85l-117 -470q-27 -109 -99 -184q17 -42 17 -102q0 -46 -11 -87l-65 -264h-335l58 229q2 12 2 17q0 44 -44 46h-530l83 333h515q32 2 57.5 23.5t34.5 53.5zM596 1441
l-365 -1461h-334l365 1461h334zM1112 672q-11 -41 -48.5 -73t-79.5 -34h-485l-63 -253h478q35 -1 59.5 -26.5t24.5 -59.5q0 -15 -4 -27l-44 -179h251l59 234q9 40 9 77q0 53 -23 110q80 85 107 186l117 470q9 39 9 75q0 102 -64.5 165.5t-172.5 63.5h-535l-63 -252h469
q39 0 65.5 -26.5t26.5 -63.5q0 -16 -4 -28zM544 1401h-251l-344 -1381h251z" />
    <glyph glyph-name="s" unicode="s" 
d="M1023 481q2 12 2 16q0 47 -49 47h-577q-123 0 -202.5 79t-79.5 196q0 46 11 86l47 185q32 134 150 233t270 118l-125 -501q-2 -12 -2 -16q0 -47 49 -47h577q123 0 202.5 -79t79.5 -196q0 -46 -11 -86l-46 -185q-33 -134 -151 -233t-270 -118zM676 1441h920l-83 -333h-920
zM818 -20h-921l83 333h921zM1061 471l-111 -445q105 13 202.5 103.5t128.5 211.5l46 185q9 41 9 76q0 105 -65.5 170t-176.5 65h-577q-36 0 -62.5 26t-26.5 61q0 8 4 26l111 445q-105 -13 -202.5 -103.5t-127.5 -211.5l-47 -185q-9 -41 -9 -76q0 -105 65.5 -170t176.5 -65
h577q37 0 63 -26t26 -61q0 -14 -4 -26zM707 1401l-63 -253h838l63 253h-838zM786 20l64 253h-838l-63 -253h837z" />
    <glyph glyph-name="t" unicode="t" horiz-adv-x="1494" 
d="M732 -20h-335l267 1065q2 12 2 16q0 47 -50 47h-438l83 333h835zM1176 1441h421l-83 -333h-421zM700 20l344 1381h-751l-63 -253h386q37 0 63.5 -26t26.5 -61q0 -8 -4 -26l-253 -1015h251zM1207 1401l-63 -253h338l63 253h-338z" />
    <glyph glyph-name="u" unicode="u" 
d="M909 313q31 0 56.5 20.5t33.5 51.5l263 1056h334l-277 -1110q-36 -144 -165 -247.5t-274 -103.5h-569l83 333h515zM596 1441l-365 -1460q-118 16 -186.5 91t-68.5 182q0 42 12 87l273 1100h335zM909 273h-484l-63 -253h518q134 0 250.5 93t149.5 227l265 1061h-252
l-255 -1025q-11 -41 -49.5 -72t-79.5 -31zM544 1401h-251l-267 -1070q-10 -45 -10 -77q0 -93 51.5 -155.5t133.5 -73.5z" />
    <glyph glyph-name="v" unicode="v" horiz-adv-x="1444" 
d="M1183 -20h-872l83 333h538l281 1128h334zM596 1441l-365 -1460q-118 16 -186.5 91t-68.5 182q0 42 12 87l273 1100h335zM1152 20l344 1381h-251l-282 -1128h-538l-63 -253h790zM544 1401h-251l-267 -1070q-10 -45 -10 -77q0 -93 51.5 -155.5t133.5 -73.5z" />
    <glyph glyph-name="w" unicode="w" horiz-adv-x="2192" 
d="M261 1441h335l-365 -1460q-118 16 -186.5 91t-68.5 182q0 42 12 87zM394 313h80q32 0 57.5 20.5t33.5 52.5l103 412q35 144 164.5 247.5t274.5 103.5h187q123 0 202.5 -78.5t79.5 -195.5q0 -46 -11 -87l-103 -412q-2 -12 -2 -17q0 -46 49 -46h98q32 0 57.5 20.5
t33.5 52.5l263 1055h335l-278 -1110q-35 -144 -165 -247.5t-274 -103.5h-188q-123 0 -202.5 79t-79.5 196q0 46 11 86l103 412q2 12 2 17q0 46 -49 46h-97q-32 0 -57.5 -20.5t-33.5 -52.5l-103 -412q-35 -144 -165 -247.5t-274 -103.5h-135zM293 1401l-267 -1070
q-10 -45 -10 -77q0 -93 51.5 -155.5t133.5 -73.5l343 1376h-251zM426 273l-63 -253h83q134 0 250.5 93t150.5 228l103 412q10 41 48.5 72t80.5 31h97q37 0 63 -25.5t26 -60.5q0 -15 -4 -27l-103 -412q-9 -40 -9 -76q0 -105 65.5 -170t176.5 -65h188q134 0 250.5 93
t150.5 228l264 1060h-251l-257 -1025q-10 -41 -48.5 -72t-80.5 -31h-98q-37 0 -63 25.5t-26 60.5q0 15 4 27l103 412q9 40 9 77q0 105 -65.5 169.5t-176.5 64.5h-187q-134 0 -250.5 -93t-150.5 -228l-103 -412q-10 -41 -48.5 -72t-80.5 -31h-48z" />
    <glyph glyph-name="x" unicode="x" 
d="M1049 877q31 0 57 20.5t34 52.5l122 491h334l-137 -546q-26 -108 -100 -188q17 -42 17 -104q0 -46 -11 -87l-133 -536h-335l126 501q2 12 2 16q0 47 -49 47h-525l84 333h514zM596 1441l-364 -1461h-335l137 546q25 108 101 189q-18 40 -18 104q0 40 11 86l133 536h335z
M1049 837h-482l-64 -253h473q37 0 63 -26t26 -61q0 -14 -4 -26l-112 -451h251l127 506q9 41 9 77q0 57 -25 112q84 89 110 190l123 496h-250l-116 -461q-10 -41 -48.5 -72t-80.5 -31zM544 1401h-251l-127 -506q-9 -39 -9 -76q0 -55 26 -112q-86 -90 -111 -191l-123 -496h251
z" />
    <glyph glyph-name="y" unicode="y" 
d="M955 877l-223 -897h-335l141 564h-139q-123 0 -202.5 79t-79.5 196q0 46 11 86l133 536h335l-126 -501q-2 -12 -2 -16q0 -47 49 -47h438zM952 544l83 333q41 0 68.5 20t35.5 53l123 491h334l-136 -546q-36 -144 -165.5 -247.5t-273.5 -103.5h-69zM903 837h-386
q-37 0 -63 26t-26 61q0 14 4 26l112 451h-251l-127 -506q-9 -41 -9 -76q0 -105 65.5 -170t176.5 -65h191l-141 -564h251zM1003 584h18q134 0 250 93.5t150 227.5l124 496h-252l-115 -461q-9 -39 -45 -70.5t-67 -32.5z" />
    <glyph glyph-name="z" unicode="z" 
d="M353 471l-122 -490q-118 16 -186.5 91t-68.5 182q0 42 12 87l46 185q35 143 164.5 247t273.5 104h577q31 0 57 20.5t34 52.5l122 490q117 -16 186 -91.5t69 -182.5q0 -46 -11 -86l-46 -185q-36 -143 -165.5 -247t-273.5 -104h-577q-31 0 -57 -21t-34 -52zM1182 1441
l-83 -333h-920l83 333h920zM311 -20l83 333h921l-83 -333h-921zM315 481q10 41 49 72t80 31h577q133 0 249.5 93.5t151.5 227.5l46 185q9 40 9 76q0 93 -51.5 156t-133.5 74l-114 -456q-10 -41 -48.5 -72t-80.5 -31h-577q-134 0 -250 -93.5t-150 -227.5l-46 -185
q-10 -45 -10 -77q0 -93 51.5 -155.5t133.5 -73.5zM1131 1401h-838l-63 -253h838zM362 20h838l63 253h-838z" />
    <glyph glyph-name="bar" unicode="|" horiz-adv-x="493" 
d="M-185 -350l529 2120h334l-529 -2120h-334zM-134 -310h252l508 2040h-251z" />
    <glyph glyph-name="asciitilde" unicode="~" horiz-adv-x="1154" 
d="M862 877h254l-37 -148q-24 -97 -106 -175t-183 -78l-155 -1q-79 5 -133 56.5t-59 128.5v3q-1 30 -32 30h-30q-23 0 -41 -14.5t-24 -37.5l-24 -97h-254l37 147q25 104 119.5 179.5t198.5 75.5l125 -1q79 -4 133 -55.5t60 -128.5v-3q1 -31 32 -31h30q23 0 41 14.5t24 37.5z
M893 837l-17 -68q-8 -32 -39 -57t-64 -25h-30q-28 0 -49.5 20.5t-22.5 47.5v2q-4 66 -45 105t-109 44h-124q-94 0 -175 -65t-104 -159l-25 -98h172l17 67q7 33 38.5 57.5t64.5 24.5h30q29 0 50 -20t22 -48v-3q5 -65 46 -104t108 -43l154 -2q94 6 159.5 67t89.5 158l25 99
h-172z" />
    <glyph glyph-name="exclamdown" unicode="&#xa1;" horiz-adv-x="493" 
d="M510 1018h334l-258 -1037h-334zM867 1110h-334l83 332h334zM542 978l-239 -957h251l239 957h-251zM836 1150l63 252h-252l-63 -252h252z" />
    <glyph glyph-name="brokenbar" unicode="&#xa6;" horiz-adv-x="493" 
d="M45 770l528 912h334l-528 -912h-334zM96 787h251l509 878h-251zM-216 -277l528 912h334l-528 -912h-334zM-165 -259h251l509 877h-251z" />
    <glyph glyph-name="dieresis" unicode="&#xa8;" horiz-adv-x="849" 
d="M552 1607l52 208h-208l-52 -208h208zM952 1607l52 208h-208l-52 -208h208zM583 1567h-290l72 288h290zM983 1567h-290l72 288h290z" />
    <glyph glyph-name="guillemetleft" unicode="&#xab;" horiz-adv-x="2015" 
d="M971 493l-92 -369l-701 338q-54 26 -83.5 79.5t-29.5 128.5h539zM634 751h-551q78 157 212 209l878 341l-94 -377zM925 471l-330 159h-490q0 -39 24 -75.5t67 -56.5l657 -317zM627 791l418 162l70 283l-806 -314q-55 -21 -99.5 -59t-62.5 -72h480zM1874 493l-92 -369
l-701 338q-54 26 -83.5 79.5t-29.5 128.5h539zM1537 751h-551q78 157 212 209l878 341l-94 -377zM1828 471l-330 159h-490q0 -39 24 -75.5t67 -56.5l656 -317zM1530 791l418 162l70 283l-806 -314q-55 -21 -99.5 -59t-62.5 -72h480z" />
    <glyph glyph-name="macron" unicode="&#xaf;" horiz-adv-x="949" 
d="M1052 1607l52 208h-708l-52 -208h708zM1083 1567h-790l72 288h790z" />
    <glyph glyph-name="plusminus" unicode="&#xb1;" horiz-adv-x="1124" 
d="M1136 1076l-83 -332h-316l-78 -316h-334l79 316h-316l83 332h315l79 316h334l-79 -316h316zM1085 1036h-316l79 316h-252l-78 -316h-316l-63 -252h316l-79 -316h252l78 316h316zM-20 313h966l-83 -333h-966zM12 273l-63 -253h883l63 253h-883z" />
    <glyph glyph-name="periodcentered" unicode="&#xb7;" horiz-adv-x="449" 
d="M145 852h283l-70 -282h-284zM171 818l-53 -214h213l54 214h-214z" />
    <glyph glyph-name="periodcentered" unicode="&#x2219;" horiz-adv-x="449" 
d="M145 852h283l-70 -282h-284zM171 818l-53 -214h213l54 214h-214z" />
    <glyph glyph-name="guillemetright" unicode="&#xbb;" horiz-adv-x="2015" 
d="M26 497l446 173h550q-77 -157 -212 -209l-878 -341zM500 751l-366 177l92 369l701 -338q54 -26 83.5 -80t29.5 -128h-540zM60 467l-70 -282l806 313q55 21 99.5 59t62.5 73h-479zM509 791h491q0 39 -23.5 75t-67.5 57l-656 316l-73 -290zM929 497l446 173h550
q-77 -157 -212 -209l-878 -341zM1403 751l-366 177l92 369l701 -338q54 -26 83.5 -80t29.5 -128h-540zM963 467l-70 -282l806 313q55 21 99.5 59t62.5 73h-479zM1412 791h491q0 39 -23.5 75t-67.5 57l-656 316l-73 -290z" />
    <glyph glyph-name="questiondown" unicode="&#xbf;" 
d="M1515 1109h-333l82 333h334zM1143 955l16 63h334l-32 -128q-36 -142 -162.5 -243t-268.5 -101l-227 -1q-33 0 -60 -23q-28 -22 -36 -54l-121 -487q-117 13 -187 88t-70 180q0 40 11 86l49 198q36 141 163.5 243t268.5 102h227q31 0 59 22q29 24 36 55zM665 -20l83 333
h921l-83 -333h-921zM1484 1149l63 253h-251l-63 -253h251zM1182 945q-11 -43 -50 -76q-41 -31 -84 -31h-227q-131 0 -245.5 -92t-147.5 -223l-49 -198q-10 -39 -10 -76q0 -91 52 -153t134 -71l113 453q11 43 50 75q40 32 85 32l227 1q131 0 245 91t147 223l20 78h-252z
M717 20h838l63 253h-838z" />
    <glyph glyph-name="Acircumflex" unicode="&#xc2;" 
d="M1117 1108h-525l83 333h560q123 0 202.5 -79t79.5 -196q0 -40 -11 -86l-275 -1100h-334l73 292h-586l83 333h586l110 440q2 7 2 18q0 45 -48 45zM231 -20h-334l277 1110q33 134 151 233.5t270 118.5zM1117 1148q38 0 63 -24.5t25 -60.5q0 -13 -3 -28l-118 -470h-586
l-63 -253h586l-73 -292h252l267 1070q10 39 10 76q0 105 -66 170t-176 65h-529l-63 -253h474zM200 20l342 1375q-104 -13 -201.5 -103.5t-127.5 -210.5l-265 -1061h252zM861 1530h-332l291 331q38 42 101.5 68t130.5 26q68 0 121.5 -27.5t70.5 -72.5l124 -325h-322l-56 147z
M843 1570l161 183l70 -183h236l-104 270q-13 35 -53.5 55t-100.5 20q-61 0 -115 -21.5t-87 -59.5l-233 -264h226z" />
    <glyph glyph-name="Atilde" unicode="&#xc3;" 
d="M1117 1108h-525l83 333h560q123 0 202.5 -79t79.5 -196q0 -40 -11 -86l-275 -1100h-334l73 292h-586l83 333h586l110 440q2 7 2 18q0 45 -48 45zM231 -20h-334l277 1110q33 134 151 233.5t270 118.5zM1117 1148q38 0 63 -24.5t25 -60.5q0 -13 -3 -28l-118 -470h-586
l-63 -253h586l-73 -292h252l267 1070q10 39 10 76q0 105 -66 170t-176 65h-529l-63 -253h474zM200 20l342 1375q-104 -13 -201.5 -103.5t-127.5 -210.5l-265 -1061h252zM1193 1565q94 0 169.5 49.5t97.5 125.5l18 73h-171l-13 -50q-8 -29 -38 -49t-62 -20h-30q-61 0 -75 59
q-21 103 -162 115h-124q-95 0 -170.5 -49.5t-96.5 -125.5l-18 -73h171l13 51q7 28 37 48t63 20h29q25 0 50 -16.5t25 -41.5q20 -106 163 -116h124zM1192 1525h-124q-80 5 -135 45t-66 104l-1 4q0 21 -35 21h-29q-49 0 -61 -38l-21 -81h-254l31 123q25 87 113.5 146t192.5 59
h125q80 -5 135 -45t66 -105q0 -24 35 -24h30q46 0 61 38l20 81h254l-30 -123q-25 -87 -114 -146t-193 -59z" />
    <glyph glyph-name="Adieresis" unicode="&#xc4;" 
d="M1117 1108h-525l83 333h560q123 0 202.5 -79t79.5 -196q0 -40 -11 -86l-275 -1100h-334l73 292h-586l83 333h586l110 440q2 7 2 18q0 45 -48 45zM231 -20h-334l277 1110q33 134 151 233.5t270 118.5zM1117 1148q38 0 63 -24.5t25 -60.5q0 -13 -3 -28l-118 -470h-586
l-63 -253h586l-73 -292h252l267 1070q10 39 10 76q0 105 -66 170t-176 65h-529l-63 -253h474zM200 20l342 1375q-104 -13 -201.5 -103.5t-127.5 -210.5l-265 -1061h252zM874 1607l52 208h-208l-52 -208h208zM1274 1607l52 208h-208l-52 -208h208zM905 1567h-290l72 288h290z
M1305 1567h-290l72 288h290z" />
    <glyph glyph-name="AE" unicode="&#xc6;" horiz-adv-x="2500" 
d="M1200 20l3 10l5 -2l341 1366q-55 -8 -139 -58q-74 65 -176 65h-527l-63 -253h473q46 0 67.5 -25t21.5 -57q0 -13 -5 -31l-116 -470h-586l-63 -253h586l-73 -292h251zM2489 1148l63 253h-839l-63 -253h839zM200 20l343 1374q-97 -13 -198 -101.5t-132 -212.5l-264 -1060
h251zM1509 584l839 1l63 252h-839zM2207 20l63 253h-838l-63 -253h838zM1227 -20h-330l73 292h-586l83 333h586l110 440q3 11 3 21q0 17 -11.5 29.5t-37.5 12.5h-525l83 333h559q116 0 180 -55q69 40 189 56l-364 -1459q-13 0 -13 -2zM2520 1108h-921l83 333h921zM232 -20
h-335l277 1110q33 134 142.5 231t279.5 121zM1458 544l83 333h921l-83 -332zM2239 -20h-922l83 333h922z" />
    <glyph glyph-name="Ecircumflex" unicode="&#xca;" 
d="M231 -19q-118 16 -186.5 91t-68.5 182q0 40 11 87l46 185q27 111 102 189q-18 40 -18 104q0 45 10 86l47 186q33 133 151 232t270 118zM535 877h920l-83 -332q-152 0 -456 -0.5t-465 -0.5zM394 313h920l-83 -333h-920zM675 1441h921l-83 -333h-921zM200 25l342 1370
q-104 -13 -202 -103.5t-127 -210.5l-47 -186q-9 -39 -9 -76q0 -55 25 -112q-87 -93 -110 -191l-46 -185q-10 -39 -10 -77q0 -93 51 -155.5t133 -73.5zM566 837l-63 -253q132 0 415.5 0.5t422.5 0.5l63 252h-838zM425 273l-63 -253h838l63 253h-838zM706 1401l-63 -253h838
l63 253h-838zM961 1530h-332l291 331q38 42 101.5 68t130.5 26t121 -27.5t71 -72.5l124 -325h-322l-56 147zM942 1570l162 183l70 -183h236l-104 270q-13 35 -53.5 55t-100.5 20q-61 0 -115 -21.5t-87 -59.5l-233 -264h225z" />
    <glyph glyph-name="Edieresis" unicode="&#xcb;" 
d="M231 -19q-118 16 -186.5 91t-68.5 182q0 40 11 87l46 185q27 111 102 189q-18 40 -18 104q0 45 10 86l47 186q33 133 151 232t270 118zM535 877h920l-83 -332q-152 0 -456 -0.5t-465 -0.5zM394 313h920l-83 -333h-920zM675 1441h921l-83 -333h-921zM200 25l342 1370
q-104 -13 -202 -103.5t-127 -210.5l-47 -186q-9 -39 -9 -76q0 -55 25 -112q-87 -93 -110 -191l-46 -185q-10 -39 -10 -77q0 -93 51 -155.5t133 -73.5zM566 837l-63 -253q132 0 415.5 0.5t422.5 0.5l63 252h-838zM425 273l-63 -253h838l63 253h-838zM706 1401l-63 -253h838
l63 253h-838zM974 1607l51 208h-207l-52 -208h208zM1374 1607l51 208h-207l-52 -208h208zM1005 1567h-290l71 288h291zM1405 1567h-290l71 288h291z" />
    <glyph glyph-name="Icircumflex" unicode="&#xce;" horiz-adv-x="493" 
d="M-103 -20l364 1461h334l-364 -1461h-334zM-52 20h252l344 1381h-251zM360 1530h-332l291 331q38 42 101.5 68t130.5 26q68 0 121.5 -27.5t70.5 -72.5l124 -325h-322l-56 147zM342 1570l161 183l70 -183h236l-104 270q-13 35 -53.5 55t-100.5 20q-61 0 -115 -21.5
t-87 -59.5l-233 -264h226z" />
    <glyph glyph-name="Idieresis" unicode="&#xcf;" horiz-adv-x="493" 
d="M-103 -20l364 1461h334l-364 -1461h-334zM-52 20h252l344 1381h-251zM373 1607l52 208h-208l-52 -208h208zM773 1607l52 208h-208l-52 -208h208zM404 1567h-290l72 288h290zM804 1567h-290l72 288h290z" />
    <glyph glyph-name="Eth" unicode="&#xd0;" horiz-adv-x="1593" 
d="M300 20l175 700h410l41 164h-410l129 517h-252l-129 -517h-200l-41 -164h200l-174 -700h251zM987 20q130 0 244.5 92t147.5 222l190 763q10 45 10 78q0 95 -64 160.5t-174 65.5h-534l-63 -253h468q46 0 69 -28t23 -61q0 -15 -4 -28l-162 -651q-11 -45 -50 -76t-84 -31
h-478l-63 -253h524zM332 -20h-335l175 700h-200l61 244h200l129 517h334l-129 -517h410l-61 -244h-410zM987 -20h-576l83 333h510q31 0 59.5 22.5t36.5 54.5l162 651q2 14 2 18q0 19 -12.5 34t-39.5 15h-520l83 333h566q128 0 203 -77.5t75 -188.5q0 -41 -12 -88l-190 -763
q-35 -143 -160.5 -243.5t-269.5 -100.5z" />
    <glyph glyph-name="Ntilde" unicode="&#xd1;" horiz-adv-x="1625" 
d="M-103 -20l277 1110q33 134 151 233.5t270 118.5l-364 -1462h-334zM592 1108l83 333h126q123 0 202 -78t79 -195q0 -46 -11 -87l-175 -705q-2 -6 -2 -17q0 -46 49 -46h98q32 0 57 20.5t33 52.5l263 1055h334l-277 -1110q-36 -144 -164.5 -247.5t-273.5 -103.5h-188
q-123 0 -203 79t-80 196q0 40 11 86l176 704q2 6 2 17q0 46 -48 46h-91zM-52 20h252l343 1375q-105 -13 -202.5 -103.5t-127.5 -210.5zM643 1148h40q37 0 62.5 -25.5t25.5 -60.5q0 -14 -3 -27l-176 -704q-10 -39 -10 -76q0 -105 66 -170t177 -65h188q134 0 250 93t149 228
l265 1060h-252l-255 -1025q-11 -42 -49 -72.5t-80 -30.5h-98q-37 0 -63 25.5t-26 60.5q0 13 3 27l175 705q10 39 10 77q0 104 -65.5 168.5t-175.5 64.5h-95zM1259 1565q94 0 169.5 49.5t97.5 125.5l18 73h-171l-13 -50q-8 -29 -38 -49t-62 -20h-30q-61 0 -75 59
q-21 103 -162 115h-124q-95 0 -170.5 -49.5t-96.5 -125.5l-18 -73h171l13 51q7 28 37 48t63 20h29q25 0 50 -16.5t25 -41.5q20 -106 163 -116h124zM1258 1525h-124q-80 5 -135 45t-66 104l-1 4q0 21 -35 21h-29q-49 0 -61 -38l-21 -81h-254l31 123q25 87 113.5 146t192.5 59
h125q80 -5 135 -45t66 -105q0 -24 35 -24h30q46 0 61 38l20 81h254l-30 -123q-25 -87 -114 -146t-193 -59z" />
    <glyph glyph-name="Ocircumflex" unicode="&#xd4;" 
d="M1235 1441q123 0 202.5 -78.5t79.5 -195.5q0 -40 -11 -86l-187 -750q-37 -144 -166 -247.5t-273 -103.5h-569l83 332h501q40 0 69 22q27 21 34 52l165 659q2 6 2 16q0 47 -48 47h-525l83 333h560zM231 -19q-118 16 -186.5 91t-68.5 182q0 40 11 87l187 750
q33 133 151 232t270 118zM1235 1401h-529l-63 -253h474q37 0 62.5 -26t25.5 -61q0 -13 -3 -26l-165 -659q-11 -43 -48 -74q-40 -30 -94 -30h-470l-63 -252h518q134 0 250 93t150 228l187 750q10 39 10 76q0 104 -66 169t-176 65zM200 25l342 1370q-104 -13 -202 -103.5
t-127 -210.5l-187 -750q-10 -39 -10 -77q0 -93 51 -155.5t133 -73.5zM861 1530h-332l291 331q38 42 101.5 68t130.5 26t121 -27.5t71 -72.5l124 -325h-322l-56 147zM842 1570l162 183l70 -183h236l-104 270q-13 35 -53.5 55t-100.5 20q-61 0 -115 -21.5t-87 -59.5l-233 -264
h225z" />
    <glyph glyph-name="Otilde" unicode="&#xd5;" 
d="M1235 1441q123 0 202.5 -78.5t79.5 -195.5q0 -40 -11 -86l-187 -750q-37 -144 -166 -247.5t-273 -103.5h-569l83 332h501q40 0 69 22q27 21 34 52l165 659q2 6 2 16q0 47 -48 47h-525l83 333h560zM231 -19q-118 16 -186.5 91t-68.5 182q0 40 11 87l187 750
q33 133 151 232t270 118zM1235 1401h-529l-63 -253h474q37 0 62.5 -26t25.5 -61q0 -13 -3 -26l-165 -659q-11 -43 -48 -74q-40 -30 -94 -30h-470l-63 -252h518q134 0 250 93t150 228l187 750q10 39 10 76q0 104 -66 169t-176 65zM200 25l342 1370q-104 -13 -202 -103.5
t-127 -210.5l-187 -750q-10 -39 -10 -77q0 -93 51 -155.5t133 -73.5zM1193 1565q94 0 169.5 49.5t97.5 125.5l18 73h-171l-13 -50q-9 -29 -38.5 -49t-61.5 -20h-30q-61 0 -75 59q-21 103 -162 115h-124q-95 0 -170.5 -49.5t-96.5 -125.5l-18 -73h171l13 51q7 28 37 48t63 20
h29q25 0 50 -16.5t25 -41.5q20 -106 163 -116h124zM1192 1525h-124q-80 5 -135 45t-66 104l-1 3v1q0 21 -35 21h-29q-49 0 -61 -38l-21 -81h-254l31 123q25 87 113.5 146t192.5 59h125q79 -5 134 -45t67 -105q0 -24 35 -24h30q46 0 61 38l20 81h254l-30 -123
q-25 -87 -114 -146t-193 -59z" />
    <glyph glyph-name="Odieresis" unicode="&#xd6;" 
d="M1235 1441q123 0 202.5 -78.5t79.5 -195.5q0 -40 -11 -86l-187 -750q-37 -144 -166 -247.5t-273 -103.5h-569l83 332h501q40 0 69 22q27 21 34 52l165 659q2 6 2 16q0 47 -48 47h-525l83 333h560zM231 -19q-118 16 -186.5 91t-68.5 182q0 40 11 87l187 750
q33 133 151 232t270 118zM1235 1401h-529l-63 -253h474q37 0 62.5 -26t25.5 -61q0 -13 -3 -26l-165 -659q-11 -43 -48 -74q-40 -30 -94 -30h-470l-63 -252h518q134 0 250 93t150 228l187 750q10 39 10 76q0 104 -66 169t-176 65zM200 25l342 1370q-104 -13 -202 -103.5
t-127 -210.5l-187 -750q-10 -39 -10 -77q0 -93 51 -155.5t133 -73.5zM874 1607l51 208h-207l-52 -208h208zM1274 1607l51 208h-207l-52 -208h208zM905 1567h-290l71 288h291zM1305 1567h-290l71 288h291z" />
    <glyph glyph-name="multiply" unicode="&#xd7;" horiz-adv-x="1060" 
d="M650 309l226 181l-167 223l279 224l-131 174l-279 -223l-168 223l-227 -181l168 -223l-279 -224l131 -174l279 223zM643 252l-168 223l-279 -223l-179 238l279 223l-168 224l289 231l168 -223l279 223l179 -238l-279 -223l168 -224z" />
    <glyph glyph-name="Oslash" unicode="&#xd8;" 
d="M896 312q40 0 67 20t36 54l156 626l-592 -700h333zM896 272h-419l719 850q9 -50 9 -58q0 -16 -4 -29l-164 -659q-12 -50 -52 -77t-89 -27zM136 -131l268 317l-41 -166h517q133 0 249.5 93.5t151.5 227.5l187 750q10 39 10 78q0 80 -47 142q-13 18 -40 42l154 182h-192
l-114 -134h-532l-63 -253h382l-772 -915l289 1161q-97 -13 -198 -101.5t-132 -211.5l-187 -750q-10 -41 -10 -81q0 -53 19.5 -97.5t73.5 -88.5l-164 -195h191zM154 -171h-295l194 229q-26 21 -51.5 75t-25.5 117q0 43 12 91l187 750q33 133 142 230t280 121l-263 -1051
l606 717h-348l83 333h546l114 134h296l-184 -218l16 -22q55 -71 55 -166q0 -41 -12 -88l-187 -750q-36 -146 -164 -248.5t-275 -102.5h-569l13 48z" />
    <glyph glyph-name="Ucircumflex" unicode="&#xdb;" 
d="M908 313q32 0 57.5 20.5t32.5 51.5l264 1056h334l-277 -1110q-36 -144 -165.5 -247.5t-273.5 -103.5h-569l83 333h514zM595 1441l-364 -1460q-118 16 -186.5 91t-68.5 182q0 40 11 87l274 1100h334zM908 273h-483l-63 -253h518q133 0 249.5 93t150.5 227l264 1061h-251
l-256 -1025q-11 -41 -49 -72t-80 -31zM544 1401h-252l-266 -1070q-10 -39 -10 -77q0 -93 51 -155.5t133 -73.5zM861 1530h-332l291 331q38 42 101.5 68t130.5 26t121 -27.5t71 -72.5l124 -325h-322l-56 147zM842 1570l162 183l70 -183h236l-104 270q-13 35 -53.5 55
t-100.5 20q-61 0 -115 -21.5t-87 -59.5l-233 -264h225z" />
    <glyph glyph-name="Udieresis" unicode="&#xdc;" 
d="M908 313q32 0 57.5 20.5t32.5 51.5l264 1056h334l-277 -1110q-36 -144 -165.5 -247.5t-273.5 -103.5h-569l83 333h514zM595 1441l-364 -1460q-118 16 -186.5 91t-68.5 182q0 40 11 87l274 1100h334zM908 273h-483l-63 -253h518q133 0 249.5 93t150.5 227l264 1061h-251
l-256 -1025q-11 -41 -49 -72t-80 -31zM544 1401h-252l-266 -1070q-10 -39 -10 -77q0 -93 51 -155.5t133 -73.5zM874 1607l51 208h-207l-52 -208h208zM1274 1607l51 208h-207l-52 -208h208zM905 1567h-290l71 288h291zM1305 1567h-290l71 288h291z" />
    <glyph glyph-name="Thorn" unicode="&#xde;" horiz-adv-x="1494" 
d="M150 -180l395 1581h-252l-394 -1581h251zM910 112q131 0 245.5 92t147.5 223l117 470q10 45 10 78q0 95 -64 160.5t-175 65.5h-534l-63 -253h469q46 0 69 -27.5t23 -60.5q0 -16 -4 -29l-89 -359q-11 -45 -50 -76t-84 -31h-479l-63 -253h524zM182 -220h-334l414 1661h334z
M910 72h-576l83 333h511q31 0 59.5 22.5t36.5 54.5l89 359q2 14 2 19q0 18 -12.5 33t-39.5 15h-521l83 333h566q128 0 203.5 -77.5t75.5 -188.5q0 -41 -12 -88l-117 -470q-35 -144 -160.5 -244.5t-270.5 -100.5z" />
    <glyph glyph-name="acircumflex" unicode="&#xe2;" 
d="M1117 1108h-525l83 333h560q123 0 202.5 -79t79.5 -196q0 -40 -11 -86l-275 -1100h-334l73 292h-586l83 333h586l110 440q2 7 2 18q0 45 -48 45zM231 -20h-334l277 1110q33 134 151 233.5t270 118.5zM1117 1148q38 0 63 -24.5t25 -60.5q0 -13 -3 -28l-118 -470h-586
l-63 -253h586l-73 -292h252l267 1070q10 39 10 76q0 105 -66 170t-176 65h-529l-63 -253h474zM200 20l342 1375q-104 -13 -201.5 -103.5t-127.5 -210.5l-265 -1061h252zM861 1530h-332l291 331q38 42 101.5 68t130.5 26q68 0 121.5 -27.5t70.5 -72.5l124 -325h-322l-56 147z
M843 1570l161 183l70 -183h236l-104 270q-13 35 -53.5 55t-100.5 20q-61 0 -115 -21.5t-87 -59.5l-233 -264h226z" />
    <glyph glyph-name="atilde" unicode="&#xe3;" 
d="M1117 1108h-525l83 333h560q123 0 202.5 -79t79.5 -196q0 -40 -11 -86l-275 -1100h-334l73 292h-586l83 333h586l110 440q2 7 2 18q0 45 -48 45zM231 -20h-334l277 1110q33 134 151 233.5t270 118.5zM1117 1148q38 0 63 -24.5t25 -60.5q0 -13 -3 -28l-118 -470h-586
l-63 -253h586l-73 -292h252l267 1070q10 39 10 76q0 105 -66 170t-176 65h-529l-63 -253h474zM200 20l342 1375q-104 -13 -201.5 -103.5t-127.5 -210.5l-265 -1061h252zM1193 1565q94 0 169.5 49.5t97.5 125.5l18 73h-171l-13 -50q-8 -29 -38 -49t-62 -20h-30q-61 0 -75 59
q-21 103 -162 115h-124q-95 0 -170.5 -49.5t-96.5 -125.5l-18 -73h171l13 51q7 28 37 48t63 20h29q25 0 50 -16.5t25 -41.5q20 -106 163 -116h124zM1192 1525h-124q-80 5 -135 45t-66 104l-1 4q0 21 -35 21h-29q-49 0 -61 -38l-21 -81h-254l31 123q25 87 113.5 146t192.5 59
h125q80 -5 135 -45t66 -105q0 -24 35 -24h30q46 0 61 38l20 81h254l-30 -123q-25 -87 -114 -146t-193 -59z" />
    <glyph glyph-name="adieresis" unicode="&#xe4;" 
d="M1117 1108h-525l83 333h560q123 0 202.5 -79t79.5 -196q0 -40 -11 -86l-275 -1100h-334l73 292h-586l83 333h586l110 440q2 7 2 18q0 45 -48 45zM231 -20h-334l277 1110q33 134 151 233.5t270 118.5zM1117 1148q38 0 63 -24.5t25 -60.5q0 -13 -3 -28l-118 -470h-586
l-63 -253h586l-73 -292h252l267 1070q10 39 10 76q0 105 -66 170t-176 65h-529l-63 -253h474zM200 20l342 1375q-104 -13 -201.5 -103.5t-127.5 -210.5l-265 -1061h252zM874 1607l52 208h-208l-52 -208h208zM1274 1607l52 208h-208l-52 -208h208zM905 1567h-290l72 288h290z
M1305 1567h-290l72 288h290z" />
    <glyph glyph-name="ae" unicode="&#xe6;" horiz-adv-x="2500" 
d="M1200 20l3 10l5 -2l341 1366q-55 -8 -139 -58q-74 65 -176 65h-527l-63 -253h473q46 0 67.5 -25t21.5 -57q0 -13 -5 -31l-116 -470h-586l-63 -253h586l-73 -292h251zM2489 1148l63 253h-839l-63 -253h839zM200 20l343 1374q-97 -13 -198 -101.5t-132 -212.5l-264 -1060
h251zM1509 584l839 1l63 252h-839zM2207 20l63 253h-838l-63 -253h838zM1227 -20h-330l73 292h-586l83 333h586l110 440q3 11 3 21q0 17 -11.5 29.5t-37.5 12.5h-525l83 333h559q116 0 180 -55q69 40 189 56l-364 -1459q-13 0 -13 -2zM2520 1108h-921l83 333h921zM232 -20
h-335l277 1110q33 134 142.5 231t279.5 121zM1458 544l83 333h921l-83 -332zM2239 -20h-922l83 333h922z" />
    <glyph glyph-name="ecircumflex" unicode="&#xea;" 
d="M231 -19q-118 16 -186.5 91t-68.5 182q0 40 11 87l46 185q27 111 102 189q-18 40 -18 104q0 45 10 86l47 186q33 133 151 232t270 118zM535 877h920l-83 -332q-152 0 -456 -0.5t-465 -0.5zM394 313h920l-83 -333h-920zM675 1441h921l-83 -333h-921zM200 25l342 1370
q-104 -13 -202 -103.5t-127 -210.5l-47 -186q-9 -39 -9 -76q0 -55 25 -112q-87 -93 -110 -191l-46 -185q-10 -39 -10 -77q0 -93 51 -155.5t133 -73.5zM566 837l-63 -253q132 0 415.5 0.5t422.5 0.5l63 252h-838zM425 273l-63 -253h838l63 253h-838zM706 1401l-63 -253h838
l63 253h-838zM961 1530h-332l291 331q38 42 101.5 68t130.5 26t121 -27.5t71 -72.5l124 -325h-322l-56 147zM942 1570l162 183l70 -183h236l-104 270q-13 35 -53.5 55t-100.5 20q-61 0 -115 -21.5t-87 -59.5l-233 -264h225z" />
    <glyph glyph-name="edieresis" unicode="&#xeb;" 
d="M231 -19q-118 16 -186.5 91t-68.5 182q0 40 11 87l46 185q27 111 102 189q-18 40 -18 104q0 45 10 86l47 186q33 133 151 232t270 118zM535 877h920l-83 -332q-152 0 -456 -0.5t-465 -0.5zM394 313h920l-83 -333h-920zM675 1441h921l-83 -333h-921zM200 25l342 1370
q-104 -13 -202 -103.5t-127 -210.5l-47 -186q-9 -39 -9 -76q0 -55 25 -112q-87 -93 -110 -191l-46 -185q-10 -39 -10 -77q0 -93 51 -155.5t133 -73.5zM566 837l-63 -253q132 0 415.5 0.5t422.5 0.5l63 252h-838zM425 273l-63 -253h838l63 253h-838zM706 1401l-63 -253h838
l63 253h-838zM974 1607l51 208h-207l-52 -208h208zM1374 1607l51 208h-207l-52 -208h208zM1005 1567h-290l71 288h291zM1405 1567h-290l71 288h291z" />
    <glyph glyph-name="icircumflex" unicode="&#xee;" horiz-adv-x="493" 
d="M-103 -20l364 1461h334l-364 -1461h-334zM-52 20h252l344 1381h-251zM360 1530h-332l291 331q38 42 101.5 68t130.5 26q68 0 121.5 -27.5t70.5 -72.5l124 -325h-322l-56 147zM342 1570l161 183l70 -183h236l-104 270q-13 35 -53.5 55t-100.5 20q-61 0 -115 -21.5
t-87 -59.5l-233 -264h226z" />
    <glyph glyph-name="idieresis" unicode="&#xef;" horiz-adv-x="493" 
d="M-103 -20l364 1461h334l-364 -1461h-334zM-52 20h252l344 1381h-251zM373 1607l52 208h-208l-52 -208h208zM773 1607l52 208h-208l-52 -208h208zM404 1567h-290l72 288h290zM804 1567h-290l72 288h290z" />
    <glyph glyph-name="eth" unicode="&#xf0;" horiz-adv-x="1593" 
d="M300 20l175 700h410l41 164h-410l129 517h-252l-129 -517h-200l-41 -164h200l-174 -700h251zM987 20q130 0 244.5 92t147.5 222l190 763q10 45 10 78q0 95 -64 160.5t-174 65.5h-534l-63 -253h468q46 0 69 -28t23 -61q0 -15 -4 -28l-162 -651q-11 -45 -50 -76t-84 -31
h-478l-63 -253h524zM332 -20h-335l175 700h-200l61 244h200l129 517h334l-129 -517h410l-61 -244h-410zM987 -20h-576l83 333h510q31 0 59.5 22.5t36.5 54.5l162 651q2 14 2 18q0 19 -12.5 34t-39.5 15h-520l83 333h566q128 0 203 -77.5t75 -188.5q0 -41 -12 -88l-190 -763
q-35 -143 -160.5 -243.5t-269.5 -100.5z" />
    <glyph glyph-name="ntilde" unicode="&#xf1;" horiz-adv-x="1625" 
d="M-103 -20l277 1110q33 134 151 233.5t270 118.5l-364 -1462h-334zM592 1108l83 333h126q123 0 202 -78t79 -195q0 -46 -11 -87l-175 -705q-2 -6 -2 -17q0 -46 49 -46h98q32 0 57 20.5t33 52.5l263 1055h334l-277 -1110q-36 -144 -164.5 -247.5t-273.5 -103.5h-188
q-123 0 -203 79t-80 196q0 40 11 86l176 704q2 6 2 17q0 46 -48 46h-91zM-52 20h252l343 1375q-105 -13 -202.5 -103.5t-127.5 -210.5zM643 1148h40q37 0 62.5 -25.5t25.5 -60.5q0 -14 -3 -27l-176 -704q-10 -39 -10 -76q0 -105 66 -170t177 -65h188q134 0 250 93t149 228
l265 1060h-252l-255 -1025q-11 -42 -49 -72.5t-80 -30.5h-98q-37 0 -63 25.5t-26 60.5q0 13 3 27l175 705q10 39 10 77q0 104 -65.5 168.5t-175.5 64.5h-95zM1259 1565q94 0 169.5 49.5t97.5 125.5l18 73h-171l-13 -50q-8 -29 -38 -49t-62 -20h-30q-61 0 -75 59
q-21 103 -162 115h-124q-95 0 -170.5 -49.5t-96.5 -125.5l-18 -73h171l13 51q7 28 37 48t63 20h29q25 0 50 -16.5t25 -41.5q20 -106 163 -116h124zM1258 1525h-124q-80 5 -135 45t-66 104l-1 4q0 21 -35 21h-29q-49 0 -61 -38l-21 -81h-254l31 123q25 87 113.5 146t192.5 59
h125q80 -5 135 -45t66 -105q0 -24 35 -24h30q46 0 61 38l20 81h254l-30 -123q-25 -87 -114 -146t-193 -59z" />
    <glyph glyph-name="ocircumflex" unicode="&#xf4;" 
d="M1235 1441q123 0 202.5 -78.5t79.5 -195.5q0 -40 -11 -86l-187 -750q-37 -144 -166 -247.5t-273 -103.5h-569l83 332h501q40 0 69 22q27 21 34 52l165 659q2 6 2 16q0 47 -48 47h-525l83 333h560zM231 -19q-118 16 -186.5 91t-68.5 182q0 40 11 87l187 750
q33 133 151 232t270 118zM1235 1401h-529l-63 -253h474q37 0 62.5 -26t25.5 -61q0 -13 -3 -26l-165 -659q-11 -43 -48 -74q-40 -30 -94 -30h-470l-63 -252h518q134 0 250 93t150 228l187 750q10 39 10 76q0 104 -66 169t-176 65zM200 25l342 1370q-104 -13 -202 -103.5
t-127 -210.5l-187 -750q-10 -39 -10 -77q0 -93 51 -155.5t133 -73.5zM861 1530h-332l291 331q38 42 101.5 68t130.5 26t121 -27.5t71 -72.5l124 -325h-322l-56 147zM842 1570l162 183l70 -183h236l-104 270q-13 35 -53.5 55t-100.5 20q-61 0 -115 -21.5t-87 -59.5l-233 -264
h225z" />
    <glyph glyph-name="otilde" unicode="&#xf5;" 
d="M1235 1441q123 0 202.5 -78.5t79.5 -195.5q0 -40 -11 -86l-187 -750q-37 -144 -166 -247.5t-273 -103.5h-569l83 332h501q40 0 69 22q27 21 34 52l165 659q2 6 2 16q0 47 -48 47h-525l83 333h560zM231 -19q-118 16 -186.5 91t-68.5 182q0 40 11 87l187 750
q33 133 151 232t270 118zM1235 1401h-529l-63 -253h474q37 0 62.5 -26t25.5 -61q0 -13 -3 -26l-165 -659q-11 -43 -48 -74q-40 -30 -94 -30h-470l-63 -252h518q134 0 250 93t150 228l187 750q10 39 10 76q0 104 -66 169t-176 65zM200 25l342 1370q-104 -13 -202 -103.5
t-127 -210.5l-187 -750q-10 -39 -10 -77q0 -93 51 -155.5t133 -73.5zM1193 1565q94 0 169.5 49.5t97.5 125.5l18 73h-171l-13 -50q-9 -29 -38.5 -49t-61.5 -20h-30q-61 0 -75 59q-21 103 -162 115h-124q-95 0 -170.5 -49.5t-96.5 -125.5l-18 -73h171l13 51q7 28 37 48t63 20
h29q25 0 50 -16.5t25 -41.5q20 -106 163 -116h124zM1192 1525h-124q-80 5 -135 45t-66 104l-1 3v1q0 21 -35 21h-29q-49 0 -61 -38l-21 -81h-254l31 123q25 87 113.5 146t192.5 59h125q79 -5 134 -45t67 -105q0 -24 35 -24h30q46 0 61 38l20 81h254l-30 -123
q-25 -87 -114 -146t-193 -59z" />
    <glyph glyph-name="odieresis" unicode="&#xf6;" 
d="M1235 1441q123 0 202.5 -78.5t79.5 -195.5q0 -40 -11 -86l-187 -750q-37 -144 -166 -247.5t-273 -103.5h-569l83 332h501q40 0 69 22q27 21 34 52l165 659q2 6 2 16q0 47 -48 47h-525l83 333h560zM231 -19q-118 16 -186.5 91t-68.5 182q0 40 11 87l187 750
q33 133 151 232t270 118zM1235 1401h-529l-63 -253h474q37 0 62.5 -26t25.5 -61q0 -13 -3 -26l-165 -659q-11 -43 -48 -74q-40 -30 -94 -30h-470l-63 -252h518q134 0 250 93t150 228l187 750q10 39 10 76q0 104 -66 169t-176 65zM200 25l342 1370q-104 -13 -202 -103.5
t-127 -210.5l-187 -750q-10 -39 -10 -77q0 -93 51 -155.5t133 -73.5zM874 1607l51 208h-207l-52 -208h208zM1274 1607l51 208h-207l-52 -208h208zM905 1567h-290l71 288h291zM1305 1567h-290l71 288h291z" />
    <glyph glyph-name="divide" unicode="&#xf7;" horiz-adv-x="1124" 
d="M552 168l63 252h-251l-63 -252h251zM760 1000l63 252h-251l-63 -252h251zM972 584l63 252h-883l-63 -252h883zM584 128h-334l83 332h333zM791 960h-333l82 332h334zM1003 544h-965l83 332h965z" />
    <glyph glyph-name="oslash" unicode="&#xf8;" 
d="M896 312q40 0 67 20t36 54l156 626l-592 -700h333zM896 272h-419l719 850q9 -50 9 -58q0 -16 -4 -29l-164 -659q-12 -50 -52 -77t-89 -27zM136 -131l268 317l-41 -166h517q133 0 249.5 93.5t151.5 227.5l187 750q10 39 10 78q0 80 -47 142q-13 18 -40 42l154 182h-192
l-114 -134h-532l-63 -253h382l-772 -915l289 1161q-97 -13 -198 -101.5t-132 -211.5l-187 -750q-10 -41 -10 -81q0 -53 19.5 -97.5t73.5 -88.5l-164 -195h191zM154 -171h-295l194 229q-26 21 -51.5 75t-25.5 117q0 43 12 91l187 750q33 133 142 230t280 121l-263 -1051
l606 717h-348l83 333h546l114 134h296l-184 -218l16 -22q55 -71 55 -166q0 -41 -12 -88l-187 -750q-36 -146 -164 -248.5t-275 -102.5h-569l13 48z" />
    <glyph glyph-name="ucircumflex" unicode="&#xfb;" 
d="M908 313q32 0 57.5 20.5t32.5 51.5l264 1056h334l-277 -1110q-36 -144 -165.5 -247.5t-273.5 -103.5h-569l83 333h514zM595 1441l-364 -1460q-118 16 -186.5 91t-68.5 182q0 40 11 87l274 1100h334zM908 273h-483l-63 -253h518q133 0 249.5 93t150.5 227l264 1061h-251
l-256 -1025q-11 -41 -49 -72t-80 -31zM544 1401h-252l-266 -1070q-10 -39 -10 -77q0 -93 51 -155.5t133 -73.5zM861 1530h-332l291 331q38 42 101.5 68t130.5 26t121 -27.5t71 -72.5l124 -325h-322l-56 147zM842 1570l162 183l70 -183h236l-104 270q-13 35 -53.5 55
t-100.5 20q-61 0 -115 -21.5t-87 -59.5l-233 -264h225z" />
    <glyph glyph-name="udieresis" unicode="&#xfc;" 
d="M908 313q32 0 57.5 20.5t32.5 51.5l264 1056h334l-277 -1110q-36 -144 -165.5 -247.5t-273.5 -103.5h-569l83 333h514zM595 1441l-364 -1460q-118 16 -186.5 91t-68.5 182q0 40 11 87l274 1100h334zM908 273h-483l-63 -253h518q133 0 249.5 93t150.5 227l264 1061h-251
l-256 -1025q-11 -41 -49 -72t-80 -31zM544 1401h-252l-266 -1070q-10 -39 -10 -77q0 -93 51 -155.5t133 -73.5zM874 1607l51 208h-207l-52 -208h208zM1274 1607l51 208h-207l-52 -208h208zM905 1567h-290l71 288h291zM1305 1567h-290l71 288h291z" />
    <glyph glyph-name="thorn" unicode="&#xfe;" horiz-adv-x="1494" 
d="M150 -180l395 1581h-252l-394 -1581h251zM910 112q131 0 245.5 92t147.5 223l117 470q10 45 10 78q0 95 -64 160.5t-175 65.5h-534l-63 -253h469q46 0 69 -27.5t23 -60.5q0 -16 -4 -29l-89 -359q-11 -45 -50 -76t-84 -31h-479l-63 -253h524zM182 -220h-334l414 1661h334z
M910 72h-576l83 333h511q31 0 59.5 22.5t36.5 54.5l89 359q2 14 2 19q0 18 -12.5 33t-39.5 15h-521l83 333h566q128 0 203.5 -77.5t75.5 -188.5q0 -41 -12 -88l-117 -470q-35 -144 -160.5 -244.5t-270.5 -100.5z" />
    <glyph glyph-name="ydieresis" unicode="&#xff;" 
d="M955 877l-223 -897h-334l141 564h-140q-123 0 -202.5 79t-79.5 196q0 40 11 86l134 536h334l-125 -501q-2 -6 -2 -16q0 -47 48 -47h438zM952 544l83 333q41 0 68.5 20t36.5 53l122 491h334l-136 -546q-36 -144 -165 -247.5t-274 -103.5h-69zM904 837h-387
q-37 0 -62.5 25.5t-25.5 61.5q0 12 3 26l113 451h-252l-126 -506q-10 -39 -10 -76q0 -105 66 -170t176 -65h191l-141 -564h252zM1003 584h18q134 0 250.5 93.5t149.5 227.5l124 496h-251l-115 -461q-10 -39 -46 -70.5t-66 -32.5zM874 1607l52 208h-208l-51 -208h207z
M1274 1607l52 208h-208l-51 -208h207zM906 1567h-291l72 288h290zM1306 1567h-291l72 288h290z" />
    <glyph glyph-name="Amacron" unicode="&#x100;" 
d="M1117 1108h-525l83 333h560q123 0 202.5 -79t79.5 -196q0 -40 -11 -86l-275 -1100h-334l73 292h-586l83 333h586l110 440q2 7 2 18q0 45 -48 45zM231 -20h-334l277 1110q33 134 151 233.5t270 118.5zM1117 1148q38 0 63 -24.5t25 -60.5q0 -13 -3 -28l-118 -470h-586
l-63 -253h586l-73 -292h252l267 1070q10 39 10 76q0 105 -66 170t-176 65h-529l-63 -253h474zM200 20l342 1375q-104 -13 -201.5 -103.5t-127.5 -210.5l-265 -1061h252zM1324 1607l52 208h-708l-52 -208h708zM1355 1567h-790l72 288h790z" />
    <glyph glyph-name="amacron" unicode="&#x101;" 
d="M1117 1108h-525l83 333h560q123 0 202.5 -79t79.5 -196q0 -40 -11 -86l-275 -1100h-334l73 292h-586l83 333h586l110 440q2 7 2 18q0 45 -48 45zM231 -20h-334l277 1110q33 134 151 233.5t270 118.5zM1117 1148q38 0 63 -24.5t25 -60.5q0 -13 -3 -28l-118 -470h-586
l-63 -253h586l-73 -292h252l267 1070q10 39 10 76q0 105 -66 170t-176 65h-529l-63 -253h474zM200 20l342 1375q-104 -13 -201.5 -103.5t-127.5 -210.5l-265 -1061h252zM1324 1607l52 208h-708l-52 -208h708zM1355 1567h-790l72 288h790z" />
    <glyph glyph-name="Ccircumflex" unicode="&#x108;" horiz-adv-x="1492" 
d="M592 1108l83 333h920l-82 -333h-921zM595 1441l-364 -1460q-118 16 -186.5 91t-68.5 182q0 40 11 87l187 750q33 133 151 232t270 118zM311 -20l83 333h920l-83 -333h-920zM643 1148h838l63 253h-838zM542 1395q-104 -13 -202 -103.5t-127 -210.5l-187 -750
q-10 -39 -10 -77q0 -93 51 -155.5t133 -73.5zM362 20h838l63 253h-838zM977 1530h-332l291 331q38 42 101.5 68t130.5 26t121 -27.5t71 -72.5l124 -325h-322l-56 147zM958 1570l162 183l70 -183h236l-104 270q-13 35 -53.5 55t-100.5 20q-61 0 -115 -21.5t-87 -59.5
l-233 -264h225z" />
    <glyph glyph-name="ccircumflex" unicode="&#x109;" horiz-adv-x="1492" 
d="M592 1108l83 333h920l-82 -333h-921zM595 1441l-364 -1460q-118 16 -186.5 91t-68.5 182q0 40 11 87l187 750q33 133 151 232t270 118zM311 -20l83 333h920l-83 -333h-920zM643 1148h838l63 253h-838zM542 1395q-104 -13 -202 -103.5t-127 -210.5l-187 -750
q-10 -39 -10 -77q0 -93 51 -155.5t133 -73.5zM362 20h838l63 253h-838zM977 1530h-332l291 331q38 42 101.5 68t130.5 26t121 -27.5t71 -72.5l124 -325h-322l-56 147zM958 1570l162 183l70 -183h236l-104 270q-13 35 -53.5 55t-100.5 20q-61 0 -115 -21.5t-87 -59.5
l-233 -264h225z" />
    <glyph glyph-name="Cdotaccent" unicode="&#x10a;" horiz-adv-x="1492" 
d="M592 1108l83 333h920l-82 -333h-921zM595 1441l-364 -1460q-118 16 -186.5 91t-68.5 182q0 40 11 87l187 750q33 133 151 232t270 118zM311 -20l83 333h920l-83 -333h-920zM643 1148h838l63 253h-838zM542 1395q-104 -13 -202 -103.5t-127 -210.5l-187 -750
q-10 -39 -10 -77q0 -93 51 -155.5t133 -73.5zM362 20h838l63 253h-838zM1190 1607l51 208h-207l-52 -208h208zM1221 1567h-290l71 288h291z" />
    <glyph glyph-name="cdotaccent" unicode="&#x10b;" horiz-adv-x="1492" 
d="M592 1108l83 333h920l-82 -333h-921zM595 1441l-364 -1460q-118 16 -186.5 91t-68.5 182q0 40 11 87l187 750q33 133 151 232t270 118zM311 -20l83 333h920l-83 -333h-920zM643 1148h838l63 253h-838zM542 1395q-104 -13 -202 -103.5t-127 -210.5l-187 -750
q-10 -39 -10 -77q0 -93 51 -155.5t133 -73.5zM362 20h838l63 253h-838zM1190 1607l51 208h-207l-52 -208h208zM1221 1567h-290l71 288h291z" />
    <glyph glyph-name="Ccaron" unicode="&#x10c;" horiz-adv-x="1492" 
d="M1047 1470q121 0 202 81l233 264h-226l-161 -183l-70 183h-236l103 -270q34 -75 155 -75zM1481 1148l63 253h-838l-63 -253h838zM200 25l342 1370q-104 -16 -199 -101t-130 -213l-187 -750q-10 -39 -10 -77q0 -97 52 -157t132 -72zM1200 20l63 253h-838l-63 -253h838z
M1231 -20h-920l83 333h920zM1513 1108h-921l83 333h293q-87 25 -113 89l-124 325h321l56 -147l130 147h332l-291 -331q-53 -59 -146 -83h462zM231 -19q-123 17 -189 93.5t-66 179.5q0 38 11 87l187 750q36 133 148.5 230t272.5 120z" />
    <glyph glyph-name="ccaron" unicode="&#x10d;" horiz-adv-x="1492" 
d="M1047 1470q121 0 202 81l233 264h-226l-161 -183l-70 183h-236l103 -270q34 -75 155 -75zM1481 1148l63 253h-838l-63 -253h838zM200 25l342 1370q-104 -16 -199 -101t-130 -213l-187 -750q-10 -39 -10 -77q0 -97 52 -157t132 -72zM1200 20l63 253h-838l-63 -253h838z
M1231 -20h-920l83 333h920zM1513 1108h-921l83 333h293q-87 25 -113 89l-124 325h321l56 -147l130 147h332l-291 -331q-53 -59 -146 -83h462zM231 -19q-123 17 -189 93.5t-66 179.5q0 38 11 87l187 750q36 133 148.5 230t272.5 120z" />
    <glyph glyph-name="Dcaron" unicode="&#x10e;" 
d="M930 1470q122 0 202 81l233 264h-226l-161 -183l-70 183h-236l103 -270q35 -75 155 -75zM887 20q133 0 244 89.5t147 224.5l190 763q10 37 10 76q0 100 -63 164t-174 64h-535l-63 -253h470q38 0 64.5 -27t26.5 -63q0 -14 -3 -27l-163 -651q-12 -44 -51.5 -75.5
t-82.5 -31.5h-479l-63 -253h525zM200 20l344 1381h-251l-345 -1381h252zM231 -20h-334l364 1461h334zM887 -20h-576l83 333h510q34 0 60.5 21.5t34.5 55.5l163 651q2 10 2 17q0 48 -51 50h-521l83 333h176q-87 25 -113 89l-124 325h321l57 -147l129 147h332l-291 -331
q-53 -59 -146 -83h225q124 0 200.5 -78t76.5 -190q0 -39 -11 -86l-190 -763q-41 -146 -164.5 -245t-265.5 -99z" />
    <glyph glyph-name="dcaron" unicode="&#x10f;" 
d="M930 1470q122 0 202 81l233 264h-226l-161 -183l-70 183h-236l103 -270q35 -75 155 -75zM887 20q133 0 244 89.5t147 224.5l190 763q10 37 10 76q0 100 -63 164t-174 64h-535l-63 -253h470q38 0 64.5 -27t26.5 -63q0 -14 -3 -27l-163 -651q-12 -44 -51.5 -75.5
t-82.5 -31.5h-479l-63 -253h525zM200 20l344 1381h-251l-345 -1381h252zM231 -20h-334l364 1461h334zM887 -20h-576l83 333h510q34 0 60.5 21.5t34.5 55.5l163 651q2 10 2 17q0 48 -51 50h-521l83 333h176q-87 25 -113 89l-124 325h321l57 -147l129 147h332l-291 -331
q-53 -59 -146 -83h225q124 0 200.5 -78t76.5 -190q0 -39 -11 -86l-190 -763q-41 -146 -164.5 -245t-265.5 -99z" />
    <glyph glyph-name="Dcroat" unicode="&#x110;" horiz-adv-x="1593" 
d="M300 20l175 700h410l41 164h-410l129 517h-252l-129 -517h-200l-41 -164h200l-174 -700h251zM987 20q130 0 244.5 92t147.5 222l190 763q10 45 10 78q0 95 -64 160.5t-174 65.5h-534l-63 -253h468q46 0 69 -28t23 -61q0 -15 -4 -28l-162 -651q-11 -45 -50 -76t-84 -31
h-478l-63 -253h524zM332 -20h-335l175 700h-200l61 244h200l129 517h334l-129 -517h410l-61 -244h-410zM987 -20h-576l83 333h510q31 0 59.5 22.5t36.5 54.5l162 651q2 14 2 18q0 19 -12.5 34t-39.5 15h-520l83 333h566q128 0 203 -77.5t75 -188.5q0 -41 -12 -88l-190 -763
q-35 -143 -160.5 -243.5t-269.5 -100.5z" />
    <glyph glyph-name="dcroat" unicode="&#x111;" horiz-adv-x="1593" 
d="M300 20l175 700h410l41 164h-410l129 517h-252l-129 -517h-200l-41 -164h200l-174 -700h251zM987 20q130 0 244.5 92t147.5 222l190 763q10 45 10 78q0 95 -64 160.5t-174 65.5h-534l-63 -253h468q46 0 69 -28t23 -61q0 -15 -4 -28l-162 -651q-11 -45 -50 -76t-84 -31
h-478l-63 -253h524zM332 -20h-335l175 700h-200l61 244h200l129 517h334l-129 -517h410l-61 -244h-410zM987 -20h-576l83 333h510q31 0 59.5 22.5t36.5 54.5l162 651q2 14 2 18q0 19 -12.5 34t-39.5 15h-520l83 333h566q128 0 203 -77.5t75 -188.5q0 -41 -12 -88l-190 -763
q-35 -143 -160.5 -243.5t-269.5 -100.5z" />
    <glyph glyph-name="Emacron" unicode="&#x112;" 
d="M231 -19q-118 16 -186.5 91t-68.5 182q0 40 11 87l46 185q27 111 102 189q-18 40 -18 104q0 45 10 86l47 186q33 133 151 232t270 118zM535 877h920l-83 -332q-152 0 -456 -0.5t-465 -0.5zM394 313h920l-83 -333h-920zM675 1441h921l-83 -333h-921zM200 25l342 1370
q-104 -13 -202 -103.5t-127 -210.5l-47 -186q-9 -39 -9 -76q0 -55 25 -112q-87 -93 -110 -191l-46 -185q-10 -39 -10 -77q0 -93 51 -155.5t133 -73.5zM566 837l-63 -253q132 0 415.5 0.5t422.5 0.5l63 252h-838zM425 273l-63 -253h838l63 253h-838zM706 1401l-63 -253h838
l63 253h-838zM1424 1607l51 208h-707l-52 -208h708zM1455 1567h-790l71 288h791z" />
    <glyph glyph-name="emacron" unicode="&#x113;" 
d="M231 -19q-118 16 -186.5 91t-68.5 182q0 40 11 87l46 185q27 111 102 189q-18 40 -18 104q0 45 10 86l47 186q33 133 151 232t270 118zM535 877h920l-83 -332q-152 0 -456 -0.5t-465 -0.5zM394 313h920l-83 -333h-920zM675 1441h921l-83 -333h-921zM200 25l342 1370
q-104 -13 -202 -103.5t-127 -210.5l-47 -186q-9 -39 -9 -76q0 -55 25 -112q-87 -93 -110 -191l-46 -185q-10 -39 -10 -77q0 -93 51 -155.5t133 -73.5zM566 837l-63 -253q132 0 415.5 0.5t422.5 0.5l63 252h-838zM425 273l-63 -253h838l63 253h-838zM706 1401l-63 -253h838
l63 253h-838zM1424 1607l51 208h-707l-52 -208h708zM1455 1567h-790l71 288h791z" />
    <glyph glyph-name="Edotaccent" unicode="&#x116;" 
d="M231 -19q-118 16 -186.5 91t-68.5 182q0 40 11 87l46 185q27 111 102 189q-18 40 -18 104q0 45 10 86l47 186q33 133 151 232t270 118zM535 877h920l-83 -332q-152 0 -456 -0.5t-465 -0.5zM394 313h920l-83 -333h-920zM675 1441h921l-83 -333h-921zM200 25l342 1370
q-104 -13 -202 -103.5t-127 -210.5l-47 -186q-9 -39 -9 -76q0 -55 25 -112q-87 -93 -110 -191l-46 -185q-10 -39 -10 -77q0 -93 51 -155.5t133 -73.5zM566 837l-63 -253q132 0 415.5 0.5t422.5 0.5l63 252h-838zM425 273l-63 -253h838l63 253h-838zM706 1401l-63 -253h838
l63 253h-838zM1174 1607l51 208h-207l-52 -208h208zM1205 1567h-290l71 288h291z" />
    <glyph glyph-name="edotaccent" unicode="&#x117;" 
d="M231 -19q-118 16 -186.5 91t-68.5 182q0 40 11 87l46 185q27 111 102 189q-18 40 -18 104q0 45 10 86l47 186q33 133 151 232t270 118zM535 877h920l-83 -332q-152 0 -456 -0.5t-465 -0.5zM394 313h920l-83 -333h-920zM675 1441h921l-83 -333h-921zM200 25l342 1370
q-104 -13 -202 -103.5t-127 -210.5l-47 -186q-9 -39 -9 -76q0 -55 25 -112q-87 -93 -110 -191l-46 -185q-10 -39 -10 -77q0 -93 51 -155.5t133 -73.5zM566 837l-63 -253q132 0 415.5 0.5t422.5 0.5l63 252h-838zM425 273l-63 -253h838l63 253h-838zM706 1401l-63 -253h838
l63 253h-838zM1174 1607l51 208h-207l-52 -208h208zM1205 1567h-290l71 288h291z" />
    <glyph glyph-name="Ecaron" unicode="&#x11a;" 
d="M1031 1470q121 0 202 81l233 264h-226l-161 -183l-70 183h-236l103 -270q34 -75 155 -75zM200 25l342 1370q-104 -16 -199 -101t-130 -213l-47 -186q-9 -39 -9 -76q0 -56 25 -112q-88 -92 -110 -191l-46 -185q-10 -39 -10 -77q0 -97 52 -157t132 -72zM503 584l838 1
l63 252h-838zM1200 20l63 253h-838l-63 -253h838zM1481 1148l63 253h-838l-63 -253h838zM1513 1108h-921l83 333h277q-87 25 -113 89l-124 325h321l56 -147l130 147h332l-291 -331q-53 -59 -146 -83h479zM231 -19q-123 17 -189 93.5t-66 179.5q0 38 11 87l46 185
q31 114 102 189q-18 42 -18 104q0 43 10 86l47 186q36 133 148.5 230t272.5 120zM451 544l84 333h920l-83 -332zM1231 -20h-920l83 333h920z" />
    <glyph glyph-name="ecaron" unicode="&#x11b;" 
d="M1031 1470q121 0 202 81l233 264h-226l-161 -183l-70 183h-236l103 -270q34 -75 155 -75zM200 25l342 1370q-104 -16 -199 -101t-130 -213l-47 -186q-9 -39 -9 -76q0 -56 25 -112q-88 -92 -110 -191l-46 -185q-10 -39 -10 -77q0 -97 52 -157t132 -72zM503 584l838 1
l63 252h-838zM1200 20l63 253h-838l-63 -253h838zM1481 1148l63 253h-838l-63 -253h838zM1513 1108h-921l83 333h277q-87 25 -113 89l-124 325h321l56 -147l130 147h332l-291 -331q-53 -59 -146 -83h479zM231 -19q-123 17 -189 93.5t-66 179.5q0 38 11 87l46 185
q31 114 102 189q-18 42 -18 104q0 43 10 86l47 186q36 133 148.5 230t272.5 120zM451 544l84 333h920l-83 -332zM1231 -20h-920l83 333h920z" />
    <glyph glyph-name="Gcircumflex" unicode="&#x11c;" horiz-adv-x="1492" 
d="M592 1108l83 333h902l-83 -333h-902zM595 1441l-364 -1460q-118 16 -186.5 91t-68.5 182q0 40 11 87l187 750q33 133 151 232t270 118zM311 -20l83 333h586l42 168q2 6 2 16q0 47 -48 47h-445l83 333h480q123 0 202.5 -79t79.5 -196q0 -40 -11 -86l-134 -536h-920z
M643 1148h820l63 253h-820zM542 1395q-104 -13 -202 -103.5t-127 -210.5l-187 -750q-10 -39 -10 -77q0 -93 51 -155.5t133 -73.5zM362 20h838l126 506q10 39 10 76q0 105 -66 170t-176 65h-449l-63 -253h394q36 0 62 -26t26 -61q0 -13 -3 -26l-50 -198h-586zM960 1530h-332
l291 331q38 42 101.5 68t130.5 26t121 -27.5t71 -72.5l124 -325h-322l-56 147zM941 1570l162 183l70 -183h236l-104 270q-13 35 -53.5 55t-100.5 20q-61 0 -115 -21.5t-87 -59.5l-233 -264h225z" />
    <glyph glyph-name="gcircumflex" unicode="&#x11d;" horiz-adv-x="1492" 
d="M592 1108l83 333h902l-83 -333h-902zM595 1441l-364 -1460q-118 16 -186.5 91t-68.5 182q0 40 11 87l187 750q33 133 151 232t270 118zM311 -20l83 333h586l42 168q2 6 2 16q0 47 -48 47h-445l83 333h480q123 0 202.5 -79t79.5 -196q0 -40 -11 -86l-134 -536h-920z
M643 1148h820l63 253h-820zM542 1395q-104 -13 -202 -103.5t-127 -210.5l-187 -750q-10 -39 -10 -77q0 -93 51 -155.5t133 -73.5zM362 20h838l126 506q10 39 10 76q0 105 -66 170t-176 65h-449l-63 -253h394q36 0 62 -26t26 -61q0 -13 -3 -26l-50 -198h-586zM960 1530h-332
l291 331q38 42 101.5 68t130.5 26t121 -27.5t71 -72.5l124 -325h-322l-56 147zM941 1570l162 183l70 -183h236l-104 270q-13 35 -53.5 55t-100.5 20q-61 0 -115 -21.5t-87 -59.5l-233 -264h225z" />
    <glyph glyph-name="Gdotaccent" unicode="&#x120;" horiz-adv-x="1492" 
d="M592 1108l83 333h902l-83 -333h-902zM595 1441l-364 -1460q-118 16 -186.5 91t-68.5 182q0 40 11 87l187 750q33 133 151 232t270 118zM311 -20l83 333h586l42 168q2 6 2 16q0 47 -48 47h-445l83 333h480q123 0 202.5 -79t79.5 -196q0 -40 -11 -86l-134 -536h-920z
M643 1148h820l63 253h-820zM542 1395q-104 -13 -202 -103.5t-127 -210.5l-187 -750q-10 -39 -10 -77q0 -93 51 -155.5t133 -73.5zM362 20h838l126 506q10 39 10 76q0 105 -66 170t-176 65h-449l-63 -253h394q36 0 62 -26t26 -61q0 -13 -3 -26l-50 -198h-586zM1173 1607
l51 208h-207l-52 -208h208zM1204 1567h-290l71 288h291z" />
    <glyph glyph-name="gdotaccent" unicode="&#x121;" horiz-adv-x="1492" 
d="M592 1108l83 333h902l-83 -333h-902zM595 1441l-364 -1460q-118 16 -186.5 91t-68.5 182q0 40 11 87l187 750q33 133 151 232t270 118zM311 -20l83 333h586l42 168q2 6 2 16q0 47 -48 47h-445l83 333h480q123 0 202.5 -79t79.5 -196q0 -40 -11 -86l-134 -536h-920z
M643 1148h820l63 253h-820zM542 1395q-104 -13 -202 -103.5t-127 -210.5l-187 -750q-10 -39 -10 -77q0 -93 51 -155.5t133 -73.5zM362 20h838l126 506q10 39 10 76q0 105 -66 170t-176 65h-449l-63 -253h394q36 0 62 -26t26 -61q0 -13 -3 -26l-50 -198h-586zM1173 1607
l51 208h-207l-52 -208h208zM1204 1567h-290l71 288h291z" />
    <glyph glyph-name="Hcircumflex" unicode="&#x124;" 
d="M1262 1441h334l-365 -1461h-334l141 564h-587l84 333h586zM595 1441l-364 -1461h-334l364 1461h334zM1293 1401l-141 -564h-586l-63 -253h586l-140 -564h251l344 1381h-251zM544 1401h-251l-345 -1381h252zM861 1530h-332l291 331q38 42 101.5 68t130.5 26
q68 0 121.5 -27.5t70.5 -72.5l124 -325h-322l-56 147zM843 1570l161 183l70 -183h236l-104 270q-13 35 -53.5 55t-100.5 20q-61 0 -115 -21.5t-87 -59.5l-233 -264h226z" />
    <glyph glyph-name="hcircumflex" unicode="&#x125;" 
d="M1262 1441h334l-365 -1461h-334l141 564h-587l84 333h586zM595 1441l-364 -1461h-334l364 1461h334zM1293 1401l-141 -564h-586l-63 -253h586l-140 -564h251l344 1381h-251zM544 1401h-251l-345 -1381h252zM861 1530h-332l291 331q38 42 101.5 68t130.5 26
q68 0 121.5 -27.5t70.5 -72.5l124 -325h-322l-56 147zM843 1570l161 183l70 -183h236l-104 270q-13 35 -53.5 55t-100.5 20q-61 0 -115 -21.5t-87 -59.5l-233 -264h226z" />
    <glyph glyph-name="Hbar" unicode="&#x126;" 
d="M1200 20l262 1050h127l41 164h-127l42 167h-252l-42 -167h-748l42 167h-252l-42 -167h-128l-41 -164h128l-261 -1050h251l262 1050h748l-58 -233h-586l-63 -253h586l-140 -564h251zM1232 -20h-335l141 564h-586l83 333h586l38 153h-666l-261 -1050h-335l262 1050h-128
l61 244h128l42 167h334l-42 -167h666l42 167h334l-42 -167h127l-61 -244h-127z" />
    <glyph glyph-name="hbar" unicode="&#x127;" 
d="M1200 20l262 1050h127l41 164h-127l42 167h-252l-42 -167h-748l42 167h-252l-42 -167h-128l-41 -164h128l-261 -1050h251l262 1050h748l-58 -233h-586l-63 -253h586l-140 -564h251zM1232 -20h-335l141 564h-586l83 333h586l38 153h-666l-261 -1050h-335l262 1050h-128
l61 244h128l42 167h334l-42 -167h666l42 167h334l-42 -167h127l-61 -244h-127z" />
    <glyph glyph-name="Itilde" unicode="&#x128;" horiz-adv-x="493" 
d="M-103 -20l364 1461h334l-364 -1461h-334zM-52 20h252l344 1381h-251zM692 1565q94 0 169.5 49.5t97.5 125.5l18 73h-171l-13 -50q-8 -29 -38 -49t-62 -20h-30q-61 0 -75 59q-21 103 -162 115h-124q-95 0 -170.5 -49.5t-96.5 -125.5l-18 -73h171l13 51q7 28 37 48t63 20
h29q25 0 50 -16.5t25 -41.5q20 -106 163 -116h124zM691 1525h-124q-80 5 -135 45t-66 104l-1 4q0 21 -35 21h-29q-49 0 -61 -38l-21 -81h-254l31 123q25 87 113.5 146t192.5 59h125q80 -5 135 -45t66 -105q0 -24 35 -24h30q46 0 61 38l20 81h254l-30 -123q-25 -87 -114 -146
t-193 -59z" />
    <glyph glyph-name="itilde" unicode="&#x129;" horiz-adv-x="493" 
d="M-103 -20l364 1461h334l-364 -1461h-334zM-52 20h252l344 1381h-251zM692 1565q94 0 169.5 49.5t97.5 125.5l18 73h-171l-13 -50q-8 -29 -38 -49t-62 -20h-30q-61 0 -75 59q-21 103 -162 115h-124q-95 0 -170.5 -49.5t-96.5 -125.5l-18 -73h171l13 51q7 28 37 48t63 20
h29q25 0 50 -16.5t25 -41.5q20 -106 163 -116h124zM691 1525h-124q-80 5 -135 45t-66 104l-1 4q0 21 -35 21h-29q-49 0 -61 -38l-21 -81h-254l31 123q25 87 113.5 146t192.5 59h125q80 -5 135 -45t66 -105q0 -24 35 -24h30q46 0 61 38l20 81h254l-30 -123q-25 -87 -114 -146
t-193 -59z" />
    <glyph glyph-name="Imacron" unicode="&#x12a;" horiz-adv-x="493" 
d="M-103 -20l364 1461h334l-364 -1461h-334zM-52 20h252l344 1381h-251zM823 1607l52 208h-708l-52 -208h708zM854 1567h-790l72 288h790z" />
    <glyph glyph-name="imacron" unicode="&#x12b;" horiz-adv-x="493" 
d="M-103 -20l364 1461h334l-364 -1461h-334zM-52 20h252l344 1381h-251zM823 1607l52 208h-708l-52 -208h708zM854 1567h-790l72 288h790z" />
    <glyph glyph-name="Idotaccent" unicode="&#x130;" horiz-adv-x="493" 
d="M-103 -20l364 1461h334l-364 -1461h-334zM-52 20h252l344 1381h-251zM573 1607l52 208h-208l-52 -208h208zM604 1567h-290l72 288h290z" />
    <glyph glyph-name="idotless" unicode="&#x131;" horiz-adv-x="493" 
d="M-103 -20l365 1461h334l-365 -1461h-334zM-52 20h252l344 1381h-251z" />
    <glyph glyph-name="Jcircumflex" unicode="&#x134;" 
d="M1596 1441l-277 -1110q-33 -134 -151 -233.5t-271 -118.5l365 1462h334zM900 313l-83 -333h-920l83 333h920zM1544 1401h-251l-343 -1375q105 13 202.5 103.5t127.5 210.5zM849 273h-838l-63 -253h838zM1361 1530h-332l291 331q38 42 101.5 68t130.5 26q68 0 121.5 -27.5
t70.5 -72.5l124 -325h-322l-56 147zM1343 1570l161 183l70 -183h236l-104 270q-13 35 -53.5 55t-100.5 20q-61 0 -115 -21.5t-87 -59.5l-233 -264h226z" />
    <glyph glyph-name="jcircumflex" unicode="&#x135;" 
d="M1596 1441l-277 -1110q-33 -134 -151 -233.5t-271 -118.5l365 1462h334zM900 313l-83 -333h-920l83 333h920zM1544 1401h-251l-343 -1375q105 13 202.5 103.5t127.5 210.5zM849 273h-838l-63 -253h838zM1361 1530h-332l291 331q38 42 101.5 68t130.5 26q68 0 121.5 -27.5
t70.5 -72.5l124 -325h-322l-56 147zM1343 1570l161 183l70 -183h236l-104 270q-13 35 -53.5 55t-100.5 20q-61 0 -115 -21.5t-87 -59.5l-233 -264h226z" />
    <glyph glyph-name="Lmiddledot" unicode="&#x13f;" 
d="M261 1441h335l-365 -1460q-118 16 -186.5 91t-68.5 182q0 42 12 87zM394 313h921l-83 -333h-921zM293 1401l-267 -1070q-10 -45 -10 -77q0 -93 51.5 -155.5t133.5 -73.5l343 1376h-251zM426 273l-63 -253h837l63 253h-837zM814 852h284l-71 -283h-283zM841 818l-54 -215
h214l53 215h-213z" />
    <glyph glyph-name="lmiddledot" unicode="&#x140;" 
d="M261 1441h335l-365 -1460q-118 16 -186.5 91t-68.5 182q0 42 12 87zM394 313h921l-83 -333h-921zM293 1401l-267 -1070q-10 -45 -10 -77q0 -93 51.5 -155.5t133.5 -73.5l343 1376h-251zM426 273l-63 -253h837l63 253h-837zM814 852h284l-71 -283h-283zM841 818l-54 -215
h214l53 215h-213z" />
    <glyph glyph-name="Lslash" unicode="&#x141;" horiz-adv-x="1806" 
d="M1513 20l63 253h-837l-63 -253h837zM515 25l182 729l469 254l31 123l-470 -254l130 524h-251l-170 -681l-385 -208l-31 -123l385 208l-66 -266q-10 -40 -10 -81q0 -85 51.5 -148.5t134.5 -76.5zM1545 -20h-921l83 333h921zM545 -19q-127 18 -191.5 91.5t-64.5 177.5
q0 43 12 91l44 178l-385 -208l57 227l385 208l172 695h335l-122 -486l470 254l-57 -227l-469 -254z" />
    <glyph glyph-name="lslash" unicode="&#x142;" horiz-adv-x="1806" 
d="M1513 20l63 253h-837l-63 -253h837zM515 25l182 729l469 254l31 123l-470 -254l130 524h-251l-170 -681l-385 -208l-31 -123l385 208l-66 -266q-10 -40 -10 -81q0 -85 51.5 -148.5t134.5 -76.5zM1545 -20h-921l83 333h921zM545 -19q-127 18 -191.5 91.5t-64.5 177.5
q0 43 12 91l44 178l-385 -208l57 227l385 208l172 695h335l-122 -486l470 254l-57 -227l-469 -254z" />
    <glyph glyph-name="Ncaron" unicode="&#x147;" horiz-adv-x="1625" 
d="M-103 -20l277 1110q33 134 151 233.5t270 118.5l-364 -1462h-334zM592 1108l83 333h126q123 0 202 -78t79 -195q0 -46 -11 -87l-175 -705q-2 -6 -2 -17q0 -46 49 -46h98q32 0 57 20.5t33 52.5l263 1055h334l-277 -1110q-36 -144 -164.5 -247.5t-273.5 -103.5h-188
q-123 0 -203 79t-80 196q0 40 11 86l176 704q2 6 2 17q0 46 -48 46h-91zM-52 20h252l343 1375q-105 -13 -202.5 -103.5t-127.5 -210.5zM643 1148h40q37 0 62.5 -25.5t25.5 -60.5q0 -14 -3 -27l-176 -704q-10 -39 -10 -76q0 -105 66 -170t177 -65h188q134 0 250 93t149 228
l265 1060h-252l-255 -1025q-11 -42 -49 -72.5t-80 -30.5h-98q-37 0 -63 25.5t-26 60.5q0 13 3 27l175 705q10 39 10 77q0 104 -65.5 168.5t-175.5 64.5h-95zM1002 1855l57 -147l129 147h332l-291 -331q-38 -42 -101.5 -68t-130.5 -26q-68 0 -121.5 27.5t-70.5 72.5l-124 325
h321zM975 1815h-236l103 -270q14 -35 55 -55t100 -20q61 0 115 21.5t87 59.5l233 264h-226l-161 -183z" />
    <glyph glyph-name="ncaron" unicode="&#x148;" horiz-adv-x="1625" 
d="M-103 -20l277 1110q33 134 151 233.5t270 118.5l-364 -1462h-334zM592 1108l83 333h126q123 0 202 -78t79 -195q0 -46 -11 -87l-175 -705q-2 -6 -2 -17q0 -46 49 -46h98q32 0 57 20.5t33 52.5l263 1055h334l-277 -1110q-36 -144 -164.5 -247.5t-273.5 -103.5h-188
q-123 0 -203 79t-80 196q0 40 11 86l176 704q2 6 2 17q0 46 -48 46h-91zM-52 20h252l343 1375q-105 -13 -202.5 -103.5t-127.5 -210.5zM643 1148h40q37 0 62.5 -25.5t25.5 -60.5q0 -14 -3 -27l-176 -704q-10 -39 -10 -76q0 -105 66 -170t177 -65h188q134 0 250 93t149 228
l265 1060h-252l-255 -1025q-11 -42 -49 -72.5t-80 -30.5h-98q-37 0 -63 25.5t-26 60.5q0 13 3 27l175 705q10 39 10 77q0 104 -65.5 168.5t-175.5 64.5h-95zM1002 1855l57 -147l129 147h332l-291 -331q-38 -42 -101.5 -68t-130.5 -26q-68 0 -121.5 27.5t-70.5 72.5l-124 325
h321zM975 1815h-236l103 -270q14 -35 55 -55t100 -20q61 0 115 21.5t87 59.5l233 264h-226l-161 -183z" />
    <glyph glyph-name="Omacron" unicode="&#x14c;" 
d="M1235 1441q123 0 202.5 -78.5t79.5 -195.5q0 -40 -11 -86l-187 -750q-37 -144 -166 -247.5t-273 -103.5h-569l83 332h501q40 0 69 22q27 21 34 52l165 659q2 6 2 16q0 47 -48 47h-525l83 333h560zM231 -19q-118 16 -186.5 91t-68.5 182q0 40 11 87l187 750
q33 133 151 232t270 118zM1235 1401h-529l-63 -253h474q37 0 62.5 -26t25.5 -61q0 -13 -3 -26l-165 -659q-11 -43 -48 -74q-40 -30 -94 -30h-470l-63 -252h518q134 0 250 93t150 228l187 750q10 39 10 76q0 104 -66 169t-176 65zM200 25l342 1370q-104 -13 -202 -103.5
t-127 -210.5l-187 -750q-10 -39 -10 -77q0 -93 51 -155.5t133 -73.5zM1324 1607l51 208h-707l-52 -208h708zM1355 1567h-790l71 288h791z" />
    <glyph glyph-name="omacron" unicode="&#x14d;" 
d="M1235 1441q123 0 202.5 -78.5t79.5 -195.5q0 -40 -11 -86l-187 -750q-37 -144 -166 -247.5t-273 -103.5h-569l83 332h501q40 0 69 22q27 21 34 52l165 659q2 6 2 16q0 47 -48 47h-525l83 333h560zM231 -19q-118 16 -186.5 91t-68.5 182q0 40 11 87l187 750
q33 133 151 232t270 118zM1235 1401h-529l-63 -253h474q37 0 62.5 -26t25.5 -61q0 -13 -3 -26l-165 -659q-11 -43 -48 -74q-40 -30 -94 -30h-470l-63 -252h518q134 0 250 93t150 228l187 750q10 39 10 76q0 104 -66 169t-176 65zM200 25l342 1370q-104 -13 -202 -103.5
t-127 -210.5l-187 -750q-10 -39 -10 -77q0 -93 51 -155.5t133 -73.5zM1324 1607l51 208h-707l-52 -208h708zM1355 1567h-790l71 288h791z" />
    <glyph glyph-name="OE" unicode="&#x152;" horiz-adv-x="2500" 
d="M2489 1148l63 253h-839l-63 -253h839zM880 20q103 0 210 65q60 -51 118 -60l341 1369q-55 -8 -139 -58q-76 65 -176 65h-527l-63 -253h472q45 0 67 -26t22 -59q0 -15 -4 -28l-164 -659q-13 -51 -52.5 -77.5t-88.5 -26.5h-470l-63 -252h517zM202 25l341 1369
q-97 -13 -198 -101t-132 -212l-187 -750q-10 -40 -10 -81q0 -85 51.5 -148.5t134.5 -76.5zM1509 584l839 1l63 252h-839zM2207 20l63 253h-838l-63 -253h838zM2520 1108h-921l83 333h921zM880 -20h-569l83 332h502q41 0 67.5 20.5t35.5 53.5l164 659q2 14 2 18
q0 18 -11.5 31.5t-37.5 13.5h-524l83 333h559q118 0 180 -55q71 40 189 56l-365 -1461q-104 15 -152 54q-91 -55 -206 -55zM232 -19q-127 18 -191.5 91.5t-64.5 177.5q0 43 12 91l187 750q33 133 142 230t280 121zM1458 544l83 333h921l-83 -332zM2239 -20h-922l83 333h922z
" />
    <glyph glyph-name="oe" unicode="&#x153;" horiz-adv-x="2500" 
d="M2489 1148l63 253h-839l-63 -253h839zM880 20q103 0 210 65q60 -51 118 -60l341 1369q-55 -8 -139 -58q-76 65 -176 65h-527l-63 -253h472q45 0 67 -26t22 -59q0 -15 -4 -28l-164 -659q-13 -51 -52.5 -77.5t-88.5 -26.5h-470l-63 -252h517zM202 25l341 1369
q-97 -13 -198 -101t-132 -212l-187 -750q-10 -40 -10 -81q0 -85 51.5 -148.5t134.5 -76.5zM1509 584l839 1l63 252h-839zM2207 20l63 253h-838l-63 -253h838zM2520 1108h-921l83 333h921zM880 -20h-569l83 332h502q41 0 67.5 20.5t35.5 53.5l164 659q2 14 2 18
q0 18 -11.5 31.5t-37.5 13.5h-524l83 333h559q118 0 180 -55q71 40 189 56l-365 -1461q-104 15 -152 54q-91 -55 -206 -55zM232 -19q-127 18 -191.5 91.5t-64.5 177.5q0 43 12 91l187 750q33 133 142 230t280 121zM1458 544l83 333h921l-83 -332zM2239 -20h-922l83 333h922z
" />
    <glyph glyph-name="Rcaron" unicode="&#x158;" horiz-adv-x="1494" 
d="M930 1470q122 0 202 81l233 264h-226l-161 -183l-70 183h-236l103 -270q35 -75 155 -75zM1201 20l58 234q10 37 10 77q0 55 -24 110q83 89 107 186l117 470q10 36 10 75q0 100 -62.5 164.5t-174.5 64.5h-536l-63 -252h470q38 0 65 -27t27 -63q0 -15 -4 -28l-89 -359
q-12 -43 -48 -73t-81 -34h-485l-63 -253h479q36 -3 60 -28t24 -58q0 -15 -4 -27l-45 -179h252zM200 20l344 1381h-251l-345 -1381h252zM231 -20h-334l364 1461h334zM1232 -20h-334l57 229q3 8 3 17q0 43 -45 46h-529l83 333h515q68 7 91 77l89 359q3 9 3 18q0 49 -52 50
h-521l83 332h176q-87 25 -113 89l-124 325h321l57 -147l129 147h332l-291 -331q-53 -59 -146 -83h226q124 0 200.5 -78.5t76.5 -190.5q0 -38 -11 -85l-117 -470q-32 -114 -99 -184q17 -43 17 -102q0 -38 -11 -87z" />
    <glyph glyph-name="rcaron" unicode="&#x159;" horiz-adv-x="1494" 
d="M930 1470q122 0 202 81l233 264h-226l-161 -183l-70 183h-236l103 -270q35 -75 155 -75zM1201 20l58 234q10 37 10 77q0 55 -24 110q83 89 107 186l117 470q10 36 10 75q0 100 -62.5 164.5t-174.5 64.5h-536l-63 -252h470q38 0 65 -27t27 -63q0 -15 -4 -28l-89 -359
q-12 -43 -48 -73t-81 -34h-485l-63 -253h479q36 -3 60 -28t24 -58q0 -15 -4 -27l-45 -179h252zM200 20l344 1381h-251l-345 -1381h252zM231 -20h-334l364 1461h334zM1232 -20h-334l57 229q3 8 3 17q0 43 -45 46h-529l83 333h515q68 7 91 77l89 359q3 9 3 18q0 49 -52 50
h-521l83 332h176q-87 25 -113 89l-124 325h321l57 -147l129 147h332l-291 -331q-53 -59 -146 -83h226q124 0 200.5 -78.5t76.5 -190.5q0 -38 -11 -85l-117 -470q-32 -114 -99 -184q17 -43 17 -102q0 -38 -11 -87z" />
    <glyph glyph-name="Scircumflex" unicode="&#x15c;" 
d="M1022 481q2 6 2 16q0 47 -48 47h-577q-123 0 -203 79t-80 196q0 40 11 86l47 185q33 134 151 233t270 118l-125 -501q-2 -12 -2 -16q0 -47 49 -47h577q123 0 202.5 -79t79.5 -196q0 -40 -11 -86l-46 -185q-33 -134 -151.5 -233t-270.5 -118zM675 1441h921l-83 -333h-921z
M817 -20h-920l83 333h920zM1061 471l-111 -445q104 13 202 103.5t128 211.5l46 185q10 39 10 76q0 105 -66 170t-176 65h-577q-37 0 -63 26t-26 61q0 12 3 26l111 445q-104 -13 -201.5 -103.5t-127.5 -211.5l-47 -185q-10 -39 -10 -76q0 -105 66 -170t177 -65h577
q37 0 62.5 -26t25.5 -61q0 -13 -3 -26zM707 1401l-63 -253h837l63 253h-837zM786 20l63 253h-838l-63 -253h838zM861 1530h-332l291 331q38 42 101.5 68t130.5 26q68 0 121.5 -27.5t70.5 -72.5l124 -325h-322l-56 147zM843 1570l161 183l70 -183h236l-104 270
q-13 35 -53.5 55t-100.5 20q-61 0 -115 -21.5t-87 -59.5l-233 -264h226z" />
    <glyph glyph-name="scircumflex" unicode="&#x15d;" 
d="M1022 481q2 6 2 16q0 47 -48 47h-577q-123 0 -203 79t-80 196q0 40 11 86l47 185q33 134 151 233t270 118l-125 -501q-2 -12 -2 -16q0 -47 49 -47h577q123 0 202.5 -79t79.5 -196q0 -40 -11 -86l-46 -185q-33 -134 -151.5 -233t-270.5 -118zM675 1441h921l-83 -333h-921z
M817 -20h-920l83 333h920zM1061 471l-111 -445q104 13 202 103.5t128 211.5l46 185q10 39 10 76q0 105 -66 170t-176 65h-577q-37 0 -63 26t-26 61q0 12 3 26l111 445q-104 -13 -201.5 -103.5t-127.5 -211.5l-47 -185q-10 -39 -10 -76q0 -105 66 -170t177 -65h577
q37 0 62.5 -26t25.5 -61q0 -13 -3 -26zM707 1401l-63 -253h837l63 253h-837zM786 20l63 253h-838l-63 -253h838zM861 1530h-332l291 331q38 42 101.5 68t130.5 26q68 0 121.5 -27.5t70.5 -72.5l124 -325h-322l-56 147zM843 1570l161 183l70 -183h236l-104 270
q-13 35 -53.5 55t-100.5 20q-61 0 -115 -21.5t-87 -59.5l-233 -264h226z" />
    <glyph glyph-name="Scaron" unicode="&#x160;" 
d="M931 1470q123 0 202 81l233 264h-226l-161 -183l-70 183h-236l103 -270q34 -75 155 -75zM950 26q104 16 199 101t131 214l46 185q10 37 10 76q0 103 -64 169t-178 66h-577q-38 0 -63.5 26t-25.5 61q0 12 3 26l111 445q-104 -16 -198.5 -101t-130.5 -214l-47 -185
q-10 -37 -10 -76q0 -102 64 -168.5t179 -66.5h577q37 0 62.5 -26t25.5 -61q0 -13 -3 -26zM1481 1148l63 253h-837l-63 -253h837zM786 20l63 253h-838l-63 -253h838zM817 -20h-920l83 333h920zM897 -20l125 501q2 10 2 16q0 45 -48 47h-577q-127 0 -205 80t-78 195
q0 39 11 86l47 185q36 136 149 232.5t272 118.5l-125 -501q-2 -10 -2 -16q0 -46 49 -47h577q126 0 204 -80t78 -195q0 -39 -11 -86l-46 -185q-36 -135 -150 -232t-272 -119zM1513 1108h-921l83 333h177q-87 25 -113 89l-124 325h321l57 -147l129 147h332l-291 -331
q-53 -59 -146 -83h579z" />
    <glyph glyph-name="scaron" unicode="&#x161;" 
d="M931 1470q123 0 202 81l233 264h-226l-161 -183l-70 183h-236l103 -270q34 -75 155 -75zM950 26q104 16 199 101t131 214l46 185q10 37 10 76q0 103 -64 169t-178 66h-577q-38 0 -63.5 26t-25.5 61q0 12 3 26l111 445q-104 -16 -198.5 -101t-130.5 -214l-47 -185
q-10 -37 -10 -76q0 -102 64 -168.5t179 -66.5h577q37 0 62.5 -26t25.5 -61q0 -13 -3 -26zM1481 1148l63 253h-837l-63 -253h837zM786 20l63 253h-838l-63 -253h838zM817 -20h-920l83 333h920zM897 -20l125 501q2 10 2 16q0 45 -48 47h-577q-127 0 -205 80t-78 195
q0 39 11 86l47 185q36 136 149 232.5t272 118.5l-125 -501q-2 -10 -2 -16q0 -46 49 -47h577q126 0 204 -80t78 -195q0 -39 -11 -86l-46 -185q-36 -135 -150 -232t-272 -119zM1513 1108h-921l83 333h177q-87 25 -113 89l-124 325h321l57 -147l129 147h332l-291 -331
q-53 -59 -146 -83h579z" />
    <glyph glyph-name="Tcaron" unicode="&#x164;" 
d="M1482 1148l63 253h-338l-63 -253h338zM931 1470q121 0 202 81l233 264h-226l-161 -183l-70 183h-236l103 -270q34 -75 155 -75zM700 20l344 1381h-752l-63 -253h387q38 0 63.5 -26t25.5 -61q0 -13 -3 -26l-254 -1015h252zM1513 1108h-420l82 333h421zM731 -20h-334
l266 1065q2 10 2 16q0 46 -49 47h-438l83 333h591q-38 10 -69.5 35t-43.5 54l-124 325h321l57 -147l129 147h332l-291 -331q-51 -57 -146 -83h78z" />
    <glyph glyph-name="tcaron" unicode="&#x165;" 
d="M1482 1148l63 253h-338l-63 -253h338zM931 1470q121 0 202 81l233 264h-226l-161 -183l-70 183h-236l103 -270q34 -75 155 -75zM700 20l344 1381h-752l-63 -253h387q38 0 63.5 -26t25.5 -61q0 -13 -3 -26l-254 -1015h252zM1513 1108h-420l82 333h421zM731 -20h-334
l266 1065q2 10 2 16q0 46 -49 47h-438l83 333h591q-38 10 -69.5 35t-43.5 54l-124 325h321l57 -147l129 147h332l-291 -331q-51 -57 -146 -83h78z" />
    <glyph glyph-name="Tbar" unicode="&#x166;" horiz-adv-x="1494" 
d="M1483 1148l63 253h-339l-63 -253h339zM700 20l162 650h370l41 164h-370l141 567h-751l-63 -253h386q45 0 67 -26t22 -59q0 -15 -4 -28l-49 -201h-369l-41 -164h369l-162 -650h251zM1514 1108h-421l83 333h421zM732 -20h-335l162 650h-369l61 244h369l43 171q2 14 2 18
q0 18 -11.5 31.5t-37.5 13.5h-438l83 333h835l-141 -567h370l-61 -244h-370z" />
    <glyph glyph-name="tbar" unicode="&#x167;" horiz-adv-x="1494" 
d="M1483 1148l63 253h-339l-63 -253h339zM700 20l162 650h370l41 164h-370l141 567h-751l-63 -253h386q45 0 67 -26t22 -59q0 -15 -4 -28l-49 -201h-369l-41 -164h369l-162 -650h251zM1514 1108h-421l83 333h421zM732 -20h-335l162 650h-369l61 244h369l43 171q2 14 2 18
q0 18 -11.5 31.5t-37.5 13.5h-438l83 333h835l-141 -567h370l-61 -244h-370z" />
    <glyph glyph-name="Utilde" unicode="&#x168;" 
d="M908 313q32 0 57.5 20.5t32.5 51.5l264 1056h334l-277 -1110q-36 -144 -165.5 -247.5t-273.5 -103.5h-569l83 333h514zM595 1441l-364 -1460q-118 16 -186.5 91t-68.5 182q0 40 11 87l274 1100h334zM908 273h-483l-63 -253h518q133 0 249.5 93t150.5 227l264 1061h-251
l-256 -1025q-11 -41 -49 -72t-80 -31zM544 1401h-252l-266 -1070q-10 -39 -10 -77q0 -93 51 -155.5t133 -73.5zM1193 1565q94 0 169.5 49.5t97.5 125.5l18 73h-171l-13 -50q-9 -29 -38.5 -49t-61.5 -20h-30q-61 0 -75 59q-21 103 -162 115h-124q-95 0 -170.5 -49.5
t-96.5 -125.5l-18 -73h171l13 51q7 28 37 48t63 20h29q25 0 50 -16.5t25 -41.5q20 -106 163 -116h124zM1192 1525h-124q-80 5 -135 45t-66 104l-1 3v1q0 21 -35 21h-29q-49 0 -61 -38l-21 -81h-254l31 123q25 87 113.5 146t192.5 59h125q79 -5 134 -45t67 -105q0 -24 35 -24
h30q46 0 61 38l20 81h254l-30 -123q-25 -87 -114 -146t-193 -59z" />
    <glyph glyph-name="utilde" unicode="&#x169;" 
d="M908 313q32 0 57.5 20.5t32.5 51.5l264 1056h334l-277 -1110q-36 -144 -165.5 -247.5t-273.5 -103.5h-569l83 333h514zM595 1441l-364 -1460q-118 16 -186.5 91t-68.5 182q0 40 11 87l274 1100h334zM908 273h-483l-63 -253h518q133 0 249.5 93t150.5 227l264 1061h-251
l-256 -1025q-11 -41 -49 -72t-80 -31zM544 1401h-252l-266 -1070q-10 -39 -10 -77q0 -93 51 -155.5t133 -73.5zM1193 1565q94 0 169.5 49.5t97.5 125.5l18 73h-171l-13 -50q-9 -29 -38.5 -49t-61.5 -20h-30q-61 0 -75 59q-21 103 -162 115h-124q-95 0 -170.5 -49.5
t-96.5 -125.5l-18 -73h171l13 51q7 28 37 48t63 20h29q25 0 50 -16.5t25 -41.5q20 -106 163 -116h124zM1192 1525h-124q-80 5 -135 45t-66 104l-1 3v1q0 21 -35 21h-29q-49 0 -61 -38l-21 -81h-254l31 123q25 87 113.5 146t192.5 59h125q79 -5 134 -45t67 -105q0 -24 35 -24
h30q46 0 61 38l20 81h254l-30 -123q-25 -87 -114 -146t-193 -59z" />
    <glyph glyph-name="Umacron" unicode="&#x16a;" 
d="M908 313q32 0 57.5 20.5t32.5 51.5l264 1056h334l-277 -1110q-36 -144 -165.5 -247.5t-273.5 -103.5h-569l83 333h514zM595 1441l-364 -1460q-118 16 -186.5 91t-68.5 182q0 40 11 87l274 1100h334zM908 273h-483l-63 -253h518q133 0 249.5 93t150.5 227l264 1061h-251
l-256 -1025q-11 -41 -49 -72t-80 -31zM544 1401h-252l-266 -1070q-10 -39 -10 -77q0 -93 51 -155.5t133 -73.5zM1324 1607l51 208h-707l-52 -208h708zM1355 1567h-790l71 288h791z" />
    <glyph glyph-name="umacron" unicode="&#x16b;" 
d="M908 313q32 0 57.5 20.5t32.5 51.5l264 1056h334l-277 -1110q-36 -144 -165.5 -247.5t-273.5 -103.5h-569l83 333h514zM595 1441l-364 -1460q-118 16 -186.5 91t-68.5 182q0 40 11 87l274 1100h334zM908 273h-483l-63 -253h518q133 0 249.5 93t150.5 227l264 1061h-251
l-256 -1025q-11 -41 -49 -72t-80 -31zM544 1401h-252l-266 -1070q-10 -39 -10 -77q0 -93 51 -155.5t133 -73.5zM1324 1607l51 208h-707l-52 -208h708zM1355 1567h-790l71 288h791z" />
    <glyph glyph-name="Wcircumflex" unicode="&#x174;" horiz-adv-x="2192" 
d="M261 1441h334l-364 -1460q-118 16 -186.5 91t-68.5 182q0 40 11 87zM394 313h80q32 0 57.5 20.5t32.5 52.5l103 412q36 144 165.5 247.5t274.5 103.5h187q123 0 202.5 -78.5t79.5 -195.5q0 -40 -11 -87l-103 -412q-2 -6 -2 -17q0 -46 49 -46h98q32 0 57.5 20.5t32.5 52.5
l264 1055h334l-277 -1110q-36 -144 -165.5 -247.5t-273.5 -103.5h-188q-123 0 -203 79t-80 196q0 40 11 86l103 412q2 6 2 17q0 46 -48 46h-97q-32 0 -58 -20.5t-33 -52.5l-103 -412q-36 -144 -165.5 -247.5t-273.5 -103.5h-135zM292 1401l-266 -1070q-10 -39 -10 -77
q0 -93 51 -155.5t133 -73.5l344 1376h-252zM425 273l-63 -253h84q134 0 250.5 93t149.5 228l103 412q11 41 49.5 72t80.5 31h97q37 0 62.5 -25.5t25.5 -60.5q0 -14 -3 -27l-103 -412q-10 -39 -10 -76q0 -105 66 -170t177 -65h188q134 0 250.5 93t149.5 228l265 1060h-252
l-256 -1025q-11 -41 -49 -72t-80 -31h-98q-37 0 -63 25.5t-26 60.5q0 13 3 27l103 412q10 39 10 77q0 105 -65.5 169.5t-176.5 64.5h-187q-135 0 -251.5 -93t-149.5 -228l-103 -412q-11 -41 -49 -72t-80 -31h-49zM1210 1530h-332l291 331q38 42 101.5 68t130.5 26t121 -27.5
t71 -72.5l124 -325h-322l-56 147zM1191 1570l162 183l70 -183h236l-104 270q-13 35 -53.5 55t-100.5 20q-61 0 -115 -21.5t-87 -59.5l-233 -264h225z" />
    <glyph glyph-name="wcircumflex" unicode="&#x175;" horiz-adv-x="2192" 
d="M261 1441h334l-364 -1460q-118 16 -186.5 91t-68.5 182q0 40 11 87zM394 313h80q32 0 57.5 20.5t32.5 52.5l103 412q36 144 165.5 247.5t274.5 103.5h187q123 0 202.5 -78.5t79.5 -195.5q0 -40 -11 -87l-103 -412q-2 -6 -2 -17q0 -46 49 -46h98q32 0 57.5 20.5t32.5 52.5
l264 1055h334l-277 -1110q-36 -144 -165.5 -247.5t-273.5 -103.5h-188q-123 0 -203 79t-80 196q0 40 11 86l103 412q2 6 2 17q0 46 -48 46h-97q-32 0 -58 -20.5t-33 -52.5l-103 -412q-36 -144 -165.5 -247.5t-273.5 -103.5h-135zM292 1401l-266 -1070q-10 -39 -10 -77
q0 -93 51 -155.5t133 -73.5l344 1376h-252zM425 273l-63 -253h84q134 0 250.5 93t149.5 228l103 412q11 41 49.5 72t80.5 31h97q37 0 62.5 -25.5t25.5 -60.5q0 -14 -3 -27l-103 -412q-10 -39 -10 -76q0 -105 66 -170t177 -65h188q134 0 250.5 93t149.5 228l265 1060h-252
l-256 -1025q-11 -41 -49 -72t-80 -31h-98q-37 0 -63 25.5t-26 60.5q0 13 3 27l103 412q10 39 10 77q0 105 -65.5 169.5t-176.5 64.5h-187q-135 0 -251.5 -93t-149.5 -228l-103 -412q-11 -41 -49 -72t-80 -31h-49zM1210 1530h-332l291 331q38 42 101.5 68t130.5 26t121 -27.5
t71 -72.5l124 -325h-322l-56 147zM1191 1570l162 183l70 -183h236l-104 270q-13 35 -53.5 55t-100.5 20q-61 0 -115 -21.5t-87 -59.5l-233 -264h225z" />
    <glyph glyph-name="Ycircumflex" unicode="&#x176;" 
d="M955 877l-223 -897h-334l141 564h-140q-123 0 -202.5 79t-79.5 196q0 40 11 86l134 536h334l-125 -501q-2 -6 -2 -16q0 -47 48 -47h438zM952 544l83 333q41 0 68.5 20t36.5 53l122 491h334l-136 -546q-36 -144 -165 -247.5t-274 -103.5h-69zM904 837h-387
q-37 0 -62.5 25.5t-25.5 61.5q0 12 3 26l113 451h-252l-126 -506q-10 -39 -10 -76q0 -105 66 -170t176 -65h191l-141 -564h252zM1003 584h18q134 0 250.5 93.5t149.5 227.5l124 496h-251l-115 -461q-10 -39 -46 -70.5t-66 -32.5zM861 1530h-332l292 331q37 42 101 68t130 26
q68 0 121.5 -27.5t70.5 -72.5l124 -325h-321l-56 147zM843 1570l161 183l70 -183h236l-103 270q-13 35 -54 55t-101 20t-114.5 -22t-86.5 -59l-233 -264h225z" />
    <glyph glyph-name="ycircumflex" unicode="&#x177;" 
d="M955 877l-223 -897h-334l141 564h-140q-123 0 -202.5 79t-79.5 196q0 40 11 86l134 536h334l-125 -501q-2 -6 -2 -16q0 -47 48 -47h438zM952 544l83 333q41 0 68.5 20t36.5 53l122 491h334l-136 -546q-36 -144 -165 -247.5t-274 -103.5h-69zM904 837h-387
q-37 0 -62.5 25.5t-25.5 61.5q0 12 3 26l113 451h-252l-126 -506q-10 -39 -10 -76q0 -105 66 -170t176 -65h191l-141 -564h252zM1003 584h18q134 0 250.5 93.5t149.5 227.5l124 496h-251l-115 -461q-10 -39 -46 -70.5t-66 -32.5zM861 1530h-332l292 331q37 42 101 68t130 26
q68 0 121.5 -27.5t70.5 -72.5l124 -325h-321l-56 147zM843 1570l161 183l70 -183h236l-103 270q-13 35 -54 55t-101 20t-114.5 -22t-86.5 -59l-233 -264h225z" />
    <glyph glyph-name="Ydieresis" unicode="&#x178;" 
d="M955 877l-223 -897h-334l141 564h-140q-123 0 -202.5 79t-79.5 196q0 40 11 86l134 536h334l-125 -501q-2 -6 -2 -16q0 -47 48 -47h438zM952 544l83 333q41 0 68.5 20t36.5 53l122 491h334l-136 -546q-36 -144 -165 -247.5t-274 -103.5h-69zM904 837h-387
q-37 0 -62.5 25.5t-25.5 61.5q0 12 3 26l113 451h-252l-126 -506q-10 -39 -10 -76q0 -105 66 -170t176 -65h191l-141 -564h252zM1003 584h18q134 0 250.5 93.5t149.5 227.5l124 496h-251l-115 -461q-10 -39 -46 -70.5t-66 -32.5zM874 1607l52 208h-208l-51 -208h207z
M1274 1607l52 208h-208l-51 -208h207zM906 1567h-291l72 288h290zM1306 1567h-291l72 288h290z" />
    <glyph glyph-name="Zdotaccent" unicode="&#x17b;" 
d="M353 471l-122 -490q-118 16 -186.5 91t-68.5 182q0 40 11 87l46 185q36 143 165.5 247t273.5 104h577q31 0 57 21t33 52l122 490q118 -15 187 -91t69 -183q0 -40 -11 -86l-46 -185q-37 -144 -166 -247.5t-273 -103.5h-577q-31 0 -57.5 -21t-33.5 -52zM1182 1441l-83 -333
h-921l83 333h921zM311 -20l83 333h920l-83 -333h-920zM314 481q11 41 50 72t80 31h577q134 0 250 93.5t150 227.5l46 185q10 39 10 76q0 93 -51.5 156t-133.5 74l-114 -456q-11 -41 -49 -72t-80 -31h-577q-134 0 -250.5 -93.5t-149.5 -227.5l-46 -185q-10 -39 -10 -77
q0 -93 51 -155.5t133 -73.5zM1130 1401h-837l-64 -253h838zM362 20h838l63 253h-838zM1074 1607l51 208h-207l-52 -208h208zM1105 1567h-290l71 288h291z" />
    <glyph glyph-name="zdotaccent" unicode="&#x17c;" 
d="M353 471l-122 -490q-118 16 -186.5 91t-68.5 182q0 40 11 87l46 185q36 143 165.5 247t273.5 104h577q31 0 57 21t33 52l122 490q118 -15 187 -91t69 -183q0 -40 -11 -86l-46 -185q-37 -144 -166 -247.5t-273 -103.5h-577q-31 0 -57.5 -21t-33.5 -52zM1182 1441l-83 -333
h-921l83 333h921zM311 -20l83 333h920l-83 -333h-920zM314 481q11 41 50 72t80 31h577q134 0 250 93.5t150 227.5l46 185q10 39 10 76q0 93 -51.5 156t-133.5 74l-114 -456q-11 -41 -49 -72t-80 -31h-577q-134 0 -250.5 -93.5t-149.5 -227.5l-46 -185q-10 -39 -10 -77
q0 -93 51 -155.5t133 -73.5zM1130 1401h-837l-64 -253h838zM362 20h838l63 253h-838zM1074 1607l51 208h-207l-52 -208h208zM1105 1567h-290l71 288h291z" />
    <glyph glyph-name="Zcaron" unicode="&#x17d;" 
d="M931 1470q121 0 202 81l233 264h-226l-161 -183l-70 183h-236l103 -270q34 -75 155 -75zM200 25l114 456q12 42 50 72.5t80 30.5h577q134 0 248 91.5t152 229.5l46 185q10 37 10 76q0 96 -52 157t-133 73l-114 -456q-12 -42 -49 -72.5t-80 -30.5h-577q-135 0 -249 -92
t-151 -229l-46 -185q-10 -39 -10 -77q0 -97 52 -157t132 -72zM1067 1148l63 253h-837l-64 -253h838zM1200 20l63 253h-838l-63 -253h838zM1231 -20h-920l83 333h920zM231 -19q-123 17 -189 93.5t-66 179.5q0 38 11 87l46 185q41 148 167.5 249.5t271.5 101.5h577
q31 0 56.5 20.5t33.5 52.5l122 490q124 -19 190 -95t66 -179q0 -39 -11 -86l-46 -185q-41 -149 -167.5 -250t-271.5 -101h-577q-31 0 -56.5 -20.5t-34.5 -52.5zM1099 1108h-921l83 333h591q-87 25 -113 89l-124 325h321l56 -147l130 147h332l-291 -331q-53 -59 -146 -83h165
z" />
    <glyph glyph-name="zcaron" unicode="&#x17e;" 
d="M931 1470q121 0 202 81l233 264h-226l-161 -183l-70 183h-236l103 -270q34 -75 155 -75zM200 25l114 456q12 42 50 72.5t80 30.5h577q134 0 248 91.5t152 229.5l46 185q10 37 10 76q0 96 -52 157t-133 73l-114 -456q-12 -42 -49 -72.5t-80 -30.5h-577q-135 0 -249 -92
t-151 -229l-46 -185q-10 -39 -10 -77q0 -97 52 -157t132 -72zM1067 1148l63 253h-837l-64 -253h838zM1200 20l63 253h-838l-63 -253h838zM1231 -20h-920l83 333h920zM231 -19q-123 17 -189 93.5t-66 179.5q0 38 11 87l46 185q41 148 167.5 249.5t271.5 101.5h577
q31 0 56.5 20.5t33.5 52.5l122 490q124 -19 190 -95t66 -179q0 -39 -11 -86l-46 -185q-41 -149 -167.5 -250t-271.5 -101h-577q-31 0 -56.5 -20.5t-34.5 -52.5zM1099 1108h-921l83 333h591q-87 25 -113 89l-124 325h321l56 -147l130 147h332l-291 -331q-53 -59 -146 -83h165
z" />
    <glyph glyph-name="circumflexcomb" unicode="&#x302;" horiz-adv-x="966" 
d="M597 1530h-332l291 331q37 42 101.5 68t130.5 26q68 0 121.5 -27.5t70.5 -72.5l124 -325h-321l-57 147zM579 1570l161 183l70 -183h236l-103 270q-14 35 -55 55t-100 20q-61 0 -115 -21.5t-87 -59.5l-232 -264h225z" />
    <glyph glyph-name="tildecomb" unicode="&#x303;" horiz-adv-x="1154" 
d="M1023 1565q94 0 169.5 49.5t97.5 125.5l18 73h-171l-13 -50q-8 -29 -38 -49t-62 -20h-30q-61 0 -75 59q-19 103 -162 115h-124q-95 0 -170.5 -49.5t-96.5 -125.5l-18 -73h171l13 51q8 28 37.5 48t62.5 20h29q25 0 50 -16.5t25 -41.5q20 -105 163 -116h124zM1022 1525
h-124q-79 5 -134.5 45t-66.5 104l-1 4q0 21 -35 21h-29q-47 0 -61 -38l-21 -81h-254l31 123q25 87 113.5 146t192.5 59h125q80 -5 135 -45t66 -105q0 -24 35 -24h30q47 0 61 38l20 81h254l-30 -123q-25 -87 -114 -146t-193 -59z" />
    <glyph glyph-name="macroncomb" unicode="&#x304;" horiz-adv-x="949" 
d="M1052 1607l52 208h-708l-52 -208h708zM1083 1567h-790l72 288h790z" />
    <glyph glyph-name="dotaccentcomb" unicode="&#x307;" horiz-adv-x="449" 
d="M552 1607l52 208h-208l-52 -208h208zM583 1567h-290l72 288h290z" />
    <glyph glyph-name="dieresiscomb" unicode="&#x308;" horiz-adv-x="849" 
d="M552 1607l52 208h-208l-52 -208h208zM952 1607l52 208h-208l-52 -208h208zM583 1567h-290l72 288h290zM983 1567h-290l72 288h290z" />
    <glyph glyph-name="caroncomb" unicode="&#x30c;" horiz-adv-x="966" 
d="M673 1855l56 -147l129 147h332l-291 -331q-38 -42 -101.5 -68t-130.5 -26t-121 27.5t-71 72.5l-124 325h322zM645 1815h-235l103 -270q13 -35 53.5 -55t100.5 -20q61 0 115.5 22t86.5 59l233 264h-226l-161 -183z" />
    <glyph glyph-name="Wdieresis" unicode="&#x1e84;" horiz-adv-x="2192" 
d="M261 1441h334l-364 -1460q-118 16 -186.5 91t-68.5 182q0 40 11 87zM394 313h80q32 0 57.5 20.5t32.5 52.5l103 412q36 144 165.5 247.5t274.5 103.5h187q123 0 202.5 -78.5t79.5 -195.5q0 -40 -11 -87l-103 -412q-2 -6 -2 -17q0 -46 49 -46h98q32 0 57.5 20.5t32.5 52.5
l264 1055h334l-277 -1110q-36 -144 -165.5 -247.5t-273.5 -103.5h-188q-123 0 -203 79t-80 196q0 40 11 86l103 412q2 6 2 17q0 46 -48 46h-97q-32 0 -58 -20.5t-33 -52.5l-103 -412q-36 -144 -165.5 -247.5t-273.5 -103.5h-135zM292 1401l-266 -1070q-10 -39 -10 -77
q0 -93 51 -155.5t133 -73.5l344 1376h-252zM425 273l-63 -253h84q134 0 250.5 93t149.5 228l103 412q11 41 49.5 72t80.5 31h97q37 0 62.5 -25.5t25.5 -60.5q0 -14 -3 -27l-103 -412q-10 -39 -10 -76q0 -105 66 -170t177 -65h188q134 0 250.5 93t149.5 228l265 1060h-252
l-256 -1025q-11 -41 -49 -72t-80 -31h-98q-37 0 -63 25.5t-26 60.5q0 13 3 27l103 412q10 39 10 77q0 105 -65.5 169.5t-176.5 64.5h-187q-135 0 -251.5 -93t-149.5 -228l-103 -412q-11 -41 -49 -72t-80 -31h-49zM1223 1607l51 208h-207l-52 -208h208zM1623 1607l51 208
h-207l-52 -208h208zM1254 1567h-290l71 288h291zM1654 1567h-290l71 288h291z" />
    <glyph glyph-name="wdieresis" unicode="&#x1e85;" horiz-adv-x="2192" 
d="M261 1441h334l-364 -1460q-118 16 -186.5 91t-68.5 182q0 40 11 87zM394 313h80q32 0 57.5 20.5t32.5 52.5l103 412q36 144 165.5 247.5t274.5 103.5h187q123 0 202.5 -78.5t79.5 -195.5q0 -40 -11 -87l-103 -412q-2 -6 -2 -17q0 -46 49 -46h98q32 0 57.5 20.5t32.5 52.5
l264 1055h334l-277 -1110q-36 -144 -165.5 -247.5t-273.5 -103.5h-188q-123 0 -203 79t-80 196q0 40 11 86l103 412q2 6 2 17q0 46 -48 46h-97q-32 0 -58 -20.5t-33 -52.5l-103 -412q-36 -144 -165.5 -247.5t-273.5 -103.5h-135zM292 1401l-266 -1070q-10 -39 -10 -77
q0 -93 51 -155.5t133 -73.5l344 1376h-252zM425 273l-63 -253h84q134 0 250.5 93t149.5 228l103 412q11 41 49.5 72t80.5 31h97q37 0 62.5 -25.5t25.5 -60.5q0 -14 -3 -27l-103 -412q-10 -39 -10 -76q0 -105 66 -170t177 -65h188q134 0 250.5 93t149.5 228l265 1060h-252
l-256 -1025q-11 -41 -49 -72t-80 -31h-98q-37 0 -63 25.5t-26 60.5q0 13 3 27l103 412q10 39 10 77q0 105 -65.5 169.5t-176.5 64.5h-187q-135 0 -251.5 -93t-149.5 -228l-103 -412q-11 -41 -49 -72t-80 -31h-49zM1223 1607l51 208h-207l-52 -208h208zM1623 1607l51 208
h-207l-52 -208h208zM1254 1567h-290l71 288h291zM1654 1567h-290l71 288h291z" />
    <glyph glyph-name="endash" unicode="&#x2013;" horiz-adv-x="1232" 
d="M145 877h1065l-66 -332h-1065zM170 837l-50 -252h999l50 252h-999z" />
    <glyph glyph-name="emdash" unicode="&#x2014;" horiz-adv-x="2264" 
d="M49 877h2130l-132 -332h-2131zM99 837l-101 -252h1998l101 252h-1998z" />
    <glyph glyph-name="quoteleft" unicode="&#x2018;" horiz-adv-x="493" 
d="M124 889l142 569l272 -250l-80 -319h-334zM175 929h252l66 266l-205 188z" />
    <glyph glyph-name="quoteright" unicode="&#x2019;" horiz-adv-x="493" 
d="M596 1441l-142 -569l-272 250l80 319h334zM544 1401h-251l-66 -266l204 -188z" />
    <glyph glyph-name="quotesinglbase" unicode="&#x201a;" horiz-adv-x="493" 
d="M321 341l-142 -569l-271 250l79 319h334zM270 301h-251l-67 -266l205 -188z" />
    <glyph glyph-name="quotedblleft" unicode="&#x201c;" horiz-adv-x="853" 
d="M124 889l142 569l272 -250l-80 -319h-334zM484 889l142 569l272 -250l-80 -319h-334zM175 929h252l66 266l-205 188zM535 929h252l66 266l-205 188z" />
    <glyph glyph-name="quotedblright" unicode="&#x201d;" horiz-adv-x="853" 
d="M956 1441l-142 -569l-272 250l80 319h334zM596 1441l-142 -569l-272 250l80 319h334zM904 1401h-251l-66 -266l204 -188zM544 1401h-251l-66 -266l204 -188z" />
    <glyph glyph-name="quotedblbase" unicode="&#x201e;" horiz-adv-x="853" 
d="M681 341l-142 -569l-271 250l79 319h334zM321 341l-142 -569l-271 250l79 319h334zM630 301h-251l-67 -266l205 -188zM270 301h-251l-67 -266l205 -188z" />
    <glyph glyph-name="ellipsis" unicode="&#x2026;" horiz-adv-x="1859" 
d="M-20 312h334l-83 -332h-334zM11 272l-63 -252h252l63 252h-252zM663 312h334l-83 -332h-334zM694 272l-63 -252h252l63 252h-252zM1346 312h334l-83 -332h-334zM1377 272l-63 -252h252l63 252h-252z" />
    <glyph glyph-name="perthousand" unicode="&#x2030;" horiz-adv-x="3339" 
d="M1589 20l63 252h21q-37 0 -63 26t-26 60q0 15 4 27l23 95q11 43 48.5 73t69.5 30l63 253q-84 0 -145 -19.5t-126 -71.5q-115 -91 -153 -230l-46 -185q-10 -39 -10 -77q0 -101 64 -167t179 -66h34zM2726 20q135 0 249 91t152 229l46 185q9 39 9 76q0 103 -64 169t-178 66
h-34l-63 -253h-21q38 0 63.5 -26t25.5 -61q0 -14 -4 -26l-24 -95q-12 -42 -48 -72.5t-70 -30.5l-63 -252h24zM2539 20l63 252h21q-37 0 -63 26t-26 60q0 15 4 27l23 95q12 44 48 73.5t70 29.5l63 253q-84 0 -145 -19.5t-126 -71.5q-115 -91 -153 -230l-46 -185
q-10 -39 -10 -77q0 -101 64 -167t179 -66h34zM434 584l63 253h20q-38 0 -63.5 26t-25.5 61q0 14 4 26l24 95q11 43 48.5 73t69.5 30l63 253q-84 0 -145 -19.5t-126 -71.5q-115 -91 -153 -230l-47 -185q-9 -39 -9 -76q0 -103 64 -169t178 -66h35zM621 584q134 0 248 91.5
t152 229.5l47 185q9 39 9 76q0 103 -64 169t-178 66h-35l-63 -253h-20q38 0 63.5 -26t25.5 -61q0 -14 -4 -26l-24 -95q-11 -43 -48.5 -73t-69.5 -30l-63 -253h24zM760 20l1164 1381h-295l-1164 -1381h295zM1776 20q135 0 249 91t152 229l46 185q9 39 9 76q0 103 -64 169
t-178 66h-34l-63 -253h-21q38 0 63.5 -26t25.5 -61q0 -14 -4 -26l-24 -95q-11 -42 -49 -72.5t-69 -30.5l-63 -252h24zM1621 -20h-66q-124 0 -203.5 78t-79.5 195q0 41 12 87l46 185q40 148 166 249.5t272 101.5h76l-83 -333h-21q-32 0 -57 -20t-34 -53l-23 -95
q-2 -10 -2 -17q0 -31 18 -38.5t62 -7.5zM2726 -20h-76l83 332h21q31 0 56.5 20.5t34.5 52.5l24 95q2 10 2 16q0 14 -4 23t-9 14t-17.5 7t-21.5 2.5t-28 0.5l83 333h66q126 0 204 -80t78 -195q0 -39 -11 -86l-46 -185q-41 -148 -167 -249t-272 -101zM2571 -20h-66
q-124 0 -203.5 78t-79.5 195q0 41 12 87l46 185q40 148 166 249.5t272 101.5h76l-83 -333h-21q-32 0 -57 -20t-34 -53l-23 -95q-2 -10 -2 -17q0 -31 18 -38.5t62 -7.5zM466 544h-67q-126 0 -204 80t-78 195q0 39 11 86l47 185q40 148 166 249.5t272 101.5h76l-83 -333h-21
q-32 0 -57 -20t-34 -53l-24 -95q-2 -10 -2 -16q0 -46 49 -47h32zM621 544h-76l83 333h21q32 0 57 20t34 53l24 95q2 10 2 16q0 46 -49 47h-32l83 333h67q126 0 204 -80t78 -195q0 -39 -11 -86l-47 -185q-41 -148 -167 -249.5t-271 -101.5zM779 -20h-400l1231 1461h400z
M1776 -20h-76l83 332h21q31 0 56.5 20.5t34.5 52.5l24 95q2 10 2 16q0 14 -4 23t-9 14t-17.5 7t-21.5 2.5t-28 0.5l83 333h66q126 0 204 -80t78 -195q0 -39 -11 -86l-46 -185q-41 -148 -167 -249t-272 -101z" />
    <glyph glyph-name="guilsinglleft" unicode="&#x2039;" horiz-adv-x="1105" 
d="M971 493l-92 -369l-701 338q-54 26 -83.5 79.5t-29.5 128.5h539zM634 751h-551q78 157 212 209l878 341l-94 -377zM925 471l-330 159h-490q0 -39 24 -75.5t67 -56.5l657 -317zM627 791l418 162l70 283l-806 -314q-55 -21 -99.5 -59t-62.5 -72h480z" />
    <glyph glyph-name="guilsinglright" unicode="&#x203a;" horiz-adv-x="1105" 
d="M26 497l446 173h550q-77 -157 -212 -209l-878 -341zM500 751l-366 177l92 369l701 -338q54 -26 83.5 -80t29.5 -128h-540zM60 467l-70 -282l806 313q55 21 99.5 59t62.5 73h-479zM509 791h491q0 39 -23.5 75t-67.5 57l-656 316l-73 -290z" />
    <glyph glyph-name="minus" unicode="&#x2212;" horiz-adv-x="1124" 
d="M121 876h965l-83 -332h-965zM152 836l-63 -252h883l63 252h-883z" />
    <glyph glyph-name="almostequalto" unicode="&#x2248;" horiz-adv-x="1154" 
d="M954 1069h254l-37 -119q-24 -77 -106.5 -139.5t-183.5 -62.5l-154 -1q-79 4 -133 45.5t-59 102.5v2q-1 24 -32 24h-30q-23 0 -41 -11t-24 -30l-24 -78h-254l37 118q25 83 119.5 143.5t198.5 60.5l125 -1q79 -4 133 -45t60 -102v-3q1 -24 32 -24h30q23 0 41 11t24 30z
M985 1037l-17 -55q-8 -26 -39 -45.5t-64 -19.5h-30q-28 0 -49.5 16t-22.5 38v2q-4 52 -45 83.5t-109 35.5h-124q-94 0 -175 -52t-104 -127l-25 -79h172l17 54q7 26 38.5 45.5t64.5 19.5h30q29 0 50 -16t22 -38v-2q5 -52 46 -83.5t108 -34.5l154 -1q94 4 159.5 53t89.5 126
l25 80h-172zM846 637h254l-37 -119q-24 -77 -106.5 -139.5t-183.5 -62.5l-154 -1q-79 4 -133 45.5t-59 102.5v2q-1 24 -32 24h-30q-23 0 -41 -11t-24 -30l-24 -78h-254l37 118q25 83 119.5 143.5t198.5 60.5l125 -1q79 -4 133 -45t60 -102v-3q1 -24 32 -24h30q23 0 41 11
t24 30zM877 605l-17 -55q-8 -26 -39 -45.5t-64 -19.5h-30q-28 0 -49.5 16t-22.5 38v2q-4 52 -45 83.5t-109 35.5h-124q-94 0 -175 -52t-104 -127l-25 -79h172l17 54q7 26 38.5 45.5t64.5 19.5h30q29 0 50 -16t22 -38v-2q5 -52 46 -83.5t108 -34.5l154 -1q94 4 159.5 53
t89.5 126l25 80h-172z" />
    <glyph glyph-name="notequalto" unicode="&#x2260;" horiz-adv-x="1124" 
d="M263 170l141 203h515l63 253h-402l129 186h320l63 253h-208l141 202h-160l-140 -202h-516l-63 -253h403l-129 -186h-320l-63 -253h208l-141 -203h159zM284 130h-257l141 203h-183l83 333h331l74 106h-378l83 333h526l140 202h257l-140 -202h182l-83 -333h-330l-74 -106
h378l-83 -333h-526z" />
    <glyph glyph-name="lessthanorequalto" unicode="&#x2264;" horiz-adv-x="1124" 
d="M1040 693l-92 -332l-701 304q-54 24 -84 72.5t-30 115.5h539zM702 926h-551q79 141 212 188l878 307l-94 -340zM993 674l-330 143h-490q0 -35 23.5 -67.5t67.5 -51.5l657 -285zM695 962l418 146l71 254l-806 -282q-55 -19 -100 -53t-62 -65h479zM-20 313h966l-83 -333
h-966zM12 273l-63 -253h883l63 253h-883z" />
    <glyph glyph-name="greaterthanorequalto" unicode="&#x2265;" horiz-adv-x="1124" 
d="M94 697l446 156h550q-78 -142 -212 -188l-878 -307zM569 926l-367 159l92 332l701 -304q54 -23 83.5 -71.5t29.5 -115.5h-539zM128 670l-70 -253l806 281q56 19 100.5 53.5t61.5 65.5h-479zM578 962h490q0 35 -23.5 67.5t-66.5 51.5l-657 285l-72 -261zM-20 313h966
l-83 -333h-966zM12 273l-63 -253h883l63 253h-883z" />
    </font>
</defs>
</svg>
