<?xml version="1.0" standalone="no"?>
<!DOCTYPE svg PUBLIC "-//W3C//DTD SVG 1.1//EN" "http://www.w3.org/Graphics/SVG/1.1/DTD/svg11.dtd" >
<svg xmlns="http://www.w3.org/2000/svg" xmlns:xlink="http://www.w3.org/1999/xlink" version="1.1">
<metadata>
Created by FontForge 20170731 at Wed Aug 17 21:01:07 2022
 By Aleksey,,,
EMOTIQ (c) Enxyclo Studio. 2022. All Rights Reserved
</metadata>
<defs>
<font id="EMOTIQOutlineSlantBold" horiz-adv-x="1573" >
  <font-face 
    font-family="EMOTIQ Outline Slant"
    font-weight="700"
    font-stretch="normal"
    units-per-em="2048"
    panose-1="2 0 8 0 2 0 0 0 0 0"
    ascent="1638"
    descent="-410"
    x-height="1441"
    cap-height="1442"
    bbox="-214 -441 3358 1955"
    underline-thickness="51"
    underline-position="-152"
    unicode-range="U+0020-2265"
  />
<missing-glyph horiz-adv-x="1024" 
d="M924 0h-824v1434h824v-1434zM874 50v1334h-724v-1334h724zM478 454h-32q-35 99 -35 148q0 76 82 218q81 143 81 217q0 57 -33 90t-91 33q-34 0 -61 -13.5t-64 -43.5v45q81 73 170 73q91 0 147.5 -47t56.5 -128q0 -51 -24 -101t-86 -127q-54 -69 -76 -98.5t-40.5 -66.5
t-18.5 -66q0 -39 24 -133zM466 213q-11 0 -20 10l-61 71q-7 8 -7 18q0 9 11 22l57 58q10 10 20 10q9 0 22 -11l56 -60q9 -10 9 -20q0 -12 -10 -22l-56 -62q-14 -14 -21 -14z" />
    <glyph glyph-name=".notdef" horiz-adv-x="1024" 
d="M924 0h-824v1434h824v-1434zM874 50v1334h-724v-1334h724zM478 454h-32q-35 99 -35 148q0 76 82 218q81 143 81 217q0 57 -33 90t-91 33q-34 0 -61 -13.5t-64 -43.5v45q81 73 170 73q91 0 147.5 -47t56.5 -128q0 -51 -24 -101t-86 -127q-54 -69 -76 -98.5t-40.5 -66.5
t-18.5 -66q0 -39 24 -133zM466 213q-11 0 -20 10l-61 71q-7 8 -7 18q0 9 11 22l57 58q10 10 20 10q9 0 22 -11l56 -60q9 -10 9 -20q0 -12 -10 -22l-56 -62q-14 -14 -21 -14z" />
    <glyph glyph-name=".null" horiz-adv-x="0" 
 />
    <glyph glyph-name="nonmarkingreturn" horiz-adv-x="682" 
 />
    <glyph glyph-name="space" unicode=" " horiz-adv-x="600" 
 />
    <glyph glyph-name="space" unicode="&#xa0;" horiz-adv-x="600" 
 />
    <glyph glyph-name="exclam" unicode="!" horiz-adv-x="573" 
d="M676 1442l-265 -1060h-414l265 1060h414zM-5 371h413l-97 -391h-414zM624 1402h-331l-244 -980h331zM26 331l-77 -311h331l77 311h-331z" />
    <glyph glyph-name="quotedbl" unicode="&#x22;" horiz-adv-x="1000" 
d="M1103 1442l-172 -689l-336 310l94 379h414zM675 1442l-171 -689l-337 310l95 379h413zM1052 1402h-332l-81 -326l270 -248zM624 1402h-331l-81 -326l269 -248z" />
    <glyph glyph-name="numbersign" unicode="#" horiz-adv-x="1610" 
d="M723 671l20 82h144l-20 -82h-144zM1531 713h-281v-2h280l-103 -414h-280l-79 -317h-414l79 317h-62l-79 -317h-414l79 317h-281l103 414h281v2h-280l103 412h280l79 317h414l-79 -317h62l79 317h414l-79 -317h281zM774 711h62v2h-62v-2zM1500 753l83 332h-281l79 317
h-332l-79 -317h-144l79 317h-331l-79 -317h-281l-83 -332h281l-21 -82h-280l-84 -334h281l-79 -317h332l79 317h144l-79 -317h331l79 317h281l83 334h-281l21 82h281z" />
    <glyph glyph-name="dollar" unicode="$" 
d="M744 -163l46 183h130q148 0 278.5 103t171.5 258l37 145q10 41 10 85q0 114 -72.5 190t-201.5 76h-140l28 111h-331l-28 -111h-106q-25 0 -41 17.5t-16 39.5q0 7 16 72q9 30 34.5 46.5t41.5 16.5h940l83 333h-490l46 183h-331l-46 -183h-151q-151 0 -279 -102.5
t-170 -258.5l-37 -146q-10 -41 -10 -86q0 -113 72 -189t200 -76h161l-27 -110h331l27 110h85q23 0 40.5 -17.5t17.5 -38.5q0 -8 -3 -17l-13 -55q-7 -26 -30 -44.5t-49 -18.5h-936l-83 -333h510l-46 -183h331zM776 -203h-415l46 183h-510l103 413h968q30 0 41 33l13 55l1 7
q0 16 -13 16h-58l-27 -110h-415l27 110h-109q-140 0 -226 89t-86 216q0 47 12 96l37 146q43 166 185 278.5t302 112.5h119l46 183h415l-46 -183h490l-103 -413h-979q-8 -3 -13.5 -7.5t-9 -8t-6.5 -13t-4.5 -15t-5.5 -21t-6 -24.5q0 -23 13 -23h78l28 111h415l-28 -111h88
q141 0 227.5 -86.5t86.5 -219.5q0 -45 -12 -95l-37 -145q-47 -173 -189 -282t-299 -109h-98z" />
    <glyph glyph-name="percent" unicode="%" horiz-adv-x="2469" 
d="M1864 393q13 0 25 9.5t16 22.5l18 74l1 8q0 15 -18 15h-131q-13 0 -25.5 -9.5t-15.5 -23.5l-19 -73v-7q0 -9 3 -10q2 -6 14 -6h132zM703 936q15 0 27 10t14 23q10 37 10 43q0 17 -17 17h-132q-15 0 -27 -10.5t-14 -22.5q-9 -37 -9 -44q0 -8 2 -10q1 -6 15 -6h131z
M1864 353h-132q-24 0 -40.5 16t-16.5 40q0 3 2 17l19 73q7 28 30 45.5t49 17.5h131q24 0 41 -15.5t17 -39.5q0 -7 -3 -18l-18 -72q-9 -31 -31 -47.5t-48 -16.5zM703 896h-131q-25 0 -41 16t-16 40q0 22 10.5 52.5t29.5 45.5q25 19 50 19h132q24 0 40.5 -16t16.5 -41
q0 -20 -11 -50.5t-29 -46.5q-23 -19 -51 -19zM823 20l1209 1382h-386l-1210 -1382h387zM656 563q150 0 280 105q1 1 75 64q88 150 95 192l32 127q10 41 10 86q0 113 -72 189t-201 76h-222q-148 0 -278.5 -103t-171.5 -258l-32 -127q-11 -46 -11 -86q0 -111 72.5 -188
t201.5 -77h222zM1816 20q148 0 278.5 103t171.5 258l41 163q11 46 11 86q0 111 -72.5 188t-201.5 77h-221q-151 0 -281 -105l-74 -68q-87 -144 -96 -188l-41 -163q-10 -41 -10 -86q0 -113 72 -189t201 -76h222zM1816 -20h-222q-141 0 -227 87t-86 218q0 45 12 96l44 176
l-496 -577h-493l532 603q-77 -37 -126 -48.5t-98 -11.5h-222q-140 0 -227 87.5t-87 217.5q0 47 13 96l32 127q44 167 184.5 279t303.5 112h222q141 0 227 -87t86 -218q0 -45 -12 -96l-40 -161l492 562h494l-503 -557q102 50 204 50h221q146 0 230 -89.5t84 -215.5
q0 -47 -13 -96l-41 -163q-44 -167 -184.5 -279t-303.5 -112z" />
    <glyph glyph-name="ampersand" unicode="&#x26;" horiz-adv-x="1652" 
d="M933 393q34 0 47 37l22 93h-137l103 413h138l16 67l1 8q0 19 -18 19l-496 -1q-25 0 -34.5 -15t-18.5 -51l-1 -8q0 -19 16 -19h226l-103 -413h-211q-33 0 -46 -37l-18 -70q0 -23 13 -23h501zM898 20q153 4 278.5 107t161.5 248l46 188h110l83 333h-577l-83 -333h137
l-36 -143q-8 -27 -32 -47t-53 -20h-497q-23 0 -40 17.5t-17 39.5q0 4 2 16l18 70q7 27 32 47t52 20h179l83 333h-169q-26 0 -43.5 18t-17.5 41q0 7 10 47q7 27 32 47t52 20l493 1q24 0 42.5 -17.5t18.5 -41.5q0 -4 -8 -39h332q3 12 10 38.5t9.5 37.5t6 29.5t5 33.5t1.5 31
q0 113 -71 186.5t-197 73.5h-604q-149 0 -275 -101t-168 -253l-35 -140q-10 -41 -10 -84q0 -49 16 -98q-75 -95 -97 -185l-43 -170q-10 -41 -10 -86q0 -115 72 -190t201 -75h600zM898 -20h-600q-141 0 -227 88.5t-86 216.5q0 47 12 96l43 170q29 104 91 183q-12 38 -12 90
q0 44 12 94l35 140q44 164 184.5 274t296.5 110h604q138 0 223 -87t85 -213q0 -44 -12 -94l-27 -112h109l-103 -413h-110l-40 -158q-39 -156 -172.5 -267t-305.5 -118z" />
    <glyph glyph-name="quotesingle" unicode="'" horiz-adv-x="572" 
d="M675 1442l-171 -689l-337 310l95 379h413zM624 1402h-331l-81 -326l269 -248z" />
    <glyph glyph-name="parenleft" unicode="(" horiz-adv-x="874" 
d="M611 -28l-103 -413h-321q-79 0 -144 31t-106 85q-59 78 -59 184q0 49 13 95l380 1523q18 77 65.5 148t113.5 124q145 113 301 113h331l-103 -413h-265q-14 0 -29 -12q-13 -10 -17 -25l-352 -1413q-1 -3 -1 -8q0 -7 4 -12q6 -7 17 -7h275zM559 -68h-223q-31 0 -49 23
q-12 17 -12 36q0 11 3 18l352 1413q5 28 31 47q24 20 53 20h233l83 333h-279q-146 0 -275 -105q-130 -105 -167 -250l-380 -1523q-11 -47 -11 -85q0 -92 51 -160q76 -100 218 -100h289z" />
    <glyph glyph-name="parenright" unicode=")" horiz-adv-x="874" 
d="M-105 -28h265q13 0 29 11q13 12 17 26l352 1413q1 4 1 9q0 6 -4 10q-6 8 -17 8h-275l103 413h321q79 0 144 -31.5t106 -85.5q58 -77 58 -184q0 -46 -12 -94l-380 -1523q-18 -77 -66 -148.5t-114 -124.5q-144 -112 -300 -112h-331zM-73 -68l-83 -333h279q145 0 276 104
q129 105 166 251l380 1523q10 41 10 84q0 93 -50 160q-75 101 -218 101h-289l-83 -333h223q32 0 49 -24q12 -14 12 -34q0 -11 -3 -19l-352 -1413q-5 -27 -31 -48q-24 -19 -53 -19h-233z" />
    <glyph glyph-name="asterisk" unicode="*" horiz-adv-x="845" 
d="M832 1215h60l-58 -232h-67l36 -48l-201 -160l-35 47l-16 -66h-234l15 59l-50 -40l-126 167l51 41h-60l58 232h67l-36 48l201 161l35 -48l16 66h234l-15 -59l50 41l126 -168zM718 1175l110 88l-78 104l-110 -89l30 124h-150l-29 -117l-62 82l-138 -111l61 -81h-116
l-38 -152h123l-110 -88l78 -103l110 88l-30 -124h150l30 117l61 -81l138 110l-61 81h116l38 152h-123z" />
    <glyph glyph-name="plus" unicode="+" horiz-adv-x="1204" 
d="M865 936h316l-103 -413h-316l-79 -316h-414l79 316h-316l103 413h316l79 315h414zM814 896l79 315h-332l-79 -315h-315l-83 -333h315l-78 -316h331l79 316h316l83 333h-316z" />
    <glyph glyph-name="comma" unicode="," horiz-adv-x="572" 
d="M0 392h414l-96 -384l-491 -310zM31 352l-141 -567l393 248l79 319h-331z" />
    <glyph glyph-name="hyphenminus" unicode="-" horiz-adv-x="1204" 
d="M135 936h1046l-103 -413h-1046zM167 896l-83 -333h963l83 333h-963z" />
    <glyph glyph-name="hyphenminus" unicode="&#xad;" horiz-adv-x="1204" 
d="M135 936h1046l-103 -413h-1046zM167 896l-83 -333h963l83 333h-963z" />
    <glyph glyph-name="period" unicode="." horiz-adv-x="572" 
d="M0 392h414l-103 -412h-414zM31 352l-83 -332h332l82 332h-331z" />
    <glyph glyph-name="slash" unicode="/" horiz-adv-x="1484" 
d="M-120 -20l1231 1462h493l-1232 -1462h-492zM-34 20h388l1164 1382h-388z" />
    <glyph glyph-name="zero" unicode="0" 
d="M936 504h-402l103 414h402zM1274 1441q137 0 225.5 -87.5t88.5 -217.5q0 -47 -12 -95l-168 -671q-39 -160 -183 -275t-305 -115h-622q-137 0 -225 87.5t-88 217.5q0 47 12 95l167 671q40 160 184 275t305 115h621zM1192 996l-145 -581q-7 -33 -34 -48t-58 -15h-520
q-23 0 -39.5 17.5t-16.5 39.5q0 11 2 16l145 581q5 23 29.5 43t49.5 20h532q22 0 40 -17.5t18 -38.5q0 -9 -3 -17zM905 544l83 334h-320l-83 -334h320zM1274 1401h-621q-151 0 -282 -104.5t-169 -255.5l-167 -671q-10 -43 -10 -85q0 -118 74.5 -191.5t198.5 -73.5h622
q99 0 193.5 47.5t163 130.5t93.5 182l168 671q10 43 10 85q0 118 -74.5 191.5t-199.5 73.5zM1154 1006q0 2 0.5 4t0.5 3q0 16 -18 16h-532q-14 0 -25.5 -9.5t-15.5 -23.5l-145 -581v-6q0 -10 3 -13.5t13 -3.5h520q45 0 54 33z" />
    <glyph glyph-name="one" unicode="1" horiz-adv-x="745" 
d="M331 1029h-172l103 413h585l-364 -1462h-414zM382 1069l-262 -1049h332l344 1382h-503l-83 -333h172z" />
    <glyph glyph-name="two" unicode="2" 
d="M414 393h1000l-103 -413h-1414l138 552q39 158 181 271.5t299 113.5l580 1q35 0 46 37l21 87q1 3 1 8q0 7 -4 12q-6 7 -17 7h-974l93 373h1020q79 0 144 -31.5t106 -85.5q58 -77 58 -183q0 -47 -12 -95l-40 -158q-18 -77 -65.5 -148t-113.5 -124q-145 -113 -301 -113
h-579q-36 0 -46 -37zM362 353l32 124q6 26 31.5 46.5t52.5 20.5h579q146 0 275 105q130 105 167 250l40 158q10 41 10 85q0 94 -50 159q-75 101 -218 101h-988l-73 -293h922q31 0 49 -23q12 -15 12 -36q0 -10 -3 -18l-21 -87q-7 -28 -32 -47.5t-52 -19.5l-580 -1
q-147 0 -276 -103.5t-166 -251.5l-124 -502h1330l83 333h-1000z" />
    <glyph glyph-name="three" unicode="3" horiz-adv-x="1575" 
d="M1124 927q12 12 16 24l14 56q1 3 1 7q0 6 -3 10q-5 6 -15 6l-977 -1l103 413h1014q80 0 146.5 -31.5t107.5 -86.5q60 -79 60 -187q0 -48 -13 -96l-39 -145q-14 -61 -46 -116q-23 -41 -49 -73q10 -33 13 -74q0 -3 0.5 -9.5t0.5 -9.5q0 -44 -13 -98l-36 -145
q-19 -79 -68 -151t-116 -126q-144 -114 -305 -114h-1023l103 413h968q13 0 25 9q12 12 16 24l14 55v6q0 7 -3 11q-4 6 -14 6h-979l103 413l969 1q13 0 25 9zM1150 897q-22 -19 -51 -19l-937 -1l-83 -333h927q31 0 46 -22q11 -14 11 -35q0 -11 -2 -16l-14 -55q-4 -24 -28 -44
q-22 -19 -51 -19h-936l-83 -333h971q150 0 281 106q132 106 170 255l36 145q11 47 11 88q0 3 -0.5 8.5t-0.5 8.5q-3 43 -19 84q35 42 61 85q29 51 42 106l39 145q11 47 11 86q0 94 -52 163q-77 102 -222 102h-982l-83 -333l925 1q30 0 47 -22q11 -17 11 -34q0 -10 -3 -17
l-14 -56q-4 -24 -28 -44z" />
    <glyph glyph-name="four" unicode="4" 
d="M1121 877l141 565h415l-365 -1462h-415l121 484h-605q-79 0 -144 31.5t-106 85.5q-59 78 -59 183q0 49 13 95l144 583h415l-134 -536q-1 -4 -1 -9q0 -9 3 -13q6 -7 18 -7h559zM1153 837h-591q-32 0 -50 23q-11 16 -11 37q0 12 1 17l122 488h-331l-138 -553
q-11 -47 -11 -85q0 -93 51 -159q75 -101 218 -101h657l-121 -484h331l345 1382h-331z" />
    <glyph glyph-name="five" unicode="5" horiz-adv-x="1574" 
d="M545 917h605q134 0 221 -86.5t87 -214.5q0 -46 -12 -94l-39 -159q-39 -157 -180.5 -270.5t-299.5 -113.5l-1029 2l102 411h964q35 0 46 37l11 48q1 4 1 9q0 11 -4 14.5t-17 3.5l-973 1l233 936h1415l-103 -412h-1000zM493 877l48 192h1000l83 332h-1331l-213 -856l921 -1
q25 0 43 -17.5t18 -40.5q0 -10 -3 -19l-11 -48q-7 -27 -31.5 -47t-52.5 -20h-932l-82 -331l977 -2q147 0 276 103t166 251l39 159q10 41 10 84q0 116 -73.5 188.5t-194.5 72.5h-657z" />
    <glyph glyph-name="six" unicode="6" 
d="M441 353q-31 0 -50 23q-11 16 -11 37q0 11 2 16l28 117h592q24 0 42.5 -18t18.5 -42q0 -9 -3 -18l-12 -48q-6 -26 -31.5 -46.5t-52.5 -20.5h-523zM1573 1029h-964q-15 0 -28 -10q-14 -12 -18 -27l-18 -74h606q79 0 144 -31t106 -85q58 -77 58 -184q0 -46 -12 -94
l-40 -159q-18 -77 -66 -148.5t-114 -123.5q-143 -113 -300 -113h-635q-79 0 -144 31.5t-106 85.5q-59 78 -59 183q0 49 13 95l170 683q20 78 67.5 149t112.5 123q142 112 301 112q164 0 505 -0.5t524 -0.5zM441 393h523q36 0 46 37l12 48q0 2 0.5 4t0.5 4q0 11 -4.5 15.5
t-16.5 4.5h-560l-22 -85v-8q0 -9 3 -13q7 -7 18 -7zM1541 1069l83 332q-151 0 -479 0.5t-498 0.5q-149 0 -275 -104q-131 -104 -168 -250l-170 -683q-11 -47 -11 -85q0 -93 51 -159q75 -101 218 -101h635q146 0 276 105q129 103 166 250l40 159q10 41 10 84q0 93 -50 160
q-76 100 -218 100h-658l32 124q8 30 30 47q23 20 54 20h932z" />
    <glyph glyph-name="seven" unicode="7" 
d="M663 -20h-414l138 552q18 77 66 148.5t113 123.5q141 111 301 113h227q38 2 47 38l12 46q0 2 0.5 4t0.5 3q0 21 -22 21h-974l103 413h1020q134 0 221 -86t87 -214q0 -47 -12 -95l-39 -158q-20 -78 -67.5 -149t-112.5 -123q-143 -113 -301 -113h-227q-36 0 -46 -37z
M631 20l115 457q6 26 31.5 46.5t52.5 20.5h227q148 0 275 105q131 104 168 250l39 158q10 43 10 85q0 116 -73 188t-195 72h-988l-83 -333h922q25 0 43.5 -18.5t18.5 -42.5q0 -8 -3 -17l-12 -46q-6 -27 -31.5 -47t-53.5 -21h-227q-150 -2 -275 -105q-130 -103 -167 -250
l-124 -502h330z" />
    <glyph glyph-name="eight" unicode="8" 
d="M512 951l14 55q6 25 30 44t49 19h532q23 0 40 -17t17 -40q0 -10 -2 -16l-14 -55q-6 -25 -30 -44t-49 -19h-532q-23 0 -40 17t-17 40q0 10 2 16zM474 544h532q23 0 40 -17t17 -40q0 -10 -2 -16l-14 -55q-6 -25 -30 -44t-49 -19h-532q-23 0 -40 17t-17 40q0 10 2 16l14 55
q6 25 30 44t49 19zM298 -20q-80 0 -146.5 31.5t-107.5 86.5q-59 78 -59 187q0 47 12 96l37 145q24 105 95 189q-13 43 -13 96q0 47 12 95l36 145q19 79 68 151t116 126q144 114 305 114h622q80 0 146.5 -31.5t107.5 -86.5q59 -78 59 -187q0 -47 -12 -96l-37 -145
q-24 -105 -95 -189q13 -43 13 -96q0 -47 -12 -95l-36 -145q-19 -79 -68 -151t-116 -126q-144 -114 -305 -114h-622zM550 941v-6q0 -10 3.5 -13.5t13.5 -3.5h532q32 0 41 33l14 55v6q0 10 -3.5 13.5t-13.5 3.5h-532q-32 0 -41 -33zM474 504q-32 0 -41 -33l-14 -55v-6
q0 -10 3.5 -13.5t13.5 -3.5h532q32 0 41 33l14 55v6q0 10 -3.5 13.5t-13.5 3.5h-532zM298 20h622q150 0 281 106q132 106 170 255l36 145q10 41 10 85q0 50 -19 104q79 93 103 191l37 145q10 43 10 86q0 95 -51 163q-77 102 -222 102h-622q-150 0 -281 -106
q-132 -106 -170 -255l-36 -145q-10 -41 -10 -85q0 -50 19 -104q-79 -93 -103 -191l-37 -145q-10 -43 -10 -86q0 -95 51 -163q76 -102 222 -102z" />
    <glyph glyph-name="nine" unicode="9" 
d="M1132 1070q33 0 50 -24q11 -14 11 -36q0 -12 -1 -17l-29 -116h-592q-25 0 -43 18.5t-18 41.5q0 9 3 18l12 47q6 26 31.5 47t52.5 21h523zM0 394q168 0 488 -0.5t476 -0.5q36 0 46 37l18 75h-606q-135 0 -221.5 85.5t-86.5 213.5q0 41 13 95l39 159q39 157 181 270.5
t300 113.5h634q79 0 144.5 -31t105.5 -85q59 -78 59 -183q0 -49 -13 -95l-170 -683q-39 -158 -181 -271.5t-299 -113.5q-335 1 -1030 1zM1132 1030h-523q-36 0 -46 -38l-12 -47q0 -1 -0.5 -4t-0.5 -4q0 -11 4.5 -15.5t16.5 -4.5h560l21 84q1 4 1 9q0 8 -3 12q-5 8 -18 8z
M32 354l-83 -333q643 0 978 -1q147 0 276 103.5t166 251.5l170 683q11 47 11 85q0 91 -51 159q-75 100 -218 100h-634q-148 0 -277 -103t-166 -251l-39 -159q-11 -47 -11 -85q0 -115 73 -187t195 -72h658l-32 -125q-6 -26 -31.5 -46.5t-52.5 -20.5q-160 0 -472 0.5t-460 0.5
z" />
    <glyph glyph-name="colon" unicode=":" horiz-adv-x="572" 
d="M189 1151h414l-103 -412h-414zM82 719h413l-103 -412h-413zM220 1111l-82 -332h331l83 332h-332zM113 679l-83 -332h331l83 332h-331z" />
    <glyph glyph-name="semicolon" unicode=";" horiz-adv-x="572" 
d="M0 392h414l-96 -384l-491 -310zM195 1173h413l-103 -413h-413zM31 352l-141 -567l393 248l79 319h-331zM226 1133l-83 -333h331l83 333h-331z" />
    <glyph glyph-name="less" unicode="&#x3c;" horiz-adv-x="1192" 
d="M677 727l392 -189l-113 -456l-751 362q-77 38 -111 117q-18 49 -18 98q0 39 10 75q22 93 92 168q71 79 162 114l940 365l-116 -465zM1016 519l-439 212l553 215l92 369l-868 -337q-85 -33 -146 -102q-63 -67 -84 -152q-8 -31 -8 -65q0 -46 16 -82q26 -67 91 -97l707 -340
l93 376z" />
    <glyph glyph-name="equal" unicode="=" horiz-adv-x="1204" 
d="M1133 742h-1046l103 413h1046zM1023 303h-1045l103 413h1045zM1101 782l83 333h-963l-83 -333h963zM992 343l83 333h-963l-83 -333h963z" />
    <glyph glyph-name="greater" unicode="&#x3e;" horiz-adv-x="1192" 
d="M74 556l450 175l-392 189l114 457l750 -362q79 -39 112 -118q18 -47 18 -97q0 -39 -10 -76q-22 -90 -92 -168q-71 -77 -163 -113l-940 -365l116 464zM88 518l-17 -6l-92 -368l868 337q86 34 147 101q61 69 84 152q8 37 8 66q0 45 -16 81q-26 67 -92 98l-706 340l-94 -377
l446 -215z" />
    <glyph glyph-name="question" unicode="?" 
d="M347 371h413l-97 -391h-414zM762 382h-413l43 169q18 77 65.5 148t113.5 124q142 112 301 112l227 1q36 0 46 37l7 28q1 4 1 9q0 19 -21 19h-974l103 413h1020q79 0 144 -31.5t106 -85.5q59 -78 59 -183q0 -49 -13 -95l-35 -139q-18 -78 -66 -149t-114 -124
q-142 -112 -300 -112h-227q-37 0 -46 -38zM378 331l-78 -311h331l78 311h-331zM732 422l19 73q6 27 31 47.5t53 20.5h227q147 0 276 104q129 103 166 251l35 139q11 47 11 85q0 91 -51 159q-75 101 -218 101h-988l-83 -333h922q24 0 42.5 -18t18.5 -41q0 -10 -3 -19l-7 -28
q-6 -26 -31 -46.5t-53 -20.5l-227 -1q-149 0 -275 -104q-130 -103 -167 -250l-29 -119h331z" />
    <glyph glyph-name="at" unicode="@" horiz-adv-x="1693" 
d="M938 641l35 140h-211q-8 0 -10 -8l-33 -132h219zM970 601h-253q-30 0 -38 38q0 2 2 10l33 134q18 38 48 38h261zM1400 20l59 240h-1163q-15 0 -27 12.5t-12 25.5q0 2 2 10l204 816q4 15 18.5 26.5t29.5 11.5h886q17 0 27.5 -11t10.5 -26l-2 -12l-118 -474
q-13 -38 -58 -38q-17 0 -27.5 11.5t-10.5 25.5l2 12l101 411h-528q-102 0 -193 -71t-119 -179l-52 -210q-7 -28 -7 -59q0 -79 50 -130t136 -51h165q60 0 121 32q27 11 77 54q29 -45 49 -56q42 -30 103 -30h112q102 0 191.5 71.5t120.5 178.5l137 551q7 28 7 59
q0 80 -51 130.5t-136 50.5h-963q-105 0 -193.5 -71t-118.5 -179l-222 -892q-7 -28 -7 -59q0 -80 51 -130.5t136 -50.5h1212zM1432 -20h-1244q-102 0 -164.5 63t-62.5 158q0 33 9 69l222 892q32 118 133 199t217 81h963q102 0 164.5 -63t62.5 -158q0 -33 -9 -69l-137 -551
q-34 -120 -134 -200t-216 -80h-112q-86 0 -160 66q-26 -20 -80.5 -43t-109.5 -23h-165q-101 0 -163.5 64t-62.5 157q0 33 9 69l52 210q32 118 132.5 199t217.5 81h580l-114 -460h7q3 0 5.5 2t3.5 4l1 2l117 473h-883q-8 0 -10 -8l-203 -814h1213z" />
    <glyph glyph-name="A" unicode="A" 
d="M1137 1069q17 0 27 -6q12 -4 19 -16q6 -6 11 -24v-8q0 -3 -0.5 -9t-0.5 -9l-98 -392h-670l101 401q4 24 28 44q22 19 51 19h532zM374 232l-63 -252h-414l268 1071q38 161 183 277q144 114 305 114h622q80 0 146.5 -31.5t107.5 -86.5q60 -79 60 -187q0 -48 -13 -96
l-264 -1061h-415l63 252h-586zM1137 1029h-532q-13 0 -25 -9q-12 -12 -16 -24l-87 -351h586l90 360q1 4 1 9v3q0 3 -3 6q-1 2 -5 4q-3 2 -9 2zM342 272h670l-63 -252h331l258 1031q11 47 11 86q0 94 -52 163q-77 102 -222 102h-622q-150 0 -281 -106q-132 -106 -169 -255
l-254 -1021h330z" />
    <glyph glyph-name="B" unicode="B" 
d="M1178 941q-6 -25 -30 -44t-49 -19h-606l48 191h596q23 0 40 -17.5t17 -39.5q0 -11 -2 -16zM261 1442h1014q80 0 146.5 -31.5t107.5 -86.5q59 -78 59 -187q0 -47 -12 -96l-37 -145q-14 -61 -46 -116q-23 -41 -49 -73q10 -33 13 -74q0 -3 0.5 -9.5t0.5 -9.5q0 -44 -13 -98
l-36 -145q-19 -79 -68 -151t-116 -126q-144 -114 -305 -114h-1023zM410 545l596 -1q24 0 40.5 -17t16.5 -39q0 -11 -2 -17l-14 -55q-6 -25 -30 -44t-49 -19h-606zM1140 951l14 55v6q0 10 -3.5 13.5t-13.5 3.5h-564l-28 -111h554q32 0 41 33zM293 1402l-344 -1382h971
q150 0 281 106q132 106 170 255l36 145q11 47 11 88q0 3 -0.5 8.5t-0.5 8.5q-3 43 -19 84q35 42 61 85q29 51 42 106l37 145q10 43 10 86q0 95 -51 163q-77 102 -222 102h-982zM442 505l-28 -112h554q32 0 41 33l14 55v7q0 10 -3.5 13t-13.5 3z" />
    <glyph glyph-name="C" unicode="C" 
d="M580 1019q-12 -10 -16 -23l-144 -579q-1 -4 -1 -9v-3q0 -3 3 -6q4 -4 6 -5q1 -1 8 -1h979l-103 -413h-1014q-137 0 -225 87.5t-88 217.5q0 47 12 96l167 670q40 160 184 275.5t305 115.5h1023l-103 -413h-968q-14 0 -25 -10zM554 1051q28 18 51 18h936l83 333h-971
q-151 0 -282 -105t-169 -256l-167 -670q-10 -43 -10 -86q0 -118 74.5 -191.5t198.5 -73.5h982l83 333h-927q-11 0 -26 5q-17 12 -20 17q-6 6 -11 24v8q0 3 0.5 9t0.5 9l146 581q4 23 28 45z" />
    <glyph glyph-name="D" unicode="D" 
d="M1191 991l-143 -571q-6 -26 -31.5 -46.5t-52.5 -20.5h-602l179 716h592q25 0 43 -18.5t18 -41.5q0 -9 -3 -18zM927 -20h-1030l364 1462h1020q134 0 221 -86t87 -214q0 -47 -12 -95l-170 -683q-39 -158 -180.5 -271t-299.5 -113zM1153 1001q0 1 0.5 4t0.5 4
q0 11 -4.5 15.5t-16.5 4.5h-560l-159 -636h550q36 0 46 37zM927 20q148 0 276.5 103t165.5 251l170 683q10 43 10 85q0 116 -73 188t-195 72h-988l-344 -1382h978z" />
    <glyph glyph-name="E" unicode="E" 
d="M550 941v-6q0 -10 3.5 -13.5t13.5 -3.5h979l-103 -413q-651 0 -969 -1q-32 0 -41 -33l-14 -55v-6q0 -10 3.5 -13.5t13.5 -3.5h979l-103 -413h-1014q-137 0 -225 87.5t-88 217.5q0 47 12 96l37 145q24 105 95 189q-13 41 -13 95q0 48 12 96l36 145q19 79 68 151t116 126
q146 114 305 114h1023l-103 -413h-968q-31 0 -41 -33zM512 951l14 55q6 24 30 43.5t49 19.5h936l83 333h-971q-148 0 -281 -106q-132 -106 -170 -255l-36 -145q-10 -41 -10 -86q0 -49 19 -103q-79 -93 -103 -191l-37 -145q-10 -43 -10 -86q0 -118 74.5 -191.5t198.5 -73.5
h982l83 333h-927q-23 0 -40 17t-17 40q0 10 2 16l14 55q6 25 30 44t49 19q318 1 937 1l83 333h-927q-23 0 -40 17t-17 40q0 10 2 16z" />
    <glyph glyph-name="F" unicode="F" 
d="M550 941v-6q0 -10 3.5 -13.5t13.5 -3.5h979l-103 -413l-969 -1q-32 0 -41 -33l-122 -491h-414l137 546q24 105 95 189q-13 43 -13 96q0 47 12 95l37 145q38 161 183 277q144 114 305 114h1023l-103 -413h-968q-32 0 -41 -33zM512 951l14 55q6 25 30 44t49 19h936l83 333
h-971q-150 0 -281 -106q-132 -106 -169 -255l-37 -145q-10 -41 -10 -85q0 -50 19 -104q-79 -93 -103 -191l-123 -496h330l116 461q6 25 30 44t49 19l937 1l83 333h-927q-23 0 -40 17t-17 40q0 10 2 16z" />
    <glyph glyph-name="G" unicode="G" 
d="M566 1002l-145 -580q0 -2 -0.5 -4t-0.5 -3q0 -10 3.5 -13t14.5 -3h563l23 88q0 2 0.5 4t0.5 3q0 10 -3.5 13t-14.5 3h-485l103 413h520q137 0 225.5 -87.5t88.5 -217.5q0 -48 -13 -96l-133 -536h-1013q-137 0 -225.5 87t-88.5 217q0 49 13 97l167 670q40 160 183.5 275.5
t304.5 115.5h1005l-103 -413h-949q-33 0 -41 -33zM528 1012q5 25 29 44t50 19h917l83 333h-953q-150 0 -281 -105t-169 -256l-167 -670q-11 -47 -11 -87q0 -117 74.5 -190.5t199.5 -73.5h981l127 506q11 47 11 86q0 118 -75 191.5t-199 73.5h-488l-83 -333h433
q23 0 40.5 -17t17.5 -39q0 -10 -3 -17l-29 -118h-595q-23 0 -40.5 17t-17.5 39q0 9 3 17z" />
    <glyph glyph-name="H" unicode="H" 
d="M1131 918l131 524h414l-365 -1462h-413l130 524h-586l-131 -524h-414l365 1462h413l-130 -524h586zM1162 878h-668l130 524h-331l-345 -1382h332l131 524h668l-130 -524h331l345 1382h-332z" />
    <glyph glyph-name="I" unicode="I" horiz-adv-x="573" 
d="M-103 -20l365 1462h413l-364 -1462h-414zM-52 20h332l344 1382h-331z" />
    <glyph glyph-name="J" unicode="J" 
d="M1676 1442l-267 -1071q-20 -79 -68.5 -151.5t-114.5 -125.5q-144 -114 -306 -114h-1023l103 413h968q13 0 25 9q11 9 16 24l253 1016h414zM1625 1402h-332l-246 -986q-6 -26 -29 -45q-23 -18 -50 -18h-937l-83 -333h972q148 0 281 106q132 106 169 255z" />
    <glyph glyph-name="K" unicode="K" 
d="M-103 -20l364 1462h415l-131 -524h561q10 2 20 10q9 8 14 22l122 492h414l-131 -525q-19 -75 -44 -124q-29 -55 -56 -86q12 -32 12 -87v-7q0 -51 -18 -118l-127 -515h-415l126 502v6q0 7 -2 11q-4 5 -8 5h-571l-130 -524h-415zM-51 20h331l130 524h605q27 -3 40 -25
q8 -13 8 -31q0 -11 -2 -16l-112 -452h331l121 485q16 64 16 108v7q0 45 -18 95q42 49 66 96q25 52 42 116l117 475h-330l-116 -462q-4 -22 -26 -42q-20 -19 -44 -20h-615l131 524h-331z" />
    <glyph glyph-name="L" unicode="L" 
d="M261 1442h415l-257 -1026v-7q0 -6 3 -10q4 -6 14 -6h979l-103 -413h-1014q-80 0 -146.5 31.5t-107.5 86.5q-59 78 -59 187q0 47 12 96zM293 1402l-258 -1031q-10 -43 -10 -86q0 -95 51 -163q76 -102 222 -102h982l83 333h-927q-31 0 -46 22q-11 13 -11 34q0 11 2 17
l243 976h-331z" />
    <glyph glyph-name="M" unicode="M" horiz-adv-x="2272" 
d="M-103 -21l267 1071q19 79 68 151t116 126q144 114 305 114h188q80 0 146.5 -31.5t107.5 -86.5q59 -80 59 -185q0 -50 -13 -98l-92 -372q-1 -3 -1 -7q0 -5 3 -10q6 -6 15 -6h97q13 0 26 10q11 10 15 23l93 372q19 79 67.5 151t115.5 126q144 114 306 114h187
q80 0 147 -31.5t108 -86.5q59 -80 59 -185q0 -50 -13 -98l-263 -1061h-415l256 1026q1 3 1 7q0 5 -3 10q-5 6 -15 6h-97q-13 0 -25 -9q-12 -11 -16 -24l-93 -372q-40 -163 -183 -277q-144 -114 -306 -114h-187q-80 0 -146.5 31.5t-107.5 86.5q-60 79 -60 187q0 48 13 96
l93 372v7q0 6 -3 10q-5 6 -15 6h-97q-13 0 -25 -9q-12 -11 -16 -24l-253 -1016h-414zM-51 19h330l247 986q5 26 28 44q22 19 51 19h97q30 0 47 -22q11 -14 11 -34q0 -11 -2 -17l-93 -372q-11 -47 -11 -86q0 -94 52 -163q76 -102 222 -102h187q151 0 282 106q130 105 169 255
l93 372q5 26 28 44q22 19 51 19h97q30 0 47 -22q11 -17 11 -34q0 -10 -3 -17l-242 -976h331l257 1031q11 49 11 88q0 93 -51 161q-76 102 -223 102h-187q-152 0 -280 -106q-132 -105 -171 -255l-93 -372q-5 -26 -29 -45q-26 -18 -50 -18h-97q-29 0 -47 22q-11 17 -11 34
q0 9 3 17l92 372q11 49 11 88q0 93 -51 161q-77 102 -222 102h-188q-150 0 -281 -106q-132 -106 -170 -255z" />
    <glyph glyph-name="N" unicode="N" horiz-adv-x="1706" 
d="M-103 -20l267 1071q19 79 68 151t116 126q144 114 305 114h188q80 0 146.5 -31.5t107.5 -86.5q59 -78 59 -187q0 -47 -12 -96l-156 -625q-1 -3 -1 -8q0 -4 3 -9q5 -6 15 -6h97q13 0 26 10q11 8 15 23l253 1016h415l-268 -1071q-40 -163 -183 -277q-144 -114 -305 -114
h-188q-80 0 -146.5 31.5t-107.5 86.5q-60 79 -60 187q0 48 13 96l156 625v6q0 7 -3 11q-4 6 -14 6h-98q-14 0 -25 -10q-12 -10 -16 -23l-253 -1016h-414zM-51 20h330l247 986q4 23 28 45q28 18 51 18h98q28 0 46 -22q11 -14 11 -35q0 -11 -2 -16l-156 -625q-11 -47 -11 -86
q0 -94 52 -163q77 -102 222 -102h188q150 0 281 106q130 105 169 255l254 1021h-331l-247 -986q-5 -28 -29 -45q-21 -18 -50 -18h-97q-30 0 -47 22q-11 15 -11 33q0 10 3 18l156 625q10 43 10 86q0 95 -51 163q-77 102 -222 102h-188q-150 0 -281 -106q-132 -106 -170 -255z
" />
    <glyph glyph-name="O" unicode="O" 
d="M1275 1442q80 0 146.5 -31.5t107.5 -86.5q59 -78 59 -187q0 -47 -12 -96l-167 -670q-19 -79 -68 -151t-116 -126q-144 -114 -305 -114h-622q-80 0 -146.5 31.5t-107.5 86.5q-59 78 -59 187q0 47 12 96l167 670q19 79 68 151t116 126q144 114 305 114h622zM1192 996
l-145 -580q-4 -15 -11 -26q-3 -3 -8.5 -9.5t-8.5 -9.5q-5 -3 -24 -14q-12 -4 -27 -4h-532q-11 0 -26 5q-14 10 -20 17q-8 11 -11 24v8q0 3 0.5 9t0.5 9l146 581q4 24 28 44q22 19 51 19h532q31 0 46 -22q11 -14 11 -35q0 -11 -2 -16zM1275 1402h-622q-150 0 -281 -106
q-132 -106 -170 -255l-167 -670q-10 -43 -10 -86q0 -95 51 -163q76 -102 222 -102h622q150 0 281 106q132 106 170 255l167 670q10 43 10 86q0 95 -51 163q-77 102 -222 102zM1154 1006v6q0 7 -3 11q-4 6 -14 6h-532q-13 0 -25 -9q-12 -12 -16 -24l-144 -579q-1 -4 -1 -9v-3
q0 -3 3 -6q2 -4 6 -5q1 -1 8 -1h532q5 0 11 2q7 3 14 8q6 5 11 11q2 3 5 12z" />
    <glyph glyph-name="P" unicode="P" horiz-adv-x="1574" 
d="M1080 625q-24 -20 -53 -20h-602l116 464h592q31 0 49 -23q12 -17 12 -37q0 -9 -3 -18l-79 -318q-8 -30 -32 -48zM-103 -20l364 1462h1021q79 0 144 -31t106 -85q58 -77 58 -184q0 -47 -12 -95l-108 -430q-18 -77 -65.5 -148t-113.5 -124q-143 -113 -301 -113h-616
l-63 -252h-414zM1056 657q14 11 18 26l79 318q1 3 1 8q0 8 -4 13q-6 7 -17 7h-560l-96 -384h550q14 0 29 12zM-51 20h330l63 252h648q148 0 275 105q130 103 167 250l108 430q10 41 10 85q0 93 -50 160q-76 100 -218 100h-989z" />
    <glyph glyph-name="Q" unicode="Q" 
d="M970 399q6 0 13 3q6 2 15.5 11.5t12.5 19.5l144 579v7q0 8 -2 10q-3 6 -15 6h-532q-13 0 -25 -10t-16 -23l-144 -581q-1 -1 -1 -5q0 -8 3 -11l4 -3l2 -1q6 -2 9 -2h532zM970 359h-532q-12 0 -17.5 2.5t-7.5 2.5q-33 17 -33 52q0 6 3 17l144 579q9 27 30.5 45t48.5 18h532
q25 0 41 -16t16 -40q0 -5 -2 -17l-144 -581q-8 -26 -31 -44t-48 -18zM1232 -168l83 332l-11 1q-8 0 -43 21q84 99 111 201l167 670q11 46 11 85q0 111 -72.5 188t-201.5 77h-622q-149 0 -278 -103t-172 -257l-167 -670q-11 -46 -11 -85q0 -111 72.5 -188t201.5 -77h611
q31 -105 102.5 -150t162.5 -45h56zM1264 -208h-88q-112 0 -191 57.5t-104 137.5h-581q-140 0 -227 87.5t-87 217.5q0 47 13 95l167 670q34 123 120 217t209 142q78 31 159 31h622q146 0 230 -89.5t84 -215.5q0 -47 -13 -95l-167 -670q-21 -89 -84 -175l39 -6z" />
    <glyph glyph-name="R" unicode="R" horiz-adv-x="1574" 
d="M1082 627q-22 -20 -51 -22h-606l116 465h592q32 0 49 -24q12 -14 12 -36q0 -9 -3 -18l-79 -319q-8 -29 -30 -46zM898 -20l58 230v6q0 7 -2 10q-6 7 -11 7h-569l-62 -253h-415l364 1462h1021q79 0 144.5 -31t105.5 -85q58 -77 58 -184q0 -46 -12 -94l-108 -431
q-13 -54 -44 -114q-23 -40 -49 -70q10 -31 13 -73v-14q0 -54 -12 -101l-66 -265h-414zM1056 657q14 12 18 26l79 319q1 3 1 8q0 7 -4 12q-6 8 -17 8h-560l-96 -385h552q15 2 27 12zM950 20h330l60 235q10 46 10 91v12q-3 42 -17 83q38 47 57 82q30 53 42 104l108 431
q10 41 10 84q0 93 -50 160q-75 100 -218 100h-989l-344 -1382h331l62 253h603q27 -3 41 -23q10 -17 10 -34q0 -10 -2 -16z" />
    <glyph glyph-name="S" unicode="S" 
d="M1023 481v7q0 6 -3 10q-4 6 -14 6l-577 1q-80 0 -146.5 31.5t-107.5 86.5q-60 79 -60 187q0 48 13 96l37 146q19 78 67.5 150.5t115.5 125.5q144 114 305 114h1023l-103 -412h-968q-31 0 -41 -33l-14 -56v-7q0 -10 3.5 -13.5t13.5 -3.5h577q80 0 146.5 -31.5t107.5 -86.5
q60 -79 60 -187q0 -48 -13 -96l-36 -145q-20 -78 -68.5 -150.5t-115.5 -125.5q-144 -114 -305 -114h-1023l103 412h968q14 0 25 10q12 10 16 23zM1061 471l-14 -55q-4 -23 -28 -45q-28 -18 -51 -18h-936l-83 -332h971q150 0 281 106q133 107 170 254l36 145q11 47 11 86
q0 94 -52 163q-77 102 -222 102h-577q-23 0 -40 17.5t-17 39.5q0 11 2 17l14 56q6 24 30 43.5t49 19.5h936l83 332h-971q-150 0 -281 -106q-130 -105 -169 -254l-37 -146q-11 -47 -11 -86q0 -94 52 -163q77 -102 222 -102l577 -1q31 0 46 -22q11 -13 11 -34q0 -11 -2 -17z
" />
    <glyph glyph-name="T" unicode="T" horiz-adv-x="1574" 
d="M397 -20l257 1027v6q0 7 -3 11q-4 6 -14 6h-479l103 412h1416l-103 -412h-469q-12 0 -25 -10q-11 -10 -15 -23l-254 -1017h-414zM449 20h330l248 987q5 26 29 45q26 18 49 18h437l83 332h-1332l-83 -332h427q28 0 46 -22q11 -14 11 -35q0 -11 -2 -16z" />
    <glyph glyph-name="U" unicode="U" 
d="M973 411q7 0 12 3q15 5 22 17q4 4 7 13l252 1016h415l-268 -1071q-40 -163 -183 -277q-144 -114 -305 -114h-622q-80 0 -146.5 31.5t-107.5 86.5q-60 79 -60 187q0 48 13 96l264 1061h414l-256 -1026q0 -2 -0.5 -4t-0.5 -3q0 -10 3.5 -13t14.5 -3h532zM973 371h-532
q-23 0 -40.5 17t-17.5 39q0 10 3 17l242 976h-330l-258 -1031q-11 -47 -11 -86q0 -94 52 -163q77 -102 222 -102h622q150 0 281 106q130 105 169 255l254 1021h-331l-246 -986q-2 -9 -11 -25q-18 -25 -42 -33q-12 -5 -26 -5z" />
    <glyph glyph-name="V" unicode="V" horiz-adv-x="1524" 
d="M1628 1442l-365 -1462h-965q-80 0 -146.5 31.5t-107.5 86.5q-59 78 -59 187q0 47 12 96l264 1061h415l-257 -1026v-6q0 -10 3.5 -13.5t13.5 -3.5h515l262 1049h415zM1576 1402h-331l-262 -1049h-547q-23 0 -40 17t-17 40q0 10 2 16l243 976h-331l-258 -1031
q-10 -43 -10 -86q0 -95 51 -163q76 -102 222 -102h933z" />
    <glyph glyph-name="W" unicode="W" horiz-adv-x="2272" 
d="M261 1441h414l-256 -1025q-1 -3 -1 -8q0 -4 3 -9q5 -6 15 -6h97q13 0 26 9q12 10 16 23l92 372q19 79 68 151t116 126q144 114 305 114h188q80 0 146.5 -31.5t107.5 -86.5q59 -80 59 -185q0 -50 -13 -98l-92 -371v-7q0 -6 3 -10q4 -6 14 -6h98q13 0 24 9q13 10 17 24
l252 1015h415l-268 -1070q-19 -79 -67 -151t-115 -126q-145 -115 -306 -115h-188q-80 0 -146.5 31.5t-107.5 87.5q-60 79 -60 187q0 48 13 96l93 371v7q0 6 -3 10q-4 6 -14 6h-98q-14 0 -24 -10q-13 -9 -17 -23l-92 -371q-19 -79 -67.5 -151t-115.5 -126
q-145 -115 -306 -115h-188q-80 0 -146.5 31.5t-107.5 87.5q-60 79 -60 187q0 48 13 96zM293 1401l-258 -1030q-11 -47 -11 -86q0 -94 52 -163q76 -103 222 -103h188q151 0 280 107q132 105 171 255l92 371q9 29 29 45q21 18 50 18h98q31 0 46 -22q11 -13 11 -34
q0 -11 -2 -17l-93 -371q-11 -47 -11 -86q0 -94 52 -163q76 -103 222 -103h188q151 0 280 107q131 104 170 255l254 1020h-331l-246 -985q-8 -29 -29 -46q-22 -17 -50 -17h-98q-31 0 -46 22q-11 13 -11 34q0 11 2 17l92 371q11 49 11 88q0 93 -51 161q-76 102 -222 102h-188
q-150 0 -281 -106q-132 -106 -170 -255l-92 -372q-8 -28 -30 -45t-50 -17h-97q-30 0 -47 22q-11 15 -11 33q0 10 3 18l242 975h-330z" />
    <glyph glyph-name="X" unicode="X" 
d="M1099 918q4 0 14 2q4 1 10 6l11 11q1 3 3 7t3 7l121 491h415l-137 -546q-13 -56 -46 -116q-25 -46 -49 -73q10 -33 13 -74q0 -3 0.5 -9.5t0.5 -9.5q0 -43 -13 -98l-133 -536h-415l125 500q1 4 1 9v4q0 3 -3 6q0 1 -5 4q-1 1 -9 1h-532q-14 0 -24 -10q-13 -9 -17 -23
l-121 -491h-415l137 546q14 60 46 116q23 41 49 73q-10 30 -13 74q0 3 -0.5 9.5t-0.5 9.5q0 43 13 98l133 536h415l-126 -501v-7q0 -7 3 -11q4 -5 14 -5h532zM1099 878h-532q-30 0 -46 21q-11 14 -11 35q0 11 2 17l112 451h-331l-127 -506q-11 -49 -11 -88q0 -3 0.5 -8.5
t0.5 -8.5q3 -43 17 -84q-35 -44 -59 -85q-29 -52 -42 -106l-123 -496h331l115 461q9 29 29 45q21 18 50 18h532q12 0 27 -5q11 -6 19 -16q8 -11 11 -26v-7q0 -3 -0.5 -9t-0.5 -9l-113 -452h331l127 506q11 49 11 88q0 3 -0.5 8.5t-0.5 8.5q-3 41 -17 84q32 39 59 85
q31 58 42 106l123 496h-331l-115 -461q-2 -11 -10 -24q-7 -12 -19 -21q-12 -10 -24 -14t-26 -4z" />
    <glyph glyph-name="Y" unicode="Y" 
d="M1099 917q31 0 41 33l122 492h414l-137 -547q-40 -163 -183 -277q-145 -113 -305 -113l-109 -1l-131 -524h-414l130 524h-98q-80 0 -146.5 31.5t-107.5 86.5q-60 79 -60 187q0 48 13 96l133 537h415l-126 -502q0 -2 -0.5 -4t-0.5 -3q0 -16 18 -16h532zM1099 877h-532
q-23 0 -40.5 17t-17.5 39q0 9 3 17l112 452h-331l-127 -507q-11 -47 -11 -86q0 -94 52 -163q77 -102 222 -102h150l-130 -524h330l131 524l141 1q149 0 281 105q130 105 169 255l123 497h-330l-116 -462q-6 -24 -30 -43.5t-49 -19.5z" />
    <glyph glyph-name="Z" unicode="Z" 
d="M433 471l-13 -55q-1 -3 -1 -7q0 -5 3 -10q6 -6 15 -6h978l-103 -412h-1013q-80 0 -146.5 31.5t-108.5 86.5q-59 80 -59 185q0 49 13 97l36 145q40 163 183 277q144 114 305 114h577q14 0 24 10q13 10 17 24l14 56v6q0 7 -3 11q-4 6 -14 6h-979l103 412h1014
q80 0 146.5 -31.5t107.5 -86.5q60 -79 60 -187q0 -49 -13 -95l-37 -146q-38 -161 -183 -277q-145 -115 -325 -115v1h-557q-13 0 -24 -11q-13 -9 -17 -23zM395 481q9 29 29 45q22 19 50 19h597v-1q60 0 129.5 28.5t131.5 78.5q132 106 169 255l37 146q11 47 11 85
q0 94 -52 163q-77 102 -222 102h-982l-83 -332h927q28 0 46 -22q11 -14 11 -35q0 -11 -2 -16l-14 -56q-4 -25 -29 -46q-26 -18 -50 -18h-577q-150 0 -281 -106q-130 -105 -169 -255l-36 -145q-11 -47 -11 -87q0 -93 51 -161q78 -102 223 -102h981l83 332h-926q-29 0 -47 22
q-11 17 -11 34q0 9 3 17z" />
    <glyph glyph-name="bracketleft" unicode="[" horiz-adv-x="874" 
d="M611 -27l-103 -413h-716l574 2302h715l-103 -413h-301l-368 -1476h302zM559 -67h-301l388 1556h301l83 333h-632l-554 -2222h632z" />
    <glyph glyph-name="backslash" unicode="\" horiz-adv-x="1484" 
d="M1235 -20h-483l-503 1462h483zM1178 20l-475 1382h-398l475 -1382h398z" />
    <glyph glyph-name="bracketright" unicode="]" horiz-adv-x="874" 
d="M-105 -27h302l367 1476h-301l103 413h715l-573 -2302h-716zM-73 -67l-83 -333h632l554 2222h-632l-83 -333h301l-388 -1556h-301z" />
    <glyph glyph-name="asciicircum" unicode="^" horiz-adv-x="1087" 
d="M598 920l-92 -105h-415l344 466q48 72 127 117q77 44 159 44q83 0 140 -46q59 -46 73 -123l110 -458h-405zM612 996l54 -141h327l-98 410q-12 63 -58 100q-48 37 -116 37q-69 0 -139 -39q-68 -39 -115 -105l-296 -403h317z" />
    <glyph glyph-name="underscore" unicode="_" horiz-adv-x="1570" 
d="M0 393h1411l-103 -413h-1411zM31 353l-83 -333h1329l83 333h-1329z" />
    <glyph glyph-name="a" unicode="a" 
d="M1137 1069q17 0 27 -6q12 -4 19 -16q6 -6 11 -24v-8q0 -3 -0.5 -9t-0.5 -9l-98 -392h-670l101 401q4 24 28 44q22 19 51 19h532zM374 232l-63 -252h-414l268 1071q38 161 183 277q144 114 305 114h622q80 0 146.5 -31.5t107.5 -86.5q60 -79 60 -187q0 -48 -13 -96
l-264 -1061h-415l63 252h-586zM1137 1029h-532q-13 0 -25 -9q-12 -12 -16 -24l-87 -351h586l90 360q1 4 1 9v3q0 3 -3 6q-1 2 -5 4q-3 2 -9 2zM342 272h670l-63 -252h331l258 1031q11 47 11 86q0 94 -52 163q-77 102 -222 102h-622q-150 0 -281 -106q-132 -106 -169 -255
l-254 -1021h330z" />
    <glyph glyph-name="b" unicode="b" 
d="M1178 941q-6 -25 -30 -44t-49 -19h-606l48 191h596q23 0 40 -17.5t17 -39.5q0 -11 -2 -16zM261 1442h1014q80 0 146.5 -31.5t107.5 -86.5q59 -78 59 -187q0 -47 -12 -96l-37 -145q-14 -61 -46 -116q-23 -41 -49 -73q10 -33 13 -74q0 -3 0.5 -9.5t0.5 -9.5q0 -44 -13 -98
l-36 -145q-19 -79 -68 -151t-116 -126q-144 -114 -305 -114h-1023zM410 545l596 -1q24 0 40.5 -17t16.5 -39q0 -11 -2 -17l-14 -55q-6 -25 -30 -44t-49 -19h-606zM1140 951l14 55v6q0 10 -3.5 13.5t-13.5 3.5h-564l-28 -111h554q32 0 41 33zM293 1402l-344 -1382h971
q150 0 281 106q132 106 170 255l36 145q11 47 11 88q0 3 -0.5 8.5t-0.5 8.5q-3 43 -19 84q35 42 61 85q29 51 42 106l37 145q10 43 10 86q0 95 -51 163q-77 102 -222 102h-982zM442 505l-28 -112h554q32 0 41 33l14 55v7q0 10 -3.5 13t-13.5 3z" />
    <glyph glyph-name="c" unicode="c" 
d="M580 1019q-12 -10 -16 -23l-144 -579q-1 -4 -1 -9v-3q0 -3 3 -6q4 -4 6 -5q1 -1 8 -1h979l-103 -413h-1014q-137 0 -225 87.5t-88 217.5q0 47 12 96l167 670q40 160 184 275.5t305 115.5h1023l-103 -413h-968q-14 0 -25 -10zM554 1051q28 18 51 18h936l83 333h-971
q-151 0 -282 -105t-169 -256l-167 -670q-10 -43 -10 -86q0 -118 74.5 -191.5t198.5 -73.5h982l83 333h-927q-11 0 -26 5q-17 12 -20 17q-6 6 -11 24v8q0 3 0.5 9t0.5 9l146 581q4 23 28 45z" />
    <glyph glyph-name="d" unicode="d" 
d="M1191 991l-143 -571q-6 -26 -31.5 -46.5t-52.5 -20.5h-602l179 716h592q25 0 43 -18.5t18 -41.5q0 -9 -3 -18zM927 -20h-1030l364 1462h1020q134 0 221 -86t87 -214q0 -47 -12 -95l-170 -683q-39 -158 -180.5 -271t-299.5 -113zM1153 1001q0 1 0.5 4t0.5 4
q0 11 -4.5 15.5t-16.5 4.5h-560l-159 -636h550q36 0 46 37zM927 20q148 0 276.5 103t165.5 251l170 683q10 43 10 85q0 116 -73 188t-195 72h-988l-344 -1382h978z" />
    <glyph glyph-name="e" unicode="e" 
d="M550 941v-6q0 -10 3.5 -13.5t13.5 -3.5h979l-103 -413q-651 0 -969 -1q-32 0 -41 -33l-14 -55v-6q0 -10 3.5 -13.5t13.5 -3.5h979l-103 -413h-1014q-137 0 -225 87.5t-88 217.5q0 47 12 96l37 145q24 105 95 189q-13 41 -13 95q0 48 12 96l36 145q19 79 68 151t116 126
q146 114 305 114h1023l-103 -413h-968q-31 0 -41 -33zM512 951l14 55q6 24 30 43.5t49 19.5h936l83 333h-971q-148 0 -281 -106q-132 -106 -170 -255l-36 -145q-10 -41 -10 -86q0 -49 19 -103q-79 -93 -103 -191l-37 -145q-10 -43 -10 -86q0 -118 74.5 -191.5t198.5 -73.5
h982l83 333h-927q-23 0 -40 17t-17 40q0 10 2 16l14 55q6 25 30 44t49 19q318 1 937 1l83 333h-927q-23 0 -40 17t-17 40q0 10 2 16z" />
    <glyph glyph-name="f" unicode="f" 
d="M550 941v-6q0 -10 3.5 -13.5t13.5 -3.5h979l-103 -413l-969 -1q-32 0 -41 -33l-122 -491h-414l137 546q24 105 95 189q-13 43 -13 96q0 47 12 95l37 145q38 161 183 277q144 114 305 114h1023l-103 -413h-968q-32 0 -41 -33zM512 951l14 55q6 25 30 44t49 19h936l83 333
h-971q-150 0 -281 -106q-132 -106 -169 -255l-37 -145q-10 -41 -10 -85q0 -50 19 -104q-79 -93 -103 -191l-123 -496h330l116 461q6 25 30 44t49 19l937 1l83 333h-927q-23 0 -40 17t-17 40q0 10 2 16z" />
    <glyph glyph-name="g" unicode="g" 
d="M566 1002l-145 -580q0 -2 -0.5 -4t-0.5 -3q0 -10 3.5 -13t14.5 -3h563l23 88q0 2 0.5 4t0.5 3q0 10 -3.5 13t-14.5 3h-485l103 413h520q137 0 225.5 -87.5t88.5 -217.5q0 -48 -13 -96l-133 -536h-1013q-137 0 -225.5 87t-88.5 217q0 49 13 97l167 670q40 160 183.5 275.5
t304.5 115.5h1005l-103 -413h-949q-33 0 -41 -33zM528 1012q5 25 29 44t50 19h917l83 333h-953q-150 0 -281 -105t-169 -256l-167 -670q-11 -47 -11 -87q0 -117 74.5 -190.5t199.5 -73.5h981l127 506q11 47 11 86q0 118 -75 191.5t-199 73.5h-488l-83 -333h433
q23 0 40.5 -17t17.5 -39q0 -10 -3 -17l-29 -118h-595q-23 0 -40.5 17t-17.5 39q0 9 3 17z" />
    <glyph glyph-name="h" unicode="h" 
d="M1131 918l131 524h414l-365 -1462h-413l130 524h-586l-131 -524h-414l365 1462h413l-130 -524h586zM1162 878h-668l130 524h-331l-345 -1382h332l131 524h668l-130 -524h331l345 1382h-332z" />
    <glyph glyph-name="i" unicode="i" horiz-adv-x="573" 
d="M-103 -20l365 1462h413l-364 -1462h-414zM-52 20h332l344 1382h-331z" />
    <glyph glyph-name="j" unicode="j" 
d="M1676 1442l-267 -1071q-20 -79 -68.5 -151.5t-114.5 -125.5q-144 -114 -306 -114h-1023l103 413h968q13 0 25 9q11 9 16 24l253 1016h414zM1625 1402h-332l-246 -986q-6 -26 -29 -45q-23 -18 -50 -18h-937l-83 -333h972q148 0 281 106q132 106 169 255z" />
    <glyph glyph-name="k" unicode="k" 
d="M-103 -20l364 1462h415l-131 -524h561q10 2 20 10q9 8 14 22l122 492h414l-131 -525q-19 -75 -44 -124q-29 -55 -56 -86q12 -32 12 -87v-7q0 -51 -18 -118l-127 -515h-415l126 502v6q0 7 -2 11q-4 5 -8 5h-571l-130 -524h-415zM-51 20h331l130 524h605q27 -3 40 -25
q8 -13 8 -31q0 -11 -2 -16l-112 -452h331l121 485q16 64 16 108v7q0 45 -18 95q42 49 66 96q25 52 42 116l117 475h-330l-116 -462q-4 -22 -26 -42q-20 -19 -44 -20h-615l131 524h-331z" />
    <glyph glyph-name="l" unicode="l" 
d="M261 1442h415l-257 -1026v-7q0 -6 3 -10q4 -6 14 -6h979l-103 -413h-1014q-80 0 -146.5 31.5t-107.5 86.5q-59 78 -59 187q0 47 12 96zM293 1402l-258 -1031q-10 -43 -10 -86q0 -95 51 -163q76 -102 222 -102h982l83 333h-927q-31 0 -46 22q-11 13 -11 34q0 11 2 17
l243 976h-331z" />
    <glyph glyph-name="m" unicode="m" horiz-adv-x="2272" 
d="M-103 -21l267 1071q19 79 68 151t116 126q144 114 305 114h188q80 0 146.5 -31.5t107.5 -86.5q59 -80 59 -185q0 -50 -13 -98l-92 -372q-1 -3 -1 -7q0 -5 3 -10q6 -6 15 -6h97q13 0 26 10q11 10 15 23l93 372q19 79 67.5 151t115.5 126q144 114 306 114h187
q80 0 147 -31.5t108 -86.5q59 -80 59 -185q0 -50 -13 -98l-263 -1061h-415l256 1026q1 3 1 7q0 5 -3 10q-5 6 -15 6h-97q-13 0 -25 -9q-12 -11 -16 -24l-93 -372q-40 -163 -183 -277q-144 -114 -306 -114h-187q-80 0 -146.5 31.5t-107.5 86.5q-60 79 -60 187q0 48 13 96
l93 372v7q0 6 -3 10q-5 6 -15 6h-97q-13 0 -25 -9q-12 -11 -16 -24l-253 -1016h-414zM-51 19h330l247 986q5 26 28 44q22 19 51 19h97q30 0 47 -22q11 -14 11 -34q0 -11 -2 -17l-93 -372q-11 -47 -11 -86q0 -94 52 -163q76 -102 222 -102h187q151 0 282 106q130 105 169 255
l93 372q5 26 28 44q22 19 51 19h97q30 0 47 -22q11 -17 11 -34q0 -10 -3 -17l-242 -976h331l257 1031q11 49 11 88q0 93 -51 161q-76 102 -223 102h-187q-152 0 -280 -106q-132 -105 -171 -255l-93 -372q-5 -26 -29 -45q-26 -18 -50 -18h-97q-29 0 -47 22q-11 17 -11 34
q0 9 3 17l92 372q11 49 11 88q0 93 -51 161q-77 102 -222 102h-188q-150 0 -281 -106q-132 -106 -170 -255z" />
    <glyph glyph-name="n" unicode="n" horiz-adv-x="1706" 
d="M-103 -20l267 1071q19 79 68 151t116 126q144 114 305 114h188q80 0 146.5 -31.5t107.5 -86.5q59 -78 59 -187q0 -47 -12 -96l-156 -625q-1 -3 -1 -8q0 -4 3 -9q5 -6 15 -6h97q13 0 26 10q11 8 15 23l253 1016h415l-268 -1071q-40 -163 -183 -277q-144 -114 -305 -114
h-188q-80 0 -146.5 31.5t-107.5 86.5q-60 79 -60 187q0 48 13 96l156 625v6q0 7 -3 11q-4 6 -14 6h-98q-14 0 -25 -10q-12 -10 -16 -23l-253 -1016h-414zM-51 20h330l247 986q4 23 28 45q28 18 51 18h98q28 0 46 -22q11 -14 11 -35q0 -11 -2 -16l-156 -625q-11 -47 -11 -86
q0 -94 52 -163q77 -102 222 -102h188q150 0 281 106q130 105 169 255l254 1021h-331l-247 -986q-5 -28 -29 -45q-21 -18 -50 -18h-97q-30 0 -47 22q-11 15 -11 33q0 10 3 18l156 625q10 43 10 86q0 95 -51 163q-77 102 -222 102h-188q-150 0 -281 -106q-132 -106 -170 -255z
" />
    <glyph glyph-name="o" unicode="o" 
d="M1275 1442q80 0 146.5 -31.5t107.5 -86.5q59 -78 59 -187q0 -47 -12 -96l-167 -670q-19 -79 -68 -151t-116 -126q-144 -114 -305 -114h-622q-80 0 -146.5 31.5t-107.5 86.5q-59 78 -59 187q0 47 12 96l167 670q19 79 68 151t116 126q144 114 305 114h622zM1192 996
l-145 -580q-4 -15 -11 -26q-3 -3 -8.5 -9.5t-8.5 -9.5q-5 -3 -24 -14q-12 -4 -27 -4h-532q-11 0 -26 5q-14 10 -20 17q-8 11 -11 24v8q0 3 0.5 9t0.5 9l146 581q4 24 28 44q22 19 51 19h532q31 0 46 -22q11 -14 11 -35q0 -11 -2 -16zM1275 1402h-622q-150 0 -281 -106
q-132 -106 -170 -255l-167 -670q-10 -43 -10 -86q0 -95 51 -163q76 -102 222 -102h622q150 0 281 106q132 106 170 255l167 670q10 43 10 86q0 95 -51 163q-77 102 -222 102zM1154 1006v6q0 7 -3 11q-4 6 -14 6h-532q-13 0 -25 -9q-12 -12 -16 -24l-144 -579q-1 -4 -1 -9v-3
q0 -3 3 -6q2 -4 6 -5q1 -1 8 -1h532q5 0 11 2q7 3 14 8q6 5 11 11q2 3 5 12z" />
    <glyph glyph-name="p" unicode="p" horiz-adv-x="1574" 
d="M1080 625q-24 -20 -53 -20h-602l116 464h592q31 0 49 -23q12 -17 12 -37q0 -9 -3 -18l-79 -318q-8 -30 -32 -48zM-103 -20l364 1462h1021q79 0 144 -31t106 -85q58 -77 58 -184q0 -47 -12 -95l-108 -430q-18 -77 -65.5 -148t-113.5 -124q-143 -113 -301 -113h-616
l-63 -252h-414zM1056 657q14 11 18 26l79 318q1 3 1 8q0 8 -4 13q-6 7 -17 7h-560l-96 -384h550q14 0 29 12zM-51 20h330l63 252h648q148 0 275 105q130 103 167 250l108 430q10 41 10 85q0 93 -50 160q-76 100 -218 100h-989z" />
    <glyph glyph-name="q" unicode="q" 
d="M970 399q6 0 13 3q6 2 15.5 11.5t12.5 19.5l144 579v7q0 8 -2 10q-3 6 -15 6h-532q-13 0 -25 -10t-16 -23l-144 -581q-1 -1 -1 -5q0 -8 3 -11l4 -3l2 -1q6 -2 9 -2h532zM970 359h-532q-12 0 -17.5 2.5t-7.5 2.5q-33 17 -33 52q0 6 3 17l144 579q9 27 30.5 45t48.5 18h532
q25 0 41 -16t16 -40q0 -5 -2 -17l-144 -581q-8 -26 -31 -44t-48 -18zM1232 -168l83 332l-11 1q-8 0 -43 21q84 99 111 201l167 670q11 46 11 85q0 111 -72.5 188t-201.5 77h-622q-149 0 -278 -103t-172 -257l-167 -670q-11 -46 -11 -85q0 -111 72.5 -188t201.5 -77h611
q31 -105 102.5 -150t162.5 -45h56zM1264 -208h-88q-112 0 -191 57.5t-104 137.5h-581q-140 0 -227 87.5t-87 217.5q0 47 13 95l167 670q34 123 120 217t209 142q78 31 159 31h622q146 0 230 -89.5t84 -215.5q0 -47 -13 -95l-167 -670q-21 -89 -84 -175l39 -6z" />
    <glyph glyph-name="r" unicode="r" horiz-adv-x="1574" 
d="M1082 627q-22 -20 -51 -22h-606l116 465h592q32 0 49 -24q12 -14 12 -36q0 -9 -3 -18l-79 -319q-8 -29 -30 -46zM898 -20l58 230v6q0 7 -2 10q-6 7 -11 7h-569l-62 -253h-415l364 1462h1021q79 0 144.5 -31t105.5 -85q58 -77 58 -184q0 -46 -12 -94l-108 -431
q-13 -54 -44 -114q-23 -40 -49 -70q10 -31 13 -73v-14q0 -54 -12 -101l-66 -265h-414zM1056 657q14 12 18 26l79 319q1 3 1 8q0 7 -4 12q-6 8 -17 8h-560l-96 -385h552q15 2 27 12zM950 20h330l60 235q10 46 10 91v12q-3 42 -17 83q38 47 57 82q30 53 42 104l108 431
q10 41 10 84q0 93 -50 160q-75 100 -218 100h-989l-344 -1382h331l62 253h603q27 -3 41 -23q10 -17 10 -34q0 -10 -2 -16z" />
    <glyph glyph-name="s" unicode="s" 
d="M1023 481v7q0 6 -3 10q-4 6 -14 6l-577 1q-80 0 -146.5 31.5t-107.5 86.5q-60 79 -60 187q0 48 13 96l37 146q19 78 67.5 150.5t115.5 125.5q144 114 305 114h1023l-103 -412h-968q-31 0 -41 -33l-14 -56v-7q0 -10 3.5 -13.5t13.5 -3.5h577q80 0 146.5 -31.5t107.5 -86.5
q60 -79 60 -187q0 -48 -13 -96l-36 -145q-20 -78 -68.5 -150.5t-115.5 -125.5q-144 -114 -305 -114h-1023l103 412h968q14 0 25 10q12 10 16 23zM1061 471l-14 -55q-4 -23 -28 -45q-28 -18 -51 -18h-936l-83 -332h971q150 0 281 106q133 107 170 254l36 145q11 47 11 86
q0 94 -52 163q-77 102 -222 102h-577q-23 0 -40 17.5t-17 39.5q0 11 2 17l14 56q6 24 30 43.5t49 19.5h936l83 332h-971q-150 0 -281 -106q-130 -105 -169 -254l-37 -146q-11 -47 -11 -86q0 -94 52 -163q77 -102 222 -102l577 -1q31 0 46 -22q11 -13 11 -34q0 -11 -2 -17z
" />
    <glyph glyph-name="t" unicode="t" horiz-adv-x="1574" 
d="M397 -20l257 1027v6q0 7 -3 11q-4 6 -14 6h-479l103 412h1416l-103 -412h-469q-12 0 -25 -10q-11 -10 -15 -23l-254 -1017h-414zM449 20h330l248 987q5 26 29 45q26 18 49 18h437l83 332h-1332l-83 -332h427q28 0 46 -22q11 -14 11 -35q0 -11 -2 -16z" />
    <glyph glyph-name="u" unicode="u" 
d="M973 411q7 0 12 3q15 5 22 17q4 4 7 13l252 1016h415l-268 -1071q-40 -163 -183 -277q-144 -114 -305 -114h-622q-80 0 -146.5 31.5t-107.5 86.5q-60 79 -60 187q0 48 13 96l264 1061h414l-256 -1026q0 -2 -0.5 -4t-0.5 -3q0 -10 3.5 -13t14.5 -3h532zM973 371h-532
q-23 0 -40.5 17t-17.5 39q0 10 3 17l242 976h-330l-258 -1031q-11 -47 -11 -86q0 -94 52 -163q77 -102 222 -102h622q150 0 281 106q130 105 169 255l254 1021h-331l-246 -986q-2 -9 -11 -25q-18 -25 -42 -33q-12 -5 -26 -5z" />
    <glyph glyph-name="v" unicode="v" horiz-adv-x="1524" 
d="M1628 1442l-365 -1462h-965q-80 0 -146.5 31.5t-107.5 86.5q-59 78 -59 187q0 47 12 96l264 1061h415l-257 -1026v-6q0 -10 3.5 -13.5t13.5 -3.5h515l262 1049h415zM1576 1402h-331l-262 -1049h-547q-23 0 -40 17t-17 40q0 10 2 16l243 976h-331l-258 -1031
q-10 -43 -10 -86q0 -95 51 -163q76 -102 222 -102h933z" />
    <glyph glyph-name="w" unicode="w" horiz-adv-x="2272" 
d="M261 1441h414l-256 -1025q-1 -3 -1 -8q0 -4 3 -9q5 -6 15 -6h97q13 0 26 9q12 10 16 23l92 372q19 79 68 151t116 126q144 114 305 114h188q80 0 146.5 -31.5t107.5 -86.5q59 -80 59 -185q0 -50 -13 -98l-92 -371v-7q0 -6 3 -10q4 -6 14 -6h98q13 0 24 9q13 10 17 24
l252 1015h415l-268 -1070q-19 -79 -67 -151t-115 -126q-145 -115 -306 -115h-188q-80 0 -146.5 31.5t-107.5 87.5q-60 79 -60 187q0 48 13 96l93 371v7q0 6 -3 10q-4 6 -14 6h-98q-14 0 -24 -10q-13 -9 -17 -23l-92 -371q-19 -79 -67.5 -151t-115.5 -126
q-145 -115 -306 -115h-188q-80 0 -146.5 31.5t-107.5 87.5q-60 79 -60 187q0 48 13 96zM293 1401l-258 -1030q-11 -47 -11 -86q0 -94 52 -163q76 -103 222 -103h188q151 0 280 107q132 105 171 255l92 371q9 29 29 45q21 18 50 18h98q31 0 46 -22q11 -13 11 -34
q0 -11 -2 -17l-93 -371q-11 -47 -11 -86q0 -94 52 -163q76 -103 222 -103h188q151 0 280 107q131 104 170 255l254 1020h-331l-246 -985q-8 -29 -29 -46q-22 -17 -50 -17h-98q-31 0 -46 22q-11 13 -11 34q0 11 2 17l92 371q11 49 11 88q0 93 -51 161q-76 102 -222 102h-188
q-150 0 -281 -106q-132 -106 -170 -255l-92 -372q-8 -28 -30 -45t-50 -17h-97q-30 0 -47 22q-11 15 -11 33q0 10 3 18l242 975h-330z" />
    <glyph glyph-name="x" unicode="x" 
d="M1099 918q4 0 14 2q4 1 10 6l11 11q1 3 3 7t3 7l121 491h415l-137 -546q-13 -56 -46 -116q-25 -46 -49 -73q10 -33 13 -74q0 -3 0.5 -9.5t0.5 -9.5q0 -43 -13 -98l-133 -536h-415l125 500q1 4 1 9v4q0 3 -3 6q0 1 -5 4q-1 1 -9 1h-532q-14 0 -24 -10q-13 -9 -17 -23
l-121 -491h-415l137 546q14 60 46 116q23 41 49 73q-10 30 -13 74q0 3 -0.5 9.5t-0.5 9.5q0 43 13 98l133 536h415l-126 -501v-7q0 -7 3 -11q4 -5 14 -5h532zM1099 878h-532q-30 0 -46 21q-11 14 -11 35q0 11 2 17l112 451h-331l-127 -506q-11 -49 -11 -88q0 -3 0.5 -8.5
t0.5 -8.5q3 -43 17 -84q-35 -44 -59 -85q-29 -52 -42 -106l-123 -496h331l115 461q9 29 29 45q21 18 50 18h532q12 0 27 -5q11 -6 19 -16q8 -11 11 -26v-7q0 -3 -0.5 -9t-0.5 -9l-113 -452h331l127 506q11 49 11 88q0 3 -0.5 8.5t-0.5 8.5q-3 41 -17 84q32 39 59 85
q31 58 42 106l123 496h-331l-115 -461q-2 -11 -10 -24q-7 -12 -19 -21q-12 -10 -24 -14t-26 -4z" />
    <glyph glyph-name="y" unicode="y" 
d="M1099 917q31 0 41 33l122 492h414l-137 -547q-40 -163 -183 -277q-145 -113 -305 -113l-109 -1l-131 -524h-414l130 524h-98q-80 0 -146.5 31.5t-107.5 86.5q-60 79 -60 187q0 48 13 96l133 537h415l-126 -502q0 -2 -0.5 -4t-0.5 -3q0 -16 18 -16h532zM1099 877h-532
q-23 0 -40.5 17t-17.5 39q0 9 3 17l112 452h-331l-127 -507q-11 -47 -11 -86q0 -94 52 -163q77 -102 222 -102h150l-130 -524h330l131 524l141 1q149 0 281 105q130 105 169 255l123 497h-330l-116 -462q-6 -24 -30 -43.5t-49 -19.5z" />
    <glyph glyph-name="z" unicode="z" 
d="M433 471l-13 -55q-1 -3 -1 -7q0 -5 3 -10q6 -6 15 -6h978l-103 -412h-1013q-80 0 -146.5 31.5t-108.5 86.5q-59 80 -59 185q0 49 13 97l36 145q40 163 183 277q144 114 305 114h577q14 0 24 10q13 10 17 24l14 56v6q0 7 -3 11q-4 6 -14 6h-979l103 412h1014
q80 0 146.5 -31.5t107.5 -86.5q60 -79 60 -187q0 -49 -13 -95l-37 -146q-38 -161 -183 -277q-145 -115 -325 -115v1h-557q-13 0 -24 -11q-13 -9 -17 -23zM395 481q9 29 29 45q22 19 50 19h597v-1q60 0 129.5 28.5t131.5 78.5q132 106 169 255l37 146q11 47 11 85
q0 94 -52 163q-77 102 -222 102h-982l-83 -332h927q28 0 46 -22q11 -14 11 -35q0 -11 -2 -16l-14 -56q-4 -25 -29 -46q-26 -18 -50 -18h-577q-150 0 -281 -106q-130 -105 -169 -255l-36 -145q-11 -47 -11 -87q0 -93 51 -161q78 -102 223 -102h981l83 332h-926q-29 0 -47 22
q-11 17 -11 34q0 9 3 17z" />
    <glyph glyph-name="bar" unicode="|" horiz-adv-x="573" 
d="M-185 -350l529 2120h413l-528 -2120h-414zM-134 -310h332l508 2040h-331z" />
    <glyph glyph-name="asciitilde" unicode="~" horiz-adv-x="1234" 
d="M842 798l34 138h334l-46 -188q-32 -124 -139 -208q-107 -87 -230 -87q-122 1 -127 1q-95 6 -154 64q-58 56 -68 154h-31q-11 0 -14 -11l-34 -138h-335l47 188q15 59 51.5 113.5t86.5 94.5q109 86 231 86q121 0 127 -1q40 0 83 -18.5t71 -44.5q30 -29 44.5 -65t17.5 -61.5
t6 -28.5h30q12 0 15 12zM881 788q-5 -16 -21 -29t-33 -13h-30q-17 0 -28 11q-10 9 -16 37.5t-17.5 62t-34.5 55.5q-54 52 -127 52l-126 1q-108 0 -206 -77q-98 -78 -124 -187l-34 -138h251l27 107q5 17 21 29.5t32 12.5h30q15 0 28 -11.5t13 -26.5q7 -82 56 -127
q49 -49 128 -53l125 -1q107 0 206 78q96 79 124 187l34 138h-251z" />
    <glyph glyph-name="exclamdown" unicode="&#xa1;" horiz-adv-x="573" 
d="M252 -20l264 1059h414l-264 -1059h-414zM932 1050h-413l97 391h414zM303 20h331l245 979h-332zM901 1090l78 311h-332l-77 -311h331z" />
    <glyph glyph-name="brokenbar" unicode="&#xa6;" horiz-adv-x="573" 
d="M47 780l529 912h414l-529 -912h-414zM98 797h332l508 878h-331zM-214 -267l529 912h414l-529 -912h-414zM-163 -249h332l508 877h-331z" />
    <glyph glyph-name="dieresis" unicode="&#xa8;" horiz-adv-x="849" 
d="M552 1607l52 208h-208l-52 -208h208zM952 1607l52 208h-208l-52 -208h208zM583 1567h-290l72 288h290zM983 1567h-290l72 288h290z" />
    <glyph glyph-name="guillemetleft" unicode="&#xab;" horiz-adv-x="2195" 
d="M677 727l392 -189l-113 -456l-751 362q-77 38 -111 117q-18 49 -18 98q0 39 10 75q22 93 92 168q71 79 162 114l940 365l-116 -465zM1016 519l-439 212l553 215l92 369l-868 -337q-85 -33 -146 -102q-63 -67 -84 -152q-8 -31 -8 -65q0 -46 16 -82q26 -67 91 -97l707 -340
l93 376zM1680 727l392 -189l-113 -456l-751 362q-77 38 -111 117q-18 45 -18 98q0 37 9 75q23 94 93 168q68 78 162 114l940 365l-116 -465zM2019 519l-439 212l553 215l92 369l-868 -337q-84 -33 -146 -102q-63 -67 -84 -152q-8 -31 -8 -65q0 -45 15 -82q28 -67 92 -97
l706 -340l94 376z" />
    <glyph glyph-name="macron" unicode="&#xaf;" horiz-adv-x="949" 
d="M1052 1607l52 208h-708l-52 -208h708zM1083 1567h-790l72 288h790z" />
    <glyph glyph-name="plusminus" unicode="&#xb1;" horiz-adv-x="1204" 
d="M915 1136h316l-103 -413h-316l-79 -316h-414l79 316h-316l103 413h316l79 315h414zM864 1096l78 315h-331l-79 -315h-315l-83 -333h315l-78 -316h331l79 316h316l82 333h-315zM-5 372h1045l-103 -413h-1045zM26 332l-83 -333h963l83 333h-963z" />
    <glyph glyph-name="periodcentered" unicode="&#xb7;" horiz-adv-x="517" 
d="M161 921h352l-87 -351h-352zM188 887l-71 -283h282l70 283h-281z" />
    <glyph glyph-name="periodcentered" unicode="&#x2219;" horiz-adv-x="517" 
d="M161 921h352l-87 -351h-352zM188 887l-71 -283h282l70 283h-281z" />
    <glyph glyph-name="guillemetright" unicode="&#xbb;" horiz-adv-x="2195" 
d="M74 556l450 175l-392 189l114 457l750 -362q79 -39 112 -118q18 -47 18 -97q0 -39 -10 -76q-22 -90 -92 -168q-71 -77 -163 -113l-940 -365l116 464zM88 518l-17 -6l-92 -368l868 337q86 34 147 101q61 69 84 152q8 37 8 66q0 45 -16 81q-26 67 -92 98l-706 340l-94 -377
l446 -215zM1077 556l450 175l-392 189l113 457l751 -362q79 -39 111 -118q19 -46 19 -97q0 -33 -10 -76q-22 -90 -92 -168q-70 -76 -163 -113l-940 -365l116 464zM1091 518l-17 -6l-92 -368l868 337q86 34 147 101q62 70 83 152q9 35 9 66q0 45 -16 81q-26 67 -92 98
l-706 340l-94 -377l446 -215z" />
    <glyph glyph-name="questiondown" unicode="&#xbf;" 
d="M1581 1051h-414l98 391h414zM1165 1040h413l-42 -169q-39 -159 -180 -272q-65 -52 -143.5 -82t-156.5 -30l-227 -1q-17 0 -29.5 -10t-16.5 -27l-7 -28q-1 -4 -1 -9q0 -19 21 -19h973l-103 -413h-1019q-79 0 -144.5 31.5t-105.5 85.5q-59 78 -59 183q0 46 12 95l35 138
q19 78 66.5 149t113.5 124q141 113 301 113h227q37 0 45 37zM1550 1091l77 311h-331l-77 -311h331zM1196 1000l-19 -73q-7 -27 -32 -47.5t-52 -20.5h-227q-145 0 -276 -104q-130 -103 -166 -251l-35 -139q-11 -41 -11 -85q0 -91 51 -159q74 -101 218 -101h988l83 333h-922
q-25 0 -43 18t-18 41q0 7 2 19l7 27q7 27 32 47.5t53 20.5l227 1q147 0 275 103q130 103 166 250l30 120h-331z" />
    <glyph glyph-name="Acircumflex" unicode="&#xc2;" horiz-adv-x="1572" 
d="M1137 1069q17 0 27 -6q13 -5 18 -16q9 -7 11 -24l1 -8q0 -6 -2 -18l-98 -392h-669l100 401q6 25 29 44q22 19 51 19h532zM373 232l-63 -252h-413l267 1071q19 79 67.5 151t115.5 126q144 114 306 114h622q79 0 146 -31.5t108 -86.5q59 -80 59 -187q0 -47 -12 -96
l-265 -1061h-414l63 252h-587zM1137 1029h-532q-13 0 -25 -9q-13 -12 -16 -24l-88 -351h587l90 360q1 4 1 9v3q-1 3 -3 6q-3 3 -5 4q-3 2 -9 2zM342 272h669l-63 -252h332l257 1031q11 41 11 86q0 93 -51 163q-78 102 -222 102h-622q-150 0 -281 -106q-134 -106 -169 -255
l-255 -1021h331zM900 1530h-332l291 331q37 42 101.5 68t130.5 26q68 0 121.5 -27.5t70.5 -72.5l124 -325h-321l-57 147zM882 1570l161 183l70 -183h236l-103 270q-14 35 -55 55t-100 20q-61 0 -115 -21.5t-87 -59.5l-232 -264h225z" />
    <glyph glyph-name="Atilde" unicode="&#xc3;" horiz-adv-x="1572" 
d="M1137 1069q17 0 27 -6q13 -5 18 -16q9 -7 11 -24l1 -8q0 -6 -2 -18l-98 -392h-669l100 401q6 25 29 44q22 19 51 19h532zM373 232l-63 -252h-413l267 1071q19 79 67.5 151t115.5 126q144 114 306 114h622q79 0 146 -31.5t108 -86.5q59 -80 59 -187q0 -47 -12 -96
l-265 -1061h-414l63 252h-587zM1137 1029h-532q-13 0 -25 -9q-13 -12 -16 -24l-88 -351h587l90 360q1 4 1 9v3q-1 3 -3 6q-3 3 -5 4q-3 2 -9 2zM342 272h669l-63 -252h332l257 1031q11 41 11 86q0 93 -51 163q-78 102 -222 102h-622q-150 0 -281 -106q-134 -106 -169 -255
l-255 -1021h331zM1314 1853h254l-30 -123q-21 -84 -112 -144.5t-195 -60.5h-124q-79 4 -135.5 45.5t-65.5 103.5l-1 3q-1 22 -35 22h-29q-24 0 -40.5 -10.5t-20.5 -27.5l-21 -81h-254l31 123q21 84 111.5 144.5t194.5 60.5h125q78 -4 134.5 -45.5t66.5 -103.5v-3
q3 -22 35 -22h30q23 0 40 10.5t21 27.5zM1346 1813l-13 -50q-7 -28 -37 -48.5t-63 -20.5h-30q-27 0 -49.5 16.5t-24.5 39.5v2q-8 50 -51.5 81t-111.5 35h-124q-94 0 -171.5 -50.5t-95.5 -124.5l-18 -73h171l13 51q7 27 37 47.5t63 20.5h29q28 0 50.5 -16.5t24.5 -40.5v-1
q8 -51 51 -82t112 -34h124q94 0 171.5 50.5t95.5 124.5l18 73h-171z" />
    <glyph glyph-name="Adieresis" unicode="&#xc4;" horiz-adv-x="1572" 
d="M1137 1069q17 0 27 -6q13 -5 18 -16q9 -7 11 -24l1 -8q0 -6 -2 -18l-98 -392h-669l100 401q6 25 29 44q22 19 51 19h532zM373 232l-63 -252h-413l267 1071q19 79 67.5 151t115.5 126q144 114 306 114h622q79 0 146 -31.5t108 -86.5q59 -80 59 -187q0 -47 -12 -96
l-265 -1061h-414l63 252h-587zM1137 1029h-532q-13 0 -25 -9q-13 -12 -16 -24l-88 -351h587l90 360q1 4 1 9v3q-1 3 -3 6q-3 3 -5 4q-3 2 -9 2zM342 272h669l-63 -252h332l257 1031q11 41 11 86q0 93 -51 163q-78 102 -222 102h-622q-150 0 -281 -106q-134 -106 -169 -255
l-255 -1021h331zM913 1607l52 208h-207l-52 -208h207zM1313 1607l52 208h-207l-52 -208h207zM945 1567h-291l72 288h290zM1345 1567h-291l72 288h290z" />
    <glyph glyph-name="AE" unicode="&#xc6;" horiz-adv-x="2580" 
d="M1063 645l90 361l1 9q0 3 -4 9q-2 5 -13 5h-532q-13 0 -25 -10t-16 -23l-86 -351h585zM2287 20l83 333h-927q-29 0 -43.5 17t-14.5 38q0 9 3 18l13 55q7 27 29.5 45t49.5 18l938 1l83 333h-927q-29 0 -43.5 17t-14.5 38q0 9 3 18l13 55q7 27 29.5 45t49.5 18h937l83 333
h-972q-97 0 -206 -56q-49 33 -88.5 44.5t-90.5 11.5h-621q-156 0 -285.5 -109t-164.5 -252l-254 -1021h331l63 252h669l-63 -252h1338zM1095 605h-669l100 401q6 26 29 44.5t50 18.5h532q25 0 40.5 -15t16.5 -38q0 -11 -3 -20zM2319 -20h-1422l63 252h-585l-63 -252h-415
l268 1071q40 162 183 276.5t305 114.5h621q113 0 181 -50q95 50 204 50h1024l-103 -413h-969q-13 0 -25 -10t-16 -23l-14 -63q0 -15 18 -15h979l-103 -413l-970 -1q-13 0 -25 -10t-16 -23l-14 -63q0 -15 18 -15h979z" />
    <glyph glyph-name="Ecircumflex" unicode="&#xca;" 
d="M551 941l-1 -6q0 -10 3.5 -13.5t13.5 -3.5h979l-103 -413q-651 0 -969 -1q-32 0 -40 -33l-14 -55l-1 -6q0 -10 3.5 -13.5t13.5 -3.5h979l-103 -413h-1014q-137 0 -225 87.5t-88 217.5q0 47 12 96l37 145q24 104 96 189q-14 39 -14 95q0 48 12 96l36 145q20 79 68.5 151
t115.5 126q146 114 305 114h1023l-103 -413h-968q-32 0 -40 -33zM512 951l14 55q7 25 30.5 44t48.5 19h937l83 333h-972q-147 0 -280 -106t-170 -255l-36 -145q-11 -46 -11 -86q0 -49 19 -103q-80 -94 -102 -191l-37 -145q-11 -41 -11 -86q0 -118 74.5 -191.5t198.5 -73.5
h983l83 333h-928q-22 0 -39.5 17.5t-17.5 39.5q0 4 2 16l14 55q7 25 30.5 44t48.5 19q318 1 938 1l83 333h-928q-23 0 -40 17t-17 40q0 4 2 16zM1011 1530h-332l291 331q37 42 101.5 68t130.5 26q68 0 121.5 -27.5t70.5 -72.5l124 -325h-321l-56 147zM993 1570l161 183
l70 -183h236l-103 270q-14 35 -55 55t-100 20q-61 0 -115 -21.5t-87 -59.5l-232 -264h225z" />
    <glyph glyph-name="Edieresis" unicode="&#xcb;" 
d="M551 941l-1 -6q0 -10 3.5 -13.5t13.5 -3.5h979l-103 -413q-651 0 -969 -1q-32 0 -40 -33l-14 -55l-1 -6q0 -10 3.5 -13.5t13.5 -3.5h979l-103 -413h-1014q-137 0 -225 87.5t-88 217.5q0 47 12 96l37 145q24 104 96 189q-14 39 -14 95q0 48 12 96l36 145q20 79 68.5 151
t115.5 126q146 114 305 114h1023l-103 -413h-968q-32 0 -40 -33zM512 951l14 55q7 25 30.5 44t48.5 19h937l83 333h-972q-147 0 -280 -106t-170 -255l-36 -145q-11 -46 -11 -86q0 -49 19 -103q-80 -94 -102 -191l-37 -145q-11 -41 -11 -86q0 -118 74.5 -191.5t198.5 -73.5
h983l83 333h-928q-22 0 -39.5 17.5t-17.5 39.5q0 4 2 16l14 55q7 25 30.5 44t48.5 19q318 1 938 1l83 333h-928q-23 0 -40 17t-17 40q0 4 2 16zM1024 1607l52 208h-208l-52 -208h208zM1424 1607l52 208h-208l-52 -208h208zM1055 1567h-290l72 288h290zM1455 1567h-290
l72 288h290z" />
    <glyph glyph-name="Icircumflex" unicode="&#xce;" horiz-adv-x="572" 
d="M-103 -20l364 1462h414l-364 -1462h-414zM-52 20h332l344 1382h-331zM400 1530h-332l291 331q37 42 101.5 68t130.5 26q68 0 121.5 -27.5t70.5 -72.5l124 -325h-321l-56 147zM382 1570l161 183l70 -183h236l-103 270q-14 35 -55 55t-100 20q-61 0 -115 -21.5t-87 -59.5
l-232 -264h225z" />
    <glyph glyph-name="Idieresis" unicode="&#xcf;" horiz-adv-x="573" 
d="M-103 -20l364 1462h414l-364 -1462h-414zM-52 20h332l344 1382h-331zM413 1607l52 208h-207l-52 -208h207zM813 1607l52 208h-207l-52 -208h207zM445 1567h-290l71 288h291zM845 1567h-290l71 288h291z" />
    <glyph glyph-name="Eth" unicode="&#xd0;" horiz-adv-x="1673" 
d="M1064 393q15 0 28 11t18 26l142 571l1 9q0 19 -21 19h-559l-12 -48h386l-75 -301h-386l-71 -287h549zM1027 20q148 0 276.5 104t165.5 250l170 683q11 47 11 86q0 112 -74 185.5t-195 73.5h-988l-115 -461h-200l-55 -221h200l-174 -700h978zM1064 353h-601l91 367h386
l55 221h-386l32 128h591q31 0 46 -18.5t15 -40.5q0 -10 -3 -19l-142 -571q-7 -27 -30.5 -47t-53.5 -20zM1027 -20h-1030l174 700h-200l75 301h200l115 461h1020q142 0 225.5 -88t83.5 -211q0 -48 -13 -96l-170 -683q-40 -161 -180 -272.5t-300 -111.5z" />
    <glyph glyph-name="Ntilde" unicode="&#xd1;" horiz-adv-x="1705" 
d="M-103 -20l266 1071q20 79 68.5 151t115.5 126q144 114 306 114h188q79 0 146 -31.5t108 -86.5q59 -80 59 -187q0 -47 -12 -96l-156 -625q-1 -3 -1 -8q0 -6 2 -9q6 -6 16 -6h97q12 0 25 10q12 8 15 23l254 1016h414l-267 -1071q-20 -79 -68.5 -151.5t-114.5 -125.5
q-67 -53 -147 -83.5t-158 -30.5h-188q-80 0 -147 31.5t-107 86.5q-60 79 -60 187q0 47 12 96l156 625l1 6q0 5 -3 11q-5 6 -14 6h-98q-13 0 -26 -10q-12 -11 -15 -23l-254 -1016h-413zM-52 20h331l246 986q6 23 29 45q28 18 51 18h98q29 0 45 -22q12 -15 12 -35q0 -6 -2 -16
l-156 -625q-11 -41 -11 -86q0 -94 52 -163q77 -102 222 -102h188q149 0 280 106q132 105 169 255l255 1021h-332l-246 -986q-7 -28 -29 -45q-21 -18 -50 -18h-97q-30 0 -47 22q-11 15 -11 33q0 8 2 18l156 625q11 47 11 86q0 93 -51 163q-78 102 -222 102h-188
q-150 0 -281 -106q-133 -106 -170 -255zM1391 1853h254l-31 -123q-21 -84 -111.5 -144.5t-194.5 -60.5h-125q-79 4 -135 45.5t-66 103.5v3q-3 22 -35 22h-30q-23 0 -40 -10.5t-21 -27.5l-20 -81h-254l30 123q21 84 112 144.5t195 60.5h124q79 -4 135 -45.5t66 -103.5l1 -3
q1 -22 34 -22h30q24 0 40.5 10.5t20.5 27.5zM1422 1813l-13 -50q-7 -28 -37 -48.5t-63 -20.5h-30q-27 0 -49.5 16.5t-24.5 39.5v2q-8 51 -51 81.5t-112 34.5h-124q-94 0 -171.5 -50.5t-95.5 -124.5l-18 -73h171l13 51q7 27 37.5 47.5t62.5 20.5h30q27 0 49.5 -16.5
t24.5 -40.5l1 -1q8 -51 51 -82t111 -34h124q94 0 171.5 50.5t95.5 124.5l18 73h-171z" />
    <glyph glyph-name="Ocircumflex" unicode="&#xd4;" 
d="M1275 1442q80 0 146.5 -31.5t107.5 -86.5q59 -78 59 -187q0 -44 -11 -96l-167 -670q-20 -79 -68.5 -151t-115.5 -126q-145 -114 -306 -114h-622q-80 0 -146.5 31.5t-107.5 86.5q-59 80 -59 187q0 47 12 96l167 670q20 79 68.5 151.5t115.5 125.5q144 114 305 114h622z
M1193 996l-146 -580q-4 -15 -11 -26q-3 -3 -8.5 -9.5t-8.5 -9.5q-16 -10 -24 -14q-12 -4 -27 -4h-532q-11 0 -26 5q-14 10 -20 17q-8 11 -11 24v8q0 6 2 18l145 581q6 26 28 44q22 19 51 19h532q32 0 46 -22q12 -15 12 -35q0 -6 -2 -16zM1275 1402h-622q-150 0 -280 -106
q-133 -106 -170 -255l-167 -670q-11 -41 -11 -86q0 -93 51 -163q76 -102 222 -102h622q150 0 281 106q133 107 170 255l167 670q10 43 10 86q0 95 -51 163q-77 102 -222 102zM1154 1006l1 6q0 6 -4 11q-4 6 -14 6h-532q-13 0 -25 -9q-12 -12 -15 -24l-145 -579q-1 -4 -1 -9
v-3q0 -1 3 -6q4 -4 6 -5t8 -1h532q7 0 11 2q10 4 14 8q6 5 11 11q2 3 5 12zM901 1530h-332l291 331q38 42 101.5 68t130.5 26q68 0 121.5 -27.5t70.5 -72.5l124 -325h-322l-56 147zM883 1570l161 183l70 -183h236l-104 270q-13 35 -53.5 55t-100.5 20q-61 0 -115 -21.5
t-87 -59.5l-233 -264h226z" />
    <glyph glyph-name="Otilde" unicode="&#xd5;" 
d="M1275 1442q80 0 146.5 -31.5t107.5 -86.5q59 -78 59 -187q0 -44 -11 -96l-167 -670q-20 -79 -68.5 -151t-115.5 -126q-145 -114 -306 -114h-622q-80 0 -146.5 31.5t-107.5 86.5q-59 80 -59 187q0 47 12 96l167 670q20 79 68.5 151.5t115.5 125.5q144 114 305 114h622z
M1193 996l-146 -580q-4 -15 -11 -26q-3 -3 -8.5 -9.5t-8.5 -9.5q-16 -10 -24 -14q-12 -4 -27 -4h-532q-11 0 -26 5q-14 10 -20 17q-8 11 -11 24v8q0 6 2 18l145 581q6 26 28 44q22 19 51 19h532q32 0 46 -22q12 -15 12 -35q0 -6 -2 -16zM1275 1402h-622q-150 0 -280 -106
q-133 -106 -170 -255l-167 -670q-11 -41 -11 -86q0 -93 51 -163q76 -102 222 -102h622q150 0 281 106q133 107 170 255l167 670q10 43 10 86q0 95 -51 163q-77 102 -222 102zM1154 1006l1 6q0 6 -4 11q-4 6 -14 6h-532q-13 0 -25 -9q-12 -12 -15 -24l-145 -579q-1 -4 -1 -9
v-3q0 -1 3 -6q4 -4 6 -5t8 -1h532q7 0 11 2q10 4 14 8q6 5 11 11q2 3 5 12zM1315 1853h254l-31 -123q-21 -84 -111.5 -144.5t-194.5 -60.5h-125q-78 4 -134.5 45.5t-66.5 103.5v3q-3 22 -35 22h-30q-23 0 -39.5 -10.5t-21.5 -27.5l-20 -81h-254l30 123q22 84 112.5 144.5
t194.5 60.5h125q78 -4 134.5 -45.5t65.5 -103.5l1 -3q1 -22 35 -22h30q23 0 39.5 10.5t21.5 27.5zM1346 1813l-12 -50q-7 -28 -37.5 -48.5t-62.5 -20.5h-30q-28 0 -50.5 16.5t-24.5 39.5v2q-8 50 -51 81t-111 35h-124q-94 0 -171.5 -50.5t-96.5 -124.5l-18 -73h172l12 51
q8 27 38 47.5t62 20.5h30q28 0 50.5 -16.5t24.5 -40.5v-1q8 -51 51 -82t111 -34h124q94 0 171.5 50.5t96.5 124.5l18 73h-172z" />
    <glyph glyph-name="Odieresis" unicode="&#xd6;" 
d="M1275 1442q80 0 146.5 -31.5t107.5 -86.5q59 -78 59 -187q0 -44 -11 -96l-167 -670q-20 -79 -68.5 -151t-115.5 -126q-145 -114 -306 -114h-622q-80 0 -146.5 31.5t-107.5 86.5q-59 80 -59 187q0 47 12 96l167 670q20 79 68.5 151.5t115.5 125.5q144 114 305 114h622z
M1193 996l-146 -580q-4 -15 -11 -26q-3 -3 -8.5 -9.5t-8.5 -9.5q-16 -10 -24 -14q-12 -4 -27 -4h-532q-11 0 -26 5q-14 10 -20 17q-8 11 -11 24v8q0 6 2 18l145 581q6 26 28 44q22 19 51 19h532q32 0 46 -22q12 -15 12 -35q0 -6 -2 -16zM1275 1402h-622q-150 0 -280 -106
q-133 -106 -170 -255l-167 -670q-11 -41 -11 -86q0 -93 51 -163q76 -102 222 -102h622q150 0 281 106q133 107 170 255l167 670q10 43 10 86q0 95 -51 163q-77 102 -222 102zM1154 1006l1 6q0 6 -4 11q-4 6 -14 6h-532q-13 0 -25 -9q-12 -12 -15 -24l-145 -579q-1 -4 -1 -9
v-3q0 -1 3 -6q4 -4 6 -5t8 -1h532q7 0 11 2q10 4 14 8q6 5 11 11q2 3 5 12zM914 1607l52 208h-208l-52 -208h208zM1314 1607l52 208h-208l-52 -208h208zM945 1567h-290l72 288h290zM1345 1567h-290l72 288h290z" />
    <glyph glyph-name="multiply" unicode="&#xd7;" horiz-adv-x="1174" 
d="M697 271l298 239l-168 223l279 223l-174 231l-278 -223l-168 224l-298 -239l168 -223l-280 -224l174 -231l279 223zM690 214l-168 223l-279 -223l-222 295l279 223l-167 224l360 289l168 -224l278 223l222 -295l-278 -223l167 -223z" />
    <glyph glyph-name="Oslash" unicode="&#xd8;" 
d="M968 393q33 0 40 33l119 478l-431 -511h272zM448 526l424 503h-267q-13 0 -25 -10t-15 -23zM201 -130l127 150h592q147 0 280 105t170 256l168 670q11 47 11 87q0 91 -52 162q-17 22 -47 48l160 188h-257l-114 -134h-586q-155 0 -285 -109t-165 -252l-168 -670
q-10 -41 -10 -84q0 -96 51 -165q12 -17 44 -45l-175 -207h256zM968 353h-359l599 708l-161 -645q-7 -30 -29.5 -46.5t-49.5 -16.5zM367 369l159 637q7 27 29.5 45t49.5 18h353zM219 -170h-360l205 243q-24 23 -51.5 80.5t-27.5 133.5q0 45 12 94l168 670q40 162 183 276.5
t305 114.5h568l114 134h361l-190 -224q12 -11 28 -32.5t35.5 -73.5t19.5 -108q0 -48 -13 -97l-168 -670q-39 -162 -182 -276.5t-306 -114.5h-574z" />
    <glyph glyph-name="Ucircumflex" unicode="&#xdb;" horiz-adv-x="1572" 
d="M973 411q7 0 11 3q14 4 23 17q5 8 6 13l253 1016h414l-267 -1071q-20 -79 -68.5 -151.5t-114.5 -125.5q-67 -53 -147 -83.5t-158 -30.5h-622q-80 0 -147 31.5t-107 86.5q-60 79 -60 187q0 47 12 96l265 1061h413l-255 -1026q-1 -3 -1 -7q0 -10 3.5 -13t14.5 -3h532z
M973 371h-532q-23 0 -40.5 17t-17.5 39q0 7 2 17l243 976h-331l-257 -1031q-11 -41 -11 -86q0 -94 52 -163q77 -102 222 -102h622q149 0 280 106q132 105 169 255l255 1021h-332l-245 -986q-5 -15 -12 -25q-15 -24 -41 -33q-12 -5 -26 -5zM900 1530h-332l291 331
q37 42 101.5 68t130.5 26q68 0 121.5 -27.5t70.5 -72.5l124 -325h-321l-57 147zM882 1570l161 183l70 -183h236l-103 270q-14 35 -55 55t-100 20q-61 0 -115 -21.5t-87 -59.5l-232 -264h225z" />
    <glyph glyph-name="Udieresis" unicode="&#xdc;" horiz-adv-x="1572" 
d="M973 411q7 0 11 3q14 4 23 17q5 8 6 13l253 1016h414l-267 -1071q-20 -79 -68.5 -151.5t-114.5 -125.5q-67 -53 -147 -83.5t-158 -30.5h-622q-80 0 -147 31.5t-107 86.5q-60 79 -60 187q0 47 12 96l265 1061h413l-255 -1026q-1 -3 -1 -7q0 -10 3.5 -13t14.5 -3h532z
M973 371h-532q-23 0 -40.5 17t-17.5 39q0 7 2 17l243 976h-331l-257 -1031q-11 -41 -11 -86q0 -94 52 -163q77 -102 222 -102h622q149 0 280 106q132 105 169 255l255 1021h-332l-245 -986q-5 -15 -12 -25q-15 -24 -41 -33q-12 -5 -26 -5zM913 1607l52 208h-207l-52 -208
h207zM1313 1607l52 208h-207l-52 -208h207zM945 1567h-291l72 288h290zM1345 1567h-291l72 288h290z" />
    <glyph glyph-name="Thorn" unicode="&#xde;" horiz-adv-x="1574" 
d="M230 -180l63 252h647q146 0 276.5 104.5t166.5 250.5l107 430q11 47 11 86q0 108 -73 183.5t-197 75.5h-657l50 200h-331l-394 -1582h331zM978 445q15 0 28.5 11t17.5 27l79 318l1 10q0 18 -21 18h-560l-95 -384h550zM262 -220h-415l414 1662h415l-50 -200h605
q140 0 225 -86.5t85 -212.5q0 -48 -13 -96l-107 -430q-27 -108 -103.5 -197.5t-176.5 -138.5t-201 -49h-615zM978 405h-602l115 464h592q27 0 44 -16.5t17 -41.5q0 -9 -3 -20l-79 -318q-8 -30 -32 -49t-52 -19z" />
    <glyph glyph-name="acircumflex" unicode="&#xe2;" horiz-adv-x="1572" 
d="M1137 1069q17 0 27 -6q13 -5 18 -16q9 -7 11 -24l1 -8q0 -6 -2 -18l-98 -392h-669l100 401q6 25 29 44q22 19 51 19h532zM373 232l-63 -252h-413l267 1071q19 79 67.5 151t115.5 126q144 114 306 114h622q79 0 146 -31.5t108 -86.5q59 -80 59 -187q0 -47 -12 -96
l-265 -1061h-414l63 252h-587zM1137 1029h-532q-13 0 -25 -9q-13 -12 -16 -24l-88 -351h587l90 360q1 4 1 9v3q-1 3 -3 6q-3 3 -5 4q-3 2 -9 2zM342 272h669l-63 -252h332l257 1031q11 41 11 86q0 93 -51 163q-78 102 -222 102h-622q-150 0 -281 -106q-134 -106 -169 -255
l-255 -1021h331zM900 1530h-332l291 331q37 42 101.5 68t130.5 26q68 0 121.5 -27.5t70.5 -72.5l124 -325h-321l-57 147zM882 1570l161 183l70 -183h236l-103 270q-14 35 -55 55t-100 20q-61 0 -115 -21.5t-87 -59.5l-232 -264h225z" />
    <glyph glyph-name="atilde" unicode="&#xe3;" horiz-adv-x="1572" 
d="M1137 1069q17 0 27 -6q13 -5 18 -16q9 -7 11 -24l1 -8q0 -6 -2 -18l-98 -392h-669l100 401q6 25 29 44q22 19 51 19h532zM373 232l-63 -252h-413l267 1071q19 79 67.5 151t115.5 126q144 114 306 114h622q79 0 146 -31.5t108 -86.5q59 -80 59 -187q0 -47 -12 -96
l-265 -1061h-414l63 252h-587zM1137 1029h-532q-13 0 -25 -9q-13 -12 -16 -24l-88 -351h587l90 360q1 4 1 9v3q-1 3 -3 6q-3 3 -5 4q-3 2 -9 2zM342 272h669l-63 -252h332l257 1031q11 41 11 86q0 93 -51 163q-78 102 -222 102h-622q-150 0 -281 -106q-134 -106 -169 -255
l-255 -1021h331zM1314 1853h254l-30 -123q-21 -84 -112 -144.5t-195 -60.5h-124q-79 4 -135.5 45.5t-65.5 103.5l-1 3q-1 22 -35 22h-29q-24 0 -40.5 -10.5t-20.5 -27.5l-21 -81h-254l31 123q21 84 111.5 144.5t194.5 60.5h125q78 -4 134.5 -45.5t66.5 -103.5v-3
q3 -22 35 -22h30q23 0 40 10.5t21 27.5zM1346 1813l-13 -50q-7 -28 -37 -48.5t-63 -20.5h-30q-27 0 -49.5 16.5t-24.5 39.5v2q-8 50 -51.5 81t-111.5 35h-124q-94 0 -171.5 -50.5t-95.5 -124.5l-18 -73h171l13 51q7 27 37 47.5t63 20.5h29q28 0 50.5 -16.5t24.5 -40.5v-1
q8 -51 51 -82t112 -34h124q94 0 171.5 50.5t95.5 124.5l18 73h-171z" />
    <glyph glyph-name="adieresis" unicode="&#xe4;" horiz-adv-x="1572" 
d="M1137 1069q17 0 27 -6q13 -5 18 -16q9 -7 11 -24l1 -8q0 -6 -2 -18l-98 -392h-669l100 401q6 25 29 44q22 19 51 19h532zM373 232l-63 -252h-413l267 1071q19 79 67.5 151t115.5 126q144 114 306 114h622q79 0 146 -31.5t108 -86.5q59 -80 59 -187q0 -47 -12 -96
l-265 -1061h-414l63 252h-587zM1137 1029h-532q-13 0 -25 -9q-13 -12 -16 -24l-88 -351h587l90 360q1 4 1 9v3q-1 3 -3 6q-3 3 -5 4q-3 2 -9 2zM342 272h669l-63 -252h332l257 1031q11 41 11 86q0 93 -51 163q-78 102 -222 102h-622q-150 0 -281 -106q-134 -106 -169 -255
l-255 -1021h331zM913 1607l52 208h-207l-52 -208h207zM1313 1607l52 208h-207l-52 -208h207zM945 1567h-291l72 288h290zM1345 1567h-291l72 288h290z" />
    <glyph glyph-name="ae" unicode="&#xe6;" horiz-adv-x="2580" 
d="M1063 645l90 361l1 9q0 3 -4 9q-2 5 -13 5h-532q-13 0 -25 -10t-16 -23l-86 -351h585zM2287 20l83 333h-927q-29 0 -43.5 17t-14.5 38q0 9 3 18l13 55q7 27 29.5 45t49.5 18l938 1l83 333h-927q-29 0 -43.5 17t-14.5 38q0 9 3 18l13 55q7 27 29.5 45t49.5 18h937l83 333
h-972q-97 0 -206 -56q-49 33 -88.5 44.5t-90.5 11.5h-621q-156 0 -285.5 -109t-164.5 -252l-254 -1021h331l63 252h669l-63 -252h1338zM1095 605h-669l100 401q6 26 29 44.5t50 18.5h532q25 0 40.5 -15t16.5 -38q0 -11 -3 -20zM2319 -20h-1422l63 252h-585l-63 -252h-415
l268 1071q40 162 183 276.5t305 114.5h621q113 0 181 -50q95 50 204 50h1024l-103 -413h-969q-13 0 -25 -10t-16 -23l-14 -63q0 -15 18 -15h979l-103 -413l-970 -1q-13 0 -25 -10t-16 -23l-14 -63q0 -15 18 -15h979z" />
    <glyph glyph-name="ecircumflex" unicode="&#xea;" 
d="M551 941l-1 -6q0 -10 3.5 -13.5t13.5 -3.5h979l-103 -413q-651 0 -969 -1q-32 0 -40 -33l-14 -55l-1 -6q0 -10 3.5 -13.5t13.5 -3.5h979l-103 -413h-1014q-137 0 -225 87.5t-88 217.5q0 47 12 96l37 145q24 104 96 189q-14 39 -14 95q0 48 12 96l36 145q20 79 68.5 151
t115.5 126q146 114 305 114h1023l-103 -413h-968q-32 0 -40 -33zM512 951l14 55q7 25 30.5 44t48.5 19h937l83 333h-972q-147 0 -280 -106t-170 -255l-36 -145q-11 -46 -11 -86q0 -49 19 -103q-80 -94 -102 -191l-37 -145q-11 -41 -11 -86q0 -118 74.5 -191.5t198.5 -73.5
h983l83 333h-928q-22 0 -39.5 17.5t-17.5 39.5q0 4 2 16l14 55q7 25 30.5 44t48.5 19q318 1 938 1l83 333h-928q-23 0 -40 17t-17 40q0 4 2 16zM1011 1530h-332l291 331q37 42 101.5 68t130.5 26q68 0 121.5 -27.5t70.5 -72.5l124 -325h-321l-56 147zM993 1570l161 183
l70 -183h236l-103 270q-14 35 -55 55t-100 20q-61 0 -115 -21.5t-87 -59.5l-232 -264h225z" />
    <glyph glyph-name="edieresis" unicode="&#xeb;" 
d="M551 941l-1 -6q0 -10 3.5 -13.5t13.5 -3.5h979l-103 -413q-651 0 -969 -1q-32 0 -40 -33l-14 -55l-1 -6q0 -10 3.5 -13.5t13.5 -3.5h979l-103 -413h-1014q-137 0 -225 87.5t-88 217.5q0 47 12 96l37 145q24 104 96 189q-14 39 -14 95q0 48 12 96l36 145q20 79 68.5 151
t115.5 126q146 114 305 114h1023l-103 -413h-968q-32 0 -40 -33zM512 951l14 55q7 25 30.5 44t48.5 19h937l83 333h-972q-147 0 -280 -106t-170 -255l-36 -145q-11 -46 -11 -86q0 -49 19 -103q-80 -94 -102 -191l-37 -145q-11 -41 -11 -86q0 -118 74.5 -191.5t198.5 -73.5
h983l83 333h-928q-22 0 -39.5 17.5t-17.5 39.5q0 4 2 16l14 55q7 25 30.5 44t48.5 19q318 1 938 1l83 333h-928q-23 0 -40 17t-17 40q0 4 2 16zM1024 1607l52 208h-208l-52 -208h208zM1424 1607l52 208h-208l-52 -208h208zM1055 1567h-290l72 288h290zM1455 1567h-290
l72 288h290z" />
    <glyph glyph-name="icircumflex" unicode="&#xee;" horiz-adv-x="572" 
d="M-103 -20l364 1462h414l-364 -1462h-414zM-52 20h332l344 1382h-331zM400 1530h-332l291 331q37 42 101.5 68t130.5 26q68 0 121.5 -27.5t70.5 -72.5l124 -325h-321l-56 147zM382 1570l161 183l70 -183h236l-103 270q-14 35 -55 55t-100 20q-61 0 -115 -21.5t-87 -59.5
l-232 -264h225z" />
    <glyph glyph-name="idieresis" unicode="&#xef;" horiz-adv-x="573" 
d="M-103 -20l364 1462h414l-364 -1462h-414zM-52 20h332l344 1382h-331zM413 1607l52 208h-207l-52 -208h207zM813 1607l52 208h-207l-52 -208h207zM445 1567h-290l71 288h291zM845 1567h-290l71 288h291z" />
    <glyph glyph-name="eth" unicode="&#xf0;" horiz-adv-x="1673" 
d="M1064 393q15 0 28 11t18 26l142 571l1 9q0 19 -21 19h-559l-12 -48h386l-75 -301h-386l-71 -287h549zM1027 20q148 0 276.5 104t165.5 250l170 683q11 47 11 86q0 112 -74 185.5t-195 73.5h-988l-115 -461h-200l-55 -221h200l-174 -700h978zM1064 353h-601l91 367h386
l55 221h-386l32 128h591q31 0 46 -18.5t15 -40.5q0 -10 -3 -19l-142 -571q-7 -27 -30.5 -47t-53.5 -20zM1027 -20h-1030l174 700h-200l75 301h200l115 461h1020q142 0 225.5 -88t83.5 -211q0 -48 -13 -96l-170 -683q-40 -161 -180 -272.5t-300 -111.5z" />
    <glyph glyph-name="ntilde" unicode="&#xf1;" horiz-adv-x="1705" 
d="M-103 -20l266 1071q20 79 68.5 151t115.5 126q144 114 306 114h188q79 0 146 -31.5t108 -86.5q59 -80 59 -187q0 -47 -12 -96l-156 -625q-1 -3 -1 -8q0 -6 2 -9q6 -6 16 -6h97q12 0 25 10q12 8 15 23l254 1016h414l-267 -1071q-20 -79 -68.5 -151.5t-114.5 -125.5
q-67 -53 -147 -83.5t-158 -30.5h-188q-80 0 -147 31.5t-107 86.5q-60 79 -60 187q0 47 12 96l156 625l1 6q0 5 -3 11q-5 6 -14 6h-98q-13 0 -26 -10q-12 -11 -15 -23l-254 -1016h-413zM-52 20h331l246 986q6 23 29 45q28 18 51 18h98q29 0 45 -22q12 -15 12 -35q0 -6 -2 -16
l-156 -625q-11 -41 -11 -86q0 -94 52 -163q77 -102 222 -102h188q149 0 280 106q132 105 169 255l255 1021h-332l-246 -986q-7 -28 -29 -45q-21 -18 -50 -18h-97q-30 0 -47 22q-11 15 -11 33q0 8 2 18l156 625q11 47 11 86q0 93 -51 163q-78 102 -222 102h-188
q-150 0 -281 -106q-133 -106 -170 -255zM1391 1853h254l-31 -123q-21 -84 -111.5 -144.5t-194.5 -60.5h-125q-79 4 -135 45.5t-66 103.5v3q-3 22 -35 22h-30q-23 0 -40 -10.5t-21 -27.5l-20 -81h-254l30 123q21 84 112 144.5t195 60.5h124q79 -4 135 -45.5t66 -103.5l1 -3
q1 -22 34 -22h30q24 0 40.5 10.5t20.5 27.5zM1422 1813l-13 -50q-7 -28 -37 -48.5t-63 -20.5h-30q-27 0 -49.5 16.5t-24.5 39.5v2q-8 51 -51 81.5t-112 34.5h-124q-94 0 -171.5 -50.5t-95.5 -124.5l-18 -73h171l13 51q7 27 37.5 47.5t62.5 20.5h30q27 0 49.5 -16.5
t24.5 -40.5l1 -1q8 -51 51 -82t111 -34h124q94 0 171.5 50.5t95.5 124.5l18 73h-171z" />
    <glyph glyph-name="ocircumflex" unicode="&#xf4;" 
d="M1275 1442q80 0 146.5 -31.5t107.5 -86.5q59 -78 59 -187q0 -44 -11 -96l-167 -670q-20 -79 -68.5 -151t-115.5 -126q-145 -114 -306 -114h-622q-80 0 -146.5 31.5t-107.5 86.5q-59 80 -59 187q0 47 12 96l167 670q20 79 68.5 151.5t115.5 125.5q144 114 305 114h622z
M1193 996l-146 -580q-4 -15 -11 -26q-3 -3 -8.5 -9.5t-8.5 -9.5q-16 -10 -24 -14q-12 -4 -27 -4h-532q-11 0 -26 5q-14 10 -20 17q-8 11 -11 24v8q0 6 2 18l145 581q6 26 28 44q22 19 51 19h532q32 0 46 -22q12 -15 12 -35q0 -6 -2 -16zM1275 1402h-622q-150 0 -280 -106
q-133 -106 -170 -255l-167 -670q-11 -41 -11 -86q0 -93 51 -163q76 -102 222 -102h622q150 0 281 106q133 107 170 255l167 670q10 43 10 86q0 95 -51 163q-77 102 -222 102zM1154 1006l1 6q0 6 -4 11q-4 6 -14 6h-532q-13 0 -25 -9q-12 -12 -15 -24l-145 -579q-1 -4 -1 -9
v-3q0 -1 3 -6q4 -4 6 -5t8 -1h532q7 0 11 2q10 4 14 8q6 5 11 11q2 3 5 12zM901 1530h-332l291 331q38 42 101.5 68t130.5 26q68 0 121.5 -27.5t70.5 -72.5l124 -325h-322l-56 147zM883 1570l161 183l70 -183h236l-104 270q-13 35 -53.5 55t-100.5 20q-61 0 -115 -21.5
t-87 -59.5l-233 -264h226z" />
    <glyph glyph-name="otilde" unicode="&#xf5;" 
d="M1275 1442q80 0 146.5 -31.5t107.5 -86.5q59 -78 59 -187q0 -44 -11 -96l-167 -670q-20 -79 -68.5 -151t-115.5 -126q-145 -114 -306 -114h-622q-80 0 -146.5 31.5t-107.5 86.5q-59 80 -59 187q0 47 12 96l167 670q20 79 68.5 151.5t115.5 125.5q144 114 305 114h622z
M1193 996l-146 -580q-4 -15 -11 -26q-3 -3 -8.5 -9.5t-8.5 -9.5q-16 -10 -24 -14q-12 -4 -27 -4h-532q-11 0 -26 5q-14 10 -20 17q-8 11 -11 24v8q0 6 2 18l145 581q6 26 28 44q22 19 51 19h532q32 0 46 -22q12 -15 12 -35q0 -6 -2 -16zM1275 1402h-622q-150 0 -280 -106
q-133 -106 -170 -255l-167 -670q-11 -41 -11 -86q0 -93 51 -163q76 -102 222 -102h622q150 0 281 106q133 107 170 255l167 670q10 43 10 86q0 95 -51 163q-77 102 -222 102zM1154 1006l1 6q0 6 -4 11q-4 6 -14 6h-532q-13 0 -25 -9q-12 -12 -15 -24l-145 -579q-1 -4 -1 -9
v-3q0 -1 3 -6q4 -4 6 -5t8 -1h532q7 0 11 2q10 4 14 8q6 5 11 11q2 3 5 12zM1315 1853h254l-31 -123q-21 -84 -111.5 -144.5t-194.5 -60.5h-125q-78 4 -134.5 45.5t-66.5 103.5v3q-3 22 -35 22h-30q-23 0 -39.5 -10.5t-21.5 -27.5l-20 -81h-254l30 123q22 84 112.5 144.5
t194.5 60.5h125q78 -4 134.5 -45.5t65.5 -103.5l1 -3q1 -22 35 -22h30q23 0 39.5 10.5t21.5 27.5zM1346 1813l-12 -50q-7 -28 -37.5 -48.5t-62.5 -20.5h-30q-28 0 -50.5 16.5t-24.5 39.5v2q-8 50 -51 81t-111 35h-124q-94 0 -171.5 -50.5t-96.5 -124.5l-18 -73h172l12 51
q8 27 38 47.5t62 20.5h30q28 0 50.5 -16.5t24.5 -40.5v-1q8 -51 51 -82t111 -34h124q94 0 171.5 50.5t96.5 124.5l18 73h-172z" />
    <glyph glyph-name="odieresis" unicode="&#xf6;" 
d="M1275 1442q80 0 146.5 -31.5t107.5 -86.5q59 -78 59 -187q0 -44 -11 -96l-167 -670q-20 -79 -68.5 -151t-115.5 -126q-145 -114 -306 -114h-622q-80 0 -146.5 31.5t-107.5 86.5q-59 80 -59 187q0 47 12 96l167 670q20 79 68.5 151.5t115.5 125.5q144 114 305 114h622z
M1193 996l-146 -580q-4 -15 -11 -26q-3 -3 -8.5 -9.5t-8.5 -9.5q-16 -10 -24 -14q-12 -4 -27 -4h-532q-11 0 -26 5q-14 10 -20 17q-8 11 -11 24v8q0 6 2 18l145 581q6 26 28 44q22 19 51 19h532q32 0 46 -22q12 -15 12 -35q0 -6 -2 -16zM1275 1402h-622q-150 0 -280 -106
q-133 -106 -170 -255l-167 -670q-11 -41 -11 -86q0 -93 51 -163q76 -102 222 -102h622q150 0 281 106q133 107 170 255l167 670q10 43 10 86q0 95 -51 163q-77 102 -222 102zM1154 1006l1 6q0 6 -4 11q-4 6 -14 6h-532q-13 0 -25 -9q-12 -12 -15 -24l-145 -579q-1 -4 -1 -9
v-3q0 -1 3 -6q4 -4 6 -5t8 -1h532q7 0 11 2q10 4 14 8q6 5 11 11q2 3 5 12zM914 1607l52 208h-208l-52 -208h208zM1314 1607l52 208h-208l-52 -208h208zM945 1567h-290l72 288h290zM1345 1567h-290l72 288h290z" />
    <glyph glyph-name="divide" unicode="&#xf7;" horiz-adv-x="1204" 
d="M847 1029l82 332h-330l-83 -332h331zM1046 563l84 333h-963l-83 -333h962zM614 97l83 332h-331l-82 -332h330zM878 989h-413l102 412h414zM1078 523h-1045l102 413h1046zM646 57h-414l103 412h413z" />
    <glyph glyph-name="oslash" unicode="&#xf8;" 
d="M968 393q33 0 40 33l119 478l-431 -511h272zM448 526l424 503h-267q-13 0 -25 -10t-15 -23zM201 -130l127 150h592q147 0 280 105t170 256l168 670q11 47 11 87q0 91 -52 162q-17 22 -47 48l160 188h-257l-114 -134h-586q-155 0 -285 -109t-165 -252l-168 -670
q-10 -41 -10 -84q0 -96 51 -165q12 -17 44 -45l-175 -207h256zM968 353h-359l599 708l-161 -645q-7 -30 -29.5 -46.5t-49.5 -16.5zM367 369l159 637q7 27 29.5 45t49.5 18h353zM219 -170h-360l205 243q-24 23 -51.5 80.5t-27.5 133.5q0 45 12 94l168 670q40 162 183 276.5
t305 114.5h568l114 134h361l-190 -224q12 -11 28 -32.5t35.5 -73.5t19.5 -108q0 -48 -13 -97l-168 -670q-39 -162 -182 -276.5t-306 -114.5h-574z" />
    <glyph glyph-name="ucircumflex" unicode="&#xfb;" horiz-adv-x="1572" 
d="M973 411q7 0 11 3q14 4 23 17q5 8 6 13l253 1016h414l-267 -1071q-20 -79 -68.5 -151.5t-114.5 -125.5q-67 -53 -147 -83.5t-158 -30.5h-622q-80 0 -147 31.5t-107 86.5q-60 79 -60 187q0 47 12 96l265 1061h413l-255 -1026q-1 -3 -1 -7q0 -10 3.5 -13t14.5 -3h532z
M973 371h-532q-23 0 -40.5 17t-17.5 39q0 7 2 17l243 976h-331l-257 -1031q-11 -41 -11 -86q0 -94 52 -163q77 -102 222 -102h622q149 0 280 106q132 105 169 255l255 1021h-332l-245 -986q-5 -15 -12 -25q-15 -24 -41 -33q-12 -5 -26 -5zM900 1530h-332l291 331
q37 42 101.5 68t130.5 26q68 0 121.5 -27.5t70.5 -72.5l124 -325h-321l-57 147zM882 1570l161 183l70 -183h236l-103 270q-14 35 -55 55t-100 20q-61 0 -115 -21.5t-87 -59.5l-232 -264h225z" />
    <glyph glyph-name="udieresis" unicode="&#xfc;" horiz-adv-x="1572" 
d="M973 411q7 0 11 3q14 4 23 17q5 8 6 13l253 1016h414l-267 -1071q-20 -79 -68.5 -151.5t-114.5 -125.5q-67 -53 -147 -83.5t-158 -30.5h-622q-80 0 -147 31.5t-107 86.5q-60 79 -60 187q0 47 12 96l265 1061h413l-255 -1026q-1 -3 -1 -7q0 -10 3.5 -13t14.5 -3h532z
M973 371h-532q-23 0 -40.5 17t-17.5 39q0 7 2 17l243 976h-331l-257 -1031q-11 -41 -11 -86q0 -94 52 -163q77 -102 222 -102h622q149 0 280 106q132 105 169 255l255 1021h-332l-245 -986q-5 -15 -12 -25q-15 -24 -41 -33q-12 -5 -26 -5zM913 1607l52 208h-207l-52 -208
h207zM1313 1607l52 208h-207l-52 -208h207zM945 1567h-291l72 288h290zM1345 1567h-291l72 288h290z" />
    <glyph glyph-name="thorn" unicode="&#xfe;" horiz-adv-x="1574" 
d="M230 -180l63 252h647q146 0 276.5 104.5t166.5 250.5l107 430q11 47 11 86q0 108 -73 183.5t-197 75.5h-657l50 200h-331l-394 -1582h331zM978 445q15 0 28.5 11t17.5 27l79 318l1 10q0 18 -21 18h-560l-95 -384h550zM262 -220h-415l414 1662h415l-50 -200h605
q140 0 225 -86.5t85 -212.5q0 -48 -13 -96l-107 -430q-27 -108 -103.5 -197.5t-176.5 -138.5t-201 -49h-615zM978 405h-602l115 464h592q27 0 44 -16.5t17 -41.5q0 -9 -3 -20l-79 -318q-8 -30 -32 -49t-52 -19z" />
    <glyph glyph-name="ydieresis" unicode="&#xff;" horiz-adv-x="1572" 
d="M1099 917q32 0 40 33l123 492h413l-136 -547q-20 -79 -68.5 -151.5t-114.5 -125.5q-145 -113 -305 -113l-110 -1l-131 -524h-413l130 524h-98q-80 0 -147 31.5t-107 86.5q-60 79 -60 187q0 47 12 96l134 537h414l-125 -502q-1 -3 -1 -7q0 -16 18 -16h532zM1099 877h-532
q-23 0 -40.5 17t-17.5 39q0 7 2 17l113 452h-332l-126 -507q-11 -41 -11 -86q0 -94 52 -163q77 -102 222 -102h149l-130 -524h331l131 524l141 1q148 0 280 105t169 255l124 497h-331l-115 -462q-7 -25 -30.5 -44t-48.5 -19zM913 1607l52 208h-208l-51 -208h207zM1313 1607
l52 208h-208l-51 -208h207zM945 1567h-291l72 288h290zM1345 1567h-291l72 288h290z" />
    <glyph glyph-name="Amacron" unicode="&#x100;" horiz-adv-x="1572" 
d="M1137 1069q17 0 27 -6q13 -5 18 -16q9 -7 11 -24l1 -8q0 -6 -2 -18l-98 -392h-669l100 401q6 25 29 44q22 19 51 19h532zM373 232l-63 -252h-413l267 1071q19 79 67.5 151t115.5 126q144 114 306 114h622q79 0 146 -31.5t108 -86.5q59 -80 59 -187q0 -47 -12 -96
l-265 -1061h-414l63 252h-587zM1137 1029h-532q-13 0 -25 -9q-13 -12 -16 -24l-88 -351h587l90 360q1 4 1 9v3q-1 3 -3 6q-3 3 -5 4q-3 2 -9 2zM342 272h669l-63 -252h332l257 1031q11 41 11 86q0 93 -51 163q-78 102 -222 102h-622q-150 0 -281 -106q-134 -106 -169 -255
l-255 -1021h331zM1363 1607l52 208h-707l-52 -208h707zM1395 1567h-791l72 288h790z" />
    <glyph glyph-name="amacron" unicode="&#x101;" horiz-adv-x="1572" 
d="M1137 1069q17 0 27 -6q13 -5 18 -16q9 -7 11 -24l1 -8q0 -6 -2 -18l-98 -392h-669l100 401q6 25 29 44q22 19 51 19h532zM373 232l-63 -252h-413l267 1071q19 79 67.5 151t115.5 126q144 114 306 114h622q79 0 146 -31.5t108 -86.5q59 -80 59 -187q0 -47 -12 -96
l-265 -1061h-414l63 252h-587zM1137 1029h-532q-13 0 -25 -9q-13 -12 -16 -24l-88 -351h587l90 360q1 4 1 9v3q-1 3 -3 6q-3 3 -5 4q-3 2 -9 2zM342 272h669l-63 -252h332l257 1031q11 41 11 86q0 93 -51 163q-78 102 -222 102h-622q-150 0 -281 -106q-134 -106 -169 -255
l-255 -1021h331zM1363 1607l52 208h-707l-52 -208h707zM1395 1567h-791l72 288h790z" />
    <glyph glyph-name="Ccircumflex" unicode="&#x108;" 
d="M580 1019q-12 -11 -15 -23l-145 -579q-1 -4 -1 -9v-3q1 -3 3 -6q3 -3 6 -5q2 -1 8 -1h979l-103 -413h-1014q-137 0 -225 87.5t-88 217.5q0 47 12 96l167 670q41 160 184.5 275.5t304.5 115.5h1023l-103 -413h-968q-14 0 -25 -10zM555 1051q26 18 50 18h937l83 333h-972
q-151 0 -281.5 -105t-168.5 -256l-167 -670q-11 -41 -11 -86q0 -118 74.5 -191.5t198.5 -73.5h983l83 333h-928q-11 0 -26 5q-16 11 -20 17q-6 6 -11 24v8q0 6 2 18l145 581q6 26 29 45zM1027 1530h-332l291 331q37 42 101.5 68t130.5 26q68 0 121.5 -27.5t70.5 -72.5
l124 -325h-321l-56 147zM1009 1570l161 183l70 -183h236l-103 270q-14 35 -55 55t-100 20q-61 0 -115 -21.5t-87 -59.5l-232 -264h225z" />
    <glyph glyph-name="ccircumflex" unicode="&#x109;" 
d="M580 1019q-12 -11 -15 -23l-145 -579q-1 -4 -1 -9v-3q1 -3 3 -6q3 -3 6 -5q2 -1 8 -1h979l-103 -413h-1014q-137 0 -225 87.5t-88 217.5q0 47 12 96l167 670q41 160 184.5 275.5t304.5 115.5h1023l-103 -413h-968q-14 0 -25 -10zM555 1051q26 18 50 18h937l83 333h-972
q-151 0 -281.5 -105t-168.5 -256l-167 -670q-11 -41 -11 -86q0 -118 74.5 -191.5t198.5 -73.5h983l83 333h-928q-11 0 -26 5q-16 11 -20 17q-6 6 -11 24v8q0 6 2 18l145 581q6 26 29 45zM1027 1530h-332l291 331q37 42 101.5 68t130.5 26q68 0 121.5 -27.5t70.5 -72.5
l124 -325h-321l-56 147zM1009 1570l161 183l70 -183h236l-103 270q-14 35 -55 55t-100 20q-61 0 -115 -21.5t-87 -59.5l-232 -264h225z" />
    <glyph glyph-name="Cdotaccent" unicode="&#x10a;" 
d="M580 1019q-12 -11 -15 -23l-145 -579q-1 -4 -1 -9v-3q1 -3 3 -6q3 -3 6 -5q2 -1 8 -1h979l-103 -413h-1014q-137 0 -225 87.5t-88 217.5q0 47 12 96l167 670q41 160 184.5 275.5t304.5 115.5h1023l-103 -413h-968q-14 0 -25 -10zM555 1051q26 18 50 18h937l83 333h-972
q-151 0 -281.5 -105t-168.5 -256l-167 -670q-11 -41 -11 -86q0 -118 74.5 -191.5t198.5 -73.5h983l83 333h-928q-11 0 -26 5q-16 11 -20 17q-6 6 -11 24v8q0 6 2 18l145 581q6 26 29 45zM1240 1607l52 208h-208l-52 -208h208zM1271 1567h-290l72 288h290z" />
    <glyph glyph-name="cdotaccent" unicode="&#x10b;" 
d="M580 1019q-12 -11 -15 -23l-145 -579q-1 -4 -1 -9v-3q1 -3 3 -6q3 -3 6 -5q2 -1 8 -1h979l-103 -413h-1014q-137 0 -225 87.5t-88 217.5q0 47 12 96l167 670q41 160 184.5 275.5t304.5 115.5h1023l-103 -413h-968q-14 0 -25 -10zM555 1051q26 18 50 18h937l83 333h-972
q-151 0 -281.5 -105t-168.5 -256l-167 -670q-11 -41 -11 -86q0 -118 74.5 -191.5t198.5 -73.5h983l83 333h-928q-11 0 -26 5q-16 11 -20 17q-6 6 -11 24v8q0 6 2 18l145 581q6 26 29 45zM1240 1607l52 208h-208l-52 -208h208zM1271 1567h-290l72 288h290z" />
    <glyph glyph-name="Ccaron" unicode="&#x10c;" 
d="M1097 1470q123 0 202 81l233 264h-225l-162 -183l-70 183h-235l103 -270q35 -75 154 -75zM1281 20l83 333h-928q-21 0 -39 13.5t-18 40.5l1 16l146 583q10 32 32.5 47.5t46.5 15.5h937l83 333h-972q-151 0 -279.5 -103t-170.5 -258l-167 -670q-11 -46 -11 -86
q0 -115 72.5 -190t200.5 -75h983zM1312 -20h-1014q-141 0 -227 88.5t-86 216.5q0 47 12 96l167 670q28 108 104 198t178 141.5t207 51.5h362q-84 27 -109 88l-124 325h321l56 -147l129 147h333l-292 -331q-51 -57 -142 -82h489l-103 -413h-968q-13 0 -25 -10t-15 -23
l-145 -579q0 -1 -0.5 -4.5t-0.5 -7.5q0 -7 9 -11l8 -1h979z" />
    <glyph glyph-name="ccaron" unicode="&#x10d;" 
d="M1097 1470q123 0 202 81l233 264h-225l-162 -183l-70 183h-235l103 -270q35 -75 154 -75zM1281 20l83 333h-928q-21 0 -39 13.5t-18 40.5l1 16l146 583q10 32 32.5 47.5t46.5 15.5h937l83 333h-972q-151 0 -279.5 -103t-170.5 -258l-167 -670q-11 -46 -11 -86
q0 -115 72.5 -190t200.5 -75h983zM1312 -20h-1014q-141 0 -227 88.5t-86 216.5q0 47 12 96l167 670q28 108 104 198t178 141.5t207 51.5h362q-84 27 -109 88l-124 325h321l56 -147l129 147h333l-292 -331q-51 -57 -142 -82h489l-103 -413h-968q-13 0 -25 -10t-15 -23
l-145 -579q0 -1 -0.5 -4.5t-0.5 -7.5q0 -7 9 -11l8 -1h979z" />
    <glyph glyph-name="Dcaron" unicode="&#x10e;" 
d="M964 393q33 0 45 37l143 571l1 8q0 20 -17 20h-564l-159 -636h551zM964 353h-602l179 716h592q25 0 42.5 -18.5t17.5 -41.5q0 -4 -2 -18l-143 -571q-8 -27 -32.5 -47t-51.5 -20zM930 1470q121 0 202 81l232 264h-225l-161 -183l-70 183h-236l103 -270q35 -75 155 -75z
M927 20q149 0 274.5 101.5t166.5 252.5l170 683q11 46 11 85q0 112 -71 186t-197 74h-989l-344 -1382h979zM927 -20h-1030l364 1462h586q-84 27 -109 88l-124 325h321l56 -147l130 147h332l-291 -331q-51 -56 -143 -82h262q138 0 223 -87t85 -213q0 -46 -12 -95l-170 -683
q-43 -164 -183 -274t-297 -110z" />
    <glyph glyph-name="dcaron" unicode="&#x10f;" 
d="M964 393q33 0 45 37l143 571l1 8q0 20 -17 20h-564l-159 -636h551zM964 353h-602l179 716h592q25 0 42.5 -18.5t17.5 -41.5q0 -4 -2 -18l-143 -571q-8 -27 -32.5 -47t-51.5 -20zM930 1470q121 0 202 81l232 264h-225l-161 -183l-70 183h-236l103 -270q35 -75 155 -75z
M927 20q149 0 274.5 101.5t166.5 252.5l170 683q11 46 11 85q0 112 -71 186t-197 74h-989l-344 -1382h979zM927 -20h-1030l364 1462h586q-84 27 -109 88l-124 325h321l56 -147l130 147h332l-291 -331q-51 -56 -143 -82h262q138 0 223 -87t85 -213q0 -46 -12 -95l-170 -683
q-43 -164 -183 -274t-297 -110z" />
    <glyph glyph-name="Dcroat" unicode="&#x110;" horiz-adv-x="1673" 
d="M1064 393q15 0 28 11t18 26l142 571l1 9q0 19 -21 19h-559l-12 -48h386l-75 -301h-386l-71 -287h549zM1027 20q148 0 276.5 104t165.5 250l170 683q11 47 11 86q0 112 -74 185.5t-195 73.5h-988l-115 -461h-200l-55 -221h200l-174 -700h978zM1064 353h-601l91 367h386
l55 221h-386l32 128h591q31 0 46 -18.5t15 -40.5q0 -10 -3 -19l-142 -571q-7 -27 -30.5 -47t-53.5 -20zM1027 -20h-1030l174 700h-200l75 301h200l115 461h1020q142 0 225.5 -88t83.5 -211q0 -48 -13 -96l-170 -683q-40 -161 -180 -272.5t-300 -111.5z" />
    <glyph glyph-name="dcroat" unicode="&#x111;" horiz-adv-x="1673" 
d="M1064 393q15 0 28 11t18 26l142 571l1 9q0 19 -21 19h-559l-12 -48h386l-75 -301h-386l-71 -287h549zM1027 20q148 0 276.5 104t165.5 250l170 683q11 47 11 86q0 112 -74 185.5t-195 73.5h-988l-115 -461h-200l-55 -221h200l-174 -700h978zM1064 353h-601l91 367h386
l55 221h-386l32 128h591q31 0 46 -18.5t15 -40.5q0 -10 -3 -19l-142 -571q-7 -27 -30.5 -47t-53.5 -20zM1027 -20h-1030l174 700h-200l75 301h200l115 461h1020q142 0 225.5 -88t83.5 -211q0 -48 -13 -96l-170 -683q-40 -161 -180 -272.5t-300 -111.5z" />
    <glyph glyph-name="Emacron" unicode="&#x112;" 
d="M551 941l-1 -6q0 -10 3.5 -13.5t13.5 -3.5h979l-103 -413q-651 0 -969 -1q-32 0 -40 -33l-14 -55l-1 -6q0 -10 3.5 -13.5t13.5 -3.5h979l-103 -413h-1014q-137 0 -225 87.5t-88 217.5q0 47 12 96l37 145q24 104 96 189q-14 39 -14 95q0 48 12 96l36 145q20 79 68.5 151
t115.5 126q146 114 305 114h1023l-103 -413h-968q-32 0 -40 -33zM512 951l14 55q7 25 30.5 44t48.5 19h937l83 333h-972q-147 0 -280 -106t-170 -255l-36 -145q-11 -46 -11 -86q0 -49 19 -103q-80 -94 -102 -191l-37 -145q-11 -41 -11 -86q0 -118 74.5 -191.5t198.5 -73.5
h983l83 333h-928q-22 0 -39.5 17.5t-17.5 39.5q0 4 2 16l14 55q7 25 30.5 44t48.5 19q318 1 938 1l83 333h-928q-23 0 -40 17t-17 40q0 4 2 16zM1474 1607l52 208h-708l-52 -208h708zM1505 1567h-790l72 288h790z" />
    <glyph glyph-name="emacron" unicode="&#x113;" 
d="M551 941l-1 -6q0 -10 3.5 -13.5t13.5 -3.5h979l-103 -413q-651 0 -969 -1q-32 0 -40 -33l-14 -55l-1 -6q0 -10 3.5 -13.5t13.5 -3.5h979l-103 -413h-1014q-137 0 -225 87.5t-88 217.5q0 47 12 96l37 145q24 104 96 189q-14 39 -14 95q0 48 12 96l36 145q20 79 68.5 151
t115.5 126q146 114 305 114h1023l-103 -413h-968q-32 0 -40 -33zM512 951l14 55q7 25 30.5 44t48.5 19h937l83 333h-972q-147 0 -280 -106t-170 -255l-36 -145q-11 -46 -11 -86q0 -49 19 -103q-80 -94 -102 -191l-37 -145q-11 -41 -11 -86q0 -118 74.5 -191.5t198.5 -73.5
h983l83 333h-928q-22 0 -39.5 17.5t-17.5 39.5q0 4 2 16l14 55q7 25 30.5 44t48.5 19q318 1 938 1l83 333h-928q-23 0 -40 17t-17 40q0 4 2 16zM1474 1607l52 208h-708l-52 -208h708zM1505 1567h-790l72 288h790z" />
    <glyph glyph-name="Edotaccent" unicode="&#x116;" 
d="M551 941l-1 -6q0 -10 3.5 -13.5t13.5 -3.5h979l-103 -413q-651 0 -969 -1q-32 0 -40 -33l-14 -55l-1 -6q0 -10 3.5 -13.5t13.5 -3.5h979l-103 -413h-1014q-137 0 -225 87.5t-88 217.5q0 47 12 96l37 145q24 104 96 189q-14 39 -14 95q0 48 12 96l36 145q20 79 68.5 151
t115.5 126q146 114 305 114h1023l-103 -413h-968q-32 0 -40 -33zM512 951l14 55q7 25 30.5 44t48.5 19h937l83 333h-972q-147 0 -280 -106t-170 -255l-36 -145q-11 -46 -11 -86q0 -49 19 -103q-80 -94 -102 -191l-37 -145q-11 -41 -11 -86q0 -118 74.5 -191.5t198.5 -73.5
h983l83 333h-928q-22 0 -39.5 17.5t-17.5 39.5q0 4 2 16l14 55q7 25 30.5 44t48.5 19q318 1 938 1l83 333h-928q-23 0 -40 17t-17 40q0 4 2 16zM1224 1607l52 208h-208l-52 -208h208zM1255 1567h-290l72 288h290z" />
    <glyph glyph-name="edotaccent" unicode="&#x117;" 
d="M551 941l-1 -6q0 -10 3.5 -13.5t13.5 -3.5h979l-103 -413q-651 0 -969 -1q-32 0 -40 -33l-14 -55l-1 -6q0 -10 3.5 -13.5t13.5 -3.5h979l-103 -413h-1014q-137 0 -225 87.5t-88 217.5q0 47 12 96l37 145q24 104 96 189q-14 39 -14 95q0 48 12 96l36 145q20 79 68.5 151
t115.5 126q146 114 305 114h1023l-103 -413h-968q-32 0 -40 -33zM512 951l14 55q7 25 30.5 44t48.5 19h937l83 333h-972q-147 0 -280 -106t-170 -255l-36 -145q-11 -46 -11 -86q0 -49 19 -103q-80 -94 -102 -191l-37 -145q-11 -41 -11 -86q0 -118 74.5 -191.5t198.5 -73.5
h983l83 333h-928q-22 0 -39.5 17.5t-17.5 39.5q0 4 2 16l14 55q7 25 30.5 44t48.5 19q318 1 938 1l83 333h-928q-23 0 -40 17t-17 40q0 4 2 16zM1224 1607l52 208h-208l-52 -208h208zM1255 1567h-290l72 288h290z" />
    <glyph glyph-name="Ecaron" unicode="&#x11a;" 
d="M1081 1470q123 0 202 81l233 264h-225l-162 -183l-70 183h-235l103 -270q35 -75 154 -75zM1281 20l83 333h-928q-23 0 -40 17.5t-17 39.5q0 8 16 71q7 26 30.5 44.5t48.5 18.5l938 1l83 333h-928q-23 0 -40 17.5t-17 39.5q0 8 16 71q7 25 30.5 44t48.5 19h937l83 333
h-972q-142 0 -274.5 -101t-175.5 -260l-36 -145q-11 -46 -11 -86q0 -52 19 -103q-81 -96 -102 -191l-37 -145q-11 -46 -11 -86q0 -115 72.5 -190t200.5 -75h983zM1312 -20h-1014q-141 0 -227 88.5t-86 216.5q0 47 12 96l37 145q28 108 96 189q-14 42 -14 95q0 46 12 96
l36 145q47 168 187 279.5t302 111.5h346q-39 12 -68.5 36t-40.5 52l-124 325h321l56 -147l129 147h333l-292 -331q-24 -26 -63.5 -49t-78.5 -33h505l-103 -413h-968q-29 0 -40 -33l-15 -61q0 -17 13 -17h983l-103 -413l-969 -1q-30 0 -40 -33l-15 -61q0 -17 13 -17h983z" />
    <glyph glyph-name="ecaron" unicode="&#x11b;" 
d="M1081 1470q123 0 202 81l233 264h-225l-162 -183l-70 183h-235l103 -270q35 -75 154 -75zM1281 20l83 333h-928q-23 0 -40 17.5t-17 39.5q0 8 16 71q7 26 30.5 44.5t48.5 18.5l938 1l83 333h-928q-23 0 -40 17.5t-17 39.5q0 8 16 71q7 25 30.5 44t48.5 19h937l83 333
h-972q-142 0 -274.5 -101t-175.5 -260l-36 -145q-11 -46 -11 -86q0 -52 19 -103q-81 -96 -102 -191l-37 -145q-11 -46 -11 -86q0 -115 72.5 -190t200.5 -75h983zM1312 -20h-1014q-141 0 -227 88.5t-86 216.5q0 47 12 96l37 145q28 108 96 189q-14 42 -14 95q0 46 12 96
l36 145q47 168 187 279.5t302 111.5h346q-39 12 -68.5 36t-40.5 52l-124 325h321l56 -147l129 147h333l-292 -331q-24 -26 -63.5 -49t-78.5 -33h505l-103 -413h-968q-29 0 -40 -33l-15 -61q0 -17 13 -17h983l-103 -413l-969 -1q-30 0 -40 -33l-15 -61q0 -17 13 -17h983z" />
    <glyph glyph-name="Gcircumflex" unicode="&#x11c;" horiz-adv-x="1572" 
d="M566 1002l-145 -580q-1 -3 -1 -7q0 -10 3.5 -13t14.5 -3h563l22 88q1 3 1 7q0 10 -3.5 13t-13.5 3h-485l103 413h520q137 0 225 -87.5t88 -217.5q0 -46 -12 -96l-134 -536h-1012q-137 0 -225.5 87t-88.5 217q0 48 12 97l167 670q41 161 185 276t304 115h1004l-103 -413
h-948q-33 0 -41 -33zM527 1012q6 25 30.5 44t49.5 19h917l83 333h-953q-150 0 -281.5 -105t-168.5 -256l-167 -670q-11 -41 -11 -87q0 -117 74.5 -190.5t199.5 -73.5h981l126 506q11 41 11 86q0 118 -74.5 191.5t-198.5 73.5h-489l-83 -333h434q23 0 40 -17t17 -39
q0 -7 -2 -17l-30 -118h-594q-23 0 -40.5 17t-17.5 39q0 7 2 17zM1009 1530h-331l291 331q38 42 101.5 68t130.5 26t121 -27.5t71 -72.5l124 -325h-322l-56 147zM991 1570l162 183l70 -183h236l-104 270q-13 35 -53.5 55t-100.5 20q-61 0 -115.5 -22t-86.5 -59l-233 -264h225
z" />
    <glyph glyph-name="gcircumflex" unicode="&#x11d;" horiz-adv-x="1572" 
d="M566 1002l-145 -580q-1 -3 -1 -7q0 -10 3.5 -13t14.5 -3h563l22 88q1 3 1 7q0 10 -3.5 13t-13.5 3h-485l103 413h520q137 0 225 -87.5t88 -217.5q0 -46 -12 -96l-134 -536h-1012q-137 0 -225.5 87t-88.5 217q0 48 12 97l167 670q41 161 185 276t304 115h1004l-103 -413
h-948q-33 0 -41 -33zM527 1012q6 25 30.5 44t49.5 19h917l83 333h-953q-150 0 -281.5 -105t-168.5 -256l-167 -670q-11 -41 -11 -87q0 -117 74.5 -190.5t199.5 -73.5h981l126 506q11 41 11 86q0 118 -74.5 191.5t-198.5 73.5h-489l-83 -333h434q23 0 40 -17t17 -39
q0 -7 -2 -17l-30 -118h-594q-23 0 -40.5 17t-17.5 39q0 7 2 17zM1009 1530h-331l291 331q38 42 101.5 68t130.5 26t121 -27.5t71 -72.5l124 -325h-322l-56 147zM991 1570l162 183l70 -183h236l-104 270q-13 35 -53.5 55t-100.5 20q-61 0 -115.5 -22t-86.5 -59l-233 -264h225
z" />
    <glyph glyph-name="Gdotaccent" unicode="&#x120;" horiz-adv-x="1572" 
d="M566 1002l-145 -580q-1 -3 -1 -7q0 -10 3.5 -13t14.5 -3h563l22 88q1 3 1 7q0 10 -3.5 13t-13.5 3h-485l103 413h520q137 0 225 -87.5t88 -217.5q0 -46 -12 -96l-134 -536h-1012q-137 0 -225.5 87t-88.5 217q0 48 12 97l167 670q41 161 185 276t304 115h1004l-103 -413
h-948q-33 0 -41 -33zM527 1012q6 25 30.5 44t49.5 19h917l83 333h-953q-150 0 -281.5 -105t-168.5 -256l-167 -670q-11 -41 -11 -87q0 -117 74.5 -190.5t199.5 -73.5h981l126 506q11 41 11 86q0 118 -74.5 191.5t-198.5 73.5h-489l-83 -333h434q23 0 40 -17t17 -39
q0 -7 -2 -17l-30 -118h-594q-23 0 -40.5 17t-17.5 39q0 7 2 17zM1222 1607l52 208h-207l-52 -208h207zM1254 1567h-290l71 288h291z" />
    <glyph glyph-name="gdotaccent" unicode="&#x121;" horiz-adv-x="1572" 
d="M566 1002l-145 -580q-1 -3 -1 -7q0 -10 3.5 -13t14.5 -3h563l22 88q1 3 1 7q0 10 -3.5 13t-13.5 3h-485l103 413h520q137 0 225 -87.5t88 -217.5q0 -46 -12 -96l-134 -536h-1012q-137 0 -225.5 87t-88.5 217q0 48 12 97l167 670q41 161 185 276t304 115h1004l-103 -413
h-948q-33 0 -41 -33zM527 1012q6 25 30.5 44t49.5 19h917l83 333h-953q-150 0 -281.5 -105t-168.5 -256l-167 -670q-11 -41 -11 -87q0 -117 74.5 -190.5t199.5 -73.5h981l126 506q11 41 11 86q0 118 -74.5 191.5t-198.5 73.5h-489l-83 -333h434q23 0 40 -17t17 -39
q0 -7 -2 -17l-30 -118h-594q-23 0 -40.5 17t-17.5 39q0 7 2 17zM1222 1607l52 208h-207l-52 -208h207zM1254 1567h-290l71 288h291z" />
    <glyph glyph-name="Hcircumflex" unicode="&#x124;" 
d="M1131 918l131 524h414l-365 -1462h-414l131 524h-586l-131 -524h-414l364 1462h414l-130 -524h586zM1162 878h-669l131 524h-331l-345 -1382h332l130 524h669l-130 -524h331l344 1382h-331zM900 1530h-332l292 331q37 42 101 68t130 26q68 0 121.5 -27.5t70.5 -72.5
l124 -325h-321l-56 147zM882 1570l161 183l70 -183h236l-103 270q-13 35 -54 55t-101 20t-114.5 -22t-86.5 -59l-233 -264h225z" />
    <glyph glyph-name="hcircumflex" unicode="&#x125;" 
d="M1131 918l131 524h414l-365 -1462h-414l131 524h-586l-131 -524h-414l364 1462h414l-130 -524h586zM1162 878h-669l131 524h-331l-345 -1382h332l130 524h669l-130 -524h331l344 1382h-331zM900 1530h-332l292 331q37 42 101 68t130 26q68 0 121.5 -27.5t70.5 -72.5
l124 -325h-321l-56 147zM882 1570l161 183l70 -183h236l-103 270q-13 35 -54 55t-101 20t-114.5 -22t-86.5 -59l-233 -264h225z" />
    <glyph glyph-name="Hbar" unicode="&#x126;" horiz-adv-x="1589" 
d="M1131 918l28 112h-586l-28 -112h586zM1280 20l262 1050h143l55 221h-143l28 111h-332l-28 -111h-668l28 111h-332l-28 -111h-128l-55 -221h128l-262 -1050h332l131 524h668l-131 -524h332zM1162 878h-668l48 192h668zM1311 -20h-414l131 524h-586l-131 -524h-414
l262 1050h-128l75 301h128l28 111h414l-28 -111h586l28 111h414l-28 -111h143l-75 -301h-143z" />
    <glyph glyph-name="hbar" unicode="&#x127;" horiz-adv-x="1589" 
d="M1131 918l28 112h-586l-28 -112h586zM1280 20l262 1050h143l55 221h-143l28 111h-332l-28 -111h-668l28 111h-332l-28 -111h-128l-55 -221h128l-262 -1050h332l131 524h668l-131 -524h332zM1162 878h-668l48 192h668zM1311 -20h-414l131 524h-586l-131 -524h-414
l262 1050h-128l75 301h128l28 111h414l-28 -111h586l28 111h414l-28 -111h143l-75 -301h-143z" />
    <glyph glyph-name="Itilde" unicode="&#x128;" horiz-adv-x="572" 
d="M-103 -20l364 1462h414l-364 -1462h-414zM-52 20h332l344 1382h-331zM814 1853h254l-30 -123q-21 -84 -112 -144.5t-195 -60.5h-124q-79 4 -135.5 45.5t-65.5 103.5l-1 3q-1 22 -35 22h-29q-23 0 -40 -10.5t-21 -27.5l-21 -81h-254l31 123q21 84 111.5 144.5t194.5 60.5
h125q78 -4 134.5 -45.5t66.5 -103.5l1 -3q1 -22 34 -22h30q23 0 40 10.5t21 27.5zM846 1813l-13 -50q-7 -28 -37 -48.5t-63 -20.5h-30q-27 0 -49.5 16.5t-24.5 39.5v2q-8 51 -51 81.5t-112 34.5h-124q-94 0 -171.5 -50.5t-95.5 -124.5l-18 -73h171l13 51q7 27 37 47.5
t63 20.5h29q28 0 50.5 -16.5t24.5 -40.5v-1q8 -51 51 -82t112 -34h124q94 0 171.5 50.5t95.5 124.5l18 73h-171z" />
    <glyph glyph-name="itilde" unicode="&#x129;" horiz-adv-x="572" 
d="M-103 -20l364 1462h414l-364 -1462h-414zM-52 20h332l344 1382h-331zM814 1853h254l-30 -123q-21 -84 -112 -144.5t-195 -60.5h-124q-79 4 -135.5 45.5t-65.5 103.5l-1 3q-1 22 -35 22h-29q-23 0 -40 -10.5t-21 -27.5l-21 -81h-254l31 123q21 84 111.5 144.5t194.5 60.5
h125q78 -4 134.5 -45.5t66.5 -103.5l1 -3q1 -22 34 -22h30q23 0 40 10.5t21 27.5zM846 1813l-13 -50q-7 -28 -37 -48.5t-63 -20.5h-30q-27 0 -49.5 16.5t-24.5 39.5v2q-8 51 -51 81.5t-112 34.5h-124q-94 0 -171.5 -50.5t-95.5 -124.5l-18 -73h171l13 51q7 27 37 47.5
t63 20.5h29q28 0 50.5 -16.5t24.5 -40.5v-1q8 -51 51 -82t112 -34h124q94 0 171.5 50.5t95.5 124.5l18 73h-171z" />
    <glyph glyph-name="Imacron" unicode="&#x12a;" horiz-adv-x="573" 
d="M-103 -20l364 1462h414l-364 -1462h-414zM-52 20h332l344 1382h-331zM863 1607l52 208h-707l-52 -208h707zM895 1567h-790l71 288h791z" />
    <glyph glyph-name="imacron" unicode="&#x12b;" horiz-adv-x="573" 
d="M-103 -20l364 1462h414l-364 -1462h-414zM-52 20h332l344 1382h-331zM863 1607l52 208h-707l-52 -208h707zM895 1567h-790l71 288h791z" />
    <glyph glyph-name="Idotaccent" unicode="&#x130;" horiz-adv-x="573" 
d="M-103 -20l364 1462h414l-364 -1462h-414zM-52 20h332l344 1382h-331zM613 1607l52 208h-207l-52 -208h207zM645 1567h-290l71 288h291z" />
    <glyph glyph-name="idotless" unicode="&#x131;" horiz-adv-x="573" 
d="M-103 -20l365 1462h413l-364 -1462h-414zM-52 20h332l344 1382h-331z" />
    <glyph glyph-name="Jcircumflex" unicode="&#x134;" 
d="M1676 1442l-267 -1071q-20 -79 -68.5 -151.5t-114.5 -125.5q-145 -114 -306 -114h-1023l103 413h968q12 0 25 9q12 11 15 24l254 1016h414zM1625 1402h-332l-246 -986q-6 -26 -29 -45q-23 -18 -50 -18h-937l-83 -333h972q148 0 281 106q132 106 169 255zM1411 1530h-332
l291 331q38 42 101.5 68t130.5 26q68 0 121.5 -27.5t70.5 -72.5l124 -325h-322l-56 147zM1393 1570l161 183l70 -183h236l-104 270q-13 35 -53.5 55t-100.5 20q-61 0 -115 -21.5t-87 -59.5l-233 -264h226z" />
    <glyph glyph-name="jcircumflex" unicode="&#x135;" 
d="M1676 1442l-267 -1071q-20 -79 -68.5 -151.5t-114.5 -125.5q-145 -114 -306 -114h-1023l103 413h968q12 0 25 9q12 11 15 24l254 1016h414zM1625 1402h-332l-246 -986q-6 -26 -29 -45q-23 -18 -50 -18h-937l-83 -333h972q148 0 281 106q132 106 169 255zM1411 1530h-332
l291 331q38 42 101.5 68t130.5 26q68 0 121.5 -27.5t70.5 -72.5l124 -325h-322l-56 147zM1393 1570l161 183l70 -183h236l-104 270q-13 35 -53.5 55t-100.5 20q-61 0 -115 -21.5t-87 -59.5l-233 -264h226z" />
    <glyph glyph-name="Lmiddledot" unicode="&#x13f;" 
d="M261 1442h415l-257 -1026v-7q0 -6 3 -10q4 -6 14 -6h979l-103 -413h-1014q-80 0 -146.5 31.5t-107.5 86.5q-59 78 -59 187q0 47 12 96zM293 1402l-258 -1031q-10 -43 -10 -86q0 -95 51 -163q76 -102 222 -102h982l83 333h-927q-31 0 -46 22q-11 13 -11 34q0 11 2 17
l243 976h-331zM831 920h351l-87 -351h-352zM857 886l-70 -283h281l71 283h-282z" />
    <glyph glyph-name="lmiddledot" unicode="&#x140;" 
d="M261 1442h415l-257 -1026v-7q0 -6 3 -10q4 -6 14 -6h979l-103 -413h-1014q-80 0 -146.5 31.5t-107.5 86.5q-59 78 -59 187q0 47 12 96zM293 1402l-258 -1031q-10 -43 -10 -86q0 -95 51 -163q76 -102 222 -102h982l83 333h-927q-31 0 -46 22q-11 13 -11 34q0 11 2 17
l243 976h-331zM831 920h351l-87 -351h-352zM857 886l-70 -283h281l71 283h-282z" />
    <glyph glyph-name="Lslash" unicode="&#x141;" horiz-adv-x="1886" 
d="M1593 20l83 333h-926q-26 0 -42 15.5t-16 39.5q0 9 3 18l94 378l451 244l43 172l-451 -244l105 426h-331l-158 -633l-385 -208l-43 -172l386 208l-58 -226q-10 -41 -10 -84q0 -121 77.5 -194t196.5 -73h981zM1625 -20h-1013q-146 0 -230 89.5t-84 217.5q0 45 12 94
l34 138l-384 -208l69 276l385 208l160 647h415l-97 -388l451 244l-69 -276l-451 -244l-90 -362l-1 -8q0 -15 18 -15h978z" />
    <glyph glyph-name="lslash" unicode="&#x142;" horiz-adv-x="1886" 
d="M1593 20l83 333h-926q-26 0 -42 15.5t-16 39.5q0 9 3 18l94 378l451 244l43 172l-451 -244l105 426h-331l-158 -633l-385 -208l-43 -172l386 208l-58 -226q-10 -41 -10 -84q0 -121 77.5 -194t196.5 -73h981zM1625 -20h-1013q-146 0 -230 89.5t-84 217.5q0 45 12 94
l34 138l-384 -208l69 276l385 208l160 647h415l-97 -388l451 244l-69 -276l-451 -244l-90 -362l-1 -8q0 -15 18 -15h978z" />
    <glyph glyph-name="Ncaron" unicode="&#x147;" horiz-adv-x="1705" 
d="M-103 -20l266 1071q20 79 68.5 151t115.5 126q144 114 306 114h188q79 0 146 -31.5t108 -86.5q59 -80 59 -187q0 -47 -12 -96l-156 -625q-1 -3 -1 -8q0 -6 2 -9q6 -6 16 -6h97q12 0 25 10q12 8 15 23l254 1016h414l-267 -1071q-20 -79 -68.5 -151.5t-114.5 -125.5
q-67 -53 -147 -83.5t-158 -30.5h-188q-80 0 -147 31.5t-107 86.5q-60 79 -60 187q0 47 12 96l156 625l1 6q0 5 -3 11q-5 6 -14 6h-98q-13 0 -26 -10q-12 -11 -15 -23l-254 -1016h-413zM-52 20h331l246 986q6 23 29 45q28 18 51 18h98q29 0 45 -22q12 -15 12 -35q0 -6 -2 -16
l-156 -625q-11 -41 -11 -86q0 -94 52 -163q77 -102 222 -102h188q149 0 280 106q132 105 169 255l255 1021h-332l-246 -986q-7 -28 -29 -45q-21 -18 -50 -18h-97q-30 0 -47 22q-11 15 -11 33q0 8 2 18l156 625q11 47 11 86q0 93 -51 163q-78 102 -222 102h-188
q-150 0 -281 -106q-133 -106 -170 -255zM1052 1855l56 -147l130 147h332l-291 -331q-37 -42 -101.5 -68t-130.5 -26q-68 0 -121.5 27.5t-70.5 72.5l-124 325h321zM1025 1815h-236l103 -270q14 -35 55 -55t100 -20q61 0 115 21.5t87 59.5l232 264h-225l-161 -183z" />
    <glyph glyph-name="ncaron" unicode="&#x148;" horiz-adv-x="1705" 
d="M-103 -20l266 1071q20 79 68.5 151t115.5 126q144 114 306 114h188q79 0 146 -31.5t108 -86.5q59 -80 59 -187q0 -47 -12 -96l-156 -625q-1 -3 -1 -8q0 -6 2 -9q6 -6 16 -6h97q12 0 25 10q12 8 15 23l254 1016h414l-267 -1071q-20 -79 -68.5 -151.5t-114.5 -125.5
q-67 -53 -147 -83.5t-158 -30.5h-188q-80 0 -147 31.5t-107 86.5q-60 79 -60 187q0 47 12 96l156 625l1 6q0 5 -3 11q-5 6 -14 6h-98q-13 0 -26 -10q-12 -11 -15 -23l-254 -1016h-413zM-52 20h331l246 986q6 23 29 45q28 18 51 18h98q29 0 45 -22q12 -15 12 -35q0 -6 -2 -16
l-156 -625q-11 -41 -11 -86q0 -94 52 -163q77 -102 222 -102h188q149 0 280 106q132 105 169 255l255 1021h-332l-246 -986q-7 -28 -29 -45q-21 -18 -50 -18h-97q-30 0 -47 22q-11 15 -11 33q0 8 2 18l156 625q11 47 11 86q0 93 -51 163q-78 102 -222 102h-188
q-150 0 -281 -106q-133 -106 -170 -255zM1052 1855l56 -147l130 147h332l-291 -331q-37 -42 -101.5 -68t-130.5 -26q-68 0 -121.5 27.5t-70.5 72.5l-124 325h321zM1025 1815h-236l103 -270q14 -35 55 -55t100 -20q61 0 115 21.5t87 59.5l232 264h-225l-161 -183z" />
    <glyph glyph-name="Omacron" unicode="&#x14c;" 
d="M1275 1442q80 0 146.5 -31.5t107.5 -86.5q59 -78 59 -187q0 -44 -11 -96l-167 -670q-20 -79 -68.5 -151t-115.5 -126q-145 -114 -306 -114h-622q-80 0 -146.5 31.5t-107.5 86.5q-59 80 -59 187q0 47 12 96l167 670q20 79 68.5 151.5t115.5 125.5q144 114 305 114h622z
M1193 996l-146 -580q-4 -15 -11 -26q-3 -3 -8.5 -9.5t-8.5 -9.5q-16 -10 -24 -14q-12 -4 -27 -4h-532q-11 0 -26 5q-14 10 -20 17q-8 11 -11 24v8q0 6 2 18l145 581q6 26 28 44q22 19 51 19h532q32 0 46 -22q12 -15 12 -35q0 -6 -2 -16zM1275 1402h-622q-150 0 -280 -106
q-133 -106 -170 -255l-167 -670q-11 -41 -11 -86q0 -93 51 -163q76 -102 222 -102h622q150 0 281 106q133 107 170 255l167 670q10 43 10 86q0 95 -51 163q-77 102 -222 102zM1154 1006l1 6q0 6 -4 11q-4 6 -14 6h-532q-13 0 -25 -9q-12 -12 -15 -24l-145 -579q-1 -4 -1 -9
v-3q0 -1 3 -6q4 -4 6 -5t8 -1h532q7 0 11 2q10 4 14 8q6 5 11 11q2 3 5 12zM1364 1607l52 208h-708l-52 -208h708zM1395 1567h-790l72 288h790z" />
    <glyph glyph-name="omacron" unicode="&#x14d;" 
d="M1275 1442q80 0 146.5 -31.5t107.5 -86.5q59 -78 59 -187q0 -44 -11 -96l-167 -670q-20 -79 -68.5 -151t-115.5 -126q-145 -114 -306 -114h-622q-80 0 -146.5 31.5t-107.5 86.5q-59 80 -59 187q0 47 12 96l167 670q20 79 68.5 151.5t115.5 125.5q144 114 305 114h622z
M1193 996l-146 -580q-4 -15 -11 -26q-3 -3 -8.5 -9.5t-8.5 -9.5q-16 -10 -24 -14q-12 -4 -27 -4h-532q-11 0 -26 5q-14 10 -20 17q-8 11 -11 24v8q0 6 2 18l145 581q6 26 28 44q22 19 51 19h532q32 0 46 -22q12 -15 12 -35q0 -6 -2 -16zM1275 1402h-622q-150 0 -280 -106
q-133 -106 -170 -255l-167 -670q-11 -41 -11 -86q0 -93 51 -163q76 -102 222 -102h622q150 0 281 106q133 107 170 255l167 670q10 43 10 86q0 95 -51 163q-77 102 -222 102zM1154 1006l1 6q0 6 -4 11q-4 6 -14 6h-532q-13 0 -25 -9q-12 -12 -15 -24l-145 -579q-1 -4 -1 -9
v-3q0 -1 3 -6q4 -4 6 -5t8 -1h532q7 0 11 2q10 4 14 8q6 5 11 11q2 3 5 12zM1364 1607l52 208h-708l-52 -208h708zM1395 1567h-790l72 288h790z" />
    <glyph glyph-name="OE" unicode="&#x152;" horiz-adv-x="2580" 
d="M968 393q27 0 41 33l144 580l1 8q0 15 -18 15h-531q-13 0 -25 -10t-16 -23l-144 -580l-1 -9q0 -14 18 -14h531zM968 353h-531q-22 0 -40 14.5t-18 38.5q0 10 3 20l144 580q6 26 29 44.5t50 18.5h531q26 0 42 -16.5t16 -38.5q0 -9 -3 -18l-144 -580q-7 -29 -29 -46
t-50 -17zM2287 20l83 333h-927q-29 0 -43.5 17.5t-14.5 37.5q0 9 3 18l13 55q6 26 28.5 44.5t50.5 18.5l938 1l83 333h-927q-29 0 -43.5 17.5t-14.5 37.5q0 9 3 18l13 55q6 26 28.5 44.5t50.5 18.5h937l83 333h-972q-101 0 -206 -56q-82 56 -179 56h-621q-154 0 -284 -108
t-166 -253l-168 -670q-10 -41 -10 -84q0 -120 76.5 -193.5t197.5 -73.5h621q99 0 206 56q36 -22 55 -31.5t50.5 -17t73.5 -7.5h982zM2319 -20h-1014q-105 0 -182 50q-98 -50 -203 -50h-621q-147 0 -230.5 88.5t-83.5 218.5q0 45 12 94l168 670q25 106 99 196t178 142.5
t211 52.5h621q111 0 181 -50q102 50 204 50h1024l-103 -413h-969q-13 0 -25 -9.5t-16 -23.5l-13 -55l-1 -8q0 -15 18 -15h979l-103 -413l-970 -1q-13 0 -25 -9.5t-16 -23.5l-13 -55l-1 -8q0 -15 18 -15h979z" />
    <glyph glyph-name="oe" unicode="&#x153;" horiz-adv-x="2580" 
d="M968 393q27 0 41 33l144 580l1 8q0 15 -18 15h-531q-13 0 -25 -10t-16 -23l-144 -580l-1 -9q0 -14 18 -14h531zM968 353h-531q-22 0 -40 14.5t-18 38.5q0 10 3 20l144 580q6 26 29 44.5t50 18.5h531q26 0 42 -16.5t16 -38.5q0 -9 -3 -18l-144 -580q-7 -29 -29 -46
t-50 -17zM2287 20l83 333h-927q-29 0 -43.5 17.5t-14.5 37.5q0 9 3 18l13 55q6 26 28.5 44.5t50.5 18.5l938 1l83 333h-927q-29 0 -43.5 17.5t-14.5 37.5q0 9 3 18l13 55q6 26 28.5 44.5t50.5 18.5h937l83 333h-972q-101 0 -206 -56q-82 56 -179 56h-621q-154 0 -284 -108
t-166 -253l-168 -670q-10 -41 -10 -84q0 -120 76.5 -193.5t197.5 -73.5h621q99 0 206 56q36 -22 55 -31.5t50.5 -17t73.5 -7.5h982zM2319 -20h-1014q-105 0 -182 50q-98 -50 -203 -50h-621q-147 0 -230.5 88.5t-83.5 218.5q0 45 12 94l168 670q25 106 99 196t178 142.5
t211 52.5h621q111 0 181 -50q102 50 204 50h1024l-103 -413h-969q-13 0 -25 -9.5t-16 -23.5l-13 -55l-1 -8q0 -15 18 -15h979l-103 -413l-970 -1q-13 0 -25 -9.5t-16 -23.5l-13 -55l-1 -8q0 -15 18 -15h979z" />
    <glyph glyph-name="Rcaron" unicode="&#x158;" 
d="M1029 645q14 1 27 12t17 26l79 319l1 8q0 20 -20 20h-561l-96 -385h553zM1030 605h-605l116 465h592q27 0 43.5 -17t16.5 -43q0 -4 -2 -18l-79 -319q-21 -62 -82 -68zM930 1470q121 0 202 81l232 264h-225l-161 -183l-70 183h-236l103 -270q35 -75 155 -75zM1280 20
l59 235q11 48 11 103q-2 37 -18 83q77 94 99 186l108 431q11 46 11 84q0 111 -71 185.5t-197 74.5h-990l-344 -1382h332l62 253h602q26 -3 39 -19.5t13 -37.5q0 -4 -2 -16l-45 -180h331zM1311 -20h-413l58 236q0 8 -4.5 12.5t-8.5 4.5h-570l-62 -253h-414l364 1462h586
q-84 27 -109 88l-124 325h321l56 -147l130 147h332l-291 -331q-51 -56 -143 -82h263q140 0 224 -86.5t84 -213.5q0 -44 -12 -94l-108 -431q-27 -106 -93 -184q13 -43 13 -87q0 -48 -12 -101z" />
    <glyph glyph-name="rcaron" unicode="&#x159;" 
d="M1029 645q14 1 27 12t17 26l79 319l1 8q0 20 -20 20h-561l-96 -385h553zM1030 605h-605l116 465h592q27 0 43.5 -17t16.5 -43q0 -4 -2 -18l-79 -319q-21 -62 -82 -68zM930 1470q121 0 202 81l232 264h-225l-161 -183l-70 183h-236l103 -270q35 -75 155 -75zM1280 20
l59 235q11 48 11 103q-2 37 -18 83q77 94 99 186l108 431q11 46 11 84q0 111 -71 185.5t-197 74.5h-990l-344 -1382h332l62 253h602q26 -3 39 -19.5t13 -37.5q0 -4 -2 -16l-45 -180h331zM1311 -20h-413l58 236q0 8 -4.5 12.5t-8.5 4.5h-570l-62 -253h-414l364 1462h586
q-84 27 -109 88l-124 325h321l56 -147l130 147h332l-291 -331q-51 -56 -143 -82h263q140 0 224 -86.5t84 -213.5q0 -44 -12 -94l-108 -431q-27 -106 -93 -184q13 -43 13 -87q0 -48 -12 -101z" />
    <glyph glyph-name="Scircumflex" unicode="&#x15c;" horiz-adv-x="1572" 
d="M1022 481l1 7q0 6 -3 10q-5 6 -14 6l-577 1q-80 0 -147 31.5t-107 86.5q-60 79 -60 187q0 46 12 96l37 146q20 78 68.5 150.5t114.5 125.5q144 114 306 114h1022l-103 -412h-967q-33 0 -41 -33l-14 -56l-1 -7q0 -10 4 -13.5t14 -3.5h577q79 0 146 -31.5t108 -86.5
q59 -80 59 -187q0 -46 -12 -96l-36 -145q-20 -78 -68.5 -150t-115.5 -126q-144 -114 -305 -114h-1023l103 412h968q12 0 25 10q12 11 15 23zM1061 471l-14 -55q-6 -23 -29 -45q-26 -18 -50 -18h-937l-83 -332h972q149 0 280 106q133 106 170 254l36 145q11 41 11 86
q0 93 -51 163q-78 102 -222 102h-577q-24 0 -41 17.5t-17 39.5q0 5 2 17l14 56q7 25 30.5 44t49.5 19h936l83 332h-971q-150 0 -281 -106q-132 -105 -169 -254l-37 -146q-11 -41 -11 -86q0 -94 52 -163q77 -102 222 -102l577 -1q31 0 46 -22q11 -15 11 -34q0 -5 -2 -17z
M960 1530h-331l291 331q38 42 101.5 68t130.5 26t121 -27.5t71 -72.5l124 -325h-322l-56 147zM942 1570l162 183l69 -183h236l-103 270q-13 35 -53.5 55t-100.5 20q-61 0 -115.5 -22t-86.5 -59l-233 -264h225z" />
    <glyph glyph-name="scircumflex" unicode="&#x15d;" horiz-adv-x="1572" 
d="M1022 481l1 7q0 6 -3 10q-5 6 -14 6l-577 1q-80 0 -147 31.5t-107 86.5q-60 79 -60 187q0 46 12 96l37 146q20 78 68.5 150.5t114.5 125.5q144 114 306 114h1022l-103 -412h-967q-33 0 -41 -33l-14 -56l-1 -7q0 -10 4 -13.5t14 -3.5h577q79 0 146 -31.5t108 -86.5
q59 -80 59 -187q0 -46 -12 -96l-36 -145q-20 -78 -68.5 -150t-115.5 -126q-144 -114 -305 -114h-1023l103 412h968q12 0 25 10q12 11 15 23zM1061 471l-14 -55q-6 -23 -29 -45q-26 -18 -50 -18h-937l-83 -332h972q149 0 280 106q133 106 170 254l36 145q11 41 11 86
q0 93 -51 163q-78 102 -222 102h-577q-24 0 -41 17.5t-17 39.5q0 5 2 17l14 56q7 25 30.5 44t49.5 19h936l83 332h-971q-150 0 -281 -106q-132 -105 -169 -254l-37 -146q-11 -41 -11 -86q0 -94 52 -163q77 -102 222 -102l577 -1q31 0 46 -22q11 -15 11 -34q0 -5 -2 -17z
M960 1530h-331l291 331q38 42 101.5 68t130.5 26t121 -27.5t71 -72.5l124 -325h-322l-56 147zM942 1570l162 183l69 -183h236l-103 270q-13 35 -53.5 55t-100.5 20q-61 0 -115.5 -22t-86.5 -59l-233 -264h225z" />
    <glyph glyph-name="Scaron" unicode="&#x160;" horiz-adv-x="1572" 
d="M1031 1470q121 0 202 81l232 264h-225l-161 -183l-70 183h-236l103 -270q34 -75 155 -75zM920 21q148 0 277.5 103.5t172.5 256.5l36 145q11 46 11 86q0 121 -76.5 193t-196.5 72h-577q-24 0 -41 18t-17 39q0 5 2 17l14 56q8 25 31 44t49 19h936l83 332h-971
q-150 0 -279.5 -103.5t-170.5 -256.5l-37 -146q-11 -46 -11 -86q0 -110 71 -187.5t203 -77.5l577 -1q24 0 40.5 -16t16.5 -40q0 -8 -16 -72q-8 -29 -30 -46t-49 -17h-937l-83 -332h972zM920 -19h-1023l103 412h968q14 0 25.5 10t14.5 23l14 55l1 7q0 8 -3 10q-2 6 -14 6
l-577 1q-140 0 -227 87.5t-87 217.5q0 45 12 96l37 146q47 169 187 279.5t302 110.5h295q-38 12 -67.5 36.5t-41.5 51.5l-124 325h321l56 -147l130 147h332l-291 -331q-23 -26 -62.5 -49.5t-80.5 -32.5h555l-103 -412h-967q-31 0 -41 -33l-14 -56l-1 -7q0 -17 14 -17h581
q142 0 227.5 -88.5t85.5 -216.5q0 -45 -12 -96l-36 -145q-49 -172 -190 -281t-299 -109z" />
    <glyph glyph-name="scaron" unicode="&#x161;" horiz-adv-x="1572" 
d="M1031 1470q121 0 202 81l232 264h-225l-161 -183l-70 183h-236l103 -270q34 -75 155 -75zM920 21q148 0 277.5 103.5t172.5 256.5l36 145q11 46 11 86q0 121 -76.5 193t-196.5 72h-577q-24 0 -41 18t-17 39q0 5 2 17l14 56q8 25 31 44t49 19h936l83 332h-971
q-150 0 -279.5 -103.5t-170.5 -256.5l-37 -146q-11 -46 -11 -86q0 -110 71 -187.5t203 -77.5l577 -1q24 0 40.5 -16t16.5 -40q0 -8 -16 -72q-8 -29 -30 -46t-49 -17h-937l-83 -332h972zM920 -19h-1023l103 412h968q14 0 25.5 10t14.5 23l14 55l1 7q0 8 -3 10q-2 6 -14 6
l-577 1q-140 0 -227 87.5t-87 217.5q0 45 12 96l37 146q47 169 187 279.5t302 110.5h295q-38 12 -67.5 36.5t-41.5 51.5l-124 325h321l56 -147l130 147h332l-291 -331q-23 -26 -62.5 -49.5t-80.5 -32.5h555l-103 -412h-967q-31 0 -41 -33l-14 -56l-1 -7q0 -17 14 -17h581
q142 0 227.5 -88.5t85.5 -216.5q0 -45 -12 -96l-36 -145q-49 -172 -190 -281t-299 -109z" />
    <glyph glyph-name="Tcaron" unicode="&#x164;" 
d="M971 1470q121 0 202 81l232 264h-225l-161 -183l-70 183h-236l103 -270q35 -75 155 -75zM779 20l247 987q7 28 29.5 45.5t49.5 17.5h437l83 332h-1333l-83 -332h428q25 0 41 -16.5t16 -40.5q0 -4 -2 -16l-244 -977h331zM810 -20h-413l257 1033q0 17 -17 17h-479l103 412
h627q-83 27 -109 88l-124 325h321l56 -147l130 147h332l-291 -331q-51 -56 -143 -82h616l-103 -412h-468q-13 0 -25 -10t-15 -23z" />
    <glyph glyph-name="tcaron" unicode="&#x165;" 
d="M971 1470q121 0 202 81l232 264h-225l-161 -183l-70 183h-236l103 -270q35 -75 155 -75zM779 20l247 987q7 28 29.5 45.5t49.5 17.5h437l83 332h-1333l-83 -332h428q25 0 41 -16.5t16 -40.5q0 -4 -2 -16l-244 -977h331zM810 -20h-413l257 1033q0 17 -17 17h-479l103 412
h627q-83 27 -109 88l-124 325h321l56 -147l130 147h332l-291 -331q-51 -56 -143 -82h616l-103 -412h-468q-13 0 -25 -10t-15 -23z" />
    <glyph glyph-name="Tbar" unicode="&#x166;" horiz-adv-x="1574" 
d="M780 20l162 650h354l55 221h-354l30 116q7 27 29.5 45t49.5 18h437l82 332h-1332l-82 -332h426q24 0 41 -16t17 -40q0 -8 -3 -17l-26 -106h-369l-55 -221h369l-162 -650h331zM812 -20h-415l162 650h-369l75 301h369l21 83q0 16 -18 16h-478l102 412h1416l-102 -412h-469
q-13 0 -25 -9t-16 -24l-16 -66h354l-75 -301h-354z" />
    <glyph glyph-name="tbar" unicode="&#x167;" horiz-adv-x="1574" 
d="M780 20l162 650h354l55 221h-354l30 116q7 27 29.5 45t49.5 18h437l82 332h-1332l-82 -332h426q24 0 41 -16t17 -40q0 -8 -3 -17l-26 -106h-369l-55 -221h369l-162 -650h331zM812 -20h-415l162 650h-369l75 301h369l21 83q0 16 -18 16h-478l102 412h1416l-102 -412h-469
q-13 0 -25 -9t-16 -24l-16 -66h354l-75 -301h-354z" />
    <glyph glyph-name="Utilde" unicode="&#x168;" horiz-adv-x="1572" 
d="M973 411q7 0 11 3q14 4 23 17q5 8 6 13l253 1016h414l-267 -1071q-20 -79 -68.5 -151.5t-114.5 -125.5q-67 -53 -147 -83.5t-158 -30.5h-622q-80 0 -147 31.5t-107 86.5q-60 79 -60 187q0 47 12 96l265 1061h413l-255 -1026q-1 -3 -1 -7q0 -10 3.5 -13t14.5 -3h532z
M973 371h-532q-23 0 -40.5 17t-17.5 39q0 7 2 17l243 976h-331l-257 -1031q-11 -41 -11 -86q0 -94 52 -163q77 -102 222 -102h622q149 0 280 106q132 105 169 255l255 1021h-332l-245 -986q-5 -15 -12 -25q-15 -24 -41 -33q-12 -5 -26 -5zM1314 1853h254l-30 -123
q-21 -84 -112 -144.5t-195 -60.5h-124q-79 4 -135.5 45.5t-65.5 103.5l-1 3q-1 22 -35 22h-29q-24 0 -40.5 -10.5t-20.5 -27.5l-21 -81h-254l31 123q21 84 111.5 144.5t194.5 60.5h125q78 -4 134.5 -45.5t66.5 -103.5v-3q3 -22 35 -22h30q23 0 40 10.5t21 27.5zM1346 1813
l-13 -50q-7 -28 -37 -48.5t-63 -20.5h-30q-27 0 -49.5 16.5t-24.5 39.5v2q-8 50 -51.5 81t-111.5 35h-124q-94 0 -171.5 -50.5t-95.5 -124.5l-18 -73h171l13 51q7 27 37 47.5t63 20.5h29q28 0 50.5 -16.5t24.5 -40.5v-1q8 -51 51 -82t112 -34h124q94 0 171.5 50.5
t95.5 124.5l18 73h-171z" />
    <glyph glyph-name="utilde" unicode="&#x169;" horiz-adv-x="1572" 
d="M973 411q7 0 11 3q14 4 23 17q5 8 6 13l253 1016h414l-267 -1071q-20 -79 -68.5 -151.5t-114.5 -125.5q-67 -53 -147 -83.5t-158 -30.5h-622q-80 0 -147 31.5t-107 86.5q-60 79 -60 187q0 47 12 96l265 1061h413l-255 -1026q-1 -3 -1 -7q0 -10 3.5 -13t14.5 -3h532z
M973 371h-532q-23 0 -40.5 17t-17.5 39q0 7 2 17l243 976h-331l-257 -1031q-11 -41 -11 -86q0 -94 52 -163q77 -102 222 -102h622q149 0 280 106q132 105 169 255l255 1021h-332l-245 -986q-5 -15 -12 -25q-15 -24 -41 -33q-12 -5 -26 -5zM1314 1853h254l-30 -123
q-21 -84 -112 -144.5t-195 -60.5h-124q-79 4 -135.5 45.5t-65.5 103.5l-1 3q-1 22 -35 22h-29q-24 0 -40.5 -10.5t-20.5 -27.5l-21 -81h-254l31 123q21 84 111.5 144.5t194.5 60.5h125q78 -4 134.5 -45.5t66.5 -103.5v-3q3 -22 35 -22h30q23 0 40 10.5t21 27.5zM1346 1813
l-13 -50q-7 -28 -37 -48.5t-63 -20.5h-30q-27 0 -49.5 16.5t-24.5 39.5v2q-8 50 -51.5 81t-111.5 35h-124q-94 0 -171.5 -50.5t-95.5 -124.5l-18 -73h171l13 51q7 27 37 47.5t63 20.5h29q28 0 50.5 -16.5t24.5 -40.5v-1q8 -51 51 -82t112 -34h124q94 0 171.5 50.5
t95.5 124.5l18 73h-171z" />
    <glyph glyph-name="Umacron" unicode="&#x16a;" horiz-adv-x="1572" 
d="M973 411q7 0 11 3q14 4 23 17q5 8 6 13l253 1016h414l-267 -1071q-20 -79 -68.5 -151.5t-114.5 -125.5q-67 -53 -147 -83.5t-158 -30.5h-622q-80 0 -147 31.5t-107 86.5q-60 79 -60 187q0 47 12 96l265 1061h413l-255 -1026q-1 -3 -1 -7q0 -10 3.5 -13t14.5 -3h532z
M973 371h-532q-23 0 -40.5 17t-17.5 39q0 7 2 17l243 976h-331l-257 -1031q-11 -41 -11 -86q0 -94 52 -163q77 -102 222 -102h622q149 0 280 106q132 105 169 255l255 1021h-332l-245 -986q-5 -15 -12 -25q-15 -24 -41 -33q-12 -5 -26 -5zM1363 1607l52 208h-707l-52 -208
h707zM1395 1567h-791l72 288h790z" />
    <glyph glyph-name="umacron" unicode="&#x16b;" horiz-adv-x="1572" 
d="M973 411q7 0 11 3q14 4 23 17q5 8 6 13l253 1016h414l-267 -1071q-20 -79 -68.5 -151.5t-114.5 -125.5q-67 -53 -147 -83.5t-158 -30.5h-622q-80 0 -147 31.5t-107 86.5q-60 79 -60 187q0 47 12 96l265 1061h413l-255 -1026q-1 -3 -1 -7q0 -10 3.5 -13t14.5 -3h532z
M973 371h-532q-23 0 -40.5 17t-17.5 39q0 7 2 17l243 976h-331l-257 -1031q-11 -41 -11 -86q0 -94 52 -163q77 -102 222 -102h622q149 0 280 106q132 105 169 255l255 1021h-332l-245 -986q-5 -15 -12 -25q-15 -24 -41 -33q-12 -5 -26 -5zM1363 1607l52 208h-707l-52 -208
h707zM1395 1567h-791l72 288h790z" />
    <glyph glyph-name="Wcircumflex" unicode="&#x174;" horiz-adv-x="2271" 
d="M261 1441h413l-255 -1025q-1 -3 -1 -8q0 -6 2 -9q6 -6 16 -6h97q13 0 25 9q11 9 16 23l92 372q20 79 68.5 151t115.5 126q144 114 306 114h188q79 0 146 -31.5t108 -86.5q58 -78 58 -185q0 -49 -12 -98l-92 -371l-1 -7q0 -6 4 -10q4 -6 14 -6h98q13 0 24 9q12 9 16 24
l253 1015h414l-267 -1070q-20 -79 -68.5 -151.5t-114.5 -125.5q-143 -115 -305 -115h-188q-81 0 -147.5 31.5t-106.5 87.5q-60 79 -60 187q0 47 12 96l93 371l1 7q0 6 -3 10q-5 6 -14 6h-98q-14 0 -25 -10q-12 -8 -16 -23l-92 -371q-20 -79 -68.5 -151t-115.5 -126
q-143 -115 -305 -115h-188q-80 0 -147 32t-107 87q-60 79 -60 187q0 47 12 96zM292 1401l-257 -1030q-11 -41 -11 -86q0 -94 52 -163q76 -103 222 -103h188q149 0 280 107q133 106 170 255l92 371q8 28 30 45q20 18 50 18h98q31 0 46 -22q11 -15 11 -34q0 -5 -2 -17
l-93 -371q-11 -41 -11 -86q0 -94 52 -163q76 -103 222 -103h188q149 0 280 107q132 105 169 255l255 1020h-332l-245 -985q-9 -29 -30 -46q-22 -17 -49 -17h-98q-32 0 -46 22q-12 14 -12 34q0 5 2 17l92 371q11 43 11 88q0 94 -50 161q-78 102 -222 102h-188
q-150 0 -281 -106q-133 -106 -170 -255l-92 -372q-8 -28 -30 -45q-24 -17 -50 -17h-97q-30 0 -47 22q-11 15 -11 33q0 8 2 18l243 975h-331zM1249 1530h-331l291 331q38 42 101.5 68t130.5 26t121 -27.5t71 -72.5l124 -325h-322l-56 147zM1231 1570l162 183l70 -183h236
l-104 270q-13 35 -53.5 55t-100.5 20q-61 0 -115.5 -22t-86.5 -59l-233 -264h225z" />
    <glyph glyph-name="wcircumflex" unicode="&#x175;" horiz-adv-x="2271" 
d="M261 1441h413l-255 -1025q-1 -3 -1 -8q0 -6 2 -9q6 -6 16 -6h97q13 0 25 9q11 9 16 23l92 372q20 79 68.5 151t115.5 126q144 114 306 114h188q79 0 146 -31.5t108 -86.5q58 -78 58 -185q0 -49 -12 -98l-92 -371l-1 -7q0 -6 4 -10q4 -6 14 -6h98q13 0 24 9q12 9 16 24
l253 1015h414l-267 -1070q-20 -79 -68.5 -151.5t-114.5 -125.5q-143 -115 -305 -115h-188q-81 0 -147.5 31.5t-106.5 87.5q-60 79 -60 187q0 47 12 96l93 371l1 7q0 6 -3 10q-5 6 -14 6h-98q-14 0 -25 -10q-12 -8 -16 -23l-92 -371q-20 -79 -68.5 -151t-115.5 -126
q-143 -115 -305 -115h-188q-80 0 -147 32t-107 87q-60 79 -60 187q0 47 12 96zM292 1401l-257 -1030q-11 -41 -11 -86q0 -94 52 -163q76 -103 222 -103h188q149 0 280 107q133 106 170 255l92 371q8 28 30 45q20 18 50 18h98q31 0 46 -22q11 -15 11 -34q0 -5 -2 -17
l-93 -371q-11 -41 -11 -86q0 -94 52 -163q76 -103 222 -103h188q149 0 280 107q132 105 169 255l255 1020h-332l-245 -985q-9 -29 -30 -46q-22 -17 -49 -17h-98q-32 0 -46 22q-12 14 -12 34q0 5 2 17l92 371q11 43 11 88q0 94 -50 161q-78 102 -222 102h-188
q-150 0 -281 -106q-133 -106 -170 -255l-92 -372q-8 -28 -30 -45q-24 -17 -50 -17h-97q-30 0 -47 22q-11 15 -11 33q0 8 2 18l243 975h-331zM1249 1530h-331l291 331q38 42 101.5 68t130.5 26t121 -27.5t71 -72.5l124 -325h-322l-56 147zM1231 1570l162 183l70 -183h236
l-104 270q-13 35 -53.5 55t-100.5 20q-61 0 -115.5 -22t-86.5 -59l-233 -264h225z" />
    <glyph glyph-name="Ycircumflex" unicode="&#x176;" horiz-adv-x="1572" 
d="M1099 917q32 0 40 33l123 492h413l-136 -547q-20 -79 -68.5 -151.5t-114.5 -125.5q-145 -113 -305 -113l-110 -1l-131 -524h-413l130 524h-98q-80 0 -147 31.5t-107 86.5q-60 79 -60 187q0 47 12 96l134 537h414l-125 -502q-1 -3 -1 -7q0 -16 18 -16h532zM1099 877h-532
q-23 0 -40.5 17t-17.5 39q0 7 2 17l113 452h-332l-126 -507q-11 -41 -11 -86q0 -94 52 -163q77 -102 222 -102h149l-130 -524h331l131 524l141 1q148 0 280 105t169 255l124 497h-331l-115 -462q-7 -25 -30.5 -44t-48.5 -19zM900 1530h-332l291 331q38 42 101.5 68t130.5 26
q68 0 121.5 -27.5t70.5 -72.5l124 -325h-321l-57 147zM882 1570l161 183l70 -183h236l-103 270q-14 35 -55 55t-100 20q-61 0 -115 -21.5t-87 -59.5l-232 -264h225z" />
    <glyph glyph-name="ycircumflex" unicode="&#x177;" horiz-adv-x="1572" 
d="M1099 917q32 0 40 33l123 492h413l-136 -547q-20 -79 -68.5 -151.5t-114.5 -125.5q-145 -113 -305 -113l-110 -1l-131 -524h-413l130 524h-98q-80 0 -147 31.5t-107 86.5q-60 79 -60 187q0 47 12 96l134 537h414l-125 -502q-1 -3 -1 -7q0 -16 18 -16h532zM1099 877h-532
q-23 0 -40.5 17t-17.5 39q0 7 2 17l113 452h-332l-126 -507q-11 -41 -11 -86q0 -94 52 -163q77 -102 222 -102h149l-130 -524h331l131 524l141 1q148 0 280 105t169 255l124 497h-331l-115 -462q-7 -25 -30.5 -44t-48.5 -19zM900 1530h-332l291 331q38 42 101.5 68t130.5 26
q68 0 121.5 -27.5t70.5 -72.5l124 -325h-321l-57 147zM882 1570l161 183l70 -183h236l-103 270q-14 35 -55 55t-100 20q-61 0 -115 -21.5t-87 -59.5l-232 -264h225z" />
    <glyph glyph-name="Ydieresis" unicode="&#x178;" horiz-adv-x="1572" 
d="M1099 917q32 0 40 33l123 492h413l-136 -547q-20 -79 -68.5 -151.5t-114.5 -125.5q-145 -113 -305 -113l-110 -1l-131 -524h-413l130 524h-98q-80 0 -147 31.5t-107 86.5q-60 79 -60 187q0 47 12 96l134 537h414l-125 -502q-1 -3 -1 -7q0 -16 18 -16h532zM1099 877h-532
q-23 0 -40.5 17t-17.5 39q0 7 2 17l113 452h-332l-126 -507q-11 -41 -11 -86q0 -94 52 -163q77 -102 222 -102h149l-130 -524h331l131 524l141 1q148 0 280 105t169 255l124 497h-331l-115 -462q-7 -25 -30.5 -44t-48.5 -19zM913 1607l52 208h-208l-51 -208h207zM1313 1607
l52 208h-208l-51 -208h207zM945 1567h-291l72 288h290zM1345 1567h-291l72 288h290z" />
    <glyph glyph-name="Zdotaccent" unicode="&#x17b;" 
d="M433 471l-13 -55q-1 -3 -1 -7q0 -5 3 -10q6 -6 15 -6h977l-103 -412h-1012q-80 0 -146.5 31.5t-108.5 86.5q-59 80 -59 185q0 48 12 97l36 145q20 79 68.5 151.5t114.5 125.5q145 114 306 114h577q13 0 24 10q14 11 16 24l14 56l1 6q0 7 -3 11q-5 6 -14 6h-979l103 412
h1014q80 0 146.5 -31.5t107.5 -86.5q59 -80 59 -187q0 -47 -12 -95l-37 -146q-40 -163 -183 -277q-145 -115 -325 -115v1h-557q-13 0 -25 -11q-12 -8 -16 -23zM394 481q8 28 30 45q22 19 50 19h597v-1q60 0 129.5 28.5t130.5 78.5q134 106 169 255l37 146q11 41 11 85
q0 93 -51 163q-77 102 -222 102h-983l-83 -332h928q28 0 46 -22q11 -14 11 -35q0 -6 -2 -16l-14 -56q-6 -26 -30 -46q-24 -18 -49 -18h-577q-150 0 -281 -106q-132 -106 -169 -255l-36 -145q-11 -47 -11 -87q0 -95 51 -161q78 -102 223 -102h981l83 332h-926q-29 0 -47 22
q-11 17 -11 34q0 9 3 17zM1074 1607l51 208h-207l-52 -208h208zM1105 1567h-290l71 288h291z" />
    <glyph glyph-name="zdotaccent" unicode="&#x17c;" 
d="M433 471l-13 -55q-1 -3 -1 -7q0 -5 3 -10q6 -6 15 -6h977l-103 -412h-1012q-80 0 -146.5 31.5t-108.5 86.5q-59 80 -59 185q0 48 12 97l36 145q20 79 68.5 151.5t114.5 125.5q145 114 306 114h577q13 0 24 10q14 11 16 24l14 56l1 6q0 7 -3 11q-5 6 -14 6h-979l103 412
h1014q80 0 146.5 -31.5t107.5 -86.5q59 -80 59 -187q0 -47 -12 -95l-37 -146q-40 -163 -183 -277q-145 -115 -325 -115v1h-557q-13 0 -25 -11q-12 -8 -16 -23zM394 481q8 28 30 45q22 19 50 19h597v-1q60 0 129.5 28.5t130.5 78.5q134 106 169 255l37 146q11 41 11 85
q0 93 -51 163q-77 102 -222 102h-983l-83 -332h928q28 0 46 -22q11 -14 11 -35q0 -6 -2 -16l-14 -56q-6 -26 -30 -46q-24 -18 -49 -18h-577q-150 0 -281 -106q-132 -106 -169 -255l-36 -145q-11 -47 -11 -87q0 -95 51 -161q78 -102 223 -102h981l83 332h-926q-29 0 -47 22
q-11 17 -11 34q0 9 3 17zM1074 1607l51 208h-207l-52 -208h208zM1105 1567h-290l71 288h291z" />
    <glyph glyph-name="Zcaron" unicode="&#x17d;" 
d="M931 1470q121 0 202 81l233 264h-226l-161 -183l-70 183h-236l103 -270q34 -75 155 -75zM1280 21l83 332h-926q-26 0 -42 16.5t-16 39.5q0 8 3 17l12 55q10 31 33 47.5t47 16.5h597v-1q78 0 164.5 42.5t161.5 128t103 191.5l37 146q11 46 11 85q0 113 -72 189t-201 76
h-983l-83 -332h928q25 0 41 -16.5t16 -40.5q0 -7 -16 -72q-9 -30 -31.5 -47t-47.5 -17h-577q-148 0 -278 -103t-172 -258l-36 -145q-11 -47 -11 -87q0 -115 75 -189t199 -74h981zM1311 -19h-1012q-139 0 -226.5 86t-87.5 217q0 46 12 97l36 145q47 167 185.5 279t303.5 112
h577q13 0 25 10.5t15 23.5q13 51 15 62q0 17 -17 17h-979l103 412h588q-84 26 -110 88l-124 325h321l56 -147l130 147h332l-291 -331q-51 -56 -143 -82h255q142 0 227.5 -88t85.5 -217q0 -45 -12 -95l-37 -146q-46 -170 -186.5 -281t-321.5 -111v1h-557q-12 0 -24.5 -10.5
t-16.5 -23.5l-13 -55l-1 -7q0 -16 18 -16h977z" />
    <glyph glyph-name="zcaron" unicode="&#x17e;" 
d="M931 1470q121 0 202 81l233 264h-226l-161 -183l-70 183h-236l103 -270q34 -75 155 -75zM1280 21l83 332h-926q-26 0 -42 16.5t-16 39.5q0 8 3 17l12 55q10 31 33 47.5t47 16.5h597v-1q78 0 164.5 42.5t161.5 128t103 191.5l37 146q11 46 11 85q0 113 -72 189t-201 76
h-983l-83 -332h928q25 0 41 -16.5t16 -40.5q0 -7 -16 -72q-9 -30 -31.5 -47t-47.5 -17h-577q-148 0 -278 -103t-172 -258l-36 -145q-11 -47 -11 -87q0 -115 75 -189t199 -74h981zM1311 -19h-1012q-139 0 -226.5 86t-87.5 217q0 46 12 97l36 145q47 167 185.5 279t303.5 112
h577q13 0 25 10.5t15 23.5q13 51 15 62q0 17 -17 17h-979l103 412h588q-84 26 -110 88l-124 325h321l56 -147l130 147h332l-291 -331q-51 -56 -143 -82h255q142 0 227.5 -88t85.5 -217q0 -45 -12 -95l-37 -146q-46 -170 -186.5 -281t-321.5 -111v1h-557q-12 0 -24.5 -10.5
t-16.5 -23.5l-13 -55l-1 -7q0 -16 18 -16h977z" />
    <glyph glyph-name="circumflexcomb" unicode="&#x302;" horiz-adv-x="966" 
d="M597 1530h-332l291 331q38 42 101.5 68t130.5 26q68 0 121.5 -27.5t70.5 -72.5l124 -325h-322l-56 147zM579 1570l161 183l70 -183h236l-103 270q-14 35 -55 55t-100 20q-61 0 -115 -21.5t-87 -59.5l-233 -264h226z" />
    <glyph glyph-name="tildecomb" unicode="&#x303;" horiz-adv-x="1154" 
d="M1105 1853h254l-31 -123q-21 -84 -111.5 -144.5t-194.5 -60.5h-125q-78 4 -134.5 45.5t-66.5 103.5v3q-1 22 -35 22h-30q-23 0 -39.5 -10.5t-21.5 -27.5l-20 -81h-254l31 123q21 84 111.5 144.5t194.5 60.5h125q78 -4 134.5 -45.5t66.5 -103.5v-3q3 -22 35 -22h30
q23 0 39.5 10.5t21.5 27.5zM1136 1813l-12 -50q-7 -28 -37.5 -48.5t-62.5 -20.5h-30q-28 0 -50.5 16.5t-23.5 39.5l-1 2q-8 50 -51 81t-111 35h-124q-94 0 -171.5 -50.5t-96.5 -124.5l-18 -73h172l12 51q8 27 38 47.5t62 20.5h30q28 0 50.5 -16.5t24.5 -40.5v-1
q8 -51 51 -82t111 -34h124q94 0 171.5 50.5t96.5 124.5l18 73h-172z" />
    <glyph glyph-name="macroncomb" unicode="&#x304;" horiz-adv-x="949" 
d="M1052 1607l52 208h-708l-52 -208h708zM1083 1567h-790l72 288h790z" />
    <glyph glyph-name="dotaccentcomb" unicode="&#x307;" horiz-adv-x="449" 
d="M552 1607l52 208h-208l-52 -208h208zM583 1567h-290l72 288h290z" />
    <glyph glyph-name="dieresiscomb" unicode="&#x308;" horiz-adv-x="849" 
d="M552 1607l52 208h-208l-52 -208h208zM952 1607l52 208h-208l-52 -208h208zM583 1567h-290l72 288h290zM983 1567h-290l72 288h290z" />
    <glyph glyph-name="caroncomb" unicode="&#x30c;" horiz-adv-x="966" 
d="M673 1855l56 -147l129 147h332l-291 -331q-38 -42 -101.5 -68t-130.5 -26q-68 0 -121.5 27.5t-70.5 72.5l-124 325h322zM645 1815h-236l104 -270q13 -35 53.5 -55t100.5 -20q61 0 115 21.5t87 59.5l233 264h-226l-161 -183z" />
    <glyph glyph-name="Wdieresis" unicode="&#x1e84;" horiz-adv-x="2271" 
d="M261 1441h413l-255 -1025q-1 -3 -1 -8q0 -6 2 -9q6 -6 16 -6h97q13 0 25 9q11 9 16 23l92 372q20 79 68.5 151t115.5 126q144 114 306 114h188q79 0 146 -31.5t108 -86.5q58 -78 58 -185q0 -49 -12 -98l-92 -371l-1 -7q0 -6 4 -10q4 -6 14 -6h98q13 0 24 9q12 9 16 24
l253 1015h414l-267 -1070q-20 -79 -68.5 -151.5t-114.5 -125.5q-143 -115 -305 -115h-188q-81 0 -147.5 31.5t-106.5 87.5q-60 79 -60 187q0 47 12 96l93 371l1 7q0 6 -3 10q-5 6 -14 6h-98q-14 0 -25 -10q-12 -8 -16 -23l-92 -371q-20 -79 -68.5 -151t-115.5 -126
q-143 -115 -305 -115h-188q-80 0 -147 32t-107 87q-60 79 -60 187q0 47 12 96zM292 1401l-257 -1030q-11 -41 -11 -86q0 -94 52 -163q76 -103 222 -103h188q149 0 280 107q133 106 170 255l92 371q8 28 30 45q20 18 50 18h98q31 0 46 -22q11 -15 11 -34q0 -5 -2 -17
l-93 -371q-11 -41 -11 -86q0 -94 52 -163q76 -103 222 -103h188q149 0 280 107q132 105 169 255l255 1020h-332l-245 -985q-9 -29 -30 -46q-22 -17 -49 -17h-98q-32 0 -46 22q-12 14 -12 34q0 5 2 17l92 371q11 43 11 88q0 94 -50 161q-78 102 -222 102h-188
q-150 0 -281 -106q-133 -106 -170 -255l-92 -372q-8 -28 -30 -45q-24 -17 -50 -17h-97q-30 0 -47 22q-11 15 -11 33q0 8 2 18l243 975h-331zM1263 1607l52 208h-208l-52 -208h208zM1663 1607l52 208h-208l-52 -208h208zM1294 1567h-290l72 288h290zM1694 1567h-290l72 288
h290z" />
    <glyph glyph-name="wdieresis" unicode="&#x1e85;" horiz-adv-x="2271" 
d="M261 1441h413l-255 -1025q-1 -3 -1 -8q0 -6 2 -9q6 -6 16 -6h97q13 0 25 9q11 9 16 23l92 372q20 79 68.5 151t115.5 126q144 114 306 114h188q79 0 146 -31.5t108 -86.5q58 -78 58 -185q0 -49 -12 -98l-92 -371l-1 -7q0 -6 4 -10q4 -6 14 -6h98q13 0 24 9q12 9 16 24
l253 1015h414l-267 -1070q-20 -79 -68.5 -151.5t-114.5 -125.5q-143 -115 -305 -115h-188q-81 0 -147.5 31.5t-106.5 87.5q-60 79 -60 187q0 47 12 96l93 371l1 7q0 6 -3 10q-5 6 -14 6h-98q-14 0 -25 -10q-12 -8 -16 -23l-92 -371q-20 -79 -68.5 -151t-115.5 -126
q-143 -115 -305 -115h-188q-80 0 -147 32t-107 87q-60 79 -60 187q0 47 12 96zM292 1401l-257 -1030q-11 -41 -11 -86q0 -94 52 -163q76 -103 222 -103h188q149 0 280 107q133 106 170 255l92 371q8 28 30 45q20 18 50 18h98q31 0 46 -22q11 -15 11 -34q0 -5 -2 -17
l-93 -371q-11 -41 -11 -86q0 -94 52 -163q76 -103 222 -103h188q149 0 280 107q132 105 169 255l255 1020h-332l-245 -985q-9 -29 -30 -46q-22 -17 -49 -17h-98q-32 0 -46 22q-12 14 -12 34q0 5 2 17l92 371q11 43 11 88q0 94 -50 161q-78 102 -222 102h-188
q-150 0 -281 -106q-133 -106 -170 -255l-92 -372q-8 -28 -30 -45q-24 -17 -50 -17h-97q-30 0 -47 22q-11 15 -11 33q0 8 2 18l243 975h-331zM1263 1607l52 208h-208l-52 -208h208zM1663 1607l52 208h-208l-52 -208h208zM1294 1567h-290l72 288h290zM1694 1567h-290l72 288
h290z" />
    <glyph glyph-name="endash" unicode="&#x2013;" horiz-adv-x="1296" 
d="M161 958h1129l-82 -412h-1129zM186 918l-66 -332h1063l66 332h-1063z" />
    <glyph glyph-name="emdash" unicode="&#x2014;" horiz-adv-x="2392" 
d="M81 958h2258l-165 -412h-2258zM131 918l-133 -332h2126l133 332h-2126z" />
    <glyph glyph-name="quoteleft" unicode="&#x2018;" horiz-adv-x="572" 
d="M94 771l172 688l336 -309l-94 -379h-414zM146 811h331l81 325l-270 248z" />
    <glyph glyph-name="quoteright" unicode="&#x2019;" horiz-adv-x="572" 
d="M675 1442l-171 -689l-337 310l95 379h413zM624 1402h-331l-81 -326l269 -248z" />
    <glyph glyph-name="quotesinglbase" unicode="&#x201a;" horiz-adv-x="572" 
d="M401 342l-172 -689l-336 310l94 379h414zM350 302h-331l-82 -326l270 -248z" />
    <glyph glyph-name="quotedblleft" unicode="&#x201c;" horiz-adv-x="1000" 
d="M94 771l172 688l336 -309l-94 -379h-414zM522 771l171 688l337 -309l-95 -379h-413zM146 811h331l81 325l-270 248zM573 811h331l81 325l-269 248z" />
    <glyph glyph-name="quotedblright" unicode="&#x201d;" horiz-adv-x="1000" 
d="M1103 1442l-172 -689l-336 310l94 379h414zM675 1442l-171 -689l-337 310l95 379h413zM1052 1402h-332l-81 -326l270 -248zM624 1402h-331l-81 -326l269 -248z" />
    <glyph glyph-name="quotedblbase" unicode="&#x201e;" horiz-adv-x="1000" 
d="M828 342l-171 -689l-337 310l95 379h413zM401 342l-172 -689l-336 310l94 379h414zM777 302h-331l-81 -326l269 -248zM350 302h-331l-82 -326l270 -248z" />
    <glyph glyph-name="ellipsis" unicode="&#x2026;" horiz-adv-x="1938" 
d="M0 392h414l-103 -412h-414zM31 352l-83 -332h332l82 332h-331zM683 392h414l-103 -412h-414zM714 352l-83 -332h332l82 332h-331zM1366 392h414l-103 -412h-414zM1397 352l-83 -332h332l82 332h-331z" />
    <glyph glyph-name="perthousand" unicode="&#x2030;" horiz-adv-x="3469" 
d="M703 936q15 0 27 10t14 23q10 37 10 43q0 17 -17 17h-132q-15 0 -27 -10.5t-14 -22.5q-9 -37 -9 -44q0 -8 2 -10q1 -6 15 -6h131zM2864 393q13 0 25 9.5t16 22.5l18 74l1 8q0 15 -18 15h-131q-13 0 -25.5 -9.5t-15.5 -23.5l-19 -73v-7q0 -9 3 -10q2 -6 14 -6h132z
M1864 393q13 0 25 9.5t16 22.5l18 74l1 8q0 15 -18 15h-131q-13 0 -25.5 -9.5t-15.5 -23.5l-19 -73v-7q0 -9 3 -10q2 -6 14 -6h132zM703 896h-131q-25 0 -41 16t-16 40q0 22 10.5 52.5t29.5 45.5q25 19 50 19h132q24 0 40.5 -16t16.5 -41q0 -20 -11 -50.5t-29 -46.5
q-23 -19 -51 -19zM2864 353h-132q-24 0 -40.5 16t-16.5 40q0 3 2 17l19 73q7 28 30 45.5t49 17.5h131q24 0 41 -15.5t17 -39.5q0 -7 -3 -18l-18 -72q-9 -31 -31 -47.5t-48 -16.5zM1864 353h-132q-24 0 -40.5 16t-16.5 40q0 3 2 17l19 73q7 28 30 45.5t49 17.5h131
q24 0 41 -15.5t17 -39.5q0 -7 -3 -18l-18 -72q-9 -31 -31 -47.5t-48 -16.5zM1816 20q148 0 278.5 103t171.5 258l41 163q11 46 11 86q0 111 -72.5 188t-201.5 77h-221q-151 0 -281 -105q-2 -1 -74 -68q-89 -146 -96 -188l-41 -163q-10 -41 -10 -86q0 -113 72 -189t201 -76
h222zM2816 20q148 0 278.5 103t171.5 258l41 163q11 46 11 86q0 111 -72.5 188t-201.5 77h-221q-237 0 -397 -236q-36 -58 -54 -125l-41 -163q-10 -41 -10 -86q0 -113 72 -189t201 -76h222zM823 20l1209 1382h-386l-1210 -1382h387zM656 563q150 0 280 105l2 2l2 2
q14 11 71 60q88 150 95 192l32 127q10 41 10 86q0 113 -72 189t-201 76h-222q-148 0 -278.5 -103t-171.5 -258l-32 -127q-11 -46 -11 -86q0 -111 72.5 -188t201.5 -77h222zM2816 -20h-222q-142 0 -227.5 88t-85.5 217l1 19q-58 -139 -190 -231.5t-276 -92.5h-222
q-141 0 -227 87t-86 218q0 45 12 96l44 176l-496 -577h-493l532 603q-77 -38 -125.5 -49t-98.5 -11h-222q-140 0 -227 87.5t-87 217.5q0 47 13 96l32 127q44 167 184.5 279t303.5 112h222q141 0 227 -87t86 -218q0 -45 -12 -96l-40 -161l492 562h494l-503 -557
q107 50 204 50h221q146 0 230 -89.5t84 -215.5v-17q49 116 158 207q145 115 307 115h221q140 0 227 -87.5t87 -217.5q0 -47 -13 -96l-41 -163q-47 -173 -189 -282t-299 -109z" />
    <glyph glyph-name="guilsinglleft" unicode="&#x2039;" horiz-adv-x="1192" 
d="M677 727l392 -189l-113 -456l-751 362q-77 38 -111 117q-18 49 -18 98q0 39 10 75q22 93 92 168q71 79 162 114l940 365l-116 -465zM1016 519l-439 212l553 215l92 369l-868 -337q-85 -33 -146 -102q-63 -67 -84 -152q-8 -31 -8 -65q0 -46 16 -82q26 -67 91 -97l707 -340
l93 376z" />
    <glyph glyph-name="guilsinglright" unicode="&#x203a;" horiz-adv-x="1192" 
d="M74 556l450 175l-392 189l114 457l750 -362q79 -39 112 -118q18 -47 18 -97q0 -39 -10 -76q-22 -90 -92 -168q-71 -77 -163 -113l-940 -365l116 464zM88 518l-17 -6l-92 -368l868 337q86 34 147 101q61 69 84 152q8 37 8 66q0 45 -16 81q-26 67 -92 98l-706 340l-94 -377
l446 -215z" />
    <glyph glyph-name="minus" unicode="&#x2212;" horiz-adv-x="1204" 
d="M135 936h1046l-103 -413h-1046zM167 896l-83 -333h963l83 333h-963z" />
    <glyph glyph-name="almostequalto" unicode="&#x2248;" horiz-adv-x="1234" 
d="M934 1005l34 111h334l-46 -151q-32 -98 -139 -166q-108 -70 -230 -70q-122 1 -127 1q-93 5 -154 51q-59 45 -68 124h-31q-11 0 -14 -9l-34 -111h-335l47 151q31 98 138 166q108 69 231 69q121 0 127 -1q40 0 83 -14.5t71 -35.5q30 -23 44.5 -52t17.5 -49.5t6 -22.5h30
q12 0 15 9zM972 998q-4 -13 -20 -23.5t-33 -10.5h-30q-17 0 -28 9q-10 7 -24 54t-44 70q-57 42 -128 42h-126q-108 0 -205 -62q-98 -62 -124 -149l-35 -111h252l27 86q4 13 20 23.5t33 10.5h30q14 0 27 -9.5t14 -21.5q7 -65 55 -102q50 -38 128 -42h126q108 0 205 62
q98 62 124 149l35 111h-252zM826 573l34 111h334l-46 -151q-32 -98 -139 -166q-108 -70 -230 -70q-122 1 -127 1q-93 5 -154 51q-59 45 -68 124h-31q-11 0 -14 -9l-34 -111h-335l47 151q31 98 138 166q108 69 231 69q121 0 127 -1q40 0 83 -14.5t71 -35.5q30 -23 44.5 -52
t17.5 -49.5t6 -22.5h30q12 0 15 9zM865 566q-4 -13 -20.5 -23.5t-33.5 -10.5h-30q-17 0 -28 9q-10 7 -16 30t-17.5 49.5t-34.5 44.5q-55 42 -128 42h-125q-109 0 -206 -62q-98 -62 -124 -149l-35 -111h252l27 86q4 13 20 23.5t33 10.5h30q15 0 28 -9.5t13 -21.5
q7 -65 55 -102q50 -38 129 -42h125q108 0 205 62t125 149l34 111h-252z" />
    <glyph glyph-name="notequalto" unicode="&#x2260;" horiz-adv-x="1204" 
d="M319 171l126 181h549l83 333h-401l73 106h354l83 333h-205l100 144h-216l-100 -144h-541l-83 -333h393l-73 -106h-347l-83 -333h198l-125 -181h215zM340 131h-313l126 181h-173l103 413h357l18 26h-369l103 413h552l100 144h313l-100 -144h181l-103 -413h-365l-18 -26
h376l-103 -413h-559z" />
    <glyph glyph-name="lessthanorequalto" unicode="&#x2264;" horiz-adv-x="1204" 
d="M758 882l392 -152l-113 -364l-751 289q-77 30 -111 94q-18 36 -18 78q0 30 9 60q24 77 93 135q66 60 162 91l940 291l-116 -371zM1097 715l-439 170l553 172l92 295l-868 -269q-85 -27 -146 -83q-63 -52 -84 -121q-8 -24 -8 -52q0 -35 15 -66q28 -53 91 -77l707 -272
l93 301zM11 342h1045l-103 -371h-1045zM42 306l-83 -299h963l83 299h-963z" />
    <glyph glyph-name="greaterthanorequalto" unicode="&#x2265;" horiz-adv-x="1204" 
d="M155 745l450 140l-393 151l114 365l750 -289q80 -31 112 -95q19 -36 19 -77q0 -26 -10 -61q-22 -72 -92 -135q-69 -60 -163 -89l-940 -292l116 371zM169 715l-17 -5l-92 -295l868 270q86 26 147 81q62 56 83 121q9 27 9 53q0 36 -16 65q-26 53 -92 78l-706 272l-94 -301
l446 -172zM11 342h1045l-103 -371h-1045zM42 306l-83 -299h963l83 299h-963z" />
    </font>
</defs>
</svg>
