<?xml version="1.0" standalone="no"?>
<!DOCTYPE svg PUBLIC "-//W3C//DTD SVG 1.1//EN" "http://www.w3.org/Graphics/SVG/1.1/DTD/svg11.dtd" >
<svg xmlns="http://www.w3.org/2000/svg" xmlns:xlink="http://www.w3.org/1999/xlink" version="1.1">
<metadata>
Created by FontForge 20170731 at Wed Aug 17 21:07:49 2022
 By Aleksey,,,
EMOTIQ (c) Enxyclo Studio. 2022. All Rights Reserved
</metadata>
<defs>
<font id="EMOTIQStencilSlantBold" horiz-adv-x="1573" >
  <font-face 
    font-family="EMOTIQ Stencil Slant"
    font-weight="700"
    font-stretch="normal"
    units-per-em="2048"
    panose-1="2 0 8 0 2 0 0 0 0 0"
    ascent="1638"
    descent="-410"
    x-height="1422"
    cap-height="1422"
    bbox="-188 -420 3338 1935"
    underline-thickness="51"
    underline-position="-152"
    unicode-range="U+0020-2265"
  />
<missing-glyph horiz-adv-x="1024" 
d="M924 0h-824v1434h824v-1434zM874 50v1334h-724v-1334h724zM478 454h-32q-35 99 -35 148q0 76 82 218q81 143 81 217q0 57 -33 90t-91 33q-34 0 -61 -13.5t-64 -43.5v45q81 73 170 73q91 0 147.5 -47t56.5 -128q0 -51 -24 -101t-86 -127q-54 -69 -76 -98.5t-40.5 -66.5
t-18.5 -66q0 -39 24 -133zM466 213q-11 0 -20 10l-61 71q-7 8 -7 18q0 9 11 22l57 58q10 10 20 10q9 0 22 -11l56 -60q9 -10 9 -20q0 -12 -10 -22l-56 -62q-14 -14 -21 -14z" />
    <glyph glyph-name=".notdef" horiz-adv-x="1024" 
d="M924 0h-824v1434h824v-1434zM874 50v1334h-724v-1334h724zM478 454h-32q-35 99 -35 148q0 76 82 218q81 143 81 217q0 57 -33 90t-91 33q-34 0 -61 -13.5t-64 -43.5v45q81 73 170 73q91 0 147.5 -47t56.5 -128q0 -51 -24 -101t-86 -127q-54 -69 -76 -98.5t-40.5 -66.5
t-18.5 -66q0 -39 24 -133zM466 213q-11 0 -20 10l-61 71q-7 8 -7 18q0 9 11 22l57 58q10 10 20 10q9 0 22 -11l56 -60q9 -10 9 -20q0 -12 -10 -22l-56 -62q-14 -14 -21 -14z" />
    <glyph glyph-name=".null" horiz-adv-x="0" 
 />
    <glyph glyph-name="nonmarkingreturn" horiz-adv-x="682" 
 />
    <glyph glyph-name="space" unicode=" " horiz-adv-x="600" 
 />
    <glyph glyph-name="space" unicode="&#xa0;" horiz-adv-x="600" 
 />
    <glyph glyph-name="exclam" unicode="!" horiz-adv-x="573" 
d="M650 1422l-254 -1020h-373l254 1020h373zM10 351h373l-88 -351h-372z" />
    <glyph glyph-name="quotedbl" unicode="&#x22;" horiz-adv-x="1000" 
d="M1077 1422l-157 -631l-303 278l88 353h372zM650 1422l-158 -631l-303 278l88 353h373z" />
    <glyph glyph-name="numbersign" unicode="#" horiz-adv-x="1610" 
d="M748 691h103l11 42h-103zM1515 733h-281l-10 -42h281l-93 -374h-281l-79 -317h-373l79 317h-103l-79 -317h-373l79 317h-280l93 374h280l11 42h-281l93 372h281l79 317h373l-79 -317h103l79 317h372l-79 -317h281z" />
    <glyph glyph-name="dollar" unicode="$" 
d="M1043 494q-5 30 -37 30h-70l-27 -110h-372l27 111h-135q-138 0 -214 79.5t-76 207.5q0 56 15 116h376q2 -14 12 -22.5t25 -8.5h90l27 111h373l-28 -111h115q131 0 212 -81t81 -205q0 -47 -11 -90l-7 -27h-376zM1389 373q-39 -154 -175 -262q-138 -110 -294 -110h-114
l-46 -184h-372l45 184h-510l93 372h1373zM184 1049q40 155 177 264t292 109h135l45 183h373l-46 -183h490l-93 -373h-1373z" />
    <glyph glyph-name="percent" unicode="%" horiz-adv-x="2469" 
d="M764 965l9 36q2 10 2 13q0 35 -42 35l93 373h49q155 0 238 -110q56 -73 56 -175q0 -45 -12 -91l-32 -126q-16 -68 -55 -130l567 632h440l-570 -635q4 3 11.5 9t11.5 9q138 110 293 110h51l-93 -372q-23 0 -41.5 -12.5t-24.5 -35.5l-19 -74q-2 -10 -2 -13q0 -35 45 -35
l-93 -372h-51q-77 0 -138.5 29t-100.5 81q-55 74 -55 173q0 44 12 92l40 164q18 69 56 129l-577 -668h-440l579 672q-1 -1 -22 -19q-137 -110 -293 -110h-49l93 373q23 0 40.5 12.5t23.5 35.5zM1995 915h49q156 0 239 -110q55 -74 55 -173q0 -44 -12 -92l-40 -164
q-39 -154 -177 -265q-137 -110 -293 -110h-49l93 372q22 0 40.5 13t23.5 35l18 74q2 10 2 13q0 16 -12 25.5t-30 9.5zM612 1049q-55 0 -67 -48l-9 -36q-2 -10 -2 -13q0 -35 44 -35l-93 -373h-51q-156 0 -238 110q-56 73 -56 175q0 45 12 91l32 126q39 156 176 266
q84 67 160.5 88.5t183.5 21.5z" />
    <glyph glyph-name="ampersand" unicode="&#x26;" horiz-adv-x="1652" 
d="M1028 543h-137l93 373h619l-92 -372h-111q-24 -103 -43 -176q-38 -153 -173 -259q-134 -108 -291 -108zM771 1h-472q-77 0 -138.5 29t-100.5 81q-55 74 -55 173q0 44 12 92l42 171q24 96 94 183q-14 47 -14 95q0 41 11 88l35 140q39 153 174 261t291 108l-113 -454
q-2 -8 -2 -13q0 -17 11.5 -28t29.5 -11h195l-93 -373h-195q-22 0 -41 -15t-24 -37l-18 -70q-1 -4 -1 -11q0 -17 10.5 -27t27.5 -10h427zM771 1422h480q153 0 234 -108q54 -73 54 -172q0 -46 -11 -89l-25 -100h-373l11 45q2 10 2 15v5q-3 19 -22 28q-7 4 -19 4h-424z" />
    <glyph glyph-name="quotesingle" unicode="'" horiz-adv-x="572" 
d="M650 1422l-158 -631l-303 278l88 353h373z" />
    <glyph glyph-name="parenleft" unicode="(" horiz-adv-x="874" 
d="M585 -48l-93 -372h-305q-153 0 -234 108q-54 73 -54 172q0 46 11 89l175 701h373l-161 -645q-2 -10 -2 -13q0 -14 8 -24q11 -16 33 -16h249zM488 772h-373l175 700q18 75 63.5 143t109.5 119q135 108 288 108h305l-93 -373h-249q-21 0 -41 -15q-20 -16 -24 -37z" />
    <glyph glyph-name="parenright" unicode=")" horiz-adv-x="874" 
d="M-89 -48h249q22 0 41 16q20 15 24 37l161 645h373l-175 -701q-37 -151 -173 -261q-135 -108 -288 -108h-305zM417 772l161 645q1 4 1 12q0 15 -7 25q-13 15 -34 15h-249l93 373h305q153 0 234 -108q55 -74 55 -172q0 -44 -12 -90l-175 -700h-372z" />
    <glyph glyph-name="asterisk" unicode="*" horiz-adv-x="845" 
d="M775 1195h91l-48 -192h-91l49 -64l-170 -136l-48 65l-23 -92h-192l23 91l-81 -64l-101 136l80 64h-91l48 192h91l-49 65l170 135l48 -64l23 91h192l-23 -91l81 64l102 -135z" />
    <glyph glyph-name="plus" unicode="+" horiz-adv-x="1204" 
d="M839 916h316l-93 -373h-315l-79 -316h-373l79 316h-316l93 373h316l78 315h373z" />
    <glyph glyph-name="comma" unicode="," horiz-adv-x="572" 
d="M16 372h372l-88 -352l-442 -278z" />
    <glyph glyph-name="hyphenminus" unicode="-" horiz-adv-x="1204" 
d="M151 916h1004l-93 -373h-1004z" />
    <glyph glyph-name="hyphenminus" unicode="&#xad;" horiz-adv-x="1204" 
d="M151 916h1004l-93 -373h-1004z" />
    <glyph glyph-name="period" unicode="." horiz-adv-x="572" 
d="M16 372h372l-93 -372h-372z" />
    <glyph glyph-name="slash" unicode="/" horiz-adv-x="1484" 
d="M-77 0l1197 1422h441l-1198 -1422h-440z" />
    <glyph glyph-name="zero" unicode="0" 
d="M920 525h-360l93 373h360zM1275 1422q131 0 212 -80.5t81 -204.5q0 -48 -11 -91l-167 -670q-39 -156 -177 -266q-137 -110 -293 -110h-503l92 372h446q61 0 73 49l145 580q1 4 1 11q0 17 -10.5 27t-27.5 10h-458l93 373h504zM295 0q-152 1 -235 110q-55 73 -55 175
q0 48 11 91l168 670q37 155 176 266q136 109 290 110z" />
    <glyph glyph-name="one" unicode="1" horiz-adv-x="745" 
d="M356 1049h-172l93 373h545l-355 -1422h-372z" />
    <glyph glyph-name="two" unicode="2" 
d="M295 0h-372l131 528q39 153 174 261q135 109 288 109h578q23 0 41 15q19 16 25 37l117 472q156 0 238 -108q54 -73 54 -172q0 -46 -11 -89l-40 -158q-37 -153 -172.5 -261.5t-288.5 -108.5h-579q-23 0 -40 -16q-20 -16 -25 -37zM510 373h878l-93 -373h-878zM1073 1090
h-879l83 332h879z" />
    <glyph glyph-name="three" unicode="3" horiz-adv-x="1575" 
d="M1278 1422q154 0 237 -110q56 -73 56 -175q0 -45 -12 -91l-38 -145q-27 -103 -100 -190q16 -45 16 -99q0 -42 -11 -91l-36 -144q-39 -155 -177 -266q-136 -110 -290 -110zM1064 1049h-878l93 373h877zM802 1h-879l93 373h879zM933 524l-879 1l93 373h879z" />
    <glyph glyph-name="four" unicode="4" 
d="M1651 1422l-355 -1421h-373q59 237 177.5 710.5t177.5 710.5h373zM923 485h-510q-153 0 -234 108q-55 74 -55 171q0 44 12 90l141 568h373l-128 -512q-1 -4 -1 -13q0 -16 7 -24q10 -15 34 -15h454z" />
    <glyph glyph-name="five" unicode="5" 
d="M519 898h631q72 0 133 -29q62 -27 100 -80q40 -52 52 -120q4 -21 4 -51q0 -44 -12 -90l-40 -160q-38 -153 -172 -260q-135 -108 -292 -108l117 472q2 10 2 14q0 17 -11 28t-29 11h-948l223 896h373l-108 -433zM802 0l-879 1l93 372h879zM771 1421h879l-93 -372h-879z" />
    <glyph glyph-name="six" unicode="6" 
d="M510 373h454q22 0 41 16q20 16 24 37l12 48q2 8 2 13q0 13 -8 24q-12 15 -33 15h-454l93 373h510q151 0 234 -109q54 -71 54 -171q0 -47 -11 -90l-40 -159q-37 -151 -173 -261q-135 -108 -288 -108h-510zM1557 1049l-493 1h-386l93 373l358 -1h521zM296 1h-4
q-153 0 -234 108q-54 73 -54 172q0 46 11 89l170 683q40 155 174 261q135 109 288 109h3z" />
    <glyph glyph-name="seven" unicode="7" 
d="M647 0h-372l131 528q39 153 173 261q135 108 289 108l158 1l-93 -373l-102 -1q-23 0 -42 -15t-24 -37zM1064 1049h-880l93 373h880zM1278 1422h3q153 0 234 -108q55 -74 55 -171q0 -43 -12 -90l-39 -158q-39 -154 -173 -262q-135 -108 -289 -108h-3z" />
    <glyph glyph-name="eight" unicode="8" 
d="M531 946q-1 -4 -1 -11q0 -15 7 -23q11 -14 30 -14h206l-94 -374h-205q-20 0 -37.5 -14t-22.5 -34l-14 -55q-1 -4 -1 -11q0 -16 10.5 -26.5t26.5 -10.5h459l-93 -373h-503q-77 0 -138.5 29t-100.5 81q-55 74 -55 173q0 45 12 93l36 145q24 101 99 190q-16 45 -16 100
q0 43 11 90l37 145q37 155 176 266q136 109 290 110zM894 898h205q20 0 37.5 14t22.5 34l14 55q1 4 1 11q0 16 -10 26.5t-27 10.5h-459l93 373h504q155 0 238 -110q56 -73 56 -175q0 -45 -12 -91l-36 -145q-27 -103 -100 -190q16 -45 16 -99q0 -42 -11 -91l-36 -145
q-39 -156 -177 -266q-136 -109 -290 -110l119 476q1 4 1 12q0 16 -10 26t-27 10h-205z" />
    <glyph glyph-name="nine" unicode="9" 
d="M1064 1050h-455q-22 0 -41 -15t-24 -37l-12 -48q-2 -8 -2 -13q0 -17 11.5 -28t29.5 -11h455l-93 -373h-510q-153 0 -234 108q-55 74 -55 172q0 43 12 89l39 160q39 153 174 261q136 108 288 108h510zM16 374h879l-93 -373l-358 1h-521zM1278 1423h3q152 0 234 -108
q55 -72 55 -170q0 -45 -12 -91l-170 -684q-37 -151 -173 -261q-135 -108 -288 -108h-4z" />
    <glyph glyph-name="colon" unicode=":" horiz-adv-x="572" 
d="M205 1131h372l-93 -372h-372zM97 699h373l-93 -372h-373z" />
    <glyph glyph-name="semicolon" unicode=";" horiz-adv-x="572" 
d="M16 372h372l-88 -352l-442 -278zM210 1153h373l-93 -373h-373z" />
    <glyph glyph-name="less" unicode="&#x3c;" horiz-adv-x="1186" 
d="M1019 538l21 -11l-104 -416l-728 351q-70 34 -102 108q-16 42 -16 85v14h656zM777 790h-657q23 53 66 100q69 73 155 107l904 351l-104 -416z" />
    <glyph glyph-name="equal" unicode="=" horiz-adv-x="1204" 
d="M1117 762h-1004l93 373h1004zM1008 323h-1005l93 373h1004z" />
    <glyph glyph-name="greater" unicode="&#x3e;" horiz-adv-x="1186" 
d="M81 538l338 131h657q-24 -52 -67 -99q-65 -73 -155 -108l-904 -351l104 416zM448 790l-293 142l104 416l729 -351q71 -35 101 -107q17 -43 17 -92v-8h-658z" />
    <glyph glyph-name="question" unicode="?" 
d="M362 351h373l-88 -351h-372zM748 403h-373l36 144q38 154 173 260q133 107 288 109h227q21 0 41 15q19 15 25 38l113 453q156 0 237 -108q55 -74 55 -172q0 -44 -12 -90l-34 -139q-39 -153 -174 -261q-135 -109 -288 -109h-227q-21 0 -41 -15q-20 -16 -24 -37zM1063 1049
h-879l93 373h879z" />
    <glyph glyph-name="at" unicode="@" horiz-adv-x="1693" 
d="M717 622h116l-70 -280h-153q-92 0 -149.5 56.5t-57.5 143.5q0 34 8 65l52 209q27 109 124 187t207 78h555l-109 -436q-1 -2 -1 -6q0 -11 9 -16q3 -1 9 -1h10q7 0 10 1q16 7 19 22l119 474v5q0 6 -3 11q-5 7 -15 7h-788l70 280h826q110 0 168 -77q39 -51 39 -124
q0 -29 -8 -64l-137 -550q-28 -110 -124.5 -187.5t-206.5 -77.5h-112q-68 0 -114 33q-28 21 -42 43q-29 -25 -64 -43q-2 -1 -6.5 -3.5t-6.5 -3.5l108 433h-237q-9 0 -18 -6q-8 -8 -11 -17l-33 -133q0 -1 -0.5 -3t-0.5 -3q0 -7 4 -11q5 -6 14 -6zM279 304q-1 -2 -1 -7
q0 -16 18 -16h1190l-70 -280h-1228q-110 0 -168 77q-39 51 -39 124q0 29 8 64l222 891q27 110 125 188q96 77 206 77h15z" />
    <glyph glyph-name="A" unicode="A" 
d="M1137 1049h-459l93 373h504q131 0 212 -80.5t81 -204.5q0 -48 -11 -91l-261 -1046h-373l63 253h-506l93 373h506l94 375q1 4 1 12q0 16 -10 26t-27 10zM295 0h-372l261 1046q38 155 174.5 265t291.5 111z" />
    <glyph glyph-name="B" unicode="B" 
d="M1159 946l14 55q1 4 1 11q0 16 -10 26.5t-27 10.5h-459l93 373h504q131 0 212 -80.5t81 -204.5q0 -48 -11 -91l-36 -145q-27 -103 -100 -190q16 -45 16 -99q0 -42 -11 -91l-36 -145q-39 -155 -176.5 -265.5t-293.5 -110.5h-503l93 373h458q20 0 37.5 14t22.5 34l14 55
q2 8 2 12q0 16 -10.5 26t-27.5 10l-458 1l93 373h458q20 0 37.5 14t22.5 34zM277 1422h373l-355 -1422h-372z" />
    <glyph glyph-name="C" unicode="C" 
d="M509 373h880l-93 -373h-880zM294 0q-129 2 -209 82t-80 202q0 44 12 92l167 670q25 101 96 187.5t169 137t200 51.5zM770 1422h880l-93 -373h-880z" />
    <glyph glyph-name="D" unicode="D" 
d="M1029 426l143 571q2 8 2 13q0 17 -11.5 28t-29.5 11h-455l93 373h510q153 0 234 -108q55 -74 55 -171q0 -43 -12 -90l-170 -683q-37 -151 -173 -261q-135 -108 -288 -108h-510l93 372h454q22 0 41 15.5t24 37.5zM295 1h-372l354 1421h373z" />
    <glyph glyph-name="E" unicode="E" 
d="M641 898h879l-93 -372h-40q-137 0 -277.5 -0.5t-177.5 -0.5h-385zM510 373h879l-93 -373h-879zM296 0q-153 1 -236 110q-55 74 -55 173q0 45 12 93l36 145q24 101 99 190q-16 45 -16 100q0 41 11 90l37 145q37 155 176 266q136 109 290 110zM771 1422h879l-93 -373h-879z
" />
    <glyph glyph-name="F" unicode="F" 
d="M296 0h-373l130 521q24 101 99 190q-16 45 -16 100q0 43 11 90l37 145q38 155 174.5 265t291.5 111zM641 898h879l-93 -372l-880 -1zM771 1422h879l-93 -373h-879z" />
    <glyph glyph-name="G" unicode="G" 
d="M296 1q-154 0 -236 110q-55 74 -55 173q0 44 12 92l167 671q39 156 176 265q136 110 290 110zM510 373h506l26 104q1 4 1 11q0 17 -10.5 27t-27.5 10h-458l93 373h503q131 0 212.5 -80.5t81.5 -204.5q0 -43 -12 -91l-130 -521h-878zM771 1422h861l-93 -372h-861z" />
    <glyph glyph-name="H" unicode="H" 
d="M1147 898l131 524h372l-354 -1421h-373l131 524h-506l93 373h506zM296 1h-373l354 1421h373z" />
    <glyph glyph-name="I" unicode="I" horiz-adv-x="573" 
d="M-77 1l354 1421h373l-354 -1421h-373z" />
    <glyph glyph-name="J" unicode="J" 
d="M1650 1422l-260 -1046q-39 -156 -177 -266q-136 -109 -290 -110l355 1422h372zM802 0h-879l93 373h879z" />
    <glyph glyph-name="K" unicode="K" 
d="M-77 1l354 1421h373l-354 -1421h-373zM641 898h466q18 3 32.5 16.5t19.5 30.5l119 477h372l-124 -500q-33 -126 -104 -211q15 -42 15 -94q0 -50 -16 -117l-125 -499h-373l119 476q2 8 2 12q0 14 -8.5 24t-21.5 12h-467z" />
    <glyph glyph-name="L" unicode="L" 
d="M277 1422h373l-354 -1422q-153 1 -236 110q-55 74 -55 173q0 45 12 93zM417 0l93 373h879l-93 -373h-879z" />
    <glyph glyph-name="M" unicode="M" horiz-adv-x="2272" 
d="M-77 0l260 1045q39 155 177 266q135 109 290 111l-355 -1422h-372zM771 1422h70q76 0 137.5 -29.5t99.5 -81.5q56 -73 56 -174q0 -44 -12 -92l-93 -373q-1 -3 -1 -10q0 -16 10.5 -26t27.5 -10h98q18 0 36.5 13.5t22.5 31.5l93 374q39 157 176 266q138 111 294 111h187
q77 0 138.5 -29t99.5 -82q56 -73 56 -174q0 -44 -12 -92l-260 -1045h-373l249 1000q2 8 2 12q0 16 -10.5 26t-27.5 10h-97q-20 0 -37.5 -13.5t-22.5 -33.5l-94 -372h1q-37 -155 -176 -266q-137 -110 -293 -110h-188q-156 0 -238 110q-55 73 -55 175q0 48 11 91l93 371
q2 8 2 12q0 16 -10.5 26t-27.5 10h-25z" />
    <glyph glyph-name="N" unicode="N" horiz-adv-x="1706" 
d="M-77 0l261 1046q37 155 176 266q136 109 290 110l-355 -1422h-372zM771 1422h70q155 0 238 -110q56 -73 56 -175q0 -45 -12 -91l-156 -625q3 -31 5 -34q11 -14 31 -14h98q20 0 37 14t23 34l249 1001h373l-261 -1046q-39 -156 -176 -266q-138 -110 -293 -110h-188
q-155 0 -238 110q-56 73 -56 175q0 45 12 91l156 625q1 4 1 11q0 15 -7 23q-9 14 -30 14h-25z" />
    <glyph glyph-name="O" unicode="O" 
d="M1275 1422q155 0 238 -110q56 -73 56 -175q0 -45 -12 -91l-167 -670q-39 -155 -177 -265q-139 -111 -293 -111h-503l93 373h458q18 0 38 15q18 13 22 34l145 579q1 4 1 11q0 16 -10 26.5t-27 10.5h-459l93 373h504zM295 0q-153 1 -235 111q-55 74 -55 173q0 44 12 92
l167 670q37 155 176 266q134 108 290 110z" />
    <glyph glyph-name="P" unicode="P" horiz-adv-x="1574" 
d="M1068 641q18 14 25 37l79 319q2 8 2 13q0 14 -8 24q-12 15 -33 15h-455l93 373h511q153 0 234 -108q54 -73 54 -172q0 -46 -11 -89l-108 -431q-37 -153 -173 -261q-134 -108 -288 -108h-510l93 373h455q20 0 40 15zM296 0h-373l354 1422h373z" />
    <glyph glyph-name="Q" unicode="Q" 
d="M1173 1001q1 4 1 11q0 16 -10 26.5t-27 10.5h-459l93 373h504q155 0 238 -110q55 -73 55 -175q0 -48 -11 -91l-167 -669q-15 -60 -47 -115q-23 -42 -53 -76q6 -4 16 -6l33 -5l-92 -369h-72q-109 0 -187 59q-68 51 -94 136h-477l93 373h458q19 0 38 14q17 13 22 34zM296 1
q-153 1 -236 110q-55 74 -55 173q0 45 12 93l167 669q37 155 176 266q136 109 290 110z" />
    <glyph glyph-name="R" unicode="R" horiz-adv-x="1574" 
d="M1069 642q17 13 24 36l79 320q2 8 2 13q0 13 -8 24q-12 15 -33 15h-455l93 373h511q152 0 234 -108q54 -73 54 -172q0 -47 -11 -90l-107 -431q-15 -57 -44 -108q-22 -40 -53 -77q12 -36 15 -77q0 -3 0.5 -9t0.5 -9q0 -37 -12 -92l-63 -249h-372l51 204q1 4 1 12
q0 12 -6 21q-9 13 -26 15h-464l93 373h457q21 2 39 16zM296 1h-373l354 1422h373z" />
    <glyph glyph-name="S" unicode="S" 
d="M1042 476q1 4 1 12q0 15 -7 23q-10 14 -30 14h-577q-155 0 -238 110q-55 73 -55 176q0 47 11 90l37 146q39 157 176 266q136 109 290 110l-119 -477q-1 -4 -1 -11q0 -15 7 -23q11 -14 30 -14h577q156 0 238 -111q56 -73 56 -175q0 -44 -12 -91l-36 -144
q-39 -155 -177 -266q-136 -109 -290 -110zM802 1h-879l93 373h879zM771 1423h880l-93 -373h-880z" />
    <glyph glyph-name="T" unicode="T" horiz-adv-x="1574" 
d="M423 1l250 1001q1 4 1 11q0 15 -7 23q-9 14 -30 14h-452l92 373h874l-355 -1422h-373zM1272 1423h379l-93 -373h-379z" />
    <glyph glyph-name="U" unicode="U" 
d="M510 373h459q19 0 36 14q18 14 23 34l250 1001h372l-260 -1046q-39 -155 -177 -265q-137 -110 -293 -110h-503zM296 1q-154 0 -236 110q-55 74 -55 173q0 44 12 92l260 1046h373z" />
    <glyph glyph-name="V" unicode="V" horiz-adv-x="1524" 
d="M1602 1422l-355 -1421h-831l93 372h458l262 1049h373zM295 1q-154 2 -235 110q-55 74 -55 173q0 44 12 92l260 1046h373z" />
    <glyph glyph-name="W" unicode="W" horiz-adv-x="2272" 
d="M277 1422h373l-355 -1422q-152 1 -235 110q-55 73 -55 175q0 48 11 91zM417 0l93 373h24q21 0 38 14q18 16 22 34l93 372q39 157 176 266q138 110 293 110h188q155 0 238 -110q56 -73 56 -175q0 -44 -12 -91l-93 -372q-1 -4 -1 -11q0 -15 7 -23q9 -14 30 -14h98
q21 0 38 14q18 16 22 34l249 1001h373l-261 -1046q-37 -155 -176 -266q-138 -110 -293 -110h-188q-155 0 -238 110q-56 73 -56 175q0 45 12 91l93 372q1 4 1 11q0 15 -7 23q-10 14 -30 14h-98q-18 0 -37 -14q-17 -14 -23 -34l-92 -372q-39 -156 -177 -266
q-137 -110 -293 -110h-69z" />
    <glyph glyph-name="X" unicode="X" 
d="M641 898h458q11 0 20 4q10 4 17 10q6 4 15 15q6 12 8 19l118 476h373l-130 -521q-14 -58 -44 -111q-23 -40 -54 -79q12 -36 15 -78q0 -3 0.5 -9t0.5 -9q0 -38 -12 -93l-130 -521h-373l119 476q1 4 1 13v5q-2 9 -7 16q-6 7 -12 10q-7 4 -18 4h-458zM296 1h-373l130 521
q12 50 44 111q24 42 54 78q-12 38 -15 79q0 3 -0.5 9t-0.5 9q0 38 12 93l130 521h373z" />
    <glyph glyph-name="Y" unicode="Y" 
d="M1019 898l-223 -897h-373l131 524h-125q-155 0 -238 110q-56 73 -56 175q0 44 12 91l130 521h373l-119 -476q-1 -4 -1 -12q0 -13 6 -22q11 -14 31 -14h452zM1146 921l5 6q6 12 8 19l119 476h372l-130 -521q-39 -157 -176 -266q-138 -110 -293 -110h-4z" />
    <glyph glyph-name="Z" unicode="Z" 
d="M414 476l-118 -475q-153 1 -236 110q-55 74 -55 173q0 45 12 93l36 144q39 157 176 266q137 111 293 111h577q21 0 37 14q19 15 23 34l119 477q154 -2 235 -110q56 -73 56 -175q0 -44 -12 -91l-36 -146q-19 -76 -65.5 -145t-111.5 -121q-138 -110 -293 -110h-577
q-18 0 -37 -14q-17 -14 -23 -35zM417 1l93 373h879l-93 -373h-879zM1157 1423l-93 -373h-879l92 373h880z" />
    <glyph glyph-name="bracketleft" unicode="[" horiz-adv-x="874" 
d="M585 -47l-93 -372h-674l267 1069h373l-174 -697h301zM488 772h-373l267 1070h674l-93 -373h-301z" />
    <glyph glyph-name="backslash" unicode="\" horiz-adv-x="1484" 
d="M1206 0h-440l-489 1422h441z" />
    <glyph glyph-name="bracketright" unicode="]" horiz-adv-x="874" 
d="M-89 -47h301l174 697h373l-267 -1069h-674zM416 772l174 697h-301l93 373h674l-267 -1070h-373z" />
    <glyph glyph-name="asciicircum" unicode="^" horiz-adv-x="1087" 
d="M521 863l-24 -27h-366l320 434q46 68 121 111q45 24 87 34zM780 1415q37 -10 69 -34q52 -42 66 -111l103 -434h-366l-10 27z" />
    <glyph glyph-name="underscore" unicode="_" horiz-adv-x="1570" 
d="M16 373h1370l-93 -373h-1370z" />
    <glyph glyph-name="a" unicode="a" 
d="M1137 1049h-459l93 373h504q131 0 212 -80.5t81 -204.5q0 -48 -11 -91l-261 -1046h-373l63 253h-506l93 373h506l94 375q1 4 1 12q0 16 -10 26t-27 10zM295 0h-372l261 1046q38 155 174.5 265t291.5 111z" />
    <glyph glyph-name="b" unicode="b" 
d="M1159 946l14 55q1 4 1 11q0 16 -10 26.5t-27 10.5h-459l93 373h504q131 0 212 -80.5t81 -204.5q0 -48 -11 -91l-36 -145q-27 -103 -100 -190q16 -45 16 -99q0 -42 -11 -91l-36 -145q-39 -155 -176.5 -265.5t-293.5 -110.5h-503l93 373h458q20 0 37.5 14t22.5 34l14 55
q2 8 2 12q0 16 -10.5 26t-27.5 10l-458 1l93 373h458q20 0 37.5 14t22.5 34zM277 1422h373l-355 -1422h-372z" />
    <glyph glyph-name="c" unicode="c" 
d="M509 373h880l-93 -373h-880zM294 0q-129 2 -209 82t-80 202q0 44 12 92l167 670q25 101 96 187.5t169 137t200 51.5zM770 1422h880l-93 -373h-880z" />
    <glyph glyph-name="d" unicode="d" 
d="M1029 426l143 571q2 8 2 13q0 17 -11.5 28t-29.5 11h-455l93 373h510q153 0 234 -108q55 -74 55 -171q0 -43 -12 -90l-170 -683q-37 -151 -173 -261q-135 -108 -288 -108h-510l93 372h454q22 0 41 15.5t24 37.5zM295 1h-372l354 1421h373z" />
    <glyph glyph-name="e" unicode="e" 
d="M641 898h879l-93 -372h-40q-137 0 -277.5 -0.5t-177.5 -0.5h-385zM510 373h879l-93 -373h-879zM296 0q-153 1 -236 110q-55 74 -55 173q0 45 12 93l36 145q24 101 99 190q-16 45 -16 100q0 41 11 90l37 145q37 155 176 266q136 109 290 110zM771 1422h879l-93 -373h-879z
" />
    <glyph glyph-name="f" unicode="f" 
d="M296 0h-373l130 521q24 101 99 190q-16 45 -16 100q0 43 11 90l37 145q38 155 174.5 265t291.5 111zM641 898h879l-93 -372l-880 -1zM771 1422h879l-93 -373h-879z" />
    <glyph glyph-name="g" unicode="g" 
d="M296 1q-154 0 -236 110q-55 74 -55 173q0 44 12 92l167 671q39 156 176 265q136 110 290 110zM510 373h506l26 104q1 4 1 11q0 17 -10.5 27t-27.5 10h-458l93 373h503q131 0 212.5 -80.5t81.5 -204.5q0 -43 -12 -91l-130 -521h-878zM771 1422h861l-93 -372h-861z" />
    <glyph glyph-name="h" unicode="h" 
d="M1147 898l131 524h372l-354 -1421h-373l131 524h-506l93 373h506zM296 1h-373l354 1421h373z" />
    <glyph glyph-name="i" unicode="i" horiz-adv-x="573" 
d="M-77 1l354 1421h373l-354 -1421h-373z" />
    <glyph glyph-name="j" unicode="j" 
d="M1650 1422l-260 -1046q-39 -156 -177 -266q-136 -109 -290 -110l355 1422h372zM802 0h-879l93 373h879z" />
    <glyph glyph-name="k" unicode="k" 
d="M-77 1l354 1421h373l-354 -1421h-373zM641 898h466q18 3 32.5 16.5t19.5 30.5l119 477h372l-124 -500q-33 -126 -104 -211q15 -42 15 -94q0 -50 -16 -117l-125 -499h-373l119 476q2 8 2 12q0 14 -8.5 24t-21.5 12h-467z" />
    <glyph glyph-name="l" unicode="l" 
d="M277 1422h373l-354 -1422q-153 1 -236 110q-55 74 -55 173q0 45 12 93zM417 0l93 373h879l-93 -373h-879z" />
    <glyph glyph-name="m" unicode="m" horiz-adv-x="2272" 
d="M-77 0l260 1045q39 155 177 266q135 109 290 111l-355 -1422h-372zM771 1422h70q76 0 137.5 -29.5t99.5 -81.5q56 -73 56 -174q0 -44 -12 -92l-93 -373q-1 -3 -1 -10q0 -16 10.5 -26t27.5 -10h98q18 0 36.5 13.5t22.5 31.5l93 374q39 157 176 266q138 111 294 111h187
q77 0 138.5 -29t99.5 -82q56 -73 56 -174q0 -44 -12 -92l-260 -1045h-373l249 1000q2 8 2 12q0 16 -10.5 26t-27.5 10h-97q-20 0 -37.5 -13.5t-22.5 -33.5l-94 -372h1q-37 -155 -176 -266q-137 -110 -293 -110h-188q-156 0 -238 110q-55 73 -55 175q0 48 11 91l93 371
q2 8 2 12q0 16 -10.5 26t-27.5 10h-25z" />
    <glyph glyph-name="n" unicode="n" horiz-adv-x="1706" 
d="M-77 0l261 1046q37 155 176 266q136 109 290 110l-355 -1422h-372zM771 1422h70q155 0 238 -110q56 -73 56 -175q0 -45 -12 -91l-156 -625q3 -31 5 -34q11 -14 31 -14h98q20 0 37 14t23 34l249 1001h373l-261 -1046q-39 -156 -176 -266q-138 -110 -293 -110h-188
q-155 0 -238 110q-56 73 -56 175q0 45 12 91l156 625q1 4 1 11q0 15 -7 23q-9 14 -30 14h-25z" />
    <glyph glyph-name="o" unicode="o" 
d="M1275 1422q155 0 238 -110q56 -73 56 -175q0 -45 -12 -91l-167 -670q-39 -155 -177 -265q-139 -111 -293 -111h-503l93 373h458q18 0 38 15q18 13 22 34l145 579q1 4 1 11q0 16 -10 26.5t-27 10.5h-459l93 373h504zM295 0q-153 1 -235 111q-55 74 -55 173q0 44 12 92
l167 670q37 155 176 266q134 108 290 110z" />
    <glyph glyph-name="p" unicode="p" horiz-adv-x="1574" 
d="M1068 641q18 14 25 37l79 319q2 8 2 13q0 14 -8 24q-12 15 -33 15h-455l93 373h511q153 0 234 -108q54 -73 54 -172q0 -46 -11 -89l-108 -431q-37 -153 -173 -261q-134 -108 -288 -108h-510l93 373h455q20 0 40 15zM296 0h-373l354 1422h373z" />
    <glyph glyph-name="q" unicode="q" 
d="M1173 1001q1 4 1 11q0 16 -10 26.5t-27 10.5h-459l93 373h504q155 0 238 -110q55 -73 55 -175q0 -48 -11 -91l-167 -669q-15 -60 -47 -115q-23 -42 -53 -76q6 -4 16 -6l33 -5l-92 -369h-72q-109 0 -187 59q-68 51 -94 136h-477l93 373h458q19 0 38 14q17 13 22 34zM296 1
q-153 1 -236 110q-55 74 -55 173q0 45 12 93l167 669q37 155 176 266q136 109 290 110z" />
    <glyph glyph-name="r" unicode="r" horiz-adv-x="1574" 
d="M1069 642q17 13 24 36l79 320q2 8 2 13q0 13 -8 24q-12 15 -33 15h-455l93 373h511q152 0 234 -108q54 -73 54 -172q0 -47 -11 -90l-107 -431q-15 -57 -44 -108q-22 -40 -53 -77q12 -36 15 -77q0 -3 0.5 -9t0.5 -9q0 -37 -12 -92l-63 -249h-372l51 204q1 4 1 12
q0 12 -6 21q-9 13 -26 15h-464l93 373h457q21 2 39 16zM296 1h-373l354 1422h373z" />
    <glyph glyph-name="s" unicode="s" 
d="M1042 476q1 4 1 12q0 15 -7 23q-10 14 -30 14h-577q-155 0 -238 110q-55 73 -55 176q0 47 11 90l37 146q39 157 176 266q136 109 290 110l-119 -477q-1 -4 -1 -11q0 -15 7 -23q11 -14 30 -14h577q156 0 238 -111q56 -73 56 -175q0 -44 -12 -91l-36 -144
q-39 -155 -177 -266q-136 -109 -290 -110zM802 1h-879l93 373h879zM771 1423h880l-93 -373h-880z" />
    <glyph glyph-name="t" unicode="t" horiz-adv-x="1574" 
d="M423 1l250 1001q1 4 1 11q0 15 -7 23q-9 14 -30 14h-452l92 373h874l-355 -1422h-373zM1272 1423h379l-93 -373h-379z" />
    <glyph glyph-name="u" unicode="u" 
d="M510 373h459q19 0 36 14q18 14 23 34l250 1001h372l-260 -1046q-39 -155 -177 -265q-137 -110 -293 -110h-503zM296 1q-154 0 -236 110q-55 74 -55 173q0 44 12 92l260 1046h373z" />
    <glyph glyph-name="v" unicode="v" horiz-adv-x="1524" 
d="M1602 1422l-355 -1421h-831l93 372h458l262 1049h373zM295 1q-154 2 -235 110q-55 74 -55 173q0 44 12 92l260 1046h373z" />
    <glyph glyph-name="w" unicode="w" horiz-adv-x="2272" 
d="M277 1422h373l-355 -1422q-152 1 -235 110q-55 73 -55 175q0 48 11 91zM417 0l93 373h24q21 0 38 14q18 16 22 34l93 372q39 157 176 266q138 110 293 110h188q155 0 238 -110q56 -73 56 -175q0 -44 -12 -91l-93 -372q-1 -4 -1 -11q0 -15 7 -23q9 -14 30 -14h98
q21 0 38 14q18 16 22 34l249 1001h373l-261 -1046q-37 -155 -176 -266q-138 -110 -293 -110h-188q-155 0 -238 110q-56 73 -56 175q0 45 12 91l93 372q1 4 1 11q0 15 -7 23q-10 14 -30 14h-98q-18 0 -37 -14q-17 -14 -23 -34l-92 -372q-39 -156 -177 -266
q-137 -110 -293 -110h-69z" />
    <glyph glyph-name="x" unicode="x" 
d="M641 898h458q11 0 20 4q10 4 17 10q6 4 15 15q6 12 8 19l118 476h373l-130 -521q-14 -58 -44 -111q-23 -40 -54 -79q12 -36 15 -78q0 -3 0.5 -9t0.5 -9q0 -38 -12 -93l-130 -521h-373l119 476q1 4 1 13v5q-2 9 -7 16q-6 7 -12 10q-7 4 -18 4h-458zM296 1h-373l130 521
q12 50 44 111q24 42 54 78q-12 38 -15 79q0 3 -0.5 9t-0.5 9q0 38 12 93l130 521h373z" />
    <glyph glyph-name="y" unicode="y" 
d="M1019 898l-223 -897h-373l131 524h-125q-155 0 -238 110q-56 73 -56 175q0 44 12 91l130 521h373l-119 -476q-1 -4 -1 -12q0 -13 6 -22q11 -14 31 -14h452zM1146 921l5 6q6 12 8 19l119 476h372l-130 -521q-39 -157 -176 -266q-138 -110 -293 -110h-4z" />
    <glyph glyph-name="z" unicode="z" 
d="M414 476l-118 -475q-153 1 -236 110q-55 74 -55 173q0 45 12 93l36 144q39 157 176 266q137 111 293 111h577q21 0 37 14q19 15 23 34l119 477q154 -2 235 -110q56 -73 56 -175q0 -44 -12 -91l-36 -146q-19 -76 -65.5 -145t-111.5 -121q-138 -110 -293 -110h-577
q-18 0 -37 -14q-17 -14 -23 -35zM417 1l93 373h879l-93 -373h-879zM1157 1423l-93 -373h-879l92 373h880z" />
    <glyph glyph-name="bar" unicode="|" horiz-adv-x="573" 
d="M-160 -330l519 2080h373l-519 -2080h-373z" />
    <glyph glyph-name="asciitilde" unicode="~" horiz-adv-x="1234" 
d="M861 793l31 123h293l-41 -163q-28 -115 -131 -198q-103 -82 -218 -82q-121 1 -126 1q-86 5 -141 58q-53 50 -62 141q0 19 -21 19h-30q-27 0 -34 -27l-30 -122h-293l41 163q29 116 131 197q101 82 218 82q120 0 126 -1q38 0 76.5 -16.5t64.5 -41.5q27 -25 40 -60
t17.5 -61.5t10.5 -32.5q5 -6 14 -6h30q12 0 22 8t12 19z" />
    <glyph glyph-name="exclamdown" unicode="&#xa1;" horiz-adv-x="573" 
d="M277 0l254 1019h373l-254 -1019h-373zM917 1070h-373l88 351h372z" />
    <glyph glyph-name="brokenbar" unicode="&#xa6;" horiz-adv-x="573" 
d="M73 789l518 894h373l-519 -894h-372zM-188 -258l518 895h373l-519 -895h-372z" />
    <glyph glyph-name="dieresis" unicode="&#xa8;" horiz-adv-x="849" 
d="M567 1587h-249l62 248h249zM967 1587h-249l62 248h249z" />
    <glyph glyph-name="guillemetleft" unicode="&#xab;" horiz-adv-x="2189" 
d="M1019 538l21 -11l-104 -416l-728 351q-70 34 -102 108q-16 42 -16 85v14h656zM777 790h-657q23 53 66 100q69 73 155 107l904 351l-104 -416zM2022 538l21 -11l-104 -416l-728 351q-70 34 -102 108q-16 38 -16 85v14h656zM1780 790h-657q23 53 66 100q66 72 155 107
l904 351l-104 -416z" />
    <glyph glyph-name="macron" unicode="&#xaf;" horiz-adv-x="949" 
d="M1067 1587h-749l62 248h749z" />
    <glyph glyph-name="plusminus" unicode="&#xb1;" horiz-adv-x="1204" 
d="M889 1116h316l-93 -373h-316l-78 -316h-373l79 316h-316l93 373h316l78 315h373zM10 352h1005l-93 -373h-1004z" />
    <glyph glyph-name="periodcentered" unicode="&#xb7;" horiz-adv-x="517" 
d="M175 904h316l-79 -317h-316z" />
    <glyph glyph-name="periodcentered" unicode="&#x2219;" horiz-adv-x="517" 
d="M175 904h316l-79 -317h-316z" />
    <glyph glyph-name="guillemetright" unicode="&#xbb;" horiz-adv-x="2189" 
d="M81 538l338 131h657q-24 -52 -67 -99q-65 -73 -155 -108l-904 -351l104 416zM448 790l-293 142l104 416l729 -351q71 -35 101 -107q17 -43 17 -92v-8h-658zM1084 538l338 131h656q-23 -51 -66 -99q-65 -73 -155 -108l-904 -351l104 416zM1451 790l-293 142l104 416
l729 -351q71 -35 101 -107q17 -43 17 -92v-8h-658z" />
    <glyph glyph-name="questiondown" unicode="&#xbf;" 
d="M1565 1070h-372l87 352h373zM1180 1019h373l-36 -144q-38 -154 -173 -260q-133 -107 -288 -109h-227q-21 0 -41 -15q-19 -15 -25 -38l-113 -453q-156 0 -237 108q-55 72 -55 172q0 44 12 90l34 139q39 153 174 261q135 109 288 109h227q21 0 41 15q20 16 24 37zM864 373
h879l-93 -373h-879z" />
    <glyph glyph-name="Acircumflex" unicode="&#xc2;" 
d="M1137 1049h-459l93 373h504q131 0 212 -80.5t81 -204.5q0 -48 -11 -91l-261 -1046h-373l63 253h-506l93 373h506l94 375q1 4 1 12q0 16 -10 26t-27 10zM296 0h-373l261 1046q38 155 174.5 265t291.5 111zM892 1550h-279l262 297q35 40 94 64t123 24t111 -24t62 -64
l114 -297h-279l-63 165z" />
    <glyph glyph-name="Atilde" unicode="&#xc3;" 
d="M1137 1049h-459l93 373h504q131 0 212 -80.5t81 -204.5q0 -48 -11 -91l-261 -1046h-373l63 253h-506l93 373h506l94 375q1 4 1 12q0 16 -10 26t-27 10zM296 0h-373l261 1046q38 155 174.5 265t291.5 111zM1330 1833h213l-24 -98q-19 -79 -103.5 -134.5t-183.5 -55.5h-124
q-74 4 -124 40t-58 92v3q-1 17 -16.5 28t-38.5 11h-30q-28 0 -51.5 -15.5t-28.5 -37.5l-17 -66h-212l24 98q19 79 103.5 134.5t183.5 55.5h124q74 -4 123.5 -40t58.5 -93v-2q1 -17 16.5 -28t38.5 -11h30q28 0 51.5 15.5t28.5 37.5z" />
    <glyph glyph-name="Adieresis" unicode="&#xc4;" 
d="M1137 1049h-459l93 373h504q131 0 212 -80.5t81 -204.5q0 -48 -11 -91l-261 -1046h-373l63 253h-506l93 373h506l94 375q1 4 1 12q0 16 -10 26t-27 10zM296 0h-373l261 1046q38 155 174.5 265t291.5 111zM930 1587h-249l61 248h249zM1330 1587h-249l61 248h249z" />
    <glyph glyph-name="AE" unicode="&#xc6;" horiz-adv-x="2580" 
d="M2564 1049h-880l93 373h880zM1302 0h-379l63 253h-506l93 373h506l93 375l2 13q0 13 -9 24t-28 11h-459l93 373h503q103 0 177 -50l3 -3q95 50 202 53zM296 0h-373l261 1046q39 157 173 265t293 111zM1554 525l93 373h880l-93 -372zM2303 0h-880l93 373h880z" />
    <glyph glyph-name="Ecircumflex" unicode="&#xca;" 
d="M640 898h880l-93 -372h-40q-137 0 -278 -0.5t-178 -0.5h-384zM509 373h880l-93 -373h-879zM296 0q-153 1 -236 110q-55 72 -55 173q0 45 12 93l36 145q24 101 99 190q-16 45 -16 100q0 47 11 90l37 145q37 155 176 266q136 109 290 110zM771 1422h879l-93 -373h-879z
M1002 1550h-279l262 297q35 40 94 64t123 24t111 -24t62 -64l114 -297h-279l-63 165z" />
    <glyph glyph-name="Edieresis" unicode="&#xcb;" 
d="M640 898h880l-93 -372h-40q-137 0 -278 -0.5t-178 -0.5h-384zM509 373h880l-93 -373h-879zM296 0q-153 1 -236 110q-55 72 -55 173q0 45 12 93l36 145q24 101 99 190q-16 45 -16 100q0 47 11 90l37 145q37 155 176 266q136 109 290 110zM771 1422h879l-93 -373h-879z
M1039 1587h-249l62 248h249zM1439 1587h-249l62 248h249z" />
    <glyph glyph-name="Icircumflex" unicode="&#xce;" horiz-adv-x="573" 
d="M-77 1l354 1421h373l-354 -1421h-373zM391 1550h-278l262 297q35 40 94 64t123 24t111 -24t62 -64l114 -297h-279l-63 165z" />
    <glyph glyph-name="Idieresis" unicode="&#xcf;" horiz-adv-x="573" 
d="M-77 1l354 1421h373l-354 -1421h-373zM429 1587h-249l62 248h249zM829 1587h-249l62 248h249z" />
    <glyph glyph-name="Eth" unicode="&#xd0;" horiz-adv-x="1673" 
d="M396 1h-373l174 699h-200l65 261h200l115 461h373l-115 -461h386l-65 -261h-386zM1027 1h-510l93 372h454q22 0 40.5 15.5t24.5 37.5l142 571q2 10 2 15q0 14 -10 25.5t-31 11.5h-454l93 373h510q129 0 209 -79.5t80 -199.5q0 -43 -12 -90l-170 -683q-39 -155 -174 -262
t-287 -107z" />
    <glyph glyph-name="Ntilde" unicode="&#xd1;" horiz-adv-x="1706" 
d="M-77 0l261 1046q39 156 176 266q136 109 290 110l-354 -1422h-373zM771 1422h70q155 0 238 -110q56 -73 56 -175q0 -45 -12 -91l-156 -625q3 -31 5 -34q11 -14 31 -14h98q20 0 37 14t23 34l249 1001h373l-261 -1046q-39 -156 -176 -266q-138 -110 -293 -110h-188
q-155 0 -238 110q-55 74 -55 175q0 48 11 91l156 625q2 8 2 11q0 13 -8 23q-9 14 -30 14h-25zM1407 1833h213l-25 -98q-20 -79 -103.5 -134.5t-183.5 -55.5h-124q-74 4 -123.5 40t-58.5 92v3q-2 17 -17 28t-38 11h-29q-28 0 -52 -15.5t-29 -37.5l-16 -66h-213l24 98
q19 79 103.5 134.5t183.5 55.5h125q73 -4 123 -40t58 -93l1 -2q2 -17 17 -28t37 -11h30q28 0 51.5 15.5t29.5 37.5z" />
    <glyph glyph-name="Ocircumflex" unicode="&#xd4;" horiz-adv-x="1572" 
d="M1275 1422q155 0 238 -110q55 -74 55 -175q0 -48 -11 -91l-167 -670q-39 -155 -177 -265q-139 -111 -293 -111h-503l93 373h458q18 0 38 15q18 13 22 34l145 579q1 4 1 11q0 16 -10 26.5t-27 10.5h-459l93 373h504zM295 0q-153 1 -235 111q-55 72 -55 173q0 44 12 92
l167 670q37 155 176 266q134 108 290 110zM891 1550h-278l262 297q34 40 93.5 64t122.5 24q64 0 111.5 -24t62.5 -64l113 -297h-278l-63 165z" />
    <glyph glyph-name="Otilde" unicode="&#xd5;" horiz-adv-x="1572" 
d="M1275 1422q155 0 238 -110q55 -74 55 -175q0 -48 -11 -91l-167 -670q-39 -155 -177 -265q-139 -111 -293 -111h-503l93 373h458q18 0 38 15q18 13 22 34l145 579q1 4 1 11q0 16 -10 26.5t-27 10.5h-459l93 373h504zM295 0q-153 1 -235 111q-55 72 -55 173q0 44 12 92
l167 670q37 155 176 266q134 108 290 110zM1330 1833h213l-24 -98q-20 -79 -104 -134.5t-183 -55.5h-125q-74 4 -123.5 40t-57.5 92l-1 3q-2 17 -17 28t-37 11h-30q-28 0 -51.5 -15.5t-29.5 -37.5l-16 -66h-213l25 98q19 79 103 134.5t183 55.5h125q74 -4 123.5 -40
t57.5 -93l1 -2q2 -17 17 -28t37 -11h30q28 0 51.5 15.5t29.5 37.5z" />
    <glyph glyph-name="Odieresis" unicode="&#xd6;" horiz-adv-x="1572" 
d="M1275 1422q155 0 238 -110q55 -74 55 -175q0 -48 -11 -91l-167 -670q-39 -155 -177 -265q-139 -111 -293 -111h-503l93 373h458q18 0 38 15q18 13 22 34l145 579q1 4 1 11q0 16 -10 26.5t-27 10.5h-459l93 373h504zM295 0q-153 1 -235 111q-55 72 -55 173q0 44 12 92
l167 670q37 155 176 266q134 108 290 110zM929 1587h-249l62 248h249zM1329 1587h-249l62 248h249z" />
    <glyph glyph-name="multiply" unicode="&#xd7;" horiz-adv-x="1174" 
d="M693 243l-168 223l-279 -223l-197 263l279 223l-168 223l330 264l167 -223l279 222l197 -263l-278 -222l168 -224z" />
    <glyph glyph-name="Oslash" unicode="&#xd8;" 
d="M210 -150h-308l191 225q-88 79 -88 213q0 47 11 88l168 670q37 149 168 260t298 116l-243 -974l508 601h-237l93 373h459l114 134h309l-174 -206q90 -81 90 -212q0 -44 -12 -92l-168 -670q-38 -154 -175.5 -265t-293.5 -111h-503l33 133zM968 373q19 0 37 14t23 35
l140 560l-515 -609h315z" />
    <glyph glyph-name="Ucircumflex" unicode="&#xdb;" 
d="M510 373h458q20 0 37 14q18 14 23 34l249 1001h373l-261 -1046q-37 -154 -176 -265q-137 -110 -293 -110h-503zM296 1q-154 0 -236 110q-55 72 -55 173q0 44 12 92l260 1046h373zM891 1550h-278l262 297q34 40 93.5 64t122.5 24q64 0 111.5 -24t62.5 -64l113 -297h-278
l-63 165z" />
    <glyph glyph-name="Udieresis" unicode="&#xdc;" 
d="M510 373h458q20 0 37 14q18 14 23 34l249 1001h373l-261 -1046q-37 -154 -176 -265q-137 -110 -293 -110h-503zM296 1q-154 0 -236 110q-55 72 -55 173q0 44 12 92l260 1046h373zM929 1587h-249l62 248h249zM1329 1587h-249l62 248h249z" />
    <glyph glyph-name="Thorn" unicode="&#xde;" horiz-adv-x="1574" 
d="M246 -200h-373l404 1622h373zM940 53h-510l93 373h455q22 0 40 14.5t25 37.5l79 319q2 10 2 15q0 17 -11 27t-30 10h-455l93 373h510q129 0 209.5 -79.5t80.5 -199.5q0 -43 -12 -90l-107 -431q-38 -151 -172 -260t-290 -109z" />
    <glyph glyph-name="acircumflex" unicode="&#xe2;" 
d="M1137 1049h-459l93 373h504q131 0 212 -80.5t81 -204.5q0 -48 -11 -91l-261 -1046h-373l63 253h-506l93 373h506l94 375q1 4 1 12q0 16 -10 26t-27 10zM296 0h-373l261 1046q38 155 174.5 265t291.5 111zM892 1550h-279l262 297q35 40 94 64t123 24t111 -24t62 -64
l114 -297h-279l-63 165z" />
    <glyph glyph-name="atilde" unicode="&#xe3;" 
d="M1137 1049h-459l93 373h504q131 0 212 -80.5t81 -204.5q0 -48 -11 -91l-261 -1046h-373l63 253h-506l93 373h506l94 375q1 4 1 12q0 16 -10 26t-27 10zM296 0h-373l261 1046q38 155 174.5 265t291.5 111zM1330 1833h213l-24 -98q-19 -79 -103.5 -134.5t-183.5 -55.5h-124
q-74 4 -124 40t-58 92v3q-1 17 -16.5 28t-38.5 11h-30q-28 0 -51.5 -15.5t-28.5 -37.5l-17 -66h-212l24 98q19 79 103.5 134.5t183.5 55.5h124q74 -4 123.5 -40t58.5 -93v-2q1 -17 16.5 -28t38.5 -11h30q28 0 51.5 15.5t28.5 37.5z" />
    <glyph glyph-name="adieresis" unicode="&#xe4;" 
d="M1137 1049h-459l93 373h504q131 0 212 -80.5t81 -204.5q0 -48 -11 -91l-261 -1046h-373l63 253h-506l93 373h506l94 375q1 4 1 12q0 16 -10 26t-27 10zM296 0h-373l261 1046q38 155 174.5 265t291.5 111zM930 1587h-249l61 248h249zM1330 1587h-249l61 248h249z" />
    <glyph glyph-name="ae" unicode="&#xe6;" horiz-adv-x="2580" 
d="M2564 1049h-880l93 373h880zM1302 0h-379l63 253h-506l93 373h506l93 375l2 13q0 13 -9 24t-28 11h-459l93 373h503q103 0 177 -50l3 -3q95 50 202 53zM296 0h-373l261 1046q39 157 173 265t293 111zM1554 525l93 373h880l-93 -372zM2303 0h-880l93 373h880z" />
    <glyph glyph-name="ecircumflex" unicode="&#xea;" 
d="M640 898h880l-93 -372h-40q-137 0 -278 -0.5t-178 -0.5h-384zM509 373h880l-93 -373h-879zM296 0q-153 1 -236 110q-55 72 -55 173q0 45 12 93l36 145q24 101 99 190q-16 45 -16 100q0 47 11 90l37 145q37 155 176 266q136 109 290 110zM771 1422h879l-93 -373h-879z
M1002 1550h-279l262 297q35 40 94 64t123 24t111 -24t62 -64l114 -297h-279l-63 165z" />
    <glyph glyph-name="edieresis" unicode="&#xeb;" 
d="M640 898h880l-93 -372h-40q-137 0 -278 -0.5t-178 -0.5h-384zM509 373h880l-93 -373h-879zM296 0q-153 1 -236 110q-55 72 -55 173q0 45 12 93l36 145q24 101 99 190q-16 45 -16 100q0 47 11 90l37 145q37 155 176 266q136 109 290 110zM771 1422h879l-93 -373h-879z
M1039 1587h-249l62 248h249zM1439 1587h-249l62 248h249z" />
    <glyph glyph-name="icircumflex" unicode="&#xee;" horiz-adv-x="573" 
d="M-77 1l354 1421h373l-354 -1421h-373zM391 1550h-278l262 297q35 40 94 64t123 24t111 -24t62 -64l114 -297h-279l-63 165z" />
    <glyph glyph-name="idieresis" unicode="&#xef;" horiz-adv-x="573" 
d="M-77 1l354 1421h373l-354 -1421h-373zM429 1587h-249l62 248h249zM829 1587h-249l62 248h249z" />
    <glyph glyph-name="eth" unicode="&#xf0;" horiz-adv-x="1673" 
d="M396 1h-373l174 699h-200l65 261h200l115 461h373l-115 -461h386l-65 -261h-386zM1027 1h-510l93 372h454q22 0 40.5 15.5t24.5 37.5l142 571q2 10 2 15q0 14 -10 25.5t-31 11.5h-454l93 373h510q129 0 209 -79.5t80 -199.5q0 -43 -12 -90l-170 -683q-39 -155 -174 -262
t-287 -107z" />
    <glyph glyph-name="ntilde" unicode="&#xf1;" horiz-adv-x="1706" 
d="M-77 0l261 1046q39 156 176 266q136 109 290 110l-354 -1422h-373zM771 1422h70q155 0 238 -110q56 -73 56 -175q0 -45 -12 -91l-156 -625q3 -31 5 -34q11 -14 31 -14h98q20 0 37 14t23 34l249 1001h373l-261 -1046q-39 -156 -176 -266q-138 -110 -293 -110h-188
q-155 0 -238 110q-55 74 -55 175q0 48 11 91l156 625q2 8 2 11q0 13 -8 23q-9 14 -30 14h-25zM1407 1833h213l-25 -98q-20 -79 -103.5 -134.5t-183.5 -55.5h-124q-74 4 -123.5 40t-58.5 92v3q-2 17 -17 28t-38 11h-29q-28 0 -52 -15.5t-29 -37.5l-16 -66h-213l24 98
q19 79 103.5 134.5t183.5 55.5h125q73 -4 123 -40t58 -93l1 -2q2 -17 17 -28t37 -11h30q28 0 51.5 15.5t29.5 37.5z" />
    <glyph glyph-name="ocircumflex" unicode="&#xf4;" horiz-adv-x="1572" 
d="M1275 1422q155 0 238 -110q55 -74 55 -175q0 -48 -11 -91l-167 -670q-39 -155 -177 -265q-139 -111 -293 -111h-503l93 373h458q18 0 38 15q18 13 22 34l145 579q1 4 1 11q0 16 -10 26.5t-27 10.5h-459l93 373h504zM295 0q-153 1 -235 111q-55 72 -55 173q0 44 12 92
l167 670q37 155 176 266q134 108 290 110zM891 1550h-278l262 297q34 40 93.5 64t122.5 24q64 0 111.5 -24t62.5 -64l113 -297h-278l-63 165z" />
    <glyph glyph-name="otilde" unicode="&#xf5;" horiz-adv-x="1572" 
d="M1275 1422q155 0 238 -110q55 -74 55 -175q0 -48 -11 -91l-167 -670q-39 -155 -177 -265q-139 -111 -293 -111h-503l93 373h458q18 0 38 15q18 13 22 34l145 579q1 4 1 11q0 16 -10 26.5t-27 10.5h-459l93 373h504zM295 0q-153 1 -235 111q-55 72 -55 173q0 44 12 92
l167 670q37 155 176 266q134 108 290 110zM1330 1833h213l-24 -98q-20 -79 -104 -134.5t-183 -55.5h-125q-74 4 -123.5 40t-57.5 92l-1 3q-2 17 -17 28t-37 11h-30q-28 0 -51.5 -15.5t-29.5 -37.5l-16 -66h-213l25 98q19 79 103 134.5t183 55.5h125q74 -4 123.5 -40
t57.5 -93l1 -2q2 -17 17 -28t37 -11h30q28 0 51.5 15.5t29.5 37.5z" />
    <glyph glyph-name="odieresis" unicode="&#xf6;" horiz-adv-x="1572" 
d="M1275 1422q155 0 238 -110q55 -74 55 -175q0 -48 -11 -91l-167 -670q-39 -155 -177 -265q-139 -111 -293 -111h-503l93 373h458q18 0 38 15q18 13 22 34l145 579q1 4 1 11q0 16 -10 26.5t-27 10.5h-459l93 373h504zM295 0q-153 1 -235 111q-55 72 -55 173q0 44 12 92
l167 670q37 155 176 266q134 108 290 110zM929 1587h-249l62 248h249zM1329 1587h-249l62 248h249z" />
    <glyph glyph-name="divide" unicode="&#xf7;" horiz-adv-x="1204" 
d="M862 1009h-372l93 372h372zM1062 543h-1004l93 373h1004zM630 77h-372l93 372h372z" />
    <glyph glyph-name="oslash" unicode="&#xf8;" 
d="M210 -150h-308l191 225q-88 79 -88 213q0 47 11 88l168 670q37 149 168 260t298 116l-243 -974l508 601h-237l93 373h459l114 134h309l-174 -206q90 -81 90 -212q0 -44 -12 -92l-168 -670q-38 -154 -175.5 -265t-293.5 -111h-503l33 133zM968 373q19 0 37 14t23 35
l140 560l-515 -609h315z" />
    <glyph glyph-name="ucircumflex" unicode="&#xfb;" 
d="M510 373h458q20 0 37 14q18 14 23 34l249 1001h373l-261 -1046q-37 -154 -176 -265q-137 -110 -293 -110h-503zM296 1q-154 0 -236 110q-55 72 -55 173q0 44 12 92l260 1046h373zM891 1550h-278l262 297q34 40 93.5 64t122.5 24q64 0 111.5 -24t62.5 -64l113 -297h-278
l-63 165z" />
    <glyph glyph-name="udieresis" unicode="&#xfc;" 
d="M510 373h458q20 0 37 14q18 14 23 34l249 1001h373l-261 -1046q-37 -154 -176 -265q-137 -110 -293 -110h-503zM296 1q-154 0 -236 110q-55 72 -55 173q0 44 12 92l260 1046h373zM929 1587h-249l62 248h249zM1329 1587h-249l62 248h249z" />
    <glyph glyph-name="thorn" unicode="&#xfe;" horiz-adv-x="1574" 
d="M246 -200h-373l404 1622h373zM940 53h-510l93 373h455q22 0 40 14.5t25 37.5l79 319q2 10 2 15q0 17 -11 27t-30 10h-455l93 373h510q129 0 209.5 -79.5t80.5 -199.5q0 -43 -12 -90l-107 -431q-38 -151 -172 -260t-290 -109z" />
    <glyph glyph-name="ydieresis" unicode="&#xff;" 
d="M1019 898l-223 -897h-373l131 524h-125q-155 0 -238 110q-56 73 -56 175q0 44 12 91l130 521h373l-119 -476q-2 -8 -2 -12q0 -14 7 -22q11 -14 31 -14h452zM1146 921l4 6q7 10 8 19l119 476h373l-130 -521q-39 -155 -177 -266q-136 -110 -293 -110h-3zM929 1587h-249
l62 248h249zM1329 1587h-249l62 248h249z" />
    <glyph glyph-name="Amacron" unicode="&#x100;" 
d="M1137 1049h-459l93 373h504q131 0 212 -80.5t81 -204.5q0 -48 -11 -91l-261 -1046h-373l63 253h-506l93 373h506l94 375q1 4 1 12q0 16 -10 26t-27 10zM296 0h-373l261 1046q38 155 174.5 265t291.5 111zM1380 1587h-749l61 248h749z" />
    <glyph glyph-name="amacron" unicode="&#x101;" 
d="M1137 1049h-459l93 373h504q131 0 212 -80.5t81 -204.5q0 -48 -11 -91l-261 -1046h-373l63 253h-506l93 373h506l94 375q1 4 1 12q0 16 -10 26t-27 10zM296 0h-373l261 1046q38 155 174.5 265t291.5 111zM1380 1587h-749l61 248h749z" />
    <glyph glyph-name="Ccircumflex" unicode="&#x108;" 
d="M508 373h881l-93 -373h-880zM294 0q-129 2 -209 81.5t-80 202.5q0 44 12 92l167 670q25 101 96 187.5t169 137t200 51.5zM770 1422h880l-93 -373h-880zM1018 1550h-279l262 297q35 40 94 64t123 24t111 -24t62 -64l114 -297h-279l-63 165z" />
    <glyph glyph-name="ccircumflex" unicode="&#x109;" 
d="M508 373h881l-93 -373h-880zM294 0q-129 2 -209 81.5t-80 202.5q0 44 12 92l167 670q25 101 96 187.5t169 137t200 51.5zM770 1422h880l-93 -373h-880zM1018 1550h-279l262 297q35 40 94 64t123 24t111 -24t62 -64l114 -297h-279l-63 165z" />
    <glyph glyph-name="Cdotaccent" unicode="&#x10a;" 
d="M508 373h881l-93 -373h-880zM294 0q-129 2 -209 81.5t-80 202.5q0 44 12 92l167 670q25 101 96 187.5t169 137t200 51.5zM770 1422h880l-93 -373h-880zM1255 1587h-249l62 248h249z" />
    <glyph glyph-name="cdotaccent" unicode="&#x10b;" 
d="M508 373h881l-93 -373h-880zM294 0q-129 2 -209 81.5t-80 202.5q0 44 12 92l167 670q25 101 96 187.5t169 137t200 51.5zM770 1422h880l-93 -373h-880zM1255 1587h-249l62 248h249z" />
    <glyph glyph-name="Ccaron" unicode="&#x10c;" 
d="M508 373h881l-93 -373h-880zM294 0q-129 2 -209 81.5t-80 202.5q0 44 12 92l167 670q25 101 96 187.5t169 137t200 51.5zM770 1422h880l-93 -373h-880zM1089 1835l63 -165l145 165h279l-262 -297q-35 -40 -94 -64t-123 -24t-111 24t-62 64l-114 297h279z" />
    <glyph glyph-name="ccaron" unicode="&#x10d;" 
d="M508 373h881l-93 -373h-880zM294 0q-129 2 -209 81.5t-80 202.5q0 44 12 92l167 670q25 101 96 187.5t169 137t200 51.5zM770 1422h880l-93 -373h-880zM1089 1835l63 -165l145 165h279l-262 -297q-35 -40 -94 -64t-123 -24t-111 24t-62 64l-114 297h279z" />
    <glyph glyph-name="Dcaron" unicode="&#x10e;" 
d="M1029 426l143 571q2 8 2 13q0 17 -11.5 28t-29.5 11h-455l93 373h510q153 0 234 -108q55 -74 55 -171q0 -43 -12 -90l-170 -683q-37 -151 -173 -261q-135 -108 -288 -108h-510l93 372h454q22 0 41 15.5t24 37.5zM296 1h-373l354 1421h373zM922 1835l63 -165l145 165h279
l-262 -297q-35 -40 -94 -64t-123 -24t-111 24t-62 64l-114 297h279z" />
    <glyph glyph-name="dcaron" unicode="&#x10f;" 
d="M1029 426l143 571q2 8 2 13q0 17 -11.5 28t-29.5 11h-455l93 373h510q153 0 234 -108q55 -74 55 -171q0 -43 -12 -90l-170 -683q-37 -151 -173 -261q-135 -108 -288 -108h-510l93 372h454q22 0 41 15.5t24 37.5zM296 1h-373l354 1421h373zM922 1835l63 -165l145 165h279
l-262 -297q-35 -40 -94 -64t-123 -24t-111 24t-62 64l-114 297h279z" />
    <glyph glyph-name="Dcroat" unicode="&#x110;" horiz-adv-x="1673" 
d="M396 1h-373l174 699h-200l65 261h200l115 461h373l-115 -461h386l-65 -261h-386zM1027 1h-510l93 372h454q22 0 40.5 15.5t24.5 37.5l142 571q2 10 2 15q0 14 -10 25.5t-31 11.5h-454l93 373h510q129 0 209 -79.5t80 -199.5q0 -43 -12 -90l-170 -683q-39 -155 -174 -262
t-287 -107z" />
    <glyph glyph-name="dcroat" unicode="&#x111;" horiz-adv-x="1673" 
d="M396 1h-373l174 699h-200l65 261h200l115 461h373l-115 -461h386l-65 -261h-386zM1027 1h-510l93 372h454q22 0 40.5 15.5t24.5 37.5l142 571q2 10 2 15q0 14 -10 25.5t-31 11.5h-454l93 373h510q129 0 209 -79.5t80 -199.5q0 -43 -12 -90l-170 -683q-39 -155 -174 -262
t-287 -107z" />
    <glyph glyph-name="Emacron" unicode="&#x112;" 
d="M640 898h880l-93 -372h-40q-137 0 -278 -0.5t-178 -0.5h-384zM509 373h880l-93 -373h-879zM296 0q-153 1 -236 110q-55 72 -55 173q0 45 12 93l36 145q24 101 99 190q-16 45 -16 100q0 47 11 90l37 145q37 155 176 266q136 109 290 110zM771 1422h879l-93 -373h-879z
M1489 1587h-749l62 248h749z" />
    <glyph glyph-name="emacron" unicode="&#x113;" 
d="M640 898h880l-93 -372h-40q-137 0 -278 -0.5t-178 -0.5h-384zM509 373h880l-93 -373h-879zM296 0q-153 1 -236 110q-55 72 -55 173q0 45 12 93l36 145q24 101 99 190q-16 45 -16 100q0 47 11 90l37 145q37 155 176 266q136 109 290 110zM771 1422h879l-93 -373h-879z
M1489 1587h-749l62 248h749z" />
    <glyph glyph-name="Edotaccent" unicode="&#x116;" 
d="M640 898h880l-93 -372h-40q-137 0 -278 -0.5t-178 -0.5h-384zM509 373h880l-93 -373h-879zM296 0q-153 1 -236 110q-55 72 -55 173q0 45 12 93l36 145q24 101 99 190q-16 45 -16 100q0 47 11 90l37 145q37 155 176 266q136 109 290 110zM771 1422h879l-93 -373h-879z
M1239 1587h-249l62 248h249z" />
    <glyph glyph-name="edotaccent" unicode="&#x117;" 
d="M640 898h880l-93 -372h-40q-137 0 -278 -0.5t-178 -0.5h-384zM509 373h880l-93 -373h-879zM296 0q-153 1 -236 110q-55 72 -55 173q0 45 12 93l36 145q24 101 99 190q-16 45 -16 100q0 47 11 90l37 145q37 155 176 266q136 109 290 110zM771 1422h879l-93 -373h-879z
M1239 1587h-249l62 248h249z" />
    <glyph glyph-name="Ecaron" unicode="&#x11a;" 
d="M640 898h880l-93 -372h-40q-137 0 -278 -0.5t-178 -0.5h-384zM509 373h880l-93 -373h-879zM296 0q-153 1 -236 110q-55 72 -55 173q0 45 12 93l36 145q24 101 99 190q-16 45 -16 100q0 47 11 90l37 145q37 155 176 266q136 109 290 110zM771 1422h879l-93 -373h-879z
M1073 1835l63 -165l145 165h279l-262 -297q-35 -40 -94 -64t-123 -24t-111 24t-62 64l-114 297h279z" />
    <glyph glyph-name="ecaron" unicode="&#x11b;" 
d="M640 898h880l-93 -372h-40q-137 0 -278 -0.5t-178 -0.5h-384zM509 373h880l-93 -373h-879zM296 0q-153 1 -236 110q-55 72 -55 173q0 45 12 93l36 145q24 101 99 190q-16 45 -16 100q0 47 11 90l37 145q37 155 176 266q136 109 290 110zM771 1422h879l-93 -373h-879z
M1073 1835l63 -165l145 165h279l-262 -297q-35 -40 -94 -64t-123 -24t-111 24t-62 64l-114 297h279z" />
    <glyph glyph-name="Gcircumflex" unicode="&#x11c;" 
d="M296 1q-154 0 -236 110q-55 72 -55 173q0 44 12 92l167 671q39 156 176 265q136 110 290 110zM510 373h506l26 104q1 4 1 11q0 17 -10.5 27t-27.5 10h-458l93 373h503q131 0 212.5 -80.5t81.5 -204.5q0 -43 -12 -91l-130 -521h-878zM771 1422h861l-93 -372h-861z
M1001 1550h-279l262 297q35 40 94 64t123 24t111 -24t62 -64l114 -297h-279l-63 165z" />
    <glyph glyph-name="gcircumflex" unicode="&#x11d;" 
d="M296 1q-154 0 -236 110q-55 72 -55 173q0 44 12 92l167 671q39 156 176 265q136 110 290 110zM510 373h506l26 104q1 4 1 11q0 17 -10.5 27t-27.5 10h-458l93 373h503q131 0 212.5 -80.5t81.5 -204.5q0 -43 -12 -91l-130 -521h-878zM771 1422h861l-93 -372h-861z
M1001 1550h-279l262 297q35 40 94 64t123 24t111 -24t62 -64l114 -297h-279l-63 165z" />
    <glyph glyph-name="Gdotaccent" unicode="&#x120;" 
d="M296 1q-154 0 -236 110q-55 72 -55 173q0 44 12 92l167 671q39 156 176 265q136 110 290 110zM510 373h506l26 104q1 4 1 11q0 17 -10.5 27t-27.5 10h-458l93 373h503q131 0 212.5 -80.5t81.5 -204.5q0 -43 -12 -91l-130 -521h-878zM771 1422h861l-93 -372h-861z
M1238 1587h-249l62 248h249z" />
    <glyph glyph-name="gdotaccent" unicode="&#x121;" 
d="M296 1q-154 0 -236 110q-55 72 -55 173q0 44 12 92l167 671q39 156 176 265q136 110 290 110zM510 373h506l26 104q1 4 1 11q0 17 -10.5 27t-27.5 10h-458l93 373h503q131 0 212.5 -80.5t81.5 -204.5q0 -43 -12 -91l-130 -521h-878zM771 1422h861l-93 -372h-861z
M1238 1587h-249l62 248h249z" />
    <glyph glyph-name="Hcircumflex" unicode="&#x124;" 
d="M1147 898l131 524h372l-354 -1421h-373l131 524h-506l93 373h506zM296 1h-373l354 1421h373zM892 1550h-279l262 297q35 40 94 64t123 24t111 -24t62 -64l114 -297h-279l-63 165z" />
    <glyph glyph-name="hcircumflex" unicode="&#x125;" 
d="M1147 898l131 524h372l-354 -1421h-373l131 524h-506l93 373h506zM296 1h-373l354 1421h373zM892 1550h-279l262 297q35 40 94 64t123 24t111 -24t62 -64l114 -297h-279l-63 165z" />
    <glyph glyph-name="Hbar" unicode="&#x126;" horiz-adv-x="1589" 
d="M1296 1h-373l131 524h-506l93 373h506l38 152h-627l-262 -1049h-373l262 1049h-128l65 261h128l27 111h373l-27 -111h627l27 111h373l-27 -111h143l-65 -261h-143z" />
    <glyph glyph-name="hbar" unicode="&#x127;" horiz-adv-x="1589" 
d="M1296 1h-373l131 524h-506l93 373h506l38 152h-627l-262 -1049h-373l262 1049h-128l65 261h128l27 111h373l-27 -111h627l27 111h373l-27 -111h143l-65 -261h-143z" />
    <glyph glyph-name="Itilde" unicode="&#x128;" horiz-adv-x="573" 
d="M-77 1l354 1421h373l-354 -1421h-373zM830 1833h213l-24 -98q-19 -79 -103.5 -134.5t-183.5 -55.5h-125q-74 4 -123.5 40t-57.5 92l-1 3q-2 17 -17 28t-37 11h-30q-28 0 -51.5 -15.5t-28.5 -37.5l-17 -66h-213l25 98q20 79 103.5 134.5t183.5 55.5h124q74 -4 123.5 -40
t58.5 -93v-2q2 -17 17 -28t37 -11h30q28 0 52 15.5t29 37.5z" />
    <glyph glyph-name="itilde" unicode="&#x129;" horiz-adv-x="573" 
d="M-77 1l354 1421h373l-354 -1421h-373zM830 1833h213l-24 -98q-19 -79 -103.5 -134.5t-183.5 -55.5h-125q-74 4 -123.5 40t-57.5 92l-1 3q-2 17 -17 28t-37 11h-30q-28 0 -51.5 -15.5t-28.5 -37.5l-17 -66h-213l25 98q20 79 103.5 134.5t183.5 55.5h124q74 -4 123.5 -40
t58.5 -93v-2q2 -17 17 -28t37 -11h30q28 0 52 15.5t29 37.5z" />
    <glyph glyph-name="Imacron" unicode="&#x12a;" horiz-adv-x="573" 
d="M-77 1l354 1421h373l-354 -1421h-373zM879 1587h-749l62 248h749z" />
    <glyph glyph-name="imacron" unicode="&#x12b;" horiz-adv-x="573" 
d="M-77 1l354 1421h373l-354 -1421h-373zM879 1587h-749l62 248h749z" />
    <glyph glyph-name="Idotaccent" unicode="&#x130;" horiz-adv-x="573" 
d="M-77 1l354 1421h373l-354 -1421h-373zM629 1587h-249l62 248h249z" />
    <glyph glyph-name="idotless" unicode="&#x131;" horiz-adv-x="573" 
d="M-77 0l354 1422h373l-354 -1422h-373z" />
    <glyph glyph-name="Jcircumflex" unicode="&#x134;" 
d="M1651 1422l-261 -1046q-39 -156 -177 -266q-136 -109 -290 -110l355 1422h373zM802 0h-879l93 373h879zM1402 1550h-279l262 297q35 40 94 64t123 24t111 -24t62 -64l114 -297h-279l-63 165z" />
    <glyph glyph-name="jcircumflex" unicode="&#x135;" 
d="M1651 1422l-261 -1046q-39 -156 -177 -266q-136 -109 -290 -110l355 1422h373zM802 0h-879l93 373h879zM1402 1550h-279l262 297q35 40 94 64t123 24t111 -24t62 -64l114 -297h-279l-63 165z" />
    <glyph glyph-name="Lmiddledot" unicode="&#x13f;" 
d="M277 1422h373l-354 -1422q-153 1 -236 110q-55 74 -55 173q0 45 12 93zM417 0l93 373h879l-93 -373h-879zM844 903h317l-79 -317h-317z" />
    <glyph glyph-name="lmiddledot" unicode="&#x140;" 
d="M277 1422h373l-354 -1422q-153 1 -236 110q-55 74 -55 173q0 45 12 93zM417 0l93 373h879l-93 -373h-879zM844 903h317l-79 -317h-317z" />
    <glyph glyph-name="Lslash" unicode="&#x141;" horiz-adv-x="1886" 
d="M1609 0h-879l93 373h879zM609 0q-138 5 -214.5 85.5t-76.5 201.5q0 46 11 89l46 182l-385 -208l56 224l385 208l159 640h373l-101 -407l451 244l-56 -224l-451 -244z" />
    <glyph glyph-name="lslash" unicode="&#x142;" horiz-adv-x="1886" 
d="M1609 0h-879l93 373h879zM609 0q-138 5 -214.5 85.5t-76.5 201.5q0 46 11 89l46 182l-385 -208l56 224l385 208l159 640h373l-101 -407l451 244l-56 -224l-451 -244z" />
    <glyph glyph-name="Ncaron" unicode="&#x147;" horiz-adv-x="1706" 
d="M-77 0l261 1046q39 156 176 266q136 109 290 110l-354 -1422h-373zM771 1422h70q155 0 238 -110q56 -73 56 -175q0 -45 -12 -91l-156 -625q3 -31 5 -34q11 -14 31 -14h98q20 0 37 14t23 34l249 1001h373l-261 -1046q-39 -156 -176 -266q-138 -110 -293 -110h-188
q-155 0 -238 110q-55 74 -55 175q0 48 11 91l156 625q2 8 2 11q0 13 -8 23q-9 14 -30 14h-25zM1039 1835l63 -165l145 165h279l-262 -297q-35 -40 -94 -64t-123 -24t-111 24t-62 64l-114 297h279z" />
    <glyph glyph-name="ncaron" unicode="&#x148;" horiz-adv-x="1706" 
d="M-77 0l261 1046q39 156 176 266q136 109 290 110l-354 -1422h-373zM771 1422h70q155 0 238 -110q56 -73 56 -175q0 -45 -12 -91l-156 -625q3 -31 5 -34q11 -14 31 -14h98q20 0 37 14t23 34l249 1001h373l-261 -1046q-39 -156 -176 -266q-138 -110 -293 -110h-188
q-155 0 -238 110q-55 74 -55 175q0 48 11 91l156 625q2 8 2 11q0 13 -8 23q-9 14 -30 14h-25zM1039 1835l63 -165l145 165h279l-262 -297q-35 -40 -94 -64t-123 -24t-111 24t-62 64l-114 297h279z" />
    <glyph glyph-name="Omacron" unicode="&#x14c;" horiz-adv-x="1572" 
d="M1275 1422q155 0 238 -110q55 -74 55 -175q0 -48 -11 -91l-167 -670q-39 -155 -177 -265q-139 -111 -293 -111h-503l93 373h458q18 0 38 15q18 13 22 34l145 579q1 4 1 11q0 16 -10 26.5t-27 10.5h-459l93 373h504zM295 0q-153 1 -235 111q-55 72 -55 173q0 44 12 92
l167 670q37 155 176 266q134 108 290 110zM1379 1587h-749l62 248h749z" />
    <glyph glyph-name="omacron" unicode="&#x14d;" horiz-adv-x="1572" 
d="M1275 1422q155 0 238 -110q55 -74 55 -175q0 -48 -11 -91l-167 -670q-39 -155 -177 -265q-139 -111 -293 -111h-503l93 373h458q18 0 38 15q18 13 22 34l145 579q1 4 1 11q0 16 -10 26.5t-27 10.5h-459l93 373h504zM295 0q-153 1 -235 111q-55 72 -55 173q0 44 12 92
l167 670q37 155 176 266q134 108 290 110zM1379 1587h-749l62 248h749z" />
    <glyph glyph-name="OE" unicode="&#x152;" horiz-adv-x="2580" 
d="M2564 1049h-880l93 373h880zM1302 0q-107 5 -176 53q-106 -53 -206 -53h-503l93 373h458q20 0 37.5 14t22.5 35l144 579l2 13q0 13 -9.5 24t-28.5 11h-458l93 373h503q108 0 180 -53q95 50 202 53zM296 0q-135 5 -213 84.5t-78 203.5q0 47 11 88l168 670q37 149 168 260
t298 116zM1554 525l93 373h880l-93 -372zM2303 0h-880l93 373h880z" />
    <glyph glyph-name="oe" unicode="&#x153;" horiz-adv-x="2580" 
d="M2564 1049h-880l93 373h880zM1302 0q-107 5 -176 53q-106 -53 -206 -53h-503l93 373h458q20 0 37.5 14t22.5 35l144 579l2 13q0 13 -9.5 24t-28.5 11h-458l93 373h503q108 0 180 -53q95 50 202 53zM296 0q-135 5 -213 84.5t-78 203.5q0 47 11 88l168 670q37 149 168 260
t298 116zM1554 525l93 373h880l-93 -372zM2303 0h-880l93 373h880z" />
    <glyph glyph-name="Rcaron" unicode="&#x158;" 
d="M1069 642q17 13 24 36l79 320q2 8 2 13q0 13 -8 24q-12 15 -33 15h-455l93 373h511q152 0 234 -108q54 -73 54 -172q0 -47 -11 -90l-107 -431q-15 -57 -44 -108q-22 -40 -53 -77q12 -36 15 -77q0 -3 0.5 -9t0.5 -9q0 -44 -12 -92l-63 -249h-372l51 204q2 8 2 12
q0 11 -7 21q-9 13 -26 15h-464l93 373h457q21 2 39 16zM296 1h-373l355 1422h372zM922 1835l63 -165l145 165h279l-262 -297q-35 -40 -94 -64t-123 -24t-111 24t-62 64l-114 297h279z" />
    <glyph glyph-name="rcaron" unicode="&#x159;" 
d="M1069 642q17 13 24 36l79 320q2 8 2 13q0 13 -8 24q-12 15 -33 15h-455l93 373h511q152 0 234 -108q54 -73 54 -172q0 -47 -11 -90l-107 -431q-15 -57 -44 -108q-22 -40 -53 -77q12 -36 15 -77q0 -3 0.5 -9t0.5 -9q0 -44 -12 -92l-63 -249h-372l51 204q2 8 2 12
q0 11 -7 21q-9 13 -26 15h-464l93 373h457q21 2 39 16zM296 1h-373l355 1422h372zM922 1835l63 -165l145 165h279l-262 -297q-35 -40 -94 -64t-123 -24t-111 24t-62 64l-114 297h279z" />
    <glyph glyph-name="Scircumflex" unicode="&#x15c;" horiz-adv-x="1574" 
d="M1042 476q1 4 1 12q0 15 -7 23q-10 14 -30 14h-577q-155 0 -238 110q-55 73 -55 176q0 47 11 90l37 146q39 157 176 266q136 109 290 110l-119 -477q-1 -4 -1 -11q0 -15 7 -23q11 -14 30 -14h577q156 0 238 -111q56 -73 56 -175q0 -44 -12 -91l-36 -144
q-39 -155 -177 -266q-136 -109 -290 -110zM802 1h-879l93 373h879zM771 1423h880l-93 -373h-880zM952 1550h-279l262 297q35 40 94 64t123 24t111 -24t62 -64l114 -297h-279l-63 165z" />
    <glyph glyph-name="scircumflex" unicode="&#x15d;" horiz-adv-x="1574" 
d="M1042 476q1 4 1 12q0 15 -7 23q-10 14 -30 14h-577q-155 0 -238 110q-55 73 -55 176q0 47 11 90l37 146q39 157 176 266q136 109 290 110l-119 -477q-1 -4 -1 -11q0 -15 7 -23q11 -14 30 -14h577q156 0 238 -111q56 -73 56 -175q0 -44 -12 -91l-36 -144
q-39 -155 -177 -266q-136 -109 -290 -110zM802 1h-879l93 373h879zM771 1423h880l-93 -373h-880zM952 1550h-279l262 297q35 40 94 64t123 24t111 -24t62 -64l114 -297h-279l-63 165z" />
    <glyph glyph-name="Scaron" unicode="&#x160;" horiz-adv-x="1574" 
d="M1042 476q1 4 1 12q0 15 -7 23q-10 14 -30 14h-577q-155 0 -238 110q-55 73 -55 176q0 47 11 90l37 146q39 157 176 266q136 109 290 110l-119 -477q-1 -4 -1 -11q0 -15 7 -23q11 -14 30 -14h577q156 0 238 -111q56 -73 56 -175q0 -44 -12 -91l-36 -144
q-39 -155 -177 -266q-136 -109 -290 -110zM802 1h-879l93 373h879zM771 1423h880l-93 -373h-880zM1023 1835l63 -165l145 165h279l-262 -297q-35 -40 -94 -64t-123 -24t-111 24t-62 64l-114 297h279z" />
    <glyph glyph-name="scaron" unicode="&#x161;" horiz-adv-x="1574" 
d="M1042 476q1 4 1 12q0 15 -7 23q-10 14 -30 14h-577q-155 0 -238 110q-55 73 -55 176q0 47 11 90l37 146q39 157 176 266q136 109 290 110l-119 -477q-1 -4 -1 -11q0 -15 7 -23q11 -14 30 -14h577q156 0 238 -111q56 -73 56 -175q0 -44 -12 -91l-36 -144
q-39 -155 -177 -266q-136 -109 -290 -110zM802 1h-879l93 373h879zM771 1423h880l-93 -373h-880zM1023 1835l63 -165l145 165h279l-262 -297q-35 -40 -94 -64t-123 -24t-111 24t-62 64l-114 297h279z" />
    <glyph glyph-name="Tcaron" unicode="&#x164;" horiz-adv-x="1574" 
d="M423 1l250 1001q1 4 1 11q0 15 -7 23q-9 14 -30 14h-452l92 373h874l-355 -1422h-373zM1272 1423h379l-93 -373h-379zM963 1835l63 -165l145 165h279l-262 -297q-35 -40 -94 -64t-123 -24t-111 24t-62 64l-114 297h279z" />
    <glyph glyph-name="tcaron" unicode="&#x165;" horiz-adv-x="1574" 
d="M423 1l250 1001q1 4 1 11q0 15 -7 23q-9 14 -30 14h-452l92 373h874l-355 -1422h-373zM1272 1423h379l-93 -373h-379zM963 1835l63 -165l145 165h279l-262 -297q-35 -40 -94 -64t-123 -24t-111 24t-62 64l-114 297h279z" />
    <glyph glyph-name="Tbar" unicode="&#x166;" horiz-adv-x="1574" 
d="M1559 1050h-380l93 373h380zM796 1h-373l162 649h-369l65 261h369l23 91l2 12q0 15 -11 25.5t-27 10.5h-452l93 373h873l-128 -512h354l-65 -261h-354z" />
    <glyph glyph-name="tbar" unicode="&#x167;" horiz-adv-x="1574" 
d="M1559 1050h-380l93 373h380zM796 1h-373l162 649h-369l65 261h369l23 91l2 12q0 15 -11 25.5t-27 10.5h-452l93 373h873l-128 -512h354l-65 -261h-354z" />
    <glyph glyph-name="Utilde" unicode="&#x168;" 
d="M510 373h458q20 0 37 14q18 14 23 34l249 1001h373l-261 -1046q-37 -154 -176 -265q-137 -110 -293 -110h-503zM296 1q-154 0 -236 110q-55 72 -55 173q0 44 12 92l260 1046h373zM1330 1833h213l-24 -98q-20 -79 -104 -134.5t-183 -55.5h-125q-74 4 -123.5 40t-57.5 92
l-1 3q-2 17 -17 28t-37 11h-30q-28 0 -51.5 -15.5t-29.5 -37.5l-16 -66h-213l25 98q19 79 103 134.5t183 55.5h125q74 -4 123.5 -40t57.5 -93l1 -2q2 -17 17 -28t37 -11h30q28 0 51.5 15.5t29.5 37.5z" />
    <glyph glyph-name="utilde" unicode="&#x169;" 
d="M510 373h458q20 0 37 14q18 14 23 34l249 1001h373l-261 -1046q-37 -154 -176 -265q-137 -110 -293 -110h-503zM296 1q-154 0 -236 110q-55 72 -55 173q0 44 12 92l260 1046h373zM1330 1833h213l-24 -98q-20 -79 -104 -134.5t-183 -55.5h-125q-74 4 -123.5 40t-57.5 92
l-1 3q-2 17 -17 28t-37 11h-30q-28 0 -51.5 -15.5t-29.5 -37.5l-16 -66h-213l25 98q19 79 103 134.5t183 55.5h125q74 -4 123.5 -40t57.5 -93l1 -2q2 -17 17 -28t37 -11h30q28 0 51.5 15.5t29.5 37.5z" />
    <glyph glyph-name="Umacron" unicode="&#x16a;" 
d="M510 373h458q20 0 37 14q18 14 23 34l249 1001h373l-261 -1046q-37 -154 -176 -265q-137 -110 -293 -110h-503zM296 1q-154 0 -236 110q-55 72 -55 173q0 44 12 92l260 1046h373zM1379 1587h-749l62 248h749z" />
    <glyph glyph-name="umacron" unicode="&#x16b;" 
d="M510 373h458q20 0 37 14q18 14 23 34l249 1001h373l-261 -1046q-37 -154 -176 -265q-137 -110 -293 -110h-503zM296 1q-154 0 -236 110q-55 72 -55 173q0 44 12 92l260 1046h373zM1379 1587h-749l62 248h749z" />
    <glyph glyph-name="Wcircumflex" unicode="&#x174;" horiz-adv-x="2272" 
d="M277 1422h373l-355 -1422q-152 1 -235 110q-55 75 -55 175q0 42 11 91zM417 0l93 373h24q21 0 38 14q18 16 22 34l93 372q39 157 176 266q138 110 293 110h188q155 0 238 -110q56 -73 56 -175q0 -44 -12 -91l-93 -372q-1 -4 -1 -11q0 -15 7 -23q9 -14 30 -14h98
q21 0 38 14q18 16 22 34l249 1001h373l-261 -1046q-37 -155 -176 -266q-138 -110 -293 -110h-188q-155 0 -238 110q-55 74 -55 175q0 48 11 91l93 372q2 8 2 11q0 13 -8 23q-10 14 -30 14h-98q-18 0 -37 -14q-17 -14 -23 -34l-92 -372q-39 -156 -177 -266
q-137 -110 -293 -110h-69zM1241 1550h-279l262 297q35 40 94 64t123 24t111 -24t63 -64l113 -297h-279l-63 165z" />
    <glyph glyph-name="wcircumflex" unicode="&#x175;" horiz-adv-x="2272" 
d="M277 1422h373l-355 -1422q-152 1 -235 110q-55 75 -55 175q0 42 11 91zM417 0l93 373h24q21 0 38 14q18 16 22 34l93 372q39 157 176 266q138 110 293 110h188q155 0 238 -110q56 -73 56 -175q0 -44 -12 -91l-93 -372q-1 -4 -1 -11q0 -15 7 -23q9 -14 30 -14h98
q21 0 38 14q18 16 22 34l249 1001h373l-261 -1046q-37 -155 -176 -266q-138 -110 -293 -110h-188q-155 0 -238 110q-55 74 -55 175q0 48 11 91l93 372q2 8 2 11q0 13 -8 23q-10 14 -30 14h-98q-18 0 -37 -14q-17 -14 -23 -34l-92 -372q-39 -156 -177 -266
q-137 -110 -293 -110h-69zM1241 1550h-279l262 297q35 40 94 64t123 24t111 -24t63 -64l113 -297h-279l-63 165z" />
    <glyph glyph-name="Ycircumflex" unicode="&#x176;" 
d="M1019 898l-223 -897h-373l131 524h-125q-155 0 -238 110q-56 73 -56 175q0 44 12 91l130 521h373l-119 -476q-2 -8 -2 -12q0 -14 7 -22q11 -14 31 -14h452zM1146 921l4 6q7 10 8 19l119 476h373l-130 -521q-39 -155 -177 -266q-136 -110 -293 -110h-3zM891 1550h-279
l262 297q35 40 94 64t123 24t111 -24t62 -64l114 -297h-279l-63 165z" />
    <glyph glyph-name="ycircumflex" unicode="&#x177;" 
d="M1019 898l-223 -897h-373l131 524h-125q-155 0 -238 110q-56 73 -56 175q0 44 12 91l130 521h373l-119 -476q-2 -8 -2 -12q0 -14 7 -22q11 -14 31 -14h452zM1146 921l4 6q7 10 8 19l119 476h373l-130 -521q-39 -155 -177 -266q-136 -110 -293 -110h-3zM891 1550h-279
l262 297q35 40 94 64t123 24t111 -24t62 -64l114 -297h-279l-63 165z" />
    <glyph glyph-name="Ydieresis" unicode="&#x178;" 
d="M1019 898l-223 -897h-373l131 524h-125q-155 0 -238 110q-56 73 -56 175q0 44 12 91l130 521h373l-119 -476q-2 -8 -2 -12q0 -14 7 -22q11 -14 31 -14h452zM1146 921l4 6q7 10 8 19l119 476h373l-130 -521q-39 -155 -177 -266q-136 -110 -293 -110h-3zM929 1587h-249
l62 248h249zM1329 1587h-249l62 248h249z" />
    <glyph glyph-name="Zdotaccent" unicode="&#x17b;" horiz-adv-x="1572" 
d="M414 476l-118 -475q-153 1 -236 110q-55 72 -55 173q0 45 12 93l36 144q39 157 176 266q137 111 293 111h577q21 0 37 14q19 15 23 34l119 477q154 -2 235 -110q55 -74 55 -175q0 -48 -11 -91l-36 -146q-19 -76 -65.5 -145t-111.5 -121q-138 -110 -293 -110h-577
q-18 0 -37 -14q-17 -14 -23 -35zM417 1l93 373h879l-93 -373h-879zM1156 1423l-93 -373h-879l93 373h879zM1089 1587h-249l62 248h249z" />
    <glyph glyph-name="zdotaccent" unicode="&#x17c;" horiz-adv-x="1572" 
d="M414 476l-118 -475q-153 1 -236 110q-55 72 -55 173q0 45 12 93l36 144q39 157 176 266q137 111 293 111h577q21 0 37 14q19 15 23 34l119 477q154 -2 235 -110q55 -74 55 -175q0 -48 -11 -91l-36 -146q-19 -76 -65.5 -145t-111.5 -121q-138 -110 -293 -110h-577
q-18 0 -37 -14q-17 -14 -23 -35zM417 1l93 373h879l-93 -373h-879zM1156 1423l-93 -373h-879l93 373h879zM1089 1587h-249l62 248h249z" />
    <glyph glyph-name="Zcaron" unicode="&#x17d;" horiz-adv-x="1572" 
d="M414 476l-118 -475q-153 1 -236 110q-55 72 -55 173q0 45 12 93l36 144q39 157 176 266q137 111 293 111h577q21 0 37 14q19 15 23 34l119 477q154 -2 235 -110q55 -74 55 -175q0 -48 -11 -91l-36 -146q-19 -76 -65.5 -145t-111.5 -121q-138 -110 -293 -110h-577
q-18 0 -37 -14q-17 -14 -23 -35zM417 1l93 373h879l-93 -373h-879zM1156 1423l-93 -373h-879l93 373h879zM923 1835l63 -165l145 165h279l-262 -297q-35 -40 -94 -64t-123 -24t-111 24t-62 64l-114 297h279z" />
    <glyph glyph-name="zcaron" unicode="&#x17e;" horiz-adv-x="1572" 
d="M414 476l-118 -475q-153 1 -236 110q-55 72 -55 173q0 45 12 93l36 144q39 157 176 266q137 111 293 111h577q21 0 37 14q19 15 23 34l119 477q154 -2 235 -110q55 -74 55 -175q0 -48 -11 -91l-36 -146q-19 -76 -65.5 -145t-111.5 -121q-138 -110 -293 -110h-577
q-18 0 -37 -14q-17 -14 -23 -35zM417 1l93 373h879l-93 -373h-879zM1156 1423l-93 -373h-879l93 373h879zM923 1835l63 -165l145 165h279l-262 -297q-35 -40 -94 -64t-123 -24t-111 24t-62 64l-114 297h279z" />
    <glyph glyph-name="circumflexcomb" unicode="&#x302;" horiz-adv-x="966" 
d="M588 1550h-279l262 297q35 40 94 64t123 24t111 -24t62 -64l114 -297h-279l-63 165z" />
    <glyph glyph-name="tildecomb" unicode="&#x303;" horiz-adv-x="1154" 
d="M1121 1833h212l-24 -98q-19 -79 -103.5 -134.5t-183.5 -55.5h-124q-74 4 -124 40t-58 92v3q-1 17 -16.5 28t-38.5 11h-30q-28 0 -51.5 -15.5t-28.5 -37.5l-16 -66h-213l24 98q19 79 103.5 134.5t183.5 55.5h124q74 -4 123.5 -40t58.5 -93v-2q1 -17 16.5 -28t38.5 -11h30
q28 0 51.5 15.5t28.5 37.5z" />
    <glyph glyph-name="macroncomb" unicode="&#x304;" horiz-adv-x="949" 
d="M1067 1587h-749l62 248h749z" />
    <glyph glyph-name="dotaccentcomb" unicode="&#x307;" horiz-adv-x="449" 
d="M567 1587h-249l62 248h249z" />
    <glyph glyph-name="dieresiscomb" unicode="&#x308;" horiz-adv-x="849" 
d="M567 1587h-249l62 248h249zM967 1587h-249l62 248h249z" />
    <glyph glyph-name="caroncomb" unicode="&#x30c;" horiz-adv-x="966" 
d="M659 1835l63 -165l145 165h279l-262 -297q-35 -40 -94 -64t-123 -24t-111 24t-62 64l-114 297h279z" />
    <glyph glyph-name="Wdieresis" unicode="&#x1e84;" horiz-adv-x="2272" 
d="M277 1422h373l-355 -1422q-152 1 -235 110q-55 75 -55 175q0 42 11 91zM417 0l93 373h24q21 0 38 14q18 16 22 34l93 372q39 157 176 266q138 110 293 110h188q155 0 238 -110q56 -73 56 -175q0 -44 -12 -91l-93 -372q-1 -4 -1 -11q0 -15 7 -23q9 -14 30 -14h98
q21 0 38 14q18 16 22 34l249 1001h373l-261 -1046q-37 -155 -176 -266q-138 -110 -293 -110h-188q-155 0 -238 110q-55 74 -55 175q0 48 11 91l93 372q2 8 2 11q0 13 -8 23q-10 14 -30 14h-98q-18 0 -37 -14q-17 -14 -23 -34l-92 -372q-39 -156 -177 -266
q-137 -110 -293 -110h-69zM1279 1587h-249l62 248h249zM1679 1587h-249l62 248h249z" />
    <glyph glyph-name="wdieresis" unicode="&#x1e85;" horiz-adv-x="2272" 
d="M277 1422h373l-355 -1422q-152 1 -235 110q-55 75 -55 175q0 42 11 91zM417 0l93 373h24q21 0 38 14q18 16 22 34l93 372q39 157 176 266q138 110 293 110h188q155 0 238 -110q56 -73 56 -175q0 -44 -12 -91l-93 -372q-1 -4 -1 -11q0 -15 7 -23q9 -14 30 -14h98
q21 0 38 14q18 16 22 34l249 1001h373l-261 -1046q-37 -155 -176 -266q-138 -110 -293 -110h-188q-155 0 -238 110q-55 74 -55 175q0 48 11 91l93 372q2 8 2 11q0 13 -8 23q-10 14 -30 14h-98q-18 0 -37 -14q-17 -14 -23 -34l-92 -372q-39 -156 -177 -266
q-137 -110 -293 -110h-69zM1279 1587h-249l62 248h249zM1679 1587h-249l62 248h249z" />
    <glyph glyph-name="endash" unicode="&#x2013;" horiz-adv-x="1296" 
d="M174 938h1096l-75 -372h-1096z" />
    <glyph glyph-name="emdash" unicode="&#x2014;" horiz-adv-x="2392" 
d="M106 938h2192l-149 -372h-2192z" />
    <glyph glyph-name="quoteleft" unicode="&#x2018;" horiz-adv-x="572" 
d="M120 791l157 631l303 -279l-88 -352h-372z" />
    <glyph glyph-name="quoteright" unicode="&#x2019;" horiz-adv-x="572" 
d="M650 1422l-158 -631l-303 278l88 353h373z" />
    <glyph glyph-name="quotesinglbase" unicode="&#x201a;" horiz-adv-x="572" 
d="M375 322l-157 -631l-303 278l88 353h372z" />
    <glyph glyph-name="quotedblleft" unicode="&#x201c;" horiz-adv-x="1000" 
d="M120 791l157 631l303 -279l-88 -352h-372zM547 791l158 631l303 -279l-88 -352h-373z" />
    <glyph glyph-name="quotedblright" unicode="&#x201d;" horiz-adv-x="1000" 
d="M1077 1422l-157 -631l-303 278l88 353h372zM650 1422l-158 -631l-303 278l88 353h373z" />
    <glyph glyph-name="quotedblbase" unicode="&#x201e;" horiz-adv-x="1000" 
d="M803 322l-157 -631l-303 278l87 353h373zM375 322l-157 -631l-303 278l88 353h372z" />
    <glyph glyph-name="ellipsis" unicode="&#x2026;" horiz-adv-x="1938" 
d="M16 372h372l-93 -372h-372zM699 372h372l-93 -372h-372zM1382 372h372l-93 -372h-372z" />
    <glyph glyph-name="perthousand" unicode="&#x2030;" horiz-adv-x="3469" 
d="M764 965l9 36q2 10 2 13q0 35 -42 35l93 373h49q155 0 238 -110q56 -73 56 -175q0 -45 -12 -91l-32 -126q-16 -68 -55 -130l567 632h440l-570 -635q4 3 11.5 9t11.5 9q138 110 293 110h51l-93 -372q-23 0 -41.5 -12.5t-24.5 -35.5l-19 -74q-2 -10 -2 -13q0 -35 45 -35
l-93 -372h-51q-77 0 -138.5 29t-100.5 81q-55 74 -55 173q0 44 12 92l40 164q18 69 56 129l-577 -668h-440l579 672q-1 -1 -22 -19q-137 -110 -293 -110h-49l93 373q23 0 40.5 12.5t23.5 35.5zM1995 915h49q156 0 239 -110q55 -74 55 -173q0 -44 -12 -92l-40 -164
q-39 -154 -177 -265q-137 -110 -293 -110h-49l93 372q22 0 40.5 13t23.5 35l18 74q2 10 2 13q0 16 -12 25.5t-30 9.5zM612 1049q-55 0 -67 -48l-9 -36q-2 -10 -2 -13q0 -35 44 -35l-93 -373h-51q-156 0 -238 110q-56 73 -56 175q0 45 12 91l32 126q39 156 176 266
q84 67 160.5 88.5t183.5 21.5zM2995 915h49q156 0 239 -110q55 -74 55 -173q0 -44 -12 -92l-40 -164q-39 -154 -177 -265q-137 -110 -293 -110h-49l93 372q22 0 40.5 13t23.5 35l18 74q2 10 2 13q0 16 -12 25.5t-30 9.5zM2870 915l-93 -372q-22 0 -40 -13t-24 -35l-18 -74
q-2 -10 -2 -13q0 -16 12 -25.5t30 -9.5l-93 -372h-49q-155 0 -238 110q-56 73 -56 174q0 45 12 91l41 164q39 156 176 265q138 110 293 110h49z" />
    <glyph glyph-name="guilsinglleft" unicode="&#x2039;" horiz-adv-x="1186" 
d="M1019 538l21 -11l-104 -416l-728 351q-70 34 -102 108q-16 42 -16 85v14h656zM777 790h-657q23 53 66 100q69 73 155 107l904 351l-104 -416z" />
    <glyph glyph-name="guilsinglright" unicode="&#x203a;" horiz-adv-x="1186" 
d="M81 538l338 131h657q-24 -52 -67 -99q-65 -73 -155 -108l-904 -351l104 416zM448 790l-293 142l104 416l729 -351q71 -35 101 -107q17 -43 17 -92v-8h-658z" />
    <glyph glyph-name="minus" unicode="&#x2212;" horiz-adv-x="1204" 
d="M151 916h1004l-93 -373h-1004z" />
    <glyph glyph-name="almostequalto" unicode="&#x2248;" horiz-adv-x="1234" 
d="M953 1002l30 98h293l-40 -131q-30 -92 -131 -158q-104 -65 -218 -65h-127q-86 5 -141 47q-53 40 -61 112q-2 16 -21 16h-30q-11 0 -21 -6.5t-13 -15.5l-31 -98h-292l40 131q28 91 131 158q102 65 218 65h127q37 0 76 -13.5t65 -33.5t39 -48t17.5 -49.5t10.5 -26.5
q5 -4 15 -4h30q11 0 21 6.5t13 15.5zM845 570l31 98h293l-41 -131q-28 -91 -131 -158q-104 -65 -218 -65h-126q-85 4 -142 47q-53 41 -61 112q0 16 -21 16h-30q-11 0 -21 -6.5t-13 -15.5l-30 -98h-293l40 131q30 93 132 158t218 65h126q79 0 141 -47q26 -20 39 -48t18 -49.5
t11 -26.5q4 -4 14 -4h30q11 0 21 6.5t13 15.5z" />
    <glyph glyph-name="notequalto" unicode="&#x2260;" horiz-adv-x="1204" 
d="M329 151h-264l126 181h-185l93 373h351l46 66h-381l93 373h547l100 144h264l-100 -144h193l-93 -373h-359l-46 -66h389l-93 -373h-555z" />
    <glyph glyph-name="lessthanorequalto" unicode="&#x2264;" horiz-adv-x="1204" 
d="M1100 730l21 -8l-104 -333l-728 281q-71 27 -102 86q-17 32 -17 68l1 11h656zM858 932h-657q23 42 66 80q65 57 155 86l904 281l-104 -334zM26 324h1005l-93 -335h-1005z" />
    <glyph glyph-name="greaterthanorequalto" unicode="&#x2265;" horiz-adv-x="1204" 
d="M162 730l338 105h656q-24 -41 -66 -79q-67 -59 -155 -86l-904 -281l104 333zM529 932l-293 114l104 332l729 -280q72 -29 101 -86q17 -34 17 -74v-6h-658zM26 324h1005l-93 -335h-1005z" />
    </font>
</defs>
</svg>
