<?xml version="1.0" encoding="UTF-8"?>
<!-- Generated by Pixelmator Pro 3.0 -->
<svg width="238" height="146" viewBox="0 0 238 146" xmlns="http://www.w3.org/2000/svg" xmlns:xlink="http://www.w3.org/1999/xlink">
    <path id="Path" fill="#000000" stroke="none" d="M 141 118.300003 C 140.479996 116.830002 140.110001 115.300003 139.660004 113.820007 C 139.369995 112.869995 139.039993 111.940002 138.75 110.990005 C 138.460007 110.039993 138.169998 108.809998 137.809998 107.75 C 137.5 106.850006 137.080002 105.990005 136.720001 105.110001 L 136.449997 103.880005 C 136.279999 103.220001 136.130005 102.550003 135.940002 101.880005 C 135.350006 99.789993 134.75 97.690002 134.139999 95.600006 C 134.003922 95.154114 133.83342 94.719467 133.630005 94.300003 C 133.433151 94.009033 133.363495 93.650375 133.437103 93.306885 C 133.510712 92.963379 133.721222 92.664764 134.020004 92.479996 C 134.841171 91.919891 135.760544 91.519562 136.729996 91.300003 L 137.130005 91.169998 C 137.029999 89.979996 136.899994 88.830002 136.830002 87.679993 C 136.690002 85.429993 136.520004 83.179993 136.5 80.919998 C 136.492416 79.24765 136.602692 77.576843 136.830002 75.919998 C 137.135818 73.918304 137.814209 71.991699 138.830002 70.240005 C 139.284561 69.585953 139.800201 68.976547 140.369995 68.419998 L 140.800003 67.949997 L 137.440002 67.710007 C 136.826202 68.39827 136.405319 69.236603 136.220001 70.139999 C 136.078186 72.198639 135.498611 74.203293 134.520004 76.020004 C 133.997299 76.781204 133.415497 77.500092 132.779999 78.169998 C 131.99205 78.996414 130.956589 79.543976 129.830002 79.729996 C 128.968414 79.95993 128.061584 79.95993 127.199997 79.729996 C 125.751175 79.311996 124.479492 78.430252 123.580002 77.220001 C 123.318848 76.82106 122.812347 76.661987 122.369995 76.839996 C 120.721191 77.387939 118.943253 77.412384 117.279999 76.910004 C 115.23996 76.300034 113.379517 75.201614 111.860001 73.710007 C 111.246668 73.149999 110.656667 72.569997 110.089996 71.970001 C 109.866165 71.714844 109.522156 71.600174 109.190002 71.669998 C 107.526047 71.910721 105.832336 71.849747 104.190002 71.490005 C 101.862625 71.150986 99.75795 69.921158 98.320007 68.059998 C 97.01506 66.208527 96.708206 63.83223 97.5 61.710007 C 97.610001 61.330002 97.729996 60.960007 97.889999 60.490005 C 97.276749 60.271362 96.648438 60.097565 96.009995 59.970001 C 94.185059 59.669815 92.443878 58.988327 90.899994 57.970001 C 88.9953 56.775024 87.496399 55.032104 86.600006 52.970001 C 85.833603 51.369919 85.684067 49.543427 86.179993 47.839996 C 86.567078 46.353241 87.384598 45.013885 88.529999 43.98999 C 89.270004 43.320007 90.029999 42.679993 90.820007 41.98999 C 90.520004 41.580002 90.229996 41.179993 89.919998 40.800003 C 88.293976 38.887436 87.323227 36.504364 87.149994 34 C 86.865128 31.433075 88.254837 28.971878 90.600006 27.889999 C 91.850006 27.220001 93.190002 26.720001 94.600006 26.100006 L 94.429993 24.149994 C 94.25412 22.757431 94.373367 21.343445 94.779999 20 C 95.386398 18.149323 96.728317 16.630157 98.490005 15.800003 C 100.289978 15.035339 102.255341 14.742767 104.199997 14.949997 C 105.212204 15.063965 106.214828 15.251129 107.199997 15.51001 L 107.809998 15.660004 C 108.25 14.660004 108.630005 13.600006 109.089996 12.660004 C 109.70784 11.250732 110.88588 10.1633 112.339996 9.660004 C 113.766541 9.22757 115.302963 9.341644 116.649994 9.980011 C 118.47702 10.711151 120.095001 11.882568 121.360001 13.389999 C 121.49205 13.496826 121.636414 13.587463 121.789993 13.660004 C 122.179993 13.040009 122.529999 12.440002 122.910004 11.860001 C 124.131271 9.751343 126.490311 8.571808 128.910004 8.860001 C 130.350266 8.984299 131.7099 9.578033 132.779999 10.550003 C 133.108948 10.891541 133.61615 10.991394 134.050003 10.800003 C 136.566879 9.940033 139.2603 9.730194 141.880005 10.190002 C 142.9664 10.310638 144.034195 10.562469 145.059998 10.940002 C 146.523102 11.468719 147.878326 12.258148 149.059998 13.269989 C 149.873215 13.989868 150.628845 14.772247 151.320007 15.610001 C 152.187164 16.811066 152.76239 18.197784 153 19.660004 C 153.467224 22.045471 153.422913 24.50293 152.869995 26.869995 C 152.808746 27.233582 152.775314 27.601318 152.770004 27.970001 L 155.970001 28.330002 C 156.853394 28.478958 157.693222 28.820343 158.429993 29.330002 C 159.410065 30.030304 159.839417 31.274261 159.5 32.429993 C 159.339645 33.38533 158.901398 34.272247 158.240005 34.980011 C 158.008652 35.232605 157.807312 35.511108 157.639999 35.809998 L 159.979996 40.300003 C 160.379532 39.979111 160.910522 39.873413 161.402481 40.016815 C 161.894455 40.160217 162.285477 40.534698 162.449997 41.019989 C 162.809998 40.649994 163.070007 40.360001 163.350006 40.080002 C 163.672485 39.741211 164.136948 39.576096 164.600922 39.63533 C 165.06488 39.69455 165.472977 39.971054 165.699997 40.380005 C 166.038803 40.993301 166.224075 41.67952 166.240005 42.380005 C 166.460007 44.850006 166.779999 47.320007 167.070007 49.789993 C 167.330002 51.899994 167.639999 54 167.860001 56.119995 C 167.995636 58.013657 167.81311 59.916656 167.320007 61.75 C 167.146957 62.288666 166.912064 62.80545 166.619995 63.289993 C 165.412674 65.987274 163.717575 68.438385 161.619995 70.520004 C 160.169998 71.869995 158.779999 73.300003 157.339996 74.710007 C 157.75 75.710007 158.160004 76.710007 158.5 77.639999 C 159.646667 80.926671 160.783335 84.220006 161.910004 87.520004 C 162.479996 89.190002 163.050003 90.850006 163.589996 92.520004 C 164.360001 94.919998 165.110001 97.330002 165.860001 99.740005 C 166.089996 100.470001 166.320007 101.190002 166.539993 101.919998 C 167.020004 103.539993 167.490005 105.169998 167.979996 106.789993 C 168.470001 108.410004 169.039993 110.190002 169.550003 111.899994 C 169.758804 112.596756 169.929077 113.304504 170.059998 114.020004 C 170.062469 114.34198 170.015259 114.662415 169.919998 114.970001 C 169.220001 115.039993 168.919998 114.880005 168.770004 114.210007 C 168.470001 113.149994 168.210007 112.089996 167.929993 111.029999 C 167.550003 109.520004 167.210007 108.029999 166.770004 106.5 C 166.259995 104.75 165.639999 103.039993 165.080002 101.300003 C 164.440002 99.300003 163.820007 97.240005 163.169998 95.220001 C 162.830002 94.149994 162.460007 93.080002 162.070007 91.919998 C 161.070007 92.279999 160.070007 92.580002 159.070007 92.919998 C 156.484528 93.86586 153.834351 94.624481 151.139999 95.190002 C 149.429993 95.580002 147.759995 96.190002 146.059998 96.610001 C 144.550003 97 143.059998 97.289993 141.5 97.610001 C 140.600006 97.820007 139.699997 98.080002 138.800003 98.289993 C 138.279999 98.410004 137.75 98.479996 137.229996 98.559998 L 136.119995 98.710007 C 136.399994 99.649994 136.639999 100.460007 136.899994 101.270004 C 137.800003 104.080002 138.720001 106.889999 139.610001 109.699997 C 140.299957 111.602341 140.894043 113.538116 141.389999 115.5 C 141.699997 116.910004 142.460007 118.119995 142.740005 119.5 C 142.823868 119.941574 143.192062 120.272949 143.639999 120.309998 C 144.039993 120.309998 144.429993 120.449997 144.820007 120.490005 C 147.637466 120.738205 150.412552 121.339584 153.080002 122.279999 C 154.300003 122.699997 155.440002 123.339996 156.630005 123.869995 C 157.229996 124.139999 157.839996 124.380005 158.440002 124.660004 C 160.440002 125.660004 162.440002 126.570007 164.440002 127.550003 C 165.701447 128.152161 166.875473 128.922501 167.929993 129.839996 C 168.579163 130.417725 169.103241 131.122177 169.470001 131.910004 C 169.663864 132.230606 169.71904 132.616241 169.622849 132.978333 C 169.526672 133.340439 169.287399 133.647858 168.960007 133.830002 L 168.300003 134.289993 L 169.979996 135.460007 C 170.597351 134.607101 170.992584 133.613876 171.130005 132.570007 C 171.757401 129.482117 172.171707 126.354736 172.369995 123.210007 C 172.520004 120.669998 172.429993 118.100006 172.429993 115.550003 C 172.429993 114.419998 172.429993 113.289993 172.360001 112.160004 C 172.291504 109.738159 172.067703 107.323196 171.690002 104.929993 C 171.380005 102.929993 171.300003 100.869995 171.119995 98.830002 C 170.979996 97.350006 170.800003 95.830002 170.690002 94.369995 C 170.539993 92.369995 170.479996 90.369995 170.309998 88.369995 C 170.210007 87.25 169.960007 86.149994 169.779999 85.050003 C 169.600006 83.949997 169.5 83.050003 169.330002 82.050003 C 169.259995 81.619995 169.130005 81.210007 169.029999 80.789993 C 168.380005 77.960007 167.679993 75.139999 167.089996 72.300003 C 166.735992 70.995148 166.215012 69.741455 165.539993 68.570007 C 165.479996 68.449997 165.429993 68.330002 165.360001 68.169998 L 166.039993 67.410004 C 166.281677 67.687943 166.508667 67.978333 166.720001 68.279999 C 167.760605 70.059845 168.440216 72.027344 168.720001 74.070007 C 168.919998 75.139999 169.229996 76.190002 169.460007 77.259995 C 169.809998 78.970001 170.169998 80.679993 170.460007 82.399994 C 170.75 84.119995 171.119995 86.130005 171.350006 88 C 171.550003 89.610001 171.619995 91.229996 171.740005 92.839996 C 171.820007 93.940002 171.880005 95.029999 171.970001 96.119995 C 172.150004 98.266663 172.340001 100.409999 172.539993 102.550003 C 172.610001 103.339996 172.759995 104.130005 172.850006 104.910004 C 173.029999 106.660004 173.240005 108.410004 173.369995 110.160004 C 173.5 111.910004 173.619995 113.660004 173.639999 115.410004 C 173.639999 117.619995 173.580002 119.830002 173.550003 122.050003 C 173.550003 122.440002 173.550003 122.839996 173.550003 123.229996 C 173.399994 124.740005 173.25 126.229996 173.050003 127.759995 C 172.850006 129.289993 172.610001 130.759995 172.339996 132.270004 C 172.024918 134.171188 171.256592 135.968536 170.100006 137.509995 C 169.54216 138.123734 168.933319 138.689087 168.279999 139.199997 C 167.994843 139.416443 167.756683 139.688629 167.580002 140 C 167.316452 140.671234 166.649689 141.095535 165.929993 141.050003 C 165.440002 141.050003 164.929993 141.050003 164.479996 141.050003 C 164.44165 141.5047 164.354492 141.953949 164.220001 142.389999 C 163.830002 143.389999 162.889999 143.470001 162.039993 143.479996 C 160.5 143.479996 158.949997 143.369995 157.399994 143.309998 C 157.334137 143.295334 157.265854 143.295334 157.199997 143.309998 C 156.369995 143.770004 155.539993 143.240005 154.710007 143.240005 C 153.323532 143.155518 151.945908 142.961578 150.589996 142.660004 L 149.410004 142.470001 C 145.202026 141.705597 140.911133 141.50383 136.649994 141.869995 C 135.320007 141.869995 133.990005 141.869995 132.649994 141.960007 C 131.309998 142.050003 130.149994 142.169998 128.820007 142.279999 C 128.820007 142.589996 128.729996 142.880005 128.679993 143.160004 C 128.546982 144.31662 127.773148 145.299377 126.679993 145.699997 C 126.466705 145.768143 126.243912 145.801895 126.020004 145.800003 C 124.520004 145.800003 123.020004 145.690002 121.529999 145.729996 C 120.759995 145.729996 117.449997 145.339996 116.529999 145.240005 C 115.119995 145.080002 113.699997 145.009995 112.289993 144.860001 C 111.289993 144.740005 110.210007 144.550003 109.169998 144.399994 C 107.385071 144.051407 105.582367 143.801025 103.770004 143.649994 C 102.649994 143.649994 101.649994 143.210007 100.559998 143.139999 C 98.990005 143.039993 97.449997 142.740005 95.889999 142.539993 L 91.820007 142 C 90.679993 141.880005 89.539993 141.789993 88.410004 141.630005 C 87.733215 141.533798 87.064667 141.386719 86.410004 141.190002 C 85.759995 140.990005 81.699997 140.539993 81.529999 140.5 C 80.462952 140.160721 79.357758 139.955795 78.240005 139.889999 C 77.669998 139.889999 77.110001 139.5 76.520004 139.380005 C 75.520004 139.160004 74.440002 139.020004 73.389999 138.860001 C 73.259995 138.860001 73.119995 138.860001 73 138.860001 C 70.839996 138.350006 68.669998 137.919998 66.550003 137.309998 C 63.251907 136.418427 60.325806 134.494553 58.199997 131.820007 C 57.429993 130.739426 56.904495 129.50415 56.660004 128.199997 C 56.204315 126.325806 55.886795 124.420685 55.710007 122.5 C 55.516571 120.415634 55.553467 118.316284 55.820007 116.240005 C 56.190002 113.410004 56.520004 110.580002 56.990005 107.779999 C 57.460007 104.979996 58.059998 102.25 58.630005 99.490005 C 58.889191 98.746048 59.093079 97.983978 59.240005 97.210007 C 59.282059 96.684219 59.365662 96.162598 59.490005 95.649994 C 59.979996 93.479996 60.490005 91.320007 61.009995 89.169998 C 61.529999 87.020004 62.080002 85.009995 62.679993 82.949997 C 63.100006 81.520004 63.679993 80.130005 64.100006 78.720001 C 64.380005 77.869995 64.559998 76.979996 64.860001 76.139999 C 65.570007 74.139999 66.259995 72.139999 67.080002 70.139999 C 67.699997 68.639999 68.539993 67.229996 69.220001 65.75 C 70.155609 63.687286 71.333923 61.743561 72.729996 59.960007 C 74.089584 58.175369 75.997131 56.886108 78.160004 56.289993 C 79.880005 55.809998 81.630005 55.410004 83.369995 54.979996 C 83.848373 54.795914 84.389618 54.896439 84.770004 55.240005 C 84.911591 55.336777 84.989227 55.502975 84.97258 55.67366 C 84.955917 55.84436 84.847626 55.992416 84.690002 56.059998 C 84.488434 56.178268 84.26886 56.262711 84.039993 56.309998 C 82.610001 56.610001 81.160004 56.830002 79.759995 57.220001 C 77.761948 57.596634 75.924713 58.56929 74.490005 60.009995 C 73.626007 60.975845 72.849625 62.016617 72.169998 63.119995 C 71.019516 65.021088 69.981079 66.987778 69.059998 69.009995 C 67.979996 71.460007 67.059998 74.009995 66.160004 76.529999 C 65.453339 78.456665 64.770004 80.396667 64.110001 82.350006 C 63.75 83.449997 63.490005 84.589996 63.110001 85.699997 C 62.410004 87.869995 61.940002 90.089996 61.369995 92.289993 C 60.970001 93.860001 60.710007 95.460007 60.369995 97.050003 C 60.029999 98.639999 59.690002 100.050003 59.369995 101.520004 C 58.889999 103.940002 58.449997 106.380005 58 108.809998 C 57.770004 110.039993 57.520004 111.279999 57.339996 112.520004 C 57.190002 113.520004 57.089996 114.610001 57.029999 115.649994 C 56.940002 117.309998 56.850006 118.970001 56.850006 120.649994 C 56.844269 122.307312 57.018631 123.960358 57.369995 125.580002 C 57.619995 126.710007 57.800003 127.850006 58.149994 128.970001 C 58.406525 129.794235 58.824661 130.559113 59.380005 131.220001 C 60.781357 132.86908 62.525116 134.1931 64.490005 135.100006 C 66.226257 135.925171 68.08284 136.468643 69.990005 136.710007 C 70.779999 136.830002 71.539993 137.070007 72.330002 137.210007 L 83 139 C 86.770004 139.639999 90.539993 140.279999 94.309998 140.880005 C 96.410004 141.220001 98.529999 141.449997 100.630005 141.759995 C 103.089996 142.110001 105.559998 142.490005 108.009995 142.889999 C 110.855255 143.371521 113.72728 143.678757 116.610001 143.809998 C 117.563522 143.90361 118.51149 144.04715 119.449997 144.240005 C 119.740005 144.240005 120.029999 144.240005 120.389999 144.240005 C 120.450974 143.725128 120.450974 143.204865 120.389999 142.690002 C 120.020996 140.75679 120.058456 138.767944 120.5 136.850006 C 120.770004 135.080002 120.970001 133.300003 121.360001 131.550003 C 122.029999 128.550003 122.75 125.550003 123.649994 122.550003 C 124.020004 121.320007 124.279999 120.050003 124.649994 118.759995 C 124.459808 118.675568 124.262329 118.608627 124.059998 118.559998 C 121.960007 118.240005 119.860001 117.929993 117.770004 117.559998 C 115.470001 117.190002 113.179993 116.789993 110.889999 116.410004 C 109.330002 116.160004 107.770004 115.910004 106.210007 115.679993 C 103.990005 115.350006 101.770004 115.050003 99.550003 114.679993 C 98.240005 114.479996 96.949997 114.190002 95.639999 113.979996 C 94.559998 113.809998 93.460007 113.759995 92.380005 113.559998 C 90.75 113.270004 89.139999 112.869995 87.509995 112.559998 C 87.26384 112.542221 87.035156 112.42627 86.87532 112.238235 C 86.715485 112.050186 86.637894 111.805801 86.660004 111.559998 C 86.66275 111.093765 86.706238 110.628662 86.789993 110.169998 C 87.619995 106.380005 88.449997 102.580002 89.320007 98.789993 C 89.740005 96.979996 90.190002 95.190002 90.539993 93.369995 C 90.970001 91.130005 91.619995 88.940002 92.179993 86.729996 C 92.248779 86.438614 92.367172 86.16124 92.529999 85.910004 C 92.66745 85.744019 92.865387 85.639648 93.080002 85.619995 C 93.149994 85.619995 93.339996 85.919998 93.330002 86.080002 C 93.289459 86.573761 93.21933 87.064636 93.119995 87.550003 C 93.029999 88.039993 92.389999 90.720001 92.279999 91.279999 C 91.720001 94 91.070007 96.710007 90.460007 99.419998 C 90.119995 100.949997 89.809998 102.479996 89.460007 104 C 89.110001 105.520004 88.740005 107.210007 88.369995 108.809998 C 88.199997 109.550003 88.009995 110.289993 87.869995 111.029999 C 87.869995 111.190002 87.970001 111.509995 88.070007 111.520004 C 88.729782 111.653275 89.398087 111.740143 90.070007 111.779999 C 90.210007 111.779999 90.729996 112.009995 91.210007 112.070007 C 93.089996 112.320007 94.960007 112.630005 96.809998 113.070007 C 98.470001 113.419998 100.149994 113.509995 101.809998 113.789993 C 103.970001 114.149994 106.149994 114.339996 108.289993 114.789993 C 110.029999 115.179993 111.830002 115.300003 113.600006 115.550003 C 114.779999 115.720001 115.960007 115.910004 117.139999 116.100006 L 123.419998 117.100006 L 127.419998 117.770004 C 129.050003 118.029999 130.679993 118.270004 132.300003 118.539993 C 133.300003 118.699997 134.300003 118.889999 135.300003 119.070007 C 136.770004 119.330002 138.240005 119.600006 139.720001 119.830002 C 140.374832 120.007614 141.06517 120.007614 141.720001 119.830002 C 141.408981 119.356552 141.166565 118.841431 141 118.300003 Z M 121 63 C 121.660004 62.059998 121.660004 62.059998 121.619995 61.449997 L 121 63 L 120.589996 63.440002 L 120.740005 63.529999 Z M 155.460007 59.080002 L 155.160004 59.080002 C 155.103165 58.877426 155.06633 58.669769 155.050003 58.460007 C 155.050003 56.960007 155.050003 55.460007 155.050003 53.979996 C 155.050003 53.320007 155.050003 52.660004 155.050003 51.979996 C 155.050003 50.259995 155.160004 48.539993 155.169998 46.809998 C 155.1689 46.347656 155.080704 45.889679 154.910004 45.459991 C 154.639999 44.730011 154.020004 44.669998 153.559998 45.320007 C 153.374771 45.558838 153.235718 45.830154 153.149994 46.119995 C 152.790176 47.464172 152.499786 48.825974 152.279999 50.199997 C 152.054779 52.941406 151.562439 55.654282 150.809998 58.300003 C 150.356354 59.76091 149.584503 61.103104 148.550003 62.229996 C 147.550003 63.289993 146.389999 64.229996 145.320007 65.229996 C 143.839996 66.600006 142.320007 67.970001 140.910004 69.399994 C 139.990646 70.132492 139.297272 71.110138 138.910004 72.220001 C 138.839996 72.509995 138.669998 72.770004 138.589996 73.059998 C 138.160217 74.340149 137.825958 75.650406 137.589996 76.979996 C 137.439835 78.595352 137.38974 80.21846 137.440002 81.839996 C 137.499619 84.793121 137.71994 87.740829 138.100006 90.669998 C 138.199997 91.520004 138.369995 92.350006 138.509995 93.229996 C 139.509995 93.020004 140.509995 92.899994 141.429993 92.649994 C 144.5 91.789993 147.550003 90.869995 150.619995 90 C 151.860001 89.649994 153.130005 89.369995 154.389999 89.059998 C 154.714584 88.994537 155.030151 88.890457 155.330002 88.75 C 156.464218 88.184265 157.683868 87.809235 158.940002 87.639999 C 159.5 87.520004 160.059998 87.360001 160.669998 87.210007 C 160.210007 85.910004 159.789993 84.759995 159.399994 83.600006 C 158.869995 82.059998 158.399994 80.509995 157.839996 78.970001 C 157.529999 78.020004 157.169998 77.080002 156.940002 76.119995 C 156.605713 75.375168 156.717773 74.505737 157.229996 73.869995 C 158.539993 72.520004 159.889999 71.190002 161.119995 69.759995 C 162.144485 68.762665 163.05661 67.656052 163.839996 66.460007 C 164.330002 65.520004 164.839996 64.600006 165.389999 63.690002 C 166.277969 62.122269 166.823303 60.384018 166.990005 58.589996 C 167.094299 56.438858 166.936478 54.28302 166.520004 52.169998 C 166.210007 49.559998 165.630005 46.98999 165.520004 44.350006 C 165.461365 43.392715 165.337753 42.440521 165.149994 41.5 C 164.990005 40.619995 164.440002 40.5 163.729996 41.01001 C 163.094406 41.516022 162.762299 42.312317 162.850006 43.119995 C 162.850006 44.51001 162.929993 45.910004 163.039993 47.290009 C 163.229996 49.669998 163.470001 52.050003 163.669998 54.429993 C 163.669998 54.800003 163.759995 55.229996 163.25 55.509995 C 163.130005 55.339996 162.970001 55.199997 162.940002 55.039993 C 162.770004 53.929993 162.570007 52.820007 162.479996 51.699997 C 162.289993 49.350006 162.169998 46.98999 162.009995 44.639999 C 161.949997 43.809998 161.880005 42.980011 161.770004 42.160004 C 161.756302 41.683823 161.528503 41.239243 161.149994 40.949997 C 160.671967 41.018738 160.265442 41.334076 160.080002 41.779999 C 159.712845 42.843613 159.441757 43.937988 159.270004 45.050003 C 159.228577 46.211609 159.272034 47.37471 159.399994 48.529999 C 159.470001 49.809998 159.550003 51.089996 159.610001 52.369995 C 159.669998 53.649994 159.729996 54.690002 159.759995 55.850006 C 159.772537 56.279022 159.739014 56.708145 159.660004 57.130005 C 159.660004 57.309998 159.410004 57.460007 159.270004 57.610001 C 159.139999 57.449997 158.919998 57.300003 158.899994 57.119995 C 158.789993 56.009995 158.679993 54.880005 158.649994 53.759995 C 158.619995 52.639999 158.699997 51.580002 158.649994 50.490005 C 158.649994 48.809998 158.509995 47.119995 158.399994 45.48999 C 158.361984 44.814148 158.254761 44.143982 158.080002 43.48999 C 157.880005 42.820007 157.490005 42.76001 156.979996 43.230011 C 156.258789 43.892548 155.870239 44.841934 155.919998 45.820007 C 155.919998 46.980011 155.970001 48.139999 155.919998 49.300003 C 155.919998 52.190002 155.809998 55.070007 155.720001 57.960007 C 155.669861 58.335312 155.57933 58.704117 155.449997 59.059998 Z M 152.580002 128.589996 C 152.927063 128.203354 153.480911 128.078934 153.960007 128.279999 C 154.960007 128.639999 155.960007 128.919998 156.960007 129.279999 C 160.059998 130.470001 163.139999 131.710007 166.240005 132.899994 C 166.773239 133.076752 167.328674 133.177734 167.889999 133.199997 C 168.100876 133.249619 168.322723 133.194199 168.485504 133.05127 C 168.648285 132.90834 168.731918 132.695526 168.710007 132.479996 C 168.128189 131.529526 167.325424 130.733627 166.369995 130.160004 C 164.849996 129.293335 163.309998 128.446665 161.75 127.619995 C 160.323334 126.873332 158.876668 126.153336 157.410004 125.460007 C 155.989136 124.732574 154.53038 124.08165 153.039993 123.509995 C 151.419998 122.929993 149.729996 122.509995 148.039993 122.089996 C 147.187027 121.823532 146.290466 121.725052 145.399994 121.800003 C 144.999252 121.822845 144.598007 121.76503 144.220001 121.630005 C 142.996597 121.19519 141.690231 121.044724 140.399994 121.190002 C 140.137817 121.224823 139.872177 121.224823 139.610001 121.190002 C 139.089996 121.089996 138.610001 120.940002 138.070007 120.850006 C 136.949615 120.726654 135.837631 120.536316 134.740005 120.279999 C 133.353027 119.965988 131.946533 119.745499 130.529999 119.619995 C 130.290359 119.601395 130.049637 119.601395 129.809998 119.619995 L 129.020004 123.039993 C 128.610001 124.880005 128.149994 126.710007 127.789993 128.559998 C 127.210007 131.559998 126.690002 134.639999 126.169998 137.679993 C 125.934174 138.809357 125.913818 139.973083 126.110001 141.110001 L 138.300003 140.479996 C 140.876419 140.289734 143.465225 140.350021 146.029999 140.660004 C 147.210007 140.830002 148.360001 141.139999 149.539993 141.320007 C 151.330002 141.600006 153.139999 141.820007 154.940002 142.070007 C 155.169998 142.070007 155.389999 142.190002 155.610001 142.199997 C 156.830002 142.270004 158.050003 142.309998 159.270004 142.369995 C 160.270004 142.369995 161.270004 142.490005 162.270004 142.479996 C 163.089996 142.479996 163.509995 142.199997 163.559998 141.789993 C 163.610001 141.380005 163.270004 140.960007 162.470001 140.669998 L 162.190002 140.580002 C 161.25 140.360001 160.309998 140.139999 159.380005 139.899994 L 153.380005 138.289993 C 152.380005 138.039993 151.440002 137.860001 150.470001 137.610001 C 150.289993 137.559998 150.169998 137.320007 150.020004 137.169998 C 150.169998 137.029999 150.309998 136.770004 150.470001 136.75 C 150.923981 136.679916 151.386017 136.679916 151.839996 136.75 C 154 137.270004 156.139999 137.860001 158.309998 138.369995 C 160.479996 138.880005 162.699997 139.369995 164.899994 139.850006 C 165.473923 140.029663 166.098236 139.941528 166.600006 139.610001 C 166.47464 139.383163 166.337799 139.162888 166.190002 138.949997 C 165.587555 138.228333 164.793869 137.691116 163.899994 137.399994 C 161.509995 136.509995 159.020004 135.889999 156.679993 134.839996 C 155.240005 134.190002 153.679993 133.839996 152.169998 133.309998 C 151.909103 133.192688 151.661102 133.048569 151.429993 132.880005 C 151.740005 132.470001 151.979996 132.330002 152.369995 132.460007 C 153.779999 132.960007 155.190002 133.460007 156.600006 133.899994 C 158.009995 134.339996 159.289993 134.899994 160.600006 135.309998 C 162.600006 135.949997 164.520004 136.570007 166.5 137.160004 C 167.092941 137.363113 167.71344 137.474396 168.339996 137.490005 C 169.089996 137.490005 169.339996 136.880005 168.990005 136.220001 C 168.807709 135.906555 168.562576 135.634186 168.270004 135.419998 C 167.161697 134.471252 165.851929 133.787308 164.440002 133.419998 C 164.1474 133.348511 163.862656 133.248016 163.589996 133.119995 L 158.279999 131.119995 C 156.860001 130.570007 155.429993 130.029999 154.009995 129.470001 C 153.453339 129.314941 152.953308 129.002426 152.570007 128.570007 Z M 97 46.48999 C 96.863586 46.37738 96.719955 46.273834 96.570007 46.179993 C 95.102539 45.407501 93.727142 44.471558 92.470001 43.389999 C 91.619995 42.679993 91.619995 42.699997 90.729996 43.389999 C 90.569687 43.512421 90.402771 43.625916 90.229996 43.730011 C 88.746048 44.810303 87.631943 46.32254 87.039993 48.059998 C 86.673019 49.279266 86.729401 50.586853 87.199997 51.770004 C 87.766052 53.48291 88.840378 54.982803 90.279999 56.070007 C 91.877701 57.455093 93.813019 58.393433 95.889999 58.789993 C 96.376038 58.893646 96.848984 59.0513 97.300003 59.259995 C 97.734894 59.42482 98.225876 59.323517 98.559998 59 C 99.160004 58.190002 99.729996 57.350006 100.330002 56.509995 C 98.465637 55.614212 96.822937 54.316437 95.520004 52.710007 C 94.639999 51.520004 94.300003 49.949997 95.039993 48.929993 C 95.339996 48.5 95.619995 48.059998 95.940002 47.649994 C 96.259995 47.23999 96.600006 46.899994 97 46.48999 Z M 110.720001 38 C 110.738007 37.86058 110.738007 37.719421 110.720001 37.580002 C 110.368301 35.883301 110.521271 34.120743 111.160004 32.51001 C 111.245346 32.263855 111.245346 31.996155 111.160004 31.75 C 110.970001 31.290009 110.679993 30.880005 110.460007 30.440002 C 110.28064 30.044098 109.948822 29.737534 109.539993 29.589996 C 108.039993 29.059998 106.539993 28.380005 105.059998 27.949997 C 103.580002 27.519989 101.940002 27.339996 100.389999 27.01001 C 99.927567 26.898926 99.450867 27.128906 99.25 27.559998 C 98.751343 28.528961 98.413605 29.572601 98.25 30.649994 C 97.993515 31.516068 98.094345 32.448761 98.529999 33.23999 C 98.690002 33.529999 98.929993 33.769989 99.089996 34.050003 C 99.957901 35.498291 101.032562 36.812134 102.279999 37.949997 C 102.510757 38.127228 102.800537 38.209503 103.089996 38.179993 C 105.624374 37.915268 108.175964 37.855072 110.720001 38 Z M 98.339996 38.910004 C 97.919998 36.959991 97.539993 35.149994 97.160004 33.350006 C 97.101929 32.989288 97.011566 32.634537 96.889999 32.290009 C 96.190002 30.679993 95.460007 29.089996 94.699997 27.399994 C 94.360306 27.429565 94.024933 27.496643 93.699997 27.600006 C 92.773331 27.960297 91.868454 28.374329 90.990005 28.839996 C 89.034775 29.757202 87.889404 31.826111 88.149994 33.970001 C 88.477631 36.587448 89.654388 39.025299 91.5 40.910004 C 91.899994 41.350006 92.139999 41.339996 92.729996 40.98999 C 94.074051 40.240631 95.518814 39.688324 97.020004 39.350006 C 97.468582 39.218567 97.909302 39.061646 98.339996 38.880005 Z M 118.630005 22.910004 C 119.220001 22.110001 119.759995 21.410004 120.270004 20.690002 C 120.418716 20.473328 120.520874 20.228165 120.570007 19.970001 C 120.789993 18.559998 120.970001 17.149994 121.179993 15.73999 C 121.278671 15.346466 121.173523 14.929657 120.899994 14.630005 C 120.589996 14.290009 120.300003 13.919998 119.990005 13.630005 C 118.770615 12.299194 117.257004 11.271851 115.570007 10.630005 C 114.016663 9.934784 112.195526 10.268784 110.990005 11.470001 C 110.139847 12.359711 109.521667 13.444946 109.190002 14.630005 C 109.050003 15.059998 108.990005 15.51001 108.880005 16.01001 C 109.619995 16.339996 110.309998 16.580002 110.940002 16.940002 C 112.050003 17.580002 113.119995 18.290009 114.210007 18.940002 C 115.493927 19.81752 116.660095 20.855988 117.679993 22.029999 C 117.981262 22.333221 118.29837 22.6203 118.630005 22.889999 Z M 107.529999 21.820007 C 107.529999 20.639999 107.529999 19.48999 107.529999 18.339996 C 107.529999 18.01001 107.529999 17.679993 107.580002 17.339996 C 107.580002 16.860001 107.369995 16.619995 106.899994 16.529999 C 105.232468 16.119629 103.516281 15.941284 101.800003 16 C 100.167297 16.02063 98.593155 16.611359 97.350006 17.669998 C 96.682724 18.21521 96.174896 18.930328 95.880005 19.73999 C 95.349335 21.486862 95.249832 23.336288 95.589996 25.130005 C 95.740005 25.929993 95.759995 25.949997 96.520004 25.889999 C 97.146851 25.812103 97.778427 25.778687 98.410004 25.790009 C 98.984436 25.825317 99.540176 25.579163 99.899994 25.130005 C 101.068954 23.823547 102.630646 22.932159 104.350006 22.589996 Z M 137.389999 16.369995 C 144.130005 15.76001 148.639999 19.019989 151.960007 24.690002 C 152.052414 23.896759 152.095825 23.098572 152.089996 22.300003 C 152.066025 21.211395 151.925217 20.12854 151.669998 19.070007 C 151.254227 17.627258 150.480209 16.313156 149.419998 15.25 C 148.65065 14.42804 147.764481 13.723816 146.789993 13.160004 C 145.61203 12.553497 144.375732 12.067688 143.100006 11.709991 C 141.557785 11.307129 139.959595 11.161835 138.369995 11.279999 C 137.608261 11.33168 136.850266 11.428528 136.100006 11.570007 C 135.592896 11.571472 135.101852 11.748108 134.710007 12.070007 Z M 118 57 C 117.866852 57.00795 117.735519 57.034897 117.610001 57.080002 C 116.217346 57.988495 114.667542 58.62944 113.039993 58.970001 C 112.619995 59.029999 112.440002 59.339996 112.279999 59.679993 C 111.044586 62.141602 110.307159 64.822845 110.110001 67.570007 C 110.080154 68.134933 110.110336 68.701431 110.199997 69.259995 C 110.320007 70 110.509995 70.119995 111.199997 69.899994 C 113.878784 69.095078 116.27916 67.55719 118.130005 65.460007 C 118.518402 65.044327 118.688766 64.470245 118.589996 63.910004 C 118.380005 62.270004 118.229996 60.619995 118.080002 58.979996 C 118 58.309998 118 57.649994 118 57 Z M 136.690002 17.699997 C 135.466324 17.932739 134.269958 18.291306 133.119995 18.769989 C 131.12616 19.749084 129.278397 21.001099 127.630005 22.48999 C 127.144547 22.852966 126.960526 23.494995 127.179993 24.059998 C 127.520004 25.410004 127.850006 26.76001 128.179993 28.059998 C 128.321075 28.409149 128.495209 28.743988 128.699997 29.059998 C 129.360001 28.26001 129.860001 27.559998 130.449997 26.949997 C 132.02475 25.404968 133.909653 24.21199 135.979996 23.449997 C 136.5 23.23999 137.050003 23.100006 137.580002 22.919998 C 137.729202 22.886719 137.858795 22.794891 137.939651 22.665146 C 138.020508 22.5354 138.045853 22.378616 138.009995 22.230011 C 137.751434 20.657379 137.29097 19.124725 136.639999 17.669998 Z M 141.100006 56.160004 C 141.050003 56.570007 141.020004 56.789993 141 57.020004 C 140.869995 58.580002 140.570007 60.020004 139 60.910004 C 138.824173 61.046188 138.712067 61.248688 138.690002 61.470001 C 138.690002 62.059998 138.690002 62.649994 138.630005 63.25 C 138.58287 63.721985 138.802689 64.180908 139.199997 64.440002 C 139.679993 64.800003 140.110001 65.220001 140.570007 65.600006 C 140.914337 65.977188 141.398621 66.196198 141.909241 66.205658 C 142.419876 66.215103 142.911942 66.014175 143.270004 65.649994 C 144.490005 64.649994 145.630005 63.520004 146.820007 62.460007 C 147.141907 62.161484 147.298569 61.725098 147.240005 61.289993 C 147.082306 59.899429 146.686539 58.546356 146.070007 57.289993 C 146.013611 57.138107 145.898193 57.015472 145.75 56.949997 C 145.210007 56.820007 144.660004 56.740005 144.100006 56.649994 L 142.039993 56.360001 C 141.729996 56.289993 141.449997 56.210007 141.050003 56.130005 Z M 108.100006 50.910004 L 108.039993 50.649994 C 107.789993 50.570007 107.539993 50.479996 107.289993 50.419998 C 104.22757 49.804565 101.268036 48.757462 98.5 47.309998 C 98.158295 47.067108 97.685715 47.137787 97.429993 47.470001 C 97.059998 47.850006 96.679993 48.220001 96.320007 48.610001 C 95.39386 49.596878 95.30954 51.10611 96.119995 52.190002 C 97.293594 53.677979 98.7827 54.887039 100.479996 55.729996 C 100.747482 55.894058 101.096191 55.824326 101.279999 55.570007 C 101.674042 55.172684 102.087891 54.795532 102.520004 54.440002 C 103.466019 53.608749 104.510498 52.896759 105.630005 52.320007 C 106.470001 51.889999 107.270004 51.360001 108.089996 50.880005 Z M 123.839996 76.339996 C 124.440002 76.910004 124.839996 77.389999 125.389999 77.809998 C 126.880386 79.1987 129.107758 79.43895 130.860001 78.399994 C 132.163086 77.724503 133.214737 76.648315 133.860001 75.330002 C 134.487579 73.96347 134.873291 72.498398 135 71 C 135.012772 70.763504 135.012772 70.526489 135 70.289993 C 133.225006 71.035034 131.224991 71.035034 129.449997 70.289993 C 128.441574 72.957855 126.422348 75.120804 123.830002 76.309998 Z M 122.610001 62.970001 C 122.479996 63.259995 122.410004 63.449997 122.309998 63.619995 C 122.089996 64.020004 121.869995 64.419998 121.610001 64.809998 C 121.229996 65.389999 120.820007 65.949997 120.440002 66.529999 C 120.135864 67.014648 120.07309 67.612762 120.270004 68.149994 C 120.470001 68.850006 120.639999 69.550003 120.899994 70.220001 C 121.490005 71.720001 122.110001 73.220001 122.779999 74.690002 C 123.070007 75.350006 123.429993 75.449997 124.070007 75.080002 C 124.611603 74.772873 125.11795 74.407349 125.580002 73.990005 C 126.625458 73.07428 127.458206 71.941193 128.020004 70.669998 C 128.460007 69.669998 128.410004 69.470001 127.449997 68.949997 C 127.213409 68.835175 126.994507 68.686996 126.800003 68.509995 C 125.181931 66.828278 123.77182 64.958206 122.600006 62.940002 Z M 150.119995 28.300003 C 151.350006 28.300003 151.479996 28.179993 151.309998 27.019989 C 151.27623 26.754639 151.215927 26.493317 151.130005 26.23999 C 149.611343 21.405396 145.32811 17.963028 140.279999 17.519989 C 139.481567 17.449326 138.678436 17.449326 137.880005 17.519989 C 138.330002 19.190002 138.729996 20.709991 139.149994 22.279999 C 139.410004 22.279999 139.630005 22.179993 139.860001 22.160004 C 140.6763 22.058594 141.497513 22.001831 142.320007 21.98999 C 142.759995 21.98999 143.199997 22.369995 143.630005 22.369995 C 144.591721 22.454788 145.490326 22.884552 146.160004 23.580002 C 147.15387 24.454254 148.061386 25.422028 148.869995 26.470001 C 149.319885 27.043976 149.733994 27.645126 150.110001 28.269989 Z M 101.800003 60.639999 C 101.309998 62.979996 101.220001 64.639999 101.690002 65.869995 C 102.479401 68.624557 105.035782 70.493469 107.899994 70.410004 C 108.345551 70.400406 108.789932 70.360321 109.229996 70.289993 C 107.729996 67 106.559998 63.789993 106.699997 60.210007 Z M 130.179993 30.26001 L 133.300003 33.940002 L 134.639999 33.429993 C 135.259995 33.199997 135.860001 32.929993 136.5 32.73999 C 137.5 32.440002 137.639999 32.350006 137.779999 31.300003 C 137.960007 29.889999 138.160004 28.480011 138.309998 27.070007 C 138.48526 26.062134 138.385056 25.025635 138.020004 24.070007 C 137.63739 24.1138 137.259293 24.190765 136.889999 24.300003 C 136.437851 24.506927 136.000198 24.744125 135.580002 25.01001 C 134.031189 26.097885 132.611969 27.359421 131.350006 28.769989 C 130.932785 29.244675 130.542191 29.742096 130.179993 30.26001 Z M 138.559998 32.209991 C 140.160004 31.959991 141.440002 31.040009 142.899994 30.550003 C 144.360001 30.059998 145.759995 29.410004 147.199997 28.820007 C 147.235245 28.340637 147.235245 27.859344 147.199997 27.380005 C 147.153168 26.501587 146.668625 25.705292 145.910004 25.26001 C 144.493713 24.382751 142.874634 23.886688 141.210007 23.820007 C 140.619995 23.820007 140.039993 23.820007 139.320007 23.880005 C 139.505539 26.679352 139.249069 29.490448 138.559998 32.209991 Z M 126.559998 21.839996 C 129.176453 19.183044 132.496216 17.327164 136.130005 16.48999 C 135.66011 15.235687 134.946365 14.086914 134.029999 13.110001 C 133.449997 12.399994 133.279999 12.360001 132.509995 12.790009 C 130.903336 13.690002 129.306671 14.626668 127.720001 15.600006 C 126.602921 16.224213 125.601639 17.036072 124.759995 18 Z M 117.839996 24.339996 C 116.630005 23.459991 110.5 22.470001 109.029999 22.919998 C 109.024307 22.983215 109.024307 23.046783 109.029999 23.110001 C 109.202072 24.387817 109.538177 25.638123 110.029999 26.830002 C 110.389999 28.019989 110.75 29.209991 112.199997 29.540009 C 112.339996 29.540009 112.440002 29.800003 112.580002 29.839996 C 112.720001 29.880005 113.160004 30.01001 113.309998 29.899994 C 114.126297 29.390747 115.027176 29.031738 115.970001 28.839996 C 116.215485 28.772171 116.42186 28.605621 116.539993 28.380005 C 117 27 117.380005 25.690002 117.809998 24.339996 Z M 128.690002 68.509995 C 129.088989 67.447998 129.24614 66.310394 129.149994 65.179993 C 129.058029 64.517532 129.02124 63.848557 129.039993 63.179993 C 129.09166 62.514938 128.907562 61.852921 128.520004 61.309998 C 127.552582 60.052429 126.792953 58.647964 126.270004 57.149994 C 126.089996 56.669998 125.839996 56.220001 125.529999 55.529999 C 125.500366 55.900345 125.443542 56.26799 125.360001 56.630005 C 124.911728 58.223846 124.319275 59.773575 123.589996 61.259995 C 123.300766 61.670868 123.300766 62.219131 123.589996 62.630005 C 124.811142 64.603806 126.2612 66.426437 127.910004 68.059998 C 128.141586 68.238739 128.393311 68.389771 128.660004 68.509995 Z M 146.75 32.929993 C 146.050003 32.929993 145.559998 32.820007 145.080002 32.830002 C 144.080002 32.830002 143.020004 32.889999 142 33 C 140.979996 33.110001 139.899994 33.269989 138.869995 33.470001 C 138.12146 33.576645 137.53183 34.162231 137.419998 34.910004 C 137.283691 35.35379 137.095734 35.780045 136.860001 36.179993 C 136.660004 36.580002 136.449997 36.970001 136.179993 37.480011 L 137.089996 37.480011 C 137.75 37.480011 138.410004 37.410004 139.089996 37.480011 C 140.210007 37.550003 141.330002 37.669998 142.449997 37.790009 C 142.873901 37.824448 143.29776 37.72287 143.660004 37.5 C 145.449997 36.550003 145.860001 34.720001 146.720001 32.929993 Z M 119.279999 68.089996 C 117.279999 70.089996 115.470001 72.020004 112.820007 72.979996 L 113.470001 73.529999 C 115.660812 75.589691 118.707794 76.47142 121.660004 75.899994 C 121.887299 75.817627 122.099976 75.699478 122.289993 75.550003 C 120.913071 73.227478 119.88858 70.713409 119.25 68.089996 Z M 142.169998 49.25 C 142.570007 49.779999 142.830002 50.149994 143.110001 50.5 C 143.389999 50.850006 143.860001 51.350006 144.179993 51.809998 C 144.880005 52.809998 145.539993 53.910004 146.179993 54.970001 C 146.369995 55.270004 146.559998 55.570007 146.940002 55.5 C 148.020004 55.320007 149.080002 55.110001 150.149994 54.889999 C 150.566132 54.823227 150.853958 54.437973 150.800003 54.020004 C 150.817612 52.634567 150.509323 51.264374 149.899994 50.020004 C 149.747818 49.683502 149.380508 49.499847 149.020004 49.580002 C 148.021942 49.65744 147.020096 49.674149 146.020004 49.630005 C 144.830002 49.529999 143.610001 49.380005 142.139999 49.25 Z M 124.070007 16.669998 C 126.471558 14.537918 129.165451 12.759949 132.070007 11.389999 C 130.870865 10.153854 129.154816 9.5625 127.448715 9.797485 C 125.742615 10.032455 124.25032 11.065704 123.429993 12.580002 C 122.190002 14.73999 122.199997 14.410004 123.580002 16.089996 C 123.690002 16.25 123.820007 16.389999 124.070007 16.669998 Z M 155.300003 44.279999 C 155.600006 43.76001 155.820007 43.279999 156.130005 42.850006 C 156.869995 41.850006 157.309998 41.679993 158.449997 42.130005 C 158.5 42.130005 158.580002 42.130005 158.729996 42.070007 C 158.617996 40.213654 157.91745 38.441269 156.729996 37.01001 L 150.619995 40.630005 C 151.490005 41.630005 152.300003 42.570007 153.149994 43.480011 C 153.343704 43.694702 153.620865 43.815063 153.910004 43.809998 C 154.423431 43.715881 154.949051 43.893616 155.300003 44.279999 Z M 104 44.199997 C 105.968979 45.851105 108.173233 47.199265 110.539993 48.199997 C 112.070007 48.860001 112.080002 48.850006 113.470001 48 C 113.669998 47.880005 113.880005 47.779999 114.070007 47.639999 C 114.240463 47.545258 114.379501 47.40274 114.470001 47.230011 C 114.669998 46.679993 114.820007 46.110001 115.020004 45.449997 C 114.610001 45.369995 114.270004 45.290009 113.919998 45.230011 C 112.185577 45.078415 110.492249 44.617828 108.919998 43.869995 C 108.349915 43.507828 107.65979 43.38562 107 43.529999 C 106.089996 43.75 105.119995 44 104 44.199997 Z M 102 43.690002 C 101.149994 42.550003 100.289993 41.449997 99.5 40.320007 C 99.312042 39.991486 98.906509 39.857742 98.559998 40.01001 C 97.210007 40.449997 95.850006 40.869995 94.509995 41.339996 C 93.940002 41.550003 93.399994 41.860001 92.860001 42.119995 C 92.929993 42.300003 92.929993 42.389999 92.970001 42.419998 C 94.490005 43.419998 95.970001 44.51001 97.539993 45.570007 C 97.778107 45.760895 98.110703 45.780914 98.369995 45.619995 C 99.509995 45.029999 100.669998 44.470001 101.820007 43.899994 C 101.891068 43.840302 101.951874 43.769348 102 43.690002 Z M 135.240005 65.429993 C 135.100006 64.320007 134.990005 63.429993 134.880005 62.5 C 134.672455 60.967651 133.79744 59.605698 132.490005 58.779999 C 131.389999 57.979996 130.389999 57.059998 129.350006 56.199997 C 129.169998 56.050003 128.970001 55.929993 128.740005 55.759995 C 128.728027 55.866333 128.728027 55.973663 128.740005 56.080002 C 129.126673 57.719996 129.523336 59.359996 129.929993 61 C 130.006378 61.391052 130.214645 61.744049 130.520004 62 C 131.270004 62.630005 131.940002 63.369995 132.690002 64 C 133.421631 64.641113 134.275436 65.127548 135.199997 65.429993 Z M 152.600006 44.5 C 151.825516 43.202148 150.707794 42.14325 149.369995 41.440002 C 149.135361 41.348007 148.874634 41.348007 148.639999 41.440002 C 147.377335 41.959656 146.253983 42.767914 145.360001 43.800003 C 147.504517 44.757813 149.32486 46.317596 150.600006 48.289993 C 151.5 48.130005 151.940002 47.790009 152 46.899994 C 152.11261 46.084503 152.300064 45.281113 152.559998 44.5 Z M 153.070007 29.209991 L 152.800003 32.649994 L 156.869995 35.199997 C 157.856308 34.532806 158.513947 33.479141 158.679993 32.300003 C 158.998016 31.326813 158.496445 30.275299 157.539993 29.910004 C 156.130875 29.227417 154.549286 28.983566 153 29.209991 Z M 108 58 C 108.922272 58.281952 109.90773 58.281952 110.830002 58 C 111.439514 57.845093 112.000137 57.538986 112.460007 57.110001 C 113.130203 56.125687 113.738068 55.100357 114.279999 54.039993 C 114.37793 53.901947 114.415176 53.729858 114.383072 53.563675 C 114.350967 53.397476 114.252304 53.251648 114.110001 53.160004 C 113.264847 52.462936 112.205505 52.078049 111.110001 52.070007 C 110.736542 52.048813 110.394089 52.27713 110.270004 52.630005 C 109.658844 53.59079 109.165314 54.621506 108.800003 55.699997 C 108.589996 56.429993 108.289993 57.130005 108 58 Z M 109.350006 28.220001 C 109.029999 27.220001 108.740005 26.330002 108.5 25.480011 C 108.259995 24.630005 108.070007 23.769989 107.860001 22.889999 C 106.550629 22.820023 105.245331 23.088654 104.070007 23.669998 C 102.69574 23.971603 101.47316 24.751221 100.619995 25.869995 C 103.619171 26.268494 106.551727 27.065536 109.339996 28.23999 Z M 149.199997 48.479996 C 148.759644 47.906174 148.267578 47.373947 147.729996 46.889999 C 146.809998 46.199997 145.789993 45.639999 144.830002 45.019989 C 144.295364 44.658508 143.594635 44.658508 143.059998 45.019989 C 142.059998 45.529999 141.059998 45.940002 140.059998 46.399994 C 139.898087 46.491516 139.741196 46.591675 139.589996 46.699997 C 140.044144 47.421722 140.76149 47.938232 141.589996 48.139999 C 143.712936 48.491486 145.858551 48.688675 148.009995 48.729996 C 148.411148 48.701065 148.807343 48.62384 149.190002 48.5 Z M 99.199997 46.480011 C 100.100006 46.869995 100.910004 47.269989 101.759995 47.570007 C 103.190002 48.080002 104.619995 48.570007 106.089996 48.960007 C 107.28566 49.224014 108.493851 49.427597 109.710007 49.570007 C 110.041138 49.679947 110.405334 49.562592 110.610001 49.279999 C 110.501053 49.190857 110.387573 49.107407 110.270004 49.029999 C 109.100006 48.419998 107.889999 47.880005 106.770004 47.199997 C 105.649994 46.519989 104.589996 45.720001 103.520004 44.949997 C 103.282654 44.710754 102.932526 44.622253 102.610001 44.720001 C 101.340973 45.020645 100.168198 45.636261 99.199997 46.51001 Z M 130.330002 63.419998 C 130.220001 63.539993 130.179993 63.559998 130.179993 63.589996 C 130.280762 65.3311 130.13942 67.077759 129.759995 68.779999 C 129.70665 68.943649 129.732986 69.122818 129.831161 69.264191 C 129.929337 69.405563 130.088028 69.492828 130.259995 69.5 C 131.039825 69.6315 131.829163 69.69838 132.619995 69.699997 C 133.426544 69.677414 134.193192 69.344238 134.759995 68.770004 C 135.149078 68.44603 135.342545 67.943619 135.271225 67.442368 C 135.199905 66.941116 134.873993 66.512589 134.410004 66.309998 C 132.892487 65.603851 131.511353 64.635712 130.330002 63.449997 Z M 103.770004 70.210007 C 100.550003 67.649994 100.169998 64.350006 100.770004 60.779999 C 100.597336 60.700302 100.420395 60.630203 100.240005 60.570007 C 99.179993 60.330002 98.850006 60.449997 98.5 61.479996 C 98.253555 62.232407 98.095825 63.011002 98.029999 63.800003 C 97.810852 65.372162 98.388138 66.950317 99.570007 68.009995 C 100.75856 69.097015 102.203751 69.864334 103.770004 70.240005 Z M 145 55.589996 L 145.229996 55.350006 C 145.133347 55.065399 145.00943 54.790787 144.860001 54.529999 C 144.639999 54.199997 144.289993 53.949997 144.110001 53.610001 C 143.188004 52.153168 142.129944 50.787048 140.949997 49.529999 C 140.074036 48.580902 138.8311 48.05603 137.539993 48.089996 C 137.796173 48.36972 138.036545 48.663513 138.259995 48.970001 C 139.320602 50.415466 140.100754 52.046982 140.559998 53.779999 C 140.649994 54.190002 140.770004 54.669998 141.25 54.779999 C 142.449997 55.080002 143.710007 55.320007 145 55.589996 Z M 108.559998 21.76001 C 111.149582 21.70163 113.7379 21.922913 116.279999 22.419998 C 114.244553 20.084167 111.650528 18.302063 108.740005 17.23999 C 108.229996 18.75 108.710007 20.139999 108.520004 21.76001 Z M 112.350006 42 C 111.889999 41 111.460007 40 111.039993 39.080002 C 108.320007 38.679993 104.679993 38.790009 103.860001 39.330002 C 104.859039 40.339813 105.989136 41.210938 107.220001 41.919998 C 107.636093 42.194 108.13475 42.314255 108.630005 42.26001 C 109.75 42.160004 110.880005 42.169998 112 42.119995 C 112.121368 42.095337 112.239029 42.054993 112.350006 42 Z M 126.589996 34.149994 C 127.084366 32.95639 127.378311 31.689362 127.460007 30.399994 C 127.495209 29.577728 127.066422 28.805115 126.350006 28.399994 C 125.830002 28.059998 125.289993 27.73999 124.770004 27.399994 C 123.990005 26.869995 123.990005 26.860001 123.440002 27.660004 C 123.250092 27.930695 123.086044 28.218628 122.949997 28.519989 C 122.825455 28.756165 122.783218 29.02713 122.830002 29.290009 C 123.069153 29.999741 123.405701 30.672836 123.830002 31.290009 C 124.630005 32.290009 125.570007 33.139999 126.589996 34.190002 Z M 139.889999 54.149994 C 139.619995 53.460007 139.440002 52.940002 139.210007 52.449997 C 138.870529 51.624359 138.469406 50.825424 138.009995 50.059998 C 137.452393 49.237488 136.805084 48.479492 136.080002 47.800003 C 135.809189 47.525116 135.420258 47.401428 135.040421 47.469391 C 134.660568 47.537354 134.338669 47.788254 134.179993 48.139999 C 133.520004 49.139999 133.520004 49.139999 134.289993 50.089996 L 134.550003 50.399994 C 135.242111 51.23674 135.979904 52.034622 136.759995 52.789993 C 137.621368 53.589188 138.720688 54.084412 139.889999 54.199997 Z M 123.889999 18.76001 C 123.400574 19.182251 122.933289 19.629517 122.490005 20.100006 C 122.088379 20.49292 121.780731 20.971497 121.589996 21.5 C 121.464554 22.253082 121.424286 23.017914 121.470001 23.779999 C 121.472549 24.008148 121.57486 24.223755 121.75 24.369995 C 122.330002 24.720001 122.960007 25.01001 123.479996 25.279999 C 124.100006 24.559998 124.630005 23.929993 125.160004 23.279999 C 125.462708 22.995728 125.558243 22.55394 125.399994 22.169998 C 124.889999 21.149994 124.399994 20.070007 123.839996 18.809998 Z M 137.160004 60.119995 L 137.389999 59.960007 C 137.119995 58.770004 136.880005 57.570007 136.580002 56.389999 C 136.309921 55.220566 135.780167 54.126892 135.029999 53.190002 C 134.163132 52.285995 133.379929 51.305313 132.690002 50.259995 C 132.630005 50.149994 132.410004 50.130005 132.110001 50.009995 C 132.240005 50.460007 132.300003 50.740005 132.410004 51.009995 C 132.869995 52.139999 133.410004 53.240005 133.800003 54.380005 C 134.304733 55.701904 134.712479 57.058838 135.020004 58.440002 C 135.075668 59.029556 135.464447 59.534973 136.020004 59.740005 C 136.360001 59.929993 136.740005 60.050003 137.110001 60.169998 Z M 152.369995 34.050003 C 151.643051 36.122131 150.633514 38.083984 149.369995 39.880005 C 151.744644 39.012085 153.958237 37.754883 155.919998 36.160004 C 154.8508 35.26651 153.632034 34.569107 152.320007 34.100006 Z M 108.960007 52.410004 C 108.093475 52.365112 107.2435 52.659195 106.589996 53.229996 C 106.107193 53.631363 105.649658 54.062195 105.220001 54.520004 C 104.559921 55.214508 104.022308 56.015854 103.630005 56.889999 C 104.643417 57.387207 105.74382 57.682693 106.869995 57.759995 C 107.529999 56 108.210007 54.240005 108.910004 52.460007 Z M 118.960007 43.01001 C 118.330002 42.01001 117.839996 41.309998 117.360001 40.559998 C 117.032928 40.135818 116.543518 39.867554 116.009995 39.820007 C 115.270004 39.649994 114.520004 39.48999 113.770004 39.380005 C 113.279999 39.300003 112.770004 39.300003 112.070007 39.25 C 112.559998 40.25 112.919998 40.980011 113.360001 41.720001 C 113.530945 41.950027 113.779755 42.109985 114.059998 42.169998 C 115.369995 42.5 116.699997 42.800003 118.059998 43.080002 C 118.372986 43.111572 118.688644 43.104843 119 43.059998 Z M 120.190002 35.75 C 120.360001 33.959991 120.509995 32.26001 120.669998 30.550003 C 119.811279 29.90918 118.716949 29.672058 117.669998 29.899994 C 117.539993 30.580002 117.369995 31.290009 117.300003 32 C 117.213684 32.527405 117.439636 33.05722 117.880005 33.360001 C 118.429337 33.865509 118.937607 34.41391 119.399994 35 C 119.660004 35.220001 119.910004 35.51001 120.179993 35.800003 Z M 107.820007 60 C 107.736832 62.362427 108.184479 64.71344 109.130005 66.880005 C 109.210007 64.179993 110.389999 61.779999 111.309998 59.149994 Z M 112.080002 33.380005 C 112 33.480011 111.869995 33.570007 111.839996 33.669998 C 111.53064 34.934143 111.489761 36.249084 111.720001 37.529999 C 111.789993 37.910004 112.029999 38.059998 112.410004 38.130005 C 113.610001 38.360001 114.809998 38.639999 116.009995 38.889999 C 116.182831 38.9086 116.357162 38.9086 116.529999 38.889999 C 116.430573 38.384399 116.149567 37.932678 115.740005 37.619995 C 115.089996 36.970001 114.429993 36.320007 113.830002 35.619995 C 113.229996 34.919998 112.679993 34.169998 112.080002 33.410004 Z M 145.339996 38.309998 L 147.550003 39.130005 C 147.889999 39.25 148.110001 39.059998 148.320007 38.820007 C 149.391296 37.480499 150.254349 35.98703 150.880005 34.389999 C 151.009995 34.089996 151.139999 33.73999 150.729996 33.519989 C 150.320007 33.300003 150.050003 33.519989 149.809998 33.809998 C 149.05835 34.861969 148.181961 35.818939 147.199997 36.660004 Z M 132.339996 34.309998 C 131.61058 33.151398 130.702728 32.115295 129.649994 31.23999 C 129.022461 31.60791 128.681931 32.320648 128.789993 33.040009 C 128.875961 34.236725 128.764465 35.439453 128.460007 36.600006 C 128.448227 36.805847 128.471909 37.012177 128.529999 37.209991 Z M 100.169998 39.709991 C 100.580002 40.25 100.979996 40.800003 101.399994 41.330002 C 101.820007 41.860001 102.399994 42.550003 102.899994 43.130005 C 103.052734 43.258209 103.252335 43.316269 103.449997 43.290009 C 104.389999 43.110001 105.330002 42.880005 106.289993 42.669998 C 105.389999 41.860001 104.570007 41.119995 103.740005 40.399994 C 103.449997 40.139999 103.119995 39.929993 102.820007 39.690002 C 101.988434 39.206833 100.952942 39.245758 100.160004 39.790009 Z M 133.850006 58.279999 C 133.373474 55.608948 132.421738 53.045029 131.039993 50.710007 L 129.110001 51.350006 C 130.410126 53.861801 131.997421 56.214218 133.839996 58.360001 Z M 147 40.220001 C 146.207306 39.799469 145.348068 39.518692 144.460007 39.389999 C 144.242386 39.348312 144.017059 39.391235 143.830002 39.51001 C 142.830002 40.399994 141.940002 41.330002 140.949997 42.300003 C 142.889999 42.940002 143.139999 42.839996 145.639999 41.619995 C 146.293976 41.402176 146.801224 40.880005 147 40.220001 Z M 114.440002 57.419998 L 114.520004 57.559998 C 115.100006 57.289993 115.690002 57.020004 116.270004 56.729996 C 117.320007 56.190002 118.199997 55.539993 117.979996 54.149994 C 117.970306 54.053574 117.970306 53.956421 117.979996 53.860001 C 118.070007 53.029999 118.179993 52.210007 118.229996 51.389999 C 118.206329 51.18013 118.083664 50.994263 117.899994 50.889999 C 117.789993 50.830002 117.520004 50.940002 117.399994 51.050003 C 117.150543 51.261307 116.940613 51.515259 116.779999 51.800003 C 116.320007 52.690002 115.600006 53.440002 115.779999 54.619995 C 115.757675 55.274673 115.557144 55.910858 115.199997 56.460007 C 114.991257 56.810196 114.739273 57.132721 114.449997 57.419998 Z M 119.600006 63.169998 C 120.137421 62.601288 120.537628 61.917175 120.770004 61.169998 C 120.934036 60.78125 121.012482 60.361755 121 59.940002 C 120.589996 58.350006 120.089996 56.789993 119.619995 55.190002 C 119.205002 55.44342 118.962936 55.904495 118.990005 56.389999 C 118.92395 58.666687 119.132111 60.943054 119.610001 63.169998 Z M 138.600006 59.839996 C 139.193237 59.700623 139.645874 59.220428 139.75 58.619995 C 139.886047 57.872879 139.976227 57.118134 140.020004 56.360001 C 140.081818 55.945908 139.80986 55.555511 139.399994 55.470001 C 138.729996 55.229996 138.050003 55.020004 137.330002 54.789993 C 137.770004 56.5 138.179993 58.119995 138.610001 59.839996 Z M 115.919998 36.290009 C 115.919998 35.350006 115.919998 34.459991 115.919998 33.589996 C 115.824631 33.280487 115.622681 33.014771 115.350006 32.839996 C 114.820007 32.440002 114.240005 32.110001 113.690002 31.73999 C 113.429993 31.570007 113.169998 31.389999 112.889999 31.639999 C 112.610001 31.889999 112.639999 32.190002 112.820007 32.529999 C 113.579544 33.852905 114.518433 35.064392 115.610001 36.130005 C 115.709549 36.196518 115.817062 36.250275 115.929993 36.290009 Z M 135.919998 40.809998 C 137.729996 40.169998 139.529999 39.809998 141.009995 38.660004 C 139.174149 38.42514 137.315857 38.42514 135.479996 38.660004 C 135.630005 39.440002 135.75 40.050003 135.910004 40.809998 Z M 120.5 38.679993 C 119.815216 36.96228 118.643997 35.48175 117.130005 34.419998 C 117.229996 35.419998 117.259995 36.149994 117.410004 36.880005 C 117.660004 38.190002 118.880005 38.929993 120.490005 38.679993 Z M 148.300003 60.5 L 148.559998 60.5 C 149.334 59.208313 149.894531 57.800232 150.220001 56.330002 L 147.220001 56.770004 C 147.589996 58.119995 147.940002 59.309998 148.289993 60.5 Z M 111.300003 71.059998 C 111.740005 72 111.910004 72.110001 112.720001 71.929993 C 113.009216 71.859283 113.288162 71.75174 113.550003 71.610001 C 114.812256 70.945007 115.946503 70.06131 116.899994 69 C 117.220001 68.660004 117.550003 68.330002 117.899994 68 L 117.75 67.820007 C 115.780426 69.226959 113.604568 70.319946 111.300003 71.059998 Z M 120.820007 29.339996 C 120.815536 27.854813 120.063812 26.471619 118.820007 25.660004 C 118.490005 26.660004 118.169998 27.660004 117.820007 28.660004 Z M 121.479996 58.089996 C 121.630005 57.789993 121.729996 57.679993 121.740005 57.559998 C 121.839996 56.229996 121.949997 54.910004 121.990005 53.559998 C 121.969437 52.961868 121.8992 52.366486 121.779999 51.779999 C 121.779999 51.479996 121.589996 51.240005 121.270004 51.320007 C 120.949997 51.399994 120.949997 51.589996 120.850006 51.770004 C 120.780792 51.920105 120.749863 52.085022 120.759995 52.25 C 120.672668 54.22319 120.916016 56.197098 121.479996 58.089996 Z M 116.660004 45.720001 C 117.045792 46.426498 117.728714 46.92218 118.520004 47.070007 C 118.836563 47.135071 119.165924 47.066284 119.429993 46.880005 C 119.796524 46.519653 120.131119 46.128174 120.429993 45.709991 C 119.320251 44.846893 117.765167 44.851013 116.660004 45.720001 Z M 130.660004 41.269989 C 131.433044 41.787598 132.407501 41.902893 133.279999 41.580002 C 133.559998 41.5 133.850006 41.440002 134.139999 41.380005 C 134.899994 41.209991 135.029999 41.040009 134.869995 40.279999 C 134.798157 40.017883 134.701035 39.763351 134.580002 39.519989 Z M 127 51.669998 C 127.749252 53.38652 128.8815 54.908722 130.309998 56.119995 C 130.477676 56.246231 130.658768 56.353546 130.850006 56.440002 C 130.706451 56.082245 130.514679 55.745804 130.279999 55.440002 C 129.600006 54.339996 128.919998 53.25 128.279999 52.130005 C 128.194626 51.879456 127.999832 51.681396 127.750732 51.591873 C 127.501633 51.502365 127.225327 51.531113 127 51.669998 Z M 115.199997 52.669998 C 115.715027 52.070404 116.096786 51.36824 116.320007 50.610001 L 111.919998 50.949997 C 113.136398 51.21933 114.262695 51.797974 115.190002 52.630005 Z M 123.199997 43.669998 C 123.360001 43.440002 123.589996 43.26001 123.610001 43.050003 C 123.669998 42.610001 123.800003 42.050003 123.610001 41.730011 C 123.088348 41.085571 122.509308 40.489807 121.880005 39.949997 C 121.759995 40.480011 121.660004 40.860001 121.600006 41.25 C 121.56395 41.404633 121.592865 41.567276 121.679993 41.699997 C 122.139999 42.290009 122.630005 42.910004 123.210007 43.630005 Z M 124.899994 47.290009 C 125.899994 47.149994 125.899994 47.149994 126.119995 46.290009 C 126.233688 45.949142 126.367249 45.615234 126.520004 45.290009 L 125.830002 43.73999 C 125.190002 44.910004 124.240005 45.809998 124.910004 47.25 Z M 98.389999 26.800003 L 96.190002 27.100006 C 96.20105 28.115021 96.58551 29.090424 97.270004 29.839996 Z M 106.470001 58.800003 L 102.880005 57.740005 L 102.279999 59.330002 C 103.694412 59.388397 105.109039 59.219589 106.470001 58.830002 Z M 147.199997 30.25 C 146.199997 29.850006 145.660004 30.660004 144.899994 30.660004 C 144.123505 30.752808 143.401123 31.105194 142.850006 31.660004 L 147.070007 31.399994 Z M 126.729996 27.519989 C 126.73317 26.333466 126.470047 25.161331 125.960007 24.089996 L 124.479996 25.910004 Z M 121.649994 33.619995 L 121.429993 33.619995 C 121.279068 35.194366 121.629028 36.776215 122.429993 38.139999 C 123.220001 37.330002 123.199997 37.339996 122.839996 36.5 C 122.479996 35.660004 122 34.630005 121.649994 33.649994 Z M 124.779999 37.679993 C 126.149994 36 126.139999 35.23999 124.779999 33.779999 L 124.389999 33.429993 C 124.413071 34.159241 124.473145 34.886841 124.570007 35.610001 C 124.720001 36.300003 124.149994 37 124.779999 37.709991 Z M 123.160004 54.179993 L 122.889999 54.179993 C 122.889999 54.839996 122.889999 55.5 122.889999 56.179993 C 122.889999 56.860001 122.639999 57.550003 122.589996 58.240005 C 122.539993 58.929993 122.009995 59.440002 122.470001 60.240005 C 122.718369 59.89827 122.920151 59.524979 123.070007 59.130005 C 123.481461 57.519211 123.512268 55.834763 123.160004 54.210007 Z M 123.160004 50.929993 C 123.660004 52.369995 124.080002 53.559998 124.5 54.740005 C 124.799469 53.63974 124.880997 52.491547 124.740005 51.360001 Z M 101 38.279999 L 98.589996 35.360001 L 98.380005 35.480011 C 98.699997 36.339996 99 37.209991 99.380005 38.059998 C 99.499466 38.43219 99.897293 38.637802 100.270004 38.519989 C 100.470001 38.470001 100.690002 38.389999 101 38.279999 Z M 127.660004 142.440002 L 125.889999 142.440002 C 125.897003 142.96167 125.933731 143.482513 126 144 C 126 144.220001 126.259995 144.539993 126.429993 144.559998 C 126.68634 144.550797 126.920197 144.41124 127.050003 144.190002 C 127.298019 143.619934 127.511734 143.035568 127.690002 142.440002 Z M 101.139999 59.339996 C 101.369995 58.759995 101.600006 58.25 101.770004 57.720001 C 101.822342 57.543884 101.784973 57.353302 101.669998 57.210007 C 101.510712 57.124664 101.31929 57.124664 101.160004 57.210007 C 100.649994 57.860001 99.860001 58.339996 99.75 59.350006 Z M 132.440002 45.720001 L 130.380005 44.480011 C 129.839996 44.980011 129.949997 45.540009 129.919998 46.169998 C 130.791824 46.195892 131.659698 46.042725 132.470001 45.720001 Z M 149.080002 29.619995 C 148.080002 29.820007 147.880005 30.339996 148.149994 31.730011 L 149.220001 31.730011 C 149.567719 31.058563 149.52565 30.251648 149.110001 29.619995 Z M 136.5 66.050003 C 137.440002 64.529999 137.399994 63.350006 136.020004 63.050003 C 135.96962 64.072495 136.133102 65.094269 136.5 66.050003 Z M 134.729996 93.419998 L 134.850006 93.75 L 137.389999 93.389999 L 137.270004 92.25 C 136.336395 92.413773 135.461227 92.816895 134.729996 93.419998 Z M 129.25 44.179993 L 127.25 43.660004 C 127.389999 44.769989 128.110001 45.199997 128.960007 45.790009 C 129.089996 45.190002 129.160004 44.730011 129.25 44.179993 Z M 128.610001 50.5 L 130.449997 50 C 130 48.850006 129.669998 48.779999 128.139999 49.440002 Z M 127.949997 58.559998 L 128.190002 58.490005 C 128.039993 57.940002 127.919998 57.389999 127.75 56.839996 C 127.580002 56.289993 127.360001 55.649994 127.169998 55.050003 C 126.830002 54 126.839996 54 126.410004 53.580002 C 126.509995 55.399994 127.440002 56.910004 128 58.559998 Z M 115.949997 31.75 C 115.949997 31.080002 116.330002 30.540009 115.949997 29.880005 L 114.149994 30.440002 C 114.649994 31.139999 114.649994 31.139999 116 31.75 Z M 125.289993 39.369995 C 125.169998 39.949997 124.809998 40.369995 125.009995 41.01001 C 126.639999 40.089996 126.639999 40.089996 127.070007 39.130005 Z M 124.210007 49.759995 C 123.729996 48.759995 123.080002 48.470001 122.149994 48.960007 C 122.449997 50 123.089996 50.289993 124.25 49.759995 Z M 136.279999 34.76001 L 134.399994 36 L 134.979996 37.290009 C 135.641891 36.5952 136.104721 35.735153 136.320007 34.800003 Z M 113.449997 44.169998 L 113.610001 43.899994 C 113.380005 43.639999 113.190002 43.220001 112.910004 43.149994 C 112.127014 43.015106 111.325134 43.035492 110.550003 43.209991 L 110.550003 43.440002 Z M 134.070007 37.570007 L 133.460007 36.570007 L 131.460007 38.019989 C 132.364182 38.127167 133.280472 37.985413 134.110001 37.610001 Z M 142.070007 44.089996 C 140.695953 44.334106 139.354034 44.733337 138.070007 45.279999 C 138.190002 45.470001 138.240005 45.630005 138.279999 45.619995 C 139.650314 45.398041 140.958618 44.890396 142.119995 44.130005 Z M 121.600006 18.839996 L 123.119995 17.550003 L 122 16.089996 Z M 132.940002 39.190002 C 131.87825 39.149948 130.830185 39.439911 129.940002 40.019989 C 131.016037 40.26944 132.145187 39.957031 132.940002 39.190002 Z M 123.339996 35.26001 C 123.27121 33.902954 122.931183 32.573441 122.339996 31.350006 C 122.282242 32.723236 122.630035 34.083099 123.339996 35.26001 Z M 123.889999 38.380005 L 123.009995 39.380005 L 124.009995 40.380005 C 124.660004 38.919998 124.660004 38.919998 123.889999 38.380005 Z M 128.509995 40.630005 C 128.070007 41.139999 127.509995 41.470001 127.360001 42.179993 L 128.559998 42.269989 C 129 41.73999 129.179993 41.269989 128.509995 40.630005 Z M 132.990005 35.919998 L 132.869995 35.730011 C 131.54303 36.209167 130.429932 37.14502 129.729996 38.369995 C 130.380005 37.839996 130.869995 37.369995 131.399994 37 C 131.929993 36.630005 132.460007 36.279999 133 35.919998 Z M 137.990005 66.259995 C 138.670013 66.511795 139.401901 66.590836 140.119995 66.490005 L 138.330002 65.119995 Z M 121.639999 25.660004 C 121.431534 26.327667 121.587006 27.055725 122.050003 27.580002 L 122.830002 26.330002 Z M 146.809998 34.899994 L 147.050003 35.080002 L 148.610001 33.26001 L 147.710007 32.929993 C 147.389999 33.619995 147.100006 34.26001 146.809998 34.899994 Z M 121.889999 44.51001 C 121.920578 43.960144 121.769485 43.415497 121.460007 42.959991 C 121.110001 42.540009 120.929993 42.580002 120.460007 43.320007 Z M 117.830002 48.270004 C 117.195953 47.743103 116.288849 47.70224 115.610001 48.169998 C 116.389999 48.860001 117.119995 48.339996 117.830002 48.270004 Z M 138.259995 43.350006 C 137.5177 43.184174 136.741959 43.406342 136.199997 43.940002 C 137 44.529999 137.229996 44.449997 138.259995 43.350006 Z M 136 60.759995 L 135.940002 60.880005 L 137.380005 62.070007 L 137.380005 61.070007 Z M 116.710007 43.839996 C 116.023346 43.542908 115.277069 43.409393 114.529999 43.449997 C 115.050003 44.26001 115.300003 44.309998 116.660004 43.839996 Z M 123.710007 44.5 C 122.940002 45.339996 122.979996 45.610001 123.710007 46.050003 Z M 125.940002 38.130005 C 126.940002 38.130005 126.940002 38 126.479996 36.669998 Z M 138.740005 44.059998 C 139.559998 44.179993 139.970001 43.679993 140.490005 43.5 C 139.828949 43.30481 139.115326 43.525604 138.679993 44.059998 Z M 127.570007 50.710007 L 127.059998 49.779999 C 126.660004 49.949997 126.429993 50.210007 126.660004 50.539993 C 126.699997 50.690002 127.070007 50.639999 127.509995 50.710007 Z M 119.389999 39.869995 C 120.009995 40.459991 120.009995 40.459991 120.649994 40.449997 C 120.419998 39.690002 119.699997 40.149994 119.330002 39.869995 Z M 120.309998 23.970001 C 120.610001 23.330002 120.610001 23.330002 120.389999 22.820007 C 120.410004 23.190002 119.679993 23.399994 120.25 24 Z M 119.309998 41.330002 L 119.160004 41.48999 L 119.979996 42.23999 C 120 41.449997 119.550003 41.459991 119.210007 41.330002 Z M 102.029999 56.330002 C 102.850006 56.330002 102.850006 56.330002 102.970001 55.490005 Z M 137 46.119995 C 136.350006 45.769989 136.350006 45.769989 136 46.119995 Z M 148.460007 27.800003 L 148.259995 27.800003 C 148.225647 28.011948 148.225647 28.228058 148.259995 28.440002 C 148.259995 28.519989 148.559998 28.529999 148.869995 28.610001 Z M 135.059998 42.540009 C 134.509995 42.269989 134.509995 42.269989 134.059998 42.679993 Z M 122.75 46.709991 C 122.520004 47.419998 122.520004 47.419998 123.139999 47.330002 Z M 115.509995 46.980011 L 116.210007 46.730011 C 115.820007 46.419998 115.639999 46.459991 115.520004 47 Z M 137 41.820007 L 137 41.679993 C 136.883835 41.664703 136.766159 41.664703 136.649994 41.679993 C 136.52948 41.729523 136.415329 41.793304 136.309998 41.869995 L 136.360001 41.980011 Z M 138.380005 41.01001 L 138.429993 41.179993 L 138.940002 41 L 138.889999 40.850006 Z M 151.080002 32.070007 L 151.330002 32.209991 L 151.580002 31.639999 L 151.389999 31.550003 Z M 128.679993 48.149994 L 128.740005 48.380005 L 129.169998 48.160004 L 129.100006 48.020004 Z M 119.259995 52.949997 L 119.339996 52.949997 L 119.339996 52.350006 L 119.259995 52.350006 Z"/>
    <path id="path1" fill="#000000" stroke="none" d="M 50.580002 61 C 49.979996 61.100006 49.580002 61.130005 49.279999 61.220001 C 47.05426 61.810532 44.681992 61.41333 42.769997 60.130005 C 40.542175 58.871292 38.886902 56.800415 38.150002 54.350006 C 37.495926 52.084274 38.181648 49.64357 39.919998 48.050003 C 40.086861 47.888153 40.275314 47.750183 40.480003 47.639999 C 42.550583 46.619324 45.015175 46.82309 46.889999 48.169998 C 48.748825 49.687195 50.216553 51.628174 51.169998 53.830002 C 51.752029 54.954727 52.115143 56.179764 52.240005 57.440002 C 52.292664 57.757446 52.376389 58.068939 52.490005 58.369995 C 54.169998 58.050003 58.570007 53.580002 58.699997 51.699997 C 58.100006 51.610001 57.479996 51.550003 56.880005 51.410004 C 55.158325 50.979645 53.590042 50.079514 52.350006 48.809998 C 50.647354 47.255463 49.33226 45.323944 48.509995 43.169998 C 47.802414 41.391113 47.738739 39.420868 48.330002 37.600006 C 48.485062 37.127792 48.718307 36.684967 49.020004 36.290009 C 49.732742 35.321152 50.98616 34.918121 52.130005 35.290009 C 53.802872 35.788254 55.305069 36.740112 56.470001 38.040009 C 58.383865 39.954514 59.762955 42.336884 60.470001 44.949997 C 60.831146 46.366486 60.959488 47.832306 60.850006 49.289993 C 60.82991 49.452713 60.82991 49.617279 60.850006 49.779999 C 60.850006 49.839996 60.899994 49.899994 60.949997 49.979996 C 61.069534 49.994949 61.19046 49.994949 61.309998 49.979996 C 63.595657 49.407532 65.598175 48.029907 66.949997 46.100006 C 67.886581 44.837875 68.566116 43.404068 68.949997 41.880005 C 69.359192 39.883118 69.128235 37.808044 68.289993 35.949997 C 67.395462 34.091141 66.229355 32.375702 64.830002 30.860001 C 64.389999 30.330002 63.919998 29.860001 63.449997 29.300003 C 63.699997 28.779999 64.070007 28.880005 64.380005 29.089996 C 64.849106 29.401245 65.28772 29.756165 65.690002 30.149994 C 67.360489 31.783859 68.692551 33.730972 69.610001 35.880005 C 70.621918 38.232391 70.700577 40.881714 69.830002 43.290009 C 69.329742 44.726822 68.607666 46.076477 67.690002 47.290009 C 66.098679 49.328339 63.857971 50.760986 61.339996 51.350006 C 60.809326 51.419678 60.363861 51.783798 60.190002 52.289993 C 59.650696 53.691818 58.834442 54.970612 57.789993 56.050003 C 56.506805 57.631897 54.905548 58.926529 53.089996 59.850006 C 52.482376 60.113007 52.044296 60.659668 51.919998 61.309998 C 51.313492 63.323761 50.268463 65.178177 48.860001 66.740005 C 47.119354 68.838852 44.693344 70.255508 42.010002 70.740005 C 39.087578 71.368546 36.040413 71.038925 33.32 69.800003 C 30.233696 68.387054 27.731941 65.948898 26.239998 62.899994 C 25.57 61.539993 25.080002 60.080002 24.529999 58.649994 C 24.427002 58.297684 24.359993 57.935837 24.330002 57.570007 C 24.272606 57.196823 24.462463 56.829208 24.800003 56.660004 C 25.190002 56.389999 25.480003 56.539993 25.589996 57 C 26.284966 60.691528 28.171349 64.053299 30.959999 66.570007 C 33.303413 68.596542 36.323387 69.667465 39.419998 69.570007 C 41.155411 69.588409 42.869965 69.190628 44.419998 68.410004 C 46.858467 67.206436 48.790009 65.175659 49.869995 62.679993 C 50 62.199997 50.259995 61.729996 50.580002 61 Z M 39.169998 52.820007 C 39.255531 53.383469 39.399651 53.936462 39.599998 54.470001 C 40.037209 55.401657 40.573647 56.283417 41.199997 57.100006 C 41.946304 58.040283 42.901596 58.793564 43.989998 59.300003 C 45.922356 60.161102 48.109314 60.257584 50.110001 59.570007 C 50.839996 59.339996 51.050003 59.160004 50.949997 58.449997 C 50.830536 57.333878 50.602798 56.232025 50.270004 55.160004 C 49.900711 54.198257 49.427933 53.279526 48.860001 52.419998 C 48.078934 51.100891 47.037857 49.954346 45.800003 49.050003 C 44.769882 48.249969 43.414391 48.002411 42.167984 48.386688 C 40.92157 48.770966 39.940796 49.7388 39.540001 50.979996 C 39.384537 51.599915 39.26104 52.227402 39.169998 52.860001 Z M 59.169998 50.339996 C 59.552017 48.932648 59.586334 47.453552 59.270004 46.029999 C 58.815109 43.522247 57.628677 41.205078 55.860001 39.369995 C 54.831131 38.094131 53.476776 37.119827 51.940002 36.550003 C 51.22049 36.280319 50.409225 36.511536 49.940002 37.119995 C 49.472244 37.684143 49.204941 38.387573 49.179993 39.119995 C 49.084488 40.924744 49.48938 42.720795 50.350006 44.309998 C 51.308014 46.064636 52.647598 47.58194 54.270004 48.75 C 55.385666 49.53978 56.669296 50.060074 58.020004 50.270004 C 58.415802 50.343231 58.817474 50.380066 59.220001 50.380005 Z"/>
    <path id="path2" fill="#000000" stroke="none" d="M 179.459991 7 C 180.100006 7.23999 180.690002 7.440002 181.269989 7.669998 C 183.247375 8.410477 184.898407 9.827667 185.929993 11.669998 C 186.993347 13.5811 186.916473 15.922791 185.730011 17.76001 C 185.285858 18.441101 184.593353 18.92189 183.799988 19.100006 C 181.62616 19.722931 179.319824 18.688049 178.339996 16.649994 C 177.380432 14.659149 177.03244 12.428543 177.339996 10.23999 C 177.410004 9.580002 177.529999 8.929993 177.630005 8.23999 C 177.408173 8.172348 177.180511 8.125488 176.950012 8.100006 C 175.283539 7.970428 173.612701 8.288025 172.110001 9.019989 C 169.801788 10.352585 168.437531 12.868546 168.580002 15.529999 C 168.569839 16.361664 168.609909 17.193176 168.699997 18.019989 C 168.949997 20.019989 169.190002 22.019989 170.800003 23.459991 C 170.887939 23.557709 170.95285 23.673889 170.990005 23.800003 C 171.012619 23.912201 171.012619 24.027802 170.990005 24.139999 C 170.354279 24.231293 169.718979 23.971039 169.330002 23.459991 C 168.580353 22.521515 168.075256 21.411682 167.860001 20.230011 C 167.302399 18.202728 167.159546 16.083771 167.440002 14 C 167.73999 11.232071 169.471298 8.824951 172 7.660004 C 173.533798 6.915176 175.242065 6.603958 176.940002 6.76001 C 177.940002 6.850006 178.130005 6.76001 178.519989 5.929993 C 179.374451 4.258377 180.736176 2.900146 182.410004 2.050003 C 184.248169 1.014404 186.302643 0.422043 188.410004 0.320007 C 189.981018 0.262207 191.546173 0.541809 193 1.139999 C 197.399994 2.779999 199.850006 6.139999 201 10.550003 C 201.03299 10.67807 201.056396 10.808441 201.070007 10.940002 C 201.123016 11.251343 200.933563 11.552795 200.630005 11.639999 C 200.487396 11.700363 200.325714 11.696594 200.186066 11.629639 C 200.046417 11.562683 199.94223 11.438995 199.899994 11.290009 C 199.638336 10.751663 199.411194 10.197205 199.220001 9.630005 C 197.882294 5.030304 193.74704 1.805923 188.959991 1.630005 C 187.893341 1.628174 186.834381 1.810883 185.829987 2.169998 C 184.592865 2.442139 183.414337 2.933182 182.350006 3.619995 C 181.086578 4.450897 180.084534 5.622833 179.459991 7 Z M 179.109985 8.330002 C 178.970001 8.529999 178.880005 8.600006 178.859985 8.679993 C 178.356873 10.891815 178.432648 13.196014 179.079987 15.369995 C 179.270966 16.190155 179.74115 16.918396 180.410004 17.429993 C 181.488251 18.14444 182.87262 18.205963 184.01001 17.589996 C 184.509918 17.380524 184.880951 16.946442 185.01001 16.419998 C 185.416687 15.070435 185.313477 13.618484 184.720001 12.339996 C 183.958374 11.005249 182.821259 9.923767 181.450012 9.230011 C 180.693329 8.875305 179.911133 8.577805 179.109985 8.339996 Z"/>
    <path id="path3" fill="#000000" stroke="none" d="M 68.080002 20.380005 C 67.764343 20.173035 67.475494 19.927841 67.220001 19.649994 C 66.259521 18.412872 65.151291 17.297928 63.919998 16.330002 C 62.955338 15.502014 61.783417 14.952332 60.529999 14.73999 C 59.110001 14.540009 57.690002 14.410004 56.270004 14.26001 C 55.770004 14.209991 55.190002 14.26001 55.080002 13.610001 C 54.970001 12.959991 55.509995 12.800003 55.949997 12.550003 C 59.749908 10.534882 62.121384 6.581146 62.110001 2.279999 C 62.079849 1.883987 61.985275 1.495544 61.830002 1.130005 C 61.699997 0.709991 61.649994 0.339996 62.110001 0.130005 C 62.570007 -0.080002 62.820007 0.130005 63.110001 0.48999 C 64.149841 1.987244 65.700027 3.053894 67.470001 3.48999 C 69.801804 4.066895 72.223892 4.182404 74.600006 3.830002 C 75.218262 3.707489 75.829224 3.550598 76.429993 3.360001 C 76.910889 3.228516 77.398193 3.121704 77.889999 3.040009 C 78.04039 3.00412 78.198944 3.037048 78.322647 3.129822 C 78.446335 3.22258 78.522324 3.36557 78.529999 3.519989 C 78.532379 3.776367 78.422821 4.021027 78.229996 4.190002 C 77.669998 4.589996 77 4.869995 76.470001 5.309998 C 73.869995 7.419998 71.470001 9.73999 70.259995 12.949997 C 69.821091 14.275116 69.486725 15.632614 69.259995 17.01001 C 69.089996 17.860001 69.050003 18.730011 68.949997 19.589996 C 68.908539 20.039001 68.530899 20.381912 68.080002 20.380005 Z M 58.080002 12.850006 C 60.080002 13.320007 61.860001 13.48999 63.5 14.350006 C 65.091492 15.342926 66.521423 16.573883 67.740005 18 C 67.839996 17.300003 67.869995 16.809998 67.979996 16.320007 C 68.150894 15.173706 68.4151 14.043289 68.770004 12.940002 C 69.77803 10.200104 71.505142 7.78215 73.770004 5.940002 C 74.089996 5.679993 74.360001 5.369995 74.830002 4.940002 C 70.690002 5.529999 66.970001 5.169998 63.509995 3 C 63.218445 6.936035 61.201447 10.541733 58 12.850006 Z"/>
    <path id="path4" fill="#000000" stroke="none" d="M 57 131.860001 C 56.669571 131.925491 56.335709 131.972229 56 132 L 49.330002 132.130005 C 48.270004 132.130005 47.220001 132.240005 46.160004 132.279999 C 45.260002 132.279999 44.370003 132.339996 43.470001 132.330002 C 41.470001 132.330002 39.410004 132.330002 37.400002 132.149994 C 36.489998 132.080002 35.629997 132.279999 34.75 132.259995 C 32.970001 132.259995 31.190002 132.259995 29.410004 132.259995 C 26.919998 132.259995 24.410004 132.190002 21.940002 132.210007 C 19.470001 132.229996 16.699997 132.380005 14.080002 132.339996 C 11.68 132.339996 9.309998 132.559998 6.93 132.740005 C 5.849998 132.820007 4.75 132.850006 3.669998 132.929993 C 3.099998 132.929993 2.550003 133.070007 1.989998 133.130005 C 1.723907 133.154694 1.456093 133.154694 1.190002 133.130005 C 0.860001 133.130005 0.480003 133.050003 0.470001 132.600006 C 0.458694 132.244705 0.734894 131.946228 1.089996 131.929993 C 1.980003 131.809998 2.870003 131.740005 3.769997 131.669998 C 5.220001 131.550003 6.669998 131.410004 8.120003 131.330002 C 10.18 131.220001 12.239998 131.160004 14.290001 131.089996 C 16.57 131 18.849998 130.880005 21.129997 130.869995 C 23.75 130.869995 26.370003 130.979996 29 131.039993 C 29.760002 131.039993 30.519997 131.100006 31.279999 131.039993 C 33.410004 131.039993 35.529999 130.949997 37.650002 130.940002 C 39.040001 130.940002 40.440002 131.029999 41.830002 131.029999 C 43.830002 131.029999 45.830002 131.029999 47.830002 130.960007 C 49.830002 130.889999 52.080002 130.910004 54.210007 130.899994 C 54.869995 130.899994 55.520004 130.960007 56.210007 130.990005 C 56.529999 131.119995 56.660004 131.220001 57 131.860001 Z"/>
    <path id="path5" fill="#000000" stroke="none" d="M 175.519989 131.669998 C 175.987976 131.092377 176.723267 130.800537 177.459991 130.899994 C 179.769989 130.75 182.100006 130.710007 184.459991 130.580002 C 185.850006 130.490005 187.230011 130.259995 188.619995 130.169998 C 191 130.020004 193.380005 129.889999 195.769989 129.820007 C 197.519989 129.820007 199.269989 129.820007 201.019989 129.820007 C 202.209991 129.820007 203.399994 129.669998 204.589996 129.630005 C 207.799988 129.550003 211.019989 129.470001 214.23999 129.419998 C 216.799988 129.366664 219.359996 129.336665 221.920013 129.330002 C 223.179993 129.330002 224.429993 129.330002 225.690002 129.389999 C 227.25 129.389999 228.809998 129.389999 230.369995 129.460007 C 232.660004 129.529999 234.950012 129.649994 237.230011 129.729996 C 237.48999 129.729996 237.76001 129.729996 237.730011 130.050003 C 237.676147 130.260818 237.523254 130.432343 237.320007 130.509995 C 236.871216 130.635956 236.405945 130.693268 235.940002 130.679993 C 233.679993 130.630005 231.429993 130.520004 229.179993 130.490005 C 227.332123 130.365005 225.477875 130.365005 223.630005 130.490005 C 222.837463 130.540024 222.042542 130.540024 221.25 130.490005 C 219.25 130.490005 217.25 130.490005 215.25 130.490005 C 213.029999 130.490005 210.820007 130.490005 208.609985 130.559998 C 206.399994 130.630005 203.910004 130.669998 201.559998 130.740005 C 199.480011 130.809998 197.399994 130.910004 195.329987 130.990005 C 192.519989 131.089996 189.700012 131.179993 186.890015 131.300003 C 186.200012 131.300003 185.51001 131.5 184.820007 131.529999 C 183.529999 131.589996 182.230011 131.589996 180.940002 131.630005 L 176.26001 131.770004 C 176.011322 131.753906 175.764038 131.72049 175.519989 131.669998 Z"/>
    <path id="path6" fill="#000000" stroke="none" d="M 181.049988 56.229996 C 181.084015 54.075333 180.41333 51.968506 179.140015 50.229996 C 178.349762 49.272598 177.249603 48.621689 176.029999 48.389999 C 175.739716 48.322754 175.460297 48.215027 175.200012 48.070007 C 174.690002 47.730011 174.699997 47.300003 175.200012 46.959991 C 175.518219 46.781158 175.853149 46.633789 176.200012 46.519989 C 178.483856 45.710602 180.402802 44.110886 181.609985 42.01001 C 182.029999 41.146698 182.387573 40.254425 182.679993 39.339996 C 182.829987 38.929993 182.929993 38.339996 183.429993 38.339996 C 183.929993 38.339996 184.070007 38.98999 184.140015 39.399994 C 184.417542 40.911285 184.999298 42.350403 185.850006 43.630005 C 186.735992 45.372803 188.556519 46.439331 190.51001 46.360001 C 190.73999 46.360001 190.980011 46.360001 191.209991 46.360001 C 191.440002 46.360001 191.799988 46.429993 191.790009 46.76001 C 191.777954 47.039795 191.672302 47.307434 191.48999 47.519989 C 191.274811 47.671417 191.029053 47.773834 190.769989 47.820007 C 188.233185 48.606018 186.044037 50.240829 184.570007 52.449997 C 183.987518 53.403488 183.492188 54.407562 183.089996 55.449997 C 182.809998 56.080002 182.609985 56.759995 182.359985 57.449997 C 182.291962 57.636871 182.190277 57.809723 182.059998 57.960007 C 181.946106 58.157135 181.720825 58.261658 181.496765 58.221329 C 181.272705 58.181 181.097992 58.004471 181.059998 57.779999 C 180.989532 57.522873 180.959167 57.256393 180.970001 56.990005 C 180.982086 56.735336 181.008789 56.481598 181.049988 56.229996 Z M 183.25 41.51001 C 182.02536 44.278564 179.713867 46.420044 176.859985 47.429993 C 177.200012 47.570007 177.369995 47.649994 177.549988 47.709991 C 178.88269 48.085815 179.99646 49.003677 180.619995 50.240005 C 181.140015 51.240005 181.549988 52.240005 182 53.330002 C 182.100006 53.550003 182.190002 53.770004 182.390015 54.210007 C 183.592072 51.281296 185.806671 48.882141 188.630005 47.449997 C 185.829987 46.25 184.359985 44.080002 183.25 41.51001 Z"/>
    <path id="path7" fill="#000000" stroke="none" d="M 39.660004 11.269989 C 38.07 10.970001 36.660004 10.73999 35.269997 10.440002 C 31.989998 9.730011 28.720001 8.980011 25.449997 8.25 L 21.07 7.25 C 20.907761 7.22464 20.74968 7.177551 20.599998 7.110001 C 20.169998 6.869995 20.150002 6.350006 20.599998 6.179993 C 20.999748 6.034058 21.430908 5.996124 21.849998 6.070007 C 23.849998 6.459991 25.849998 6.899994 27.849998 7.350006 L 38.849998 9.820007 C 39.174957 9.884018 39.490707 9.988159 39.790001 10.130005 C 40.089996 10.290009 40.419998 10.540009 40.199997 10.910004 C 40.110001 11.139999 39.769997 11.209991 39.660004 11.269989 Z"/>
    <path id="path8" fill="#000000" stroke="none" d="M 20.82 24.419998 C 20.655251 24.455719 20.484756 24.455719 20.32 24.419998 C 20.099998 24.339996 19.760002 24.139999 19.760002 23.98999 C 19.770042 23.712433 19.906303 23.454636 20.129997 23.290009 C 20.499557 23.141052 20.891899 23.056503 21.290001 23.040009 C 24 22.779999 26.720001 22.580002 29.43 22.279999 C 32.529999 21.929993 35.620003 21.51001 38.720001 21.119995 C 38.982185 21.085175 39.247818 21.085175 39.510002 21.119995 C 39.669998 21.119995 39.949997 21.330002 39.940002 21.429993 C 39.93 21.529999 39.779999 21.910004 39.629997 21.949997 C 38.816353 22.238754 37.980148 22.459503 37.129997 22.610001 C 33.129997 23.156662 29.129997 23.67333 25.129997 24.160004 C 23.739998 24.269989 22.370003 24.309998 20.82 24.419998 Z"/>
    <path id="path9" fill="#000000" stroke="none" d="M 21.879997 38.639999 C 21.769997 38.550003 21.459999 38.419998 21.370003 38.199997 C 21.279999 37.980011 21.489998 37.639999 21.800003 37.540009 C 22.879997 37.190002 23.949997 36.830002 25.029999 36.540009 C 27.68 35.76001 30.330002 35.01001 32.970001 34.23999 C 34.57 33.779999 36.169998 33.320007 37.760002 32.839996 C 38.360001 32.649994 38.940002 32.389999 39.529999 32.179993 C 39.809998 32.089996 40.139999 31.929993 40.330002 32.290009 C 40.519997 32.649994 40.209999 32.839996 39.949997 32.980011 C 39.291794 33.369019 38.602821 33.703476 37.889999 33.980011 C 34.763331 34.986664 31.626666 35.963328 28.480003 36.910004 C 27.050003 37.339996 25.589996 37.649994 24.139999 38.040009 C 23.57 38.199997 23.010002 38.419998 22.449997 38.600006 C 22.261452 38.629211 22.070786 38.642593 21.879997 38.639999 Z"/>
    <path id="path10" fill="#000000" stroke="none" d="M 191.359985 33.600006 C 190.910004 33.600006 190.660004 33.26001 190.880005 32.929993 C 191.063477 32.651642 191.301636 32.413483 191.579987 32.230011 C 193.359985 31.070007 195.160004 29.940002 196.950012 28.779999 C 198.089996 28.040009 199.209991 27.26001 200.359985 26.540009 C 201.51001 25.820007 202.869995 25.029999 204.130005 24.290009 C 204.357086 24.155334 204.608582 24.066986 204.869995 24.029999 C 205.056366 24.020325 205.235657 24.102509 205.350006 24.25 C 205.40799 24.426147 205.378265 24.619415 205.269989 24.769989 C 205.105042 24.934082 204.91626 25.072327 204.709991 25.179993 C 201.709991 27.119995 198.76001 29.080002 195.76001 31 C 194.450012 31.839996 193.089996 32.619995 191.76001 33.419998 C 191.632233 33.491653 191.498383 33.55188 191.359985 33.600006 Z"/>
    <path id="path11" fill="#000000" stroke="none" d="M 208.940002 40.580002 C 208.709991 41.160004 208.290009 41.139999 207.839996 41.080002 C 206.089996 40.839996 204.350006 40.600006 202.600006 40.380005 L 196.959991 39.679993 C 196.668823 39.650726 196.388275 39.554916 196.140015 39.399994 C 195.971405 39.249054 195.888947 39.024139 195.920013 38.800003 C 195.920013 38.630005 196.220001 38.5 196.399994 38.389999 C 196.49765 38.359283 196.602356 38.359283 196.700012 38.389999 C 199.220001 38.73999 201.799988 38.669998 204.290009 39.389999 C 205.399994 39.709991 206.570007 39.790009 207.720001 40 C 208.160004 40.050003 208.670013 40 208.940002 40.580002 Z"/>
    <path id="path12" fill="#000000" stroke="none" d="M 206.940002 55.300003 C 206.440002 55.179993 206.049988 55.089996 205.670013 54.979996 C 202.603343 54.12 199.57667 53.12 196.589996 51.979996 C 196.496094 51.953735 196.405518 51.916824 196.320007 51.869995 C 196.059998 51.720001 195.670013 51.570007 195.829987 51.229996 C 195.983063 50.950348 196.248962 50.75 196.559998 50.679993 C 196.885712 50.692047 197.205536 50.770309 197.5 50.910004 C 200.137085 51.607895 202.717743 52.503769 205.220001 53.589996 C 205.640015 53.779999 206.109985 53.839996 206.549988 53.990005 C 206.77475 54.052689 206.980743 54.169418 207.149994 54.330002 C 207.299988 54.470001 207.48999 54.75 207.440002 54.880005 C 207.390015 55.009995 207.089996 55.179993 206.940002 55.300003 Z"/>
</svg>
