<svg id="Layer_1" data-name="Layer 1" xmlns="http://www.w3.org/2000/svg" viewBox="0 0 400 300"><path d="M222,198.3c-.52-1.47-.89-3-1.34-4.48-.29-.95-.62-1.88-.91-2.83s-.58-2.18-.94-3.24c-.31-.9-.73-1.76-1.09-2.64l-.27-1.23c-.17-.66-.32-1.33-.51-2-.59-2.09-1.19-4.19-1.8-6.28a9,9,0,0,0-.51-1.3,1.29,1.29,0,0,1,.39-1.82,7.91,7.91,0,0,1,2.71-1.18l.4-.13c-.1-1.19-.23-2.34-.3-3.49-.14-2.25-.31-4.5-.33-6.76a35.6,35.6,0,0,1,.33-5,16.2,16.2,0,0,1,2-5.68,12.58,12.58,0,0,1,1.54-1.82l.43-.47-3.36-.24a5.23,5.23,0,0,0-1.22,2.43,14.5,14.5,0,0,1-1.7,5.88,17.6,17.6,0,0,1-1.74,2.15,5.26,5.26,0,0,1-2.95,1.56,5.1,5.1,0,0,1-2.63,0,6.89,6.89,0,0,1-3.62-2.51,1,1,0,0,0-1.21-.38,8.42,8.42,0,0,1-5.09.07,13.09,13.09,0,0,1-5.42-3.2q-.92-.84-1.77-1.74a.94.94,0,0,0-.9-.3,14,14,0,0,1-5-.18,9.07,9.07,0,0,1-5.87-3.43,6.86,6.86,0,0,1-.82-6.35c.11-.38.23-.75.39-1.22a13.44,13.44,0,0,0-1.88-.52,13.16,13.16,0,0,1-5.11-2,11.15,11.15,0,0,1-4.3-5,7.21,7.21,0,0,1-.42-5.13,7.8,7.8,0,0,1,2.35-3.85c.74-.67,1.5-1.31,2.29-2-.3-.41-.59-.81-.9-1.19a11.75,11.75,0,0,1-2.77-6.8,6,6,0,0,1,3.45-6.11c1.25-.67,2.59-1.17,4-1.79l-.17-1.95a10,10,0,0,1,.35-4.15,7.08,7.08,0,0,1,3.71-4.2,11.49,11.49,0,0,1,5.71-.85,21.09,21.09,0,0,1,3,.56l.61.15c.44-1,.82-2.06,1.28-3a5.52,5.52,0,0,1,3.25-3,6,6,0,0,1,4.31.32,11.94,11.94,0,0,1,4.71,3.41,2.13,2.13,0,0,0,.43.27c.39-.62.74-1.22,1.12-1.8a6.1,6.1,0,0,1,6-3,6.6,6.6,0,0,1,3.87,1.69,1.13,1.13,0,0,0,1.27.25,15.78,15.78,0,0,1,7.83-.61,13.53,13.53,0,0,1,3.18.75,12.88,12.88,0,0,1,4,2.33,20.82,20.82,0,0,1,2.26,2.34A9.53,9.53,0,0,1,234,99.66a17.18,17.18,0,0,1-.13,7.21,7.25,7.25,0,0,0-.1,1.1l3.2.36a6.11,6.11,0,0,1,2.46,1,2.83,2.83,0,0,1,1.07,3.1,4.93,4.93,0,0,1-1.26,2.55,4.44,4.44,0,0,0-.6.83l2.34,4.49a1.57,1.57,0,0,1,2.47.72c.36-.37.62-.66.9-.94a1.47,1.47,0,0,1,2.35.3,4.34,4.34,0,0,1,.54,2c.22,2.47.54,4.94.83,7.41.26,2.11.57,4.21.79,6.33a17,17,0,0,1-.54,5.63,7.32,7.32,0,0,1-.7,1.54,24,24,0,0,1-5,7.23c-1.45,1.35-2.84,2.78-4.28,4.19.41,1,.82,2,1.16,2.93q1.72,4.93,3.41,9.88c.57,1.67,1.14,3.33,1.68,5,.77,2.4,1.52,4.81,2.27,7.22.23.73.46,1.45.68,2.18.48,1.62.95,3.25,1.44,4.87s1.06,3.4,1.57,5.11a19.8,19.8,0,0,1,.51,2.12,3.13,3.13,0,0,1-.14.95c-.7.07-1-.09-1.15-.76-.3-1.06-.56-2.12-.84-3.18-.38-1.51-.72-3-1.16-4.53-.51-1.75-1.13-3.46-1.69-5.2-.64-2-1.26-4.06-1.91-6.08-.34-1.07-.71-2.14-1.1-3.3-1,.36-2,.66-3,1a57.4,57.4,0,0,1-7.93,2.27c-1.71.39-3.38,1-5.08,1.42-1.51.39-3,.68-4.56,1-.9.21-1.8.47-2.7.68-.52.12-1.05.19-1.57.27l-1.11.15c.28.94.52,1.75.78,2.56.9,2.81,1.82,5.62,2.71,8.43a60.5,60.5,0,0,1,1.78,5.8c.31,1.41,1.07,2.62,1.35,4a1,1,0,0,0,.9.81c.4,0,.79.14,1.18.18a33.75,33.75,0,0,1,8.26,1.79c1.22.42,2.36,1.06,3.55,1.59.6.27,1.21.51,1.81.79,2,1,4,1.91,6,2.89a15.47,15.47,0,0,1,3.49,2.29,6.37,6.37,0,0,1,1.54,2.07,1.38,1.38,0,0,1-.51,1.92l-.66.46,1.68,1.17a6.34,6.34,0,0,0,1.15-2.89,68.73,68.73,0,0,0,1.24-9.36c.15-2.54.06-5.11.06-7.66,0-1.13,0-2.26-.07-3.39a56.65,56.65,0,0,0-.67-7.23c-.31-2-.39-4.06-.57-6.1-.14-1.48-.32-3-.43-4.46-.15-2-.21-4-.38-6-.1-1.12-.35-2.22-.53-3.32s-.28-2-.45-3c-.07-.43-.2-.84-.3-1.26-.65-2.83-1.35-5.65-1.94-8.49a15.71,15.71,0,0,0-1.55-3.73c-.06-.12-.11-.24-.18-.4l.68-.76a10.56,10.56,0,0,1,.68.87,15.69,15.69,0,0,1,2,5.79c.2,1.07.51,2.12.74,3.19.35,1.71.71,3.42,1,5.14s.66,3.73.89,5.6c.2,1.61.27,3.23.39,4.84.08,1.1.14,2.19.23,3.28q.27,3.22.57,6.43c.07.79.22,1.58.31,2.36.18,1.75.39,3.5.52,5.25s.25,3.5.27,5.25c0,2.21-.06,4.42-.09,6.64,0,.39,0,.79,0,1.18-.15,1.51-.3,3-.5,4.53s-.44,3-.71,4.51a12,12,0,0,1-2.24,5.24,14.68,14.68,0,0,1-1.82,1.69,2.64,2.64,0,0,0-.7.8,1.66,1.66,0,0,1-1.65,1.05c-.49,0-1,0-1.45,0a6.36,6.36,0,0,1-.26,1.34c-.39,1-1.33,1.08-2.18,1.09-1.54,0-3.09-.11-4.64-.17a.46.46,0,0,0-.2,0c-.83.46-1.66-.07-2.49-.07a26.36,26.36,0,0,1-4.12-.58l-1.18-.19a48.27,48.27,0,0,0-12.76-.6c-1.33,0-2.66,0-4,.09s-2.5.21-3.83.32c0,.31-.09.6-.14.88a3.08,3.08,0,0,1-2,2.54,2.11,2.11,0,0,1-.66.1c-1.5,0-3-.11-4.49-.07-.77,0-4.08-.39-5-.49-1.41-.16-2.83-.23-4.24-.38-1-.12-2.08-.31-3.12-.46a49.71,49.71,0,0,0-5.4-.75c-1.12,0-2.12-.44-3.21-.51-1.57-.1-3.11-.4-4.67-.6l-4.07-.54c-1.14-.12-2.28-.21-3.41-.37a13.6,13.6,0,0,1-2-.44c-.65-.2-4.71-.65-4.88-.69a13.47,13.47,0,0,0-3.29-.61c-.57,0-1.13-.39-1.72-.51-1-.22-2.08-.36-3.13-.52-.13,0-.27,0-.39,0-2.16-.51-4.33-.94-6.45-1.55a16,16,0,0,1-8.35-5.49,9.14,9.14,0,0,1-1.54-3.62,39.42,39.42,0,0,1-.95-5.7,28.49,28.49,0,0,1,.11-6.26c.37-2.83.7-5.66,1.17-8.46s1.07-5.53,1.64-8.29a16,16,0,0,0,.61-2.28,10,10,0,0,1,.25-1.56c.49-2.17,1-4.33,1.52-6.48s1.07-4.16,1.67-6.22c.42-1.43,1-2.82,1.42-4.23.28-.85.46-1.74.76-2.58.71-2,1.4-4,2.22-6,.62-1.5,1.46-2.91,2.14-4.39a28.48,28.48,0,0,1,3.51-5.79,10.25,10.25,0,0,1,5.43-3.67c1.72-.48,3.47-.88,5.21-1.31a1.36,1.36,0,0,1,1.4.26.47.47,0,0,1-.08.82,2.14,2.14,0,0,1-.65.25c-1.43.3-2.88.52-4.28.91a10.07,10.07,0,0,0-5.27,2.79,21.86,21.86,0,0,0-2.32,3.11,57.05,57.05,0,0,0-3.11,5.89c-1.08,2.45-2,5-2.9,7.52q-1.06,2.89-2.05,5.82c-.36,1.1-.62,2.24-1,3.35-.7,2.17-1.17,4.39-1.74,6.59-.4,1.57-.66,3.17-1,4.76s-.68,3-1,4.47c-.48,2.42-.92,4.86-1.37,7.29-.23,1.23-.48,2.47-.66,3.71-.15,1-.25,2.09-.31,3.13-.09,1.66-.18,3.32-.18,5a22.88,22.88,0,0,0,.52,4.93c.25,1.13.43,2.27.78,3.39a6.5,6.5,0,0,0,1.23,2.25,14.9,14.9,0,0,0,5.11,3.88,18.11,18.11,0,0,0,5.5,1.61c.79.12,1.55.36,2.34.5L164,219c3.77.64,7.54,1.28,11.31,1.88,2.1.34,4.22.57,6.32.88,2.46.35,4.93.73,7.38,1.13a70.85,70.85,0,0,0,8.6.92,27.42,27.42,0,0,1,2.84.43c.29,0,.58,0,.94,0a6.59,6.59,0,0,0,0-1.55,14.18,14.18,0,0,1,.11-5.84c.27-1.77.47-3.55.86-5.3.67-3,1.39-6,2.29-9,.37-1.23.63-2.5,1-3.79a3.43,3.43,0,0,0-.59-.2c-2.1-.32-4.2-.63-6.29-1-2.3-.37-4.59-.77-6.88-1.15-1.56-.25-3.12-.5-4.68-.73-2.22-.33-4.44-.63-6.66-1-1.31-.2-2.6-.49-3.91-.7-1.08-.17-2.18-.22-3.26-.42-1.63-.29-3.24-.69-4.87-1a.92.92,0,0,1-.85-1,8,8,0,0,1,.13-1.39c.83-3.79,1.66-7.59,2.53-11.38.42-1.81.87-3.6,1.22-5.42.43-2.24,1.08-4.43,1.64-6.64a2.61,2.61,0,0,1,.35-.82.81.81,0,0,1,.55-.29c.07,0,.26.3.25.46a12.39,12.39,0,0,1-.21,1.47c-.09.49-.73,3.17-.84,3.73-.56,2.72-1.21,5.43-1.82,8.14-.34,1.53-.65,3.06-1,4.58s-.72,3.21-1.09,4.81c-.17.74-.36,1.48-.5,2.22,0,.16.1.48.2.49a14.41,14.41,0,0,0,2,.26c.14,0,.66.23,1.14.29,1.88.25,3.75.56,5.6,1,1.66.35,3.34.44,5,.72,2.16.36,4.34.55,6.48,1,1.74.39,3.54.51,5.31.76,1.18.17,2.36.36,3.54.55l6.28,1,4,.67c1.63.26,3.26.5,4.88.77,1,.16,2,.35,3,.53,1.47.26,2.94.53,4.42.76a3.82,3.82,0,0,0,2,0A6,6,0,0,1,222,198.3ZM202,143c.66-.94.66-.94.62-1.55L202,143l-.41.44.15.09Zm34.46-3.92-.3,0a3.22,3.22,0,0,1-.11-.62c0-1.5,0-3,0-4.48,0-.66,0-1.32,0-2,0-1.72.11-3.44.12-5.17a3.68,3.68,0,0,0-.26-1.35c-.27-.73-.89-.79-1.35-.14a2.43,2.43,0,0,0-.41.8,40.54,40.54,0,0,0-.87,4.08,42.26,42.26,0,0,1-1.47,8.1,10.35,10.35,0,0,1-2.26,3.93c-1,1.06-2.16,2-3.23,3-1.48,1.37-3,2.74-4.41,4.17a6.23,6.23,0,0,0-2,2.82c-.07.29-.24.55-.32.84a27.31,27.31,0,0,0-1,3.92,39.34,39.34,0,0,0-.15,4.86,81.39,81.39,0,0,0,.66,8.83c.1.85.27,1.68.41,2.56,1-.21,2-.33,2.92-.58,3.07-.86,6.12-1.78,9.19-2.65,1.24-.35,2.51-.63,3.77-.94a4.15,4.15,0,0,0,.94-.31,11.54,11.54,0,0,1,3.61-1.11c.56-.12,1.12-.28,1.73-.43-.46-1.3-.88-2.45-1.27-3.61-.53-1.54-1-3.09-1.56-4.63-.31-.95-.67-1.89-.9-2.85a2.17,2.17,0,0,1,.29-2.25c1.31-1.35,2.66-2.68,3.89-4.11a19.57,19.57,0,0,0,2.72-3.3c.49-.94,1-1.86,1.55-2.77a12.74,12.74,0,0,0,1.6-5.1,26.55,26.55,0,0,0-.47-6.42c-.31-2.61-.89-5.18-1-7.82a21.17,21.17,0,0,0-.37-2.85c-.16-.88-.71-1-1.42-.49a2.37,2.37,0,0,0-.88,2.11c0,1.39.08,2.79.19,4.17.19,2.38.43,4.76.63,7.14,0,.37.09.8-.42,1.08-.12-.17-.28-.31-.31-.47-.17-1.11-.37-2.22-.46-3.34-.19-2.35-.31-4.71-.47-7.06-.06-.83-.13-1.66-.24-2.48a1.58,1.58,0,0,0-.62-1.21,1.37,1.37,0,0,0-1.07.83,18.83,18.83,0,0,0-.81,3.27,23.88,23.88,0,0,0,.13,3.48c.07,1.28.15,2.56.21,3.84s.12,2.32.15,3.48a6,6,0,0,1-.1,1.28c0,.18-.25.33-.39.48-.13-.16-.35-.31-.37-.49-.11-1.11-.22-2.24-.25-3.36s.05-2.18,0-3.27c0-1.68-.14-3.37-.25-5a9.9,9.9,0,0,0-.32-2c-.2-.67-.59-.73-1.1-.26a3.29,3.29,0,0,0-1.06,2.59c0,1.16.05,2.32,0,3.48,0,2.89-.11,5.77-.2,8.66A5.26,5.26,0,0,1,236.45,139.06Zm-2.88,69.51a1.22,1.22,0,0,1,1.38-.31c1,.36,2,.64,3,1,3.1,1.19,6.18,2.43,9.28,3.62a6,6,0,0,0,1.65.3.67.67,0,0,0,.82-.72,6.92,6.92,0,0,0-2.34-2.32q-2.28-1.3-4.62-2.54-2.14-1.12-4.34-2.16a44.78,44.78,0,0,0-4.37-1.95c-1.62-.58-3.31-1-5-1.42a6.91,6.91,0,0,0-2.64-.29,3,3,0,0,1-1.18-.17,8.55,8.55,0,0,0-3.82-.44,3,3,0,0,1-.79,0c-.52-.1-1-.25-1.54-.34a28.23,28.23,0,0,1-3.33-.57,31.76,31.76,0,0,0-4.21-.66,4.65,4.65,0,0,0-.72,0l-.79,3.42c-.41,1.84-.87,3.67-1.23,5.52-.58,3-1.1,6.08-1.62,9.12a9.16,9.16,0,0,0-.06,3.43l12.19-.63a39.92,39.92,0,0,1,7.73.18c1.18.17,2.33.48,3.51.66,1.79.28,3.6.5,5.4.75.23,0,.45.12.67.13,1.22.07,2.44.11,3.66.17,1,0,2,.12,3,.11.82,0,1.24-.28,1.29-.69s-.29-.83-1.09-1.12l-.28-.09c-.94-.22-1.88-.44-2.81-.68l-6-1.61c-1-.25-1.94-.43-2.91-.68-.18-.05-.3-.29-.45-.44.15-.14.29-.4.45-.42a4.49,4.49,0,0,1,1.37,0c2.16.52,4.3,1.11,6.47,1.62s4.39,1,6.59,1.48a2,2,0,0,0,1.7-.24,7.62,7.62,0,0,0-.41-.66,5,5,0,0,0-2.29-1.55c-2.39-.89-4.88-1.51-7.22-2.56-1.44-.65-3-1-4.51-1.53a4.13,4.13,0,0,1-.74-.43c.31-.41.55-.55.94-.42,1.41.5,2.82,1,4.23,1.44s2.69,1,4,1.41c2,.64,3.92,1.26,5.9,1.85a6.15,6.15,0,0,0,1.84.33c.75,0,1-.61.65-1.27a2.63,2.63,0,0,0-.72-.8,9.61,9.61,0,0,0-3.83-2,4.53,4.53,0,0,1-.85-.3l-5.31-2c-1.42-.55-2.85-1.09-4.27-1.65A3,3,0,0,1,233.57,208.57ZM178,126.49a4.05,4.05,0,0,0-.43-.31,22,22,0,0,1-4.1-2.79c-.85-.71-.85-.69-1.74,0a5.5,5.5,0,0,1-.5.34,8.91,8.91,0,0,0-3.19,4.33,5.64,5.64,0,0,0,.16,3.71,8.88,8.88,0,0,0,3.08,4.3,12,12,0,0,0,5.61,2.72,6.67,6.67,0,0,1,1.41.47,1.2,1.2,0,0,0,1.26-.26c.6-.81,1.17-1.65,1.77-2.49a14,14,0,0,1-4.81-3.8c-.88-1.19-1.22-2.76-.48-3.78.3-.43.58-.87.9-1.28S177.6,126.9,178,126.49ZM191.72,118a1.64,1.64,0,0,0,0-.42,8.87,8.87,0,0,1,.44-5.07,1.16,1.16,0,0,0,0-.76c-.19-.46-.48-.87-.7-1.31a1.61,1.61,0,0,0-.92-.85c-1.5-.53-3-1.21-4.48-1.64s-3.12-.61-4.67-.94a1,1,0,0,0-1.14.55,10.05,10.05,0,0,0-1,3.09,3.38,3.38,0,0,0,.28,2.59c.16.29.4.53.56.81a17.35,17.35,0,0,0,3.19,3.9,1.14,1.14,0,0,0,.81.23A47.46,47.46,0,0,1,191.72,118Zm-12.38.91c-.42-1.95-.8-3.76-1.18-5.56a6.1,6.1,0,0,0-.27-1.06c-.7-1.61-1.43-3.2-2.19-4.89a4.62,4.62,0,0,0-1,.2,25.57,25.57,0,0,0-2.71,1.24,5,5,0,0,0-2.84,5.13,12.06,12.06,0,0,0,3.35,6.94c.4.44.64.43,1.23.08a16.06,16.06,0,0,1,4.29-1.64A12.29,12.29,0,0,0,179.34,118.88Zm20.29-16c.59-.8,1.13-1.5,1.64-2.22a1.9,1.9,0,0,0,.3-.72c.22-1.41.4-2.82.61-4.23a1.21,1.21,0,0,0-.28-1.11c-.31-.34-.6-.71-.91-1a11.58,11.58,0,0,0-4.42-3,4.11,4.11,0,0,0-4.58.84,7.5,7.5,0,0,0-1.8,3.16c-.14.43-.2.88-.31,1.38.74.33,1.43.57,2.06.93,1.11.64,2.18,1.35,3.27,2a18.2,18.2,0,0,1,3.47,3.09A12.11,12.11,0,0,0,199.63,102.89Zm-11.1-1.09c0-1.18,0-2.33,0-3.48,0-.33,0-.66.05-1,0-.48-.21-.72-.68-.81A18.67,18.67,0,0,0,182.8,96a7,7,0,0,0-4.45,1.67,4.79,4.79,0,0,0-1.47,2.07,11.3,11.3,0,0,0-.29,5.39c.15.8.17.82.93.76a13.38,13.38,0,0,1,1.89-.1,1.77,1.77,0,0,0,1.49-.66,8.09,8.09,0,0,1,4.45-2.54Zm29.86-5.45c6.74-.61,11.25,2.65,14.57,8.32a19.43,19.43,0,0,0,.13-2.39,15.21,15.21,0,0,0-.42-3.23,8.9,8.9,0,0,0-2.25-3.82,11.47,11.47,0,0,0-2.63-2.09,19.65,19.65,0,0,0-3.69-1.45,14.47,14.47,0,0,0-4.73-.43,19.3,19.3,0,0,0-2.27.29,2.2,2.2,0,0,0-1.39.5ZM199,137a1.4,1.4,0,0,0-.39.08,13.38,13.38,0,0,1-4.57,1.89c-.42.06-.6.37-.76.71a20.93,20.93,0,0,0-2.17,7.89,8,8,0,0,0,.09,1.69c.12.74.31.86,1,.64a15,15,0,0,0,6.93-4.44,1.81,1.81,0,0,0,.46-1.55c-.21-1.64-.36-3.29-.51-4.93C199,138.31,199,137.65,199,137Zm18.69-39.3a18.08,18.08,0,0,0-3.57,1.07,23.92,23.92,0,0,0-5.49,3.72,1.35,1.35,0,0,0-.45,1.57c.34,1.35.67,2.7,1,4a5.91,5.91,0,0,0,.52,1c.66-.8,1.16-1.5,1.75-2.11a15.58,15.58,0,0,1,5.53-3.5c.52-.21,1.07-.35,1.6-.53a.57.57,0,0,0,.43-.69A18.52,18.52,0,0,0,217.64,97.67Zm4.41,38.46c-.05.41-.08.63-.1.86-.13,1.56-.43,3-2,3.89a.81.81,0,0,0-.31.56c0,.59,0,1.18-.06,1.78a1.27,1.27,0,0,0,.57,1.19c.48.36.91.78,1.37,1.16a1.86,1.86,0,0,0,2.7.05c1.22-1,2.36-2.13,3.55-3.19a1.35,1.35,0,0,0,.42-1.17,12.2,12.2,0,0,0-1.17-4,.6.6,0,0,0-.32-.34c-.54-.13-1.09-.21-1.65-.3l-2.06-.29C222.73,136.29,222.45,136.21,222.05,136.13Zm-33-5.25-.06-.26c-.25-.08-.5-.17-.75-.23a33,33,0,0,1-8.79-3.11.78.78,0,0,0-1.07.16c-.37.38-.75.75-1.11,1.14a2.79,2.79,0,0,0-.2,3.58,12.81,12.81,0,0,0,4.36,3.54.6.6,0,0,0,.8-.16,16.61,16.61,0,0,1,1.24-1.13,15.39,15.39,0,0,1,3.11-2.12C187.47,131.89,188.27,131.36,189.09,130.88Zm15.74,25.43c.6.57,1,1.05,1.55,1.47a4.59,4.59,0,0,0,5.47.59,6.85,6.85,0,0,0,3-3.07A13,13,0,0,0,216,151a6.58,6.58,0,0,0,0-.71,7.17,7.17,0,0,1-5.55,0A10.84,10.84,0,0,1,204.83,156.31Zm-1.23-13.37c-.13.29-.2.48-.3.65-.22.4-.44.8-.7,1.19-.38.58-.79,1.14-1.17,1.72a1.85,1.85,0,0,0-.17,1.62c.2.7.37,1.4.63,2.07.59,1.5,1.21,3,1.88,4.47.29.66.65.76,1.29.39a8.53,8.53,0,0,0,1.51-1.09,9.54,9.54,0,0,0,2.44-3.32c.44-1,.39-1.2-.57-1.72a2.75,2.75,0,0,1-.65-.44A29.13,29.13,0,0,1,203.6,142.94Zm27.51-34.67c1.23,0,1.36-.12,1.19-1.28a4,4,0,0,0-.18-.78,12.52,12.52,0,0,0-10.85-8.72,13.61,13.61,0,0,0-2.4,0c.45,1.67.85,3.19,1.27,4.76.26,0,.48-.1.71-.12a22.59,22.59,0,0,1,2.46-.17c.44,0,.88.38,1.31.38a4,4,0,0,1,2.53,1.21,20.65,20.65,0,0,1,2.71,2.89A17.77,17.77,0,0,1,231.11,108.27ZM182.8,140.64c-.49,2.34-.58,4-.11,5.23a6.27,6.27,0,0,0,6.21,4.54,9.76,9.76,0,0,0,1.33-.12c-1.5-3.29-2.67-6.5-2.53-10.08Zm28.38-30.38,3.12,3.68,1.34-.51c.62-.23,1.22-.5,1.86-.69,1-.3,1.14-.39,1.28-1.44.18-1.41.38-2.82.53-4.23a5.68,5.68,0,0,0-.29-3,6.65,6.65,0,0,0-1.13.23,11.05,11.05,0,0,0-1.31.71,24.81,24.81,0,0,0-4.23,3.76A17.11,17.11,0,0,0,211.18,110.26Zm8.38,1.95c1.6-.25,2.88-1.17,4.34-1.66s2.86-1.14,4.3-1.73a9.82,9.82,0,0,0,0-1.44,2.62,2.62,0,0,0-1.29-2.12,9.66,9.66,0,0,0-4.7-1.44c-.59,0-1.17,0-1.89.06A26.72,26.72,0,0,1,219.56,112.21Zm-12-10.37a19.61,19.61,0,0,1,9.57-5.35,10.14,10.14,0,0,0-2.1-3.38c-.58-.71-.75-.75-1.52-.32q-2.41,1.35-4.79,2.81A11.15,11.15,0,0,0,205.76,98Zm-8.72,2.5c-1.21-.88-7.34-1.87-8.81-1.42a1.06,1.06,0,0,0,0,.19,15,15,0,0,0,1,3.72c.36,1.19.72,2.38,2.17,2.71.14,0,.24.26.38.3s.58.17.73.06a8.06,8.06,0,0,1,2.66-1.06.92.92,0,0,0,.57-.46C198,107,198.38,105.69,198.81,104.34Zm10.85,44.17a7.63,7.63,0,0,0,.46-3.33,12.08,12.08,0,0,1-.11-2,2.84,2.84,0,0,0-.52-1.87,14.85,14.85,0,0,1-2.25-4.16c-.18-.48-.43-.93-.74-1.62a7.58,7.58,0,0,1-.17,1.1,27.28,27.28,0,0,1-1.77,4.63,1.19,1.19,0,0,0,0,1.37,29.47,29.47,0,0,0,4.32,5.43A3.75,3.75,0,0,0,209.66,148.51Zm18.06-35.58c-.7,0-1.19-.11-1.67-.1-1,0-2.06.06-3.08.17s-2.1.27-3.13.47a1.71,1.71,0,0,0-1.45,1.44,5.93,5.93,0,0,1-.56,1.27c-.2.4-.41.79-.68,1.3h.91c.66,0,1.32-.07,2,0,1.12.07,2.24.19,3.36.31a2,2,0,0,0,1.21-.29C226.45,116.55,226.86,114.72,227.72,112.93Zm-27.47,35.16c-2,2-3.81,3.93-6.46,4.89l.65.55a9.36,9.36,0,0,0,8.19,2.37,2.27,2.27,0,0,0,.63-.35A27.28,27.28,0,0,1,200.25,148.09Zm22.89-18.84c.4.53.66.9.94,1.25s.75.85,1.07,1.31c.7,1,1.36,2.1,2,3.16.19.3.38.6.76.53,1.08-.18,2.14-.39,3.21-.61a.78.78,0,0,0,.65-.87,8.84,8.84,0,0,0-.9-4,.78.78,0,0,0-.88-.44,24.7,24.7,0,0,1-3,.05C225.83,129.53,224.61,129.38,223.14,129.25ZM205.07,96.67a33.71,33.71,0,0,1,8-5.28,5.41,5.41,0,0,0-8.64,1.19c-1.24,2.16-1.23,1.83.15,3.51C204.69,96.25,204.82,96.39,205.07,96.67Zm31.23,27.61c.3-.52.52-1,.83-1.43.74-1,1.18-1.17,2.32-.72.05,0,.13,0,.28-.06a8.75,8.75,0,0,0-2-5.06l-6.11,3.62c.87,1,1.68,1.94,2.53,2.85a1,1,0,0,0,.76.33A1.51,1.51,0,0,1,236.3,124.28ZM185,124.2a25.84,25.84,0,0,0,6.54,4c1.53.66,1.54.65,2.93-.2.2-.12.41-.22.6-.36a1,1,0,0,0,.4-.41c.2-.55.35-1.12.55-1.78-.41-.08-.75-.16-1.1-.22a14.6,14.6,0,0,1-5-1.36,2.56,2.56,0,0,0-1.92-.34C187.09,123.75,186.12,124,185,124.2Zm-2-.51c-.85-1.14-1.71-2.24-2.5-3.37a.74.74,0,0,0-.94-.31c-1.35.44-2.71.86-4.05,1.33-.57.21-1.11.52-1.65.78.07.18.07.27.11.3,1.52,1,3,2.09,4.57,3.15a.72.72,0,0,0,.83.05c1.14-.59,2.3-1.15,3.45-1.72A.85.85,0,0,0,183,123.69Zm33.24,21.74c-.14-1.11-.25-2-.36-2.93a5.23,5.23,0,0,0-2.39-3.72c-1.1-.8-2.1-1.72-3.14-2.58-.18-.15-.38-.27-.61-.44a1.43,1.43,0,0,0,0,.32q.58,2.46,1.19,4.92a1.74,1.74,0,0,0,.59,1c.75.63,1.42,1.37,2.17,2A7.21,7.21,0,0,0,216.2,145.43Zm17.36-20.93a8.21,8.21,0,0,0-3.23-3.06,1,1,0,0,0-.73,0,8.74,8.74,0,0,0-3.28,2.36,12.13,12.13,0,0,1,5.24,4.49c.9-.16,1.34-.5,1.4-1.39A13.41,13.41,0,0,1,233.56,124.5Zm.47-15.29-.27,3.44,4.07,2.55a4.21,4.21,0,0,0,1.81-2.9,1.92,1.92,0,0,0-1.14-2.39A7.82,7.82,0,0,0,234,109.21ZM189,138a4.84,4.84,0,0,0,2.83,0,3.74,3.74,0,0,0,1.63-.89,28.5,28.5,0,0,0,1.82-3.07.62.62,0,0,0-.17-.88,4.77,4.77,0,0,0-3-1.09.84.84,0,0,0-.84.56,14.22,14.22,0,0,0-1.47,3.07C189.59,136.43,189.29,137.13,189,138Zm1.35-29.78c-.32-1-.61-1.89-.85-2.74s-.43-1.71-.64-2.59a7.63,7.63,0,0,0-3.79.78,5.94,5.94,0,0,0-3.45,2.2A34,34,0,0,1,190.34,108.24Zm39.85,20.26a11.83,11.83,0,0,0-1.47-1.59c-.92-.69-1.94-1.25-2.9-1.87a1.58,1.58,0,0,0-1.77,0c-1,.51-2,.92-3,1.38a5.2,5.2,0,0,0-.47.3,3.28,3.28,0,0,0,2,1.44,44.54,44.54,0,0,0,6.42.59A5,5,0,0,0,230.19,128.5Zm-50-2c.9.39,1.71.79,2.56,1.09,1.43.51,2.86,1,4.33,1.39a36.45,36.45,0,0,0,3.62.61.8.8,0,0,0,.9-.29,4.08,4.08,0,0,0-.34-.25c-1.17-.61-2.38-1.15-3.5-1.83s-2.18-1.48-3.25-2.25a.91.91,0,0,0-.91-.23A7.76,7.76,0,0,0,180.2,126.51Zm31.13,16.94c-.11.12-.15.14-.15.17a18.85,18.85,0,0,1-.42,5.19.55.55,0,0,0,.5.72,14.37,14.37,0,0,0,2.36.2,3.13,3.13,0,0,0,2.14-.93,1.46,1.46,0,0,0-.35-2.46A14.24,14.24,0,0,1,211.33,143.45Zm-26.56,6.79c-3.22-2.56-3.6-5.86-3-9.43a5.17,5.17,0,0,0-.53-.21c-1.06-.24-1.39-.12-1.74.91a10.17,10.17,0,0,0-.47,2.32,4.77,4.77,0,0,0,1.54,4.21A9.51,9.51,0,0,0,184.77,150.24ZM226,135.59l.23-.24a4.67,4.67,0,0,0-.37-.82c-.22-.33-.57-.58-.75-.92a27.27,27.27,0,0,0-3.16-4.08,4.48,4.48,0,0,0-3.41-1.44,10.2,10.2,0,0,1,.72.88,14.34,14.34,0,0,1,2.3,4.81c.09.41.21.89.69,1C223.45,135.08,224.71,135.32,226,135.59Zm-36.44-33.83a36,36,0,0,1,7.72.66,18.34,18.34,0,0,0-7.54-5.18C189.23,98.75,189.71,100.14,189.52,101.76ZM193.35,122c-.46-1-.89-2-1.31-2.92-2.72-.4-6.36-.29-7.18.25a15.87,15.87,0,0,0,3.36,2.59,2.14,2.14,0,0,0,1.41.34c1.12-.1,2.25-.09,3.37-.14A1.43,1.43,0,0,0,193.35,122Zm14.24-7.85a11.74,11.74,0,0,0,.87-3.75,2.19,2.19,0,0,0-1.11-2c-.52-.34-1.06-.66-1.58-1-.78-.53-.78-.54-1.33.26a5.28,5.28,0,0,0-.49.86,1.2,1.2,0,0,0-.12.77,8.09,8.09,0,0,0,1,2C205.63,112.29,206.57,113.14,207.59,114.19Zm13.3,20c-.27-.69-.45-1.21-.68-1.7a17.79,17.79,0,0,0-1.2-2.39,13.41,13.41,0,0,0-1.93-2.26,1.17,1.17,0,0,0-1.9.34c-.66,1-.66,1,.11,1.95l.26.31a29.5,29.5,0,0,0,2.21,2.39A5.38,5.38,0,0,0,220.89,134.2Zm-16-35.39a18.77,18.77,0,0,0-1.4,1.34,3.73,3.73,0,0,0-.9,1.4,10.17,10.17,0,0,0-.12,2.28.78.78,0,0,0,.28.59c.58.35,1.21.64,1.73.91.62-.72,1.15-1.35,1.68-2a1,1,0,0,0,.24-1.11C205.89,101.15,205.4,100.07,204.84,98.81Zm13.27,41.36.23-.16c-.27-1.19-.51-2.39-.81-3.57a8,8,0,0,0-1.55-3.2,20.74,20.74,0,0,1-2.34-2.93c-.06-.11-.28-.13-.58-.25.13.45.19.73.3,1,.46,1.13,1,2.23,1.39,3.37a29.13,29.13,0,0,1,1.22,4.06,1.54,1.54,0,0,0,1,1.3C217.36,139.93,217.74,140.05,218.11,140.17Zm15.21-26.07a23.86,23.86,0,0,1-3,5.83,22.78,22.78,0,0,0,6.55-3.72A11.82,11.82,0,0,0,233.32,114.1Zm-43.41,18.36a3.34,3.34,0,0,0-2.37.82,15.24,15.24,0,0,0-1.37,1.29,8.48,8.48,0,0,0-1.59,2.37,8.71,8.71,0,0,0,3.24.87C188.53,136,189.21,134.24,189.91,132.46Zm10-9.4c-.63-1-1.12-1.7-1.6-2.45a1.92,1.92,0,0,0-1.35-.74c-.74-.17-1.49-.33-2.24-.44-.49-.08-1-.08-1.7-.13.49,1,.85,1.73,1.29,2.47a1.18,1.18,0,0,0,.7.45c1.31.33,2.64.63,4,.91A3.87,3.87,0,0,0,200,123.06Zm1.23-7.26c.17-1.79.32-3.49.48-5.2a3.7,3.7,0,0,0-3-.65c-.13.68-.3,1.39-.37,2.1a1.38,1.38,0,0,0,.58,1.36A14.08,14.08,0,0,1,200.4,115C200.66,115.22,200.91,115.51,201.18,115.8ZM188.82,140a15.81,15.81,0,0,0,1.31,6.88c.08-2.7,1.26-5.1,2.18-7.73Zm4.26-26.62c-.08.1-.21.19-.24.29a9.31,9.31,0,0,0-.12,3.86c.07.38.31.53.69.6,1.2.23,2.4.51,3.6.76a2.43,2.43,0,0,0,.52,0,2.11,2.11,0,0,0-.79-1.27c-.65-.65-1.31-1.3-1.91-2S193.68,114.17,193.08,113.41Zm33.26,4.93,2.21.82c.34.12.56-.07.77-.31a17.05,17.05,0,0,0,2.56-4.43c.13-.3.26-.65-.15-.87s-.68,0-.92.29a16,16,0,0,1-2.61,2.85Zm-13-4a13,13,0,0,0-2.69-3.07,1.78,1.78,0,0,0-.86,1.8,10.94,10.94,0,0,1-.33,3.56,1.8,1.8,0,0,0,.07.61Zm-32.17,5.4c.41.54.81,1.09,1.23,1.62s1,1.22,1.5,1.8a.71.71,0,0,0,.55.16c.94-.18,1.88-.41,2.84-.62-.9-.81-1.72-1.55-2.55-2.27-.29-.26-.62-.47-.92-.71A2.49,2.49,0,0,0,181.16,119.79Zm33.68,18.57a22.69,22.69,0,0,0-2.81-7.57l-1.93.64A36.55,36.55,0,0,0,214.84,138.36ZM228,120.22a7.81,7.81,0,0,0-2.54-.83.87.87,0,0,0-.63.12c-1,.89-1.89,1.82-2.88,2.79,1.94.64,2.19.54,4.69-.68A2.12,2.12,0,0,0,228,120.22Zm-32.56,17.2.08.14c.58-.27,1.17-.54,1.75-.83,1.05-.54,1.93-1.19,1.71-2.58a1.45,1.45,0,0,1,0-.29c.09-.83.2-1.65.25-2.47a.66.66,0,0,0-.33-.5c-.11-.06-.38.05-.5.16a2.76,2.76,0,0,0-.62.75c-.46.89-1.18,1.64-1,2.82a3.6,3.6,0,0,1-.58,1.84A4.86,4.86,0,0,1,195.45,137.42Zm5.16,5.75a5.13,5.13,0,0,0,1.17-2,2.94,2.94,0,0,0,.23-1.23c-.41-1.59-.91-3.15-1.38-4.75a1.32,1.32,0,0,0-.63,1.2A28.39,28.39,0,0,0,200.61,143.17Zm19-3.33a1.52,1.52,0,0,0,1.15-1.22,18.6,18.6,0,0,0,.27-2.26.79.79,0,0,0-.62-.89c-.67-.24-1.35-.45-2.07-.68C218.77,136.5,219.18,138.12,219.61,139.84Zm-22.68-23.55c0-.94,0-1.83,0-2.7a1.37,1.37,0,0,0-.57-.75c-.53-.4-1.11-.73-1.66-1.1-.26-.17-.52-.35-.8-.1s-.25.55-.07.89a16.54,16.54,0,0,0,2.79,3.6A1.43,1.43,0,0,0,196.93,116.29Zm20,4.52c1.81-.64,3.61-1,5.09-2.15a21.79,21.79,0,0,0-5.53,0C216.63,119.44,216.75,120.05,216.91,120.81Zm-15.42-2.13a9.5,9.5,0,0,0-3.37-4.26c.1,1,.13,1.73.28,2.46C198.66,118.19,199.88,118.93,201.49,118.68Zm27.8,21.82.26,0a14,14,0,0,0,1.66-4.17l-3,.44C228.59,138.12,228.94,139.31,229.29,140.5Zm-37,10.56c.44.94.61,1.05,1.42.87a3.48,3.48,0,0,0,.83-.32A12.06,12.06,0,0,0,197.9,149c.32-.34.65-.67,1-1l-.15-.18A23.41,23.41,0,0,1,192.3,151.06Zm9.52-41.72a4.41,4.41,0,0,0-2-3.68c-.33,1-.65,2-1,3Zm.66,28.75c.15-.3.25-.41.26-.53.1-1.33.21-2.65.25-4a10.8,10.8,0,0,0-.21-1.78c0-.3-.19-.54-.51-.46s-.32.27-.42.45a1,1,0,0,0-.09.48A17.71,17.71,0,0,0,202.48,138.09Zm-4.82-12.37a2.68,2.68,0,0,0,1.86,1.35,1.17,1.17,0,0,0,.91-.19,8.89,8.89,0,0,0,1-1.17A3.06,3.06,0,0,0,197.66,125.72Zm14-4.45a2.9,2.9,0,0,0,2.62.31c.28-.08.57-.14.86-.2.76-.17.89-.34.73-1.1a4.2,4.2,0,0,0-.29-.76ZM208,131.67a12.27,12.27,0,0,0,3.31,4.45,2.85,2.85,0,0,0,.54.32,4.23,4.23,0,0,0-.57-1c-.68-1.1-1.36-2.19-2-3.31A.87.87,0,0,0,208,131.67Zm-11.8,1a5.58,5.58,0,0,0,1.12-2.06l-4.4.34A7.24,7.24,0,0,1,196.19,132.63Zm8-9c.16-.23.39-.41.41-.62.06-.44.19-1,0-1.32a13.71,13.71,0,0,0-1.73-1.78c-.12.53-.22.91-.28,1.3a.58.58,0,0,0,.08.45C203.14,122.29,203.63,122.91,204.21,123.63Zm1.7,3.62c1-.14,1-.14,1.22-1a9.2,9.2,0,0,1,.4-1l-.69-1.55C206.19,124.91,205.24,125.81,205.91,127.25ZM179.39,106.8l-2.2.3a4.13,4.13,0,0,0,1.08,2.74Zm8.08,32-3.59-1.06-.6,1.59A13.24,13.24,0,0,0,187.47,138.83Zm40.73-28.55c-1-.4-1.54.41-2.3.41a3.47,3.47,0,0,0-2.05,1l4.22-.26Zm-20.47-2.73a7.93,7.93,0,0,0-.77-3.43l-1.48,1.82Zm-5.08,6.1-.22,0a7.51,7.51,0,0,0,1,4.52c.79-.81.77-.8.41-1.64S203,114.63,202.65,113.65Zm3.13,4.06c1.37-1.68,1.36-2.44,0-3.9l-.39-.35a21.56,21.56,0,0,0,.18,2.18C205.72,116.3,205.15,117,205.78,117.71Zm-1.62,16.5-.27,0c0,.66,0,1.32,0,2s-.25,1.37-.3,2.06-.58,1.2-.12,2a4.76,4.76,0,0,0,.6-1.11A10.71,10.71,0,0,0,204.16,134.21Zm0-3.25c.5,1.44.92,2.63,1.34,3.81a8.75,8.75,0,0,0,.24-3.38ZM182,118.28l-2.41-2.92-.21.12c.32.86.62,1.73,1,2.58a.71.71,0,0,0,.89.46C181.47,118.47,181.69,118.39,182,118.28Zm26.66,104.16h-1.77A13.73,13.73,0,0,0,207,224c0,.22.26.54.43.56a.75.75,0,0,0,.62-.37A15.6,15.6,0,0,0,208.69,222.44Zm-26.52-83.1c.23-.58.46-1.09.63-1.62a.56.56,0,0,0-.1-.51.54.54,0,0,0-.51,0c-.51.65-1.3,1.13-1.41,2.14Zm31.3-13.62-2.06-1.24c-.54.5-.43,1.06-.46,1.69A6.38,6.38,0,0,0,213.47,125.72Zm16.64-16.1c-1,.2-1.2.72-.93,2.11h1.07A2.09,2.09,0,0,0,230.11,109.62ZM217.5,146.05c.94-1.52.9-2.7-.48-3A7.36,7.36,0,0,0,217.5,146.05Zm-1.77,27.37.12.33,2.54-.36-.12-1.14A5.48,5.48,0,0,0,215.73,173.42Zm-5.48-49.24-2-.52c.14,1.11.86,1.54,1.71,2.13C210.09,125.19,210.16,124.73,210.25,124.18Zm-.64,6.32,1.84-.5c-.45-1.15-.78-1.22-2.31-.56Zm-.66,8.06.24-.07c-.15-.55-.27-1.1-.44-1.65s-.39-1.19-.58-1.79c-.34-1.05-.33-1.05-.76-1.47C207.51,135.4,208.44,136.91,209,138.56Zm-12-26.81c0-.67.38-1.21,0-1.87l-1.8.56C195.65,111.14,195.65,111.14,197,111.75Zm9.34,7.62c-.12.58-.48,1-.28,1.64,1.63-.92,1.63-.92,2.06-1.88Zm-1.08,10.39c-.48-1-1.13-1.29-2.06-.8C203.45,130,204.09,130.29,205.25,129.76Zm12.07-15L215.4,116l.58,1.29A5.35,5.35,0,0,0,217.32,114.8Zm-22.83,9.41.16-.27c-.23-.26-.42-.68-.7-.75a6.06,6.06,0,0,0-2.36.06l0,.23Zm20.62-6.6-.61-1-2,1.45A5,5,0,0,0,215.11,117.61Zm8,6.52a18.45,18.45,0,0,0-4,1.19c.12.19.17.35.21.34A9.9,9.9,0,0,0,223.12,124.13ZM202.6,98.84l1.52-1.29L203,96.09Zm11.34,20.35a5.14,5.14,0,0,0-3,.83A3.26,3.26,0,0,0,213.94,119.19Zm-9.6-3.93a10.17,10.17,0,0,0-1-3.91A7,7,0,0,0,204.34,115.26Zm.55,3.12-.88,1,1,1C205.66,118.92,205.66,118.92,204.89,118.38Zm4.62,2.25c-.44.51-1,.84-1.15,1.55l1.2.09C210,121.74,210.18,121.27,209.51,120.63Zm4.48-4.71-.12-.19a5.94,5.94,0,0,0-3.14,2.64c.65-.53,1.14-1,1.67-1.37S213.46,116.28,214,115.92Zm5,30.34a4.38,4.38,0,0,0,2.13.23l-1.79-1.37Zm-16.35-40.6a2,2,0,0,0,.41,1.92l.78-1.25Zm25.17,9.24.24.18,1.56-1.82-.9-.33C228.39,113.62,228.1,114.26,227.81,114.9Zm-24.92,9.61a2.51,2.51,0,0,0-.43-1.55c-.35-.42-.53-.38-1,.36Zm-4.06,3.76a1.84,1.84,0,0,0-2.22-.1C197.39,128.86,198.12,128.34,198.83,128.27Zm20.43-4.92a2.24,2.24,0,0,0-2.06.59C218,124.53,218.23,124.45,219.26,123.35ZM217,140.76l-.06.12,1.44,1.19v-1Zm-19.29-16.92a4.83,4.83,0,0,0-2.18-.39C196.05,124.26,196.3,124.31,197.66,123.84Zm7,.66c-.77.84-.73,1.11,0,1.55Zm2.23-6.37c1,0,1-.13.54-1.46Zm12.8,5.93c.82.12,1.23-.38,1.75-.56A1.71,1.71,0,0,0,219.68,124.06Zm-11.17,6.65-.51-.93c-.4.17-.63.43-.4.76C207.7,130.69,208.07,130.64,208.51,130.71Zm-8.18-10.84c.62.59.62.59,1.26.58C201.42,119.69,200.7,120.15,200.33,119.87Zm.92-15.9c.3-.64.3-.64.08-1.15C201.41,103.19,200.68,103.4,201.25,104Zm-1,17.36-.15.16.82.75C201,121.45,200.55,121.46,200.21,121.33Zm-17.28,15c.82,0,.82,0,.94-.84ZM218,126.12c-.65-.35-.65-.35-1,0Zm11.46-18.32h-.2a2,2,0,0,0,0,.64c0,.08.3.09.61.17Zm-13.4,14.74c-.55-.27-.55-.27-1,.14Zm-12.31,4.17c-.23.71-.23.71.39.62Zm-7.24.27.7-.25C196.82,126.42,196.64,126.46,196.52,127ZM218,121.82l0-.14a1.34,1.34,0,0,0-.35,0,1.63,1.63,0,0,0-.34.19l.05.11Zm1.38-.81.05.17.51-.18-.05-.15Zm12.7-8.94.25.14.25-.57-.19-.09Zm-22.4,16.08.06.23.43-.22-.07-.14Zm-9.42,4.8h.08v-.6h-.08Z"/><path d="M131.58,141c-.6.1-1,.13-1.3.22a8,8,0,0,1-6.51-1.09,9.92,9.92,0,0,1-4.62-5.78,6.21,6.21,0,0,1,1.77-6.3,2.52,2.52,0,0,1,.56-.41,6.25,6.25,0,0,1,6.41.53,15,15,0,0,1,4.28,5.66,10,10,0,0,1,1.07,3.61,4.91,4.91,0,0,0,.25.93c1.68-.32,6.08-4.79,6.21-6.67-.6-.09-1.22-.15-1.82-.29a9.58,9.58,0,0,1-4.53-2.6,14.77,14.77,0,0,1-3.84-5.64,8.21,8.21,0,0,1-.18-5.57,4.44,4.44,0,0,1,.69-1.31,2.79,2.79,0,0,1,3.11-1,9.45,9.45,0,0,1,4.34,2.75,15.5,15.5,0,0,1,4,6.91,13.48,13.48,0,0,1,.38,4.34,2,2,0,0,0,0,.49c0,.06.05.12.1.2a1.45,1.45,0,0,0,.36,0,9.79,9.79,0,0,0,5.64-3.88,12,12,0,0,0,2-4.22,9.69,9.69,0,0,0-.66-5.93,20.8,20.8,0,0,0-3.46-5.09c-.44-.53-.91-1-1.38-1.56.25-.52.62-.42.93-.21a8.93,8.93,0,0,1,1.31,1.06,17.78,17.78,0,0,1,3.92,5.73,10.08,10.08,0,0,1,.22,7.41,14.58,14.58,0,0,1-2.14,4,11.33,11.33,0,0,1-6.35,4.06,1.41,1.41,0,0,0-1.15.94,11.18,11.18,0,0,1-2.4,3.76,14.54,14.54,0,0,1-4.7,3.8,2,2,0,0,0-1.17,1.46,14.24,14.24,0,0,1-3.06,5.43,11.57,11.57,0,0,1-6.85,4,13.91,13.91,0,0,1-8.69-.94,14.69,14.69,0,0,1-7.08-6.9c-.67-1.36-1.16-2.82-1.71-4.25a5.43,5.43,0,0,1-.2-1.08.87.87,0,0,1,.47-.91c.39-.27.68-.12.79.34a17.17,17.17,0,0,0,5.37,9.57,12.34,12.34,0,0,0,8.46,3,10.86,10.86,0,0,0,5-1.16,11.47,11.47,0,0,0,5.45-5.73C131,142.2,131.26,141.73,131.58,141Zm-11.41-8.18a8.19,8.19,0,0,0,.43,1.65,14.31,14.31,0,0,0,1.6,2.63,7.72,7.72,0,0,0,2.79,2.2,8.36,8.36,0,0,0,6.12.27c.73-.23.94-.41.84-1.12a17.31,17.31,0,0,0-.68-3.29,14.21,14.21,0,0,0-1.41-2.74,11.31,11.31,0,0,0-3.06-3.37,4,4,0,0,0-6.26,1.93A18.65,18.65,0,0,0,120.17,132.86Zm20-2.48a9,9,0,0,0,.1-4.31,12.92,12.92,0,0,0-3.41-6.66,9.1,9.1,0,0,0-3.92-2.82,1.75,1.75,0,0,0-2,.57,3.31,3.31,0,0,0-.76,2,9.81,9.81,0,0,0,1.17,5.19,13.36,13.36,0,0,0,3.92,4.44,8.84,8.84,0,0,0,3.75,1.52A6.59,6.59,0,0,0,140.22,130.38Z"/><path d="M260.46,87c.64.24,1.23.44,1.81.67a8.93,8.93,0,0,1,4.66,4,5.92,5.92,0,0,1-.2,6.09,3.12,3.12,0,0,1-1.93,1.34,4.64,4.64,0,0,1-5.46-2.45,11.18,11.18,0,0,1-1-6.41c.07-.66.19-1.31.29-2a3.74,3.74,0,0,0-.68-.14,9.39,9.39,0,0,0-4.84.92,7.08,7.08,0,0,0-3.53,6.51,20.66,20.66,0,0,0,.12,2.49c.25,2,.49,4,2.1,5.44a.88.88,0,0,1,.19.34.86.86,0,0,1,0,.34,1.77,1.77,0,0,1-1.66-.68,7.26,7.26,0,0,1-1.47-3.23,15.63,15.63,0,0,1-.42-6.23A7.92,7.92,0,0,1,253,87.66a9.35,9.35,0,0,1,4.94-.9c1,.09,1.19,0,1.58-.83a8.89,8.89,0,0,1,3.89-3.88,13.56,13.56,0,0,1,6-1.73,11,11,0,0,1,4.59.82c4.4,1.64,6.85,5,8,9.41a2.66,2.66,0,0,1,.07.39.62.62,0,0,1-.44.7.54.54,0,0,1-.73-.35,14.1,14.1,0,0,1-.68-1.66,11.11,11.11,0,0,0-10.26-8,9.25,9.25,0,0,0-3.13.54,10.63,10.63,0,0,0-3.48,1.45A8,8,0,0,0,260.46,87Zm-.35,1.33c-.14.2-.23.27-.25.35a13.19,13.19,0,0,0,.22,6.69,3.63,3.63,0,0,0,1.33,2.06,3.5,3.5,0,0,0,3.6.16,1.71,1.71,0,0,0,1-1.17,5.75,5.75,0,0,0-.29-4.08,7.84,7.84,0,0,0-3.27-3.11A16.73,16.73,0,0,0,260.11,88.34Z"/><path d="M149.08,100.38a4.58,4.58,0,0,1-.86-.73,19.2,19.2,0,0,0-3.3-3.32,7,7,0,0,0-3.39-1.59c-1.42-.2-2.84-.33-4.26-.48-.5-.05-1.08,0-1.19-.65s.43-.81.87-1.06a11.59,11.59,0,0,0,6.16-10.27,3.65,3.65,0,0,0-.28-1.15c-.13-.42-.18-.79.28-1s.71,0,1,.36a7.49,7.49,0,0,0,4.36,3,18.43,18.43,0,0,0,7.13.34,16.94,16.94,0,0,0,1.83-.47,14.62,14.62,0,0,1,1.46-.32.52.52,0,0,1,.64.48.88.88,0,0,1-.3.67c-.56.4-1.23.68-1.76,1.12-2.6,2.11-5,4.43-6.21,7.64a26.71,26.71,0,0,0-1,4.06c-.17.85-.21,1.72-.31,2.58A.87.87,0,0,1,149.08,100.38Zm-10-7.53c2,.47,3.78.64,5.42,1.5A18.36,18.36,0,0,1,148.74,98c.1-.7.13-1.19.24-1.68a21.29,21.29,0,0,1,.79-3.38,16.26,16.26,0,0,1,5-7c.32-.26.59-.57,1.06-1-4.14.59-7.86.23-11.32-1.94A13.36,13.36,0,0,1,139,92.85Z"/><path d="M138,211.86A8.93,8.93,0,0,1,137,212l-6.67.13c-1.06,0-2.11.11-3.17.15-.9,0-1.79.06-2.69.05-2,0-4.06,0-6.07-.18-.91-.07-1.77.13-2.65.11-1.78,0-3.56,0-5.34,0-2.49,0-5-.07-7.47-.05s-5.24.17-7.86.13c-2.4,0-4.77.22-7.15.4-1.08.08-2.18.11-3.26.19-.57,0-1.12.14-1.68.2a4.33,4.33,0,0,1-.8,0c-.33,0-.71-.08-.72-.53a.65.65,0,0,1,.62-.67c.89-.12,1.78-.19,2.68-.26,1.45-.12,2.9-.26,4.35-.34,2.06-.11,4.12-.17,6.17-.24,2.28-.09,4.56-.21,6.84-.22,2.62,0,5.24.11,7.87.17.76,0,1.52.06,2.28,0,2.13,0,4.25-.09,6.37-.1,1.39,0,2.79.09,4.18.09,2,0,4,0,6-.07s4.25-.05,6.38-.06c.66,0,1.31.06,2,.09C137.53,211.12,137.66,211.22,138,211.86Z"/><path d="M256.52,211.67a2.13,2.13,0,0,1,1.94-.77c2.31-.15,4.64-.19,7-.32,1.39-.09,2.77-.32,4.16-.41,2.38-.15,4.76-.28,7.15-.35,1.75,0,3.5,0,5.25,0,1.19,0,2.38-.15,3.57-.19,3.21-.08,6.43-.16,9.65-.21q3.84-.08,7.68-.09c1.26,0,2.51,0,3.77.06,1.56,0,3.12,0,4.68.07,2.29.07,4.58.19,6.86.27.26,0,.53,0,.5.32a.67.67,0,0,1-.41.46,4.62,4.62,0,0,1-1.38.17c-2.26-.05-4.51-.16-6.76-.19a41.12,41.12,0,0,0-5.55,0,18.89,18.89,0,0,1-2.38,0c-2,0-4,0-6,0-2.22,0-4.43,0-6.64.07s-4.7.11-7.05.18c-2.08.07-4.16.17-6.23.25-2.81.1-5.63.19-8.44.31-.69,0-1.38.2-2.07.23-1.29.06-2.59.06-3.88.1l-4.68.14A5.36,5.36,0,0,1,256.52,211.67Z"/><path d="M262.05,136.23a9.89,9.89,0,0,0-1.91-6,5.32,5.32,0,0,0-3.11-1.84,3.18,3.18,0,0,1-.83-.32c-.51-.34-.5-.77,0-1.11a5.61,5.61,0,0,1,1-.44,10.15,10.15,0,0,0,5.41-4.51,20.09,20.09,0,0,0,1.07-2.67c.15-.41.25-1,.75-1s.64.65.71,1.06a11.34,11.34,0,0,0,1.71,4.23,5,5,0,0,0,4.66,2.73c.23,0,.47,0,.7,0s.59.07.58.4a1.25,1.25,0,0,1-.3.76,1.8,1.8,0,0,1-.72.3,11.57,11.57,0,0,0-6.2,4.63,18.59,18.59,0,0,0-1.48,3c-.28.63-.48,1.31-.73,2a1.63,1.63,0,0,1-.3.51.54.54,0,0,1-1-.18,2.59,2.59,0,0,1-.09-.79A6.65,6.65,0,0,1,262.05,136.23Zm2.2-14.72a11,11,0,0,1-6.39,5.92c.34.14.51.22.69.28a4.94,4.94,0,0,1,3.07,2.53c.52,1,.93,2,1.38,3.09.1.22.19.44.39.88a13.2,13.2,0,0,1,6.24-6.76C266.83,126.25,265.36,124.08,264.25,121.51Z"/><path d="M120.66,91.27c-1.59-.3-3-.53-4.39-.83-3.28-.71-6.55-1.46-9.82-2.19l-4.38-1a1.83,1.83,0,0,1-.47-.14c-.43-.24-.45-.76,0-.93a2.42,2.42,0,0,1,1.25-.11c2,.39,4,.83,6,1.28l11,2.47a4,4,0,0,1,.94.31c.3.16.63.41.41.78C121.11,91.14,120.77,91.21,120.66,91.27Z"/><path d="M101.82,104.42a1.18,1.18,0,0,1-.5,0c-.22-.08-.56-.28-.56-.43a.91.91,0,0,1,.37-.7,3.49,3.49,0,0,1,1.16-.25c2.71-.26,5.43-.46,8.14-.76,3.1-.35,6.19-.77,9.29-1.16a3,3,0,0,1,.79,0c.16,0,.44.21.43.31s-.16.48-.31.52a15.61,15.61,0,0,1-2.5.66q-6,.82-12,1.55C104.74,104.27,103.37,104.31,101.82,104.42Z"/><path d="M102.88,118.64c-.11-.09-.42-.22-.51-.44s.12-.56.43-.66c1.08-.35,2.15-.71,3.23-1,2.65-.78,5.3-1.53,7.94-2.3,1.6-.46,3.2-.92,4.79-1.4.6-.19,1.18-.45,1.77-.66.28-.09.61-.25.8.11s-.12.55-.38.69a14,14,0,0,1-2.06,1q-4.69,1.51-9.41,2.93c-1.43.43-2.89.74-4.34,1.13-.57.16-1.13.38-1.69.56A3.42,3.42,0,0,1,102.88,118.64Z"/><path d="M272.36,113.6c-.45,0-.7-.34-.48-.67a2.46,2.46,0,0,1,.7-.7c1.78-1.16,3.58-2.29,5.37-3.45,1.14-.74,2.26-1.52,3.41-2.24s2.51-1.51,3.77-2.25a2,2,0,0,1,.74-.26.57.57,0,0,1,.48.22.58.58,0,0,1-.08.52,2.31,2.31,0,0,1-.56.41c-3,1.94-5.95,3.9-8.95,5.82-1.31.84-2.67,1.62-4,2.42A2.49,2.49,0,0,1,272.36,113.6Z"/><path d="M289.94,120.58c-.23.58-.65.56-1.1.5-1.75-.24-3.49-.48-5.24-.7l-5.64-.7a1.91,1.91,0,0,1-.82-.28.68.68,0,0,1-.22-.6c0-.17.3-.3.48-.41a.5.5,0,0,1,.3,0c2.52.35,5.1.28,7.59,1,1.11.32,2.28.4,3.43.61C289.16,120.05,289.67,120,289.94,120.58Z"/><path d="M287.94,135.3c-.5-.12-.89-.21-1.27-.32q-4.6-1.29-9.08-3a1.28,1.28,0,0,1-.27-.11c-.26-.15-.65-.3-.49-.64a1.11,1.11,0,0,1,.73-.55,2.4,2.4,0,0,1,.94.23,54.23,54.23,0,0,1,7.72,2.68c.42.19.89.25,1.33.4a1.43,1.43,0,0,1,.6.34c.15.14.34.42.29.55S288.09,135.18,287.94,135.3Z"/></svg>